M48
;DRILL file {KiCad 5.0.0-fee4fd1~66~ubuntu18.04.1} date Fri Sep 21 07:46:55 2018
;FORMAT={-:-/ absolute / metric / decimal}
FMAT,2
METRIC,TZ
T1C0.400
T2C0.889
T3C1.000
T4C2.000
T5C3.250
%
G90
G05
M71
T1
X114.303Y-65.795
X121.015Y-124.275
X131.539Y-116.224
X132.857Y-62.426
X146.725Y-117.3
X155.03Y-67.549
X155.73Y-67.084
X156.288Y-68.175
X165.852Y-124.275
X169.388Y-53.425
X170.241Y-52.8
X174.597Y-59.8
X174.597Y-66.288
X175.504Y-55.321
X176.33Y-51.451
X177.5Y-46.602
X177.591Y-49.222
X178.572Y-46.642
X179.335Y-49.164
X179.981Y-49.959
X180.593Y-65.903
X180.768Y-51.757
X180.782Y-57.459
X181.481Y-62.448
X181.528Y-55.3
X183.05Y-52.675
X184.139Y-56.8
X184.213Y-62.442
X185.874Y-58.038
X186.131Y-58.861
X186.135Y-61.148
X189.396Y-66.746
X193.73Y-58.008
X201.101Y-83.066
X201.414Y-122.844
X203.164Y-69.796
X204.7Y-55.811
X221.809Y-122.844
T2
X74.04Y-107.444
X74.04Y-109.476
X74.04Y-111.508
X74.04Y-113.54
X75.818Y-108.46
X75.818Y-110.492
X75.818Y-112.524
X75.818Y-114.556
T3
X173.05Y-104.5
X173.05Y-107.04
X173.05Y-109.58
X173.05Y-112.12
X175.59Y-104.5
X175.59Y-107.04
X175.59Y-109.58
X175.59Y-112.12
X227.2Y-95.25
X227.2Y-97.79
X227.2Y-100.33
X227.2Y-102.87
X227.2Y-105.41
X227.2Y-107.95
X94.54Y-56.3
X97.08Y-56.3
X99.62Y-56.3
X102.16Y-56.3
X104.7Y-56.3
X107.24Y-56.3
X109.78Y-56.3
X112.32Y-56.3
X114.86Y-56.3
X117.4Y-56.3
X119.94Y-56.3
X122.48Y-56.3
X125.02Y-56.3
X127.56Y-56.3
X130.1Y-56.3
X132.64Y-56.3
X135.18Y-56.3
X137.72Y-56.3
X140.26Y-56.3
X142.8Y-56.3
T4
X197.7Y-61.9
X206.7Y-61.9
X80.3Y-132.2
X89.3Y-132.2
X182.6Y-75.9
X191.6Y-75.9
X157.6Y-131.9
X166.6Y-131.9
X100.6Y-131.9
X109.6Y-131.9
X197.7Y-91.9
X206.7Y-91.9
X217.6Y-131.9
X226.6Y-131.9
X177.7Y-132.2
X186.7Y-132.2
X212.6Y-75.9
X221.6Y-75.9
X197.7Y-131.9
X206.7Y-131.9
T5
X71.5Y-104.65
X71.5Y-117.35
T0
M30
