G04 #@! TF.GenerationSoftware,KiCad,Pcbnew,5.0.0-fee4fd1~66~ubuntu18.04.1*
G04 #@! TF.CreationDate,2018-09-21T09:17:30-04:00*
G04 #@! TF.ProjectId,FrontPanel,46726F6E7450616E656C2E6B69636164,rev?*
G04 #@! TF.SameCoordinates,Original*
G04 #@! TF.FileFunction,Soldermask,Top*
G04 #@! TF.FilePolarity,Negative*
%FSLAX46Y46*%
G04 Gerber Fmt 4.6, Leading zero omitted, Abs format (unit mm)*
G04 Created by KiCad (PCBNEW 5.0.0-fee4fd1~66~ubuntu18.04.1) date Fri Sep 21 09:17:30 2018*
%MOMM*%
%LPD*%
G01*
G04 APERTURE LIST*
%ADD10R,1.400000X2.000000*%
%ADD11R,2.000000X1.400000*%
%ADD12R,2.100000X2.100000*%
%ADD13O,2.100000X2.100000*%
%ADD14R,1.300000X2.100000*%
%ADD15C,2.400000*%
%ADD16R,1.900000X2.400000*%
%ADD17R,1.900000X0.680000*%
%ADD18R,0.680000X1.900000*%
%ADD19C,3.650000*%
%ADD20C,1.670000*%
%ADD21C,3.900000*%
%ADD22C,2.900000*%
G04 APERTURE END LIST*
D10*
G04 #@! TO.C,C2*
X172200000Y-44100000D03*
X175200000Y-44100000D03*
G04 #@! TD*
G04 #@! TO.C,C3*
X183100000Y-43900000D03*
X186100000Y-43900000D03*
G04 #@! TD*
D11*
G04 #@! TO.C,C4*
X192300000Y-49200000D03*
X192300000Y-52200000D03*
G04 #@! TD*
G04 #@! TO.C,C5*
X192400000Y-61100000D03*
X192400000Y-58100000D03*
G04 #@! TD*
D10*
G04 #@! TO.C,C6*
X177600000Y-67900000D03*
X180600000Y-67900000D03*
G04 #@! TD*
G04 #@! TO.C,C7*
X174600000Y-68000000D03*
X171600000Y-68000000D03*
G04 #@! TD*
D11*
G04 #@! TO.C,C8*
X167500000Y-61700000D03*
X167500000Y-58700000D03*
G04 #@! TD*
G04 #@! TO.C,C9*
X167550000Y-51900000D03*
X167550000Y-54900000D03*
G04 #@! TD*
D10*
G04 #@! TO.C,D1*
X83400000Y-120300000D03*
X86400000Y-120300000D03*
G04 #@! TD*
G04 #@! TO.C,D2*
X103650000Y-120250000D03*
X106650000Y-120250000D03*
G04 #@! TD*
G04 #@! TO.C,D3*
X131650000Y-111850000D03*
X134650000Y-111850000D03*
G04 #@! TD*
G04 #@! TO.C,D4*
X145600000Y-111350000D03*
X148600000Y-111350000D03*
G04 #@! TD*
D12*
G04 #@! TO.C,J2*
X142800000Y-56300000D03*
D13*
X140260000Y-56300000D03*
X137720000Y-56300000D03*
X135180000Y-56300000D03*
X132640000Y-56300000D03*
X130100000Y-56300000D03*
X127560000Y-56300000D03*
X125020000Y-56300000D03*
X122480000Y-56300000D03*
X119940000Y-56300000D03*
X117400000Y-56300000D03*
X114860000Y-56300000D03*
X112320000Y-56300000D03*
X109780000Y-56300000D03*
X107240000Y-56300000D03*
X104700000Y-56300000D03*
X102160000Y-56300000D03*
X99620000Y-56300000D03*
X97080000Y-56300000D03*
X94540000Y-56300000D03*
G04 #@! TD*
D14*
G04 #@! TO.C,R1*
X83350000Y-115400000D03*
X86250000Y-115400000D03*
G04 #@! TD*
G04 #@! TO.C,R2*
X103650000Y-115500000D03*
X106550000Y-115500000D03*
G04 #@! TD*
G04 #@! TO.C,R3*
X131650000Y-117600000D03*
X134550000Y-117600000D03*
G04 #@! TD*
G04 #@! TO.C,R4*
X145750000Y-117300000D03*
X148650000Y-117300000D03*
G04 #@! TD*
D15*
G04 #@! TO.C,SW1*
X80300000Y-132200000D03*
X89300000Y-132200000D03*
D16*
X87300000Y-124575000D03*
X87300000Y-139825000D03*
X82300000Y-124575000D03*
X82300000Y-139825000D03*
G04 #@! TD*
D15*
G04 #@! TO.C,SW2*
X100600000Y-131900000D03*
X109600000Y-131900000D03*
D16*
X107600000Y-124275000D03*
X107600000Y-139525000D03*
X102600000Y-124275000D03*
X102600000Y-139525000D03*
G04 #@! TD*
D15*
G04 #@! TO.C,SW3*
X157600000Y-131900000D03*
X166600000Y-131900000D03*
D16*
X164600000Y-124275000D03*
X164600000Y-139525000D03*
X159600000Y-124275000D03*
X159600000Y-139525000D03*
G04 #@! TD*
D15*
G04 #@! TO.C,SW4*
X177700000Y-132200000D03*
X186700000Y-132200000D03*
D16*
X184700000Y-124575000D03*
X184700000Y-139825000D03*
X179700000Y-124575000D03*
X179700000Y-139825000D03*
G04 #@! TD*
D15*
G04 #@! TO.C,SW5*
X197700000Y-131900000D03*
X206700000Y-131900000D03*
D16*
X204700000Y-124275000D03*
X204700000Y-139525000D03*
X199700000Y-124275000D03*
X199700000Y-139525000D03*
G04 #@! TD*
D15*
G04 #@! TO.C,SW6*
X217600000Y-131900000D03*
X226600000Y-131900000D03*
D16*
X224600000Y-124275000D03*
X224600000Y-139525000D03*
X219600000Y-124275000D03*
X219600000Y-139525000D03*
G04 #@! TD*
D15*
G04 #@! TO.C,SW7*
X197700000Y-61900000D03*
X206700000Y-61900000D03*
D16*
X204700000Y-54275000D03*
X204700000Y-69525000D03*
X199700000Y-54275000D03*
X199700000Y-69525000D03*
G04 #@! TD*
D15*
G04 #@! TO.C,SW8*
X212600000Y-75900000D03*
X221600000Y-75900000D03*
D16*
X219600000Y-68275000D03*
X219600000Y-83525000D03*
X214600000Y-68275000D03*
X214600000Y-83525000D03*
G04 #@! TD*
D15*
G04 #@! TO.C,SW9*
X197700000Y-91900000D03*
X206700000Y-91900000D03*
D16*
X204700000Y-84275000D03*
X204700000Y-99525000D03*
X199700000Y-84275000D03*
X199700000Y-99525000D03*
G04 #@! TD*
D15*
G04 #@! TO.C,SW10*
X182600000Y-75900000D03*
X191600000Y-75900000D03*
D16*
X189600000Y-68275000D03*
X189600000Y-83525000D03*
X184600000Y-68275000D03*
X184600000Y-83525000D03*
G04 #@! TD*
D17*
G04 #@! TO.C,U1*
X171600000Y-49800000D03*
X171600000Y-50300000D03*
X171600000Y-50800000D03*
X171600000Y-51300000D03*
X171600000Y-51800000D03*
X171600000Y-52300000D03*
X171600000Y-52800000D03*
X171600000Y-53300000D03*
X171600000Y-53800000D03*
X171600000Y-54300000D03*
X171600000Y-54800000D03*
X171600000Y-55300000D03*
X171600000Y-55800000D03*
X171600000Y-56300000D03*
X171600000Y-56800000D03*
X171600000Y-57300000D03*
X171600000Y-57800000D03*
X171600000Y-58300000D03*
X171600000Y-58800000D03*
X171600000Y-59300000D03*
X171600000Y-59800000D03*
X171600000Y-60300000D03*
X171600000Y-60800000D03*
X171600000Y-61300000D03*
X171600000Y-61800000D03*
D18*
X173500000Y-63700000D03*
X174000000Y-63700000D03*
X174500000Y-63700000D03*
X175000000Y-63700000D03*
X175500000Y-63700000D03*
X176000000Y-63700000D03*
X176500000Y-63700000D03*
X177000000Y-63700000D03*
X177500000Y-63700000D03*
X178000000Y-63700000D03*
X178500000Y-63700000D03*
X179000000Y-63700000D03*
X179500000Y-63700000D03*
X180000000Y-63700000D03*
X180500000Y-63700000D03*
X181000000Y-63700000D03*
X181500000Y-63700000D03*
X182000000Y-63700000D03*
X182500000Y-63700000D03*
X183000000Y-63700000D03*
X183500000Y-63700000D03*
X184000000Y-63700000D03*
X184500000Y-63700000D03*
X185000000Y-63700000D03*
X185500000Y-63700000D03*
D17*
X187400000Y-61800000D03*
X187400000Y-61300000D03*
X187400000Y-60800000D03*
X187400000Y-60300000D03*
X187400000Y-59800000D03*
X187400000Y-59300000D03*
X187400000Y-58800000D03*
X187400000Y-58300000D03*
X187400000Y-57800000D03*
X187400000Y-57300000D03*
X187400000Y-56800000D03*
X187400000Y-56300000D03*
X187400000Y-55800000D03*
X187400000Y-55300000D03*
X187400000Y-54800000D03*
X187400000Y-54300000D03*
X187400000Y-53800000D03*
X187400000Y-53300000D03*
X187400000Y-52800000D03*
X187400000Y-52300000D03*
X187400000Y-51800000D03*
X187400000Y-51300000D03*
X187400000Y-50800000D03*
X187400000Y-50300000D03*
X187400000Y-49800000D03*
D18*
X185500000Y-47900000D03*
X185000000Y-47900000D03*
X184500000Y-47900000D03*
X184000000Y-47900000D03*
X183500000Y-47900000D03*
X183000000Y-47900000D03*
X182500000Y-47900000D03*
X182000000Y-47900000D03*
X181500000Y-47900000D03*
X181000000Y-47900000D03*
X180500000Y-47900000D03*
X180000000Y-47900000D03*
X179500000Y-47900000D03*
X179000000Y-47900000D03*
X178500000Y-47900000D03*
X178000000Y-47900000D03*
X177500000Y-47900000D03*
X177000000Y-47900000D03*
X176500000Y-47900000D03*
X176000000Y-47900000D03*
X175500000Y-47900000D03*
X175000000Y-47900000D03*
X174500000Y-47900000D03*
X174000000Y-47900000D03*
X173500000Y-47900000D03*
G04 #@! TD*
D19*
G04 #@! TO.C,J1*
X71500000Y-117350000D03*
X71500000Y-104650000D03*
D20*
X75818000Y-114556000D03*
X74040000Y-113540000D03*
X75818000Y-112524000D03*
X74040000Y-111508000D03*
X75818000Y-110492000D03*
X74040000Y-109476000D03*
X75818000Y-108460000D03*
X74040000Y-107444000D03*
G04 #@! TD*
D12*
G04 #@! TO.C,J4*
X227200000Y-95250000D03*
D13*
X227200000Y-97790000D03*
X227200000Y-100330000D03*
X227200000Y-102870000D03*
X227200000Y-105410000D03*
X227200000Y-107950000D03*
G04 #@! TD*
D21*
G04 #@! TO.C,h2*
X70100000Y-136900000D03*
G04 #@! TD*
G04 #@! TO.C,h1*
X70100000Y-51850000D03*
G04 #@! TD*
G04 #@! TO.C,h4*
X215150000Y-116900000D03*
G04 #@! TD*
G04 #@! TO.C,h5*
X188100000Y-89850000D03*
G04 #@! TD*
G04 #@! TO.C,h6*
X215100000Y-51850000D03*
G04 #@! TD*
G04 #@! TO.C,h3*
X138000000Y-131800000D03*
G04 #@! TD*
D22*
G04 #@! TO.C,h9*
X160100000Y-94900000D03*
G04 #@! TD*
G04 #@! TO.C,h10*
X160100000Y-56850000D03*
G04 #@! TD*
G04 #@! TO.C,h7*
X77100000Y-56850000D03*
G04 #@! TD*
G04 #@! TO.C,h8*
X77100000Y-94850000D03*
G04 #@! TD*
D12*
G04 #@! TO.C,J3*
X173050000Y-104500000D03*
D13*
X175590000Y-104500000D03*
X173050000Y-107040000D03*
X175590000Y-107040000D03*
X173050000Y-109580000D03*
X175590000Y-109580000D03*
X173050000Y-112120000D03*
X175590000Y-112120000D03*
G04 #@! TD*
M02*
