G04 #@! TF.GenerationSoftware,KiCad,Pcbnew,5.0.0-fee4fd1~66~ubuntu18.04.1*
G04 #@! TF.CreationDate,2018-09-21T09:17:30-04:00*
G04 #@! TF.ProjectId,FrontPanel,46726F6E7450616E656C2E6B69636164,rev?*
G04 #@! TF.SameCoordinates,Original*
G04 #@! TF.FileFunction,Legend,Top*
G04 #@! TF.FilePolarity,Positive*
%FSLAX46Y46*%
G04 Gerber Fmt 4.6, Leading zero omitted, Abs format (unit mm)*
G04 Created by KiCad (PCBNEW 5.0.0-fee4fd1~66~ubuntu18.04.1) date Fri Sep 21 09:17:30 2018*
%MOMM*%
%LPD*%
G01*
G04 APERTURE LIST*
%ADD10C,0.120000*%
%ADD11C,0.150000*%
G04 APERTURE END LIST*
D10*
G04 #@! TO.C,C2*
X174700000Y-43080000D02*
X172700000Y-43080000D01*
X172700000Y-45120000D02*
X174700000Y-45120000D01*
G04 #@! TO.C,C3*
X185600000Y-42880000D02*
X183600000Y-42880000D01*
X183600000Y-44920000D02*
X185600000Y-44920000D01*
G04 #@! TO.C,C4*
X193320000Y-51700000D02*
X193320000Y-49700000D01*
X191280000Y-49700000D02*
X191280000Y-51700000D01*
G04 #@! TO.C,C5*
X191380000Y-58600000D02*
X191380000Y-60600000D01*
X193420000Y-60600000D02*
X193420000Y-58600000D01*
G04 #@! TO.C,C6*
X180100000Y-66880000D02*
X178100000Y-66880000D01*
X178100000Y-68920000D02*
X180100000Y-68920000D01*
G04 #@! TO.C,C7*
X172100000Y-69020000D02*
X174100000Y-69020000D01*
X174100000Y-66980000D02*
X172100000Y-66980000D01*
G04 #@! TO.C,C8*
X166480000Y-59200000D02*
X166480000Y-61200000D01*
X168520000Y-61200000D02*
X168520000Y-59200000D01*
G04 #@! TO.C,C9*
X168570000Y-54400000D02*
X168570000Y-52400000D01*
X166530000Y-52400000D02*
X166530000Y-54400000D01*
G04 #@! TO.C,D1*
X82700000Y-119240000D02*
X82700000Y-121360000D01*
X85900000Y-119240000D02*
X82700000Y-119240000D01*
X82700000Y-121360000D02*
X85900000Y-121360000D01*
G04 #@! TO.C,D2*
X102950000Y-119190000D02*
X102950000Y-121310000D01*
X106150000Y-119190000D02*
X102950000Y-119190000D01*
X102950000Y-121310000D02*
X106150000Y-121310000D01*
G04 #@! TO.C,D3*
X130950000Y-110790000D02*
X130950000Y-112910000D01*
X134150000Y-110790000D02*
X130950000Y-110790000D01*
X130950000Y-112910000D02*
X134150000Y-112910000D01*
G04 #@! TO.C,D4*
X144900000Y-110290000D02*
X144900000Y-112410000D01*
X148100000Y-110290000D02*
X144900000Y-110290000D01*
X144900000Y-112410000D02*
X148100000Y-112410000D01*
G04 #@! TO.C,J2*
X93210000Y-54970000D02*
X93210000Y-57630000D01*
X141530000Y-54970000D02*
X93210000Y-54970000D01*
X141530000Y-57630000D02*
X93210000Y-57630000D01*
X141530000Y-54970000D02*
X141530000Y-57630000D01*
X142800000Y-54970000D02*
X144130000Y-54970000D01*
X144130000Y-54970000D02*
X144130000Y-56300000D01*
G04 #@! TO.C,R1*
X85800000Y-116470000D02*
X83800000Y-116470000D01*
X83800000Y-114330000D02*
X85800000Y-114330000D01*
G04 #@! TO.C,R2*
X106100000Y-116570000D02*
X104100000Y-116570000D01*
X104100000Y-114430000D02*
X106100000Y-114430000D01*
G04 #@! TO.C,R3*
X134100000Y-118670000D02*
X132100000Y-118670000D01*
X132100000Y-116530000D02*
X134100000Y-116530000D01*
G04 #@! TO.C,R4*
X148200000Y-118370000D02*
X146200000Y-118370000D01*
X146200000Y-116230000D02*
X148200000Y-116230000D01*
D11*
G04 #@! TO.C,SW1*
X78800000Y-126200000D02*
X90800000Y-126200000D01*
X90800000Y-126200000D02*
X90800000Y-138200000D01*
X90800000Y-138200000D02*
X78800000Y-138200000D01*
X78800000Y-138200000D02*
X78800000Y-126200000D01*
G04 #@! TO.C,SW2*
X99100000Y-125900000D02*
X111100000Y-125900000D01*
X111100000Y-125900000D02*
X111100000Y-137900000D01*
X111100000Y-137900000D02*
X99100000Y-137900000D01*
X99100000Y-137900000D02*
X99100000Y-125900000D01*
G04 #@! TO.C,SW3*
X156100000Y-125900000D02*
X168100000Y-125900000D01*
X168100000Y-125900000D02*
X168100000Y-137900000D01*
X168100000Y-137900000D02*
X156100000Y-137900000D01*
X156100000Y-137900000D02*
X156100000Y-125900000D01*
G04 #@! TO.C,SW4*
X176200000Y-126200000D02*
X188200000Y-126200000D01*
X188200000Y-126200000D02*
X188200000Y-138200000D01*
X188200000Y-138200000D02*
X176200000Y-138200000D01*
X176200000Y-138200000D02*
X176200000Y-126200000D01*
G04 #@! TO.C,SW5*
X196200000Y-125900000D02*
X208200000Y-125900000D01*
X208200000Y-125900000D02*
X208200000Y-137900000D01*
X208200000Y-137900000D02*
X196200000Y-137900000D01*
X196200000Y-137900000D02*
X196200000Y-125900000D01*
G04 #@! TO.C,SW6*
X216100000Y-125900000D02*
X228100000Y-125900000D01*
X228100000Y-125900000D02*
X228100000Y-137900000D01*
X228100000Y-137900000D02*
X216100000Y-137900000D01*
X216100000Y-137900000D02*
X216100000Y-125900000D01*
G04 #@! TO.C,SW7*
X196200000Y-55900000D02*
X208200000Y-55900000D01*
X208200000Y-55900000D02*
X208200000Y-67900000D01*
X208200000Y-67900000D02*
X196200000Y-67900000D01*
X196200000Y-67900000D02*
X196200000Y-55900000D01*
G04 #@! TO.C,SW8*
X211100000Y-69900000D02*
X223100000Y-69900000D01*
X223100000Y-69900000D02*
X223100000Y-81900000D01*
X223100000Y-81900000D02*
X211100000Y-81900000D01*
X211100000Y-81900000D02*
X211100000Y-69900000D01*
G04 #@! TO.C,SW9*
X196200000Y-85900000D02*
X208200000Y-85900000D01*
X208200000Y-85900000D02*
X208200000Y-97900000D01*
X208200000Y-97900000D02*
X196200000Y-97900000D01*
X196200000Y-97900000D02*
X196200000Y-85900000D01*
G04 #@! TO.C,SW10*
X181100000Y-69900000D02*
X193100000Y-69900000D01*
X193100000Y-69900000D02*
X193100000Y-81900000D01*
X193100000Y-81900000D02*
X181100000Y-81900000D01*
X181100000Y-81900000D02*
X181100000Y-69900000D01*
G04 #@! TO.C,U1*
X172375000Y-48675000D02*
X172375000Y-49325000D01*
X186625000Y-48675000D02*
X186625000Y-49435000D01*
X186625000Y-62925000D02*
X186625000Y-62165000D01*
X172375000Y-62925000D02*
X172375000Y-62165000D01*
X172375000Y-48675000D02*
X173135000Y-48675000D01*
X172375000Y-62925000D02*
X173135000Y-62925000D01*
X186625000Y-62925000D02*
X185865000Y-62925000D01*
X186625000Y-48675000D02*
X185865000Y-48675000D01*
X172375000Y-49325000D02*
X170850000Y-49325000D01*
D10*
G04 #@! TO.C,J4*
X225870000Y-109280000D02*
X228530000Y-109280000D01*
X225870000Y-96520000D02*
X225870000Y-109280000D01*
X228530000Y-96520000D02*
X228530000Y-109280000D01*
X225870000Y-96520000D02*
X228530000Y-96520000D01*
X225870000Y-95250000D02*
X225870000Y-93920000D01*
X225870000Y-93920000D02*
X227200000Y-93920000D01*
G04 #@! TO.C,J3*
X171720000Y-113450000D02*
X176920000Y-113450000D01*
X171720000Y-105770000D02*
X171720000Y-113450000D01*
X176920000Y-103170000D02*
X176920000Y-113450000D01*
X171720000Y-105770000D02*
X174320000Y-105770000D01*
X174320000Y-105770000D02*
X174320000Y-103170000D01*
X174320000Y-103170000D02*
X176920000Y-103170000D01*
X171720000Y-104500000D02*
X171720000Y-103170000D01*
X171720000Y-103170000D02*
X173050000Y-103170000D01*
G04 #@! TO.C,C2*
D11*
X169533333Y-44357142D02*
X169485714Y-44404761D01*
X169342857Y-44452380D01*
X169247619Y-44452380D01*
X169104761Y-44404761D01*
X169009523Y-44309523D01*
X168961904Y-44214285D01*
X168914285Y-44023809D01*
X168914285Y-43880952D01*
X168961904Y-43690476D01*
X169009523Y-43595238D01*
X169104761Y-43500000D01*
X169247619Y-43452380D01*
X169342857Y-43452380D01*
X169485714Y-43500000D01*
X169533333Y-43547619D01*
X169914285Y-43547619D02*
X169961904Y-43500000D01*
X170057142Y-43452380D01*
X170295238Y-43452380D01*
X170390476Y-43500000D01*
X170438095Y-43547619D01*
X170485714Y-43642857D01*
X170485714Y-43738095D01*
X170438095Y-43880952D01*
X169866666Y-44452380D01*
X170485714Y-44452380D01*
G04 #@! TO.C,C3*
X188133333Y-44357142D02*
X188085714Y-44404761D01*
X187942857Y-44452380D01*
X187847619Y-44452380D01*
X187704761Y-44404761D01*
X187609523Y-44309523D01*
X187561904Y-44214285D01*
X187514285Y-44023809D01*
X187514285Y-43880952D01*
X187561904Y-43690476D01*
X187609523Y-43595238D01*
X187704761Y-43500000D01*
X187847619Y-43452380D01*
X187942857Y-43452380D01*
X188085714Y-43500000D01*
X188133333Y-43547619D01*
X188466666Y-43452380D02*
X189085714Y-43452380D01*
X188752380Y-43833333D01*
X188895238Y-43833333D01*
X188990476Y-43880952D01*
X189038095Y-43928571D01*
X189085714Y-44023809D01*
X189085714Y-44261904D01*
X189038095Y-44357142D01*
X188990476Y-44404761D01*
X188895238Y-44452380D01*
X188609523Y-44452380D01*
X188514285Y-44404761D01*
X188466666Y-44357142D01*
G04 #@! TO.C,C4*
X194407142Y-50866666D02*
X194454761Y-50914285D01*
X194502380Y-51057142D01*
X194502380Y-51152380D01*
X194454761Y-51295238D01*
X194359523Y-51390476D01*
X194264285Y-51438095D01*
X194073809Y-51485714D01*
X193930952Y-51485714D01*
X193740476Y-51438095D01*
X193645238Y-51390476D01*
X193550000Y-51295238D01*
X193502380Y-51152380D01*
X193502380Y-51057142D01*
X193550000Y-50914285D01*
X193597619Y-50866666D01*
X193835714Y-50009523D02*
X194502380Y-50009523D01*
X193454761Y-50247619D02*
X194169047Y-50485714D01*
X194169047Y-49866666D01*
G04 #@! TO.C,C5*
X191007142Y-59766666D02*
X191054761Y-59814285D01*
X191102380Y-59957142D01*
X191102380Y-60052380D01*
X191054761Y-60195238D01*
X190959523Y-60290476D01*
X190864285Y-60338095D01*
X190673809Y-60385714D01*
X190530952Y-60385714D01*
X190340476Y-60338095D01*
X190245238Y-60290476D01*
X190150000Y-60195238D01*
X190102380Y-60052380D01*
X190102380Y-59957142D01*
X190150000Y-59814285D01*
X190197619Y-59766666D01*
X190102380Y-58861904D02*
X190102380Y-59338095D01*
X190578571Y-59385714D01*
X190530952Y-59338095D01*
X190483333Y-59242857D01*
X190483333Y-59004761D01*
X190530952Y-58909523D01*
X190578571Y-58861904D01*
X190673809Y-58814285D01*
X190911904Y-58814285D01*
X191007142Y-58861904D01*
X191054761Y-58909523D01*
X191102380Y-59004761D01*
X191102380Y-59242857D01*
X191054761Y-59338095D01*
X191007142Y-59385714D01*
G04 #@! TO.C,C6*
X178933333Y-66507142D02*
X178885714Y-66554761D01*
X178742857Y-66602380D01*
X178647619Y-66602380D01*
X178504761Y-66554761D01*
X178409523Y-66459523D01*
X178361904Y-66364285D01*
X178314285Y-66173809D01*
X178314285Y-66030952D01*
X178361904Y-65840476D01*
X178409523Y-65745238D01*
X178504761Y-65650000D01*
X178647619Y-65602380D01*
X178742857Y-65602380D01*
X178885714Y-65650000D01*
X178933333Y-65697619D01*
X179790476Y-65602380D02*
X179600000Y-65602380D01*
X179504761Y-65650000D01*
X179457142Y-65697619D01*
X179361904Y-65840476D01*
X179314285Y-66030952D01*
X179314285Y-66411904D01*
X179361904Y-66507142D01*
X179409523Y-66554761D01*
X179504761Y-66602380D01*
X179695238Y-66602380D01*
X179790476Y-66554761D01*
X179838095Y-66507142D01*
X179885714Y-66411904D01*
X179885714Y-66173809D01*
X179838095Y-66078571D01*
X179790476Y-66030952D01*
X179695238Y-65983333D01*
X179504761Y-65983333D01*
X179409523Y-66030952D01*
X179361904Y-66078571D01*
X179314285Y-66173809D01*
G04 #@! TO.C,C7*
X172933333Y-70107142D02*
X172885714Y-70154761D01*
X172742857Y-70202380D01*
X172647619Y-70202380D01*
X172504761Y-70154761D01*
X172409523Y-70059523D01*
X172361904Y-69964285D01*
X172314285Y-69773809D01*
X172314285Y-69630952D01*
X172361904Y-69440476D01*
X172409523Y-69345238D01*
X172504761Y-69250000D01*
X172647619Y-69202380D01*
X172742857Y-69202380D01*
X172885714Y-69250000D01*
X172933333Y-69297619D01*
X173266666Y-69202380D02*
X173933333Y-69202380D01*
X173504761Y-70202380D01*
G04 #@! TO.C,C8*
X166107142Y-60366666D02*
X166154761Y-60414285D01*
X166202380Y-60557142D01*
X166202380Y-60652380D01*
X166154761Y-60795238D01*
X166059523Y-60890476D01*
X165964285Y-60938095D01*
X165773809Y-60985714D01*
X165630952Y-60985714D01*
X165440476Y-60938095D01*
X165345238Y-60890476D01*
X165250000Y-60795238D01*
X165202380Y-60652380D01*
X165202380Y-60557142D01*
X165250000Y-60414285D01*
X165297619Y-60366666D01*
X165630952Y-59795238D02*
X165583333Y-59890476D01*
X165535714Y-59938095D01*
X165440476Y-59985714D01*
X165392857Y-59985714D01*
X165297619Y-59938095D01*
X165250000Y-59890476D01*
X165202380Y-59795238D01*
X165202380Y-59604761D01*
X165250000Y-59509523D01*
X165297619Y-59461904D01*
X165392857Y-59414285D01*
X165440476Y-59414285D01*
X165535714Y-59461904D01*
X165583333Y-59509523D01*
X165630952Y-59604761D01*
X165630952Y-59795238D01*
X165678571Y-59890476D01*
X165726190Y-59938095D01*
X165821428Y-59985714D01*
X166011904Y-59985714D01*
X166107142Y-59938095D01*
X166154761Y-59890476D01*
X166202380Y-59795238D01*
X166202380Y-59604761D01*
X166154761Y-59509523D01*
X166107142Y-59461904D01*
X166011904Y-59414285D01*
X165821428Y-59414285D01*
X165726190Y-59461904D01*
X165678571Y-59509523D01*
X165630952Y-59604761D01*
G04 #@! TO.C,C9*
X169657142Y-53566666D02*
X169704761Y-53614285D01*
X169752380Y-53757142D01*
X169752380Y-53852380D01*
X169704761Y-53995238D01*
X169609523Y-54090476D01*
X169514285Y-54138095D01*
X169323809Y-54185714D01*
X169180952Y-54185714D01*
X168990476Y-54138095D01*
X168895238Y-54090476D01*
X168800000Y-53995238D01*
X168752380Y-53852380D01*
X168752380Y-53757142D01*
X168800000Y-53614285D01*
X168847619Y-53566666D01*
X169752380Y-53090476D02*
X169752380Y-52900000D01*
X169704761Y-52804761D01*
X169657142Y-52757142D01*
X169514285Y-52661904D01*
X169323809Y-52614285D01*
X168942857Y-52614285D01*
X168847619Y-52661904D01*
X168800000Y-52709523D01*
X168752380Y-52804761D01*
X168752380Y-52995238D01*
X168800000Y-53090476D01*
X168847619Y-53138095D01*
X168942857Y-53185714D01*
X169180952Y-53185714D01*
X169276190Y-53138095D01*
X169323809Y-53090476D01*
X169371428Y-52995238D01*
X169371428Y-52804761D01*
X169323809Y-52709523D01*
X169276190Y-52661904D01*
X169180952Y-52614285D01*
G04 #@! TO.C,D1*
X84161904Y-118952380D02*
X84161904Y-117952380D01*
X84400000Y-117952380D01*
X84542857Y-118000000D01*
X84638095Y-118095238D01*
X84685714Y-118190476D01*
X84733333Y-118380952D01*
X84733333Y-118523809D01*
X84685714Y-118714285D01*
X84638095Y-118809523D01*
X84542857Y-118904761D01*
X84400000Y-118952380D01*
X84161904Y-118952380D01*
X85685714Y-118952380D02*
X85114285Y-118952380D01*
X85400000Y-118952380D02*
X85400000Y-117952380D01*
X85304761Y-118095238D01*
X85209523Y-118190476D01*
X85114285Y-118238095D01*
G04 #@! TO.C,D2*
X104411904Y-118902380D02*
X104411904Y-117902380D01*
X104650000Y-117902380D01*
X104792857Y-117950000D01*
X104888095Y-118045238D01*
X104935714Y-118140476D01*
X104983333Y-118330952D01*
X104983333Y-118473809D01*
X104935714Y-118664285D01*
X104888095Y-118759523D01*
X104792857Y-118854761D01*
X104650000Y-118902380D01*
X104411904Y-118902380D01*
X105364285Y-117997619D02*
X105411904Y-117950000D01*
X105507142Y-117902380D01*
X105745238Y-117902380D01*
X105840476Y-117950000D01*
X105888095Y-117997619D01*
X105935714Y-118092857D01*
X105935714Y-118188095D01*
X105888095Y-118330952D01*
X105316666Y-118902380D01*
X105935714Y-118902380D01*
G04 #@! TO.C,D3*
X132411904Y-110502380D02*
X132411904Y-109502380D01*
X132650000Y-109502380D01*
X132792857Y-109550000D01*
X132888095Y-109645238D01*
X132935714Y-109740476D01*
X132983333Y-109930952D01*
X132983333Y-110073809D01*
X132935714Y-110264285D01*
X132888095Y-110359523D01*
X132792857Y-110454761D01*
X132650000Y-110502380D01*
X132411904Y-110502380D01*
X133316666Y-109502380D02*
X133935714Y-109502380D01*
X133602380Y-109883333D01*
X133745238Y-109883333D01*
X133840476Y-109930952D01*
X133888095Y-109978571D01*
X133935714Y-110073809D01*
X133935714Y-110311904D01*
X133888095Y-110407142D01*
X133840476Y-110454761D01*
X133745238Y-110502380D01*
X133459523Y-110502380D01*
X133364285Y-110454761D01*
X133316666Y-110407142D01*
G04 #@! TO.C,D4*
X146361904Y-110002380D02*
X146361904Y-109002380D01*
X146600000Y-109002380D01*
X146742857Y-109050000D01*
X146838095Y-109145238D01*
X146885714Y-109240476D01*
X146933333Y-109430952D01*
X146933333Y-109573809D01*
X146885714Y-109764285D01*
X146838095Y-109859523D01*
X146742857Y-109954761D01*
X146600000Y-110002380D01*
X146361904Y-110002380D01*
X147790476Y-109335714D02*
X147790476Y-110002380D01*
X147552380Y-108954761D02*
X147314285Y-109669047D01*
X147933333Y-109669047D01*
G04 #@! TO.C,J2*
X144582380Y-56633333D02*
X145296666Y-56633333D01*
X145439523Y-56680952D01*
X145534761Y-56776190D01*
X145582380Y-56919047D01*
X145582380Y-57014285D01*
X144677619Y-56204761D02*
X144630000Y-56157142D01*
X144582380Y-56061904D01*
X144582380Y-55823809D01*
X144630000Y-55728571D01*
X144677619Y-55680952D01*
X144772857Y-55633333D01*
X144868095Y-55633333D01*
X145010952Y-55680952D01*
X145582380Y-56252380D01*
X145582380Y-55633333D01*
G04 #@! TO.C,R1*
X84633333Y-114002380D02*
X84300000Y-113526190D01*
X84061904Y-114002380D02*
X84061904Y-113002380D01*
X84442857Y-113002380D01*
X84538095Y-113050000D01*
X84585714Y-113097619D01*
X84633333Y-113192857D01*
X84633333Y-113335714D01*
X84585714Y-113430952D01*
X84538095Y-113478571D01*
X84442857Y-113526190D01*
X84061904Y-113526190D01*
X85585714Y-114002380D02*
X85014285Y-114002380D01*
X85300000Y-114002380D02*
X85300000Y-113002380D01*
X85204761Y-113145238D01*
X85109523Y-113240476D01*
X85014285Y-113288095D01*
G04 #@! TO.C,R2*
X104933333Y-114102380D02*
X104600000Y-113626190D01*
X104361904Y-114102380D02*
X104361904Y-113102380D01*
X104742857Y-113102380D01*
X104838095Y-113150000D01*
X104885714Y-113197619D01*
X104933333Y-113292857D01*
X104933333Y-113435714D01*
X104885714Y-113530952D01*
X104838095Y-113578571D01*
X104742857Y-113626190D01*
X104361904Y-113626190D01*
X105314285Y-113197619D02*
X105361904Y-113150000D01*
X105457142Y-113102380D01*
X105695238Y-113102380D01*
X105790476Y-113150000D01*
X105838095Y-113197619D01*
X105885714Y-113292857D01*
X105885714Y-113388095D01*
X105838095Y-113530952D01*
X105266666Y-114102380D01*
X105885714Y-114102380D01*
G04 #@! TO.C,R3*
X132933333Y-116202380D02*
X132600000Y-115726190D01*
X132361904Y-116202380D02*
X132361904Y-115202380D01*
X132742857Y-115202380D01*
X132838095Y-115250000D01*
X132885714Y-115297619D01*
X132933333Y-115392857D01*
X132933333Y-115535714D01*
X132885714Y-115630952D01*
X132838095Y-115678571D01*
X132742857Y-115726190D01*
X132361904Y-115726190D01*
X133266666Y-115202380D02*
X133885714Y-115202380D01*
X133552380Y-115583333D01*
X133695238Y-115583333D01*
X133790476Y-115630952D01*
X133838095Y-115678571D01*
X133885714Y-115773809D01*
X133885714Y-116011904D01*
X133838095Y-116107142D01*
X133790476Y-116154761D01*
X133695238Y-116202380D01*
X133409523Y-116202380D01*
X133314285Y-116154761D01*
X133266666Y-116107142D01*
G04 #@! TO.C,R4*
X147033333Y-115902380D02*
X146700000Y-115426190D01*
X146461904Y-115902380D02*
X146461904Y-114902380D01*
X146842857Y-114902380D01*
X146938095Y-114950000D01*
X146985714Y-114997619D01*
X147033333Y-115092857D01*
X147033333Y-115235714D01*
X146985714Y-115330952D01*
X146938095Y-115378571D01*
X146842857Y-115426190D01*
X146461904Y-115426190D01*
X147890476Y-115235714D02*
X147890476Y-115902380D01*
X147652380Y-114854761D02*
X147414285Y-115569047D01*
X148033333Y-115569047D01*
G04 #@! TO.C,SW1*
X83466666Y-133104761D02*
X83609523Y-133152380D01*
X83847619Y-133152380D01*
X83942857Y-133104761D01*
X83990476Y-133057142D01*
X84038095Y-132961904D01*
X84038095Y-132866666D01*
X83990476Y-132771428D01*
X83942857Y-132723809D01*
X83847619Y-132676190D01*
X83657142Y-132628571D01*
X83561904Y-132580952D01*
X83514285Y-132533333D01*
X83466666Y-132438095D01*
X83466666Y-132342857D01*
X83514285Y-132247619D01*
X83561904Y-132200000D01*
X83657142Y-132152380D01*
X83895238Y-132152380D01*
X84038095Y-132200000D01*
X84371428Y-132152380D02*
X84609523Y-133152380D01*
X84800000Y-132438095D01*
X84990476Y-133152380D01*
X85228571Y-132152380D01*
X86133333Y-133152380D02*
X85561904Y-133152380D01*
X85847619Y-133152380D02*
X85847619Y-132152380D01*
X85752380Y-132295238D01*
X85657142Y-132390476D01*
X85561904Y-132438095D01*
G04 #@! TO.C,SW2*
X103766666Y-132804761D02*
X103909523Y-132852380D01*
X104147619Y-132852380D01*
X104242857Y-132804761D01*
X104290476Y-132757142D01*
X104338095Y-132661904D01*
X104338095Y-132566666D01*
X104290476Y-132471428D01*
X104242857Y-132423809D01*
X104147619Y-132376190D01*
X103957142Y-132328571D01*
X103861904Y-132280952D01*
X103814285Y-132233333D01*
X103766666Y-132138095D01*
X103766666Y-132042857D01*
X103814285Y-131947619D01*
X103861904Y-131900000D01*
X103957142Y-131852380D01*
X104195238Y-131852380D01*
X104338095Y-131900000D01*
X104671428Y-131852380D02*
X104909523Y-132852380D01*
X105100000Y-132138095D01*
X105290476Y-132852380D01*
X105528571Y-131852380D01*
X105861904Y-131947619D02*
X105909523Y-131900000D01*
X106004761Y-131852380D01*
X106242857Y-131852380D01*
X106338095Y-131900000D01*
X106385714Y-131947619D01*
X106433333Y-132042857D01*
X106433333Y-132138095D01*
X106385714Y-132280952D01*
X105814285Y-132852380D01*
X106433333Y-132852380D01*
G04 #@! TO.C,SW3*
X160766666Y-132804761D02*
X160909523Y-132852380D01*
X161147619Y-132852380D01*
X161242857Y-132804761D01*
X161290476Y-132757142D01*
X161338095Y-132661904D01*
X161338095Y-132566666D01*
X161290476Y-132471428D01*
X161242857Y-132423809D01*
X161147619Y-132376190D01*
X160957142Y-132328571D01*
X160861904Y-132280952D01*
X160814285Y-132233333D01*
X160766666Y-132138095D01*
X160766666Y-132042857D01*
X160814285Y-131947619D01*
X160861904Y-131900000D01*
X160957142Y-131852380D01*
X161195238Y-131852380D01*
X161338095Y-131900000D01*
X161671428Y-131852380D02*
X161909523Y-132852380D01*
X162100000Y-132138095D01*
X162290476Y-132852380D01*
X162528571Y-131852380D01*
X162814285Y-131852380D02*
X163433333Y-131852380D01*
X163100000Y-132233333D01*
X163242857Y-132233333D01*
X163338095Y-132280952D01*
X163385714Y-132328571D01*
X163433333Y-132423809D01*
X163433333Y-132661904D01*
X163385714Y-132757142D01*
X163338095Y-132804761D01*
X163242857Y-132852380D01*
X162957142Y-132852380D01*
X162861904Y-132804761D01*
X162814285Y-132757142D01*
G04 #@! TO.C,SW4*
X180866666Y-133104761D02*
X181009523Y-133152380D01*
X181247619Y-133152380D01*
X181342857Y-133104761D01*
X181390476Y-133057142D01*
X181438095Y-132961904D01*
X181438095Y-132866666D01*
X181390476Y-132771428D01*
X181342857Y-132723809D01*
X181247619Y-132676190D01*
X181057142Y-132628571D01*
X180961904Y-132580952D01*
X180914285Y-132533333D01*
X180866666Y-132438095D01*
X180866666Y-132342857D01*
X180914285Y-132247619D01*
X180961904Y-132200000D01*
X181057142Y-132152380D01*
X181295238Y-132152380D01*
X181438095Y-132200000D01*
X181771428Y-132152380D02*
X182009523Y-133152380D01*
X182200000Y-132438095D01*
X182390476Y-133152380D01*
X182628571Y-132152380D01*
X183438095Y-132485714D02*
X183438095Y-133152380D01*
X183200000Y-132104761D02*
X182961904Y-132819047D01*
X183580952Y-132819047D01*
G04 #@! TO.C,SW5*
X200866666Y-132804761D02*
X201009523Y-132852380D01*
X201247619Y-132852380D01*
X201342857Y-132804761D01*
X201390476Y-132757142D01*
X201438095Y-132661904D01*
X201438095Y-132566666D01*
X201390476Y-132471428D01*
X201342857Y-132423809D01*
X201247619Y-132376190D01*
X201057142Y-132328571D01*
X200961904Y-132280952D01*
X200914285Y-132233333D01*
X200866666Y-132138095D01*
X200866666Y-132042857D01*
X200914285Y-131947619D01*
X200961904Y-131900000D01*
X201057142Y-131852380D01*
X201295238Y-131852380D01*
X201438095Y-131900000D01*
X201771428Y-131852380D02*
X202009523Y-132852380D01*
X202200000Y-132138095D01*
X202390476Y-132852380D01*
X202628571Y-131852380D01*
X203485714Y-131852380D02*
X203009523Y-131852380D01*
X202961904Y-132328571D01*
X203009523Y-132280952D01*
X203104761Y-132233333D01*
X203342857Y-132233333D01*
X203438095Y-132280952D01*
X203485714Y-132328571D01*
X203533333Y-132423809D01*
X203533333Y-132661904D01*
X203485714Y-132757142D01*
X203438095Y-132804761D01*
X203342857Y-132852380D01*
X203104761Y-132852380D01*
X203009523Y-132804761D01*
X202961904Y-132757142D01*
G04 #@! TO.C,SW6*
X220766666Y-132804761D02*
X220909523Y-132852380D01*
X221147619Y-132852380D01*
X221242857Y-132804761D01*
X221290476Y-132757142D01*
X221338095Y-132661904D01*
X221338095Y-132566666D01*
X221290476Y-132471428D01*
X221242857Y-132423809D01*
X221147619Y-132376190D01*
X220957142Y-132328571D01*
X220861904Y-132280952D01*
X220814285Y-132233333D01*
X220766666Y-132138095D01*
X220766666Y-132042857D01*
X220814285Y-131947619D01*
X220861904Y-131900000D01*
X220957142Y-131852380D01*
X221195238Y-131852380D01*
X221338095Y-131900000D01*
X221671428Y-131852380D02*
X221909523Y-132852380D01*
X222100000Y-132138095D01*
X222290476Y-132852380D01*
X222528571Y-131852380D01*
X223338095Y-131852380D02*
X223147619Y-131852380D01*
X223052380Y-131900000D01*
X223004761Y-131947619D01*
X222909523Y-132090476D01*
X222861904Y-132280952D01*
X222861904Y-132661904D01*
X222909523Y-132757142D01*
X222957142Y-132804761D01*
X223052380Y-132852380D01*
X223242857Y-132852380D01*
X223338095Y-132804761D01*
X223385714Y-132757142D01*
X223433333Y-132661904D01*
X223433333Y-132423809D01*
X223385714Y-132328571D01*
X223338095Y-132280952D01*
X223242857Y-132233333D01*
X223052380Y-132233333D01*
X222957142Y-132280952D01*
X222909523Y-132328571D01*
X222861904Y-132423809D01*
G04 #@! TO.C,SW7*
X200866666Y-62804761D02*
X201009523Y-62852380D01*
X201247619Y-62852380D01*
X201342857Y-62804761D01*
X201390476Y-62757142D01*
X201438095Y-62661904D01*
X201438095Y-62566666D01*
X201390476Y-62471428D01*
X201342857Y-62423809D01*
X201247619Y-62376190D01*
X201057142Y-62328571D01*
X200961904Y-62280952D01*
X200914285Y-62233333D01*
X200866666Y-62138095D01*
X200866666Y-62042857D01*
X200914285Y-61947619D01*
X200961904Y-61900000D01*
X201057142Y-61852380D01*
X201295238Y-61852380D01*
X201438095Y-61900000D01*
X201771428Y-61852380D02*
X202009523Y-62852380D01*
X202200000Y-62138095D01*
X202390476Y-62852380D01*
X202628571Y-61852380D01*
X202914285Y-61852380D02*
X203580952Y-61852380D01*
X203152380Y-62852380D01*
G04 #@! TO.C,SW8*
X215766666Y-76804761D02*
X215909523Y-76852380D01*
X216147619Y-76852380D01*
X216242857Y-76804761D01*
X216290476Y-76757142D01*
X216338095Y-76661904D01*
X216338095Y-76566666D01*
X216290476Y-76471428D01*
X216242857Y-76423809D01*
X216147619Y-76376190D01*
X215957142Y-76328571D01*
X215861904Y-76280952D01*
X215814285Y-76233333D01*
X215766666Y-76138095D01*
X215766666Y-76042857D01*
X215814285Y-75947619D01*
X215861904Y-75900000D01*
X215957142Y-75852380D01*
X216195238Y-75852380D01*
X216338095Y-75900000D01*
X216671428Y-75852380D02*
X216909523Y-76852380D01*
X217100000Y-76138095D01*
X217290476Y-76852380D01*
X217528571Y-75852380D01*
X218052380Y-76280952D02*
X217957142Y-76233333D01*
X217909523Y-76185714D01*
X217861904Y-76090476D01*
X217861904Y-76042857D01*
X217909523Y-75947619D01*
X217957142Y-75900000D01*
X218052380Y-75852380D01*
X218242857Y-75852380D01*
X218338095Y-75900000D01*
X218385714Y-75947619D01*
X218433333Y-76042857D01*
X218433333Y-76090476D01*
X218385714Y-76185714D01*
X218338095Y-76233333D01*
X218242857Y-76280952D01*
X218052380Y-76280952D01*
X217957142Y-76328571D01*
X217909523Y-76376190D01*
X217861904Y-76471428D01*
X217861904Y-76661904D01*
X217909523Y-76757142D01*
X217957142Y-76804761D01*
X218052380Y-76852380D01*
X218242857Y-76852380D01*
X218338095Y-76804761D01*
X218385714Y-76757142D01*
X218433333Y-76661904D01*
X218433333Y-76471428D01*
X218385714Y-76376190D01*
X218338095Y-76328571D01*
X218242857Y-76280952D01*
G04 #@! TO.C,SW9*
X200866666Y-92804761D02*
X201009523Y-92852380D01*
X201247619Y-92852380D01*
X201342857Y-92804761D01*
X201390476Y-92757142D01*
X201438095Y-92661904D01*
X201438095Y-92566666D01*
X201390476Y-92471428D01*
X201342857Y-92423809D01*
X201247619Y-92376190D01*
X201057142Y-92328571D01*
X200961904Y-92280952D01*
X200914285Y-92233333D01*
X200866666Y-92138095D01*
X200866666Y-92042857D01*
X200914285Y-91947619D01*
X200961904Y-91900000D01*
X201057142Y-91852380D01*
X201295238Y-91852380D01*
X201438095Y-91900000D01*
X201771428Y-91852380D02*
X202009523Y-92852380D01*
X202200000Y-92138095D01*
X202390476Y-92852380D01*
X202628571Y-91852380D01*
X203057142Y-92852380D02*
X203247619Y-92852380D01*
X203342857Y-92804761D01*
X203390476Y-92757142D01*
X203485714Y-92614285D01*
X203533333Y-92423809D01*
X203533333Y-92042857D01*
X203485714Y-91947619D01*
X203438095Y-91900000D01*
X203342857Y-91852380D01*
X203152380Y-91852380D01*
X203057142Y-91900000D01*
X203009523Y-91947619D01*
X202961904Y-92042857D01*
X202961904Y-92280952D01*
X203009523Y-92376190D01*
X203057142Y-92423809D01*
X203152380Y-92471428D01*
X203342857Y-92471428D01*
X203438095Y-92423809D01*
X203485714Y-92376190D01*
X203533333Y-92280952D01*
G04 #@! TO.C,SW10*
X185290476Y-76804761D02*
X185433333Y-76852380D01*
X185671428Y-76852380D01*
X185766666Y-76804761D01*
X185814285Y-76757142D01*
X185861904Y-76661904D01*
X185861904Y-76566666D01*
X185814285Y-76471428D01*
X185766666Y-76423809D01*
X185671428Y-76376190D01*
X185480952Y-76328571D01*
X185385714Y-76280952D01*
X185338095Y-76233333D01*
X185290476Y-76138095D01*
X185290476Y-76042857D01*
X185338095Y-75947619D01*
X185385714Y-75900000D01*
X185480952Y-75852380D01*
X185719047Y-75852380D01*
X185861904Y-75900000D01*
X186195238Y-75852380D02*
X186433333Y-76852380D01*
X186623809Y-76138095D01*
X186814285Y-76852380D01*
X187052380Y-75852380D01*
X187957142Y-76852380D02*
X187385714Y-76852380D01*
X187671428Y-76852380D02*
X187671428Y-75852380D01*
X187576190Y-75995238D01*
X187480952Y-76090476D01*
X187385714Y-76138095D01*
X188576190Y-75852380D02*
X188671428Y-75852380D01*
X188766666Y-75900000D01*
X188814285Y-75947619D01*
X188861904Y-76042857D01*
X188909523Y-76233333D01*
X188909523Y-76471428D01*
X188861904Y-76661904D01*
X188814285Y-76757142D01*
X188766666Y-76804761D01*
X188671428Y-76852380D01*
X188576190Y-76852380D01*
X188480952Y-76804761D01*
X188433333Y-76757142D01*
X188385714Y-76661904D01*
X188338095Y-76471428D01*
X188338095Y-76233333D01*
X188385714Y-76042857D01*
X188433333Y-75947619D01*
X188480952Y-75900000D01*
X188576190Y-75852380D01*
G04 #@! TO.C,U1*
X178738095Y-45602380D02*
X178738095Y-46411904D01*
X178785714Y-46507142D01*
X178833333Y-46554761D01*
X178928571Y-46602380D01*
X179119047Y-46602380D01*
X179214285Y-46554761D01*
X179261904Y-46507142D01*
X179309523Y-46411904D01*
X179309523Y-45602380D01*
X180309523Y-46602380D02*
X179738095Y-46602380D01*
X180023809Y-46602380D02*
X180023809Y-45602380D01*
X179928571Y-45745238D01*
X179833333Y-45840476D01*
X179738095Y-45888095D01*
G04 #@! TO.C,J4*
X226866666Y-92372380D02*
X226866666Y-93086666D01*
X226819047Y-93229523D01*
X226723809Y-93324761D01*
X226580952Y-93372380D01*
X226485714Y-93372380D01*
X227771428Y-92705714D02*
X227771428Y-93372380D01*
X227533333Y-92324761D02*
X227295238Y-93039047D01*
X227914285Y-93039047D01*
G04 #@! TO.C,h2*
X69409523Y-132852380D02*
X69409523Y-131852380D01*
X69838095Y-132852380D02*
X69838095Y-132328571D01*
X69790476Y-132233333D01*
X69695238Y-132185714D01*
X69552380Y-132185714D01*
X69457142Y-132233333D01*
X69409523Y-132280952D01*
X70266666Y-131947619D02*
X70314285Y-131900000D01*
X70409523Y-131852380D01*
X70647619Y-131852380D01*
X70742857Y-131900000D01*
X70790476Y-131947619D01*
X70838095Y-132042857D01*
X70838095Y-132138095D01*
X70790476Y-132280952D01*
X70219047Y-132852380D01*
X70838095Y-132852380D01*
G04 #@! TO.C,h1*
X69409523Y-47802380D02*
X69409523Y-46802380D01*
X69838095Y-47802380D02*
X69838095Y-47278571D01*
X69790476Y-47183333D01*
X69695238Y-47135714D01*
X69552380Y-47135714D01*
X69457142Y-47183333D01*
X69409523Y-47230952D01*
X70838095Y-47802380D02*
X70266666Y-47802380D01*
X70552380Y-47802380D02*
X70552380Y-46802380D01*
X70457142Y-46945238D01*
X70361904Y-47040476D01*
X70266666Y-47088095D01*
G04 #@! TO.C,h4*
X214459523Y-112852380D02*
X214459523Y-111852380D01*
X214888095Y-112852380D02*
X214888095Y-112328571D01*
X214840476Y-112233333D01*
X214745238Y-112185714D01*
X214602380Y-112185714D01*
X214507142Y-112233333D01*
X214459523Y-112280952D01*
X215792857Y-112185714D02*
X215792857Y-112852380D01*
X215554761Y-111804761D02*
X215316666Y-112519047D01*
X215935714Y-112519047D01*
G04 #@! TO.C,h5*
X187409523Y-85802380D02*
X187409523Y-84802380D01*
X187838095Y-85802380D02*
X187838095Y-85278571D01*
X187790476Y-85183333D01*
X187695238Y-85135714D01*
X187552380Y-85135714D01*
X187457142Y-85183333D01*
X187409523Y-85230952D01*
X188790476Y-84802380D02*
X188314285Y-84802380D01*
X188266666Y-85278571D01*
X188314285Y-85230952D01*
X188409523Y-85183333D01*
X188647619Y-85183333D01*
X188742857Y-85230952D01*
X188790476Y-85278571D01*
X188838095Y-85373809D01*
X188838095Y-85611904D01*
X188790476Y-85707142D01*
X188742857Y-85754761D01*
X188647619Y-85802380D01*
X188409523Y-85802380D01*
X188314285Y-85754761D01*
X188266666Y-85707142D01*
G04 #@! TO.C,h6*
X214409523Y-47802380D02*
X214409523Y-46802380D01*
X214838095Y-47802380D02*
X214838095Y-47278571D01*
X214790476Y-47183333D01*
X214695238Y-47135714D01*
X214552380Y-47135714D01*
X214457142Y-47183333D01*
X214409523Y-47230952D01*
X215742857Y-46802380D02*
X215552380Y-46802380D01*
X215457142Y-46850000D01*
X215409523Y-46897619D01*
X215314285Y-47040476D01*
X215266666Y-47230952D01*
X215266666Y-47611904D01*
X215314285Y-47707142D01*
X215361904Y-47754761D01*
X215457142Y-47802380D01*
X215647619Y-47802380D01*
X215742857Y-47754761D01*
X215790476Y-47707142D01*
X215838095Y-47611904D01*
X215838095Y-47373809D01*
X215790476Y-47278571D01*
X215742857Y-47230952D01*
X215647619Y-47183333D01*
X215457142Y-47183333D01*
X215361904Y-47230952D01*
X215314285Y-47278571D01*
X215266666Y-47373809D01*
G04 #@! TO.C,h3*
X137309523Y-127752380D02*
X137309523Y-126752380D01*
X137738095Y-127752380D02*
X137738095Y-127228571D01*
X137690476Y-127133333D01*
X137595238Y-127085714D01*
X137452380Y-127085714D01*
X137357142Y-127133333D01*
X137309523Y-127180952D01*
X138119047Y-126752380D02*
X138738095Y-126752380D01*
X138404761Y-127133333D01*
X138547619Y-127133333D01*
X138642857Y-127180952D01*
X138690476Y-127228571D01*
X138738095Y-127323809D01*
X138738095Y-127561904D01*
X138690476Y-127657142D01*
X138642857Y-127704761D01*
X138547619Y-127752380D01*
X138261904Y-127752380D01*
X138166666Y-127704761D01*
X138119047Y-127657142D01*
G04 #@! TO.C,h9*
X159409523Y-91852380D02*
X159409523Y-90852380D01*
X159838095Y-91852380D02*
X159838095Y-91328571D01*
X159790476Y-91233333D01*
X159695238Y-91185714D01*
X159552380Y-91185714D01*
X159457142Y-91233333D01*
X159409523Y-91280952D01*
X160361904Y-91852380D02*
X160552380Y-91852380D01*
X160647619Y-91804761D01*
X160695238Y-91757142D01*
X160790476Y-91614285D01*
X160838095Y-91423809D01*
X160838095Y-91042857D01*
X160790476Y-90947619D01*
X160742857Y-90900000D01*
X160647619Y-90852380D01*
X160457142Y-90852380D01*
X160361904Y-90900000D01*
X160314285Y-90947619D01*
X160266666Y-91042857D01*
X160266666Y-91280952D01*
X160314285Y-91376190D01*
X160361904Y-91423809D01*
X160457142Y-91471428D01*
X160647619Y-91471428D01*
X160742857Y-91423809D01*
X160790476Y-91376190D01*
X160838095Y-91280952D01*
G04 #@! TO.C,h10*
X158933333Y-53802380D02*
X158933333Y-52802380D01*
X159361904Y-53802380D02*
X159361904Y-53278571D01*
X159314285Y-53183333D01*
X159219047Y-53135714D01*
X159076190Y-53135714D01*
X158980952Y-53183333D01*
X158933333Y-53230952D01*
X160361904Y-53802380D02*
X159790476Y-53802380D01*
X160076190Y-53802380D02*
X160076190Y-52802380D01*
X159980952Y-52945238D01*
X159885714Y-53040476D01*
X159790476Y-53088095D01*
X160980952Y-52802380D02*
X161076190Y-52802380D01*
X161171428Y-52850000D01*
X161219047Y-52897619D01*
X161266666Y-52992857D01*
X161314285Y-53183333D01*
X161314285Y-53421428D01*
X161266666Y-53611904D01*
X161219047Y-53707142D01*
X161171428Y-53754761D01*
X161076190Y-53802380D01*
X160980952Y-53802380D01*
X160885714Y-53754761D01*
X160838095Y-53707142D01*
X160790476Y-53611904D01*
X160742857Y-53421428D01*
X160742857Y-53183333D01*
X160790476Y-52992857D01*
X160838095Y-52897619D01*
X160885714Y-52850000D01*
X160980952Y-52802380D01*
G04 #@! TO.C,h7*
X76409523Y-53802380D02*
X76409523Y-52802380D01*
X76838095Y-53802380D02*
X76838095Y-53278571D01*
X76790476Y-53183333D01*
X76695238Y-53135714D01*
X76552380Y-53135714D01*
X76457142Y-53183333D01*
X76409523Y-53230952D01*
X77219047Y-52802380D02*
X77885714Y-52802380D01*
X77457142Y-53802380D01*
G04 #@! TO.C,h8*
X76409523Y-91802380D02*
X76409523Y-90802380D01*
X76838095Y-91802380D02*
X76838095Y-91278571D01*
X76790476Y-91183333D01*
X76695238Y-91135714D01*
X76552380Y-91135714D01*
X76457142Y-91183333D01*
X76409523Y-91230952D01*
X77457142Y-91230952D02*
X77361904Y-91183333D01*
X77314285Y-91135714D01*
X77266666Y-91040476D01*
X77266666Y-90992857D01*
X77314285Y-90897619D01*
X77361904Y-90850000D01*
X77457142Y-90802380D01*
X77647619Y-90802380D01*
X77742857Y-90850000D01*
X77790476Y-90897619D01*
X77838095Y-90992857D01*
X77838095Y-91040476D01*
X77790476Y-91135714D01*
X77742857Y-91183333D01*
X77647619Y-91230952D01*
X77457142Y-91230952D01*
X77361904Y-91278571D01*
X77314285Y-91326190D01*
X77266666Y-91421428D01*
X77266666Y-91611904D01*
X77314285Y-91707142D01*
X77361904Y-91754761D01*
X77457142Y-91802380D01*
X77647619Y-91802380D01*
X77742857Y-91754761D01*
X77790476Y-91707142D01*
X77838095Y-91611904D01*
X77838095Y-91421428D01*
X77790476Y-91326190D01*
X77742857Y-91278571D01*
X77647619Y-91230952D01*
G04 #@! TO.C,J3*
X173986666Y-101622380D02*
X173986666Y-102336666D01*
X173939047Y-102479523D01*
X173843809Y-102574761D01*
X173700952Y-102622380D01*
X173605714Y-102622380D01*
X174367619Y-101622380D02*
X174986666Y-101622380D01*
X174653333Y-102003333D01*
X174796190Y-102003333D01*
X174891428Y-102050952D01*
X174939047Y-102098571D01*
X174986666Y-102193809D01*
X174986666Y-102431904D01*
X174939047Y-102527142D01*
X174891428Y-102574761D01*
X174796190Y-102622380D01*
X174510476Y-102622380D01*
X174415238Y-102574761D01*
X174367619Y-102527142D01*
G04 #@! TD*
M02*
