G04 #@! TF.GenerationSoftware,KiCad,Pcbnew,5.0.0-fee4fd1~66~ubuntu18.04.1*
G04 #@! TF.CreationDate,2018-09-21T09:17:30-04:00*
G04 #@! TF.ProjectId,FrontPanel,46726F6E7450616E656C2E6B69636164,rev?*
G04 #@! TF.SameCoordinates,Original*
G04 #@! TF.FileFunction,Copper,L2,Bot,Signal*
G04 #@! TF.FilePolarity,Positive*
%FSLAX46Y46*%
G04 Gerber Fmt 4.6, Leading zero omitted, Abs format (unit mm)*
G04 Created by KiCad (PCBNEW 5.0.0-fee4fd1~66~ubuntu18.04.1) date Fri Sep 21 09:17:30 2018*
%MOMM*%
%LPD*%
G01*
G04 APERTURE LIST*
G04 #@! TA.AperFunction,SMDPad,CuDef*
%ADD10R,3.000000X1.600000*%
G04 #@! TD*
G04 #@! TA.AperFunction,ComponentPad*
%ADD11R,1.700000X1.700000*%
G04 #@! TD*
G04 #@! TA.AperFunction,ComponentPad*
%ADD12O,1.700000X1.700000*%
G04 #@! TD*
G04 #@! TA.AperFunction,ComponentPad*
%ADD13C,2.000000*%
G04 #@! TD*
G04 #@! TA.AperFunction,ComponentPad*
%ADD14C,3.250000*%
G04 #@! TD*
G04 #@! TA.AperFunction,ComponentPad*
%ADD15C,1.270000*%
G04 #@! TD*
G04 #@! TA.AperFunction,ViaPad*
%ADD16C,0.600000*%
G04 #@! TD*
G04 #@! TA.AperFunction,Conductor*
%ADD17C,0.250000*%
G04 #@! TD*
G04 #@! TA.AperFunction,Conductor*
%ADD18C,0.254000*%
G04 #@! TD*
G04 APERTURE END LIST*
D10*
G04 #@! TO.P,C1,1*
G04 #@! TO.N,+3V3*
X86000000Y-107650000D03*
G04 #@! TO.P,C1,2*
G04 #@! TO.N,GND*
X90400000Y-107650000D03*
G04 #@! TD*
D11*
G04 #@! TO.P,J2,1*
G04 #@! TO.N,GND*
X142800000Y-56300000D03*
D12*
G04 #@! TO.P,J2,2*
G04 #@! TO.N,+3V3*
X140260000Y-56300000D03*
G04 #@! TO.P,J2,3*
G04 #@! TO.N,Net-(J2-Pad3)*
X137720000Y-56300000D03*
G04 #@! TO.P,J2,4*
G04 #@! TO.N,Net-(J2-Pad4)*
X135180000Y-56300000D03*
G04 #@! TO.P,J2,5*
G04 #@! TO.N,Net-(J2-Pad5)*
X132640000Y-56300000D03*
G04 #@! TO.P,J2,6*
G04 #@! TO.N,Net-(J2-Pad6)*
X130100000Y-56300000D03*
G04 #@! TO.P,J2,7*
G04 #@! TO.N,Net-(J2-Pad7)*
X127560000Y-56300000D03*
G04 #@! TO.P,J2,8*
G04 #@! TO.N,Net-(J2-Pad8)*
X125020000Y-56300000D03*
G04 #@! TO.P,J2,9*
G04 #@! TO.N,Net-(J2-Pad9)*
X122480000Y-56300000D03*
G04 #@! TO.P,J2,10*
G04 #@! TO.N,Net-(J2-Pad10)*
X119940000Y-56300000D03*
G04 #@! TO.P,J2,11*
G04 #@! TO.N,Net-(J2-Pad11)*
X117400000Y-56300000D03*
G04 #@! TO.P,J2,12*
G04 #@! TO.N,Net-(J2-Pad12)*
X114860000Y-56300000D03*
G04 #@! TO.P,J2,13*
G04 #@! TO.N,Net-(J2-Pad13)*
X112320000Y-56300000D03*
G04 #@! TO.P,J2,14*
G04 #@! TO.N,Net-(J2-Pad14)*
X109780000Y-56300000D03*
G04 #@! TO.P,J2,15*
G04 #@! TO.N,Net-(J2-Pad15)*
X107240000Y-56300000D03*
G04 #@! TO.P,J2,16*
G04 #@! TO.N,Net-(J2-Pad16)*
X104700000Y-56300000D03*
G04 #@! TO.P,J2,17*
G04 #@! TO.N,Net-(J2-Pad17)*
X102160000Y-56300000D03*
G04 #@! TO.P,J2,18*
G04 #@! TO.N,Net-(J2-Pad18)*
X99620000Y-56300000D03*
G04 #@! TO.P,J2,19*
G04 #@! TO.N,Net-(J2-Pad19)*
X97080000Y-56300000D03*
G04 #@! TO.P,J2,20*
G04 #@! TO.N,GND*
X94540000Y-56300000D03*
G04 #@! TD*
D13*
G04 #@! TO.P,SW1,*
G04 #@! TO.N,*
X80300000Y-132200000D03*
X89300000Y-132200000D03*
G04 #@! TD*
G04 #@! TO.P,SW2,*
G04 #@! TO.N,*
X100600000Y-131900000D03*
X109600000Y-131900000D03*
G04 #@! TD*
G04 #@! TO.P,SW3,*
G04 #@! TO.N,*
X157600000Y-131900000D03*
X166600000Y-131900000D03*
G04 #@! TD*
G04 #@! TO.P,SW4,*
G04 #@! TO.N,*
X177700000Y-132200000D03*
X186700000Y-132200000D03*
G04 #@! TD*
G04 #@! TO.P,SW5,*
G04 #@! TO.N,*
X197700000Y-131900000D03*
X206700000Y-131900000D03*
G04 #@! TD*
G04 #@! TO.P,SW6,*
G04 #@! TO.N,*
X217600000Y-131900000D03*
X226600000Y-131900000D03*
G04 #@! TD*
G04 #@! TO.P,SW7,*
G04 #@! TO.N,*
X197700000Y-61900000D03*
X206700000Y-61900000D03*
G04 #@! TD*
G04 #@! TO.P,SW8,*
G04 #@! TO.N,*
X212600000Y-75900000D03*
X221600000Y-75900000D03*
G04 #@! TD*
G04 #@! TO.P,SW9,*
G04 #@! TO.N,*
X197700000Y-91900000D03*
X206700000Y-91900000D03*
G04 #@! TD*
G04 #@! TO.P,SW10,*
G04 #@! TO.N,*
X182600000Y-75900000D03*
X191600000Y-75900000D03*
G04 #@! TD*
D14*
G04 #@! TO.P,J1,*
G04 #@! TO.N,*
X71500000Y-117350000D03*
X71500000Y-104650000D03*
D15*
G04 #@! TO.P,J1,8*
G04 #@! TO.N,GND*
X75818000Y-114556000D03*
G04 #@! TO.P,J1,7*
X74040000Y-113540000D03*
G04 #@! TO.P,J1,6*
G04 #@! TO.N,Net-(J1-Pad6)*
X75818000Y-112524000D03*
G04 #@! TO.P,J1,5*
G04 #@! TO.N,/RX*
X74040000Y-111508000D03*
G04 #@! TO.P,J1,4*
G04 #@! TO.N,/TX*
X75818000Y-110492000D03*
G04 #@! TO.P,J1,3*
G04 #@! TO.N,Net-(J1-Pad3)*
X74040000Y-109476000D03*
G04 #@! TO.P,J1,2*
G04 #@! TO.N,+3V3*
X75818000Y-108460000D03*
G04 #@! TO.P,J1,1*
X74040000Y-107444000D03*
G04 #@! TD*
D11*
G04 #@! TO.P,J4,1*
G04 #@! TO.N,GND*
X227200000Y-95250000D03*
D12*
G04 #@! TO.P,J4,2*
G04 #@! TO.N,Net-(J4-Pad2)*
X227200000Y-97790000D03*
G04 #@! TO.P,J4,3*
G04 #@! TO.N,Net-(J4-Pad3)*
X227200000Y-100330000D03*
G04 #@! TO.P,J4,4*
G04 #@! TO.N,Net-(J4-Pad4)*
X227200000Y-102870000D03*
G04 #@! TO.P,J4,5*
G04 #@! TO.N,Net-(J4-Pad5)*
X227200000Y-105410000D03*
G04 #@! TO.P,J4,6*
G04 #@! TO.N,Net-(J4-Pad6)*
X227200000Y-107950000D03*
G04 #@! TD*
D11*
G04 #@! TO.P,J3,1*
G04 #@! TO.N,Net-(J3-Pad1)*
X173050000Y-104500000D03*
D12*
G04 #@! TO.P,J3,2*
G04 #@! TO.N,GND*
X175590000Y-104500000D03*
G04 #@! TO.P,J3,3*
G04 #@! TO.N,Net-(J3-Pad3)*
X173050000Y-107040000D03*
G04 #@! TO.P,J3,4*
G04 #@! TO.N,+3V3*
X175590000Y-107040000D03*
G04 #@! TO.P,J3,5*
G04 #@! TO.N,Net-(J3-Pad5)*
X173050000Y-109580000D03*
G04 #@! TO.P,J3,6*
G04 #@! TO.N,Net-(J3-Pad6)*
X175590000Y-109580000D03*
G04 #@! TO.P,J3,7*
G04 #@! TO.N,Net-(J3-Pad7)*
X173050000Y-112120000D03*
G04 #@! TO.P,J3,8*
G04 #@! TO.N,Net-(J3-Pad8)*
X175590000Y-112120000D03*
G04 #@! TD*
D16*
G04 #@! TO.N,+3V3*
X174597100Y-66287700D03*
X174597100Y-59800000D03*
X175503700Y-55320600D03*
G04 #@! TO.N,/TX*
X132857400Y-62426500D03*
G04 #@! TO.N,/RX*
X114303200Y-65795100D03*
G04 #@! TO.N,Net-(J2-Pad4)*
X184213400Y-62441900D03*
G04 #@! TO.N,Net-(J2-Pad7)*
X186134500Y-61148400D03*
G04 #@! TO.N,Net-(J3-Pad1)*
X179981400Y-49958500D03*
G04 #@! TO.N,Net-(J3-Pad5)*
X180768300Y-51756600D03*
G04 #@! TO.N,Net-(J4-Pad4)*
X177591300Y-49222000D03*
G04 #@! TO.N,Net-(J4-Pad5)*
X177500000Y-46602100D03*
G04 #@! TO.N,Net-(R1-Pad1)*
X169388100Y-53425300D03*
X155729500Y-67083900D03*
G04 #@! TO.N,Net-(R2-Pad1)*
X170241400Y-52800000D03*
X156287600Y-68174800D03*
G04 #@! TO.N,Net-(R3-Pad1)*
X178571700Y-46641500D03*
X131538700Y-116224300D03*
G04 #@! TO.N,Net-(R4-Pad1)*
X179334900Y-49164400D03*
X146725100Y-117300000D03*
G04 #@! TO.N,Net-(SW1-Pad1)*
X183049800Y-52674700D03*
X155029700Y-67549500D03*
G04 #@! TO.N,Net-(SW2-Pad1)*
X176330400Y-51451200D03*
X121014800Y-124275000D03*
G04 #@! TO.N,Net-(SW3-Pad1)*
X181528400Y-55300000D03*
X165852100Y-124275000D03*
G04 #@! TO.N,Net-(SW5-Pad1)*
X180592900Y-65902600D03*
X201413900Y-122843800D03*
G04 #@! TO.N,Net-(SW6-Pad1)*
X181481300Y-62448000D03*
X221809000Y-122843800D03*
G04 #@! TO.N,Net-(SW7-Pad1)*
X204700000Y-55811000D03*
X186130600Y-58861200D03*
X203163900Y-69796000D03*
G04 #@! TO.N,Net-(SW8-Pad1)*
X185874400Y-58037900D03*
X193730400Y-58007600D03*
G04 #@! TO.N,Net-(SW9-Pad1)*
X180782200Y-57458700D03*
X201101400Y-83066300D03*
G04 #@! TO.N,Net-(SW10-Pad1)*
X184138600Y-56800000D03*
X189396400Y-66746100D03*
G04 #@! TD*
D17*
G04 #@! TO.N,+3V3*
X75017900Y-107444000D02*
X75818000Y-108244100D01*
X74040000Y-107444000D02*
X75017900Y-107444000D01*
X75818000Y-108244100D02*
X75818000Y-108460000D01*
X83580600Y-108244100D02*
X84174700Y-107650000D01*
X75818000Y-108244100D02*
X83580600Y-108244100D01*
X86000000Y-107650000D02*
X84174700Y-107650000D01*
X174597100Y-66287700D02*
X174597100Y-59800000D01*
X132152700Y-60372000D02*
X86000000Y-106524700D01*
X140988600Y-60372000D02*
X132152700Y-60372000D01*
X143987100Y-57373500D02*
X140988600Y-60372000D01*
X143987100Y-55278600D02*
X143987100Y-57373500D01*
X143833200Y-55124700D02*
X143987100Y-55278600D01*
X141435300Y-55124700D02*
X143833200Y-55124700D01*
X140260000Y-56300000D02*
X141435300Y-55124700D01*
X86000000Y-107650000D02*
X86000000Y-106524700D01*
X175503700Y-58893400D02*
X175503700Y-55320600D01*
X174597100Y-59800000D02*
X175503700Y-58893400D01*
X174411200Y-66473600D02*
X174597100Y-66287700D01*
X174411200Y-105053200D02*
X174411200Y-66473600D01*
X175222700Y-105864700D02*
X174411200Y-105053200D01*
X175590000Y-105864700D02*
X175222700Y-105864700D01*
X175590000Y-107040000D02*
X175590000Y-105864700D01*
G04 #@! TO.N,GND*
X141624700Y-56667400D02*
X141624700Y-56300000D01*
X140816800Y-57475300D02*
X141624700Y-56667400D01*
X96523300Y-57475300D02*
X140816800Y-57475300D01*
X95715300Y-56667300D02*
X96523300Y-57475300D01*
X95715300Y-56300000D02*
X95715300Y-56667300D01*
X94540000Y-56300000D02*
X95715300Y-56300000D01*
X142800000Y-56300000D02*
X141624700Y-56300000D01*
X75056000Y-114556000D02*
X75818000Y-114556000D01*
X74040000Y-113540000D02*
X75056000Y-114556000D01*
X84619300Y-114556000D02*
X90400000Y-108775300D01*
X75818000Y-114556000D02*
X84619300Y-114556000D01*
X90400000Y-107650000D02*
X90400000Y-108775300D01*
G04 #@! TO.N,/TX*
X85955700Y-110492000D02*
X75818000Y-110492000D01*
X87825400Y-108622300D02*
X85955700Y-110492000D01*
X87825400Y-107458500D02*
X87825400Y-108622300D01*
X132857400Y-62426500D02*
X87825400Y-107458500D01*
G04 #@! TO.N,/RX*
X73062800Y-107035500D02*
X114303200Y-65795100D01*
X73062800Y-110530800D02*
X73062800Y-107035500D01*
X74040000Y-111508000D02*
X73062800Y-110530800D01*
G04 #@! TO.N,Net-(J2-Pad4)*
X135180000Y-56300000D02*
X136355300Y-56300000D01*
X136355300Y-55932700D02*
X136355300Y-56300000D01*
X147180600Y-45107400D02*
X136355300Y-55932700D01*
X179258700Y-45107400D02*
X147180600Y-45107400D01*
X183675100Y-49523800D02*
X179258700Y-45107400D01*
X183675100Y-52933800D02*
X183675100Y-49523800D01*
X183504700Y-53104200D02*
X183675100Y-52933800D01*
X183504700Y-61733200D02*
X183504700Y-53104200D01*
X184213400Y-62441900D02*
X183504700Y-61733200D01*
G04 #@! TO.N,Net-(J2-Pad7)*
X127560000Y-56300000D02*
X128735300Y-56300000D01*
X184922900Y-59936800D02*
X186134500Y-61148400D01*
X184922900Y-50089600D02*
X184922900Y-59936800D01*
X179490300Y-44657000D02*
X184922900Y-50089600D01*
X140011000Y-44657000D02*
X179490300Y-44657000D01*
X128735300Y-55932700D02*
X140011000Y-44657000D01*
X128735300Y-56300000D02*
X128735300Y-55932700D01*
G04 #@! TO.N,Net-(J3-Pad1)*
X173050000Y-56889900D02*
X179981400Y-49958500D01*
X173050000Y-104500000D02*
X173050000Y-56889900D01*
G04 #@! TO.N,Net-(J3-Pad5)*
X178909900Y-53615000D02*
X180768300Y-51756600D01*
X178909900Y-105401400D02*
X178909900Y-53615000D01*
X175906600Y-108404700D02*
X178909900Y-105401400D01*
X175033200Y-108404700D02*
X175906600Y-108404700D01*
X174225300Y-109212600D02*
X175033200Y-108404700D01*
X174225300Y-109580000D02*
X174225300Y-109212600D01*
X173050000Y-109580000D02*
X174225300Y-109580000D01*
G04 #@! TO.N,Net-(J4-Pad4)*
X178274300Y-48539000D02*
X177591300Y-49222000D01*
X179622000Y-48539000D02*
X178274300Y-48539000D01*
X181737800Y-50654800D02*
X179622000Y-48539000D01*
X181737800Y-53202400D02*
X181737800Y-50654800D01*
X182188200Y-53652800D02*
X181737800Y-53202400D01*
X182188200Y-62028700D02*
X182188200Y-53652800D01*
X223029500Y-102870000D02*
X182188200Y-62028700D01*
X227200000Y-102870000D02*
X223029500Y-102870000D01*
G04 #@! TO.N,Net-(J4-Pad5)*
X227200000Y-105410000D02*
X227200000Y-104234700D01*
X178086000Y-46016100D02*
X177500000Y-46602100D01*
X178842500Y-46016100D02*
X178086000Y-46016100D01*
X182188200Y-49361800D02*
X178842500Y-46016100D01*
X182188200Y-52697700D02*
X182188200Y-49361800D01*
X183054400Y-53563900D02*
X182188200Y-52697700D01*
X183054400Y-62186700D02*
X183054400Y-53563900D01*
X222467700Y-101600000D02*
X183054400Y-62186700D01*
X227655200Y-101600000D02*
X222467700Y-101600000D01*
X228395600Y-102340400D02*
X227655200Y-101600000D01*
X228395600Y-103406400D02*
X228395600Y-102340400D01*
X227567300Y-104234700D02*
X228395600Y-103406400D01*
X227200000Y-104234700D02*
X227567300Y-104234700D01*
G04 #@! TO.N,Net-(R1-Pad1)*
X155729500Y-67083900D02*
X169388100Y-53425300D01*
G04 #@! TO.N,Net-(R2-Pad1)*
X170241400Y-54221000D02*
X156287600Y-68174800D01*
X170241400Y-52800000D02*
X170241400Y-54221000D01*
G04 #@! TO.N,Net-(R3-Pad1)*
X131538700Y-97127300D02*
X131538700Y-116224300D01*
X176955700Y-51710300D02*
X131538700Y-97127300D01*
X176955700Y-48257500D02*
X176955700Y-51710300D01*
X178571700Y-46641500D02*
X176955700Y-48257500D01*
G04 #@! TO.N,Net-(R4-Pad1)*
X179334900Y-49968000D02*
X179334900Y-49164400D01*
X146725100Y-82577800D02*
X179334900Y-49968000D01*
X146725100Y-117300000D02*
X146725100Y-82577800D01*
G04 #@! TO.N,Net-(SW1-Pad1)*
X183049800Y-49576800D02*
X183049800Y-52674700D01*
X179030700Y-45557700D02*
X183049800Y-49576800D01*
X176360800Y-45557700D02*
X179030700Y-45557700D01*
X155029700Y-66888800D02*
X176360800Y-45557700D01*
X155029700Y-67549500D02*
X155029700Y-66888800D01*
G04 #@! TO.N,Net-(SW2-Pad1)*
X121014800Y-106766800D02*
X121014800Y-124275000D01*
X176330400Y-51451200D02*
X121014800Y-106766800D01*
G04 #@! TO.N,Net-(SW3-Pad1)*
X179950400Y-110176700D02*
X165852100Y-124275000D01*
X179950400Y-56878000D02*
X179950400Y-110176700D01*
X181528400Y-55300000D02*
X179950400Y-56878000D01*
G04 #@! TO.N,Net-(SW5-Pad1)*
X180592900Y-102022800D02*
X180592900Y-65902600D01*
X201413900Y-122843800D02*
X180592900Y-102022800D01*
G04 #@! TO.N,Net-(SW6-Pad1)*
X221809000Y-102775700D02*
X181481300Y-62448000D01*
X221809000Y-122843800D02*
X221809000Y-102775700D01*
G04 #@! TO.N,Net-(SW7-Pad1)*
X201649800Y-68281900D02*
X203163900Y-69796000D01*
X201649800Y-58861200D02*
X201649800Y-68281900D01*
X186130600Y-58861200D02*
X201649800Y-58861200D01*
X201649800Y-58861200D02*
X204700000Y-55811000D01*
G04 #@! TO.N,Net-(SW8-Pad1)*
X185904700Y-58007600D02*
X185874400Y-58037900D01*
X193730400Y-58007600D02*
X185904700Y-58007600D01*
G04 #@! TO.N,Net-(SW9-Pad1)*
X180782200Y-62747100D02*
X201101400Y-83066300D01*
X180782200Y-57458700D02*
X180782200Y-62747100D01*
G04 #@! TO.N,Net-(SW10-Pad1)*
X184138600Y-61482700D02*
X184138600Y-56800000D01*
X189396400Y-66740500D02*
X184138600Y-61482700D01*
X189396400Y-66746100D02*
X189396400Y-66740500D01*
G04 #@! TD*
D18*
G04 #@! TO.N,GND*
G36*
X234390001Y-141190000D02*
X65910000Y-141190000D01*
X65910000Y-136425594D01*
X67715000Y-136425594D01*
X67715000Y-137374406D01*
X68078095Y-138250994D01*
X68749006Y-138921905D01*
X69625594Y-139285000D01*
X70574406Y-139285000D01*
X71450994Y-138921905D01*
X72121905Y-138250994D01*
X72485000Y-137374406D01*
X72485000Y-136425594D01*
X72121905Y-135549006D01*
X71450994Y-134878095D01*
X70574406Y-134515000D01*
X69625594Y-134515000D01*
X68749006Y-134878095D01*
X68078095Y-135549006D01*
X67715000Y-136425594D01*
X65910000Y-136425594D01*
X65910000Y-131874778D01*
X78665000Y-131874778D01*
X78665000Y-132525222D01*
X78913914Y-133126153D01*
X79373847Y-133586086D01*
X79974778Y-133835000D01*
X80625222Y-133835000D01*
X81226153Y-133586086D01*
X81686086Y-133126153D01*
X81935000Y-132525222D01*
X81935000Y-131874778D01*
X87665000Y-131874778D01*
X87665000Y-132525222D01*
X87913914Y-133126153D01*
X88373847Y-133586086D01*
X88974778Y-133835000D01*
X89625222Y-133835000D01*
X90226153Y-133586086D01*
X90686086Y-133126153D01*
X90935000Y-132525222D01*
X90935000Y-131874778D01*
X90810736Y-131574778D01*
X98965000Y-131574778D01*
X98965000Y-132225222D01*
X99213914Y-132826153D01*
X99673847Y-133286086D01*
X100274778Y-133535000D01*
X100925222Y-133535000D01*
X101526153Y-133286086D01*
X101986086Y-132826153D01*
X102235000Y-132225222D01*
X102235000Y-131574778D01*
X107965000Y-131574778D01*
X107965000Y-132225222D01*
X108213914Y-132826153D01*
X108673847Y-133286086D01*
X109274778Y-133535000D01*
X109925222Y-133535000D01*
X110526153Y-133286086D01*
X110986086Y-132826153D01*
X111235000Y-132225222D01*
X111235000Y-131574778D01*
X111131785Y-131325594D01*
X135615000Y-131325594D01*
X135615000Y-132274406D01*
X135978095Y-133150994D01*
X136649006Y-133821905D01*
X137525594Y-134185000D01*
X138474406Y-134185000D01*
X139350994Y-133821905D01*
X140021905Y-133150994D01*
X140385000Y-132274406D01*
X140385000Y-131574778D01*
X155965000Y-131574778D01*
X155965000Y-132225222D01*
X156213914Y-132826153D01*
X156673847Y-133286086D01*
X157274778Y-133535000D01*
X157925222Y-133535000D01*
X158526153Y-133286086D01*
X158986086Y-132826153D01*
X159235000Y-132225222D01*
X159235000Y-131574778D01*
X164965000Y-131574778D01*
X164965000Y-132225222D01*
X165213914Y-132826153D01*
X165673847Y-133286086D01*
X166274778Y-133535000D01*
X166925222Y-133535000D01*
X167526153Y-133286086D01*
X167986086Y-132826153D01*
X168235000Y-132225222D01*
X168235000Y-131874778D01*
X176065000Y-131874778D01*
X176065000Y-132525222D01*
X176313914Y-133126153D01*
X176773847Y-133586086D01*
X177374778Y-133835000D01*
X178025222Y-133835000D01*
X178626153Y-133586086D01*
X179086086Y-133126153D01*
X179335000Y-132525222D01*
X179335000Y-131874778D01*
X185065000Y-131874778D01*
X185065000Y-132525222D01*
X185313914Y-133126153D01*
X185773847Y-133586086D01*
X186374778Y-133835000D01*
X187025222Y-133835000D01*
X187626153Y-133586086D01*
X188086086Y-133126153D01*
X188335000Y-132525222D01*
X188335000Y-131874778D01*
X188210736Y-131574778D01*
X196065000Y-131574778D01*
X196065000Y-132225222D01*
X196313914Y-132826153D01*
X196773847Y-133286086D01*
X197374778Y-133535000D01*
X198025222Y-133535000D01*
X198626153Y-133286086D01*
X199086086Y-132826153D01*
X199335000Y-132225222D01*
X199335000Y-131574778D01*
X205065000Y-131574778D01*
X205065000Y-132225222D01*
X205313914Y-132826153D01*
X205773847Y-133286086D01*
X206374778Y-133535000D01*
X207025222Y-133535000D01*
X207626153Y-133286086D01*
X208086086Y-132826153D01*
X208335000Y-132225222D01*
X208335000Y-131574778D01*
X215965000Y-131574778D01*
X215965000Y-132225222D01*
X216213914Y-132826153D01*
X216673847Y-133286086D01*
X217274778Y-133535000D01*
X217925222Y-133535000D01*
X218526153Y-133286086D01*
X218986086Y-132826153D01*
X219235000Y-132225222D01*
X219235000Y-131574778D01*
X224965000Y-131574778D01*
X224965000Y-132225222D01*
X225213914Y-132826153D01*
X225673847Y-133286086D01*
X226274778Y-133535000D01*
X226925222Y-133535000D01*
X227526153Y-133286086D01*
X227986086Y-132826153D01*
X228235000Y-132225222D01*
X228235000Y-131574778D01*
X227986086Y-130973847D01*
X227526153Y-130513914D01*
X226925222Y-130265000D01*
X226274778Y-130265000D01*
X225673847Y-130513914D01*
X225213914Y-130973847D01*
X224965000Y-131574778D01*
X219235000Y-131574778D01*
X218986086Y-130973847D01*
X218526153Y-130513914D01*
X217925222Y-130265000D01*
X217274778Y-130265000D01*
X216673847Y-130513914D01*
X216213914Y-130973847D01*
X215965000Y-131574778D01*
X208335000Y-131574778D01*
X208086086Y-130973847D01*
X207626153Y-130513914D01*
X207025222Y-130265000D01*
X206374778Y-130265000D01*
X205773847Y-130513914D01*
X205313914Y-130973847D01*
X205065000Y-131574778D01*
X199335000Y-131574778D01*
X199086086Y-130973847D01*
X198626153Y-130513914D01*
X198025222Y-130265000D01*
X197374778Y-130265000D01*
X196773847Y-130513914D01*
X196313914Y-130973847D01*
X196065000Y-131574778D01*
X188210736Y-131574778D01*
X188086086Y-131273847D01*
X187626153Y-130813914D01*
X187025222Y-130565000D01*
X186374778Y-130565000D01*
X185773847Y-130813914D01*
X185313914Y-131273847D01*
X185065000Y-131874778D01*
X179335000Y-131874778D01*
X179086086Y-131273847D01*
X178626153Y-130813914D01*
X178025222Y-130565000D01*
X177374778Y-130565000D01*
X176773847Y-130813914D01*
X176313914Y-131273847D01*
X176065000Y-131874778D01*
X168235000Y-131874778D01*
X168235000Y-131574778D01*
X167986086Y-130973847D01*
X167526153Y-130513914D01*
X166925222Y-130265000D01*
X166274778Y-130265000D01*
X165673847Y-130513914D01*
X165213914Y-130973847D01*
X164965000Y-131574778D01*
X159235000Y-131574778D01*
X158986086Y-130973847D01*
X158526153Y-130513914D01*
X157925222Y-130265000D01*
X157274778Y-130265000D01*
X156673847Y-130513914D01*
X156213914Y-130973847D01*
X155965000Y-131574778D01*
X140385000Y-131574778D01*
X140385000Y-131325594D01*
X140021905Y-130449006D01*
X139350994Y-129778095D01*
X138474406Y-129415000D01*
X137525594Y-129415000D01*
X136649006Y-129778095D01*
X135978095Y-130449006D01*
X135615000Y-131325594D01*
X111131785Y-131325594D01*
X110986086Y-130973847D01*
X110526153Y-130513914D01*
X109925222Y-130265000D01*
X109274778Y-130265000D01*
X108673847Y-130513914D01*
X108213914Y-130973847D01*
X107965000Y-131574778D01*
X102235000Y-131574778D01*
X101986086Y-130973847D01*
X101526153Y-130513914D01*
X100925222Y-130265000D01*
X100274778Y-130265000D01*
X99673847Y-130513914D01*
X99213914Y-130973847D01*
X98965000Y-131574778D01*
X90810736Y-131574778D01*
X90686086Y-131273847D01*
X90226153Y-130813914D01*
X89625222Y-130565000D01*
X88974778Y-130565000D01*
X88373847Y-130813914D01*
X87913914Y-131273847D01*
X87665000Y-131874778D01*
X81935000Y-131874778D01*
X81686086Y-131273847D01*
X81226153Y-130813914D01*
X80625222Y-130565000D01*
X79974778Y-130565000D01*
X79373847Y-130813914D01*
X78913914Y-131273847D01*
X78665000Y-131874778D01*
X65910000Y-131874778D01*
X65910000Y-116900458D01*
X69240000Y-116900458D01*
X69240000Y-117799542D01*
X69584065Y-118630187D01*
X70219813Y-119265935D01*
X71050458Y-119610000D01*
X71949542Y-119610000D01*
X72780187Y-119265935D01*
X73415935Y-118630187D01*
X73760000Y-117799542D01*
X73760000Y-116900458D01*
X73415935Y-116069813D01*
X72790255Y-115444133D01*
X75109472Y-115444133D01*
X75163303Y-115673179D01*
X75640664Y-115838681D01*
X76145023Y-115808906D01*
X76472697Y-115673179D01*
X76526528Y-115444133D01*
X75818000Y-114735605D01*
X75109472Y-115444133D01*
X72790255Y-115444133D01*
X72780187Y-115434065D01*
X71949542Y-115090000D01*
X71050458Y-115090000D01*
X70219813Y-115434065D01*
X69584065Y-116069813D01*
X69240000Y-116900458D01*
X65910000Y-116900458D01*
X65910000Y-113362664D01*
X72757319Y-113362664D01*
X72787094Y-113867023D01*
X72922821Y-114194697D01*
X73151867Y-114248528D01*
X73860395Y-113540000D01*
X73151867Y-112831472D01*
X72922821Y-112885303D01*
X72757319Y-113362664D01*
X65910000Y-113362664D01*
X65910000Y-104200458D01*
X69240000Y-104200458D01*
X69240000Y-105099542D01*
X69584065Y-105930187D01*
X70219813Y-106565935D01*
X71050458Y-106910000D01*
X71949542Y-106910000D01*
X72345499Y-106745989D01*
X72287912Y-107035500D01*
X72302801Y-107110352D01*
X72302800Y-110455953D01*
X72287912Y-110530800D01*
X72302800Y-110605647D01*
X72302800Y-110605651D01*
X72346896Y-110827336D01*
X72514871Y-111078729D01*
X72578329Y-111121131D01*
X72770000Y-111312802D01*
X72770000Y-111760619D01*
X72963346Y-112227397D01*
X73320603Y-112584654D01*
X73344903Y-112594719D01*
X73331472Y-112651867D01*
X74040000Y-113360395D01*
X74054143Y-113346253D01*
X74233748Y-113525858D01*
X74219605Y-113540000D01*
X74233748Y-113554143D01*
X74054143Y-113733748D01*
X74040000Y-113719605D01*
X73331472Y-114428133D01*
X73385303Y-114657179D01*
X73862664Y-114822681D01*
X74367023Y-114792906D01*
X74555173Y-114714972D01*
X74565094Y-114883023D01*
X74700821Y-115210697D01*
X74929867Y-115264528D01*
X75638395Y-114556000D01*
X75997605Y-114556000D01*
X76706133Y-115264528D01*
X76935179Y-115210697D01*
X77100681Y-114733336D01*
X77070906Y-114228977D01*
X76935179Y-113901303D01*
X76706133Y-113847472D01*
X75997605Y-114556000D01*
X75638395Y-114556000D01*
X75624253Y-114541858D01*
X75803858Y-114362253D01*
X75818000Y-114376395D01*
X76526528Y-113667867D01*
X76513097Y-113610719D01*
X76537397Y-113600654D01*
X76894654Y-113243397D01*
X77088000Y-112776619D01*
X77088000Y-112271381D01*
X76894654Y-111804603D01*
X76598051Y-111508000D01*
X76854051Y-111252000D01*
X85880853Y-111252000D01*
X85955700Y-111266888D01*
X86030547Y-111252000D01*
X86030552Y-111252000D01*
X86252237Y-111207904D01*
X86503629Y-111039929D01*
X86546031Y-110976470D01*
X88309873Y-109212629D01*
X88373329Y-109170229D01*
X88513069Y-108961094D01*
X88540302Y-108988327D01*
X88773691Y-109085000D01*
X90114250Y-109085000D01*
X90273000Y-108926250D01*
X90273000Y-107777000D01*
X90527000Y-107777000D01*
X90527000Y-108926250D01*
X90685750Y-109085000D01*
X92026309Y-109085000D01*
X92259698Y-108988327D01*
X92438327Y-108809699D01*
X92535000Y-108576310D01*
X92535000Y-107935750D01*
X92376250Y-107777000D01*
X90527000Y-107777000D01*
X90273000Y-107777000D01*
X90253000Y-107777000D01*
X90253000Y-107523000D01*
X90273000Y-107523000D01*
X90273000Y-106373750D01*
X90527000Y-106373750D01*
X90527000Y-107523000D01*
X92376250Y-107523000D01*
X92535000Y-107364250D01*
X92535000Y-106723690D01*
X92438327Y-106490301D01*
X92259698Y-106311673D01*
X92026309Y-106215000D01*
X90685750Y-106215000D01*
X90527000Y-106373750D01*
X90273000Y-106373750D01*
X90128976Y-106229726D01*
X132997202Y-63361500D01*
X133043383Y-63361500D01*
X133387035Y-63219155D01*
X133650055Y-62956135D01*
X133792400Y-62612483D01*
X133792400Y-62240517D01*
X133650055Y-61896865D01*
X133387035Y-61633845D01*
X133043383Y-61491500D01*
X132671417Y-61491500D01*
X132327765Y-61633845D01*
X132064745Y-61896865D01*
X131922400Y-62240517D01*
X131922400Y-62286698D01*
X87873345Y-106335754D01*
X87747765Y-106251843D01*
X87500000Y-106202560D01*
X87396941Y-106202560D01*
X132467502Y-61132000D01*
X140913753Y-61132000D01*
X140988600Y-61146888D01*
X141063447Y-61132000D01*
X141063452Y-61132000D01*
X141285137Y-61087904D01*
X141536529Y-60919929D01*
X141578931Y-60856470D01*
X144471576Y-57963827D01*
X144535029Y-57921429D01*
X144577427Y-57857976D01*
X144577429Y-57857974D01*
X144703003Y-57670038D01*
X144703004Y-57670037D01*
X144747100Y-57448352D01*
X144747100Y-57448348D01*
X144761988Y-57373501D01*
X144747100Y-57298654D01*
X144747100Y-56475050D01*
X158215000Y-56475050D01*
X158215000Y-57224950D01*
X158501974Y-57917767D01*
X159032233Y-58448026D01*
X159725050Y-58735000D01*
X160474950Y-58735000D01*
X161167767Y-58448026D01*
X161698026Y-57917767D01*
X161985000Y-57224950D01*
X161985000Y-56475050D01*
X161698026Y-55782233D01*
X161167767Y-55251974D01*
X160474950Y-54965000D01*
X159725050Y-54965000D01*
X159032233Y-55251974D01*
X158501974Y-55782233D01*
X158215000Y-56475050D01*
X144747100Y-56475050D01*
X144747100Y-55353446D01*
X144761988Y-55278599D01*
X144747100Y-55203752D01*
X144747100Y-55203748D01*
X144703004Y-54982063D01*
X144535029Y-54730671D01*
X144471572Y-54688271D01*
X144423530Y-54640229D01*
X144381129Y-54576771D01*
X144129737Y-54408796D01*
X143908052Y-54364700D01*
X143908047Y-54364700D01*
X143833200Y-54349812D01*
X143758353Y-54364700D01*
X141510146Y-54364700D01*
X141435299Y-54349812D01*
X141360452Y-54364700D01*
X141360448Y-54364700D01*
X141138763Y-54408796D01*
X140887371Y-54576771D01*
X140844971Y-54640227D01*
X140626408Y-54858791D01*
X140406256Y-54815000D01*
X140113744Y-54815000D01*
X139680582Y-54901161D01*
X139189375Y-55229375D01*
X138990000Y-55527761D01*
X138790625Y-55229375D01*
X138396663Y-54966138D01*
X147495402Y-45867400D01*
X174976298Y-45867400D01*
X154545228Y-66298471D01*
X154481772Y-66340871D01*
X154439372Y-66404327D01*
X154439371Y-66404328D01*
X154412888Y-66443963D01*
X154313797Y-66592263D01*
X154269700Y-66813948D01*
X154269700Y-66813953D01*
X154254812Y-66888800D01*
X154269700Y-66963647D01*
X154269700Y-66987210D01*
X154237045Y-67019865D01*
X154094700Y-67363517D01*
X154094700Y-67735483D01*
X154237045Y-68079135D01*
X154500065Y-68342155D01*
X154843717Y-68484500D01*
X155215683Y-68484500D01*
X155376290Y-68417975D01*
X155494945Y-68704435D01*
X155757965Y-68967455D01*
X156101617Y-69109800D01*
X156473583Y-69109800D01*
X156817235Y-68967455D01*
X157080255Y-68704435D01*
X157222600Y-68360783D01*
X157222600Y-68314601D01*
X170725873Y-54811329D01*
X170789329Y-54768929D01*
X170957304Y-54517537D01*
X171001400Y-54295852D01*
X171001400Y-54295848D01*
X171016288Y-54221001D01*
X171001400Y-54146154D01*
X171001400Y-53362290D01*
X171034055Y-53329635D01*
X171176400Y-52985983D01*
X171176400Y-52614017D01*
X171034055Y-52270365D01*
X170878496Y-52114806D01*
X176565000Y-46428302D01*
X176565000Y-46788083D01*
X176707345Y-47131735D01*
X176857004Y-47281394D01*
X176471230Y-47667169D01*
X176407771Y-47709571D01*
X176239796Y-47960964D01*
X176195700Y-48182649D01*
X176195700Y-48182653D01*
X176180812Y-48257500D01*
X176195700Y-48332347D01*
X176195701Y-50516200D01*
X176144417Y-50516200D01*
X175800765Y-50658545D01*
X175537745Y-50921565D01*
X175395400Y-51265217D01*
X175395400Y-51311398D01*
X120530330Y-106176469D01*
X120466871Y-106218871D01*
X120298896Y-106470264D01*
X120254800Y-106691949D01*
X120254800Y-106691953D01*
X120239912Y-106766800D01*
X120254800Y-106841647D01*
X120254801Y-123712709D01*
X120222145Y-123745365D01*
X120079800Y-124089017D01*
X120079800Y-124460983D01*
X120222145Y-124804635D01*
X120485165Y-125067655D01*
X120828817Y-125210000D01*
X121200783Y-125210000D01*
X121544435Y-125067655D01*
X121807455Y-124804635D01*
X121949800Y-124460983D01*
X121949800Y-124089017D01*
X121807455Y-123745365D01*
X121774800Y-123712710D01*
X121774800Y-107081601D01*
X130778700Y-98077701D01*
X130778701Y-115662009D01*
X130746045Y-115694665D01*
X130603700Y-116038317D01*
X130603700Y-116410283D01*
X130746045Y-116753935D01*
X131009065Y-117016955D01*
X131352717Y-117159300D01*
X131724683Y-117159300D01*
X132068335Y-117016955D01*
X132331355Y-116753935D01*
X132473700Y-116410283D01*
X132473700Y-116038317D01*
X132331355Y-115694665D01*
X132298700Y-115662010D01*
X132298700Y-97442101D01*
X145965101Y-83775701D01*
X145965100Y-116737710D01*
X145932445Y-116770365D01*
X145790100Y-117114017D01*
X145790100Y-117485983D01*
X145932445Y-117829635D01*
X146195465Y-118092655D01*
X146539117Y-118235000D01*
X146911083Y-118235000D01*
X147254735Y-118092655D01*
X147517755Y-117829635D01*
X147660100Y-117485983D01*
X147660100Y-117114017D01*
X147517755Y-116770365D01*
X147485100Y-116737710D01*
X147485100Y-94525050D01*
X158215000Y-94525050D01*
X158215000Y-95274950D01*
X158501974Y-95967767D01*
X159032233Y-96498026D01*
X159725050Y-96785000D01*
X160474950Y-96785000D01*
X161167767Y-96498026D01*
X161698026Y-95967767D01*
X161985000Y-95274950D01*
X161985000Y-94525050D01*
X161698026Y-93832233D01*
X161167767Y-93301974D01*
X160474950Y-93015000D01*
X159725050Y-93015000D01*
X159032233Y-93301974D01*
X158501974Y-93832233D01*
X158215000Y-94525050D01*
X147485100Y-94525050D01*
X147485100Y-82892601D01*
X172290001Y-58087702D01*
X172290000Y-103002560D01*
X172200000Y-103002560D01*
X171952235Y-103051843D01*
X171742191Y-103192191D01*
X171601843Y-103402235D01*
X171552560Y-103650000D01*
X171552560Y-105350000D01*
X171601843Y-105597765D01*
X171742191Y-105807809D01*
X171952235Y-105948157D01*
X171997619Y-105957184D01*
X171979375Y-105969375D01*
X171651161Y-106460582D01*
X171535908Y-107040000D01*
X171651161Y-107619418D01*
X171979375Y-108110625D01*
X172277761Y-108310000D01*
X171979375Y-108509375D01*
X171651161Y-109000582D01*
X171535908Y-109580000D01*
X171651161Y-110159418D01*
X171979375Y-110650625D01*
X172277761Y-110850000D01*
X171979375Y-111049375D01*
X171651161Y-111540582D01*
X171535908Y-112120000D01*
X171651161Y-112699418D01*
X171979375Y-113190625D01*
X172470582Y-113518839D01*
X172903744Y-113605000D01*
X173196256Y-113605000D01*
X173629418Y-113518839D01*
X174120625Y-113190625D01*
X174320000Y-112892239D01*
X174519375Y-113190625D01*
X175010582Y-113518839D01*
X175443744Y-113605000D01*
X175447298Y-113605000D01*
X165712299Y-123340000D01*
X165666117Y-123340000D01*
X165322465Y-123482345D01*
X165059445Y-123745365D01*
X164917100Y-124089017D01*
X164917100Y-124460983D01*
X165059445Y-124804635D01*
X165322465Y-125067655D01*
X165666117Y-125210000D01*
X166038083Y-125210000D01*
X166381735Y-125067655D01*
X166644755Y-124804635D01*
X166787100Y-124460983D01*
X166787100Y-124414801D01*
X180434873Y-110767029D01*
X180498329Y-110724629D01*
X180666304Y-110473237D01*
X180710400Y-110251552D01*
X180710400Y-110251548D01*
X180725288Y-110176701D01*
X180710400Y-110101854D01*
X180710400Y-103215101D01*
X200478900Y-122983602D01*
X200478900Y-123029783D01*
X200621245Y-123373435D01*
X200884265Y-123636455D01*
X201227917Y-123778800D01*
X201599883Y-123778800D01*
X201943535Y-123636455D01*
X202206555Y-123373435D01*
X202348900Y-123029783D01*
X202348900Y-122657817D01*
X202206555Y-122314165D01*
X201943535Y-122051145D01*
X201599883Y-121908800D01*
X201553702Y-121908800D01*
X196070496Y-116425594D01*
X212765000Y-116425594D01*
X212765000Y-117374406D01*
X213128095Y-118250994D01*
X213799006Y-118921905D01*
X214675594Y-119285000D01*
X215624406Y-119285000D01*
X216500994Y-118921905D01*
X217171905Y-118250994D01*
X217535000Y-117374406D01*
X217535000Y-116425594D01*
X217171905Y-115549006D01*
X216500994Y-114878095D01*
X215624406Y-114515000D01*
X214675594Y-114515000D01*
X213799006Y-114878095D01*
X213128095Y-115549006D01*
X212765000Y-116425594D01*
X196070496Y-116425594D01*
X181352900Y-101707999D01*
X181352900Y-89375594D01*
X185715000Y-89375594D01*
X185715000Y-90324406D01*
X186078095Y-91200994D01*
X186749006Y-91871905D01*
X187625594Y-92235000D01*
X188574406Y-92235000D01*
X189450994Y-91871905D01*
X189748121Y-91574778D01*
X196065000Y-91574778D01*
X196065000Y-92225222D01*
X196313914Y-92826153D01*
X196773847Y-93286086D01*
X197374778Y-93535000D01*
X198025222Y-93535000D01*
X198626153Y-93286086D01*
X199086086Y-92826153D01*
X199335000Y-92225222D01*
X199335000Y-91574778D01*
X205065000Y-91574778D01*
X205065000Y-92225222D01*
X205313914Y-92826153D01*
X205773847Y-93286086D01*
X206374778Y-93535000D01*
X207025222Y-93535000D01*
X207626153Y-93286086D01*
X208086086Y-92826153D01*
X208335000Y-92225222D01*
X208335000Y-91574778D01*
X208086086Y-90973847D01*
X207626153Y-90513914D01*
X207025222Y-90265000D01*
X206374778Y-90265000D01*
X205773847Y-90513914D01*
X205313914Y-90973847D01*
X205065000Y-91574778D01*
X199335000Y-91574778D01*
X199086086Y-90973847D01*
X198626153Y-90513914D01*
X198025222Y-90265000D01*
X197374778Y-90265000D01*
X196773847Y-90513914D01*
X196313914Y-90973847D01*
X196065000Y-91574778D01*
X189748121Y-91574778D01*
X190121905Y-91200994D01*
X190485000Y-90324406D01*
X190485000Y-89375594D01*
X190121905Y-88499006D01*
X189450994Y-87828095D01*
X188574406Y-87465000D01*
X187625594Y-87465000D01*
X186749006Y-87828095D01*
X186078095Y-88499006D01*
X185715000Y-89375594D01*
X181352900Y-89375594D01*
X181352900Y-76965139D01*
X181673847Y-77286086D01*
X182274778Y-77535000D01*
X182925222Y-77535000D01*
X183526153Y-77286086D01*
X183986086Y-76826153D01*
X184235000Y-76225222D01*
X184235000Y-75574778D01*
X183986086Y-74973847D01*
X183526153Y-74513914D01*
X182925222Y-74265000D01*
X182274778Y-74265000D01*
X181673847Y-74513914D01*
X181352900Y-74834861D01*
X181352900Y-66464890D01*
X181385555Y-66432235D01*
X181527900Y-66088583D01*
X181527900Y-65716617D01*
X181385555Y-65372965D01*
X181122535Y-65109945D01*
X180778883Y-64967600D01*
X180710400Y-64967600D01*
X180710400Y-63750101D01*
X191239791Y-74279492D01*
X190673847Y-74513914D01*
X190213914Y-74973847D01*
X189965000Y-75574778D01*
X189965000Y-76225222D01*
X190213914Y-76826153D01*
X190673847Y-77286086D01*
X191274778Y-77535000D01*
X191925222Y-77535000D01*
X192526153Y-77286086D01*
X192986086Y-76826153D01*
X193220508Y-76260209D01*
X200166400Y-83206102D01*
X200166400Y-83252283D01*
X200308745Y-83595935D01*
X200571765Y-83858955D01*
X200915417Y-84001300D01*
X201287383Y-84001300D01*
X201631035Y-83858955D01*
X201724244Y-83765746D01*
X221049001Y-103090503D01*
X221049000Y-122281510D01*
X221016345Y-122314165D01*
X220874000Y-122657817D01*
X220874000Y-123029783D01*
X221016345Y-123373435D01*
X221279365Y-123636455D01*
X221623017Y-123778800D01*
X221994983Y-123778800D01*
X222338635Y-123636455D01*
X222601655Y-123373435D01*
X222744000Y-123029783D01*
X222744000Y-122657817D01*
X222601655Y-122314165D01*
X222569000Y-122281510D01*
X222569000Y-103476348D01*
X222632529Y-103518796D01*
X222732963Y-103585904D01*
X222954648Y-103630000D01*
X222954652Y-103630000D01*
X223029499Y-103644888D01*
X223104346Y-103630000D01*
X225921822Y-103630000D01*
X226129375Y-103940625D01*
X226427761Y-104140000D01*
X226129375Y-104339375D01*
X225801161Y-104830582D01*
X225685908Y-105410000D01*
X225801161Y-105989418D01*
X226129375Y-106480625D01*
X226427761Y-106680000D01*
X226129375Y-106879375D01*
X225801161Y-107370582D01*
X225685908Y-107950000D01*
X225801161Y-108529418D01*
X226129375Y-109020625D01*
X226620582Y-109348839D01*
X227053744Y-109435000D01*
X227346256Y-109435000D01*
X227779418Y-109348839D01*
X228270625Y-109020625D01*
X228598839Y-108529418D01*
X228714092Y-107950000D01*
X228598839Y-107370582D01*
X228270625Y-106879375D01*
X227972239Y-106680000D01*
X228270625Y-106480625D01*
X228598839Y-105989418D01*
X228714092Y-105410000D01*
X228598839Y-104830582D01*
X228377491Y-104499311D01*
X228880073Y-103996729D01*
X228943529Y-103954329D01*
X229111504Y-103702937D01*
X229155600Y-103481252D01*
X229155600Y-103481248D01*
X229170488Y-103406401D01*
X229155600Y-103331554D01*
X229155600Y-102415248D01*
X229170488Y-102340400D01*
X229155600Y-102265552D01*
X229155600Y-102265548D01*
X229111504Y-102043863D01*
X229111504Y-102043862D01*
X228985929Y-101855927D01*
X228943529Y-101792471D01*
X228880073Y-101750071D01*
X228374767Y-101244766D01*
X228598839Y-100909418D01*
X228714092Y-100330000D01*
X228598839Y-99750582D01*
X228270625Y-99259375D01*
X227972239Y-99060000D01*
X228270625Y-98860625D01*
X228598839Y-98369418D01*
X228714092Y-97790000D01*
X228598839Y-97210582D01*
X228270625Y-96719375D01*
X228248967Y-96704904D01*
X228409698Y-96638327D01*
X228588327Y-96459699D01*
X228685000Y-96226310D01*
X228685000Y-95535750D01*
X228526250Y-95377000D01*
X227327000Y-95377000D01*
X227327000Y-95397000D01*
X227073000Y-95397000D01*
X227073000Y-95377000D01*
X225873750Y-95377000D01*
X225715000Y-95535750D01*
X225715000Y-96226310D01*
X225811673Y-96459699D01*
X225990302Y-96638327D01*
X226151033Y-96704904D01*
X226129375Y-96719375D01*
X225801161Y-97210582D01*
X225685908Y-97790000D01*
X225801161Y-98369418D01*
X226129375Y-98860625D01*
X226427761Y-99060000D01*
X226129375Y-99259375D01*
X225801161Y-99750582D01*
X225685908Y-100330000D01*
X225787353Y-100840000D01*
X222782503Y-100840000D01*
X216216193Y-94273690D01*
X225715000Y-94273690D01*
X225715000Y-94964250D01*
X225873750Y-95123000D01*
X227073000Y-95123000D01*
X227073000Y-93923750D01*
X227327000Y-93923750D01*
X227327000Y-95123000D01*
X228526250Y-95123000D01*
X228685000Y-94964250D01*
X228685000Y-94273690D01*
X228588327Y-94040301D01*
X228409698Y-93861673D01*
X228176309Y-93765000D01*
X227485750Y-93765000D01*
X227327000Y-93923750D01*
X227073000Y-93923750D01*
X226914250Y-93765000D01*
X226223691Y-93765000D01*
X225990302Y-93861673D01*
X225811673Y-94040301D01*
X225715000Y-94273690D01*
X216216193Y-94273690D01*
X197517281Y-75574778D01*
X210965000Y-75574778D01*
X210965000Y-76225222D01*
X211213914Y-76826153D01*
X211673847Y-77286086D01*
X212274778Y-77535000D01*
X212925222Y-77535000D01*
X213526153Y-77286086D01*
X213986086Y-76826153D01*
X214235000Y-76225222D01*
X214235000Y-75574778D01*
X219965000Y-75574778D01*
X219965000Y-76225222D01*
X220213914Y-76826153D01*
X220673847Y-77286086D01*
X221274778Y-77535000D01*
X221925222Y-77535000D01*
X222526153Y-77286086D01*
X222986086Y-76826153D01*
X223235000Y-76225222D01*
X223235000Y-75574778D01*
X222986086Y-74973847D01*
X222526153Y-74513914D01*
X221925222Y-74265000D01*
X221274778Y-74265000D01*
X220673847Y-74513914D01*
X220213914Y-74973847D01*
X219965000Y-75574778D01*
X214235000Y-75574778D01*
X213986086Y-74973847D01*
X213526153Y-74513914D01*
X212925222Y-74265000D01*
X212274778Y-74265000D01*
X211673847Y-74513914D01*
X211213914Y-74973847D01*
X210965000Y-75574778D01*
X197517281Y-75574778D01*
X189611529Y-67669027D01*
X189926035Y-67538755D01*
X190189055Y-67275735D01*
X190331400Y-66932083D01*
X190331400Y-66560117D01*
X190189055Y-66216465D01*
X189926035Y-65953445D01*
X189582383Y-65811100D01*
X189541802Y-65811100D01*
X185719055Y-61988354D01*
X185948517Y-62083400D01*
X186320483Y-62083400D01*
X186664135Y-61941055D01*
X186927155Y-61678035D01*
X186969925Y-61574778D01*
X196065000Y-61574778D01*
X196065000Y-62225222D01*
X196313914Y-62826153D01*
X196773847Y-63286086D01*
X197374778Y-63535000D01*
X198025222Y-63535000D01*
X198626153Y-63286086D01*
X199086086Y-62826153D01*
X199335000Y-62225222D01*
X199335000Y-61574778D01*
X199086086Y-60973847D01*
X198626153Y-60513914D01*
X198025222Y-60265000D01*
X197374778Y-60265000D01*
X196773847Y-60513914D01*
X196313914Y-60973847D01*
X196065000Y-61574778D01*
X186969925Y-61574778D01*
X187069500Y-61334383D01*
X187069500Y-60962417D01*
X186927155Y-60618765D01*
X186664135Y-60355745D01*
X186320483Y-60213400D01*
X186274302Y-60213400D01*
X185795219Y-59734317D01*
X185944617Y-59796200D01*
X186316583Y-59796200D01*
X186660235Y-59653855D01*
X186692890Y-59621200D01*
X200889800Y-59621200D01*
X200889801Y-68207048D01*
X200874912Y-68281900D01*
X200933897Y-68578437D01*
X201058641Y-68765129D01*
X201101872Y-68829829D01*
X201165328Y-68872229D01*
X202228900Y-69935802D01*
X202228900Y-69981983D01*
X202371245Y-70325635D01*
X202634265Y-70588655D01*
X202977917Y-70731000D01*
X203349883Y-70731000D01*
X203693535Y-70588655D01*
X203956555Y-70325635D01*
X204098900Y-69981983D01*
X204098900Y-69610017D01*
X203956555Y-69266365D01*
X203693535Y-69003345D01*
X203349883Y-68861000D01*
X203303702Y-68861000D01*
X202409800Y-67967099D01*
X202409800Y-61574778D01*
X205065000Y-61574778D01*
X205065000Y-62225222D01*
X205313914Y-62826153D01*
X205773847Y-63286086D01*
X206374778Y-63535000D01*
X207025222Y-63535000D01*
X207626153Y-63286086D01*
X208086086Y-62826153D01*
X208335000Y-62225222D01*
X208335000Y-61574778D01*
X208086086Y-60973847D01*
X207626153Y-60513914D01*
X207025222Y-60265000D01*
X206374778Y-60265000D01*
X205773847Y-60513914D01*
X205313914Y-60973847D01*
X205065000Y-61574778D01*
X202409800Y-61574778D01*
X202409800Y-59176001D01*
X204839802Y-56746000D01*
X204885983Y-56746000D01*
X205229635Y-56603655D01*
X205492655Y-56340635D01*
X205635000Y-55996983D01*
X205635000Y-55625017D01*
X205492655Y-55281365D01*
X205229635Y-55018345D01*
X204885983Y-54876000D01*
X204514017Y-54876000D01*
X204170365Y-55018345D01*
X203907345Y-55281365D01*
X203765000Y-55625017D01*
X203765000Y-55671198D01*
X201334999Y-58101200D01*
X194665400Y-58101200D01*
X194665400Y-57821617D01*
X194523055Y-57477965D01*
X194260035Y-57214945D01*
X193916383Y-57072600D01*
X193544417Y-57072600D01*
X193200765Y-57214945D01*
X193168110Y-57247600D01*
X186406390Y-57247600D01*
X186404035Y-57245245D01*
X186060383Y-57102900D01*
X185688417Y-57102900D01*
X185682900Y-57105185D01*
X185682900Y-51375594D01*
X212715000Y-51375594D01*
X212715000Y-52324406D01*
X213078095Y-53200994D01*
X213749006Y-53871905D01*
X214625594Y-54235000D01*
X215574406Y-54235000D01*
X216450994Y-53871905D01*
X217121905Y-53200994D01*
X217485000Y-52324406D01*
X217485000Y-51375594D01*
X217121905Y-50499006D01*
X216450994Y-49828095D01*
X215574406Y-49465000D01*
X214625594Y-49465000D01*
X213749006Y-49828095D01*
X213078095Y-50499006D01*
X212715000Y-51375594D01*
X185682900Y-51375594D01*
X185682900Y-50164448D01*
X185697788Y-50089600D01*
X185682900Y-50014752D01*
X185682900Y-50014748D01*
X185638804Y-49793063D01*
X185470829Y-49541671D01*
X185407373Y-49499271D01*
X180080631Y-44172530D01*
X180038229Y-44109071D01*
X179786837Y-43941096D01*
X179565152Y-43897000D01*
X179565147Y-43897000D01*
X179490300Y-43882112D01*
X179415453Y-43897000D01*
X140085847Y-43897000D01*
X140011000Y-43882112D01*
X139936153Y-43897000D01*
X139936148Y-43897000D01*
X139714463Y-43941096D01*
X139463071Y-44109071D01*
X139420671Y-44172527D01*
X128470689Y-55122510D01*
X128139418Y-54901161D01*
X127706256Y-54815000D01*
X127413744Y-54815000D01*
X126980582Y-54901161D01*
X126489375Y-55229375D01*
X126290000Y-55527761D01*
X126090625Y-55229375D01*
X125599418Y-54901161D01*
X125166256Y-54815000D01*
X124873744Y-54815000D01*
X124440582Y-54901161D01*
X123949375Y-55229375D01*
X123750000Y-55527761D01*
X123550625Y-55229375D01*
X123059418Y-54901161D01*
X122626256Y-54815000D01*
X122333744Y-54815000D01*
X121900582Y-54901161D01*
X121409375Y-55229375D01*
X121210000Y-55527761D01*
X121010625Y-55229375D01*
X120519418Y-54901161D01*
X120086256Y-54815000D01*
X119793744Y-54815000D01*
X119360582Y-54901161D01*
X118869375Y-55229375D01*
X118670000Y-55527761D01*
X118470625Y-55229375D01*
X117979418Y-54901161D01*
X117546256Y-54815000D01*
X117253744Y-54815000D01*
X116820582Y-54901161D01*
X116329375Y-55229375D01*
X116130000Y-55527761D01*
X115930625Y-55229375D01*
X115439418Y-54901161D01*
X115006256Y-54815000D01*
X114713744Y-54815000D01*
X114280582Y-54901161D01*
X113789375Y-55229375D01*
X113590000Y-55527761D01*
X113390625Y-55229375D01*
X112899418Y-54901161D01*
X112466256Y-54815000D01*
X112173744Y-54815000D01*
X111740582Y-54901161D01*
X111249375Y-55229375D01*
X111050000Y-55527761D01*
X110850625Y-55229375D01*
X110359418Y-54901161D01*
X109926256Y-54815000D01*
X109633744Y-54815000D01*
X109200582Y-54901161D01*
X108709375Y-55229375D01*
X108510000Y-55527761D01*
X108310625Y-55229375D01*
X107819418Y-54901161D01*
X107386256Y-54815000D01*
X107093744Y-54815000D01*
X106660582Y-54901161D01*
X106169375Y-55229375D01*
X105970000Y-55527761D01*
X105770625Y-55229375D01*
X105279418Y-54901161D01*
X104846256Y-54815000D01*
X104553744Y-54815000D01*
X104120582Y-54901161D01*
X103629375Y-55229375D01*
X103430000Y-55527761D01*
X103230625Y-55229375D01*
X102739418Y-54901161D01*
X102306256Y-54815000D01*
X102013744Y-54815000D01*
X101580582Y-54901161D01*
X101089375Y-55229375D01*
X100890000Y-55527761D01*
X100690625Y-55229375D01*
X100199418Y-54901161D01*
X99766256Y-54815000D01*
X99473744Y-54815000D01*
X99040582Y-54901161D01*
X98549375Y-55229375D01*
X98350000Y-55527761D01*
X98150625Y-55229375D01*
X97659418Y-54901161D01*
X97226256Y-54815000D01*
X96933744Y-54815000D01*
X96500582Y-54901161D01*
X96009375Y-55229375D01*
X95796157Y-55548478D01*
X95735183Y-55418642D01*
X95306924Y-55028355D01*
X94896890Y-54858524D01*
X94667000Y-54979845D01*
X94667000Y-56173000D01*
X94687000Y-56173000D01*
X94687000Y-56427000D01*
X94667000Y-56427000D01*
X94667000Y-57620155D01*
X94896890Y-57741476D01*
X95306924Y-57571645D01*
X95735183Y-57181358D01*
X95796157Y-57051522D01*
X96009375Y-57370625D01*
X96500582Y-57698839D01*
X96933744Y-57785000D01*
X97226256Y-57785000D01*
X97659418Y-57698839D01*
X98150625Y-57370625D01*
X98350000Y-57072239D01*
X98549375Y-57370625D01*
X99040582Y-57698839D01*
X99473744Y-57785000D01*
X99766256Y-57785000D01*
X100199418Y-57698839D01*
X100690625Y-57370625D01*
X100890000Y-57072239D01*
X101089375Y-57370625D01*
X101580582Y-57698839D01*
X102013744Y-57785000D01*
X102306256Y-57785000D01*
X102739418Y-57698839D01*
X103230625Y-57370625D01*
X103430000Y-57072239D01*
X103629375Y-57370625D01*
X104120582Y-57698839D01*
X104553744Y-57785000D01*
X104846256Y-57785000D01*
X105279418Y-57698839D01*
X105770625Y-57370625D01*
X105970000Y-57072239D01*
X106169375Y-57370625D01*
X106660582Y-57698839D01*
X107093744Y-57785000D01*
X107386256Y-57785000D01*
X107819418Y-57698839D01*
X108310625Y-57370625D01*
X108510000Y-57072239D01*
X108709375Y-57370625D01*
X109200582Y-57698839D01*
X109633744Y-57785000D01*
X109926256Y-57785000D01*
X110359418Y-57698839D01*
X110850625Y-57370625D01*
X111050000Y-57072239D01*
X111249375Y-57370625D01*
X111740582Y-57698839D01*
X112173744Y-57785000D01*
X112466256Y-57785000D01*
X112899418Y-57698839D01*
X113390625Y-57370625D01*
X113590000Y-57072239D01*
X113789375Y-57370625D01*
X114280582Y-57698839D01*
X114713744Y-57785000D01*
X115006256Y-57785000D01*
X115439418Y-57698839D01*
X115930625Y-57370625D01*
X116130000Y-57072239D01*
X116329375Y-57370625D01*
X116820582Y-57698839D01*
X117253744Y-57785000D01*
X117546256Y-57785000D01*
X117979418Y-57698839D01*
X118470625Y-57370625D01*
X118670000Y-57072239D01*
X118869375Y-57370625D01*
X119360582Y-57698839D01*
X119793744Y-57785000D01*
X120086256Y-57785000D01*
X120519418Y-57698839D01*
X121010625Y-57370625D01*
X121210000Y-57072239D01*
X121409375Y-57370625D01*
X121900582Y-57698839D01*
X122333744Y-57785000D01*
X122626256Y-57785000D01*
X123059418Y-57698839D01*
X123550625Y-57370625D01*
X123750000Y-57072239D01*
X123949375Y-57370625D01*
X124440582Y-57698839D01*
X124873744Y-57785000D01*
X125166256Y-57785000D01*
X125599418Y-57698839D01*
X126090625Y-57370625D01*
X126290000Y-57072239D01*
X126489375Y-57370625D01*
X126980582Y-57698839D01*
X127413744Y-57785000D01*
X127706256Y-57785000D01*
X128139418Y-57698839D01*
X128630625Y-57370625D01*
X128830000Y-57072239D01*
X129029375Y-57370625D01*
X129520582Y-57698839D01*
X129953744Y-57785000D01*
X130246256Y-57785000D01*
X130679418Y-57698839D01*
X131170625Y-57370625D01*
X131370000Y-57072239D01*
X131569375Y-57370625D01*
X132060582Y-57698839D01*
X132493744Y-57785000D01*
X132786256Y-57785000D01*
X133219418Y-57698839D01*
X133710625Y-57370625D01*
X133910000Y-57072239D01*
X134109375Y-57370625D01*
X134600582Y-57698839D01*
X135033744Y-57785000D01*
X135326256Y-57785000D01*
X135759418Y-57698839D01*
X136250625Y-57370625D01*
X136450000Y-57072239D01*
X136649375Y-57370625D01*
X137140582Y-57698839D01*
X137573744Y-57785000D01*
X137866256Y-57785000D01*
X138299418Y-57698839D01*
X138790625Y-57370625D01*
X138990000Y-57072239D01*
X139189375Y-57370625D01*
X139680582Y-57698839D01*
X140113744Y-57785000D01*
X140406256Y-57785000D01*
X140839418Y-57698839D01*
X141330625Y-57370625D01*
X141345096Y-57348967D01*
X141411673Y-57509698D01*
X141590301Y-57688327D01*
X141823690Y-57785000D01*
X142500798Y-57785000D01*
X140673799Y-59612000D01*
X132227546Y-59612000D01*
X132152699Y-59597112D01*
X132077852Y-59612000D01*
X132077848Y-59612000D01*
X131856163Y-59656096D01*
X131604771Y-59824071D01*
X131562371Y-59887527D01*
X85515528Y-105934371D01*
X85452072Y-105976771D01*
X85409672Y-106040227D01*
X85409671Y-106040228D01*
X85301204Y-106202560D01*
X84500000Y-106202560D01*
X84252235Y-106251843D01*
X84042191Y-106392191D01*
X83901843Y-106602235D01*
X83852560Y-106850000D01*
X83852560Y-106951203D01*
X83626771Y-107102071D01*
X83584371Y-107165527D01*
X83265799Y-107484100D01*
X76638151Y-107484100D01*
X76537397Y-107383346D01*
X76070619Y-107190000D01*
X75838701Y-107190000D01*
X75608231Y-106959530D01*
X75565829Y-106896071D01*
X75314437Y-106728096D01*
X75092752Y-106684000D01*
X75092747Y-106684000D01*
X75071905Y-106679854D01*
X74782576Y-106390525D01*
X114443002Y-66730100D01*
X114489183Y-66730100D01*
X114832835Y-66587755D01*
X115095855Y-66324735D01*
X115238200Y-65981083D01*
X115238200Y-65609117D01*
X115095855Y-65265465D01*
X114832835Y-65002445D01*
X114489183Y-64860100D01*
X114117217Y-64860100D01*
X113773565Y-65002445D01*
X113510545Y-65265465D01*
X113368200Y-65609117D01*
X113368200Y-65655298D01*
X73644065Y-105379434D01*
X73760000Y-105099542D01*
X73760000Y-104200458D01*
X73415935Y-103369813D01*
X72780187Y-102734065D01*
X71949542Y-102390000D01*
X71050458Y-102390000D01*
X70219813Y-102734065D01*
X69584065Y-103369813D01*
X69240000Y-104200458D01*
X65910000Y-104200458D01*
X65910000Y-94475050D01*
X75215000Y-94475050D01*
X75215000Y-95224950D01*
X75501974Y-95917767D01*
X76032233Y-96448026D01*
X76725050Y-96735000D01*
X77474950Y-96735000D01*
X78167767Y-96448026D01*
X78698026Y-95917767D01*
X78985000Y-95224950D01*
X78985000Y-94475050D01*
X78698026Y-93782233D01*
X78167767Y-93251974D01*
X77474950Y-92965000D01*
X76725050Y-92965000D01*
X76032233Y-93251974D01*
X75501974Y-93782233D01*
X75215000Y-94475050D01*
X65910000Y-94475050D01*
X65910000Y-56475050D01*
X75215000Y-56475050D01*
X75215000Y-57224950D01*
X75501974Y-57917767D01*
X76032233Y-58448026D01*
X76725050Y-58735000D01*
X77474950Y-58735000D01*
X78167767Y-58448026D01*
X78698026Y-57917767D01*
X78985000Y-57224950D01*
X78985000Y-56656892D01*
X93098514Y-56656892D01*
X93344817Y-57181358D01*
X93773076Y-57571645D01*
X94183110Y-57741476D01*
X94413000Y-57620155D01*
X94413000Y-56427000D01*
X93219181Y-56427000D01*
X93098514Y-56656892D01*
X78985000Y-56656892D01*
X78985000Y-56475050D01*
X78764663Y-55943108D01*
X93098514Y-55943108D01*
X93219181Y-56173000D01*
X94413000Y-56173000D01*
X94413000Y-54979845D01*
X94183110Y-54858524D01*
X93773076Y-55028355D01*
X93344817Y-55418642D01*
X93098514Y-55943108D01*
X78764663Y-55943108D01*
X78698026Y-55782233D01*
X78167767Y-55251974D01*
X77474950Y-54965000D01*
X76725050Y-54965000D01*
X76032233Y-55251974D01*
X75501974Y-55782233D01*
X75215000Y-56475050D01*
X65910000Y-56475050D01*
X65910000Y-51375594D01*
X67715000Y-51375594D01*
X67715000Y-52324406D01*
X68078095Y-53200994D01*
X68749006Y-53871905D01*
X69625594Y-54235000D01*
X70574406Y-54235000D01*
X71450994Y-53871905D01*
X72121905Y-53200994D01*
X72485000Y-52324406D01*
X72485000Y-51375594D01*
X72121905Y-50499006D01*
X71450994Y-49828095D01*
X70574406Y-49465000D01*
X69625594Y-49465000D01*
X68749006Y-49828095D01*
X68078095Y-50499006D01*
X67715000Y-51375594D01*
X65910000Y-51375594D01*
X65910000Y-42610000D01*
X234390000Y-42610000D01*
X234390001Y-141190000D01*
X234390001Y-141190000D01*
G37*
X234390001Y-141190000D02*
X65910000Y-141190000D01*
X65910000Y-136425594D01*
X67715000Y-136425594D01*
X67715000Y-137374406D01*
X68078095Y-138250994D01*
X68749006Y-138921905D01*
X69625594Y-139285000D01*
X70574406Y-139285000D01*
X71450994Y-138921905D01*
X72121905Y-138250994D01*
X72485000Y-137374406D01*
X72485000Y-136425594D01*
X72121905Y-135549006D01*
X71450994Y-134878095D01*
X70574406Y-134515000D01*
X69625594Y-134515000D01*
X68749006Y-134878095D01*
X68078095Y-135549006D01*
X67715000Y-136425594D01*
X65910000Y-136425594D01*
X65910000Y-131874778D01*
X78665000Y-131874778D01*
X78665000Y-132525222D01*
X78913914Y-133126153D01*
X79373847Y-133586086D01*
X79974778Y-133835000D01*
X80625222Y-133835000D01*
X81226153Y-133586086D01*
X81686086Y-133126153D01*
X81935000Y-132525222D01*
X81935000Y-131874778D01*
X87665000Y-131874778D01*
X87665000Y-132525222D01*
X87913914Y-133126153D01*
X88373847Y-133586086D01*
X88974778Y-133835000D01*
X89625222Y-133835000D01*
X90226153Y-133586086D01*
X90686086Y-133126153D01*
X90935000Y-132525222D01*
X90935000Y-131874778D01*
X90810736Y-131574778D01*
X98965000Y-131574778D01*
X98965000Y-132225222D01*
X99213914Y-132826153D01*
X99673847Y-133286086D01*
X100274778Y-133535000D01*
X100925222Y-133535000D01*
X101526153Y-133286086D01*
X101986086Y-132826153D01*
X102235000Y-132225222D01*
X102235000Y-131574778D01*
X107965000Y-131574778D01*
X107965000Y-132225222D01*
X108213914Y-132826153D01*
X108673847Y-133286086D01*
X109274778Y-133535000D01*
X109925222Y-133535000D01*
X110526153Y-133286086D01*
X110986086Y-132826153D01*
X111235000Y-132225222D01*
X111235000Y-131574778D01*
X111131785Y-131325594D01*
X135615000Y-131325594D01*
X135615000Y-132274406D01*
X135978095Y-133150994D01*
X136649006Y-133821905D01*
X137525594Y-134185000D01*
X138474406Y-134185000D01*
X139350994Y-133821905D01*
X140021905Y-133150994D01*
X140385000Y-132274406D01*
X140385000Y-131574778D01*
X155965000Y-131574778D01*
X155965000Y-132225222D01*
X156213914Y-132826153D01*
X156673847Y-133286086D01*
X157274778Y-133535000D01*
X157925222Y-133535000D01*
X158526153Y-133286086D01*
X158986086Y-132826153D01*
X159235000Y-132225222D01*
X159235000Y-131574778D01*
X164965000Y-131574778D01*
X164965000Y-132225222D01*
X165213914Y-132826153D01*
X165673847Y-133286086D01*
X166274778Y-133535000D01*
X166925222Y-133535000D01*
X167526153Y-133286086D01*
X167986086Y-132826153D01*
X168235000Y-132225222D01*
X168235000Y-131874778D01*
X176065000Y-131874778D01*
X176065000Y-132525222D01*
X176313914Y-133126153D01*
X176773847Y-133586086D01*
X177374778Y-133835000D01*
X178025222Y-133835000D01*
X178626153Y-133586086D01*
X179086086Y-133126153D01*
X179335000Y-132525222D01*
X179335000Y-131874778D01*
X185065000Y-131874778D01*
X185065000Y-132525222D01*
X185313914Y-133126153D01*
X185773847Y-133586086D01*
X186374778Y-133835000D01*
X187025222Y-133835000D01*
X187626153Y-133586086D01*
X188086086Y-133126153D01*
X188335000Y-132525222D01*
X188335000Y-131874778D01*
X188210736Y-131574778D01*
X196065000Y-131574778D01*
X196065000Y-132225222D01*
X196313914Y-132826153D01*
X196773847Y-133286086D01*
X197374778Y-133535000D01*
X198025222Y-133535000D01*
X198626153Y-133286086D01*
X199086086Y-132826153D01*
X199335000Y-132225222D01*
X199335000Y-131574778D01*
X205065000Y-131574778D01*
X205065000Y-132225222D01*
X205313914Y-132826153D01*
X205773847Y-133286086D01*
X206374778Y-133535000D01*
X207025222Y-133535000D01*
X207626153Y-133286086D01*
X208086086Y-132826153D01*
X208335000Y-132225222D01*
X208335000Y-131574778D01*
X215965000Y-131574778D01*
X215965000Y-132225222D01*
X216213914Y-132826153D01*
X216673847Y-133286086D01*
X217274778Y-133535000D01*
X217925222Y-133535000D01*
X218526153Y-133286086D01*
X218986086Y-132826153D01*
X219235000Y-132225222D01*
X219235000Y-131574778D01*
X224965000Y-131574778D01*
X224965000Y-132225222D01*
X225213914Y-132826153D01*
X225673847Y-133286086D01*
X226274778Y-133535000D01*
X226925222Y-133535000D01*
X227526153Y-133286086D01*
X227986086Y-132826153D01*
X228235000Y-132225222D01*
X228235000Y-131574778D01*
X227986086Y-130973847D01*
X227526153Y-130513914D01*
X226925222Y-130265000D01*
X226274778Y-130265000D01*
X225673847Y-130513914D01*
X225213914Y-130973847D01*
X224965000Y-131574778D01*
X219235000Y-131574778D01*
X218986086Y-130973847D01*
X218526153Y-130513914D01*
X217925222Y-130265000D01*
X217274778Y-130265000D01*
X216673847Y-130513914D01*
X216213914Y-130973847D01*
X215965000Y-131574778D01*
X208335000Y-131574778D01*
X208086086Y-130973847D01*
X207626153Y-130513914D01*
X207025222Y-130265000D01*
X206374778Y-130265000D01*
X205773847Y-130513914D01*
X205313914Y-130973847D01*
X205065000Y-131574778D01*
X199335000Y-131574778D01*
X199086086Y-130973847D01*
X198626153Y-130513914D01*
X198025222Y-130265000D01*
X197374778Y-130265000D01*
X196773847Y-130513914D01*
X196313914Y-130973847D01*
X196065000Y-131574778D01*
X188210736Y-131574778D01*
X188086086Y-131273847D01*
X187626153Y-130813914D01*
X187025222Y-130565000D01*
X186374778Y-130565000D01*
X185773847Y-130813914D01*
X185313914Y-131273847D01*
X185065000Y-131874778D01*
X179335000Y-131874778D01*
X179086086Y-131273847D01*
X178626153Y-130813914D01*
X178025222Y-130565000D01*
X177374778Y-130565000D01*
X176773847Y-130813914D01*
X176313914Y-131273847D01*
X176065000Y-131874778D01*
X168235000Y-131874778D01*
X168235000Y-131574778D01*
X167986086Y-130973847D01*
X167526153Y-130513914D01*
X166925222Y-130265000D01*
X166274778Y-130265000D01*
X165673847Y-130513914D01*
X165213914Y-130973847D01*
X164965000Y-131574778D01*
X159235000Y-131574778D01*
X158986086Y-130973847D01*
X158526153Y-130513914D01*
X157925222Y-130265000D01*
X157274778Y-130265000D01*
X156673847Y-130513914D01*
X156213914Y-130973847D01*
X155965000Y-131574778D01*
X140385000Y-131574778D01*
X140385000Y-131325594D01*
X140021905Y-130449006D01*
X139350994Y-129778095D01*
X138474406Y-129415000D01*
X137525594Y-129415000D01*
X136649006Y-129778095D01*
X135978095Y-130449006D01*
X135615000Y-131325594D01*
X111131785Y-131325594D01*
X110986086Y-130973847D01*
X110526153Y-130513914D01*
X109925222Y-130265000D01*
X109274778Y-130265000D01*
X108673847Y-130513914D01*
X108213914Y-130973847D01*
X107965000Y-131574778D01*
X102235000Y-131574778D01*
X101986086Y-130973847D01*
X101526153Y-130513914D01*
X100925222Y-130265000D01*
X100274778Y-130265000D01*
X99673847Y-130513914D01*
X99213914Y-130973847D01*
X98965000Y-131574778D01*
X90810736Y-131574778D01*
X90686086Y-131273847D01*
X90226153Y-130813914D01*
X89625222Y-130565000D01*
X88974778Y-130565000D01*
X88373847Y-130813914D01*
X87913914Y-131273847D01*
X87665000Y-131874778D01*
X81935000Y-131874778D01*
X81686086Y-131273847D01*
X81226153Y-130813914D01*
X80625222Y-130565000D01*
X79974778Y-130565000D01*
X79373847Y-130813914D01*
X78913914Y-131273847D01*
X78665000Y-131874778D01*
X65910000Y-131874778D01*
X65910000Y-116900458D01*
X69240000Y-116900458D01*
X69240000Y-117799542D01*
X69584065Y-118630187D01*
X70219813Y-119265935D01*
X71050458Y-119610000D01*
X71949542Y-119610000D01*
X72780187Y-119265935D01*
X73415935Y-118630187D01*
X73760000Y-117799542D01*
X73760000Y-116900458D01*
X73415935Y-116069813D01*
X72790255Y-115444133D01*
X75109472Y-115444133D01*
X75163303Y-115673179D01*
X75640664Y-115838681D01*
X76145023Y-115808906D01*
X76472697Y-115673179D01*
X76526528Y-115444133D01*
X75818000Y-114735605D01*
X75109472Y-115444133D01*
X72790255Y-115444133D01*
X72780187Y-115434065D01*
X71949542Y-115090000D01*
X71050458Y-115090000D01*
X70219813Y-115434065D01*
X69584065Y-116069813D01*
X69240000Y-116900458D01*
X65910000Y-116900458D01*
X65910000Y-113362664D01*
X72757319Y-113362664D01*
X72787094Y-113867023D01*
X72922821Y-114194697D01*
X73151867Y-114248528D01*
X73860395Y-113540000D01*
X73151867Y-112831472D01*
X72922821Y-112885303D01*
X72757319Y-113362664D01*
X65910000Y-113362664D01*
X65910000Y-104200458D01*
X69240000Y-104200458D01*
X69240000Y-105099542D01*
X69584065Y-105930187D01*
X70219813Y-106565935D01*
X71050458Y-106910000D01*
X71949542Y-106910000D01*
X72345499Y-106745989D01*
X72287912Y-107035500D01*
X72302801Y-107110352D01*
X72302800Y-110455953D01*
X72287912Y-110530800D01*
X72302800Y-110605647D01*
X72302800Y-110605651D01*
X72346896Y-110827336D01*
X72514871Y-111078729D01*
X72578329Y-111121131D01*
X72770000Y-111312802D01*
X72770000Y-111760619D01*
X72963346Y-112227397D01*
X73320603Y-112584654D01*
X73344903Y-112594719D01*
X73331472Y-112651867D01*
X74040000Y-113360395D01*
X74054143Y-113346253D01*
X74233748Y-113525858D01*
X74219605Y-113540000D01*
X74233748Y-113554143D01*
X74054143Y-113733748D01*
X74040000Y-113719605D01*
X73331472Y-114428133D01*
X73385303Y-114657179D01*
X73862664Y-114822681D01*
X74367023Y-114792906D01*
X74555173Y-114714972D01*
X74565094Y-114883023D01*
X74700821Y-115210697D01*
X74929867Y-115264528D01*
X75638395Y-114556000D01*
X75997605Y-114556000D01*
X76706133Y-115264528D01*
X76935179Y-115210697D01*
X77100681Y-114733336D01*
X77070906Y-114228977D01*
X76935179Y-113901303D01*
X76706133Y-113847472D01*
X75997605Y-114556000D01*
X75638395Y-114556000D01*
X75624253Y-114541858D01*
X75803858Y-114362253D01*
X75818000Y-114376395D01*
X76526528Y-113667867D01*
X76513097Y-113610719D01*
X76537397Y-113600654D01*
X76894654Y-113243397D01*
X77088000Y-112776619D01*
X77088000Y-112271381D01*
X76894654Y-111804603D01*
X76598051Y-111508000D01*
X76854051Y-111252000D01*
X85880853Y-111252000D01*
X85955700Y-111266888D01*
X86030547Y-111252000D01*
X86030552Y-111252000D01*
X86252237Y-111207904D01*
X86503629Y-111039929D01*
X86546031Y-110976470D01*
X88309873Y-109212629D01*
X88373329Y-109170229D01*
X88513069Y-108961094D01*
X88540302Y-108988327D01*
X88773691Y-109085000D01*
X90114250Y-109085000D01*
X90273000Y-108926250D01*
X90273000Y-107777000D01*
X90527000Y-107777000D01*
X90527000Y-108926250D01*
X90685750Y-109085000D01*
X92026309Y-109085000D01*
X92259698Y-108988327D01*
X92438327Y-108809699D01*
X92535000Y-108576310D01*
X92535000Y-107935750D01*
X92376250Y-107777000D01*
X90527000Y-107777000D01*
X90273000Y-107777000D01*
X90253000Y-107777000D01*
X90253000Y-107523000D01*
X90273000Y-107523000D01*
X90273000Y-106373750D01*
X90527000Y-106373750D01*
X90527000Y-107523000D01*
X92376250Y-107523000D01*
X92535000Y-107364250D01*
X92535000Y-106723690D01*
X92438327Y-106490301D01*
X92259698Y-106311673D01*
X92026309Y-106215000D01*
X90685750Y-106215000D01*
X90527000Y-106373750D01*
X90273000Y-106373750D01*
X90128976Y-106229726D01*
X132997202Y-63361500D01*
X133043383Y-63361500D01*
X133387035Y-63219155D01*
X133650055Y-62956135D01*
X133792400Y-62612483D01*
X133792400Y-62240517D01*
X133650055Y-61896865D01*
X133387035Y-61633845D01*
X133043383Y-61491500D01*
X132671417Y-61491500D01*
X132327765Y-61633845D01*
X132064745Y-61896865D01*
X131922400Y-62240517D01*
X131922400Y-62286698D01*
X87873345Y-106335754D01*
X87747765Y-106251843D01*
X87500000Y-106202560D01*
X87396941Y-106202560D01*
X132467502Y-61132000D01*
X140913753Y-61132000D01*
X140988600Y-61146888D01*
X141063447Y-61132000D01*
X141063452Y-61132000D01*
X141285137Y-61087904D01*
X141536529Y-60919929D01*
X141578931Y-60856470D01*
X144471576Y-57963827D01*
X144535029Y-57921429D01*
X144577427Y-57857976D01*
X144577429Y-57857974D01*
X144703003Y-57670038D01*
X144703004Y-57670037D01*
X144747100Y-57448352D01*
X144747100Y-57448348D01*
X144761988Y-57373501D01*
X144747100Y-57298654D01*
X144747100Y-56475050D01*
X158215000Y-56475050D01*
X158215000Y-57224950D01*
X158501974Y-57917767D01*
X159032233Y-58448026D01*
X159725050Y-58735000D01*
X160474950Y-58735000D01*
X161167767Y-58448026D01*
X161698026Y-57917767D01*
X161985000Y-57224950D01*
X161985000Y-56475050D01*
X161698026Y-55782233D01*
X161167767Y-55251974D01*
X160474950Y-54965000D01*
X159725050Y-54965000D01*
X159032233Y-55251974D01*
X158501974Y-55782233D01*
X158215000Y-56475050D01*
X144747100Y-56475050D01*
X144747100Y-55353446D01*
X144761988Y-55278599D01*
X144747100Y-55203752D01*
X144747100Y-55203748D01*
X144703004Y-54982063D01*
X144535029Y-54730671D01*
X144471572Y-54688271D01*
X144423530Y-54640229D01*
X144381129Y-54576771D01*
X144129737Y-54408796D01*
X143908052Y-54364700D01*
X143908047Y-54364700D01*
X143833200Y-54349812D01*
X143758353Y-54364700D01*
X141510146Y-54364700D01*
X141435299Y-54349812D01*
X141360452Y-54364700D01*
X141360448Y-54364700D01*
X141138763Y-54408796D01*
X140887371Y-54576771D01*
X140844971Y-54640227D01*
X140626408Y-54858791D01*
X140406256Y-54815000D01*
X140113744Y-54815000D01*
X139680582Y-54901161D01*
X139189375Y-55229375D01*
X138990000Y-55527761D01*
X138790625Y-55229375D01*
X138396663Y-54966138D01*
X147495402Y-45867400D01*
X174976298Y-45867400D01*
X154545228Y-66298471D01*
X154481772Y-66340871D01*
X154439372Y-66404327D01*
X154439371Y-66404328D01*
X154412888Y-66443963D01*
X154313797Y-66592263D01*
X154269700Y-66813948D01*
X154269700Y-66813953D01*
X154254812Y-66888800D01*
X154269700Y-66963647D01*
X154269700Y-66987210D01*
X154237045Y-67019865D01*
X154094700Y-67363517D01*
X154094700Y-67735483D01*
X154237045Y-68079135D01*
X154500065Y-68342155D01*
X154843717Y-68484500D01*
X155215683Y-68484500D01*
X155376290Y-68417975D01*
X155494945Y-68704435D01*
X155757965Y-68967455D01*
X156101617Y-69109800D01*
X156473583Y-69109800D01*
X156817235Y-68967455D01*
X157080255Y-68704435D01*
X157222600Y-68360783D01*
X157222600Y-68314601D01*
X170725873Y-54811329D01*
X170789329Y-54768929D01*
X170957304Y-54517537D01*
X171001400Y-54295852D01*
X171001400Y-54295848D01*
X171016288Y-54221001D01*
X171001400Y-54146154D01*
X171001400Y-53362290D01*
X171034055Y-53329635D01*
X171176400Y-52985983D01*
X171176400Y-52614017D01*
X171034055Y-52270365D01*
X170878496Y-52114806D01*
X176565000Y-46428302D01*
X176565000Y-46788083D01*
X176707345Y-47131735D01*
X176857004Y-47281394D01*
X176471230Y-47667169D01*
X176407771Y-47709571D01*
X176239796Y-47960964D01*
X176195700Y-48182649D01*
X176195700Y-48182653D01*
X176180812Y-48257500D01*
X176195700Y-48332347D01*
X176195701Y-50516200D01*
X176144417Y-50516200D01*
X175800765Y-50658545D01*
X175537745Y-50921565D01*
X175395400Y-51265217D01*
X175395400Y-51311398D01*
X120530330Y-106176469D01*
X120466871Y-106218871D01*
X120298896Y-106470264D01*
X120254800Y-106691949D01*
X120254800Y-106691953D01*
X120239912Y-106766800D01*
X120254800Y-106841647D01*
X120254801Y-123712709D01*
X120222145Y-123745365D01*
X120079800Y-124089017D01*
X120079800Y-124460983D01*
X120222145Y-124804635D01*
X120485165Y-125067655D01*
X120828817Y-125210000D01*
X121200783Y-125210000D01*
X121544435Y-125067655D01*
X121807455Y-124804635D01*
X121949800Y-124460983D01*
X121949800Y-124089017D01*
X121807455Y-123745365D01*
X121774800Y-123712710D01*
X121774800Y-107081601D01*
X130778700Y-98077701D01*
X130778701Y-115662009D01*
X130746045Y-115694665D01*
X130603700Y-116038317D01*
X130603700Y-116410283D01*
X130746045Y-116753935D01*
X131009065Y-117016955D01*
X131352717Y-117159300D01*
X131724683Y-117159300D01*
X132068335Y-117016955D01*
X132331355Y-116753935D01*
X132473700Y-116410283D01*
X132473700Y-116038317D01*
X132331355Y-115694665D01*
X132298700Y-115662010D01*
X132298700Y-97442101D01*
X145965101Y-83775701D01*
X145965100Y-116737710D01*
X145932445Y-116770365D01*
X145790100Y-117114017D01*
X145790100Y-117485983D01*
X145932445Y-117829635D01*
X146195465Y-118092655D01*
X146539117Y-118235000D01*
X146911083Y-118235000D01*
X147254735Y-118092655D01*
X147517755Y-117829635D01*
X147660100Y-117485983D01*
X147660100Y-117114017D01*
X147517755Y-116770365D01*
X147485100Y-116737710D01*
X147485100Y-94525050D01*
X158215000Y-94525050D01*
X158215000Y-95274950D01*
X158501974Y-95967767D01*
X159032233Y-96498026D01*
X159725050Y-96785000D01*
X160474950Y-96785000D01*
X161167767Y-96498026D01*
X161698026Y-95967767D01*
X161985000Y-95274950D01*
X161985000Y-94525050D01*
X161698026Y-93832233D01*
X161167767Y-93301974D01*
X160474950Y-93015000D01*
X159725050Y-93015000D01*
X159032233Y-93301974D01*
X158501974Y-93832233D01*
X158215000Y-94525050D01*
X147485100Y-94525050D01*
X147485100Y-82892601D01*
X172290001Y-58087702D01*
X172290000Y-103002560D01*
X172200000Y-103002560D01*
X171952235Y-103051843D01*
X171742191Y-103192191D01*
X171601843Y-103402235D01*
X171552560Y-103650000D01*
X171552560Y-105350000D01*
X171601843Y-105597765D01*
X171742191Y-105807809D01*
X171952235Y-105948157D01*
X171997619Y-105957184D01*
X171979375Y-105969375D01*
X171651161Y-106460582D01*
X171535908Y-107040000D01*
X171651161Y-107619418D01*
X171979375Y-108110625D01*
X172277761Y-108310000D01*
X171979375Y-108509375D01*
X171651161Y-109000582D01*
X171535908Y-109580000D01*
X171651161Y-110159418D01*
X171979375Y-110650625D01*
X172277761Y-110850000D01*
X171979375Y-111049375D01*
X171651161Y-111540582D01*
X171535908Y-112120000D01*
X171651161Y-112699418D01*
X171979375Y-113190625D01*
X172470582Y-113518839D01*
X172903744Y-113605000D01*
X173196256Y-113605000D01*
X173629418Y-113518839D01*
X174120625Y-113190625D01*
X174320000Y-112892239D01*
X174519375Y-113190625D01*
X175010582Y-113518839D01*
X175443744Y-113605000D01*
X175447298Y-113605000D01*
X165712299Y-123340000D01*
X165666117Y-123340000D01*
X165322465Y-123482345D01*
X165059445Y-123745365D01*
X164917100Y-124089017D01*
X164917100Y-124460983D01*
X165059445Y-124804635D01*
X165322465Y-125067655D01*
X165666117Y-125210000D01*
X166038083Y-125210000D01*
X166381735Y-125067655D01*
X166644755Y-124804635D01*
X166787100Y-124460983D01*
X166787100Y-124414801D01*
X180434873Y-110767029D01*
X180498329Y-110724629D01*
X180666304Y-110473237D01*
X180710400Y-110251552D01*
X180710400Y-110251548D01*
X180725288Y-110176701D01*
X180710400Y-110101854D01*
X180710400Y-103215101D01*
X200478900Y-122983602D01*
X200478900Y-123029783D01*
X200621245Y-123373435D01*
X200884265Y-123636455D01*
X201227917Y-123778800D01*
X201599883Y-123778800D01*
X201943535Y-123636455D01*
X202206555Y-123373435D01*
X202348900Y-123029783D01*
X202348900Y-122657817D01*
X202206555Y-122314165D01*
X201943535Y-122051145D01*
X201599883Y-121908800D01*
X201553702Y-121908800D01*
X196070496Y-116425594D01*
X212765000Y-116425594D01*
X212765000Y-117374406D01*
X213128095Y-118250994D01*
X213799006Y-118921905D01*
X214675594Y-119285000D01*
X215624406Y-119285000D01*
X216500994Y-118921905D01*
X217171905Y-118250994D01*
X217535000Y-117374406D01*
X217535000Y-116425594D01*
X217171905Y-115549006D01*
X216500994Y-114878095D01*
X215624406Y-114515000D01*
X214675594Y-114515000D01*
X213799006Y-114878095D01*
X213128095Y-115549006D01*
X212765000Y-116425594D01*
X196070496Y-116425594D01*
X181352900Y-101707999D01*
X181352900Y-89375594D01*
X185715000Y-89375594D01*
X185715000Y-90324406D01*
X186078095Y-91200994D01*
X186749006Y-91871905D01*
X187625594Y-92235000D01*
X188574406Y-92235000D01*
X189450994Y-91871905D01*
X189748121Y-91574778D01*
X196065000Y-91574778D01*
X196065000Y-92225222D01*
X196313914Y-92826153D01*
X196773847Y-93286086D01*
X197374778Y-93535000D01*
X198025222Y-93535000D01*
X198626153Y-93286086D01*
X199086086Y-92826153D01*
X199335000Y-92225222D01*
X199335000Y-91574778D01*
X205065000Y-91574778D01*
X205065000Y-92225222D01*
X205313914Y-92826153D01*
X205773847Y-93286086D01*
X206374778Y-93535000D01*
X207025222Y-93535000D01*
X207626153Y-93286086D01*
X208086086Y-92826153D01*
X208335000Y-92225222D01*
X208335000Y-91574778D01*
X208086086Y-90973847D01*
X207626153Y-90513914D01*
X207025222Y-90265000D01*
X206374778Y-90265000D01*
X205773847Y-90513914D01*
X205313914Y-90973847D01*
X205065000Y-91574778D01*
X199335000Y-91574778D01*
X199086086Y-90973847D01*
X198626153Y-90513914D01*
X198025222Y-90265000D01*
X197374778Y-90265000D01*
X196773847Y-90513914D01*
X196313914Y-90973847D01*
X196065000Y-91574778D01*
X189748121Y-91574778D01*
X190121905Y-91200994D01*
X190485000Y-90324406D01*
X190485000Y-89375594D01*
X190121905Y-88499006D01*
X189450994Y-87828095D01*
X188574406Y-87465000D01*
X187625594Y-87465000D01*
X186749006Y-87828095D01*
X186078095Y-88499006D01*
X185715000Y-89375594D01*
X181352900Y-89375594D01*
X181352900Y-76965139D01*
X181673847Y-77286086D01*
X182274778Y-77535000D01*
X182925222Y-77535000D01*
X183526153Y-77286086D01*
X183986086Y-76826153D01*
X184235000Y-76225222D01*
X184235000Y-75574778D01*
X183986086Y-74973847D01*
X183526153Y-74513914D01*
X182925222Y-74265000D01*
X182274778Y-74265000D01*
X181673847Y-74513914D01*
X181352900Y-74834861D01*
X181352900Y-66464890D01*
X181385555Y-66432235D01*
X181527900Y-66088583D01*
X181527900Y-65716617D01*
X181385555Y-65372965D01*
X181122535Y-65109945D01*
X180778883Y-64967600D01*
X180710400Y-64967600D01*
X180710400Y-63750101D01*
X191239791Y-74279492D01*
X190673847Y-74513914D01*
X190213914Y-74973847D01*
X189965000Y-75574778D01*
X189965000Y-76225222D01*
X190213914Y-76826153D01*
X190673847Y-77286086D01*
X191274778Y-77535000D01*
X191925222Y-77535000D01*
X192526153Y-77286086D01*
X192986086Y-76826153D01*
X193220508Y-76260209D01*
X200166400Y-83206102D01*
X200166400Y-83252283D01*
X200308745Y-83595935D01*
X200571765Y-83858955D01*
X200915417Y-84001300D01*
X201287383Y-84001300D01*
X201631035Y-83858955D01*
X201724244Y-83765746D01*
X221049001Y-103090503D01*
X221049000Y-122281510D01*
X221016345Y-122314165D01*
X220874000Y-122657817D01*
X220874000Y-123029783D01*
X221016345Y-123373435D01*
X221279365Y-123636455D01*
X221623017Y-123778800D01*
X221994983Y-123778800D01*
X222338635Y-123636455D01*
X222601655Y-123373435D01*
X222744000Y-123029783D01*
X222744000Y-122657817D01*
X222601655Y-122314165D01*
X222569000Y-122281510D01*
X222569000Y-103476348D01*
X222632529Y-103518796D01*
X222732963Y-103585904D01*
X222954648Y-103630000D01*
X222954652Y-103630000D01*
X223029499Y-103644888D01*
X223104346Y-103630000D01*
X225921822Y-103630000D01*
X226129375Y-103940625D01*
X226427761Y-104140000D01*
X226129375Y-104339375D01*
X225801161Y-104830582D01*
X225685908Y-105410000D01*
X225801161Y-105989418D01*
X226129375Y-106480625D01*
X226427761Y-106680000D01*
X226129375Y-106879375D01*
X225801161Y-107370582D01*
X225685908Y-107950000D01*
X225801161Y-108529418D01*
X226129375Y-109020625D01*
X226620582Y-109348839D01*
X227053744Y-109435000D01*
X227346256Y-109435000D01*
X227779418Y-109348839D01*
X228270625Y-109020625D01*
X228598839Y-108529418D01*
X228714092Y-107950000D01*
X228598839Y-107370582D01*
X228270625Y-106879375D01*
X227972239Y-106680000D01*
X228270625Y-106480625D01*
X228598839Y-105989418D01*
X228714092Y-105410000D01*
X228598839Y-104830582D01*
X228377491Y-104499311D01*
X228880073Y-103996729D01*
X228943529Y-103954329D01*
X229111504Y-103702937D01*
X229155600Y-103481252D01*
X229155600Y-103481248D01*
X229170488Y-103406401D01*
X229155600Y-103331554D01*
X229155600Y-102415248D01*
X229170488Y-102340400D01*
X229155600Y-102265552D01*
X229155600Y-102265548D01*
X229111504Y-102043863D01*
X229111504Y-102043862D01*
X228985929Y-101855927D01*
X228943529Y-101792471D01*
X228880073Y-101750071D01*
X228374767Y-101244766D01*
X228598839Y-100909418D01*
X228714092Y-100330000D01*
X228598839Y-99750582D01*
X228270625Y-99259375D01*
X227972239Y-99060000D01*
X228270625Y-98860625D01*
X228598839Y-98369418D01*
X228714092Y-97790000D01*
X228598839Y-97210582D01*
X228270625Y-96719375D01*
X228248967Y-96704904D01*
X228409698Y-96638327D01*
X228588327Y-96459699D01*
X228685000Y-96226310D01*
X228685000Y-95535750D01*
X228526250Y-95377000D01*
X227327000Y-95377000D01*
X227327000Y-95397000D01*
X227073000Y-95397000D01*
X227073000Y-95377000D01*
X225873750Y-95377000D01*
X225715000Y-95535750D01*
X225715000Y-96226310D01*
X225811673Y-96459699D01*
X225990302Y-96638327D01*
X226151033Y-96704904D01*
X226129375Y-96719375D01*
X225801161Y-97210582D01*
X225685908Y-97790000D01*
X225801161Y-98369418D01*
X226129375Y-98860625D01*
X226427761Y-99060000D01*
X226129375Y-99259375D01*
X225801161Y-99750582D01*
X225685908Y-100330000D01*
X225787353Y-100840000D01*
X222782503Y-100840000D01*
X216216193Y-94273690D01*
X225715000Y-94273690D01*
X225715000Y-94964250D01*
X225873750Y-95123000D01*
X227073000Y-95123000D01*
X227073000Y-93923750D01*
X227327000Y-93923750D01*
X227327000Y-95123000D01*
X228526250Y-95123000D01*
X228685000Y-94964250D01*
X228685000Y-94273690D01*
X228588327Y-94040301D01*
X228409698Y-93861673D01*
X228176309Y-93765000D01*
X227485750Y-93765000D01*
X227327000Y-93923750D01*
X227073000Y-93923750D01*
X226914250Y-93765000D01*
X226223691Y-93765000D01*
X225990302Y-93861673D01*
X225811673Y-94040301D01*
X225715000Y-94273690D01*
X216216193Y-94273690D01*
X197517281Y-75574778D01*
X210965000Y-75574778D01*
X210965000Y-76225222D01*
X211213914Y-76826153D01*
X211673847Y-77286086D01*
X212274778Y-77535000D01*
X212925222Y-77535000D01*
X213526153Y-77286086D01*
X213986086Y-76826153D01*
X214235000Y-76225222D01*
X214235000Y-75574778D01*
X219965000Y-75574778D01*
X219965000Y-76225222D01*
X220213914Y-76826153D01*
X220673847Y-77286086D01*
X221274778Y-77535000D01*
X221925222Y-77535000D01*
X222526153Y-77286086D01*
X222986086Y-76826153D01*
X223235000Y-76225222D01*
X223235000Y-75574778D01*
X222986086Y-74973847D01*
X222526153Y-74513914D01*
X221925222Y-74265000D01*
X221274778Y-74265000D01*
X220673847Y-74513914D01*
X220213914Y-74973847D01*
X219965000Y-75574778D01*
X214235000Y-75574778D01*
X213986086Y-74973847D01*
X213526153Y-74513914D01*
X212925222Y-74265000D01*
X212274778Y-74265000D01*
X211673847Y-74513914D01*
X211213914Y-74973847D01*
X210965000Y-75574778D01*
X197517281Y-75574778D01*
X189611529Y-67669027D01*
X189926035Y-67538755D01*
X190189055Y-67275735D01*
X190331400Y-66932083D01*
X190331400Y-66560117D01*
X190189055Y-66216465D01*
X189926035Y-65953445D01*
X189582383Y-65811100D01*
X189541802Y-65811100D01*
X185719055Y-61988354D01*
X185948517Y-62083400D01*
X186320483Y-62083400D01*
X186664135Y-61941055D01*
X186927155Y-61678035D01*
X186969925Y-61574778D01*
X196065000Y-61574778D01*
X196065000Y-62225222D01*
X196313914Y-62826153D01*
X196773847Y-63286086D01*
X197374778Y-63535000D01*
X198025222Y-63535000D01*
X198626153Y-63286086D01*
X199086086Y-62826153D01*
X199335000Y-62225222D01*
X199335000Y-61574778D01*
X199086086Y-60973847D01*
X198626153Y-60513914D01*
X198025222Y-60265000D01*
X197374778Y-60265000D01*
X196773847Y-60513914D01*
X196313914Y-60973847D01*
X196065000Y-61574778D01*
X186969925Y-61574778D01*
X187069500Y-61334383D01*
X187069500Y-60962417D01*
X186927155Y-60618765D01*
X186664135Y-60355745D01*
X186320483Y-60213400D01*
X186274302Y-60213400D01*
X185795219Y-59734317D01*
X185944617Y-59796200D01*
X186316583Y-59796200D01*
X186660235Y-59653855D01*
X186692890Y-59621200D01*
X200889800Y-59621200D01*
X200889801Y-68207048D01*
X200874912Y-68281900D01*
X200933897Y-68578437D01*
X201058641Y-68765129D01*
X201101872Y-68829829D01*
X201165328Y-68872229D01*
X202228900Y-69935802D01*
X202228900Y-69981983D01*
X202371245Y-70325635D01*
X202634265Y-70588655D01*
X202977917Y-70731000D01*
X203349883Y-70731000D01*
X203693535Y-70588655D01*
X203956555Y-70325635D01*
X204098900Y-69981983D01*
X204098900Y-69610017D01*
X203956555Y-69266365D01*
X203693535Y-69003345D01*
X203349883Y-68861000D01*
X203303702Y-68861000D01*
X202409800Y-67967099D01*
X202409800Y-61574778D01*
X205065000Y-61574778D01*
X205065000Y-62225222D01*
X205313914Y-62826153D01*
X205773847Y-63286086D01*
X206374778Y-63535000D01*
X207025222Y-63535000D01*
X207626153Y-63286086D01*
X208086086Y-62826153D01*
X208335000Y-62225222D01*
X208335000Y-61574778D01*
X208086086Y-60973847D01*
X207626153Y-60513914D01*
X207025222Y-60265000D01*
X206374778Y-60265000D01*
X205773847Y-60513914D01*
X205313914Y-60973847D01*
X205065000Y-61574778D01*
X202409800Y-61574778D01*
X202409800Y-59176001D01*
X204839802Y-56746000D01*
X204885983Y-56746000D01*
X205229635Y-56603655D01*
X205492655Y-56340635D01*
X205635000Y-55996983D01*
X205635000Y-55625017D01*
X205492655Y-55281365D01*
X205229635Y-55018345D01*
X204885983Y-54876000D01*
X204514017Y-54876000D01*
X204170365Y-55018345D01*
X203907345Y-55281365D01*
X203765000Y-55625017D01*
X203765000Y-55671198D01*
X201334999Y-58101200D01*
X194665400Y-58101200D01*
X194665400Y-57821617D01*
X194523055Y-57477965D01*
X194260035Y-57214945D01*
X193916383Y-57072600D01*
X193544417Y-57072600D01*
X193200765Y-57214945D01*
X193168110Y-57247600D01*
X186406390Y-57247600D01*
X186404035Y-57245245D01*
X186060383Y-57102900D01*
X185688417Y-57102900D01*
X185682900Y-57105185D01*
X185682900Y-51375594D01*
X212715000Y-51375594D01*
X212715000Y-52324406D01*
X213078095Y-53200994D01*
X213749006Y-53871905D01*
X214625594Y-54235000D01*
X215574406Y-54235000D01*
X216450994Y-53871905D01*
X217121905Y-53200994D01*
X217485000Y-52324406D01*
X217485000Y-51375594D01*
X217121905Y-50499006D01*
X216450994Y-49828095D01*
X215574406Y-49465000D01*
X214625594Y-49465000D01*
X213749006Y-49828095D01*
X213078095Y-50499006D01*
X212715000Y-51375594D01*
X185682900Y-51375594D01*
X185682900Y-50164448D01*
X185697788Y-50089600D01*
X185682900Y-50014752D01*
X185682900Y-50014748D01*
X185638804Y-49793063D01*
X185470829Y-49541671D01*
X185407373Y-49499271D01*
X180080631Y-44172530D01*
X180038229Y-44109071D01*
X179786837Y-43941096D01*
X179565152Y-43897000D01*
X179565147Y-43897000D01*
X179490300Y-43882112D01*
X179415453Y-43897000D01*
X140085847Y-43897000D01*
X140011000Y-43882112D01*
X139936153Y-43897000D01*
X139936148Y-43897000D01*
X139714463Y-43941096D01*
X139463071Y-44109071D01*
X139420671Y-44172527D01*
X128470689Y-55122510D01*
X128139418Y-54901161D01*
X127706256Y-54815000D01*
X127413744Y-54815000D01*
X126980582Y-54901161D01*
X126489375Y-55229375D01*
X126290000Y-55527761D01*
X126090625Y-55229375D01*
X125599418Y-54901161D01*
X125166256Y-54815000D01*
X124873744Y-54815000D01*
X124440582Y-54901161D01*
X123949375Y-55229375D01*
X123750000Y-55527761D01*
X123550625Y-55229375D01*
X123059418Y-54901161D01*
X122626256Y-54815000D01*
X122333744Y-54815000D01*
X121900582Y-54901161D01*
X121409375Y-55229375D01*
X121210000Y-55527761D01*
X121010625Y-55229375D01*
X120519418Y-54901161D01*
X120086256Y-54815000D01*
X119793744Y-54815000D01*
X119360582Y-54901161D01*
X118869375Y-55229375D01*
X118670000Y-55527761D01*
X118470625Y-55229375D01*
X117979418Y-54901161D01*
X117546256Y-54815000D01*
X117253744Y-54815000D01*
X116820582Y-54901161D01*
X116329375Y-55229375D01*
X116130000Y-55527761D01*
X115930625Y-55229375D01*
X115439418Y-54901161D01*
X115006256Y-54815000D01*
X114713744Y-54815000D01*
X114280582Y-54901161D01*
X113789375Y-55229375D01*
X113590000Y-55527761D01*
X113390625Y-55229375D01*
X112899418Y-54901161D01*
X112466256Y-54815000D01*
X112173744Y-54815000D01*
X111740582Y-54901161D01*
X111249375Y-55229375D01*
X111050000Y-55527761D01*
X110850625Y-55229375D01*
X110359418Y-54901161D01*
X109926256Y-54815000D01*
X109633744Y-54815000D01*
X109200582Y-54901161D01*
X108709375Y-55229375D01*
X108510000Y-55527761D01*
X108310625Y-55229375D01*
X107819418Y-54901161D01*
X107386256Y-54815000D01*
X107093744Y-54815000D01*
X106660582Y-54901161D01*
X106169375Y-55229375D01*
X105970000Y-55527761D01*
X105770625Y-55229375D01*
X105279418Y-54901161D01*
X104846256Y-54815000D01*
X104553744Y-54815000D01*
X104120582Y-54901161D01*
X103629375Y-55229375D01*
X103430000Y-55527761D01*
X103230625Y-55229375D01*
X102739418Y-54901161D01*
X102306256Y-54815000D01*
X102013744Y-54815000D01*
X101580582Y-54901161D01*
X101089375Y-55229375D01*
X100890000Y-55527761D01*
X100690625Y-55229375D01*
X100199418Y-54901161D01*
X99766256Y-54815000D01*
X99473744Y-54815000D01*
X99040582Y-54901161D01*
X98549375Y-55229375D01*
X98350000Y-55527761D01*
X98150625Y-55229375D01*
X97659418Y-54901161D01*
X97226256Y-54815000D01*
X96933744Y-54815000D01*
X96500582Y-54901161D01*
X96009375Y-55229375D01*
X95796157Y-55548478D01*
X95735183Y-55418642D01*
X95306924Y-55028355D01*
X94896890Y-54858524D01*
X94667000Y-54979845D01*
X94667000Y-56173000D01*
X94687000Y-56173000D01*
X94687000Y-56427000D01*
X94667000Y-56427000D01*
X94667000Y-57620155D01*
X94896890Y-57741476D01*
X95306924Y-57571645D01*
X95735183Y-57181358D01*
X95796157Y-57051522D01*
X96009375Y-57370625D01*
X96500582Y-57698839D01*
X96933744Y-57785000D01*
X97226256Y-57785000D01*
X97659418Y-57698839D01*
X98150625Y-57370625D01*
X98350000Y-57072239D01*
X98549375Y-57370625D01*
X99040582Y-57698839D01*
X99473744Y-57785000D01*
X99766256Y-57785000D01*
X100199418Y-57698839D01*
X100690625Y-57370625D01*
X100890000Y-57072239D01*
X101089375Y-57370625D01*
X101580582Y-57698839D01*
X102013744Y-57785000D01*
X102306256Y-57785000D01*
X102739418Y-57698839D01*
X103230625Y-57370625D01*
X103430000Y-57072239D01*
X103629375Y-57370625D01*
X104120582Y-57698839D01*
X104553744Y-57785000D01*
X104846256Y-57785000D01*
X105279418Y-57698839D01*
X105770625Y-57370625D01*
X105970000Y-57072239D01*
X106169375Y-57370625D01*
X106660582Y-57698839D01*
X107093744Y-57785000D01*
X107386256Y-57785000D01*
X107819418Y-57698839D01*
X108310625Y-57370625D01*
X108510000Y-57072239D01*
X108709375Y-57370625D01*
X109200582Y-57698839D01*
X109633744Y-57785000D01*
X109926256Y-57785000D01*
X110359418Y-57698839D01*
X110850625Y-57370625D01*
X111050000Y-57072239D01*
X111249375Y-57370625D01*
X111740582Y-57698839D01*
X112173744Y-57785000D01*
X112466256Y-57785000D01*
X112899418Y-57698839D01*
X113390625Y-57370625D01*
X113590000Y-57072239D01*
X113789375Y-57370625D01*
X114280582Y-57698839D01*
X114713744Y-57785000D01*
X115006256Y-57785000D01*
X115439418Y-57698839D01*
X115930625Y-57370625D01*
X116130000Y-57072239D01*
X116329375Y-57370625D01*
X116820582Y-57698839D01*
X117253744Y-57785000D01*
X117546256Y-57785000D01*
X117979418Y-57698839D01*
X118470625Y-57370625D01*
X118670000Y-57072239D01*
X118869375Y-57370625D01*
X119360582Y-57698839D01*
X119793744Y-57785000D01*
X120086256Y-57785000D01*
X120519418Y-57698839D01*
X121010625Y-57370625D01*
X121210000Y-57072239D01*
X121409375Y-57370625D01*
X121900582Y-57698839D01*
X122333744Y-57785000D01*
X122626256Y-57785000D01*
X123059418Y-57698839D01*
X123550625Y-57370625D01*
X123750000Y-57072239D01*
X123949375Y-57370625D01*
X124440582Y-57698839D01*
X124873744Y-57785000D01*
X125166256Y-57785000D01*
X125599418Y-57698839D01*
X126090625Y-57370625D01*
X126290000Y-57072239D01*
X126489375Y-57370625D01*
X126980582Y-57698839D01*
X127413744Y-57785000D01*
X127706256Y-57785000D01*
X128139418Y-57698839D01*
X128630625Y-57370625D01*
X128830000Y-57072239D01*
X129029375Y-57370625D01*
X129520582Y-57698839D01*
X129953744Y-57785000D01*
X130246256Y-57785000D01*
X130679418Y-57698839D01*
X131170625Y-57370625D01*
X131370000Y-57072239D01*
X131569375Y-57370625D01*
X132060582Y-57698839D01*
X132493744Y-57785000D01*
X132786256Y-57785000D01*
X133219418Y-57698839D01*
X133710625Y-57370625D01*
X133910000Y-57072239D01*
X134109375Y-57370625D01*
X134600582Y-57698839D01*
X135033744Y-57785000D01*
X135326256Y-57785000D01*
X135759418Y-57698839D01*
X136250625Y-57370625D01*
X136450000Y-57072239D01*
X136649375Y-57370625D01*
X137140582Y-57698839D01*
X137573744Y-57785000D01*
X137866256Y-57785000D01*
X138299418Y-57698839D01*
X138790625Y-57370625D01*
X138990000Y-57072239D01*
X139189375Y-57370625D01*
X139680582Y-57698839D01*
X140113744Y-57785000D01*
X140406256Y-57785000D01*
X140839418Y-57698839D01*
X141330625Y-57370625D01*
X141345096Y-57348967D01*
X141411673Y-57509698D01*
X141590301Y-57688327D01*
X141823690Y-57785000D01*
X142500798Y-57785000D01*
X140673799Y-59612000D01*
X132227546Y-59612000D01*
X132152699Y-59597112D01*
X132077852Y-59612000D01*
X132077848Y-59612000D01*
X131856163Y-59656096D01*
X131604771Y-59824071D01*
X131562371Y-59887527D01*
X85515528Y-105934371D01*
X85452072Y-105976771D01*
X85409672Y-106040227D01*
X85409671Y-106040228D01*
X85301204Y-106202560D01*
X84500000Y-106202560D01*
X84252235Y-106251843D01*
X84042191Y-106392191D01*
X83901843Y-106602235D01*
X83852560Y-106850000D01*
X83852560Y-106951203D01*
X83626771Y-107102071D01*
X83584371Y-107165527D01*
X83265799Y-107484100D01*
X76638151Y-107484100D01*
X76537397Y-107383346D01*
X76070619Y-107190000D01*
X75838701Y-107190000D01*
X75608231Y-106959530D01*
X75565829Y-106896071D01*
X75314437Y-106728096D01*
X75092752Y-106684000D01*
X75092747Y-106684000D01*
X75071905Y-106679854D01*
X74782576Y-106390525D01*
X114443002Y-66730100D01*
X114489183Y-66730100D01*
X114832835Y-66587755D01*
X115095855Y-66324735D01*
X115238200Y-65981083D01*
X115238200Y-65609117D01*
X115095855Y-65265465D01*
X114832835Y-65002445D01*
X114489183Y-64860100D01*
X114117217Y-64860100D01*
X113773565Y-65002445D01*
X113510545Y-65265465D01*
X113368200Y-65609117D01*
X113368200Y-65655298D01*
X73644065Y-105379434D01*
X73760000Y-105099542D01*
X73760000Y-104200458D01*
X73415935Y-103369813D01*
X72780187Y-102734065D01*
X71949542Y-102390000D01*
X71050458Y-102390000D01*
X70219813Y-102734065D01*
X69584065Y-103369813D01*
X69240000Y-104200458D01*
X65910000Y-104200458D01*
X65910000Y-94475050D01*
X75215000Y-94475050D01*
X75215000Y-95224950D01*
X75501974Y-95917767D01*
X76032233Y-96448026D01*
X76725050Y-96735000D01*
X77474950Y-96735000D01*
X78167767Y-96448026D01*
X78698026Y-95917767D01*
X78985000Y-95224950D01*
X78985000Y-94475050D01*
X78698026Y-93782233D01*
X78167767Y-93251974D01*
X77474950Y-92965000D01*
X76725050Y-92965000D01*
X76032233Y-93251974D01*
X75501974Y-93782233D01*
X75215000Y-94475050D01*
X65910000Y-94475050D01*
X65910000Y-56475050D01*
X75215000Y-56475050D01*
X75215000Y-57224950D01*
X75501974Y-57917767D01*
X76032233Y-58448026D01*
X76725050Y-58735000D01*
X77474950Y-58735000D01*
X78167767Y-58448026D01*
X78698026Y-57917767D01*
X78985000Y-57224950D01*
X78985000Y-56656892D01*
X93098514Y-56656892D01*
X93344817Y-57181358D01*
X93773076Y-57571645D01*
X94183110Y-57741476D01*
X94413000Y-57620155D01*
X94413000Y-56427000D01*
X93219181Y-56427000D01*
X93098514Y-56656892D01*
X78985000Y-56656892D01*
X78985000Y-56475050D01*
X78764663Y-55943108D01*
X93098514Y-55943108D01*
X93219181Y-56173000D01*
X94413000Y-56173000D01*
X94413000Y-54979845D01*
X94183110Y-54858524D01*
X93773076Y-55028355D01*
X93344817Y-55418642D01*
X93098514Y-55943108D01*
X78764663Y-55943108D01*
X78698026Y-55782233D01*
X78167767Y-55251974D01*
X77474950Y-54965000D01*
X76725050Y-54965000D01*
X76032233Y-55251974D01*
X75501974Y-55782233D01*
X75215000Y-56475050D01*
X65910000Y-56475050D01*
X65910000Y-51375594D01*
X67715000Y-51375594D01*
X67715000Y-52324406D01*
X68078095Y-53200994D01*
X68749006Y-53871905D01*
X69625594Y-54235000D01*
X70574406Y-54235000D01*
X71450994Y-53871905D01*
X72121905Y-53200994D01*
X72485000Y-52324406D01*
X72485000Y-51375594D01*
X72121905Y-50499006D01*
X71450994Y-49828095D01*
X70574406Y-49465000D01*
X69625594Y-49465000D01*
X68749006Y-49828095D01*
X68078095Y-50499006D01*
X67715000Y-51375594D01*
X65910000Y-51375594D01*
X65910000Y-42610000D01*
X234390000Y-42610000D01*
X234390001Y-141190000D01*
G36*
X180829798Y-50821600D02*
X180582317Y-50821600D01*
X180238665Y-50963945D01*
X179975645Y-51226965D01*
X179833300Y-51570617D01*
X179833300Y-51616797D01*
X178425428Y-53024671D01*
X178361972Y-53067071D01*
X178319572Y-53130527D01*
X178319571Y-53130528D01*
X178193997Y-53318463D01*
X178135012Y-53615000D01*
X178149901Y-53689852D01*
X178149900Y-105086598D01*
X176903554Y-106332944D01*
X176660625Y-105969375D01*
X176343571Y-105757526D01*
X176343147Y-105755394D01*
X176471358Y-105695183D01*
X176861645Y-105266924D01*
X177031476Y-104856890D01*
X176910155Y-104627000D01*
X175717000Y-104627000D01*
X175717000Y-104647000D01*
X175463000Y-104647000D01*
X175463000Y-104627000D01*
X175443000Y-104627000D01*
X175443000Y-104373000D01*
X175463000Y-104373000D01*
X175463000Y-103179181D01*
X175717000Y-103179181D01*
X175717000Y-104373000D01*
X176910155Y-104373000D01*
X177031476Y-104143110D01*
X176861645Y-103733076D01*
X176471358Y-103304817D01*
X175946892Y-103058514D01*
X175717000Y-103179181D01*
X175463000Y-103179181D01*
X175233108Y-103058514D01*
X175171200Y-103087588D01*
X175171200Y-67035890D01*
X175389755Y-66817335D01*
X175532100Y-66473683D01*
X175532100Y-66101717D01*
X175389755Y-65758065D01*
X175357100Y-65725410D01*
X175357100Y-60362290D01*
X175389755Y-60329635D01*
X175532100Y-59985983D01*
X175532100Y-59939801D01*
X175988173Y-59483729D01*
X176051629Y-59441329D01*
X176219604Y-59189937D01*
X176263700Y-58968252D01*
X176263700Y-58968248D01*
X176278588Y-58893401D01*
X176263700Y-58818554D01*
X176263700Y-55882890D01*
X176296355Y-55850235D01*
X176438700Y-55506583D01*
X176438700Y-55134617D01*
X176296355Y-54790965D01*
X176260046Y-54754656D01*
X180121202Y-50893500D01*
X180167383Y-50893500D01*
X180511035Y-50751155D01*
X180635194Y-50626996D01*
X180829798Y-50821600D01*
X180829798Y-50821600D01*
G37*
X180829798Y-50821600D02*
X180582317Y-50821600D01*
X180238665Y-50963945D01*
X179975645Y-51226965D01*
X179833300Y-51570617D01*
X179833300Y-51616797D01*
X178425428Y-53024671D01*
X178361972Y-53067071D01*
X178319572Y-53130527D01*
X178319571Y-53130528D01*
X178193997Y-53318463D01*
X178135012Y-53615000D01*
X178149901Y-53689852D01*
X178149900Y-105086598D01*
X176903554Y-106332944D01*
X176660625Y-105969375D01*
X176343571Y-105757526D01*
X176343147Y-105755394D01*
X176471358Y-105695183D01*
X176861645Y-105266924D01*
X177031476Y-104856890D01*
X176910155Y-104627000D01*
X175717000Y-104627000D01*
X175717000Y-104647000D01*
X175463000Y-104647000D01*
X175463000Y-104627000D01*
X175443000Y-104627000D01*
X175443000Y-104373000D01*
X175463000Y-104373000D01*
X175463000Y-103179181D01*
X175717000Y-103179181D01*
X175717000Y-104373000D01*
X176910155Y-104373000D01*
X177031476Y-104143110D01*
X176861645Y-103733076D01*
X176471358Y-103304817D01*
X175946892Y-103058514D01*
X175717000Y-103179181D01*
X175463000Y-103179181D01*
X175233108Y-103058514D01*
X175171200Y-103087588D01*
X175171200Y-67035890D01*
X175389755Y-66817335D01*
X175532100Y-66473683D01*
X175532100Y-66101717D01*
X175389755Y-65758065D01*
X175357100Y-65725410D01*
X175357100Y-60362290D01*
X175389755Y-60329635D01*
X175532100Y-59985983D01*
X175532100Y-59939801D01*
X175988173Y-59483729D01*
X176051629Y-59441329D01*
X176219604Y-59189937D01*
X176263700Y-58968252D01*
X176263700Y-58968248D01*
X176278588Y-58893401D01*
X176263700Y-58818554D01*
X176263700Y-55882890D01*
X176296355Y-55850235D01*
X176438700Y-55506583D01*
X176438700Y-55134617D01*
X176296355Y-54790965D01*
X176260046Y-54754656D01*
X180121202Y-50893500D01*
X180167383Y-50893500D01*
X180511035Y-50751155D01*
X180635194Y-50626996D01*
X180829798Y-50821600D01*
G36*
X142927000Y-56173000D02*
X142947000Y-56173000D01*
X142947000Y-56427000D01*
X142927000Y-56427000D01*
X142927000Y-56447000D01*
X142673000Y-56447000D01*
X142673000Y-56427000D01*
X142653000Y-56427000D01*
X142653000Y-56173000D01*
X142673000Y-56173000D01*
X142673000Y-56153000D01*
X142927000Y-56153000D01*
X142927000Y-56173000D01*
X142927000Y-56173000D01*
G37*
X142927000Y-56173000D02*
X142947000Y-56173000D01*
X142947000Y-56427000D01*
X142927000Y-56427000D01*
X142927000Y-56447000D01*
X142673000Y-56447000D01*
X142673000Y-56427000D01*
X142653000Y-56427000D01*
X142653000Y-56173000D01*
X142673000Y-56173000D01*
X142673000Y-56153000D01*
X142927000Y-56153000D01*
X142927000Y-56173000D01*
G04 #@! TD*
M02*
