M48
;DRILL file {KiCad 5.0.0-fee4fd1~66~ubuntu18.04.1} date Thu Sep 20 21:42:01 2018
;FORMAT={-:-/ absolute / metric / decimal}
FMAT,2
METRIC,TZ
T1C0.400
T2C0.762
T3C0.889
T4C1.000
T5C1.100
T6C1.320
T7C2.159
T8C3.250
%
G90
G05
M71
T1
X125.921Y-75.165
X127.831Y-72.756
X128.291Y-74.249
X129.581Y-74.596
X130.6Y-64.117
X132.1Y-61.272
X136.021Y-64.007
X137.153Y-64.643
X143.3Y-51.351
X143.305Y-48.64
X146.71Y-54.246
X147.548Y-52.275
X148.549Y-51.958
X149.574Y-51.923
X151.358Y-61.896
X158.975Y-83.513
X160.1Y-94.252
T2
X142.37Y-107.99
X144.91Y-107.99
X147.45Y-107.99
X149.99Y-107.99
X152.53Y-107.99
X155.07Y-107.99
X157.61Y-107.99
X160.15Y-107.99
X162.69Y-107.99
X165.23Y-107.99
T3
X98.04Y-51.51
X98.04Y-53.542
X98.04Y-55.574
X98.04Y-57.606
X99.818Y-50.494
X99.818Y-52.526
X99.818Y-54.558
X99.818Y-56.59
T4
X177.7Y-31.5
X180.24Y-31.5
X182.78Y-31.5
X185.32Y-31.5
X187.86Y-31.5
X190.4Y-31.5
X121.28Y-31.5
X121.28Y-34.04
X123.82Y-31.5
X123.82Y-34.04
X126.36Y-31.5
X126.36Y-34.04
X128.9Y-31.5
X128.9Y-34.04
T5
X114.7Y-63.1
X117.24Y-63.1
X119.78Y-63.1
T6
X95.5Y-113.5
X95.5Y-118.5
X182.4Y-85.
X182.4Y-90.
X182.4Y-95.
X182.4Y-100.
X96.Y-75.3
X96.Y-80.3
X95.9Y-131.3
X95.9Y-136.3
X181.7Y-54.3
X181.7Y-59.3
X181.7Y-64.3
X181.7Y-69.3
X182.4Y-125.3
X182.4Y-130.3
X182.4Y-135.3
X95.7Y-94.1
X95.7Y-99.1
T7
X142.37Y-142.28
X165.23Y-111.8
T8
X95.5Y-47.7
X95.5Y-60.4
T0
M30
