G04 #@! TF.GenerationSoftware,KiCad,Pcbnew,5.1.5+dfsg1-2build2*
G04 #@! TF.CreationDate,2020-05-20T12:57:59-04:00*
G04 #@! TF.ProjectId,BackPanel,4261636b-5061-46e6-956c-2e6b69636164,rev?*
G04 #@! TF.SameCoordinates,Original*
G04 #@! TF.FileFunction,Copper,L2,Bot*
G04 #@! TF.FilePolarity,Positive*
%FSLAX46Y46*%
G04 Gerber Fmt 4.6, Leading zero omitted, Abs format (unit mm)*
G04 Created by KiCad (PCBNEW 5.1.5+dfsg1-2build2) date 2020-05-20 12:57:59*
%MOMM*%
%LPD*%
G04 APERTURE LIST*
%ADD10C,2.413000*%
%ADD11C,1.524000*%
%ADD12C,3.250000*%
%ADD13C,1.270000*%
%ADD14C,5.300000*%
%ADD15R,3.960000X1.980000*%
%ADD16O,3.960000X1.980000*%
%ADD17R,1.905000X2.000000*%
%ADD18O,1.905000X2.000000*%
%ADD19R,1.700000X1.700000*%
%ADD20O,1.700000X1.700000*%
%ADD21R,1.980000X3.960000*%
%ADD22O,1.980000X3.960000*%
%ADD23C,0.800000*%
%ADD24C,0.250000*%
%ADD25C,0.254000*%
G04 APERTURE END LIST*
D10*
X142370000Y-142280000D03*
X165230000Y-111800000D03*
D11*
X142370000Y-107990000D03*
X144910000Y-107990000D03*
X147450000Y-107990000D03*
X149990000Y-107990000D03*
X152530000Y-107990000D03*
X155070000Y-107990000D03*
X157610000Y-107990000D03*
X160150000Y-107990000D03*
X162690000Y-107990000D03*
X165230000Y-107990000D03*
D12*
X95500000Y-47700000D03*
X95500000Y-60400000D03*
D13*
X99818000Y-50494000D03*
X98040000Y-51510000D03*
X99818000Y-52526000D03*
X98040000Y-53542000D03*
X99818000Y-54558000D03*
X98040000Y-55574000D03*
X99818000Y-56590000D03*
X98040000Y-57606000D03*
D14*
X186400000Y-147700000D03*
D15*
X181700000Y-69300000D03*
D16*
X181700000Y-64300000D03*
X181700000Y-54300000D03*
X181700000Y-59300000D03*
X182400000Y-90000000D03*
X182400000Y-85000000D03*
X182400000Y-95000000D03*
D15*
X182400000Y-100000000D03*
D16*
X95900000Y-136300000D03*
D15*
X95900000Y-131300000D03*
D14*
X109500000Y-147700000D03*
X195800000Y-42400000D03*
D17*
X114700000Y-63100000D03*
D18*
X117240000Y-63100000D03*
X119780000Y-63100000D03*
D14*
X97400000Y-35300000D03*
D19*
X128900000Y-31500000D03*
D20*
X128900000Y-34040000D03*
X126360000Y-31500000D03*
X126360000Y-34040000D03*
X123820000Y-31500000D03*
X123820000Y-34040000D03*
X121280000Y-31500000D03*
X121280000Y-34040000D03*
D15*
X95500000Y-113500000D03*
D16*
X95500000Y-118500000D03*
D19*
X163800000Y-59400000D03*
D20*
X163800000Y-56860000D03*
X163800000Y-54320000D03*
X163800000Y-51780000D03*
X163800000Y-49240000D03*
X163800000Y-46700000D03*
D15*
X95700000Y-94100000D03*
D16*
X95700000Y-99100000D03*
D15*
X182400000Y-135300000D03*
D16*
X182400000Y-130300000D03*
X182400000Y-125300000D03*
X96000000Y-80300000D03*
D15*
X96000000Y-75300000D03*
D21*
X184800000Y-34300000D03*
D22*
X179800000Y-34300000D03*
D23*
X147458100Y-43964600D03*
X162380600Y-90000000D03*
X160100000Y-89872800D03*
X151300000Y-47608900D03*
X154558700Y-53371300D03*
X139791900Y-53137900D03*
X139659300Y-54150600D03*
X115695000Y-98308500D03*
X151771100Y-62483500D03*
X151093800Y-61444600D03*
X128941700Y-82214100D03*
X128527500Y-80637000D03*
X151772400Y-60674600D03*
X132562900Y-77513100D03*
X148758500Y-54385300D03*
X129665200Y-83558000D03*
X148026600Y-53702400D03*
X131803700Y-75367100D03*
X147095000Y-54385300D03*
D24*
X181700000Y-69300000D02*
X179394700Y-69300000D01*
X163800000Y-59400000D02*
X169494700Y-59400000D01*
X169494700Y-59400000D02*
X179394700Y-69300000D01*
X142370000Y-107990000D02*
X143463400Y-109083400D01*
X143463400Y-109083400D02*
X146356600Y-109083400D01*
X146356600Y-109083400D02*
X147450000Y-107990000D01*
X99818000Y-50884700D02*
X98665300Y-50884700D01*
X98665300Y-50884700D02*
X98040000Y-51510000D01*
X117240000Y-63100000D02*
X115914600Y-64425400D01*
X115914600Y-64425400D02*
X113358700Y-64425400D01*
X113358700Y-64425400D02*
X99818000Y-50884700D01*
X99818000Y-50884700D02*
X99818000Y-50494000D01*
X126360000Y-34040000D02*
X127535300Y-34040000D01*
X127535300Y-34040000D02*
X127535300Y-34407300D01*
X127535300Y-34407300D02*
X137092600Y-43964600D01*
X137092600Y-43964600D02*
X147458100Y-43964600D01*
X99818000Y-56590000D02*
X99056000Y-56590000D01*
X99056000Y-56590000D02*
X98040000Y-57606000D01*
X182400000Y-90000000D02*
X162380600Y-90000000D01*
X182400000Y-85000000D02*
X164972800Y-85000000D01*
X164972800Y-85000000D02*
X160100000Y-89872800D01*
X128900000Y-31500000D02*
X136020500Y-31500000D01*
X136020500Y-31500000D02*
X151300000Y-46779500D01*
X151300000Y-46779500D02*
X151300000Y-47608900D01*
X154558700Y-53371300D02*
X152813600Y-51626200D01*
X152813600Y-51626200D02*
X142278800Y-51626200D01*
X142278800Y-51626200D02*
X124995300Y-34342700D01*
X124995300Y-34342700D02*
X124995300Y-33483200D01*
X124995300Y-33483200D02*
X124187400Y-32675300D01*
X124187400Y-32675300D02*
X123820000Y-32675300D01*
X123820000Y-31500000D02*
X123820000Y-32675300D01*
X169683400Y-53050000D02*
X161308600Y-53050000D01*
X161308600Y-53050000D02*
X160257100Y-54101500D01*
X160257100Y-54101500D02*
X150774300Y-54101500D01*
X150774300Y-54101500D02*
X148749300Y-52076500D01*
X148749300Y-52076500D02*
X125723500Y-52076500D01*
X125723500Y-52076500D02*
X114700000Y-63100000D01*
X182400000Y-95000000D02*
X166502800Y-95000000D01*
X166502800Y-95000000D02*
X153749300Y-107753500D01*
X153749300Y-107753500D02*
X153749300Y-108309500D01*
X153749300Y-108309500D02*
X152975600Y-109083200D01*
X152025500Y-109083200D02*
X151260000Y-108317700D01*
X151260000Y-108317700D02*
X151260000Y-107698500D01*
X151260000Y-107698500D02*
X150446900Y-106885400D01*
X150446900Y-106885400D02*
X146014600Y-106885400D01*
X146014600Y-106885400D02*
X144910000Y-107990000D01*
X181700000Y-64300000D02*
X179394700Y-64300000D01*
X169683400Y-53050000D02*
X169683400Y-43101300D01*
X169683400Y-43101300D02*
X178484700Y-34300000D01*
X179394700Y-64300000D02*
X179394700Y-62761300D01*
X179394700Y-62761300D02*
X169683400Y-53050000D01*
X179800000Y-34300000D02*
X178484700Y-34300000D01*
X152975600Y-109083200D02*
X152025500Y-109083200D01*
X182400000Y-133984700D02*
X184740800Y-131643900D01*
X184740800Y-131643900D02*
X184740800Y-84419800D01*
X184740800Y-84419800D02*
X155146900Y-54825900D01*
X155146900Y-54825900D02*
X150861800Y-54825900D01*
X150861800Y-54825900D02*
X148562700Y-52526800D01*
X148562700Y-52526800D02*
X140403000Y-52526800D01*
X140403000Y-52526800D02*
X139791900Y-53137900D01*
X182400000Y-135300000D02*
X182400000Y-133984700D01*
X152530000Y-107990000D02*
X152530000Y-57131000D01*
X152530000Y-57131000D02*
X148376100Y-52977100D01*
X148376100Y-52977100D02*
X141420000Y-52977100D01*
X141420000Y-52977100D02*
X140246500Y-54150600D01*
X140246500Y-54150600D02*
X139659300Y-54150600D01*
X115695000Y-98308500D02*
X115946100Y-98308500D01*
X115946100Y-98308500D02*
X151771100Y-62483500D01*
X128941700Y-82214100D02*
X130324300Y-82214100D01*
X130324300Y-82214100D02*
X151093800Y-61444600D01*
X128527500Y-80637000D02*
X130875700Y-80637000D01*
X130875700Y-80637000D02*
X150838100Y-60674600D01*
X150838100Y-60674600D02*
X151772400Y-60674600D01*
X148758500Y-54385300D02*
X148758500Y-61317500D01*
X148758500Y-61317500D02*
X132562900Y-77513100D01*
X148026600Y-53702400D02*
X148026600Y-60201300D01*
X148026600Y-60201300D02*
X128789900Y-79438000D01*
X128789900Y-79438000D02*
X128667700Y-79438000D01*
X128667700Y-79438000D02*
X127799100Y-80306600D01*
X127799100Y-80306600D02*
X127799100Y-82097200D01*
X127799100Y-82097200D02*
X129259900Y-83558000D01*
X129259900Y-83558000D02*
X129665200Y-83558000D01*
X131803700Y-75367100D02*
X147095000Y-60075800D01*
X147095000Y-60075800D02*
X147095000Y-54385300D01*
D25*
G36*
X200290001Y-151690000D02*
G01*
X89710000Y-151690000D01*
X89710000Y-147376456D01*
X106215000Y-147376456D01*
X106215000Y-148023544D01*
X106341240Y-148658199D01*
X106588871Y-149256031D01*
X106948374Y-149794066D01*
X107405934Y-150251626D01*
X107943969Y-150611129D01*
X108541801Y-150858760D01*
X109176456Y-150985000D01*
X109823544Y-150985000D01*
X110458199Y-150858760D01*
X111056031Y-150611129D01*
X111594066Y-150251626D01*
X112051626Y-149794066D01*
X112411129Y-149256031D01*
X112658760Y-148658199D01*
X112785000Y-148023544D01*
X112785000Y-147376456D01*
X183115000Y-147376456D01*
X183115000Y-148023544D01*
X183241240Y-148658199D01*
X183488871Y-149256031D01*
X183848374Y-149794066D01*
X184305934Y-150251626D01*
X184843969Y-150611129D01*
X185441801Y-150858760D01*
X186076456Y-150985000D01*
X186723544Y-150985000D01*
X187358199Y-150858760D01*
X187956031Y-150611129D01*
X188494066Y-150251626D01*
X188951626Y-149794066D01*
X189311129Y-149256031D01*
X189558760Y-148658199D01*
X189685000Y-148023544D01*
X189685000Y-147376456D01*
X189558760Y-146741801D01*
X189311129Y-146143969D01*
X188951626Y-145605934D01*
X188494066Y-145148374D01*
X187956031Y-144788871D01*
X187358199Y-144541240D01*
X186723544Y-144415000D01*
X186076456Y-144415000D01*
X185441801Y-144541240D01*
X184843969Y-144788871D01*
X184305934Y-145148374D01*
X183848374Y-145605934D01*
X183488871Y-146143969D01*
X183241240Y-146741801D01*
X183115000Y-147376456D01*
X112785000Y-147376456D01*
X112658760Y-146741801D01*
X112411129Y-146143969D01*
X112051626Y-145605934D01*
X111594066Y-145148374D01*
X111056031Y-144788871D01*
X110458199Y-144541240D01*
X109823544Y-144415000D01*
X109176456Y-144415000D01*
X108541801Y-144541240D01*
X107943969Y-144788871D01*
X107405934Y-145148374D01*
X106948374Y-145605934D01*
X106588871Y-146143969D01*
X106341240Y-146741801D01*
X106215000Y-147376456D01*
X89710000Y-147376456D01*
X89710000Y-142098628D01*
X140528500Y-142098628D01*
X140528500Y-142461372D01*
X140599268Y-142817146D01*
X140738084Y-143152277D01*
X140939614Y-143453888D01*
X141196112Y-143710386D01*
X141497723Y-143911916D01*
X141832854Y-144050732D01*
X142188628Y-144121500D01*
X142551372Y-144121500D01*
X142907146Y-144050732D01*
X143242277Y-143911916D01*
X143543888Y-143710386D01*
X143800386Y-143453888D01*
X144001916Y-143152277D01*
X144140732Y-142817146D01*
X144211500Y-142461372D01*
X144211500Y-142098628D01*
X144140732Y-141742854D01*
X144001916Y-141407723D01*
X143800386Y-141106112D01*
X143543888Y-140849614D01*
X143242277Y-140648084D01*
X142907146Y-140509268D01*
X142551372Y-140438500D01*
X142188628Y-140438500D01*
X141832854Y-140509268D01*
X141497723Y-140648084D01*
X141196112Y-140849614D01*
X140939614Y-141106112D01*
X140738084Y-141407723D01*
X140599268Y-141742854D01*
X140528500Y-142098628D01*
X89710000Y-142098628D01*
X89710000Y-136300000D01*
X93277138Y-136300000D01*
X93308513Y-136618556D01*
X93401432Y-136924869D01*
X93552325Y-137207170D01*
X93755392Y-137454608D01*
X94002830Y-137657675D01*
X94285131Y-137808568D01*
X94591444Y-137901487D01*
X94830176Y-137925000D01*
X96969824Y-137925000D01*
X97208556Y-137901487D01*
X97514869Y-137808568D01*
X97797170Y-137657675D01*
X98044608Y-137454608D01*
X98247675Y-137207170D01*
X98398568Y-136924869D01*
X98491487Y-136618556D01*
X98522862Y-136300000D01*
X98491487Y-135981444D01*
X98398568Y-135675131D01*
X98247675Y-135392830D01*
X98044608Y-135145392D01*
X97797170Y-134942325D01*
X97514869Y-134791432D01*
X97208556Y-134698513D01*
X96969824Y-134675000D01*
X94830176Y-134675000D01*
X94591444Y-134698513D01*
X94285131Y-134791432D01*
X94002830Y-134942325D01*
X93755392Y-135145392D01*
X93552325Y-135392830D01*
X93401432Y-135675131D01*
X93308513Y-135981444D01*
X93277138Y-136300000D01*
X89710000Y-136300000D01*
X89710000Y-130310000D01*
X93281928Y-130310000D01*
X93281928Y-132290000D01*
X93294188Y-132414482D01*
X93330498Y-132534180D01*
X93389463Y-132644494D01*
X93468815Y-132741185D01*
X93565506Y-132820537D01*
X93675820Y-132879502D01*
X93795518Y-132915812D01*
X93920000Y-132928072D01*
X97880000Y-132928072D01*
X98004482Y-132915812D01*
X98124180Y-132879502D01*
X98234494Y-132820537D01*
X98331185Y-132741185D01*
X98410537Y-132644494D01*
X98469502Y-132534180D01*
X98505812Y-132414482D01*
X98518072Y-132290000D01*
X98518072Y-130310000D01*
X98505812Y-130185518D01*
X98469502Y-130065820D01*
X98410537Y-129955506D01*
X98331185Y-129858815D01*
X98234494Y-129779463D01*
X98124180Y-129720498D01*
X98004482Y-129684188D01*
X97880000Y-129671928D01*
X93920000Y-129671928D01*
X93795518Y-129684188D01*
X93675820Y-129720498D01*
X93565506Y-129779463D01*
X93468815Y-129858815D01*
X93389463Y-129955506D01*
X93330498Y-130065820D01*
X93294188Y-130185518D01*
X93281928Y-130310000D01*
X89710000Y-130310000D01*
X89710000Y-125678865D01*
X179829782Y-125678865D01*
X179860095Y-125804528D01*
X179988304Y-126097205D01*
X180171148Y-126359246D01*
X180401601Y-126580581D01*
X180670806Y-126752704D01*
X180968418Y-126869000D01*
X181283000Y-126925000D01*
X182273000Y-126925000D01*
X182273000Y-125427000D01*
X179949260Y-125427000D01*
X179829782Y-125678865D01*
X89710000Y-125678865D01*
X89710000Y-124921135D01*
X179829782Y-124921135D01*
X179949260Y-125173000D01*
X182273000Y-125173000D01*
X182273000Y-123675000D01*
X181283000Y-123675000D01*
X180968418Y-123731000D01*
X180670806Y-123847296D01*
X180401601Y-124019419D01*
X180171148Y-124240754D01*
X179988304Y-124502795D01*
X179860095Y-124795472D01*
X179829782Y-124921135D01*
X89710000Y-124921135D01*
X89710000Y-118878865D01*
X92929782Y-118878865D01*
X92960095Y-119004528D01*
X93088304Y-119297205D01*
X93271148Y-119559246D01*
X93501601Y-119780581D01*
X93770806Y-119952704D01*
X94068418Y-120069000D01*
X94383000Y-120125000D01*
X95373000Y-120125000D01*
X95373000Y-118627000D01*
X95627000Y-118627000D01*
X95627000Y-120125000D01*
X96617000Y-120125000D01*
X96931582Y-120069000D01*
X97229194Y-119952704D01*
X97498399Y-119780581D01*
X97728852Y-119559246D01*
X97911696Y-119297205D01*
X98039905Y-119004528D01*
X98070218Y-118878865D01*
X97950740Y-118627000D01*
X95627000Y-118627000D01*
X95373000Y-118627000D01*
X93049260Y-118627000D01*
X92929782Y-118878865D01*
X89710000Y-118878865D01*
X89710000Y-118121135D01*
X92929782Y-118121135D01*
X93049260Y-118373000D01*
X95373000Y-118373000D01*
X95373000Y-116875000D01*
X95627000Y-116875000D01*
X95627000Y-118373000D01*
X97950740Y-118373000D01*
X98070218Y-118121135D01*
X98039905Y-117995472D01*
X97911696Y-117702795D01*
X97728852Y-117440754D01*
X97498399Y-117219419D01*
X97229194Y-117047296D01*
X96931582Y-116931000D01*
X96617000Y-116875000D01*
X95627000Y-116875000D01*
X95373000Y-116875000D01*
X94383000Y-116875000D01*
X94068418Y-116931000D01*
X93770806Y-117047296D01*
X93501601Y-117219419D01*
X93271148Y-117440754D01*
X93088304Y-117702795D01*
X92960095Y-117995472D01*
X92929782Y-118121135D01*
X89710000Y-118121135D01*
X89710000Y-114490000D01*
X92881928Y-114490000D01*
X92894188Y-114614482D01*
X92930498Y-114734180D01*
X92989463Y-114844494D01*
X93068815Y-114941185D01*
X93165506Y-115020537D01*
X93275820Y-115079502D01*
X93395518Y-115115812D01*
X93520000Y-115128072D01*
X95214250Y-115125000D01*
X95373000Y-114966250D01*
X95373000Y-113627000D01*
X95627000Y-113627000D01*
X95627000Y-114966250D01*
X95785750Y-115125000D01*
X97480000Y-115128072D01*
X97604482Y-115115812D01*
X97724180Y-115079502D01*
X97834494Y-115020537D01*
X97931185Y-114941185D01*
X98010537Y-114844494D01*
X98069502Y-114734180D01*
X98105812Y-114614482D01*
X98118072Y-114490000D01*
X98115000Y-113785750D01*
X97956250Y-113627000D01*
X95627000Y-113627000D01*
X95373000Y-113627000D01*
X93043750Y-113627000D01*
X92885000Y-113785750D01*
X92881928Y-114490000D01*
X89710000Y-114490000D01*
X89710000Y-112510000D01*
X92881928Y-112510000D01*
X92885000Y-113214250D01*
X93043750Y-113373000D01*
X95373000Y-113373000D01*
X95373000Y-112033750D01*
X95627000Y-112033750D01*
X95627000Y-113373000D01*
X97956250Y-113373000D01*
X98115000Y-113214250D01*
X98118072Y-112510000D01*
X98105812Y-112385518D01*
X98069502Y-112265820D01*
X98010537Y-112155506D01*
X97931185Y-112058815D01*
X97834494Y-111979463D01*
X97724180Y-111920498D01*
X97604482Y-111884188D01*
X97480000Y-111871928D01*
X95785750Y-111875000D01*
X95627000Y-112033750D01*
X95373000Y-112033750D01*
X95214250Y-111875000D01*
X93520000Y-111871928D01*
X93395518Y-111884188D01*
X93275820Y-111920498D01*
X93165506Y-111979463D01*
X93068815Y-112058815D01*
X92989463Y-112155506D01*
X92930498Y-112265820D01*
X92894188Y-112385518D01*
X92881928Y-112510000D01*
X89710000Y-112510000D01*
X89710000Y-111618628D01*
X163388500Y-111618628D01*
X163388500Y-111981372D01*
X163459268Y-112337146D01*
X163598084Y-112672277D01*
X163799614Y-112973888D01*
X164056112Y-113230386D01*
X164357723Y-113431916D01*
X164692854Y-113570732D01*
X165048628Y-113641500D01*
X165411372Y-113641500D01*
X165767146Y-113570732D01*
X166102277Y-113431916D01*
X166403888Y-113230386D01*
X166660386Y-112973888D01*
X166861916Y-112672277D01*
X167000732Y-112337146D01*
X167071500Y-111981372D01*
X167071500Y-111618628D01*
X167000732Y-111262854D01*
X166861916Y-110927723D01*
X166660386Y-110626112D01*
X166403888Y-110369614D01*
X166102277Y-110168084D01*
X165767146Y-110029268D01*
X165411372Y-109958500D01*
X165048628Y-109958500D01*
X164692854Y-110029268D01*
X164357723Y-110168084D01*
X164056112Y-110369614D01*
X163799614Y-110626112D01*
X163598084Y-110927723D01*
X163459268Y-111262854D01*
X163388500Y-111618628D01*
X89710000Y-111618628D01*
X89710000Y-108955565D01*
X141584040Y-108955565D01*
X141651020Y-109195656D01*
X141900048Y-109312756D01*
X142167135Y-109379023D01*
X142442017Y-109391910D01*
X142714133Y-109350922D01*
X142973023Y-109257636D01*
X143088980Y-109195656D01*
X143155960Y-108955565D01*
X142370000Y-108169605D01*
X141584040Y-108955565D01*
X89710000Y-108955565D01*
X89710000Y-108062017D01*
X140968090Y-108062017D01*
X141009078Y-108334133D01*
X141102364Y-108593023D01*
X141164344Y-108708980D01*
X141404435Y-108775960D01*
X142190395Y-107990000D01*
X141404435Y-107204040D01*
X141164344Y-107271020D01*
X141047244Y-107520048D01*
X140980977Y-107787135D01*
X140968090Y-108062017D01*
X89710000Y-108062017D01*
X89710000Y-107024435D01*
X141584040Y-107024435D01*
X142370000Y-107810395D01*
X143155960Y-107024435D01*
X143088980Y-106784344D01*
X142839952Y-106667244D01*
X142572865Y-106600977D01*
X142297983Y-106588090D01*
X142025867Y-106629078D01*
X141766977Y-106722364D01*
X141651020Y-106784344D01*
X141584040Y-107024435D01*
X89710000Y-107024435D01*
X89710000Y-99100000D01*
X93077138Y-99100000D01*
X93108513Y-99418556D01*
X93201432Y-99724869D01*
X93352325Y-100007170D01*
X93555392Y-100254608D01*
X93802830Y-100457675D01*
X94085131Y-100608568D01*
X94391444Y-100701487D01*
X94630176Y-100725000D01*
X96769824Y-100725000D01*
X97008556Y-100701487D01*
X97314869Y-100608568D01*
X97597170Y-100457675D01*
X97844608Y-100254608D01*
X98047675Y-100007170D01*
X98198568Y-99724869D01*
X98291487Y-99418556D01*
X98322862Y-99100000D01*
X98291487Y-98781444D01*
X98198568Y-98475131D01*
X98047675Y-98192830D01*
X97844608Y-97945392D01*
X97597170Y-97742325D01*
X97314869Y-97591432D01*
X97008556Y-97498513D01*
X96769824Y-97475000D01*
X94630176Y-97475000D01*
X94391444Y-97498513D01*
X94085131Y-97591432D01*
X93802830Y-97742325D01*
X93555392Y-97945392D01*
X93352325Y-98192830D01*
X93201432Y-98475131D01*
X93108513Y-98781444D01*
X93077138Y-99100000D01*
X89710000Y-99100000D01*
X89710000Y-93110000D01*
X93081928Y-93110000D01*
X93081928Y-95090000D01*
X93094188Y-95214482D01*
X93130498Y-95334180D01*
X93189463Y-95444494D01*
X93268815Y-95541185D01*
X93365506Y-95620537D01*
X93475820Y-95679502D01*
X93595518Y-95715812D01*
X93720000Y-95728072D01*
X97680000Y-95728072D01*
X97804482Y-95715812D01*
X97924180Y-95679502D01*
X98034494Y-95620537D01*
X98131185Y-95541185D01*
X98210537Y-95444494D01*
X98269502Y-95334180D01*
X98305812Y-95214482D01*
X98318072Y-95090000D01*
X98318072Y-93110000D01*
X98305812Y-92985518D01*
X98269502Y-92865820D01*
X98210537Y-92755506D01*
X98131185Y-92658815D01*
X98034494Y-92579463D01*
X97924180Y-92520498D01*
X97804482Y-92484188D01*
X97680000Y-92471928D01*
X93720000Y-92471928D01*
X93595518Y-92484188D01*
X93475820Y-92520498D01*
X93365506Y-92579463D01*
X93268815Y-92658815D01*
X93189463Y-92755506D01*
X93130498Y-92865820D01*
X93094188Y-92985518D01*
X93081928Y-93110000D01*
X89710000Y-93110000D01*
X89710000Y-80300000D01*
X93377138Y-80300000D01*
X93408513Y-80618556D01*
X93501432Y-80924869D01*
X93652325Y-81207170D01*
X93855392Y-81454608D01*
X94102830Y-81657675D01*
X94385131Y-81808568D01*
X94691444Y-81901487D01*
X94930176Y-81925000D01*
X97069824Y-81925000D01*
X97308556Y-81901487D01*
X97614869Y-81808568D01*
X97897170Y-81657675D01*
X98144608Y-81454608D01*
X98347675Y-81207170D01*
X98498568Y-80924869D01*
X98591487Y-80618556D01*
X98622862Y-80300000D01*
X98591487Y-79981444D01*
X98498568Y-79675131D01*
X98347675Y-79392830D01*
X98144608Y-79145392D01*
X97897170Y-78942325D01*
X97614869Y-78791432D01*
X97308556Y-78698513D01*
X97069824Y-78675000D01*
X94930176Y-78675000D01*
X94691444Y-78698513D01*
X94385131Y-78791432D01*
X94102830Y-78942325D01*
X93855392Y-79145392D01*
X93652325Y-79392830D01*
X93501432Y-79675131D01*
X93408513Y-79981444D01*
X93377138Y-80300000D01*
X89710000Y-80300000D01*
X89710000Y-74310000D01*
X93381928Y-74310000D01*
X93381928Y-76290000D01*
X93394188Y-76414482D01*
X93430498Y-76534180D01*
X93489463Y-76644494D01*
X93568815Y-76741185D01*
X93665506Y-76820537D01*
X93775820Y-76879502D01*
X93895518Y-76915812D01*
X94020000Y-76928072D01*
X97980000Y-76928072D01*
X98104482Y-76915812D01*
X98224180Y-76879502D01*
X98334494Y-76820537D01*
X98431185Y-76741185D01*
X98510537Y-76644494D01*
X98569502Y-76534180D01*
X98605812Y-76414482D01*
X98618072Y-76290000D01*
X98618072Y-74310000D01*
X98605812Y-74185518D01*
X98569502Y-74065820D01*
X98510537Y-73955506D01*
X98431185Y-73858815D01*
X98334494Y-73779463D01*
X98224180Y-73720498D01*
X98104482Y-73684188D01*
X97980000Y-73671928D01*
X94020000Y-73671928D01*
X93895518Y-73684188D01*
X93775820Y-73720498D01*
X93665506Y-73779463D01*
X93568815Y-73858815D01*
X93489463Y-73955506D01*
X93430498Y-74065820D01*
X93394188Y-74185518D01*
X93381928Y-74310000D01*
X89710000Y-74310000D01*
X89710000Y-60177409D01*
X93240000Y-60177409D01*
X93240000Y-60622591D01*
X93326851Y-61059218D01*
X93497214Y-61470511D01*
X93744544Y-61840666D01*
X94059334Y-62155456D01*
X94429489Y-62402786D01*
X94840782Y-62573149D01*
X95277409Y-62660000D01*
X95722591Y-62660000D01*
X96159218Y-62573149D01*
X96570511Y-62402786D01*
X96940666Y-62155456D01*
X96996122Y-62100000D01*
X113109428Y-62100000D01*
X113109428Y-64100000D01*
X113121688Y-64224482D01*
X113157998Y-64344180D01*
X113216963Y-64454494D01*
X113296315Y-64551185D01*
X113393006Y-64630537D01*
X113503320Y-64689502D01*
X113623018Y-64725812D01*
X113747500Y-64738072D01*
X115652500Y-64738072D01*
X115776982Y-64725812D01*
X115896680Y-64689502D01*
X116006994Y-64630537D01*
X116103685Y-64551185D01*
X116183037Y-64454494D01*
X116232059Y-64362781D01*
X116373077Y-64475969D01*
X116648906Y-64619571D01*
X116867020Y-64690563D01*
X117113000Y-64570594D01*
X117113000Y-63227000D01*
X117093000Y-63227000D01*
X117093000Y-62973000D01*
X117113000Y-62973000D01*
X117113000Y-62953000D01*
X117367000Y-62953000D01*
X117367000Y-62973000D01*
X117387000Y-62973000D01*
X117387000Y-63227000D01*
X117367000Y-63227000D01*
X117367000Y-64570594D01*
X117612980Y-64690563D01*
X117831094Y-64619571D01*
X118106923Y-64475969D01*
X118349437Y-64281315D01*
X118504837Y-64096101D01*
X118652037Y-64275463D01*
X118893766Y-64473845D01*
X119169552Y-64621255D01*
X119468797Y-64712030D01*
X119780000Y-64742681D01*
X120091204Y-64712030D01*
X120390449Y-64621255D01*
X120666235Y-64473845D01*
X120907963Y-64275463D01*
X121106345Y-64033734D01*
X121253755Y-63757948D01*
X121344530Y-63458703D01*
X121367500Y-63225485D01*
X121367500Y-62974514D01*
X121344530Y-62741296D01*
X121253755Y-62442051D01*
X121106345Y-62166265D01*
X120907963Y-61924537D01*
X120666234Y-61726155D01*
X120390448Y-61578745D01*
X120091203Y-61487970D01*
X119780000Y-61457319D01*
X119468796Y-61487970D01*
X119169551Y-61578745D01*
X118893765Y-61726155D01*
X118652037Y-61924537D01*
X118504838Y-62103900D01*
X118349437Y-61918685D01*
X118106923Y-61724031D01*
X117831094Y-61580429D01*
X117612980Y-61509437D01*
X117367002Y-61629405D01*
X117367002Y-61507799D01*
X126038302Y-52836500D01*
X138796575Y-52836500D01*
X138756900Y-53035961D01*
X138756900Y-53239839D01*
X138796674Y-53439798D01*
X138832181Y-53525520D01*
X138742095Y-53660344D01*
X138664074Y-53848702D01*
X138624300Y-54048661D01*
X138624300Y-54252539D01*
X138664074Y-54452498D01*
X138742095Y-54640856D01*
X138855363Y-54810374D01*
X138999526Y-54954537D01*
X139169044Y-55067805D01*
X139357402Y-55145826D01*
X139557361Y-55185600D01*
X139761239Y-55185600D01*
X139961198Y-55145826D01*
X140149556Y-55067805D01*
X140319074Y-54954537D01*
X140371661Y-54901950D01*
X140395486Y-54899603D01*
X140538747Y-54856146D01*
X140670776Y-54785574D01*
X140786501Y-54690601D01*
X140810304Y-54661597D01*
X141734802Y-53737100D01*
X146283330Y-53737100D01*
X146177795Y-53895044D01*
X146099774Y-54083402D01*
X146060000Y-54283361D01*
X146060000Y-54487239D01*
X146099774Y-54687198D01*
X146177795Y-54875556D01*
X146291063Y-55045074D01*
X146335001Y-55089012D01*
X146335000Y-59760998D01*
X131763899Y-74332100D01*
X131701761Y-74332100D01*
X131501802Y-74371874D01*
X131313444Y-74449895D01*
X131143926Y-74563163D01*
X130999763Y-74707326D01*
X130886495Y-74876844D01*
X130808474Y-75065202D01*
X130768700Y-75265161D01*
X130768700Y-75469039D01*
X130808474Y-75668998D01*
X130886495Y-75857356D01*
X130999763Y-76026874D01*
X131062994Y-76090105D01*
X128440323Y-78712776D01*
X128375453Y-78732454D01*
X128243423Y-78803026D01*
X128159783Y-78871668D01*
X128127699Y-78897999D01*
X128103901Y-78926997D01*
X127288102Y-79742797D01*
X127259099Y-79766599D01*
X127204554Y-79833063D01*
X127164126Y-79882324D01*
X127093555Y-80014353D01*
X127093554Y-80014354D01*
X127050097Y-80157615D01*
X127039100Y-80269268D01*
X127039100Y-80269278D01*
X127035424Y-80306600D01*
X127039100Y-80343923D01*
X127039101Y-82059868D01*
X127035424Y-82097200D01*
X127050098Y-82246185D01*
X127093554Y-82389446D01*
X127164126Y-82521476D01*
X127198019Y-82562774D01*
X127259100Y-82637201D01*
X127288098Y-82660999D01*
X128696101Y-84069003D01*
X128719899Y-84098001D01*
X128835624Y-84192974D01*
X128849730Y-84200514D01*
X128861263Y-84217774D01*
X128911644Y-84268155D01*
X115888155Y-97291644D01*
X115796939Y-97273500D01*
X115593061Y-97273500D01*
X115393102Y-97313274D01*
X115204744Y-97391295D01*
X115035226Y-97504563D01*
X114891063Y-97648726D01*
X114777795Y-97818244D01*
X114699774Y-98006602D01*
X114660000Y-98206561D01*
X114660000Y-98410439D01*
X114699774Y-98610398D01*
X114777795Y-98798756D01*
X114891063Y-98968274D01*
X115035226Y-99112437D01*
X115204744Y-99225705D01*
X115393102Y-99303726D01*
X115593061Y-99343500D01*
X115796939Y-99343500D01*
X115996898Y-99303726D01*
X116185256Y-99225705D01*
X116354774Y-99112437D01*
X116498937Y-98968274D01*
X116612205Y-98798756D01*
X116669877Y-98659524D01*
X151770001Y-63559401D01*
X151770000Y-106817659D01*
X151639465Y-106904880D01*
X151590323Y-106954022D01*
X151010703Y-106374402D01*
X150986901Y-106345399D01*
X150871176Y-106250426D01*
X150739147Y-106179854D01*
X150595886Y-106136397D01*
X150484233Y-106125400D01*
X150484222Y-106125400D01*
X150446900Y-106121724D01*
X150409578Y-106125400D01*
X146051922Y-106125400D01*
X146014599Y-106121724D01*
X145977276Y-106125400D01*
X145977267Y-106125400D01*
X145865614Y-106136397D01*
X145722353Y-106179854D01*
X145590324Y-106250426D01*
X145474599Y-106345399D01*
X145450801Y-106374397D01*
X145201570Y-106623628D01*
X145047592Y-106593000D01*
X144772408Y-106593000D01*
X144502510Y-106646686D01*
X144248273Y-106751995D01*
X144019465Y-106904880D01*
X143824880Y-107099465D01*
X143671995Y-107328273D01*
X143642308Y-107399943D01*
X143637636Y-107386977D01*
X143575656Y-107271020D01*
X143335565Y-107204040D01*
X142549605Y-107990000D01*
X143335565Y-108775960D01*
X143575656Y-108708980D01*
X143639485Y-108573240D01*
X143671995Y-108651727D01*
X143824880Y-108880535D01*
X144019465Y-109075120D01*
X144248273Y-109228005D01*
X144502510Y-109333314D01*
X144772408Y-109387000D01*
X145047592Y-109387000D01*
X145317490Y-109333314D01*
X145571727Y-109228005D01*
X145800535Y-109075120D01*
X145920090Y-108955565D01*
X146664040Y-108955565D01*
X146731020Y-109195656D01*
X146980048Y-109312756D01*
X147247135Y-109379023D01*
X147522017Y-109391910D01*
X147794133Y-109350922D01*
X148053023Y-109257636D01*
X148168980Y-109195656D01*
X148235960Y-108955565D01*
X147450000Y-108169605D01*
X146664040Y-108955565D01*
X145920090Y-108955565D01*
X145995120Y-108880535D01*
X146148005Y-108651727D01*
X146177692Y-108580057D01*
X146182364Y-108593023D01*
X146244344Y-108708980D01*
X146484435Y-108775960D01*
X147270395Y-107990000D01*
X147256253Y-107975858D01*
X147435858Y-107796253D01*
X147450000Y-107810395D01*
X147464143Y-107796253D01*
X147643748Y-107975858D01*
X147629605Y-107990000D01*
X148415565Y-108775960D01*
X148655656Y-108708980D01*
X148719485Y-108573240D01*
X148751995Y-108651727D01*
X148904880Y-108880535D01*
X149099465Y-109075120D01*
X149328273Y-109228005D01*
X149582510Y-109333314D01*
X149852408Y-109387000D01*
X150127592Y-109387000D01*
X150397490Y-109333314D01*
X150651727Y-109228005D01*
X150880535Y-109075120D01*
X150911577Y-109044078D01*
X151461705Y-109594208D01*
X151485499Y-109623201D01*
X151514492Y-109646995D01*
X151514496Y-109646999D01*
X151585185Y-109705011D01*
X151601224Y-109718174D01*
X151733253Y-109788746D01*
X151876514Y-109832203D01*
X151988167Y-109843200D01*
X151988176Y-109843200D01*
X152025499Y-109846876D01*
X152062822Y-109843200D01*
X152938278Y-109843200D01*
X152975600Y-109846876D01*
X153012922Y-109843200D01*
X153012933Y-109843200D01*
X153124586Y-109832203D01*
X153267847Y-109788746D01*
X153399876Y-109718174D01*
X153515601Y-109623201D01*
X153539403Y-109594198D01*
X154118973Y-109014628D01*
X154179465Y-109075120D01*
X154408273Y-109228005D01*
X154662510Y-109333314D01*
X154932408Y-109387000D01*
X155207592Y-109387000D01*
X155477490Y-109333314D01*
X155731727Y-109228005D01*
X155960535Y-109075120D01*
X156155120Y-108880535D01*
X156308005Y-108651727D01*
X156340000Y-108574485D01*
X156371995Y-108651727D01*
X156524880Y-108880535D01*
X156719465Y-109075120D01*
X156948273Y-109228005D01*
X157202510Y-109333314D01*
X157472408Y-109387000D01*
X157747592Y-109387000D01*
X158017490Y-109333314D01*
X158271727Y-109228005D01*
X158500535Y-109075120D01*
X158695120Y-108880535D01*
X158848005Y-108651727D01*
X158880000Y-108574485D01*
X158911995Y-108651727D01*
X159064880Y-108880535D01*
X159259465Y-109075120D01*
X159488273Y-109228005D01*
X159742510Y-109333314D01*
X160012408Y-109387000D01*
X160287592Y-109387000D01*
X160557490Y-109333314D01*
X160811727Y-109228005D01*
X161040535Y-109075120D01*
X161235120Y-108880535D01*
X161388005Y-108651727D01*
X161420000Y-108574485D01*
X161451995Y-108651727D01*
X161604880Y-108880535D01*
X161799465Y-109075120D01*
X162028273Y-109228005D01*
X162282510Y-109333314D01*
X162552408Y-109387000D01*
X162827592Y-109387000D01*
X163097490Y-109333314D01*
X163351727Y-109228005D01*
X163580535Y-109075120D01*
X163775120Y-108880535D01*
X163928005Y-108651727D01*
X163960000Y-108574485D01*
X163991995Y-108651727D01*
X164144880Y-108880535D01*
X164339465Y-109075120D01*
X164568273Y-109228005D01*
X164822510Y-109333314D01*
X165092408Y-109387000D01*
X165367592Y-109387000D01*
X165637490Y-109333314D01*
X165891727Y-109228005D01*
X166120535Y-109075120D01*
X166315120Y-108880535D01*
X166468005Y-108651727D01*
X166573314Y-108397490D01*
X166627000Y-108127592D01*
X166627000Y-107852408D01*
X166573314Y-107582510D01*
X166468005Y-107328273D01*
X166315120Y-107099465D01*
X166120535Y-106904880D01*
X165891727Y-106751995D01*
X165637490Y-106646686D01*
X165367592Y-106593000D01*
X165092408Y-106593000D01*
X164822510Y-106646686D01*
X164568273Y-106751995D01*
X164339465Y-106904880D01*
X164144880Y-107099465D01*
X163991995Y-107328273D01*
X163960000Y-107405515D01*
X163928005Y-107328273D01*
X163775120Y-107099465D01*
X163580535Y-106904880D01*
X163351727Y-106751995D01*
X163097490Y-106646686D01*
X162827592Y-106593000D01*
X162552408Y-106593000D01*
X162282510Y-106646686D01*
X162028273Y-106751995D01*
X161799465Y-106904880D01*
X161604880Y-107099465D01*
X161451995Y-107328273D01*
X161420000Y-107405515D01*
X161388005Y-107328273D01*
X161235120Y-107099465D01*
X161040535Y-106904880D01*
X160811727Y-106751995D01*
X160557490Y-106646686D01*
X160287592Y-106593000D01*
X160012408Y-106593000D01*
X159742510Y-106646686D01*
X159488273Y-106751995D01*
X159259465Y-106904880D01*
X159064880Y-107099465D01*
X158911995Y-107328273D01*
X158880000Y-107405515D01*
X158848005Y-107328273D01*
X158695120Y-107099465D01*
X158500535Y-106904880D01*
X158271727Y-106751995D01*
X158017490Y-106646686D01*
X157747592Y-106593000D01*
X157472408Y-106593000D01*
X157202510Y-106646686D01*
X156948273Y-106751995D01*
X156719465Y-106904880D01*
X156524880Y-107099465D01*
X156371995Y-107328273D01*
X156340000Y-107405515D01*
X156308005Y-107328273D01*
X156155120Y-107099465D01*
X155960535Y-106904880D01*
X155788003Y-106789598D01*
X161587601Y-100990000D01*
X179781928Y-100990000D01*
X179794188Y-101114482D01*
X179830498Y-101234180D01*
X179889463Y-101344494D01*
X179968815Y-101441185D01*
X180065506Y-101520537D01*
X180175820Y-101579502D01*
X180295518Y-101615812D01*
X180420000Y-101628072D01*
X182114250Y-101625000D01*
X182273000Y-101466250D01*
X182273000Y-100127000D01*
X179943750Y-100127000D01*
X179785000Y-100285750D01*
X179781928Y-100990000D01*
X161587601Y-100990000D01*
X163567601Y-99010000D01*
X179781928Y-99010000D01*
X179785000Y-99714250D01*
X179943750Y-99873000D01*
X182273000Y-99873000D01*
X182273000Y-98533750D01*
X182114250Y-98375000D01*
X180420000Y-98371928D01*
X180295518Y-98384188D01*
X180175820Y-98420498D01*
X180065506Y-98479463D01*
X179968815Y-98558815D01*
X179889463Y-98655506D01*
X179830498Y-98765820D01*
X179794188Y-98885518D01*
X179781928Y-99010000D01*
X163567601Y-99010000D01*
X166817602Y-95760000D01*
X179973661Y-95760000D01*
X180052325Y-95907170D01*
X180255392Y-96154608D01*
X180502830Y-96357675D01*
X180785131Y-96508568D01*
X181091444Y-96601487D01*
X181330176Y-96625000D01*
X183469824Y-96625000D01*
X183708556Y-96601487D01*
X183980801Y-96518902D01*
X183980801Y-98372652D01*
X182685750Y-98375000D01*
X182527000Y-98533750D01*
X182527000Y-99873000D01*
X182547000Y-99873000D01*
X182547000Y-100127000D01*
X182527000Y-100127000D01*
X182527000Y-101466250D01*
X182685750Y-101625000D01*
X183980801Y-101627348D01*
X183980800Y-123789309D01*
X183831582Y-123731000D01*
X183517000Y-123675000D01*
X182527000Y-123675000D01*
X182527000Y-125173000D01*
X182547000Y-125173000D01*
X182547000Y-125427000D01*
X182527000Y-125427000D01*
X182527000Y-126925000D01*
X183517000Y-126925000D01*
X183831582Y-126869000D01*
X183980800Y-126810691D01*
X183980800Y-128781097D01*
X183708556Y-128698513D01*
X183469824Y-128675000D01*
X181330176Y-128675000D01*
X181091444Y-128698513D01*
X180785131Y-128791432D01*
X180502830Y-128942325D01*
X180255392Y-129145392D01*
X180052325Y-129392830D01*
X179901432Y-129675131D01*
X179808513Y-129981444D01*
X179777138Y-130300000D01*
X179808513Y-130618556D01*
X179901432Y-130924869D01*
X180052325Y-131207170D01*
X180255392Y-131454608D01*
X180502830Y-131657675D01*
X180785131Y-131808568D01*
X181091444Y-131901487D01*
X181330176Y-131925000D01*
X183384898Y-131925000D01*
X181888998Y-133420901D01*
X181860000Y-133444699D01*
X181836202Y-133473697D01*
X181836201Y-133473698D01*
X181765026Y-133560424D01*
X181705425Y-133671928D01*
X180420000Y-133671928D01*
X180295518Y-133684188D01*
X180175820Y-133720498D01*
X180065506Y-133779463D01*
X179968815Y-133858815D01*
X179889463Y-133955506D01*
X179830498Y-134065820D01*
X179794188Y-134185518D01*
X179781928Y-134310000D01*
X179781928Y-136290000D01*
X179794188Y-136414482D01*
X179830498Y-136534180D01*
X179889463Y-136644494D01*
X179968815Y-136741185D01*
X180065506Y-136820537D01*
X180175820Y-136879502D01*
X180295518Y-136915812D01*
X180420000Y-136928072D01*
X184380000Y-136928072D01*
X184504482Y-136915812D01*
X184624180Y-136879502D01*
X184734494Y-136820537D01*
X184831185Y-136741185D01*
X184910537Y-136644494D01*
X184969502Y-136534180D01*
X185005812Y-136414482D01*
X185018072Y-136290000D01*
X185018072Y-134310000D01*
X185005812Y-134185518D01*
X184969502Y-134065820D01*
X184910537Y-133955506D01*
X184831185Y-133858815D01*
X184734494Y-133779463D01*
X184624180Y-133720498D01*
X184504482Y-133684188D01*
X184380000Y-133671928D01*
X183787573Y-133671928D01*
X185251804Y-132207698D01*
X185280801Y-132183901D01*
X185307132Y-132151817D01*
X185375774Y-132068177D01*
X185446346Y-131936147D01*
X185456860Y-131901487D01*
X185489803Y-131792886D01*
X185500800Y-131681233D01*
X185500800Y-131681224D01*
X185504476Y-131643901D01*
X185500800Y-131606578D01*
X185500800Y-84457125D01*
X185504476Y-84419800D01*
X185500800Y-84382475D01*
X185500800Y-84382467D01*
X185489803Y-84270814D01*
X185446346Y-84127553D01*
X185375774Y-83995524D01*
X185280801Y-83879799D01*
X185251803Y-83856001D01*
X171685802Y-70290000D01*
X179081928Y-70290000D01*
X179094188Y-70414482D01*
X179130498Y-70534180D01*
X179189463Y-70644494D01*
X179268815Y-70741185D01*
X179365506Y-70820537D01*
X179475820Y-70879502D01*
X179595518Y-70915812D01*
X179720000Y-70928072D01*
X181414250Y-70925000D01*
X181573000Y-70766250D01*
X181573000Y-69427000D01*
X181827000Y-69427000D01*
X181827000Y-70766250D01*
X181985750Y-70925000D01*
X183680000Y-70928072D01*
X183804482Y-70915812D01*
X183924180Y-70879502D01*
X184034494Y-70820537D01*
X184131185Y-70741185D01*
X184210537Y-70644494D01*
X184269502Y-70534180D01*
X184305812Y-70414482D01*
X184318072Y-70290000D01*
X184315000Y-69585750D01*
X184156250Y-69427000D01*
X181827000Y-69427000D01*
X181573000Y-69427000D01*
X179243750Y-69427000D01*
X179085000Y-69585750D01*
X179081928Y-70290000D01*
X171685802Y-70290000D01*
X169705802Y-68310000D01*
X179081928Y-68310000D01*
X179085000Y-69014250D01*
X179243750Y-69173000D01*
X181573000Y-69173000D01*
X181573000Y-67833750D01*
X181827000Y-67833750D01*
X181827000Y-69173000D01*
X184156250Y-69173000D01*
X184315000Y-69014250D01*
X184318072Y-68310000D01*
X184305812Y-68185518D01*
X184269502Y-68065820D01*
X184210537Y-67955506D01*
X184131185Y-67858815D01*
X184034494Y-67779463D01*
X183924180Y-67720498D01*
X183804482Y-67684188D01*
X183680000Y-67671928D01*
X181985750Y-67675000D01*
X181827000Y-67833750D01*
X181573000Y-67833750D01*
X181414250Y-67675000D01*
X179720000Y-67671928D01*
X179595518Y-67684188D01*
X179475820Y-67720498D01*
X179365506Y-67779463D01*
X179268815Y-67858815D01*
X179189463Y-67955506D01*
X179130498Y-68065820D01*
X179094188Y-68185518D01*
X179081928Y-68310000D01*
X169705802Y-68310000D01*
X161645802Y-60250000D01*
X162311928Y-60250000D01*
X162324188Y-60374482D01*
X162360498Y-60494180D01*
X162419463Y-60604494D01*
X162498815Y-60701185D01*
X162595506Y-60780537D01*
X162705820Y-60839502D01*
X162825518Y-60875812D01*
X162950000Y-60888072D01*
X163514250Y-60885000D01*
X163673000Y-60726250D01*
X163673000Y-59527000D01*
X163927000Y-59527000D01*
X163927000Y-60726250D01*
X164085750Y-60885000D01*
X164650000Y-60888072D01*
X164774482Y-60875812D01*
X164894180Y-60839502D01*
X165004494Y-60780537D01*
X165101185Y-60701185D01*
X165180537Y-60604494D01*
X165239502Y-60494180D01*
X165275812Y-60374482D01*
X165288072Y-60250000D01*
X165285000Y-59685750D01*
X165126250Y-59527000D01*
X163927000Y-59527000D01*
X163673000Y-59527000D01*
X162473750Y-59527000D01*
X162315000Y-59685750D01*
X162311928Y-60250000D01*
X161645802Y-60250000D01*
X156257301Y-54861500D01*
X160219778Y-54861500D01*
X160257100Y-54865176D01*
X160294422Y-54861500D01*
X160294433Y-54861500D01*
X160406086Y-54850503D01*
X160549347Y-54807046D01*
X160681376Y-54736474D01*
X160797101Y-54641501D01*
X160820904Y-54612498D01*
X161623402Y-53810000D01*
X162403897Y-53810000D01*
X162372068Y-53886842D01*
X162315000Y-54173740D01*
X162315000Y-54466260D01*
X162372068Y-54753158D01*
X162484010Y-55023411D01*
X162646525Y-55266632D01*
X162853368Y-55473475D01*
X163027760Y-55590000D01*
X162853368Y-55706525D01*
X162646525Y-55913368D01*
X162484010Y-56156589D01*
X162372068Y-56426842D01*
X162315000Y-56713740D01*
X162315000Y-57006260D01*
X162372068Y-57293158D01*
X162484010Y-57563411D01*
X162646525Y-57806632D01*
X162778380Y-57938487D01*
X162705820Y-57960498D01*
X162595506Y-58019463D01*
X162498815Y-58098815D01*
X162419463Y-58195506D01*
X162360498Y-58305820D01*
X162324188Y-58425518D01*
X162311928Y-58550000D01*
X162315000Y-59114250D01*
X162473750Y-59273000D01*
X163673000Y-59273000D01*
X163673000Y-59253000D01*
X163927000Y-59253000D01*
X163927000Y-59273000D01*
X165126250Y-59273000D01*
X165285000Y-59114250D01*
X165288072Y-58550000D01*
X165275812Y-58425518D01*
X165239502Y-58305820D01*
X165180537Y-58195506D01*
X165101185Y-58098815D01*
X165004494Y-58019463D01*
X164894180Y-57960498D01*
X164821620Y-57938487D01*
X164953475Y-57806632D01*
X165115990Y-57563411D01*
X165227932Y-57293158D01*
X165285000Y-57006260D01*
X165285000Y-56713740D01*
X165227932Y-56426842D01*
X165115990Y-56156589D01*
X164953475Y-55913368D01*
X164746632Y-55706525D01*
X164572240Y-55590000D01*
X164746632Y-55473475D01*
X164953475Y-55266632D01*
X165115990Y-55023411D01*
X165227932Y-54753158D01*
X165285000Y-54466260D01*
X165285000Y-54173740D01*
X165227932Y-53886842D01*
X165196103Y-53810000D01*
X169368599Y-53810000D01*
X178634701Y-63076103D01*
X178634700Y-64262667D01*
X178631023Y-64300000D01*
X178645697Y-64448986D01*
X178689154Y-64592247D01*
X178759726Y-64724276D01*
X178774831Y-64742681D01*
X178854699Y-64840001D01*
X178970424Y-64934974D01*
X179102453Y-65005546D01*
X179245714Y-65049003D01*
X179269009Y-65051297D01*
X179352325Y-65207170D01*
X179555392Y-65454608D01*
X179802830Y-65657675D01*
X180085131Y-65808568D01*
X180391444Y-65901487D01*
X180630176Y-65925000D01*
X182769824Y-65925000D01*
X183008556Y-65901487D01*
X183314869Y-65808568D01*
X183597170Y-65657675D01*
X183844608Y-65454608D01*
X184047675Y-65207170D01*
X184198568Y-64924869D01*
X184291487Y-64618556D01*
X184322862Y-64300000D01*
X184291487Y-63981444D01*
X184198568Y-63675131D01*
X184047675Y-63392830D01*
X183844608Y-63145392D01*
X183597170Y-62942325D01*
X183314869Y-62791432D01*
X183008556Y-62698513D01*
X182769824Y-62675000D01*
X180630176Y-62675000D01*
X180391444Y-62698513D01*
X180157572Y-62769457D01*
X180158376Y-62761299D01*
X180154700Y-62723976D01*
X180154700Y-62723967D01*
X180143703Y-62612314D01*
X180100246Y-62469053D01*
X180029674Y-62337024D01*
X179934701Y-62221299D01*
X179905703Y-62197501D01*
X177008202Y-59300000D01*
X179077138Y-59300000D01*
X179108513Y-59618556D01*
X179201432Y-59924869D01*
X179352325Y-60207170D01*
X179555392Y-60454608D01*
X179802830Y-60657675D01*
X180085131Y-60808568D01*
X180391444Y-60901487D01*
X180630176Y-60925000D01*
X182769824Y-60925000D01*
X183008556Y-60901487D01*
X183314869Y-60808568D01*
X183597170Y-60657675D01*
X183844608Y-60454608D01*
X184047675Y-60207170D01*
X184198568Y-59924869D01*
X184291487Y-59618556D01*
X184322862Y-59300000D01*
X184291487Y-58981444D01*
X184198568Y-58675131D01*
X184047675Y-58392830D01*
X183844608Y-58145392D01*
X183597170Y-57942325D01*
X183314869Y-57791432D01*
X183008556Y-57698513D01*
X182769824Y-57675000D01*
X180630176Y-57675000D01*
X180391444Y-57698513D01*
X180085131Y-57791432D01*
X179802830Y-57942325D01*
X179555392Y-58145392D01*
X179352325Y-58392830D01*
X179201432Y-58675131D01*
X179108513Y-58981444D01*
X179077138Y-59300000D01*
X177008202Y-59300000D01*
X172008202Y-54300000D01*
X179077138Y-54300000D01*
X179108513Y-54618556D01*
X179201432Y-54924869D01*
X179352325Y-55207170D01*
X179555392Y-55454608D01*
X179802830Y-55657675D01*
X180085131Y-55808568D01*
X180391444Y-55901487D01*
X180630176Y-55925000D01*
X182769824Y-55925000D01*
X183008556Y-55901487D01*
X183314869Y-55808568D01*
X183597170Y-55657675D01*
X183844608Y-55454608D01*
X184047675Y-55207170D01*
X184198568Y-54924869D01*
X184291487Y-54618556D01*
X184322862Y-54300000D01*
X184291487Y-53981444D01*
X184198568Y-53675131D01*
X184047675Y-53392830D01*
X183844608Y-53145392D01*
X183597170Y-52942325D01*
X183314869Y-52791432D01*
X183008556Y-52698513D01*
X182769824Y-52675000D01*
X180630176Y-52675000D01*
X180391444Y-52698513D01*
X180085131Y-52791432D01*
X179802830Y-52942325D01*
X179555392Y-53145392D01*
X179352325Y-53392830D01*
X179201432Y-53675131D01*
X179108513Y-53981444D01*
X179077138Y-54300000D01*
X172008202Y-54300000D01*
X170443400Y-52735199D01*
X170443400Y-43416101D01*
X171783045Y-42076456D01*
X192515000Y-42076456D01*
X192515000Y-42723544D01*
X192641240Y-43358199D01*
X192888871Y-43956031D01*
X193248374Y-44494066D01*
X193705934Y-44951626D01*
X194243969Y-45311129D01*
X194841801Y-45558760D01*
X195476456Y-45685000D01*
X196123544Y-45685000D01*
X196758199Y-45558760D01*
X197356031Y-45311129D01*
X197894066Y-44951626D01*
X198351626Y-44494066D01*
X198711129Y-43956031D01*
X198958760Y-43358199D01*
X199085000Y-42723544D01*
X199085000Y-42076456D01*
X198958760Y-41441801D01*
X198711129Y-40843969D01*
X198351626Y-40305934D01*
X197894066Y-39848374D01*
X197356031Y-39488871D01*
X196758199Y-39241240D01*
X196123544Y-39115000D01*
X195476456Y-39115000D01*
X194841801Y-39241240D01*
X194243969Y-39488871D01*
X193705934Y-39848374D01*
X193248374Y-40305934D01*
X192888871Y-40843969D01*
X192641240Y-41441801D01*
X192515000Y-42076456D01*
X171783045Y-42076456D01*
X178210717Y-35648785D01*
X178291432Y-35914868D01*
X178442325Y-36197169D01*
X178645392Y-36444608D01*
X178892830Y-36647675D01*
X179175131Y-36798568D01*
X179481444Y-36891487D01*
X179800000Y-36922862D01*
X180118555Y-36891487D01*
X180424868Y-36798568D01*
X180707169Y-36647675D01*
X180954608Y-36444608D01*
X181089698Y-36280000D01*
X183171928Y-36280000D01*
X183184188Y-36404482D01*
X183220498Y-36524180D01*
X183279463Y-36634494D01*
X183358815Y-36731185D01*
X183455506Y-36810537D01*
X183565820Y-36869502D01*
X183685518Y-36905812D01*
X183810000Y-36918072D01*
X184514250Y-36915000D01*
X184673000Y-36756250D01*
X184673000Y-34427000D01*
X184927000Y-34427000D01*
X184927000Y-36756250D01*
X185085750Y-36915000D01*
X185790000Y-36918072D01*
X185914482Y-36905812D01*
X186034180Y-36869502D01*
X186144494Y-36810537D01*
X186241185Y-36731185D01*
X186320537Y-36634494D01*
X186379502Y-36524180D01*
X186415812Y-36404482D01*
X186428072Y-36280000D01*
X186425000Y-34585750D01*
X186266250Y-34427000D01*
X184927000Y-34427000D01*
X184673000Y-34427000D01*
X183333750Y-34427000D01*
X183175000Y-34585750D01*
X183171928Y-36280000D01*
X181089698Y-36280000D01*
X181157675Y-36197170D01*
X181308568Y-35914869D01*
X181401487Y-35608556D01*
X181425000Y-35369824D01*
X181425000Y-33230176D01*
X181401487Y-32991444D01*
X181308568Y-32685131D01*
X181157675Y-32402830D01*
X181089699Y-32320000D01*
X183171928Y-32320000D01*
X183175000Y-34014250D01*
X183333750Y-34173000D01*
X184673000Y-34173000D01*
X184673000Y-31843750D01*
X184927000Y-31843750D01*
X184927000Y-34173000D01*
X186266250Y-34173000D01*
X186425000Y-34014250D01*
X186428072Y-32320000D01*
X186415812Y-32195518D01*
X186379502Y-32075820D01*
X186320537Y-31965506D01*
X186241185Y-31868815D01*
X186144494Y-31789463D01*
X186034180Y-31730498D01*
X185914482Y-31694188D01*
X185790000Y-31681928D01*
X185085750Y-31685000D01*
X184927000Y-31843750D01*
X184673000Y-31843750D01*
X184514250Y-31685000D01*
X183810000Y-31681928D01*
X183685518Y-31694188D01*
X183565820Y-31730498D01*
X183455506Y-31789463D01*
X183358815Y-31868815D01*
X183279463Y-31965506D01*
X183220498Y-32075820D01*
X183184188Y-32195518D01*
X183171928Y-32320000D01*
X181089699Y-32320000D01*
X180954608Y-32155392D01*
X180707170Y-31952325D01*
X180424869Y-31801432D01*
X180118556Y-31708513D01*
X179800000Y-31677138D01*
X179481445Y-31708513D01*
X179175132Y-31801432D01*
X178892831Y-31952325D01*
X178645393Y-32155392D01*
X178442326Y-32402830D01*
X178291433Y-32685131D01*
X178198514Y-32991444D01*
X178175001Y-33230176D01*
X178175001Y-33603783D01*
X178060424Y-33665026D01*
X177944699Y-33759999D01*
X177920901Y-33788997D01*
X169172398Y-42537501D01*
X169143400Y-42561299D01*
X169119602Y-42590297D01*
X169119601Y-42590298D01*
X169048426Y-42677024D01*
X168977854Y-42809054D01*
X168934398Y-42952315D01*
X168919724Y-43101300D01*
X168923401Y-43138632D01*
X168923400Y-52290000D01*
X165196103Y-52290000D01*
X165227932Y-52213158D01*
X165285000Y-51926260D01*
X165285000Y-51633740D01*
X165227932Y-51346842D01*
X165115990Y-51076589D01*
X164953475Y-50833368D01*
X164746632Y-50626525D01*
X164572240Y-50510000D01*
X164746632Y-50393475D01*
X164953475Y-50186632D01*
X165115990Y-49943411D01*
X165227932Y-49673158D01*
X165285000Y-49386260D01*
X165285000Y-49093740D01*
X165227932Y-48806842D01*
X165115990Y-48536589D01*
X164953475Y-48293368D01*
X164746632Y-48086525D01*
X164572240Y-47970000D01*
X164746632Y-47853475D01*
X164953475Y-47646632D01*
X165115990Y-47403411D01*
X165227932Y-47133158D01*
X165285000Y-46846260D01*
X165285000Y-46553740D01*
X165227932Y-46266842D01*
X165115990Y-45996589D01*
X164953475Y-45753368D01*
X164746632Y-45546525D01*
X164503411Y-45384010D01*
X164233158Y-45272068D01*
X163946260Y-45215000D01*
X163653740Y-45215000D01*
X163366842Y-45272068D01*
X163096589Y-45384010D01*
X162853368Y-45546525D01*
X162646525Y-45753368D01*
X162484010Y-45996589D01*
X162372068Y-46266842D01*
X162315000Y-46553740D01*
X162315000Y-46846260D01*
X162372068Y-47133158D01*
X162484010Y-47403411D01*
X162646525Y-47646632D01*
X162853368Y-47853475D01*
X163027760Y-47970000D01*
X162853368Y-48086525D01*
X162646525Y-48293368D01*
X162484010Y-48536589D01*
X162372068Y-48806842D01*
X162315000Y-49093740D01*
X162315000Y-49386260D01*
X162372068Y-49673158D01*
X162484010Y-49943411D01*
X162646525Y-50186632D01*
X162853368Y-50393475D01*
X163027760Y-50510000D01*
X162853368Y-50626525D01*
X162646525Y-50833368D01*
X162484010Y-51076589D01*
X162372068Y-51346842D01*
X162315000Y-51633740D01*
X162315000Y-51926260D01*
X162372068Y-52213158D01*
X162403897Y-52290000D01*
X161345933Y-52290000D01*
X161308600Y-52286323D01*
X161271267Y-52290000D01*
X161159614Y-52300997D01*
X161016353Y-52344454D01*
X160884324Y-52415026D01*
X160768599Y-52509999D01*
X160744801Y-52538997D01*
X159942299Y-53341500D01*
X155593700Y-53341500D01*
X155593700Y-53269361D01*
X155553926Y-53069402D01*
X155475905Y-52881044D01*
X155362637Y-52711526D01*
X155218474Y-52567363D01*
X155048956Y-52454095D01*
X154860598Y-52376074D01*
X154660639Y-52336300D01*
X154598502Y-52336300D01*
X153377404Y-51115203D01*
X153353601Y-51086199D01*
X153237876Y-50991226D01*
X153105847Y-50920654D01*
X152962586Y-50877197D01*
X152850933Y-50866200D01*
X152850922Y-50866200D01*
X152813600Y-50862524D01*
X152776278Y-50866200D01*
X142593602Y-50866200D01*
X127075388Y-35347987D01*
X127270690Y-35217491D01*
X136528801Y-44475603D01*
X136552599Y-44504601D01*
X136668324Y-44599574D01*
X136800353Y-44670146D01*
X136943614Y-44713603D01*
X137055267Y-44724600D01*
X137055276Y-44724600D01*
X137092599Y-44728276D01*
X137129922Y-44724600D01*
X146754389Y-44724600D01*
X146798326Y-44768537D01*
X146967844Y-44881805D01*
X147156202Y-44959826D01*
X147356161Y-44999600D01*
X147560039Y-44999600D01*
X147759998Y-44959826D01*
X147948356Y-44881805D01*
X148117874Y-44768537D01*
X148166055Y-44720356D01*
X150455512Y-47009814D01*
X150382795Y-47118644D01*
X150304774Y-47307002D01*
X150265000Y-47506961D01*
X150265000Y-47710839D01*
X150304774Y-47910798D01*
X150382795Y-48099156D01*
X150496063Y-48268674D01*
X150640226Y-48412837D01*
X150809744Y-48526105D01*
X150998102Y-48604126D01*
X151198061Y-48643900D01*
X151401939Y-48643900D01*
X151601898Y-48604126D01*
X151790256Y-48526105D01*
X151959774Y-48412837D01*
X152103937Y-48268674D01*
X152217205Y-48099156D01*
X152295226Y-47910798D01*
X152335000Y-47710839D01*
X152335000Y-47506961D01*
X152295226Y-47307002D01*
X152217205Y-47118644D01*
X152103937Y-46949126D01*
X152060000Y-46905189D01*
X152060000Y-46816822D01*
X152063676Y-46779499D01*
X152060000Y-46742176D01*
X152060000Y-46742167D01*
X152049003Y-46630514D01*
X152005546Y-46487253D01*
X151934975Y-46355225D01*
X151934974Y-46355223D01*
X151863799Y-46268497D01*
X151840001Y-46239499D01*
X151811004Y-46215702D01*
X136584304Y-30989003D01*
X136560501Y-30959999D01*
X136444776Y-30865026D01*
X136312747Y-30794454D01*
X136169486Y-30750997D01*
X136057833Y-30740000D01*
X136057822Y-30740000D01*
X136020500Y-30736324D01*
X135983178Y-30740000D01*
X130388072Y-30740000D01*
X130388072Y-30650000D01*
X130375812Y-30525518D01*
X130339502Y-30405820D01*
X130280537Y-30295506D01*
X130201185Y-30198815D01*
X130104494Y-30119463D01*
X129994180Y-30060498D01*
X129874482Y-30024188D01*
X129750000Y-30011928D01*
X128050000Y-30011928D01*
X127925518Y-30024188D01*
X127805820Y-30060498D01*
X127695506Y-30119463D01*
X127598815Y-30198815D01*
X127519463Y-30295506D01*
X127460498Y-30405820D01*
X127438487Y-30478380D01*
X127306632Y-30346525D01*
X127063411Y-30184010D01*
X126793158Y-30072068D01*
X126506260Y-30015000D01*
X126213740Y-30015000D01*
X125926842Y-30072068D01*
X125656589Y-30184010D01*
X125413368Y-30346525D01*
X125206525Y-30553368D01*
X125090000Y-30727760D01*
X124973475Y-30553368D01*
X124766632Y-30346525D01*
X124523411Y-30184010D01*
X124253158Y-30072068D01*
X123966260Y-30015000D01*
X123673740Y-30015000D01*
X123386842Y-30072068D01*
X123116589Y-30184010D01*
X122873368Y-30346525D01*
X122666525Y-30553368D01*
X122550000Y-30727760D01*
X122433475Y-30553368D01*
X122226632Y-30346525D01*
X121983411Y-30184010D01*
X121713158Y-30072068D01*
X121426260Y-30015000D01*
X121133740Y-30015000D01*
X120846842Y-30072068D01*
X120576589Y-30184010D01*
X120333368Y-30346525D01*
X120126525Y-30553368D01*
X119964010Y-30796589D01*
X119852068Y-31066842D01*
X119795000Y-31353740D01*
X119795000Y-31646260D01*
X119852068Y-31933158D01*
X119964010Y-32203411D01*
X120126525Y-32446632D01*
X120333368Y-32653475D01*
X120507760Y-32770000D01*
X120333368Y-32886525D01*
X120126525Y-33093368D01*
X119964010Y-33336589D01*
X119852068Y-33606842D01*
X119795000Y-33893740D01*
X119795000Y-34186260D01*
X119852068Y-34473158D01*
X119964010Y-34743411D01*
X120126525Y-34986632D01*
X120333368Y-35193475D01*
X120576589Y-35355990D01*
X120846842Y-35467932D01*
X121133740Y-35525000D01*
X121426260Y-35525000D01*
X121713158Y-35467932D01*
X121983411Y-35355990D01*
X122226632Y-35193475D01*
X122433475Y-34986632D01*
X122550000Y-34812240D01*
X122666525Y-34986632D01*
X122873368Y-35193475D01*
X123116589Y-35355990D01*
X123386842Y-35467932D01*
X123673740Y-35525000D01*
X123966260Y-35525000D01*
X124253158Y-35467932D01*
X124523411Y-35355990D01*
X124766632Y-35193475D01*
X124768953Y-35191154D01*
X140894298Y-51316500D01*
X125760822Y-51316500D01*
X125723499Y-51312824D01*
X125686176Y-51316500D01*
X125686167Y-51316500D01*
X125574514Y-51327497D01*
X125431253Y-51370954D01*
X125299224Y-51441526D01*
X125183499Y-51536499D01*
X125159701Y-51565497D01*
X115263271Y-61461928D01*
X113747500Y-61461928D01*
X113623018Y-61474188D01*
X113503320Y-61510498D01*
X113393006Y-61569463D01*
X113296315Y-61648815D01*
X113216963Y-61745506D01*
X113157998Y-61855820D01*
X113121688Y-61975518D01*
X113109428Y-62100000D01*
X96996122Y-62100000D01*
X97255456Y-61840666D01*
X97502786Y-61470511D01*
X97673149Y-61059218D01*
X97760000Y-60622591D01*
X97760000Y-60177409D01*
X97673149Y-59740782D01*
X97502786Y-59329489D01*
X97255456Y-58959334D01*
X96940666Y-58644544D01*
X96570511Y-58397214D01*
X96159218Y-58226851D01*
X95722591Y-58140000D01*
X95277409Y-58140000D01*
X94840782Y-58226851D01*
X94429489Y-58397214D01*
X94059334Y-58644544D01*
X93744544Y-58959334D01*
X93497214Y-59329489D01*
X93326851Y-59740782D01*
X93240000Y-60177409D01*
X89710000Y-60177409D01*
X89710000Y-53416916D01*
X96770000Y-53416916D01*
X96770000Y-53667084D01*
X96818805Y-53912445D01*
X96914541Y-54143571D01*
X97053527Y-54351578D01*
X97230422Y-54528473D01*
X97274612Y-54558000D01*
X97230422Y-54587527D01*
X97053527Y-54764422D01*
X96914541Y-54972429D01*
X96818805Y-55203555D01*
X96770000Y-55448916D01*
X96770000Y-55699084D01*
X96818805Y-55944445D01*
X96914541Y-56175571D01*
X97053527Y-56383578D01*
X97230422Y-56560473D01*
X97274612Y-56590000D01*
X97230422Y-56619527D01*
X97053527Y-56796422D01*
X96914541Y-57004429D01*
X96818805Y-57235555D01*
X96770000Y-57480916D01*
X96770000Y-57731084D01*
X96818805Y-57976445D01*
X96914541Y-58207571D01*
X97053527Y-58415578D01*
X97230422Y-58592473D01*
X97438429Y-58731459D01*
X97669555Y-58827195D01*
X97914916Y-58876000D01*
X98165084Y-58876000D01*
X98410445Y-58827195D01*
X98641571Y-58731459D01*
X98849578Y-58592473D01*
X99026473Y-58415578D01*
X99165459Y-58207571D01*
X99261195Y-57976445D01*
X99305749Y-57752457D01*
X99447555Y-57811195D01*
X99692916Y-57860000D01*
X99943084Y-57860000D01*
X100188445Y-57811195D01*
X100419571Y-57715459D01*
X100627578Y-57576473D01*
X100804473Y-57399578D01*
X100943459Y-57191571D01*
X101039195Y-56960445D01*
X101088000Y-56715084D01*
X101088000Y-56464916D01*
X101039195Y-56219555D01*
X100943459Y-55988429D01*
X100804473Y-55780422D01*
X100627578Y-55603527D01*
X100583388Y-55574000D01*
X100627578Y-55544473D01*
X100804473Y-55367578D01*
X100943459Y-55159571D01*
X101039195Y-54928445D01*
X101088000Y-54683084D01*
X101088000Y-54432916D01*
X101039195Y-54187555D01*
X100943459Y-53956429D01*
X100804473Y-53748422D01*
X100627578Y-53571527D01*
X100583388Y-53542000D01*
X100627578Y-53512473D01*
X100804473Y-53335578D01*
X100943459Y-53127571D01*
X101039195Y-52896445D01*
X101088000Y-52651084D01*
X101088000Y-52400916D01*
X101039195Y-52155555D01*
X100943459Y-51924429D01*
X100804473Y-51716422D01*
X100627578Y-51539527D01*
X100494608Y-51450679D01*
X100513195Y-51368800D01*
X99818000Y-50673605D01*
X99803858Y-50687748D01*
X99624253Y-50508143D01*
X99638395Y-50494000D01*
X99997605Y-50494000D01*
X100692800Y-51189195D01*
X100919946Y-51137631D01*
X101024339Y-50910284D01*
X101082373Y-50666941D01*
X101091818Y-50416951D01*
X101052310Y-50169922D01*
X100965369Y-49935347D01*
X100919946Y-49850369D01*
X100692800Y-49798805D01*
X99997605Y-50494000D01*
X99638395Y-50494000D01*
X98943200Y-49798805D01*
X98716054Y-49850369D01*
X98611661Y-50077716D01*
X98553627Y-50321059D01*
X98552613Y-50347893D01*
X98456284Y-50303661D01*
X98212941Y-50245627D01*
X97962951Y-50236182D01*
X97715922Y-50275690D01*
X97481347Y-50362631D01*
X97396369Y-50408054D01*
X97344805Y-50635200D01*
X98040000Y-51330395D01*
X98054143Y-51316253D01*
X98233748Y-51495858D01*
X98219605Y-51510000D01*
X98233748Y-51524143D01*
X98054143Y-51703748D01*
X98040000Y-51689605D01*
X97344805Y-52384800D01*
X97363392Y-52466679D01*
X97230422Y-52555527D01*
X97053527Y-52732422D01*
X96914541Y-52940429D01*
X96818805Y-53171555D01*
X96770000Y-53416916D01*
X89710000Y-53416916D01*
X89710000Y-51587049D01*
X96766182Y-51587049D01*
X96805690Y-51834078D01*
X96892631Y-52068653D01*
X96938054Y-52153631D01*
X97165200Y-52205195D01*
X97860395Y-51510000D01*
X97165200Y-50814805D01*
X96938054Y-50866369D01*
X96833661Y-51093716D01*
X96775627Y-51337059D01*
X96766182Y-51587049D01*
X89710000Y-51587049D01*
X89710000Y-47477409D01*
X93240000Y-47477409D01*
X93240000Y-47922591D01*
X93326851Y-48359218D01*
X93497214Y-48770511D01*
X93744544Y-49140666D01*
X94059334Y-49455456D01*
X94429489Y-49702786D01*
X94840782Y-49873149D01*
X95277409Y-49960000D01*
X95722591Y-49960000D01*
X96159218Y-49873149D01*
X96570511Y-49702786D01*
X96695606Y-49619200D01*
X99122805Y-49619200D01*
X99818000Y-50314395D01*
X100513195Y-49619200D01*
X100461631Y-49392054D01*
X100234284Y-49287661D01*
X99990941Y-49229627D01*
X99740951Y-49220182D01*
X99493922Y-49259690D01*
X99259347Y-49346631D01*
X99174369Y-49392054D01*
X99122805Y-49619200D01*
X96695606Y-49619200D01*
X96940666Y-49455456D01*
X97255456Y-49140666D01*
X97502786Y-48770511D01*
X97673149Y-48359218D01*
X97760000Y-47922591D01*
X97760000Y-47477409D01*
X97673149Y-47040782D01*
X97502786Y-46629489D01*
X97255456Y-46259334D01*
X96940666Y-45944544D01*
X96570511Y-45697214D01*
X96159218Y-45526851D01*
X95722591Y-45440000D01*
X95277409Y-45440000D01*
X94840782Y-45526851D01*
X94429489Y-45697214D01*
X94059334Y-45944544D01*
X93744544Y-46259334D01*
X93497214Y-46629489D01*
X93326851Y-47040782D01*
X93240000Y-47477409D01*
X89710000Y-47477409D01*
X89710000Y-34976456D01*
X94115000Y-34976456D01*
X94115000Y-35623544D01*
X94241240Y-36258199D01*
X94488871Y-36856031D01*
X94848374Y-37394066D01*
X95305934Y-37851626D01*
X95843969Y-38211129D01*
X96441801Y-38458760D01*
X97076456Y-38585000D01*
X97723544Y-38585000D01*
X98358199Y-38458760D01*
X98956031Y-38211129D01*
X99494066Y-37851626D01*
X99951626Y-37394066D01*
X100311129Y-36856031D01*
X100558760Y-36258199D01*
X100685000Y-35623544D01*
X100685000Y-34976456D01*
X100558760Y-34341801D01*
X100311129Y-33743969D01*
X99951626Y-33205934D01*
X99494066Y-32748374D01*
X98956031Y-32388871D01*
X98358199Y-32141240D01*
X97723544Y-32015000D01*
X97076456Y-32015000D01*
X96441801Y-32141240D01*
X95843969Y-32388871D01*
X95305934Y-32748374D01*
X94848374Y-33205934D01*
X94488871Y-33743969D01*
X94241240Y-34341801D01*
X94115000Y-34976456D01*
X89710000Y-34976456D01*
X89710000Y-28010000D01*
X200290000Y-28010000D01*
X200290001Y-151690000D01*
G37*
X200290001Y-151690000D02*
X89710000Y-151690000D01*
X89710000Y-147376456D01*
X106215000Y-147376456D01*
X106215000Y-148023544D01*
X106341240Y-148658199D01*
X106588871Y-149256031D01*
X106948374Y-149794066D01*
X107405934Y-150251626D01*
X107943969Y-150611129D01*
X108541801Y-150858760D01*
X109176456Y-150985000D01*
X109823544Y-150985000D01*
X110458199Y-150858760D01*
X111056031Y-150611129D01*
X111594066Y-150251626D01*
X112051626Y-149794066D01*
X112411129Y-149256031D01*
X112658760Y-148658199D01*
X112785000Y-148023544D01*
X112785000Y-147376456D01*
X183115000Y-147376456D01*
X183115000Y-148023544D01*
X183241240Y-148658199D01*
X183488871Y-149256031D01*
X183848374Y-149794066D01*
X184305934Y-150251626D01*
X184843969Y-150611129D01*
X185441801Y-150858760D01*
X186076456Y-150985000D01*
X186723544Y-150985000D01*
X187358199Y-150858760D01*
X187956031Y-150611129D01*
X188494066Y-150251626D01*
X188951626Y-149794066D01*
X189311129Y-149256031D01*
X189558760Y-148658199D01*
X189685000Y-148023544D01*
X189685000Y-147376456D01*
X189558760Y-146741801D01*
X189311129Y-146143969D01*
X188951626Y-145605934D01*
X188494066Y-145148374D01*
X187956031Y-144788871D01*
X187358199Y-144541240D01*
X186723544Y-144415000D01*
X186076456Y-144415000D01*
X185441801Y-144541240D01*
X184843969Y-144788871D01*
X184305934Y-145148374D01*
X183848374Y-145605934D01*
X183488871Y-146143969D01*
X183241240Y-146741801D01*
X183115000Y-147376456D01*
X112785000Y-147376456D01*
X112658760Y-146741801D01*
X112411129Y-146143969D01*
X112051626Y-145605934D01*
X111594066Y-145148374D01*
X111056031Y-144788871D01*
X110458199Y-144541240D01*
X109823544Y-144415000D01*
X109176456Y-144415000D01*
X108541801Y-144541240D01*
X107943969Y-144788871D01*
X107405934Y-145148374D01*
X106948374Y-145605934D01*
X106588871Y-146143969D01*
X106341240Y-146741801D01*
X106215000Y-147376456D01*
X89710000Y-147376456D01*
X89710000Y-142098628D01*
X140528500Y-142098628D01*
X140528500Y-142461372D01*
X140599268Y-142817146D01*
X140738084Y-143152277D01*
X140939614Y-143453888D01*
X141196112Y-143710386D01*
X141497723Y-143911916D01*
X141832854Y-144050732D01*
X142188628Y-144121500D01*
X142551372Y-144121500D01*
X142907146Y-144050732D01*
X143242277Y-143911916D01*
X143543888Y-143710386D01*
X143800386Y-143453888D01*
X144001916Y-143152277D01*
X144140732Y-142817146D01*
X144211500Y-142461372D01*
X144211500Y-142098628D01*
X144140732Y-141742854D01*
X144001916Y-141407723D01*
X143800386Y-141106112D01*
X143543888Y-140849614D01*
X143242277Y-140648084D01*
X142907146Y-140509268D01*
X142551372Y-140438500D01*
X142188628Y-140438500D01*
X141832854Y-140509268D01*
X141497723Y-140648084D01*
X141196112Y-140849614D01*
X140939614Y-141106112D01*
X140738084Y-141407723D01*
X140599268Y-141742854D01*
X140528500Y-142098628D01*
X89710000Y-142098628D01*
X89710000Y-136300000D01*
X93277138Y-136300000D01*
X93308513Y-136618556D01*
X93401432Y-136924869D01*
X93552325Y-137207170D01*
X93755392Y-137454608D01*
X94002830Y-137657675D01*
X94285131Y-137808568D01*
X94591444Y-137901487D01*
X94830176Y-137925000D01*
X96969824Y-137925000D01*
X97208556Y-137901487D01*
X97514869Y-137808568D01*
X97797170Y-137657675D01*
X98044608Y-137454608D01*
X98247675Y-137207170D01*
X98398568Y-136924869D01*
X98491487Y-136618556D01*
X98522862Y-136300000D01*
X98491487Y-135981444D01*
X98398568Y-135675131D01*
X98247675Y-135392830D01*
X98044608Y-135145392D01*
X97797170Y-134942325D01*
X97514869Y-134791432D01*
X97208556Y-134698513D01*
X96969824Y-134675000D01*
X94830176Y-134675000D01*
X94591444Y-134698513D01*
X94285131Y-134791432D01*
X94002830Y-134942325D01*
X93755392Y-135145392D01*
X93552325Y-135392830D01*
X93401432Y-135675131D01*
X93308513Y-135981444D01*
X93277138Y-136300000D01*
X89710000Y-136300000D01*
X89710000Y-130310000D01*
X93281928Y-130310000D01*
X93281928Y-132290000D01*
X93294188Y-132414482D01*
X93330498Y-132534180D01*
X93389463Y-132644494D01*
X93468815Y-132741185D01*
X93565506Y-132820537D01*
X93675820Y-132879502D01*
X93795518Y-132915812D01*
X93920000Y-132928072D01*
X97880000Y-132928072D01*
X98004482Y-132915812D01*
X98124180Y-132879502D01*
X98234494Y-132820537D01*
X98331185Y-132741185D01*
X98410537Y-132644494D01*
X98469502Y-132534180D01*
X98505812Y-132414482D01*
X98518072Y-132290000D01*
X98518072Y-130310000D01*
X98505812Y-130185518D01*
X98469502Y-130065820D01*
X98410537Y-129955506D01*
X98331185Y-129858815D01*
X98234494Y-129779463D01*
X98124180Y-129720498D01*
X98004482Y-129684188D01*
X97880000Y-129671928D01*
X93920000Y-129671928D01*
X93795518Y-129684188D01*
X93675820Y-129720498D01*
X93565506Y-129779463D01*
X93468815Y-129858815D01*
X93389463Y-129955506D01*
X93330498Y-130065820D01*
X93294188Y-130185518D01*
X93281928Y-130310000D01*
X89710000Y-130310000D01*
X89710000Y-125678865D01*
X179829782Y-125678865D01*
X179860095Y-125804528D01*
X179988304Y-126097205D01*
X180171148Y-126359246D01*
X180401601Y-126580581D01*
X180670806Y-126752704D01*
X180968418Y-126869000D01*
X181283000Y-126925000D01*
X182273000Y-126925000D01*
X182273000Y-125427000D01*
X179949260Y-125427000D01*
X179829782Y-125678865D01*
X89710000Y-125678865D01*
X89710000Y-124921135D01*
X179829782Y-124921135D01*
X179949260Y-125173000D01*
X182273000Y-125173000D01*
X182273000Y-123675000D01*
X181283000Y-123675000D01*
X180968418Y-123731000D01*
X180670806Y-123847296D01*
X180401601Y-124019419D01*
X180171148Y-124240754D01*
X179988304Y-124502795D01*
X179860095Y-124795472D01*
X179829782Y-124921135D01*
X89710000Y-124921135D01*
X89710000Y-118878865D01*
X92929782Y-118878865D01*
X92960095Y-119004528D01*
X93088304Y-119297205D01*
X93271148Y-119559246D01*
X93501601Y-119780581D01*
X93770806Y-119952704D01*
X94068418Y-120069000D01*
X94383000Y-120125000D01*
X95373000Y-120125000D01*
X95373000Y-118627000D01*
X95627000Y-118627000D01*
X95627000Y-120125000D01*
X96617000Y-120125000D01*
X96931582Y-120069000D01*
X97229194Y-119952704D01*
X97498399Y-119780581D01*
X97728852Y-119559246D01*
X97911696Y-119297205D01*
X98039905Y-119004528D01*
X98070218Y-118878865D01*
X97950740Y-118627000D01*
X95627000Y-118627000D01*
X95373000Y-118627000D01*
X93049260Y-118627000D01*
X92929782Y-118878865D01*
X89710000Y-118878865D01*
X89710000Y-118121135D01*
X92929782Y-118121135D01*
X93049260Y-118373000D01*
X95373000Y-118373000D01*
X95373000Y-116875000D01*
X95627000Y-116875000D01*
X95627000Y-118373000D01*
X97950740Y-118373000D01*
X98070218Y-118121135D01*
X98039905Y-117995472D01*
X97911696Y-117702795D01*
X97728852Y-117440754D01*
X97498399Y-117219419D01*
X97229194Y-117047296D01*
X96931582Y-116931000D01*
X96617000Y-116875000D01*
X95627000Y-116875000D01*
X95373000Y-116875000D01*
X94383000Y-116875000D01*
X94068418Y-116931000D01*
X93770806Y-117047296D01*
X93501601Y-117219419D01*
X93271148Y-117440754D01*
X93088304Y-117702795D01*
X92960095Y-117995472D01*
X92929782Y-118121135D01*
X89710000Y-118121135D01*
X89710000Y-114490000D01*
X92881928Y-114490000D01*
X92894188Y-114614482D01*
X92930498Y-114734180D01*
X92989463Y-114844494D01*
X93068815Y-114941185D01*
X93165506Y-115020537D01*
X93275820Y-115079502D01*
X93395518Y-115115812D01*
X93520000Y-115128072D01*
X95214250Y-115125000D01*
X95373000Y-114966250D01*
X95373000Y-113627000D01*
X95627000Y-113627000D01*
X95627000Y-114966250D01*
X95785750Y-115125000D01*
X97480000Y-115128072D01*
X97604482Y-115115812D01*
X97724180Y-115079502D01*
X97834494Y-115020537D01*
X97931185Y-114941185D01*
X98010537Y-114844494D01*
X98069502Y-114734180D01*
X98105812Y-114614482D01*
X98118072Y-114490000D01*
X98115000Y-113785750D01*
X97956250Y-113627000D01*
X95627000Y-113627000D01*
X95373000Y-113627000D01*
X93043750Y-113627000D01*
X92885000Y-113785750D01*
X92881928Y-114490000D01*
X89710000Y-114490000D01*
X89710000Y-112510000D01*
X92881928Y-112510000D01*
X92885000Y-113214250D01*
X93043750Y-113373000D01*
X95373000Y-113373000D01*
X95373000Y-112033750D01*
X95627000Y-112033750D01*
X95627000Y-113373000D01*
X97956250Y-113373000D01*
X98115000Y-113214250D01*
X98118072Y-112510000D01*
X98105812Y-112385518D01*
X98069502Y-112265820D01*
X98010537Y-112155506D01*
X97931185Y-112058815D01*
X97834494Y-111979463D01*
X97724180Y-111920498D01*
X97604482Y-111884188D01*
X97480000Y-111871928D01*
X95785750Y-111875000D01*
X95627000Y-112033750D01*
X95373000Y-112033750D01*
X95214250Y-111875000D01*
X93520000Y-111871928D01*
X93395518Y-111884188D01*
X93275820Y-111920498D01*
X93165506Y-111979463D01*
X93068815Y-112058815D01*
X92989463Y-112155506D01*
X92930498Y-112265820D01*
X92894188Y-112385518D01*
X92881928Y-112510000D01*
X89710000Y-112510000D01*
X89710000Y-111618628D01*
X163388500Y-111618628D01*
X163388500Y-111981372D01*
X163459268Y-112337146D01*
X163598084Y-112672277D01*
X163799614Y-112973888D01*
X164056112Y-113230386D01*
X164357723Y-113431916D01*
X164692854Y-113570732D01*
X165048628Y-113641500D01*
X165411372Y-113641500D01*
X165767146Y-113570732D01*
X166102277Y-113431916D01*
X166403888Y-113230386D01*
X166660386Y-112973888D01*
X166861916Y-112672277D01*
X167000732Y-112337146D01*
X167071500Y-111981372D01*
X167071500Y-111618628D01*
X167000732Y-111262854D01*
X166861916Y-110927723D01*
X166660386Y-110626112D01*
X166403888Y-110369614D01*
X166102277Y-110168084D01*
X165767146Y-110029268D01*
X165411372Y-109958500D01*
X165048628Y-109958500D01*
X164692854Y-110029268D01*
X164357723Y-110168084D01*
X164056112Y-110369614D01*
X163799614Y-110626112D01*
X163598084Y-110927723D01*
X163459268Y-111262854D01*
X163388500Y-111618628D01*
X89710000Y-111618628D01*
X89710000Y-108955565D01*
X141584040Y-108955565D01*
X141651020Y-109195656D01*
X141900048Y-109312756D01*
X142167135Y-109379023D01*
X142442017Y-109391910D01*
X142714133Y-109350922D01*
X142973023Y-109257636D01*
X143088980Y-109195656D01*
X143155960Y-108955565D01*
X142370000Y-108169605D01*
X141584040Y-108955565D01*
X89710000Y-108955565D01*
X89710000Y-108062017D01*
X140968090Y-108062017D01*
X141009078Y-108334133D01*
X141102364Y-108593023D01*
X141164344Y-108708980D01*
X141404435Y-108775960D01*
X142190395Y-107990000D01*
X141404435Y-107204040D01*
X141164344Y-107271020D01*
X141047244Y-107520048D01*
X140980977Y-107787135D01*
X140968090Y-108062017D01*
X89710000Y-108062017D01*
X89710000Y-107024435D01*
X141584040Y-107024435D01*
X142370000Y-107810395D01*
X143155960Y-107024435D01*
X143088980Y-106784344D01*
X142839952Y-106667244D01*
X142572865Y-106600977D01*
X142297983Y-106588090D01*
X142025867Y-106629078D01*
X141766977Y-106722364D01*
X141651020Y-106784344D01*
X141584040Y-107024435D01*
X89710000Y-107024435D01*
X89710000Y-99100000D01*
X93077138Y-99100000D01*
X93108513Y-99418556D01*
X93201432Y-99724869D01*
X93352325Y-100007170D01*
X93555392Y-100254608D01*
X93802830Y-100457675D01*
X94085131Y-100608568D01*
X94391444Y-100701487D01*
X94630176Y-100725000D01*
X96769824Y-100725000D01*
X97008556Y-100701487D01*
X97314869Y-100608568D01*
X97597170Y-100457675D01*
X97844608Y-100254608D01*
X98047675Y-100007170D01*
X98198568Y-99724869D01*
X98291487Y-99418556D01*
X98322862Y-99100000D01*
X98291487Y-98781444D01*
X98198568Y-98475131D01*
X98047675Y-98192830D01*
X97844608Y-97945392D01*
X97597170Y-97742325D01*
X97314869Y-97591432D01*
X97008556Y-97498513D01*
X96769824Y-97475000D01*
X94630176Y-97475000D01*
X94391444Y-97498513D01*
X94085131Y-97591432D01*
X93802830Y-97742325D01*
X93555392Y-97945392D01*
X93352325Y-98192830D01*
X93201432Y-98475131D01*
X93108513Y-98781444D01*
X93077138Y-99100000D01*
X89710000Y-99100000D01*
X89710000Y-93110000D01*
X93081928Y-93110000D01*
X93081928Y-95090000D01*
X93094188Y-95214482D01*
X93130498Y-95334180D01*
X93189463Y-95444494D01*
X93268815Y-95541185D01*
X93365506Y-95620537D01*
X93475820Y-95679502D01*
X93595518Y-95715812D01*
X93720000Y-95728072D01*
X97680000Y-95728072D01*
X97804482Y-95715812D01*
X97924180Y-95679502D01*
X98034494Y-95620537D01*
X98131185Y-95541185D01*
X98210537Y-95444494D01*
X98269502Y-95334180D01*
X98305812Y-95214482D01*
X98318072Y-95090000D01*
X98318072Y-93110000D01*
X98305812Y-92985518D01*
X98269502Y-92865820D01*
X98210537Y-92755506D01*
X98131185Y-92658815D01*
X98034494Y-92579463D01*
X97924180Y-92520498D01*
X97804482Y-92484188D01*
X97680000Y-92471928D01*
X93720000Y-92471928D01*
X93595518Y-92484188D01*
X93475820Y-92520498D01*
X93365506Y-92579463D01*
X93268815Y-92658815D01*
X93189463Y-92755506D01*
X93130498Y-92865820D01*
X93094188Y-92985518D01*
X93081928Y-93110000D01*
X89710000Y-93110000D01*
X89710000Y-80300000D01*
X93377138Y-80300000D01*
X93408513Y-80618556D01*
X93501432Y-80924869D01*
X93652325Y-81207170D01*
X93855392Y-81454608D01*
X94102830Y-81657675D01*
X94385131Y-81808568D01*
X94691444Y-81901487D01*
X94930176Y-81925000D01*
X97069824Y-81925000D01*
X97308556Y-81901487D01*
X97614869Y-81808568D01*
X97897170Y-81657675D01*
X98144608Y-81454608D01*
X98347675Y-81207170D01*
X98498568Y-80924869D01*
X98591487Y-80618556D01*
X98622862Y-80300000D01*
X98591487Y-79981444D01*
X98498568Y-79675131D01*
X98347675Y-79392830D01*
X98144608Y-79145392D01*
X97897170Y-78942325D01*
X97614869Y-78791432D01*
X97308556Y-78698513D01*
X97069824Y-78675000D01*
X94930176Y-78675000D01*
X94691444Y-78698513D01*
X94385131Y-78791432D01*
X94102830Y-78942325D01*
X93855392Y-79145392D01*
X93652325Y-79392830D01*
X93501432Y-79675131D01*
X93408513Y-79981444D01*
X93377138Y-80300000D01*
X89710000Y-80300000D01*
X89710000Y-74310000D01*
X93381928Y-74310000D01*
X93381928Y-76290000D01*
X93394188Y-76414482D01*
X93430498Y-76534180D01*
X93489463Y-76644494D01*
X93568815Y-76741185D01*
X93665506Y-76820537D01*
X93775820Y-76879502D01*
X93895518Y-76915812D01*
X94020000Y-76928072D01*
X97980000Y-76928072D01*
X98104482Y-76915812D01*
X98224180Y-76879502D01*
X98334494Y-76820537D01*
X98431185Y-76741185D01*
X98510537Y-76644494D01*
X98569502Y-76534180D01*
X98605812Y-76414482D01*
X98618072Y-76290000D01*
X98618072Y-74310000D01*
X98605812Y-74185518D01*
X98569502Y-74065820D01*
X98510537Y-73955506D01*
X98431185Y-73858815D01*
X98334494Y-73779463D01*
X98224180Y-73720498D01*
X98104482Y-73684188D01*
X97980000Y-73671928D01*
X94020000Y-73671928D01*
X93895518Y-73684188D01*
X93775820Y-73720498D01*
X93665506Y-73779463D01*
X93568815Y-73858815D01*
X93489463Y-73955506D01*
X93430498Y-74065820D01*
X93394188Y-74185518D01*
X93381928Y-74310000D01*
X89710000Y-74310000D01*
X89710000Y-60177409D01*
X93240000Y-60177409D01*
X93240000Y-60622591D01*
X93326851Y-61059218D01*
X93497214Y-61470511D01*
X93744544Y-61840666D01*
X94059334Y-62155456D01*
X94429489Y-62402786D01*
X94840782Y-62573149D01*
X95277409Y-62660000D01*
X95722591Y-62660000D01*
X96159218Y-62573149D01*
X96570511Y-62402786D01*
X96940666Y-62155456D01*
X96996122Y-62100000D01*
X113109428Y-62100000D01*
X113109428Y-64100000D01*
X113121688Y-64224482D01*
X113157998Y-64344180D01*
X113216963Y-64454494D01*
X113296315Y-64551185D01*
X113393006Y-64630537D01*
X113503320Y-64689502D01*
X113623018Y-64725812D01*
X113747500Y-64738072D01*
X115652500Y-64738072D01*
X115776982Y-64725812D01*
X115896680Y-64689502D01*
X116006994Y-64630537D01*
X116103685Y-64551185D01*
X116183037Y-64454494D01*
X116232059Y-64362781D01*
X116373077Y-64475969D01*
X116648906Y-64619571D01*
X116867020Y-64690563D01*
X117113000Y-64570594D01*
X117113000Y-63227000D01*
X117093000Y-63227000D01*
X117093000Y-62973000D01*
X117113000Y-62973000D01*
X117113000Y-62953000D01*
X117367000Y-62953000D01*
X117367000Y-62973000D01*
X117387000Y-62973000D01*
X117387000Y-63227000D01*
X117367000Y-63227000D01*
X117367000Y-64570594D01*
X117612980Y-64690563D01*
X117831094Y-64619571D01*
X118106923Y-64475969D01*
X118349437Y-64281315D01*
X118504837Y-64096101D01*
X118652037Y-64275463D01*
X118893766Y-64473845D01*
X119169552Y-64621255D01*
X119468797Y-64712030D01*
X119780000Y-64742681D01*
X120091204Y-64712030D01*
X120390449Y-64621255D01*
X120666235Y-64473845D01*
X120907963Y-64275463D01*
X121106345Y-64033734D01*
X121253755Y-63757948D01*
X121344530Y-63458703D01*
X121367500Y-63225485D01*
X121367500Y-62974514D01*
X121344530Y-62741296D01*
X121253755Y-62442051D01*
X121106345Y-62166265D01*
X120907963Y-61924537D01*
X120666234Y-61726155D01*
X120390448Y-61578745D01*
X120091203Y-61487970D01*
X119780000Y-61457319D01*
X119468796Y-61487970D01*
X119169551Y-61578745D01*
X118893765Y-61726155D01*
X118652037Y-61924537D01*
X118504838Y-62103900D01*
X118349437Y-61918685D01*
X118106923Y-61724031D01*
X117831094Y-61580429D01*
X117612980Y-61509437D01*
X117367002Y-61629405D01*
X117367002Y-61507799D01*
X126038302Y-52836500D01*
X138796575Y-52836500D01*
X138756900Y-53035961D01*
X138756900Y-53239839D01*
X138796674Y-53439798D01*
X138832181Y-53525520D01*
X138742095Y-53660344D01*
X138664074Y-53848702D01*
X138624300Y-54048661D01*
X138624300Y-54252539D01*
X138664074Y-54452498D01*
X138742095Y-54640856D01*
X138855363Y-54810374D01*
X138999526Y-54954537D01*
X139169044Y-55067805D01*
X139357402Y-55145826D01*
X139557361Y-55185600D01*
X139761239Y-55185600D01*
X139961198Y-55145826D01*
X140149556Y-55067805D01*
X140319074Y-54954537D01*
X140371661Y-54901950D01*
X140395486Y-54899603D01*
X140538747Y-54856146D01*
X140670776Y-54785574D01*
X140786501Y-54690601D01*
X140810304Y-54661597D01*
X141734802Y-53737100D01*
X146283330Y-53737100D01*
X146177795Y-53895044D01*
X146099774Y-54083402D01*
X146060000Y-54283361D01*
X146060000Y-54487239D01*
X146099774Y-54687198D01*
X146177795Y-54875556D01*
X146291063Y-55045074D01*
X146335001Y-55089012D01*
X146335000Y-59760998D01*
X131763899Y-74332100D01*
X131701761Y-74332100D01*
X131501802Y-74371874D01*
X131313444Y-74449895D01*
X131143926Y-74563163D01*
X130999763Y-74707326D01*
X130886495Y-74876844D01*
X130808474Y-75065202D01*
X130768700Y-75265161D01*
X130768700Y-75469039D01*
X130808474Y-75668998D01*
X130886495Y-75857356D01*
X130999763Y-76026874D01*
X131062994Y-76090105D01*
X128440323Y-78712776D01*
X128375453Y-78732454D01*
X128243423Y-78803026D01*
X128159783Y-78871668D01*
X128127699Y-78897999D01*
X128103901Y-78926997D01*
X127288102Y-79742797D01*
X127259099Y-79766599D01*
X127204554Y-79833063D01*
X127164126Y-79882324D01*
X127093555Y-80014353D01*
X127093554Y-80014354D01*
X127050097Y-80157615D01*
X127039100Y-80269268D01*
X127039100Y-80269278D01*
X127035424Y-80306600D01*
X127039100Y-80343923D01*
X127039101Y-82059868D01*
X127035424Y-82097200D01*
X127050098Y-82246185D01*
X127093554Y-82389446D01*
X127164126Y-82521476D01*
X127198019Y-82562774D01*
X127259100Y-82637201D01*
X127288098Y-82660999D01*
X128696101Y-84069003D01*
X128719899Y-84098001D01*
X128835624Y-84192974D01*
X128849730Y-84200514D01*
X128861263Y-84217774D01*
X128911644Y-84268155D01*
X115888155Y-97291644D01*
X115796939Y-97273500D01*
X115593061Y-97273500D01*
X115393102Y-97313274D01*
X115204744Y-97391295D01*
X115035226Y-97504563D01*
X114891063Y-97648726D01*
X114777795Y-97818244D01*
X114699774Y-98006602D01*
X114660000Y-98206561D01*
X114660000Y-98410439D01*
X114699774Y-98610398D01*
X114777795Y-98798756D01*
X114891063Y-98968274D01*
X115035226Y-99112437D01*
X115204744Y-99225705D01*
X115393102Y-99303726D01*
X115593061Y-99343500D01*
X115796939Y-99343500D01*
X115996898Y-99303726D01*
X116185256Y-99225705D01*
X116354774Y-99112437D01*
X116498937Y-98968274D01*
X116612205Y-98798756D01*
X116669877Y-98659524D01*
X151770001Y-63559401D01*
X151770000Y-106817659D01*
X151639465Y-106904880D01*
X151590323Y-106954022D01*
X151010703Y-106374402D01*
X150986901Y-106345399D01*
X150871176Y-106250426D01*
X150739147Y-106179854D01*
X150595886Y-106136397D01*
X150484233Y-106125400D01*
X150484222Y-106125400D01*
X150446900Y-106121724D01*
X150409578Y-106125400D01*
X146051922Y-106125400D01*
X146014599Y-106121724D01*
X145977276Y-106125400D01*
X145977267Y-106125400D01*
X145865614Y-106136397D01*
X145722353Y-106179854D01*
X145590324Y-106250426D01*
X145474599Y-106345399D01*
X145450801Y-106374397D01*
X145201570Y-106623628D01*
X145047592Y-106593000D01*
X144772408Y-106593000D01*
X144502510Y-106646686D01*
X144248273Y-106751995D01*
X144019465Y-106904880D01*
X143824880Y-107099465D01*
X143671995Y-107328273D01*
X143642308Y-107399943D01*
X143637636Y-107386977D01*
X143575656Y-107271020D01*
X143335565Y-107204040D01*
X142549605Y-107990000D01*
X143335565Y-108775960D01*
X143575656Y-108708980D01*
X143639485Y-108573240D01*
X143671995Y-108651727D01*
X143824880Y-108880535D01*
X144019465Y-109075120D01*
X144248273Y-109228005D01*
X144502510Y-109333314D01*
X144772408Y-109387000D01*
X145047592Y-109387000D01*
X145317490Y-109333314D01*
X145571727Y-109228005D01*
X145800535Y-109075120D01*
X145920090Y-108955565D01*
X146664040Y-108955565D01*
X146731020Y-109195656D01*
X146980048Y-109312756D01*
X147247135Y-109379023D01*
X147522017Y-109391910D01*
X147794133Y-109350922D01*
X148053023Y-109257636D01*
X148168980Y-109195656D01*
X148235960Y-108955565D01*
X147450000Y-108169605D01*
X146664040Y-108955565D01*
X145920090Y-108955565D01*
X145995120Y-108880535D01*
X146148005Y-108651727D01*
X146177692Y-108580057D01*
X146182364Y-108593023D01*
X146244344Y-108708980D01*
X146484435Y-108775960D01*
X147270395Y-107990000D01*
X147256253Y-107975858D01*
X147435858Y-107796253D01*
X147450000Y-107810395D01*
X147464143Y-107796253D01*
X147643748Y-107975858D01*
X147629605Y-107990000D01*
X148415565Y-108775960D01*
X148655656Y-108708980D01*
X148719485Y-108573240D01*
X148751995Y-108651727D01*
X148904880Y-108880535D01*
X149099465Y-109075120D01*
X149328273Y-109228005D01*
X149582510Y-109333314D01*
X149852408Y-109387000D01*
X150127592Y-109387000D01*
X150397490Y-109333314D01*
X150651727Y-109228005D01*
X150880535Y-109075120D01*
X150911577Y-109044078D01*
X151461705Y-109594208D01*
X151485499Y-109623201D01*
X151514492Y-109646995D01*
X151514496Y-109646999D01*
X151585185Y-109705011D01*
X151601224Y-109718174D01*
X151733253Y-109788746D01*
X151876514Y-109832203D01*
X151988167Y-109843200D01*
X151988176Y-109843200D01*
X152025499Y-109846876D01*
X152062822Y-109843200D01*
X152938278Y-109843200D01*
X152975600Y-109846876D01*
X153012922Y-109843200D01*
X153012933Y-109843200D01*
X153124586Y-109832203D01*
X153267847Y-109788746D01*
X153399876Y-109718174D01*
X153515601Y-109623201D01*
X153539403Y-109594198D01*
X154118973Y-109014628D01*
X154179465Y-109075120D01*
X154408273Y-109228005D01*
X154662510Y-109333314D01*
X154932408Y-109387000D01*
X155207592Y-109387000D01*
X155477490Y-109333314D01*
X155731727Y-109228005D01*
X155960535Y-109075120D01*
X156155120Y-108880535D01*
X156308005Y-108651727D01*
X156340000Y-108574485D01*
X156371995Y-108651727D01*
X156524880Y-108880535D01*
X156719465Y-109075120D01*
X156948273Y-109228005D01*
X157202510Y-109333314D01*
X157472408Y-109387000D01*
X157747592Y-109387000D01*
X158017490Y-109333314D01*
X158271727Y-109228005D01*
X158500535Y-109075120D01*
X158695120Y-108880535D01*
X158848005Y-108651727D01*
X158880000Y-108574485D01*
X158911995Y-108651727D01*
X159064880Y-108880535D01*
X159259465Y-109075120D01*
X159488273Y-109228005D01*
X159742510Y-109333314D01*
X160012408Y-109387000D01*
X160287592Y-109387000D01*
X160557490Y-109333314D01*
X160811727Y-109228005D01*
X161040535Y-109075120D01*
X161235120Y-108880535D01*
X161388005Y-108651727D01*
X161420000Y-108574485D01*
X161451995Y-108651727D01*
X161604880Y-108880535D01*
X161799465Y-109075120D01*
X162028273Y-109228005D01*
X162282510Y-109333314D01*
X162552408Y-109387000D01*
X162827592Y-109387000D01*
X163097490Y-109333314D01*
X163351727Y-109228005D01*
X163580535Y-109075120D01*
X163775120Y-108880535D01*
X163928005Y-108651727D01*
X163960000Y-108574485D01*
X163991995Y-108651727D01*
X164144880Y-108880535D01*
X164339465Y-109075120D01*
X164568273Y-109228005D01*
X164822510Y-109333314D01*
X165092408Y-109387000D01*
X165367592Y-109387000D01*
X165637490Y-109333314D01*
X165891727Y-109228005D01*
X166120535Y-109075120D01*
X166315120Y-108880535D01*
X166468005Y-108651727D01*
X166573314Y-108397490D01*
X166627000Y-108127592D01*
X166627000Y-107852408D01*
X166573314Y-107582510D01*
X166468005Y-107328273D01*
X166315120Y-107099465D01*
X166120535Y-106904880D01*
X165891727Y-106751995D01*
X165637490Y-106646686D01*
X165367592Y-106593000D01*
X165092408Y-106593000D01*
X164822510Y-106646686D01*
X164568273Y-106751995D01*
X164339465Y-106904880D01*
X164144880Y-107099465D01*
X163991995Y-107328273D01*
X163960000Y-107405515D01*
X163928005Y-107328273D01*
X163775120Y-107099465D01*
X163580535Y-106904880D01*
X163351727Y-106751995D01*
X163097490Y-106646686D01*
X162827592Y-106593000D01*
X162552408Y-106593000D01*
X162282510Y-106646686D01*
X162028273Y-106751995D01*
X161799465Y-106904880D01*
X161604880Y-107099465D01*
X161451995Y-107328273D01*
X161420000Y-107405515D01*
X161388005Y-107328273D01*
X161235120Y-107099465D01*
X161040535Y-106904880D01*
X160811727Y-106751995D01*
X160557490Y-106646686D01*
X160287592Y-106593000D01*
X160012408Y-106593000D01*
X159742510Y-106646686D01*
X159488273Y-106751995D01*
X159259465Y-106904880D01*
X159064880Y-107099465D01*
X158911995Y-107328273D01*
X158880000Y-107405515D01*
X158848005Y-107328273D01*
X158695120Y-107099465D01*
X158500535Y-106904880D01*
X158271727Y-106751995D01*
X158017490Y-106646686D01*
X157747592Y-106593000D01*
X157472408Y-106593000D01*
X157202510Y-106646686D01*
X156948273Y-106751995D01*
X156719465Y-106904880D01*
X156524880Y-107099465D01*
X156371995Y-107328273D01*
X156340000Y-107405515D01*
X156308005Y-107328273D01*
X156155120Y-107099465D01*
X155960535Y-106904880D01*
X155788003Y-106789598D01*
X161587601Y-100990000D01*
X179781928Y-100990000D01*
X179794188Y-101114482D01*
X179830498Y-101234180D01*
X179889463Y-101344494D01*
X179968815Y-101441185D01*
X180065506Y-101520537D01*
X180175820Y-101579502D01*
X180295518Y-101615812D01*
X180420000Y-101628072D01*
X182114250Y-101625000D01*
X182273000Y-101466250D01*
X182273000Y-100127000D01*
X179943750Y-100127000D01*
X179785000Y-100285750D01*
X179781928Y-100990000D01*
X161587601Y-100990000D01*
X163567601Y-99010000D01*
X179781928Y-99010000D01*
X179785000Y-99714250D01*
X179943750Y-99873000D01*
X182273000Y-99873000D01*
X182273000Y-98533750D01*
X182114250Y-98375000D01*
X180420000Y-98371928D01*
X180295518Y-98384188D01*
X180175820Y-98420498D01*
X180065506Y-98479463D01*
X179968815Y-98558815D01*
X179889463Y-98655506D01*
X179830498Y-98765820D01*
X179794188Y-98885518D01*
X179781928Y-99010000D01*
X163567601Y-99010000D01*
X166817602Y-95760000D01*
X179973661Y-95760000D01*
X180052325Y-95907170D01*
X180255392Y-96154608D01*
X180502830Y-96357675D01*
X180785131Y-96508568D01*
X181091444Y-96601487D01*
X181330176Y-96625000D01*
X183469824Y-96625000D01*
X183708556Y-96601487D01*
X183980801Y-96518902D01*
X183980801Y-98372652D01*
X182685750Y-98375000D01*
X182527000Y-98533750D01*
X182527000Y-99873000D01*
X182547000Y-99873000D01*
X182547000Y-100127000D01*
X182527000Y-100127000D01*
X182527000Y-101466250D01*
X182685750Y-101625000D01*
X183980801Y-101627348D01*
X183980800Y-123789309D01*
X183831582Y-123731000D01*
X183517000Y-123675000D01*
X182527000Y-123675000D01*
X182527000Y-125173000D01*
X182547000Y-125173000D01*
X182547000Y-125427000D01*
X182527000Y-125427000D01*
X182527000Y-126925000D01*
X183517000Y-126925000D01*
X183831582Y-126869000D01*
X183980800Y-126810691D01*
X183980800Y-128781097D01*
X183708556Y-128698513D01*
X183469824Y-128675000D01*
X181330176Y-128675000D01*
X181091444Y-128698513D01*
X180785131Y-128791432D01*
X180502830Y-128942325D01*
X180255392Y-129145392D01*
X180052325Y-129392830D01*
X179901432Y-129675131D01*
X179808513Y-129981444D01*
X179777138Y-130300000D01*
X179808513Y-130618556D01*
X179901432Y-130924869D01*
X180052325Y-131207170D01*
X180255392Y-131454608D01*
X180502830Y-131657675D01*
X180785131Y-131808568D01*
X181091444Y-131901487D01*
X181330176Y-131925000D01*
X183384898Y-131925000D01*
X181888998Y-133420901D01*
X181860000Y-133444699D01*
X181836202Y-133473697D01*
X181836201Y-133473698D01*
X181765026Y-133560424D01*
X181705425Y-133671928D01*
X180420000Y-133671928D01*
X180295518Y-133684188D01*
X180175820Y-133720498D01*
X180065506Y-133779463D01*
X179968815Y-133858815D01*
X179889463Y-133955506D01*
X179830498Y-134065820D01*
X179794188Y-134185518D01*
X179781928Y-134310000D01*
X179781928Y-136290000D01*
X179794188Y-136414482D01*
X179830498Y-136534180D01*
X179889463Y-136644494D01*
X179968815Y-136741185D01*
X180065506Y-136820537D01*
X180175820Y-136879502D01*
X180295518Y-136915812D01*
X180420000Y-136928072D01*
X184380000Y-136928072D01*
X184504482Y-136915812D01*
X184624180Y-136879502D01*
X184734494Y-136820537D01*
X184831185Y-136741185D01*
X184910537Y-136644494D01*
X184969502Y-136534180D01*
X185005812Y-136414482D01*
X185018072Y-136290000D01*
X185018072Y-134310000D01*
X185005812Y-134185518D01*
X184969502Y-134065820D01*
X184910537Y-133955506D01*
X184831185Y-133858815D01*
X184734494Y-133779463D01*
X184624180Y-133720498D01*
X184504482Y-133684188D01*
X184380000Y-133671928D01*
X183787573Y-133671928D01*
X185251804Y-132207698D01*
X185280801Y-132183901D01*
X185307132Y-132151817D01*
X185375774Y-132068177D01*
X185446346Y-131936147D01*
X185456860Y-131901487D01*
X185489803Y-131792886D01*
X185500800Y-131681233D01*
X185500800Y-131681224D01*
X185504476Y-131643901D01*
X185500800Y-131606578D01*
X185500800Y-84457125D01*
X185504476Y-84419800D01*
X185500800Y-84382475D01*
X185500800Y-84382467D01*
X185489803Y-84270814D01*
X185446346Y-84127553D01*
X185375774Y-83995524D01*
X185280801Y-83879799D01*
X185251803Y-83856001D01*
X171685802Y-70290000D01*
X179081928Y-70290000D01*
X179094188Y-70414482D01*
X179130498Y-70534180D01*
X179189463Y-70644494D01*
X179268815Y-70741185D01*
X179365506Y-70820537D01*
X179475820Y-70879502D01*
X179595518Y-70915812D01*
X179720000Y-70928072D01*
X181414250Y-70925000D01*
X181573000Y-70766250D01*
X181573000Y-69427000D01*
X181827000Y-69427000D01*
X181827000Y-70766250D01*
X181985750Y-70925000D01*
X183680000Y-70928072D01*
X183804482Y-70915812D01*
X183924180Y-70879502D01*
X184034494Y-70820537D01*
X184131185Y-70741185D01*
X184210537Y-70644494D01*
X184269502Y-70534180D01*
X184305812Y-70414482D01*
X184318072Y-70290000D01*
X184315000Y-69585750D01*
X184156250Y-69427000D01*
X181827000Y-69427000D01*
X181573000Y-69427000D01*
X179243750Y-69427000D01*
X179085000Y-69585750D01*
X179081928Y-70290000D01*
X171685802Y-70290000D01*
X169705802Y-68310000D01*
X179081928Y-68310000D01*
X179085000Y-69014250D01*
X179243750Y-69173000D01*
X181573000Y-69173000D01*
X181573000Y-67833750D01*
X181827000Y-67833750D01*
X181827000Y-69173000D01*
X184156250Y-69173000D01*
X184315000Y-69014250D01*
X184318072Y-68310000D01*
X184305812Y-68185518D01*
X184269502Y-68065820D01*
X184210537Y-67955506D01*
X184131185Y-67858815D01*
X184034494Y-67779463D01*
X183924180Y-67720498D01*
X183804482Y-67684188D01*
X183680000Y-67671928D01*
X181985750Y-67675000D01*
X181827000Y-67833750D01*
X181573000Y-67833750D01*
X181414250Y-67675000D01*
X179720000Y-67671928D01*
X179595518Y-67684188D01*
X179475820Y-67720498D01*
X179365506Y-67779463D01*
X179268815Y-67858815D01*
X179189463Y-67955506D01*
X179130498Y-68065820D01*
X179094188Y-68185518D01*
X179081928Y-68310000D01*
X169705802Y-68310000D01*
X161645802Y-60250000D01*
X162311928Y-60250000D01*
X162324188Y-60374482D01*
X162360498Y-60494180D01*
X162419463Y-60604494D01*
X162498815Y-60701185D01*
X162595506Y-60780537D01*
X162705820Y-60839502D01*
X162825518Y-60875812D01*
X162950000Y-60888072D01*
X163514250Y-60885000D01*
X163673000Y-60726250D01*
X163673000Y-59527000D01*
X163927000Y-59527000D01*
X163927000Y-60726250D01*
X164085750Y-60885000D01*
X164650000Y-60888072D01*
X164774482Y-60875812D01*
X164894180Y-60839502D01*
X165004494Y-60780537D01*
X165101185Y-60701185D01*
X165180537Y-60604494D01*
X165239502Y-60494180D01*
X165275812Y-60374482D01*
X165288072Y-60250000D01*
X165285000Y-59685750D01*
X165126250Y-59527000D01*
X163927000Y-59527000D01*
X163673000Y-59527000D01*
X162473750Y-59527000D01*
X162315000Y-59685750D01*
X162311928Y-60250000D01*
X161645802Y-60250000D01*
X156257301Y-54861500D01*
X160219778Y-54861500D01*
X160257100Y-54865176D01*
X160294422Y-54861500D01*
X160294433Y-54861500D01*
X160406086Y-54850503D01*
X160549347Y-54807046D01*
X160681376Y-54736474D01*
X160797101Y-54641501D01*
X160820904Y-54612498D01*
X161623402Y-53810000D01*
X162403897Y-53810000D01*
X162372068Y-53886842D01*
X162315000Y-54173740D01*
X162315000Y-54466260D01*
X162372068Y-54753158D01*
X162484010Y-55023411D01*
X162646525Y-55266632D01*
X162853368Y-55473475D01*
X163027760Y-55590000D01*
X162853368Y-55706525D01*
X162646525Y-55913368D01*
X162484010Y-56156589D01*
X162372068Y-56426842D01*
X162315000Y-56713740D01*
X162315000Y-57006260D01*
X162372068Y-57293158D01*
X162484010Y-57563411D01*
X162646525Y-57806632D01*
X162778380Y-57938487D01*
X162705820Y-57960498D01*
X162595506Y-58019463D01*
X162498815Y-58098815D01*
X162419463Y-58195506D01*
X162360498Y-58305820D01*
X162324188Y-58425518D01*
X162311928Y-58550000D01*
X162315000Y-59114250D01*
X162473750Y-59273000D01*
X163673000Y-59273000D01*
X163673000Y-59253000D01*
X163927000Y-59253000D01*
X163927000Y-59273000D01*
X165126250Y-59273000D01*
X165285000Y-59114250D01*
X165288072Y-58550000D01*
X165275812Y-58425518D01*
X165239502Y-58305820D01*
X165180537Y-58195506D01*
X165101185Y-58098815D01*
X165004494Y-58019463D01*
X164894180Y-57960498D01*
X164821620Y-57938487D01*
X164953475Y-57806632D01*
X165115990Y-57563411D01*
X165227932Y-57293158D01*
X165285000Y-57006260D01*
X165285000Y-56713740D01*
X165227932Y-56426842D01*
X165115990Y-56156589D01*
X164953475Y-55913368D01*
X164746632Y-55706525D01*
X164572240Y-55590000D01*
X164746632Y-55473475D01*
X164953475Y-55266632D01*
X165115990Y-55023411D01*
X165227932Y-54753158D01*
X165285000Y-54466260D01*
X165285000Y-54173740D01*
X165227932Y-53886842D01*
X165196103Y-53810000D01*
X169368599Y-53810000D01*
X178634701Y-63076103D01*
X178634700Y-64262667D01*
X178631023Y-64300000D01*
X178645697Y-64448986D01*
X178689154Y-64592247D01*
X178759726Y-64724276D01*
X178774831Y-64742681D01*
X178854699Y-64840001D01*
X178970424Y-64934974D01*
X179102453Y-65005546D01*
X179245714Y-65049003D01*
X179269009Y-65051297D01*
X179352325Y-65207170D01*
X179555392Y-65454608D01*
X179802830Y-65657675D01*
X180085131Y-65808568D01*
X180391444Y-65901487D01*
X180630176Y-65925000D01*
X182769824Y-65925000D01*
X183008556Y-65901487D01*
X183314869Y-65808568D01*
X183597170Y-65657675D01*
X183844608Y-65454608D01*
X184047675Y-65207170D01*
X184198568Y-64924869D01*
X184291487Y-64618556D01*
X184322862Y-64300000D01*
X184291487Y-63981444D01*
X184198568Y-63675131D01*
X184047675Y-63392830D01*
X183844608Y-63145392D01*
X183597170Y-62942325D01*
X183314869Y-62791432D01*
X183008556Y-62698513D01*
X182769824Y-62675000D01*
X180630176Y-62675000D01*
X180391444Y-62698513D01*
X180157572Y-62769457D01*
X180158376Y-62761299D01*
X180154700Y-62723976D01*
X180154700Y-62723967D01*
X180143703Y-62612314D01*
X180100246Y-62469053D01*
X180029674Y-62337024D01*
X179934701Y-62221299D01*
X179905703Y-62197501D01*
X177008202Y-59300000D01*
X179077138Y-59300000D01*
X179108513Y-59618556D01*
X179201432Y-59924869D01*
X179352325Y-60207170D01*
X179555392Y-60454608D01*
X179802830Y-60657675D01*
X180085131Y-60808568D01*
X180391444Y-60901487D01*
X180630176Y-60925000D01*
X182769824Y-60925000D01*
X183008556Y-60901487D01*
X183314869Y-60808568D01*
X183597170Y-60657675D01*
X183844608Y-60454608D01*
X184047675Y-60207170D01*
X184198568Y-59924869D01*
X184291487Y-59618556D01*
X184322862Y-59300000D01*
X184291487Y-58981444D01*
X184198568Y-58675131D01*
X184047675Y-58392830D01*
X183844608Y-58145392D01*
X183597170Y-57942325D01*
X183314869Y-57791432D01*
X183008556Y-57698513D01*
X182769824Y-57675000D01*
X180630176Y-57675000D01*
X180391444Y-57698513D01*
X180085131Y-57791432D01*
X179802830Y-57942325D01*
X179555392Y-58145392D01*
X179352325Y-58392830D01*
X179201432Y-58675131D01*
X179108513Y-58981444D01*
X179077138Y-59300000D01*
X177008202Y-59300000D01*
X172008202Y-54300000D01*
X179077138Y-54300000D01*
X179108513Y-54618556D01*
X179201432Y-54924869D01*
X179352325Y-55207170D01*
X179555392Y-55454608D01*
X179802830Y-55657675D01*
X180085131Y-55808568D01*
X180391444Y-55901487D01*
X180630176Y-55925000D01*
X182769824Y-55925000D01*
X183008556Y-55901487D01*
X183314869Y-55808568D01*
X183597170Y-55657675D01*
X183844608Y-55454608D01*
X184047675Y-55207170D01*
X184198568Y-54924869D01*
X184291487Y-54618556D01*
X184322862Y-54300000D01*
X184291487Y-53981444D01*
X184198568Y-53675131D01*
X184047675Y-53392830D01*
X183844608Y-53145392D01*
X183597170Y-52942325D01*
X183314869Y-52791432D01*
X183008556Y-52698513D01*
X182769824Y-52675000D01*
X180630176Y-52675000D01*
X180391444Y-52698513D01*
X180085131Y-52791432D01*
X179802830Y-52942325D01*
X179555392Y-53145392D01*
X179352325Y-53392830D01*
X179201432Y-53675131D01*
X179108513Y-53981444D01*
X179077138Y-54300000D01*
X172008202Y-54300000D01*
X170443400Y-52735199D01*
X170443400Y-43416101D01*
X171783045Y-42076456D01*
X192515000Y-42076456D01*
X192515000Y-42723544D01*
X192641240Y-43358199D01*
X192888871Y-43956031D01*
X193248374Y-44494066D01*
X193705934Y-44951626D01*
X194243969Y-45311129D01*
X194841801Y-45558760D01*
X195476456Y-45685000D01*
X196123544Y-45685000D01*
X196758199Y-45558760D01*
X197356031Y-45311129D01*
X197894066Y-44951626D01*
X198351626Y-44494066D01*
X198711129Y-43956031D01*
X198958760Y-43358199D01*
X199085000Y-42723544D01*
X199085000Y-42076456D01*
X198958760Y-41441801D01*
X198711129Y-40843969D01*
X198351626Y-40305934D01*
X197894066Y-39848374D01*
X197356031Y-39488871D01*
X196758199Y-39241240D01*
X196123544Y-39115000D01*
X195476456Y-39115000D01*
X194841801Y-39241240D01*
X194243969Y-39488871D01*
X193705934Y-39848374D01*
X193248374Y-40305934D01*
X192888871Y-40843969D01*
X192641240Y-41441801D01*
X192515000Y-42076456D01*
X171783045Y-42076456D01*
X178210717Y-35648785D01*
X178291432Y-35914868D01*
X178442325Y-36197169D01*
X178645392Y-36444608D01*
X178892830Y-36647675D01*
X179175131Y-36798568D01*
X179481444Y-36891487D01*
X179800000Y-36922862D01*
X180118555Y-36891487D01*
X180424868Y-36798568D01*
X180707169Y-36647675D01*
X180954608Y-36444608D01*
X181089698Y-36280000D01*
X183171928Y-36280000D01*
X183184188Y-36404482D01*
X183220498Y-36524180D01*
X183279463Y-36634494D01*
X183358815Y-36731185D01*
X183455506Y-36810537D01*
X183565820Y-36869502D01*
X183685518Y-36905812D01*
X183810000Y-36918072D01*
X184514250Y-36915000D01*
X184673000Y-36756250D01*
X184673000Y-34427000D01*
X184927000Y-34427000D01*
X184927000Y-36756250D01*
X185085750Y-36915000D01*
X185790000Y-36918072D01*
X185914482Y-36905812D01*
X186034180Y-36869502D01*
X186144494Y-36810537D01*
X186241185Y-36731185D01*
X186320537Y-36634494D01*
X186379502Y-36524180D01*
X186415812Y-36404482D01*
X186428072Y-36280000D01*
X186425000Y-34585750D01*
X186266250Y-34427000D01*
X184927000Y-34427000D01*
X184673000Y-34427000D01*
X183333750Y-34427000D01*
X183175000Y-34585750D01*
X183171928Y-36280000D01*
X181089698Y-36280000D01*
X181157675Y-36197170D01*
X181308568Y-35914869D01*
X181401487Y-35608556D01*
X181425000Y-35369824D01*
X181425000Y-33230176D01*
X181401487Y-32991444D01*
X181308568Y-32685131D01*
X181157675Y-32402830D01*
X181089699Y-32320000D01*
X183171928Y-32320000D01*
X183175000Y-34014250D01*
X183333750Y-34173000D01*
X184673000Y-34173000D01*
X184673000Y-31843750D01*
X184927000Y-31843750D01*
X184927000Y-34173000D01*
X186266250Y-34173000D01*
X186425000Y-34014250D01*
X186428072Y-32320000D01*
X186415812Y-32195518D01*
X186379502Y-32075820D01*
X186320537Y-31965506D01*
X186241185Y-31868815D01*
X186144494Y-31789463D01*
X186034180Y-31730498D01*
X185914482Y-31694188D01*
X185790000Y-31681928D01*
X185085750Y-31685000D01*
X184927000Y-31843750D01*
X184673000Y-31843750D01*
X184514250Y-31685000D01*
X183810000Y-31681928D01*
X183685518Y-31694188D01*
X183565820Y-31730498D01*
X183455506Y-31789463D01*
X183358815Y-31868815D01*
X183279463Y-31965506D01*
X183220498Y-32075820D01*
X183184188Y-32195518D01*
X183171928Y-32320000D01*
X181089699Y-32320000D01*
X180954608Y-32155392D01*
X180707170Y-31952325D01*
X180424869Y-31801432D01*
X180118556Y-31708513D01*
X179800000Y-31677138D01*
X179481445Y-31708513D01*
X179175132Y-31801432D01*
X178892831Y-31952325D01*
X178645393Y-32155392D01*
X178442326Y-32402830D01*
X178291433Y-32685131D01*
X178198514Y-32991444D01*
X178175001Y-33230176D01*
X178175001Y-33603783D01*
X178060424Y-33665026D01*
X177944699Y-33759999D01*
X177920901Y-33788997D01*
X169172398Y-42537501D01*
X169143400Y-42561299D01*
X169119602Y-42590297D01*
X169119601Y-42590298D01*
X169048426Y-42677024D01*
X168977854Y-42809054D01*
X168934398Y-42952315D01*
X168919724Y-43101300D01*
X168923401Y-43138632D01*
X168923400Y-52290000D01*
X165196103Y-52290000D01*
X165227932Y-52213158D01*
X165285000Y-51926260D01*
X165285000Y-51633740D01*
X165227932Y-51346842D01*
X165115990Y-51076589D01*
X164953475Y-50833368D01*
X164746632Y-50626525D01*
X164572240Y-50510000D01*
X164746632Y-50393475D01*
X164953475Y-50186632D01*
X165115990Y-49943411D01*
X165227932Y-49673158D01*
X165285000Y-49386260D01*
X165285000Y-49093740D01*
X165227932Y-48806842D01*
X165115990Y-48536589D01*
X164953475Y-48293368D01*
X164746632Y-48086525D01*
X164572240Y-47970000D01*
X164746632Y-47853475D01*
X164953475Y-47646632D01*
X165115990Y-47403411D01*
X165227932Y-47133158D01*
X165285000Y-46846260D01*
X165285000Y-46553740D01*
X165227932Y-46266842D01*
X165115990Y-45996589D01*
X164953475Y-45753368D01*
X164746632Y-45546525D01*
X164503411Y-45384010D01*
X164233158Y-45272068D01*
X163946260Y-45215000D01*
X163653740Y-45215000D01*
X163366842Y-45272068D01*
X163096589Y-45384010D01*
X162853368Y-45546525D01*
X162646525Y-45753368D01*
X162484010Y-45996589D01*
X162372068Y-46266842D01*
X162315000Y-46553740D01*
X162315000Y-46846260D01*
X162372068Y-47133158D01*
X162484010Y-47403411D01*
X162646525Y-47646632D01*
X162853368Y-47853475D01*
X163027760Y-47970000D01*
X162853368Y-48086525D01*
X162646525Y-48293368D01*
X162484010Y-48536589D01*
X162372068Y-48806842D01*
X162315000Y-49093740D01*
X162315000Y-49386260D01*
X162372068Y-49673158D01*
X162484010Y-49943411D01*
X162646525Y-50186632D01*
X162853368Y-50393475D01*
X163027760Y-50510000D01*
X162853368Y-50626525D01*
X162646525Y-50833368D01*
X162484010Y-51076589D01*
X162372068Y-51346842D01*
X162315000Y-51633740D01*
X162315000Y-51926260D01*
X162372068Y-52213158D01*
X162403897Y-52290000D01*
X161345933Y-52290000D01*
X161308600Y-52286323D01*
X161271267Y-52290000D01*
X161159614Y-52300997D01*
X161016353Y-52344454D01*
X160884324Y-52415026D01*
X160768599Y-52509999D01*
X160744801Y-52538997D01*
X159942299Y-53341500D01*
X155593700Y-53341500D01*
X155593700Y-53269361D01*
X155553926Y-53069402D01*
X155475905Y-52881044D01*
X155362637Y-52711526D01*
X155218474Y-52567363D01*
X155048956Y-52454095D01*
X154860598Y-52376074D01*
X154660639Y-52336300D01*
X154598502Y-52336300D01*
X153377404Y-51115203D01*
X153353601Y-51086199D01*
X153237876Y-50991226D01*
X153105847Y-50920654D01*
X152962586Y-50877197D01*
X152850933Y-50866200D01*
X152850922Y-50866200D01*
X152813600Y-50862524D01*
X152776278Y-50866200D01*
X142593602Y-50866200D01*
X127075388Y-35347987D01*
X127270690Y-35217491D01*
X136528801Y-44475603D01*
X136552599Y-44504601D01*
X136668324Y-44599574D01*
X136800353Y-44670146D01*
X136943614Y-44713603D01*
X137055267Y-44724600D01*
X137055276Y-44724600D01*
X137092599Y-44728276D01*
X137129922Y-44724600D01*
X146754389Y-44724600D01*
X146798326Y-44768537D01*
X146967844Y-44881805D01*
X147156202Y-44959826D01*
X147356161Y-44999600D01*
X147560039Y-44999600D01*
X147759998Y-44959826D01*
X147948356Y-44881805D01*
X148117874Y-44768537D01*
X148166055Y-44720356D01*
X150455512Y-47009814D01*
X150382795Y-47118644D01*
X150304774Y-47307002D01*
X150265000Y-47506961D01*
X150265000Y-47710839D01*
X150304774Y-47910798D01*
X150382795Y-48099156D01*
X150496063Y-48268674D01*
X150640226Y-48412837D01*
X150809744Y-48526105D01*
X150998102Y-48604126D01*
X151198061Y-48643900D01*
X151401939Y-48643900D01*
X151601898Y-48604126D01*
X151790256Y-48526105D01*
X151959774Y-48412837D01*
X152103937Y-48268674D01*
X152217205Y-48099156D01*
X152295226Y-47910798D01*
X152335000Y-47710839D01*
X152335000Y-47506961D01*
X152295226Y-47307002D01*
X152217205Y-47118644D01*
X152103937Y-46949126D01*
X152060000Y-46905189D01*
X152060000Y-46816822D01*
X152063676Y-46779499D01*
X152060000Y-46742176D01*
X152060000Y-46742167D01*
X152049003Y-46630514D01*
X152005546Y-46487253D01*
X151934975Y-46355225D01*
X151934974Y-46355223D01*
X151863799Y-46268497D01*
X151840001Y-46239499D01*
X151811004Y-46215702D01*
X136584304Y-30989003D01*
X136560501Y-30959999D01*
X136444776Y-30865026D01*
X136312747Y-30794454D01*
X136169486Y-30750997D01*
X136057833Y-30740000D01*
X136057822Y-30740000D01*
X136020500Y-30736324D01*
X135983178Y-30740000D01*
X130388072Y-30740000D01*
X130388072Y-30650000D01*
X130375812Y-30525518D01*
X130339502Y-30405820D01*
X130280537Y-30295506D01*
X130201185Y-30198815D01*
X130104494Y-30119463D01*
X129994180Y-30060498D01*
X129874482Y-30024188D01*
X129750000Y-30011928D01*
X128050000Y-30011928D01*
X127925518Y-30024188D01*
X127805820Y-30060498D01*
X127695506Y-30119463D01*
X127598815Y-30198815D01*
X127519463Y-30295506D01*
X127460498Y-30405820D01*
X127438487Y-30478380D01*
X127306632Y-30346525D01*
X127063411Y-30184010D01*
X126793158Y-30072068D01*
X126506260Y-30015000D01*
X126213740Y-30015000D01*
X125926842Y-30072068D01*
X125656589Y-30184010D01*
X125413368Y-30346525D01*
X125206525Y-30553368D01*
X125090000Y-30727760D01*
X124973475Y-30553368D01*
X124766632Y-30346525D01*
X124523411Y-30184010D01*
X124253158Y-30072068D01*
X123966260Y-30015000D01*
X123673740Y-30015000D01*
X123386842Y-30072068D01*
X123116589Y-30184010D01*
X122873368Y-30346525D01*
X122666525Y-30553368D01*
X122550000Y-30727760D01*
X122433475Y-30553368D01*
X122226632Y-30346525D01*
X121983411Y-30184010D01*
X121713158Y-30072068D01*
X121426260Y-30015000D01*
X121133740Y-30015000D01*
X120846842Y-30072068D01*
X120576589Y-30184010D01*
X120333368Y-30346525D01*
X120126525Y-30553368D01*
X119964010Y-30796589D01*
X119852068Y-31066842D01*
X119795000Y-31353740D01*
X119795000Y-31646260D01*
X119852068Y-31933158D01*
X119964010Y-32203411D01*
X120126525Y-32446632D01*
X120333368Y-32653475D01*
X120507760Y-32770000D01*
X120333368Y-32886525D01*
X120126525Y-33093368D01*
X119964010Y-33336589D01*
X119852068Y-33606842D01*
X119795000Y-33893740D01*
X119795000Y-34186260D01*
X119852068Y-34473158D01*
X119964010Y-34743411D01*
X120126525Y-34986632D01*
X120333368Y-35193475D01*
X120576589Y-35355990D01*
X120846842Y-35467932D01*
X121133740Y-35525000D01*
X121426260Y-35525000D01*
X121713158Y-35467932D01*
X121983411Y-35355990D01*
X122226632Y-35193475D01*
X122433475Y-34986632D01*
X122550000Y-34812240D01*
X122666525Y-34986632D01*
X122873368Y-35193475D01*
X123116589Y-35355990D01*
X123386842Y-35467932D01*
X123673740Y-35525000D01*
X123966260Y-35525000D01*
X124253158Y-35467932D01*
X124523411Y-35355990D01*
X124766632Y-35193475D01*
X124768953Y-35191154D01*
X140894298Y-51316500D01*
X125760822Y-51316500D01*
X125723499Y-51312824D01*
X125686176Y-51316500D01*
X125686167Y-51316500D01*
X125574514Y-51327497D01*
X125431253Y-51370954D01*
X125299224Y-51441526D01*
X125183499Y-51536499D01*
X125159701Y-51565497D01*
X115263271Y-61461928D01*
X113747500Y-61461928D01*
X113623018Y-61474188D01*
X113503320Y-61510498D01*
X113393006Y-61569463D01*
X113296315Y-61648815D01*
X113216963Y-61745506D01*
X113157998Y-61855820D01*
X113121688Y-61975518D01*
X113109428Y-62100000D01*
X96996122Y-62100000D01*
X97255456Y-61840666D01*
X97502786Y-61470511D01*
X97673149Y-61059218D01*
X97760000Y-60622591D01*
X97760000Y-60177409D01*
X97673149Y-59740782D01*
X97502786Y-59329489D01*
X97255456Y-58959334D01*
X96940666Y-58644544D01*
X96570511Y-58397214D01*
X96159218Y-58226851D01*
X95722591Y-58140000D01*
X95277409Y-58140000D01*
X94840782Y-58226851D01*
X94429489Y-58397214D01*
X94059334Y-58644544D01*
X93744544Y-58959334D01*
X93497214Y-59329489D01*
X93326851Y-59740782D01*
X93240000Y-60177409D01*
X89710000Y-60177409D01*
X89710000Y-53416916D01*
X96770000Y-53416916D01*
X96770000Y-53667084D01*
X96818805Y-53912445D01*
X96914541Y-54143571D01*
X97053527Y-54351578D01*
X97230422Y-54528473D01*
X97274612Y-54558000D01*
X97230422Y-54587527D01*
X97053527Y-54764422D01*
X96914541Y-54972429D01*
X96818805Y-55203555D01*
X96770000Y-55448916D01*
X96770000Y-55699084D01*
X96818805Y-55944445D01*
X96914541Y-56175571D01*
X97053527Y-56383578D01*
X97230422Y-56560473D01*
X97274612Y-56590000D01*
X97230422Y-56619527D01*
X97053527Y-56796422D01*
X96914541Y-57004429D01*
X96818805Y-57235555D01*
X96770000Y-57480916D01*
X96770000Y-57731084D01*
X96818805Y-57976445D01*
X96914541Y-58207571D01*
X97053527Y-58415578D01*
X97230422Y-58592473D01*
X97438429Y-58731459D01*
X97669555Y-58827195D01*
X97914916Y-58876000D01*
X98165084Y-58876000D01*
X98410445Y-58827195D01*
X98641571Y-58731459D01*
X98849578Y-58592473D01*
X99026473Y-58415578D01*
X99165459Y-58207571D01*
X99261195Y-57976445D01*
X99305749Y-57752457D01*
X99447555Y-57811195D01*
X99692916Y-57860000D01*
X99943084Y-57860000D01*
X100188445Y-57811195D01*
X100419571Y-57715459D01*
X100627578Y-57576473D01*
X100804473Y-57399578D01*
X100943459Y-57191571D01*
X101039195Y-56960445D01*
X101088000Y-56715084D01*
X101088000Y-56464916D01*
X101039195Y-56219555D01*
X100943459Y-55988429D01*
X100804473Y-55780422D01*
X100627578Y-55603527D01*
X100583388Y-55574000D01*
X100627578Y-55544473D01*
X100804473Y-55367578D01*
X100943459Y-55159571D01*
X101039195Y-54928445D01*
X101088000Y-54683084D01*
X101088000Y-54432916D01*
X101039195Y-54187555D01*
X100943459Y-53956429D01*
X100804473Y-53748422D01*
X100627578Y-53571527D01*
X100583388Y-53542000D01*
X100627578Y-53512473D01*
X100804473Y-53335578D01*
X100943459Y-53127571D01*
X101039195Y-52896445D01*
X101088000Y-52651084D01*
X101088000Y-52400916D01*
X101039195Y-52155555D01*
X100943459Y-51924429D01*
X100804473Y-51716422D01*
X100627578Y-51539527D01*
X100494608Y-51450679D01*
X100513195Y-51368800D01*
X99818000Y-50673605D01*
X99803858Y-50687748D01*
X99624253Y-50508143D01*
X99638395Y-50494000D01*
X99997605Y-50494000D01*
X100692800Y-51189195D01*
X100919946Y-51137631D01*
X101024339Y-50910284D01*
X101082373Y-50666941D01*
X101091818Y-50416951D01*
X101052310Y-50169922D01*
X100965369Y-49935347D01*
X100919946Y-49850369D01*
X100692800Y-49798805D01*
X99997605Y-50494000D01*
X99638395Y-50494000D01*
X98943200Y-49798805D01*
X98716054Y-49850369D01*
X98611661Y-50077716D01*
X98553627Y-50321059D01*
X98552613Y-50347893D01*
X98456284Y-50303661D01*
X98212941Y-50245627D01*
X97962951Y-50236182D01*
X97715922Y-50275690D01*
X97481347Y-50362631D01*
X97396369Y-50408054D01*
X97344805Y-50635200D01*
X98040000Y-51330395D01*
X98054143Y-51316253D01*
X98233748Y-51495858D01*
X98219605Y-51510000D01*
X98233748Y-51524143D01*
X98054143Y-51703748D01*
X98040000Y-51689605D01*
X97344805Y-52384800D01*
X97363392Y-52466679D01*
X97230422Y-52555527D01*
X97053527Y-52732422D01*
X96914541Y-52940429D01*
X96818805Y-53171555D01*
X96770000Y-53416916D01*
X89710000Y-53416916D01*
X89710000Y-51587049D01*
X96766182Y-51587049D01*
X96805690Y-51834078D01*
X96892631Y-52068653D01*
X96938054Y-52153631D01*
X97165200Y-52205195D01*
X97860395Y-51510000D01*
X97165200Y-50814805D01*
X96938054Y-50866369D01*
X96833661Y-51093716D01*
X96775627Y-51337059D01*
X96766182Y-51587049D01*
X89710000Y-51587049D01*
X89710000Y-47477409D01*
X93240000Y-47477409D01*
X93240000Y-47922591D01*
X93326851Y-48359218D01*
X93497214Y-48770511D01*
X93744544Y-49140666D01*
X94059334Y-49455456D01*
X94429489Y-49702786D01*
X94840782Y-49873149D01*
X95277409Y-49960000D01*
X95722591Y-49960000D01*
X96159218Y-49873149D01*
X96570511Y-49702786D01*
X96695606Y-49619200D01*
X99122805Y-49619200D01*
X99818000Y-50314395D01*
X100513195Y-49619200D01*
X100461631Y-49392054D01*
X100234284Y-49287661D01*
X99990941Y-49229627D01*
X99740951Y-49220182D01*
X99493922Y-49259690D01*
X99259347Y-49346631D01*
X99174369Y-49392054D01*
X99122805Y-49619200D01*
X96695606Y-49619200D01*
X96940666Y-49455456D01*
X97255456Y-49140666D01*
X97502786Y-48770511D01*
X97673149Y-48359218D01*
X97760000Y-47922591D01*
X97760000Y-47477409D01*
X97673149Y-47040782D01*
X97502786Y-46629489D01*
X97255456Y-46259334D01*
X96940666Y-45944544D01*
X96570511Y-45697214D01*
X96159218Y-45526851D01*
X95722591Y-45440000D01*
X95277409Y-45440000D01*
X94840782Y-45526851D01*
X94429489Y-45697214D01*
X94059334Y-45944544D01*
X93744544Y-46259334D01*
X93497214Y-46629489D01*
X93326851Y-47040782D01*
X93240000Y-47477409D01*
X89710000Y-47477409D01*
X89710000Y-34976456D01*
X94115000Y-34976456D01*
X94115000Y-35623544D01*
X94241240Y-36258199D01*
X94488871Y-36856031D01*
X94848374Y-37394066D01*
X95305934Y-37851626D01*
X95843969Y-38211129D01*
X96441801Y-38458760D01*
X97076456Y-38585000D01*
X97723544Y-38585000D01*
X98358199Y-38458760D01*
X98956031Y-38211129D01*
X99494066Y-37851626D01*
X99951626Y-37394066D01*
X100311129Y-36856031D01*
X100558760Y-36258199D01*
X100685000Y-35623544D01*
X100685000Y-34976456D01*
X100558760Y-34341801D01*
X100311129Y-33743969D01*
X99951626Y-33205934D01*
X99494066Y-32748374D01*
X98956031Y-32388871D01*
X98358199Y-32141240D01*
X97723544Y-32015000D01*
X97076456Y-32015000D01*
X96441801Y-32141240D01*
X95843969Y-32388871D01*
X95305934Y-32748374D01*
X94848374Y-33205934D01*
X94488871Y-33743969D01*
X94241240Y-34341801D01*
X94115000Y-34976456D01*
X89710000Y-34976456D01*
X89710000Y-28010000D01*
X200290000Y-28010000D01*
X200290001Y-151690000D01*
G36*
X146650298Y-43204600D02*
G01*
X137407402Y-43204600D01*
X129563637Y-35360836D01*
X129666920Y-35311641D01*
X129900269Y-35137588D01*
X130095178Y-34921355D01*
X130244157Y-34671252D01*
X130341481Y-34396891D01*
X130220814Y-34167000D01*
X129027000Y-34167000D01*
X129027000Y-34187000D01*
X128773000Y-34187000D01*
X128773000Y-34167000D01*
X128753000Y-34167000D01*
X128753000Y-33913000D01*
X128773000Y-33913000D01*
X128773000Y-33893000D01*
X129027000Y-33893000D01*
X129027000Y-33913000D01*
X130220814Y-33913000D01*
X130341481Y-33683109D01*
X130244157Y-33408748D01*
X130095178Y-33158645D01*
X129918374Y-32962498D01*
X129994180Y-32939502D01*
X130104494Y-32880537D01*
X130201185Y-32801185D01*
X130280537Y-32704494D01*
X130339502Y-32594180D01*
X130375812Y-32474482D01*
X130388072Y-32350000D01*
X130388072Y-32260000D01*
X135705699Y-32260000D01*
X146650298Y-43204600D01*
G37*
X146650298Y-43204600D02*
X137407402Y-43204600D01*
X129563637Y-35360836D01*
X129666920Y-35311641D01*
X129900269Y-35137588D01*
X130095178Y-34921355D01*
X130244157Y-34671252D01*
X130341481Y-34396891D01*
X130220814Y-34167000D01*
X129027000Y-34167000D01*
X129027000Y-34187000D01*
X128773000Y-34187000D01*
X128773000Y-34167000D01*
X128753000Y-34167000D01*
X128753000Y-33913000D01*
X128773000Y-33913000D01*
X128773000Y-33893000D01*
X129027000Y-33893000D01*
X129027000Y-33913000D01*
X130220814Y-33913000D01*
X130341481Y-33683109D01*
X130244157Y-33408748D01*
X130095178Y-33158645D01*
X129918374Y-32962498D01*
X129994180Y-32939502D01*
X130104494Y-32880537D01*
X130201185Y-32801185D01*
X130280537Y-32704494D01*
X130339502Y-32594180D01*
X130375812Y-32474482D01*
X130388072Y-32350000D01*
X130388072Y-32260000D01*
X135705699Y-32260000D01*
X146650298Y-43204600D01*
M02*
