G04 #@! TF.GenerationSoftware,KiCad,Pcbnew,5.0.1-33cea8e~66~ubuntu18.04.1*
G04 #@! TF.CreationDate,2018-10-17T12:33:42-04:00*
G04 #@! TF.ProjectId,BackPanel,4261636B50616E656C2E6B696361645F,rev?*
G04 #@! TF.SameCoordinates,Original*
G04 #@! TF.FileFunction,Copper,L2,Bot,Signal*
G04 #@! TF.FilePolarity,Positive*
%FSLAX46Y46*%
G04 Gerber Fmt 4.6, Leading zero omitted, Abs format (unit mm)*
G04 Created by KiCad (PCBNEW 5.0.1-33cea8e~66~ubuntu18.04.1) date Wed 17 Oct 2018 12:33:42 PM EDT*
%MOMM*%
%LPD*%
G01*
G04 APERTURE LIST*
G04 #@! TA.AperFunction,ComponentPad*
%ADD10C,2.413000*%
G04 #@! TD*
G04 #@! TA.AperFunction,ComponentPad*
%ADD11C,1.524000*%
G04 #@! TD*
G04 #@! TA.AperFunction,ComponentPad*
%ADD12C,3.250000*%
G04 #@! TD*
G04 #@! TA.AperFunction,ComponentPad*
%ADD13C,1.270000*%
G04 #@! TD*
G04 #@! TA.AperFunction,WasherPad*
%ADD14C,5.300000*%
G04 #@! TD*
G04 #@! TA.AperFunction,ComponentPad*
%ADD15R,3.960000X1.980000*%
G04 #@! TD*
G04 #@! TA.AperFunction,ComponentPad*
%ADD16O,3.960000X1.980000*%
G04 #@! TD*
G04 #@! TA.AperFunction,ComponentPad*
%ADD17R,1.905000X2.000000*%
G04 #@! TD*
G04 #@! TA.AperFunction,ComponentPad*
%ADD18O,1.905000X2.000000*%
G04 #@! TD*
G04 #@! TA.AperFunction,ComponentPad*
%ADD19R,1.700000X1.700000*%
G04 #@! TD*
G04 #@! TA.AperFunction,ComponentPad*
%ADD20O,1.700000X1.700000*%
G04 #@! TD*
G04 #@! TA.AperFunction,ComponentPad*
%ADD21R,1.980000X3.960000*%
G04 #@! TD*
G04 #@! TA.AperFunction,ComponentPad*
%ADD22O,1.980000X3.960000*%
G04 #@! TD*
G04 #@! TA.AperFunction,ViaPad*
%ADD23C,0.800000*%
G04 #@! TD*
G04 #@! TA.AperFunction,Conductor*
%ADD24C,0.250000*%
G04 #@! TD*
G04 #@! TA.AperFunction,Conductor*
%ADD25C,0.254000*%
G04 #@! TD*
G04 APERTURE END LIST*
D10*
G04 #@! TO.P,U5,*
G04 #@! TO.N,*
X142370000Y-142280000D03*
X165230000Y-111800000D03*
D11*
G04 #@! TO.P,U5,10*
G04 #@! TO.N,GND*
X142370000Y-107990000D03*
G04 #@! TO.P,U5,9*
G04 #@! TO.N,+24V*
X144910000Y-107990000D03*
G04 #@! TO.P,U5,8*
G04 #@! TO.N,GND*
X147450000Y-107990000D03*
G04 #@! TO.P,U5,7*
G04 #@! TO.N,+3V3*
X149990000Y-107990000D03*
G04 #@! TO.P,U5,6*
G04 #@! TO.N,/GPIOE/GoEast*
X152530000Y-107990000D03*
G04 #@! TO.P,U5,5*
G04 #@! TO.N,Net-(U5-Pad5)*
X155070000Y-107990000D03*
G04 #@! TO.P,U5,4*
G04 #@! TO.N,/GPIOE/CurrentSense*
X157610000Y-107990000D03*
G04 #@! TO.P,U5,3*
G04 #@! TO.N,/GPIOE/pwm*
X160150000Y-107990000D03*
G04 #@! TO.P,U5,2*
G04 #@! TO.N,Net-(U5-Pad2)*
X162690000Y-107990000D03*
G04 #@! TO.P,U5,1*
G04 #@! TO.N,/GPIOE/GoWest*
X165230000Y-107990000D03*
G04 #@! TD*
D12*
G04 #@! TO.P,J1,*
G04 #@! TO.N,*
X95500000Y-47700000D03*
X95500000Y-60400000D03*
D13*
G04 #@! TO.P,J1,8*
G04 #@! TO.N,GND*
X99818000Y-50494000D03*
G04 #@! TO.P,J1,7*
X98040000Y-51510000D03*
G04 #@! TO.P,J1,6*
G04 #@! TO.N,Net-(J1-Pad6)*
X99818000Y-52526000D03*
G04 #@! TO.P,J1,5*
G04 #@! TO.N,/TX*
X98040000Y-53542000D03*
G04 #@! TO.P,J1,4*
G04 #@! TO.N,/RX*
X99818000Y-54558000D03*
G04 #@! TO.P,J1,3*
G04 #@! TO.N,Net-(J1-Pad3)*
X98040000Y-55574000D03*
G04 #@! TO.P,J1,2*
G04 #@! TO.N,+3V3*
X99818000Y-56590000D03*
G04 #@! TO.P,J1,1*
X98040000Y-57606000D03*
G04 #@! TD*
D14*
G04 #@! TO.P,H2,*
G04 #@! TO.N,*
X186400000Y-147700000D03*
G04 #@! TD*
D15*
G04 #@! TO.P,J9,1*
G04 #@! TO.N,GND*
X181700000Y-69300000D03*
D16*
G04 #@! TO.P,J9,2*
G04 #@! TO.N,+24V*
X181700000Y-64300000D03*
G04 #@! TO.P,J9,4*
G04 #@! TO.N,/C-D/serial/AngleRS485A(-)*
X181700000Y-54300000D03*
G04 #@! TO.P,J9,3*
G04 #@! TO.N,/C-D/serial/AngleRS485B(+)*
X181700000Y-59300000D03*
G04 #@! TD*
G04 #@! TO.P,J8,3*
G04 #@! TO.N,/C-D/serial/AngleRS485B(+)*
X182400000Y-90000000D03*
G04 #@! TO.P,J8,4*
G04 #@! TO.N,/C-D/serial/AngleRS485A(-)*
X182400000Y-85000000D03*
G04 #@! TO.P,J8,2*
G04 #@! TO.N,+24V*
X182400000Y-95000000D03*
D15*
G04 #@! TO.P,J8,1*
G04 #@! TO.N,GND*
X182400000Y-100000000D03*
G04 #@! TD*
D16*
G04 #@! TO.P,J7,2*
G04 #@! TO.N,Net-(J7-Pad1)*
X95900000Y-136300000D03*
D15*
G04 #@! TO.P,J7,1*
X95900000Y-131300000D03*
G04 #@! TD*
D14*
G04 #@! TO.P,H3,*
G04 #@! TO.N,*
X109500000Y-147700000D03*
G04 #@! TD*
G04 #@! TO.P,H1,*
G04 #@! TO.N,*
X195800000Y-42400000D03*
G04 #@! TD*
D17*
G04 #@! TO.P,U2,1*
G04 #@! TO.N,+24V*
X114700000Y-63100000D03*
D18*
G04 #@! TO.P,U2,2*
G04 #@! TO.N,GND*
X117240000Y-63100000D03*
G04 #@! TO.P,U2,3*
G04 #@! TO.N,+3V3*
X119780000Y-63100000D03*
G04 #@! TD*
D14*
G04 #@! TO.P,M4,*
G04 #@! TO.N,*
X97400000Y-35300000D03*
G04 #@! TD*
D19*
G04 #@! TO.P,J2,1*
G04 #@! TO.N,Net-(J2-Pad1)*
X128900000Y-31500000D03*
D20*
G04 #@! TO.P,J2,2*
G04 #@! TO.N,GND*
X128900000Y-34040000D03*
G04 #@! TO.P,J2,3*
G04 #@! TO.N,Net-(J2-Pad3)*
X126360000Y-31500000D03*
G04 #@! TO.P,J2,4*
G04 #@! TO.N,+3V3*
X126360000Y-34040000D03*
G04 #@! TO.P,J2,5*
G04 #@! TO.N,Net-(J2-Pad5)*
X123820000Y-31500000D03*
G04 #@! TO.P,J2,6*
G04 #@! TO.N,Net-(J2-Pad6)*
X123820000Y-34040000D03*
G04 #@! TO.P,J2,7*
G04 #@! TO.N,Net-(J2-Pad7)*
X121280000Y-31500000D03*
G04 #@! TO.P,J2,8*
G04 #@! TO.N,Net-(J2-Pad8)*
X121280000Y-34040000D03*
G04 #@! TD*
D15*
G04 #@! TO.P,J6,1*
G04 #@! TO.N,GND*
X95500000Y-113500000D03*
D16*
G04 #@! TO.P,J6,2*
X95500000Y-118500000D03*
G04 #@! TD*
D19*
G04 #@! TO.P,J3,1*
G04 #@! TO.N,GND*
X163800000Y-59400000D03*
D20*
G04 #@! TO.P,J3,2*
G04 #@! TO.N,Net-(J3-Pad2)*
X163800000Y-56860000D03*
G04 #@! TO.P,J3,3*
G04 #@! TO.N,Net-(J3-Pad3)*
X163800000Y-54320000D03*
G04 #@! TO.P,J3,4*
G04 #@! TO.N,Net-(J3-Pad4)*
X163800000Y-51780000D03*
G04 #@! TO.P,J3,5*
G04 #@! TO.N,Net-(J3-Pad5)*
X163800000Y-49240000D03*
G04 #@! TO.P,J3,6*
G04 #@! TO.N,Net-(J3-Pad6)*
X163800000Y-46700000D03*
G04 #@! TD*
D15*
G04 #@! TO.P,J5,1*
G04 #@! TO.N,/C-D/RS485B(+)*
X95700000Y-94100000D03*
D16*
G04 #@! TO.P,J5,2*
X95700000Y-99100000D03*
G04 #@! TD*
D15*
G04 #@! TO.P,J10,1*
G04 #@! TO.N,/GPIOE/EastLimit*
X182400000Y-135300000D03*
D16*
G04 #@! TO.P,J10,2*
G04 #@! TO.N,/GPIOE/WestLimit*
X182400000Y-130300000D03*
G04 #@! TO.P,J10,3*
G04 #@! TO.N,GND*
X182400000Y-125300000D03*
G04 #@! TD*
G04 #@! TO.P,J4,2*
G04 #@! TO.N,/C-D/RS485A(-)*
X96000000Y-80300000D03*
D15*
G04 #@! TO.P,J4,1*
X96000000Y-75300000D03*
G04 #@! TD*
D21*
G04 #@! TO.P,J11,1*
G04 #@! TO.N,GND*
X184800000Y-34300000D03*
D22*
G04 #@! TO.P,J11,2*
G04 #@! TO.N,+24V*
X179800000Y-34300000D03*
G04 #@! TD*
D23*
G04 #@! TO.N,+3V3*
X147458100Y-43964600D03*
G04 #@! TO.N,/C-D/serial/AngleRS485B(+)*
X162380600Y-90000000D03*
G04 #@! TO.N,/C-D/serial/AngleRS485A(-)*
X160100000Y-89872800D03*
G04 #@! TO.N,Net-(J2-Pad1)*
X151300000Y-47608900D03*
G04 #@! TO.N,Net-(J2-Pad5)*
X154558700Y-53371300D03*
G04 #@! TO.N,/GPIOE/EastLimit*
X139791900Y-53137900D03*
G04 #@! TO.N,/GPIOE/GoEast*
X139659300Y-54150600D03*
G04 #@! TO.N,/C-D/serial/TX*
X115695000Y-98308500D03*
X151771100Y-62483500D03*
G04 #@! TO.N,/C-D/serial/RX*
X151093800Y-61444600D03*
X128941700Y-82214100D03*
G04 #@! TO.N,/C-D/serial/TX_en*
X128527500Y-80637000D03*
X151772400Y-60674600D03*
G04 #@! TO.N,/C-D/serial/AngleTX*
X132562900Y-77513100D03*
X148758500Y-54385300D03*
G04 #@! TO.N,/C-D/serial/AngleRX*
X129665200Y-83558000D03*
X148026600Y-53702400D03*
G04 #@! TO.N,/C-D/serial/AngleTX_en*
X131803700Y-75367100D03*
X147095000Y-54385300D03*
G04 #@! TD*
D24*
G04 #@! TO.N,GND*
X181700000Y-69300000D02*
X179394700Y-69300000D01*
X163800000Y-59400000D02*
X169494700Y-59400000D01*
X169494700Y-59400000D02*
X179394700Y-69300000D01*
X142370000Y-107990000D02*
X143463400Y-109083400D01*
X143463400Y-109083400D02*
X146356600Y-109083400D01*
X146356600Y-109083400D02*
X147450000Y-107990000D01*
X99818000Y-50884700D02*
X98665300Y-50884700D01*
X98665300Y-50884700D02*
X98040000Y-51510000D01*
X117240000Y-63100000D02*
X115914600Y-64425400D01*
X115914600Y-64425400D02*
X113358700Y-64425400D01*
X113358700Y-64425400D02*
X99818000Y-50884700D01*
X99818000Y-50884700D02*
X99818000Y-50494000D01*
G04 #@! TO.N,+3V3*
X126360000Y-34040000D02*
X127535300Y-34040000D01*
X127535300Y-34040000D02*
X127535300Y-34407300D01*
X127535300Y-34407300D02*
X137092600Y-43964600D01*
X137092600Y-43964600D02*
X147458100Y-43964600D01*
X99818000Y-56590000D02*
X99056000Y-56590000D01*
X99056000Y-56590000D02*
X98040000Y-57606000D01*
G04 #@! TO.N,/C-D/serial/AngleRS485B(+)*
X182400000Y-90000000D02*
X162380600Y-90000000D01*
G04 #@! TO.N,/C-D/serial/AngleRS485A(-)*
X182400000Y-85000000D02*
X164972800Y-85000000D01*
X164972800Y-85000000D02*
X160100000Y-89872800D01*
G04 #@! TO.N,Net-(J2-Pad1)*
X128900000Y-31500000D02*
X136020500Y-31500000D01*
X136020500Y-31500000D02*
X151300000Y-46779500D01*
X151300000Y-46779500D02*
X151300000Y-47608900D01*
G04 #@! TO.N,Net-(J2-Pad5)*
X154558700Y-53371300D02*
X152813600Y-51626200D01*
X152813600Y-51626200D02*
X142278800Y-51626200D01*
X142278800Y-51626200D02*
X124995300Y-34342700D01*
X124995300Y-34342700D02*
X124995300Y-33483200D01*
X124995300Y-33483200D02*
X124187400Y-32675300D01*
X124187400Y-32675300D02*
X123820000Y-32675300D01*
X123820000Y-31500000D02*
X123820000Y-32675300D01*
G04 #@! TO.N,+24V*
X169683400Y-53050000D02*
X161308600Y-53050000D01*
X161308600Y-53050000D02*
X160257100Y-54101500D01*
X160257100Y-54101500D02*
X150774300Y-54101500D01*
X150774300Y-54101500D02*
X148749300Y-52076500D01*
X148749300Y-52076500D02*
X125723500Y-52076500D01*
X125723500Y-52076500D02*
X114700000Y-63100000D01*
X182400000Y-95000000D02*
X166502800Y-95000000D01*
X166502800Y-95000000D02*
X153749300Y-107753500D01*
X153749300Y-107753500D02*
X153749300Y-108309500D01*
X153749300Y-108309500D02*
X152975600Y-109083200D01*
X152975600Y-109083200D02*
X152025500Y-109083200D01*
X152025500Y-109083200D02*
X151260000Y-108317700D01*
X151260000Y-108317700D02*
X151260000Y-107698500D01*
X151260000Y-107698500D02*
X150446900Y-106885400D01*
X150446900Y-106885400D02*
X146014600Y-106885400D01*
X146014600Y-106885400D02*
X144910000Y-107990000D01*
X181700000Y-64300000D02*
X179394700Y-64300000D01*
X169683400Y-53050000D02*
X169683400Y-43101300D01*
X169683400Y-43101300D02*
X178484700Y-34300000D01*
X179394700Y-64300000D02*
X179394700Y-62761300D01*
X179394700Y-62761300D02*
X169683400Y-53050000D01*
X179800000Y-34300000D02*
X178484700Y-34300000D01*
G04 #@! TO.N,/GPIOE/EastLimit*
X182400000Y-133984700D02*
X184740800Y-131643900D01*
X184740800Y-131643900D02*
X184740800Y-84419800D01*
X184740800Y-84419800D02*
X155146900Y-54825900D01*
X155146900Y-54825900D02*
X150861800Y-54825900D01*
X150861800Y-54825900D02*
X148562700Y-52526800D01*
X148562700Y-52526800D02*
X140403000Y-52526800D01*
X140403000Y-52526800D02*
X139791900Y-53137900D01*
X182400000Y-135300000D02*
X182400000Y-133984700D01*
G04 #@! TO.N,/GPIOE/GoEast*
X152530000Y-107990000D02*
X152530000Y-57131000D01*
X152530000Y-57131000D02*
X148376100Y-52977100D01*
X148376100Y-52977100D02*
X141420000Y-52977100D01*
X141420000Y-52977100D02*
X140246500Y-54150600D01*
X140246500Y-54150600D02*
X139659300Y-54150600D01*
G04 #@! TO.N,/C-D/serial/TX*
X115695000Y-98308500D02*
X115946100Y-98308500D01*
X115946100Y-98308500D02*
X151771100Y-62483500D01*
G04 #@! TO.N,/C-D/serial/RX*
X128941700Y-82214100D02*
X130324300Y-82214100D01*
X130324300Y-82214100D02*
X151093800Y-61444600D01*
G04 #@! TO.N,/C-D/serial/TX_en*
X128527500Y-80637000D02*
X130875700Y-80637000D01*
X130875700Y-80637000D02*
X150838100Y-60674600D01*
X150838100Y-60674600D02*
X151772400Y-60674600D01*
G04 #@! TO.N,/C-D/serial/AngleTX*
X148758500Y-54385300D02*
X148758500Y-61317500D01*
X148758500Y-61317500D02*
X132562900Y-77513100D01*
G04 #@! TO.N,/C-D/serial/AngleRX*
X148026600Y-53702400D02*
X148026600Y-60201300D01*
X148026600Y-60201300D02*
X128789900Y-79438000D01*
X128789900Y-79438000D02*
X128667700Y-79438000D01*
X128667700Y-79438000D02*
X127799100Y-80306600D01*
X127799100Y-80306600D02*
X127799100Y-82097200D01*
X127799100Y-82097200D02*
X129259900Y-83558000D01*
X129259900Y-83558000D02*
X129665200Y-83558000D01*
G04 #@! TO.N,/C-D/serial/AngleTX_en*
X131803700Y-75367100D02*
X147095000Y-60075800D01*
X147095000Y-60075800D02*
X147095000Y-54385300D01*
G04 #@! TD*
D25*
G04 #@! TO.N,GND*
G36*
X200290001Y-151690000D02*
X89710000Y-151690000D01*
X89710000Y-147046573D01*
X106215000Y-147046573D01*
X106215000Y-148353427D01*
X106715111Y-149560803D01*
X107639197Y-150484889D01*
X108846573Y-150985000D01*
X110153427Y-150985000D01*
X111360803Y-150484889D01*
X112284889Y-149560803D01*
X112785000Y-148353427D01*
X112785000Y-147046573D01*
X183115000Y-147046573D01*
X183115000Y-148353427D01*
X183615111Y-149560803D01*
X184539197Y-150484889D01*
X185746573Y-150985000D01*
X187053427Y-150985000D01*
X188260803Y-150484889D01*
X189184889Y-149560803D01*
X189685000Y-148353427D01*
X189685000Y-147046573D01*
X189184889Y-145839197D01*
X188260803Y-144915111D01*
X187053427Y-144415000D01*
X185746573Y-144415000D01*
X184539197Y-144915111D01*
X183615111Y-145839197D01*
X183115000Y-147046573D01*
X112785000Y-147046573D01*
X112284889Y-145839197D01*
X111360803Y-144915111D01*
X110153427Y-144415000D01*
X108846573Y-144415000D01*
X107639197Y-144915111D01*
X106715111Y-145839197D01*
X106215000Y-147046573D01*
X89710000Y-147046573D01*
X89710000Y-141913703D01*
X140528500Y-141913703D01*
X140528500Y-142646297D01*
X140808852Y-143323126D01*
X141326874Y-143841148D01*
X142003703Y-144121500D01*
X142736297Y-144121500D01*
X143413126Y-143841148D01*
X143931148Y-143323126D01*
X144211500Y-142646297D01*
X144211500Y-141913703D01*
X143931148Y-141236874D01*
X143413126Y-140718852D01*
X142736297Y-140438500D01*
X142003703Y-140438500D01*
X141326874Y-140718852D01*
X140808852Y-141236874D01*
X140528500Y-141913703D01*
X89710000Y-141913703D01*
X89710000Y-136300000D01*
X93253165Y-136300000D01*
X93379284Y-136934043D01*
X93738441Y-137471559D01*
X94275957Y-137830716D01*
X94749955Y-137925000D01*
X97050045Y-137925000D01*
X97524043Y-137830716D01*
X98061559Y-137471559D01*
X98420716Y-136934043D01*
X98546835Y-136300000D01*
X98420716Y-135665957D01*
X98061559Y-135128441D01*
X97524043Y-134769284D01*
X97050045Y-134675000D01*
X94749955Y-134675000D01*
X94275957Y-134769284D01*
X93738441Y-135128441D01*
X93379284Y-135665957D01*
X93253165Y-136300000D01*
X89710000Y-136300000D01*
X89710000Y-130310000D01*
X93272560Y-130310000D01*
X93272560Y-132290000D01*
X93321843Y-132537765D01*
X93462191Y-132747809D01*
X93672235Y-132888157D01*
X93920000Y-132937440D01*
X97880000Y-132937440D01*
X98127765Y-132888157D01*
X98337809Y-132747809D01*
X98478157Y-132537765D01*
X98527440Y-132290000D01*
X98527440Y-130310000D01*
X98478157Y-130062235D01*
X98337809Y-129852191D01*
X98127765Y-129711843D01*
X97880000Y-129662560D01*
X93920000Y-129662560D01*
X93672235Y-129711843D01*
X93462191Y-129852191D01*
X93321843Y-130062235D01*
X93272560Y-130310000D01*
X89710000Y-130310000D01*
X89710000Y-125678865D01*
X179829782Y-125678865D01*
X179860095Y-125804528D01*
X180171149Y-126359246D01*
X180670807Y-126752703D01*
X181283000Y-126925000D01*
X182273000Y-126925000D01*
X182273000Y-125427000D01*
X179949260Y-125427000D01*
X179829782Y-125678865D01*
X89710000Y-125678865D01*
X89710000Y-124921135D01*
X179829782Y-124921135D01*
X179949260Y-125173000D01*
X182273000Y-125173000D01*
X182273000Y-123675000D01*
X181283000Y-123675000D01*
X180670807Y-123847297D01*
X180171149Y-124240754D01*
X179860095Y-124795472D01*
X179829782Y-124921135D01*
X89710000Y-124921135D01*
X89710000Y-118878865D01*
X92929782Y-118878865D01*
X92960095Y-119004528D01*
X93271149Y-119559246D01*
X93770807Y-119952703D01*
X94383000Y-120125000D01*
X95373000Y-120125000D01*
X95373000Y-118627000D01*
X95627000Y-118627000D01*
X95627000Y-120125000D01*
X96617000Y-120125000D01*
X97229193Y-119952703D01*
X97728851Y-119559246D01*
X98039905Y-119004528D01*
X98070218Y-118878865D01*
X97950740Y-118627000D01*
X95627000Y-118627000D01*
X95373000Y-118627000D01*
X93049260Y-118627000D01*
X92929782Y-118878865D01*
X89710000Y-118878865D01*
X89710000Y-118121135D01*
X92929782Y-118121135D01*
X93049260Y-118373000D01*
X95373000Y-118373000D01*
X95373000Y-116875000D01*
X95627000Y-116875000D01*
X95627000Y-118373000D01*
X97950740Y-118373000D01*
X98070218Y-118121135D01*
X98039905Y-117995472D01*
X97728851Y-117440754D01*
X97229193Y-117047297D01*
X96617000Y-116875000D01*
X95627000Y-116875000D01*
X95373000Y-116875000D01*
X94383000Y-116875000D01*
X93770807Y-117047297D01*
X93271149Y-117440754D01*
X92960095Y-117995472D01*
X92929782Y-118121135D01*
X89710000Y-118121135D01*
X89710000Y-113785750D01*
X92885000Y-113785750D01*
X92885000Y-114616309D01*
X92981673Y-114849698D01*
X93160301Y-115028327D01*
X93393690Y-115125000D01*
X95214250Y-115125000D01*
X95373000Y-114966250D01*
X95373000Y-113627000D01*
X95627000Y-113627000D01*
X95627000Y-114966250D01*
X95785750Y-115125000D01*
X97606310Y-115125000D01*
X97839699Y-115028327D01*
X98018327Y-114849698D01*
X98115000Y-114616309D01*
X98115000Y-113785750D01*
X97956250Y-113627000D01*
X95627000Y-113627000D01*
X95373000Y-113627000D01*
X93043750Y-113627000D01*
X92885000Y-113785750D01*
X89710000Y-113785750D01*
X89710000Y-112383691D01*
X92885000Y-112383691D01*
X92885000Y-113214250D01*
X93043750Y-113373000D01*
X95373000Y-113373000D01*
X95373000Y-112033750D01*
X95627000Y-112033750D01*
X95627000Y-113373000D01*
X97956250Y-113373000D01*
X98115000Y-113214250D01*
X98115000Y-112383691D01*
X98018327Y-112150302D01*
X97839699Y-111971673D01*
X97606310Y-111875000D01*
X95785750Y-111875000D01*
X95627000Y-112033750D01*
X95373000Y-112033750D01*
X95214250Y-111875000D01*
X93393690Y-111875000D01*
X93160301Y-111971673D01*
X92981673Y-112150302D01*
X92885000Y-112383691D01*
X89710000Y-112383691D01*
X89710000Y-111433703D01*
X163388500Y-111433703D01*
X163388500Y-112166297D01*
X163668852Y-112843126D01*
X164186874Y-113361148D01*
X164863703Y-113641500D01*
X165596297Y-113641500D01*
X166273126Y-113361148D01*
X166791148Y-112843126D01*
X167071500Y-112166297D01*
X167071500Y-111433703D01*
X166791148Y-110756874D01*
X166273126Y-110238852D01*
X165596297Y-109958500D01*
X164863703Y-109958500D01*
X164186874Y-110238852D01*
X163668852Y-110756874D01*
X163388500Y-111433703D01*
X89710000Y-111433703D01*
X89710000Y-108970213D01*
X141569392Y-108970213D01*
X141638857Y-109212397D01*
X142162302Y-109399144D01*
X142717368Y-109371362D01*
X143101143Y-109212397D01*
X143170608Y-108970213D01*
X142370000Y-108169605D01*
X141569392Y-108970213D01*
X89710000Y-108970213D01*
X89710000Y-107782302D01*
X140960856Y-107782302D01*
X140988638Y-108337368D01*
X141147603Y-108721143D01*
X141389787Y-108790608D01*
X142190395Y-107990000D01*
X141389787Y-107189392D01*
X141147603Y-107258857D01*
X140960856Y-107782302D01*
X89710000Y-107782302D01*
X89710000Y-107009787D01*
X141569392Y-107009787D01*
X142370000Y-107810395D01*
X143170608Y-107009787D01*
X143101143Y-106767603D01*
X142577698Y-106580856D01*
X142022632Y-106608638D01*
X141638857Y-106767603D01*
X141569392Y-107009787D01*
X89710000Y-107009787D01*
X89710000Y-99100000D01*
X93053165Y-99100000D01*
X93179284Y-99734043D01*
X93538441Y-100271559D01*
X94075957Y-100630716D01*
X94549955Y-100725000D01*
X96850045Y-100725000D01*
X97324043Y-100630716D01*
X97861559Y-100271559D01*
X98220716Y-99734043D01*
X98346835Y-99100000D01*
X98220716Y-98465957D01*
X97861559Y-97928441D01*
X97324043Y-97569284D01*
X96850045Y-97475000D01*
X94549955Y-97475000D01*
X94075957Y-97569284D01*
X93538441Y-97928441D01*
X93179284Y-98465957D01*
X93053165Y-99100000D01*
X89710000Y-99100000D01*
X89710000Y-93110000D01*
X93072560Y-93110000D01*
X93072560Y-95090000D01*
X93121843Y-95337765D01*
X93262191Y-95547809D01*
X93472235Y-95688157D01*
X93720000Y-95737440D01*
X97680000Y-95737440D01*
X97927765Y-95688157D01*
X98137809Y-95547809D01*
X98278157Y-95337765D01*
X98327440Y-95090000D01*
X98327440Y-93110000D01*
X98278157Y-92862235D01*
X98137809Y-92652191D01*
X97927765Y-92511843D01*
X97680000Y-92462560D01*
X93720000Y-92462560D01*
X93472235Y-92511843D01*
X93262191Y-92652191D01*
X93121843Y-92862235D01*
X93072560Y-93110000D01*
X89710000Y-93110000D01*
X89710000Y-80300000D01*
X93353165Y-80300000D01*
X93479284Y-80934043D01*
X93838441Y-81471559D01*
X94375957Y-81830716D01*
X94849955Y-81925000D01*
X97150045Y-81925000D01*
X97624043Y-81830716D01*
X98161559Y-81471559D01*
X98520716Y-80934043D01*
X98646835Y-80300000D01*
X98520716Y-79665957D01*
X98161559Y-79128441D01*
X97624043Y-78769284D01*
X97150045Y-78675000D01*
X94849955Y-78675000D01*
X94375957Y-78769284D01*
X93838441Y-79128441D01*
X93479284Y-79665957D01*
X93353165Y-80300000D01*
X89710000Y-80300000D01*
X89710000Y-74310000D01*
X93372560Y-74310000D01*
X93372560Y-76290000D01*
X93421843Y-76537765D01*
X93562191Y-76747809D01*
X93772235Y-76888157D01*
X94020000Y-76937440D01*
X97980000Y-76937440D01*
X98227765Y-76888157D01*
X98437809Y-76747809D01*
X98578157Y-76537765D01*
X98627440Y-76290000D01*
X98627440Y-74310000D01*
X98578157Y-74062235D01*
X98437809Y-73852191D01*
X98227765Y-73711843D01*
X97980000Y-73662560D01*
X94020000Y-73662560D01*
X93772235Y-73711843D01*
X93562191Y-73852191D01*
X93421843Y-74062235D01*
X93372560Y-74310000D01*
X89710000Y-74310000D01*
X89710000Y-59950458D01*
X93240000Y-59950458D01*
X93240000Y-60849542D01*
X93584065Y-61680187D01*
X94219813Y-62315935D01*
X95050458Y-62660000D01*
X95949542Y-62660000D01*
X96780187Y-62315935D01*
X96996122Y-62100000D01*
X113100060Y-62100000D01*
X113100060Y-64100000D01*
X113149343Y-64347765D01*
X113289691Y-64557809D01*
X113499735Y-64698157D01*
X113747500Y-64747440D01*
X115652500Y-64747440D01*
X115900265Y-64698157D01*
X116110309Y-64557809D01*
X116247255Y-64352857D01*
X116373076Y-64475973D01*
X116867020Y-64690563D01*
X117113000Y-64570594D01*
X117113000Y-63227000D01*
X117093000Y-63227000D01*
X117093000Y-62973000D01*
X117113000Y-62973000D01*
X117113000Y-62953000D01*
X117367000Y-62953000D01*
X117367000Y-62973000D01*
X117387000Y-62973000D01*
X117387000Y-63227000D01*
X117367000Y-63227000D01*
X117367000Y-64570594D01*
X117612980Y-64690563D01*
X118106924Y-64475973D01*
X118500841Y-64090526D01*
X118635477Y-64292023D01*
X119160590Y-64642891D01*
X119780000Y-64766100D01*
X120399411Y-64642891D01*
X120924523Y-64292023D01*
X121275391Y-63766910D01*
X121367500Y-63303849D01*
X121367500Y-62896150D01*
X121275391Y-62433089D01*
X120924523Y-61907977D01*
X120399410Y-61557109D01*
X119780000Y-61433900D01*
X119160589Y-61557109D01*
X118635477Y-61907977D01*
X118500841Y-62109474D01*
X118106924Y-61724027D01*
X117612980Y-61509437D01*
X117367002Y-61629405D01*
X117367002Y-61507799D01*
X126038302Y-52836500D01*
X138796468Y-52836500D01*
X138756900Y-52932026D01*
X138756900Y-53343774D01*
X138828810Y-53517379D01*
X138781869Y-53564320D01*
X138624300Y-53944726D01*
X138624300Y-54356474D01*
X138781869Y-54736880D01*
X139073020Y-55028031D01*
X139453426Y-55185600D01*
X139865174Y-55185600D01*
X140245580Y-55028031D01*
X140373355Y-54900256D01*
X140543037Y-54866504D01*
X140794429Y-54698529D01*
X140836831Y-54635070D01*
X141734802Y-53737100D01*
X146279489Y-53737100D01*
X146217569Y-53799020D01*
X146060000Y-54179426D01*
X146060000Y-54591174D01*
X146217569Y-54971580D01*
X146335001Y-55089012D01*
X146335000Y-59760998D01*
X131763899Y-74332100D01*
X131597826Y-74332100D01*
X131217420Y-74489669D01*
X130926269Y-74780820D01*
X130768700Y-75161226D01*
X130768700Y-75572974D01*
X130926269Y-75953380D01*
X131062994Y-76090105D01*
X128445861Y-78707238D01*
X128371163Y-78722096D01*
X128119771Y-78890071D01*
X128077371Y-78953527D01*
X127314630Y-79716269D01*
X127251171Y-79758671D01*
X127083196Y-80010064D01*
X127039100Y-80231749D01*
X127039100Y-80231753D01*
X127024212Y-80306600D01*
X127039100Y-80381447D01*
X127039101Y-82022348D01*
X127024212Y-82097200D01*
X127039101Y-82172052D01*
X127083197Y-82393737D01*
X127251172Y-82645129D01*
X127314628Y-82687529D01*
X128669571Y-84042473D01*
X128711971Y-84105929D01*
X128824824Y-84181335D01*
X128911644Y-84268155D01*
X115904710Y-97275089D01*
X115900874Y-97273500D01*
X115489126Y-97273500D01*
X115108720Y-97431069D01*
X114817569Y-97722220D01*
X114660000Y-98102626D01*
X114660000Y-98514374D01*
X114817569Y-98894780D01*
X115108720Y-99185931D01*
X115489126Y-99343500D01*
X115900874Y-99343500D01*
X116281280Y-99185931D01*
X116572431Y-98894780D01*
X116669877Y-98659524D01*
X151770001Y-63559401D01*
X151770000Y-106792700D01*
X151738663Y-106805680D01*
X151590322Y-106954021D01*
X151037231Y-106400930D01*
X150994829Y-106337471D01*
X150743437Y-106169496D01*
X150521752Y-106125400D01*
X150521747Y-106125400D01*
X150446900Y-106110512D01*
X150372053Y-106125400D01*
X146089446Y-106125400D01*
X146014599Y-106110512D01*
X145939752Y-106125400D01*
X145939748Y-106125400D01*
X145718063Y-106169496D01*
X145718061Y-106169497D01*
X145718062Y-106169497D01*
X145530126Y-106295071D01*
X145530124Y-106295073D01*
X145466671Y-106337471D01*
X145424273Y-106400925D01*
X145219218Y-106605980D01*
X145187881Y-106593000D01*
X144632119Y-106593000D01*
X144118663Y-106805680D01*
X143725680Y-107198663D01*
X143646572Y-107389647D01*
X143592397Y-107258857D01*
X143350213Y-107189392D01*
X142549605Y-107990000D01*
X143350213Y-108790608D01*
X143592397Y-108721143D01*
X143642535Y-108580607D01*
X143725680Y-108781337D01*
X144118663Y-109174320D01*
X144632119Y-109387000D01*
X145187881Y-109387000D01*
X145701337Y-109174320D01*
X145905444Y-108970213D01*
X146649392Y-108970213D01*
X146718857Y-109212397D01*
X147242302Y-109399144D01*
X147797368Y-109371362D01*
X148181143Y-109212397D01*
X148250608Y-108970213D01*
X147450000Y-108169605D01*
X146649392Y-108970213D01*
X145905444Y-108970213D01*
X146094320Y-108781337D01*
X146173428Y-108590353D01*
X146227603Y-108721143D01*
X146469787Y-108790608D01*
X147270395Y-107990000D01*
X147256253Y-107975858D01*
X147435858Y-107796253D01*
X147450000Y-107810395D01*
X147464143Y-107796253D01*
X147643748Y-107975858D01*
X147629605Y-107990000D01*
X148430213Y-108790608D01*
X148672397Y-108721143D01*
X148722535Y-108580607D01*
X148805680Y-108781337D01*
X149198663Y-109174320D01*
X149712119Y-109387000D01*
X150267881Y-109387000D01*
X150781337Y-109174320D01*
X150911578Y-109044079D01*
X151435173Y-109567675D01*
X151477571Y-109631129D01*
X151541024Y-109673527D01*
X151541026Y-109673529D01*
X151666402Y-109757302D01*
X151728963Y-109799104D01*
X151950648Y-109843200D01*
X151950652Y-109843200D01*
X152025499Y-109858088D01*
X152100346Y-109843200D01*
X152900753Y-109843200D01*
X152975600Y-109858088D01*
X153050447Y-109843200D01*
X153050452Y-109843200D01*
X153272137Y-109799104D01*
X153523529Y-109631129D01*
X153565931Y-109567670D01*
X154118972Y-109014629D01*
X154278663Y-109174320D01*
X154792119Y-109387000D01*
X155347881Y-109387000D01*
X155861337Y-109174320D01*
X156254320Y-108781337D01*
X156340000Y-108574487D01*
X156425680Y-108781337D01*
X156818663Y-109174320D01*
X157332119Y-109387000D01*
X157887881Y-109387000D01*
X158401337Y-109174320D01*
X158794320Y-108781337D01*
X158880000Y-108574487D01*
X158965680Y-108781337D01*
X159358663Y-109174320D01*
X159872119Y-109387000D01*
X160427881Y-109387000D01*
X160941337Y-109174320D01*
X161334320Y-108781337D01*
X161420000Y-108574487D01*
X161505680Y-108781337D01*
X161898663Y-109174320D01*
X162412119Y-109387000D01*
X162967881Y-109387000D01*
X163481337Y-109174320D01*
X163874320Y-108781337D01*
X163960000Y-108574487D01*
X164045680Y-108781337D01*
X164438663Y-109174320D01*
X164952119Y-109387000D01*
X165507881Y-109387000D01*
X166021337Y-109174320D01*
X166414320Y-108781337D01*
X166627000Y-108267881D01*
X166627000Y-107712119D01*
X166414320Y-107198663D01*
X166021337Y-106805680D01*
X165507881Y-106593000D01*
X164952119Y-106593000D01*
X164438663Y-106805680D01*
X164045680Y-107198663D01*
X163960000Y-107405513D01*
X163874320Y-107198663D01*
X163481337Y-106805680D01*
X162967881Y-106593000D01*
X162412119Y-106593000D01*
X161898663Y-106805680D01*
X161505680Y-107198663D01*
X161420000Y-107405513D01*
X161334320Y-107198663D01*
X160941337Y-106805680D01*
X160427881Y-106593000D01*
X159872119Y-106593000D01*
X159358663Y-106805680D01*
X158965680Y-107198663D01*
X158880000Y-107405513D01*
X158794320Y-107198663D01*
X158401337Y-106805680D01*
X157887881Y-106593000D01*
X157332119Y-106593000D01*
X156818663Y-106805680D01*
X156425680Y-107198663D01*
X156340000Y-107405513D01*
X156254320Y-107198663D01*
X155861337Y-106805680D01*
X155798110Y-106779491D01*
X162291851Y-100285750D01*
X179785000Y-100285750D01*
X179785000Y-101116309D01*
X179881673Y-101349698D01*
X180060301Y-101528327D01*
X180293690Y-101625000D01*
X182114250Y-101625000D01*
X182273000Y-101466250D01*
X182273000Y-100127000D01*
X179943750Y-100127000D01*
X179785000Y-100285750D01*
X162291851Y-100285750D01*
X163693910Y-98883691D01*
X179785000Y-98883691D01*
X179785000Y-99714250D01*
X179943750Y-99873000D01*
X182273000Y-99873000D01*
X182273000Y-98533750D01*
X182114250Y-98375000D01*
X180293690Y-98375000D01*
X180060301Y-98471673D01*
X179881673Y-98650302D01*
X179785000Y-98883691D01*
X163693910Y-98883691D01*
X166817602Y-95760000D01*
X179963446Y-95760000D01*
X180238441Y-96171559D01*
X180775957Y-96530716D01*
X181249955Y-96625000D01*
X183550045Y-96625000D01*
X183980801Y-96539317D01*
X183980801Y-98375000D01*
X182685750Y-98375000D01*
X182527000Y-98533750D01*
X182527000Y-99873000D01*
X182547000Y-99873000D01*
X182547000Y-100127000D01*
X182527000Y-100127000D01*
X182527000Y-101466250D01*
X182685750Y-101625000D01*
X183980801Y-101625000D01*
X183980800Y-123805533D01*
X183517000Y-123675000D01*
X182527000Y-123675000D01*
X182527000Y-125173000D01*
X182547000Y-125173000D01*
X182547000Y-125427000D01*
X182527000Y-125427000D01*
X182527000Y-126925000D01*
X183517000Y-126925000D01*
X183980800Y-126794467D01*
X183980800Y-128760682D01*
X183550045Y-128675000D01*
X181249955Y-128675000D01*
X180775957Y-128769284D01*
X180238441Y-129128441D01*
X179879284Y-129665957D01*
X179753165Y-130300000D01*
X179879284Y-130934043D01*
X180238441Y-131471559D01*
X180775957Y-131830716D01*
X181249955Y-131925000D01*
X183384898Y-131925000D01*
X181915528Y-133394371D01*
X181852072Y-133436771D01*
X181809672Y-133500227D01*
X181809671Y-133500228D01*
X181701204Y-133662560D01*
X180420000Y-133662560D01*
X180172235Y-133711843D01*
X179962191Y-133852191D01*
X179821843Y-134062235D01*
X179772560Y-134310000D01*
X179772560Y-136290000D01*
X179821843Y-136537765D01*
X179962191Y-136747809D01*
X180172235Y-136888157D01*
X180420000Y-136937440D01*
X184380000Y-136937440D01*
X184627765Y-136888157D01*
X184837809Y-136747809D01*
X184978157Y-136537765D01*
X185027440Y-136290000D01*
X185027440Y-134310000D01*
X184978157Y-134062235D01*
X184837809Y-133852191D01*
X184627765Y-133711843D01*
X184380000Y-133662560D01*
X183796941Y-133662560D01*
X185225273Y-132234229D01*
X185288729Y-132191829D01*
X185456704Y-131940437D01*
X185500800Y-131718752D01*
X185500800Y-131718748D01*
X185515688Y-131643901D01*
X185500800Y-131569054D01*
X185500800Y-84494648D01*
X185515688Y-84419800D01*
X185500800Y-84344952D01*
X185500800Y-84344948D01*
X185456704Y-84123263D01*
X185456704Y-84123262D01*
X185331129Y-83935327D01*
X185288729Y-83871871D01*
X185225273Y-83829471D01*
X170981552Y-69585750D01*
X179085000Y-69585750D01*
X179085000Y-70416309D01*
X179181673Y-70649698D01*
X179360301Y-70828327D01*
X179593690Y-70925000D01*
X181414250Y-70925000D01*
X181573000Y-70766250D01*
X181573000Y-69427000D01*
X181827000Y-69427000D01*
X181827000Y-70766250D01*
X181985750Y-70925000D01*
X183806310Y-70925000D01*
X184039699Y-70828327D01*
X184218327Y-70649698D01*
X184315000Y-70416309D01*
X184315000Y-69585750D01*
X184156250Y-69427000D01*
X181827000Y-69427000D01*
X181573000Y-69427000D01*
X179243750Y-69427000D01*
X179085000Y-69585750D01*
X170981552Y-69585750D01*
X169579493Y-68183691D01*
X179085000Y-68183691D01*
X179085000Y-69014250D01*
X179243750Y-69173000D01*
X181573000Y-69173000D01*
X181573000Y-67833750D01*
X181827000Y-67833750D01*
X181827000Y-69173000D01*
X184156250Y-69173000D01*
X184315000Y-69014250D01*
X184315000Y-68183691D01*
X184218327Y-67950302D01*
X184039699Y-67771673D01*
X183806310Y-67675000D01*
X181985750Y-67675000D01*
X181827000Y-67833750D01*
X181573000Y-67833750D01*
X181414250Y-67675000D01*
X179593690Y-67675000D01*
X179360301Y-67771673D01*
X179181673Y-67950302D01*
X179085000Y-68183691D01*
X169579493Y-68183691D01*
X161081552Y-59685750D01*
X162315000Y-59685750D01*
X162315000Y-60376310D01*
X162411673Y-60609699D01*
X162590302Y-60788327D01*
X162823691Y-60885000D01*
X163514250Y-60885000D01*
X163673000Y-60726250D01*
X163673000Y-59527000D01*
X163927000Y-59527000D01*
X163927000Y-60726250D01*
X164085750Y-60885000D01*
X164776309Y-60885000D01*
X165009698Y-60788327D01*
X165188327Y-60609699D01*
X165285000Y-60376310D01*
X165285000Y-59685750D01*
X165126250Y-59527000D01*
X163927000Y-59527000D01*
X163673000Y-59527000D01*
X162473750Y-59527000D01*
X162315000Y-59685750D01*
X161081552Y-59685750D01*
X156257301Y-54861500D01*
X160182253Y-54861500D01*
X160257100Y-54876388D01*
X160331947Y-54861500D01*
X160331952Y-54861500D01*
X160553637Y-54817404D01*
X160805029Y-54649429D01*
X160847431Y-54585970D01*
X161623402Y-53810000D01*
X162387353Y-53810000D01*
X162285908Y-54320000D01*
X162401161Y-54899418D01*
X162729375Y-55390625D01*
X163027761Y-55590000D01*
X162729375Y-55789375D01*
X162401161Y-56280582D01*
X162285908Y-56860000D01*
X162401161Y-57439418D01*
X162729375Y-57930625D01*
X162751033Y-57945096D01*
X162590302Y-58011673D01*
X162411673Y-58190301D01*
X162315000Y-58423690D01*
X162315000Y-59114250D01*
X162473750Y-59273000D01*
X163673000Y-59273000D01*
X163673000Y-59253000D01*
X163927000Y-59253000D01*
X163927000Y-59273000D01*
X165126250Y-59273000D01*
X165285000Y-59114250D01*
X165285000Y-58423690D01*
X165188327Y-58190301D01*
X165009698Y-58011673D01*
X164848967Y-57945096D01*
X164870625Y-57930625D01*
X165198839Y-57439418D01*
X165314092Y-56860000D01*
X165198839Y-56280582D01*
X164870625Y-55789375D01*
X164572239Y-55590000D01*
X164870625Y-55390625D01*
X165198839Y-54899418D01*
X165314092Y-54320000D01*
X165212647Y-53810000D01*
X169368599Y-53810000D01*
X178634701Y-63076103D01*
X178634700Y-64225148D01*
X178619811Y-64300000D01*
X178678796Y-64596537D01*
X178792095Y-64766100D01*
X178846771Y-64847929D01*
X179098163Y-65015904D01*
X179254800Y-65047061D01*
X179538441Y-65471559D01*
X180075957Y-65830716D01*
X180549955Y-65925000D01*
X182850045Y-65925000D01*
X183324043Y-65830716D01*
X183861559Y-65471559D01*
X184220716Y-64934043D01*
X184346835Y-64300000D01*
X184220716Y-63665957D01*
X183861559Y-63128441D01*
X183324043Y-62769284D01*
X182850045Y-62675000D01*
X180549955Y-62675000D01*
X180167552Y-62751065D01*
X180154700Y-62686452D01*
X180154700Y-62686448D01*
X180110604Y-62464763D01*
X179942629Y-62213371D01*
X179879173Y-62170971D01*
X177008202Y-59300000D01*
X179053165Y-59300000D01*
X179179284Y-59934043D01*
X179538441Y-60471559D01*
X180075957Y-60830716D01*
X180549955Y-60925000D01*
X182850045Y-60925000D01*
X183324043Y-60830716D01*
X183861559Y-60471559D01*
X184220716Y-59934043D01*
X184346835Y-59300000D01*
X184220716Y-58665957D01*
X183861559Y-58128441D01*
X183324043Y-57769284D01*
X182850045Y-57675000D01*
X180549955Y-57675000D01*
X180075957Y-57769284D01*
X179538441Y-58128441D01*
X179179284Y-58665957D01*
X179053165Y-59300000D01*
X177008202Y-59300000D01*
X172008202Y-54300000D01*
X179053165Y-54300000D01*
X179179284Y-54934043D01*
X179538441Y-55471559D01*
X180075957Y-55830716D01*
X180549955Y-55925000D01*
X182850045Y-55925000D01*
X183324043Y-55830716D01*
X183861559Y-55471559D01*
X184220716Y-54934043D01*
X184346835Y-54300000D01*
X184220716Y-53665957D01*
X183861559Y-53128441D01*
X183324043Y-52769284D01*
X182850045Y-52675000D01*
X180549955Y-52675000D01*
X180075957Y-52769284D01*
X179538441Y-53128441D01*
X179179284Y-53665957D01*
X179053165Y-54300000D01*
X172008202Y-54300000D01*
X170443400Y-52735199D01*
X170443400Y-43416101D01*
X172112928Y-41746573D01*
X192515000Y-41746573D01*
X192515000Y-43053427D01*
X193015111Y-44260803D01*
X193939197Y-45184889D01*
X195146573Y-45685000D01*
X196453427Y-45685000D01*
X197660803Y-45184889D01*
X198584889Y-44260803D01*
X199085000Y-43053427D01*
X199085000Y-41746573D01*
X198584889Y-40539197D01*
X197660803Y-39615111D01*
X196453427Y-39115000D01*
X195146573Y-39115000D01*
X193939197Y-39615111D01*
X193015111Y-40539197D01*
X192515000Y-41746573D01*
X172112928Y-41746573D01*
X178213899Y-35645603D01*
X178269284Y-35924042D01*
X178628441Y-36461559D01*
X179165957Y-36820716D01*
X179800000Y-36946835D01*
X180434042Y-36820716D01*
X180971559Y-36461559D01*
X181330716Y-35924043D01*
X181425000Y-35450045D01*
X181425000Y-34585750D01*
X183175000Y-34585750D01*
X183175000Y-36406310D01*
X183271673Y-36639699D01*
X183450302Y-36818327D01*
X183683691Y-36915000D01*
X184514250Y-36915000D01*
X184673000Y-36756250D01*
X184673000Y-34427000D01*
X184927000Y-34427000D01*
X184927000Y-36756250D01*
X185085750Y-36915000D01*
X185916309Y-36915000D01*
X186149698Y-36818327D01*
X186328327Y-36639699D01*
X186425000Y-36406310D01*
X186425000Y-34585750D01*
X186266250Y-34427000D01*
X184927000Y-34427000D01*
X184673000Y-34427000D01*
X183333750Y-34427000D01*
X183175000Y-34585750D01*
X181425000Y-34585750D01*
X181425000Y-33149955D01*
X181330716Y-32675957D01*
X181008476Y-32193690D01*
X183175000Y-32193690D01*
X183175000Y-34014250D01*
X183333750Y-34173000D01*
X184673000Y-34173000D01*
X184673000Y-31843750D01*
X184927000Y-31843750D01*
X184927000Y-34173000D01*
X186266250Y-34173000D01*
X186425000Y-34014250D01*
X186425000Y-32193690D01*
X186328327Y-31960301D01*
X186149698Y-31781673D01*
X185916309Y-31685000D01*
X185085750Y-31685000D01*
X184927000Y-31843750D01*
X184673000Y-31843750D01*
X184514250Y-31685000D01*
X183683691Y-31685000D01*
X183450302Y-31781673D01*
X183271673Y-31960301D01*
X183175000Y-32193690D01*
X181008476Y-32193690D01*
X180971559Y-32138441D01*
X180434043Y-31779284D01*
X179800000Y-31653165D01*
X179165958Y-31779284D01*
X178628442Y-32138441D01*
X178269285Y-32675957D01*
X178175001Y-33149955D01*
X178175001Y-33592890D01*
X178039981Y-33683108D01*
X177936771Y-33752071D01*
X177894371Y-33815527D01*
X169198928Y-42510971D01*
X169135472Y-42553371D01*
X169093072Y-42616827D01*
X169093071Y-42616828D01*
X168967497Y-42804763D01*
X168908512Y-43101300D01*
X168923401Y-43176152D01*
X168923400Y-52290000D01*
X165212647Y-52290000D01*
X165314092Y-51780000D01*
X165198839Y-51200582D01*
X164870625Y-50709375D01*
X164572239Y-50510000D01*
X164870625Y-50310625D01*
X165198839Y-49819418D01*
X165314092Y-49240000D01*
X165198839Y-48660582D01*
X164870625Y-48169375D01*
X164572239Y-47970000D01*
X164870625Y-47770625D01*
X165198839Y-47279418D01*
X165314092Y-46700000D01*
X165198839Y-46120582D01*
X164870625Y-45629375D01*
X164379418Y-45301161D01*
X163946256Y-45215000D01*
X163653744Y-45215000D01*
X163220582Y-45301161D01*
X162729375Y-45629375D01*
X162401161Y-46120582D01*
X162285908Y-46700000D01*
X162401161Y-47279418D01*
X162729375Y-47770625D01*
X163027761Y-47970000D01*
X162729375Y-48169375D01*
X162401161Y-48660582D01*
X162285908Y-49240000D01*
X162401161Y-49819418D01*
X162729375Y-50310625D01*
X163027761Y-50510000D01*
X162729375Y-50709375D01*
X162401161Y-51200582D01*
X162285908Y-51780000D01*
X162387353Y-52290000D01*
X161383448Y-52290000D01*
X161308600Y-52275112D01*
X161233752Y-52290000D01*
X161233748Y-52290000D01*
X161012063Y-52334096D01*
X160760671Y-52502071D01*
X160718271Y-52565527D01*
X159942299Y-53341500D01*
X155593700Y-53341500D01*
X155593700Y-53165426D01*
X155436131Y-52785020D01*
X155144980Y-52493869D01*
X154764574Y-52336300D01*
X154598502Y-52336300D01*
X153403931Y-51141730D01*
X153361529Y-51078271D01*
X153110137Y-50910296D01*
X152888452Y-50866200D01*
X152888447Y-50866200D01*
X152813600Y-50851312D01*
X152738753Y-50866200D01*
X142593602Y-50866200D01*
X127075388Y-35347987D01*
X127270689Y-35217490D01*
X136502271Y-44449073D01*
X136544671Y-44512529D01*
X136796063Y-44680504D01*
X137017748Y-44724600D01*
X137017752Y-44724600D01*
X137092599Y-44739488D01*
X137167446Y-44724600D01*
X146754389Y-44724600D01*
X146871820Y-44842031D01*
X147252226Y-44999600D01*
X147663974Y-44999600D01*
X148044380Y-44842031D01*
X148166055Y-44720356D01*
X150445444Y-46999745D01*
X150422569Y-47022620D01*
X150265000Y-47403026D01*
X150265000Y-47814774D01*
X150422569Y-48195180D01*
X150713720Y-48486331D01*
X151094126Y-48643900D01*
X151505874Y-48643900D01*
X151886280Y-48486331D01*
X152177431Y-48195180D01*
X152335000Y-47814774D01*
X152335000Y-47403026D01*
X152177431Y-47022620D01*
X152060000Y-46905189D01*
X152060000Y-46854346D01*
X152074888Y-46779499D01*
X152060000Y-46704652D01*
X152060000Y-46704648D01*
X152015904Y-46482963D01*
X151847929Y-46231571D01*
X151784473Y-46189171D01*
X136610831Y-31015530D01*
X136568429Y-30952071D01*
X136317037Y-30784096D01*
X136095352Y-30740000D01*
X136095347Y-30740000D01*
X136020500Y-30725112D01*
X135945653Y-30740000D01*
X130397440Y-30740000D01*
X130397440Y-30650000D01*
X130348157Y-30402235D01*
X130207809Y-30192191D01*
X129997765Y-30051843D01*
X129750000Y-30002560D01*
X128050000Y-30002560D01*
X127802235Y-30051843D01*
X127592191Y-30192191D01*
X127451843Y-30402235D01*
X127442816Y-30447619D01*
X127430625Y-30429375D01*
X126939418Y-30101161D01*
X126506256Y-30015000D01*
X126213744Y-30015000D01*
X125780582Y-30101161D01*
X125289375Y-30429375D01*
X125090000Y-30727761D01*
X124890625Y-30429375D01*
X124399418Y-30101161D01*
X123966256Y-30015000D01*
X123673744Y-30015000D01*
X123240582Y-30101161D01*
X122749375Y-30429375D01*
X122550000Y-30727761D01*
X122350625Y-30429375D01*
X121859418Y-30101161D01*
X121426256Y-30015000D01*
X121133744Y-30015000D01*
X120700582Y-30101161D01*
X120209375Y-30429375D01*
X119881161Y-30920582D01*
X119765908Y-31500000D01*
X119881161Y-32079418D01*
X120209375Y-32570625D01*
X120507761Y-32770000D01*
X120209375Y-32969375D01*
X119881161Y-33460582D01*
X119765908Y-34040000D01*
X119881161Y-34619418D01*
X120209375Y-35110625D01*
X120700582Y-35438839D01*
X121133744Y-35525000D01*
X121426256Y-35525000D01*
X121859418Y-35438839D01*
X122350625Y-35110625D01*
X122550000Y-34812239D01*
X122749375Y-35110625D01*
X123240582Y-35438839D01*
X123673744Y-35525000D01*
X123966256Y-35525000D01*
X124399418Y-35438839D01*
X124769414Y-35191615D01*
X140894298Y-51316500D01*
X125798346Y-51316500D01*
X125723499Y-51301612D01*
X125648652Y-51316500D01*
X125648648Y-51316500D01*
X125426963Y-51360596D01*
X125175571Y-51528571D01*
X125133171Y-51592027D01*
X115272639Y-61452560D01*
X113747500Y-61452560D01*
X113499735Y-61501843D01*
X113289691Y-61642191D01*
X113149343Y-61852235D01*
X113100060Y-62100000D01*
X96996122Y-62100000D01*
X97415935Y-61680187D01*
X97760000Y-60849542D01*
X97760000Y-59950458D01*
X97415935Y-59119813D01*
X96780187Y-58484065D01*
X95949542Y-58140000D01*
X95050458Y-58140000D01*
X94219813Y-58484065D01*
X93584065Y-59119813D01*
X93240000Y-59950458D01*
X89710000Y-59950458D01*
X89710000Y-53289381D01*
X96770000Y-53289381D01*
X96770000Y-53794619D01*
X96963346Y-54261397D01*
X97259949Y-54558000D01*
X96963346Y-54854603D01*
X96770000Y-55321381D01*
X96770000Y-55826619D01*
X96963346Y-56293397D01*
X97259949Y-56590000D01*
X96963346Y-56886603D01*
X96770000Y-57353381D01*
X96770000Y-57858619D01*
X96963346Y-58325397D01*
X97320603Y-58682654D01*
X97787381Y-58876000D01*
X98292619Y-58876000D01*
X98759397Y-58682654D01*
X99116654Y-58325397D01*
X99310000Y-57858619D01*
X99310000Y-57754218D01*
X99565381Y-57860000D01*
X100070619Y-57860000D01*
X100537397Y-57666654D01*
X100894654Y-57309397D01*
X101088000Y-56842619D01*
X101088000Y-56337381D01*
X100894654Y-55870603D01*
X100598051Y-55574000D01*
X100894654Y-55277397D01*
X101088000Y-54810619D01*
X101088000Y-54305381D01*
X100894654Y-53838603D01*
X100598051Y-53542000D01*
X100894654Y-53245397D01*
X101088000Y-52778619D01*
X101088000Y-52273381D01*
X100894654Y-51806603D01*
X100537397Y-51449346D01*
X100513097Y-51439281D01*
X100526528Y-51382133D01*
X99818000Y-50673605D01*
X99803858Y-50687748D01*
X99624253Y-50508143D01*
X99638395Y-50494000D01*
X99997605Y-50494000D01*
X100706133Y-51202528D01*
X100935179Y-51148697D01*
X101100681Y-50671336D01*
X101070906Y-50166977D01*
X100935179Y-49839303D01*
X100706133Y-49785472D01*
X99997605Y-50494000D01*
X99638395Y-50494000D01*
X98929867Y-49785472D01*
X98700821Y-49839303D01*
X98535319Y-50316664D01*
X98536579Y-50338001D01*
X98217336Y-50227319D01*
X97712977Y-50257094D01*
X97385303Y-50392821D01*
X97331472Y-50621867D01*
X98040000Y-51330395D01*
X98054143Y-51316253D01*
X98233748Y-51495858D01*
X98219605Y-51510000D01*
X98233748Y-51524143D01*
X98054143Y-51703748D01*
X98040000Y-51689605D01*
X97331472Y-52398133D01*
X97344903Y-52455281D01*
X97320603Y-52465346D01*
X96963346Y-52822603D01*
X96770000Y-53289381D01*
X89710000Y-53289381D01*
X89710000Y-51332664D01*
X96757319Y-51332664D01*
X96787094Y-51837023D01*
X96922821Y-52164697D01*
X97151867Y-52218528D01*
X97860395Y-51510000D01*
X97151867Y-50801472D01*
X96922821Y-50855303D01*
X96757319Y-51332664D01*
X89710000Y-51332664D01*
X89710000Y-47250458D01*
X93240000Y-47250458D01*
X93240000Y-48149542D01*
X93584065Y-48980187D01*
X94219813Y-49615935D01*
X95050458Y-49960000D01*
X95949542Y-49960000D01*
X96780187Y-49615935D01*
X96790255Y-49605867D01*
X99109472Y-49605867D01*
X99818000Y-50314395D01*
X100526528Y-49605867D01*
X100472697Y-49376821D01*
X99995336Y-49211319D01*
X99490977Y-49241094D01*
X99163303Y-49376821D01*
X99109472Y-49605867D01*
X96790255Y-49605867D01*
X97415935Y-48980187D01*
X97760000Y-48149542D01*
X97760000Y-47250458D01*
X97415935Y-46419813D01*
X96780187Y-45784065D01*
X95949542Y-45440000D01*
X95050458Y-45440000D01*
X94219813Y-45784065D01*
X93584065Y-46419813D01*
X93240000Y-47250458D01*
X89710000Y-47250458D01*
X89710000Y-34646573D01*
X94115000Y-34646573D01*
X94115000Y-35953427D01*
X94615111Y-37160803D01*
X95539197Y-38084889D01*
X96746573Y-38585000D01*
X98053427Y-38585000D01*
X99260803Y-38084889D01*
X100184889Y-37160803D01*
X100685000Y-35953427D01*
X100685000Y-34646573D01*
X100184889Y-33439197D01*
X99260803Y-32515111D01*
X98053427Y-32015000D01*
X96746573Y-32015000D01*
X95539197Y-32515111D01*
X94615111Y-33439197D01*
X94115000Y-34646573D01*
X89710000Y-34646573D01*
X89710000Y-28010000D01*
X200290000Y-28010000D01*
X200290001Y-151690000D01*
X200290001Y-151690000D01*
G37*
X200290001Y-151690000D02*
X89710000Y-151690000D01*
X89710000Y-147046573D01*
X106215000Y-147046573D01*
X106215000Y-148353427D01*
X106715111Y-149560803D01*
X107639197Y-150484889D01*
X108846573Y-150985000D01*
X110153427Y-150985000D01*
X111360803Y-150484889D01*
X112284889Y-149560803D01*
X112785000Y-148353427D01*
X112785000Y-147046573D01*
X183115000Y-147046573D01*
X183115000Y-148353427D01*
X183615111Y-149560803D01*
X184539197Y-150484889D01*
X185746573Y-150985000D01*
X187053427Y-150985000D01*
X188260803Y-150484889D01*
X189184889Y-149560803D01*
X189685000Y-148353427D01*
X189685000Y-147046573D01*
X189184889Y-145839197D01*
X188260803Y-144915111D01*
X187053427Y-144415000D01*
X185746573Y-144415000D01*
X184539197Y-144915111D01*
X183615111Y-145839197D01*
X183115000Y-147046573D01*
X112785000Y-147046573D01*
X112284889Y-145839197D01*
X111360803Y-144915111D01*
X110153427Y-144415000D01*
X108846573Y-144415000D01*
X107639197Y-144915111D01*
X106715111Y-145839197D01*
X106215000Y-147046573D01*
X89710000Y-147046573D01*
X89710000Y-141913703D01*
X140528500Y-141913703D01*
X140528500Y-142646297D01*
X140808852Y-143323126D01*
X141326874Y-143841148D01*
X142003703Y-144121500D01*
X142736297Y-144121500D01*
X143413126Y-143841148D01*
X143931148Y-143323126D01*
X144211500Y-142646297D01*
X144211500Y-141913703D01*
X143931148Y-141236874D01*
X143413126Y-140718852D01*
X142736297Y-140438500D01*
X142003703Y-140438500D01*
X141326874Y-140718852D01*
X140808852Y-141236874D01*
X140528500Y-141913703D01*
X89710000Y-141913703D01*
X89710000Y-136300000D01*
X93253165Y-136300000D01*
X93379284Y-136934043D01*
X93738441Y-137471559D01*
X94275957Y-137830716D01*
X94749955Y-137925000D01*
X97050045Y-137925000D01*
X97524043Y-137830716D01*
X98061559Y-137471559D01*
X98420716Y-136934043D01*
X98546835Y-136300000D01*
X98420716Y-135665957D01*
X98061559Y-135128441D01*
X97524043Y-134769284D01*
X97050045Y-134675000D01*
X94749955Y-134675000D01*
X94275957Y-134769284D01*
X93738441Y-135128441D01*
X93379284Y-135665957D01*
X93253165Y-136300000D01*
X89710000Y-136300000D01*
X89710000Y-130310000D01*
X93272560Y-130310000D01*
X93272560Y-132290000D01*
X93321843Y-132537765D01*
X93462191Y-132747809D01*
X93672235Y-132888157D01*
X93920000Y-132937440D01*
X97880000Y-132937440D01*
X98127765Y-132888157D01*
X98337809Y-132747809D01*
X98478157Y-132537765D01*
X98527440Y-132290000D01*
X98527440Y-130310000D01*
X98478157Y-130062235D01*
X98337809Y-129852191D01*
X98127765Y-129711843D01*
X97880000Y-129662560D01*
X93920000Y-129662560D01*
X93672235Y-129711843D01*
X93462191Y-129852191D01*
X93321843Y-130062235D01*
X93272560Y-130310000D01*
X89710000Y-130310000D01*
X89710000Y-125678865D01*
X179829782Y-125678865D01*
X179860095Y-125804528D01*
X180171149Y-126359246D01*
X180670807Y-126752703D01*
X181283000Y-126925000D01*
X182273000Y-126925000D01*
X182273000Y-125427000D01*
X179949260Y-125427000D01*
X179829782Y-125678865D01*
X89710000Y-125678865D01*
X89710000Y-124921135D01*
X179829782Y-124921135D01*
X179949260Y-125173000D01*
X182273000Y-125173000D01*
X182273000Y-123675000D01*
X181283000Y-123675000D01*
X180670807Y-123847297D01*
X180171149Y-124240754D01*
X179860095Y-124795472D01*
X179829782Y-124921135D01*
X89710000Y-124921135D01*
X89710000Y-118878865D01*
X92929782Y-118878865D01*
X92960095Y-119004528D01*
X93271149Y-119559246D01*
X93770807Y-119952703D01*
X94383000Y-120125000D01*
X95373000Y-120125000D01*
X95373000Y-118627000D01*
X95627000Y-118627000D01*
X95627000Y-120125000D01*
X96617000Y-120125000D01*
X97229193Y-119952703D01*
X97728851Y-119559246D01*
X98039905Y-119004528D01*
X98070218Y-118878865D01*
X97950740Y-118627000D01*
X95627000Y-118627000D01*
X95373000Y-118627000D01*
X93049260Y-118627000D01*
X92929782Y-118878865D01*
X89710000Y-118878865D01*
X89710000Y-118121135D01*
X92929782Y-118121135D01*
X93049260Y-118373000D01*
X95373000Y-118373000D01*
X95373000Y-116875000D01*
X95627000Y-116875000D01*
X95627000Y-118373000D01*
X97950740Y-118373000D01*
X98070218Y-118121135D01*
X98039905Y-117995472D01*
X97728851Y-117440754D01*
X97229193Y-117047297D01*
X96617000Y-116875000D01*
X95627000Y-116875000D01*
X95373000Y-116875000D01*
X94383000Y-116875000D01*
X93770807Y-117047297D01*
X93271149Y-117440754D01*
X92960095Y-117995472D01*
X92929782Y-118121135D01*
X89710000Y-118121135D01*
X89710000Y-113785750D01*
X92885000Y-113785750D01*
X92885000Y-114616309D01*
X92981673Y-114849698D01*
X93160301Y-115028327D01*
X93393690Y-115125000D01*
X95214250Y-115125000D01*
X95373000Y-114966250D01*
X95373000Y-113627000D01*
X95627000Y-113627000D01*
X95627000Y-114966250D01*
X95785750Y-115125000D01*
X97606310Y-115125000D01*
X97839699Y-115028327D01*
X98018327Y-114849698D01*
X98115000Y-114616309D01*
X98115000Y-113785750D01*
X97956250Y-113627000D01*
X95627000Y-113627000D01*
X95373000Y-113627000D01*
X93043750Y-113627000D01*
X92885000Y-113785750D01*
X89710000Y-113785750D01*
X89710000Y-112383691D01*
X92885000Y-112383691D01*
X92885000Y-113214250D01*
X93043750Y-113373000D01*
X95373000Y-113373000D01*
X95373000Y-112033750D01*
X95627000Y-112033750D01*
X95627000Y-113373000D01*
X97956250Y-113373000D01*
X98115000Y-113214250D01*
X98115000Y-112383691D01*
X98018327Y-112150302D01*
X97839699Y-111971673D01*
X97606310Y-111875000D01*
X95785750Y-111875000D01*
X95627000Y-112033750D01*
X95373000Y-112033750D01*
X95214250Y-111875000D01*
X93393690Y-111875000D01*
X93160301Y-111971673D01*
X92981673Y-112150302D01*
X92885000Y-112383691D01*
X89710000Y-112383691D01*
X89710000Y-111433703D01*
X163388500Y-111433703D01*
X163388500Y-112166297D01*
X163668852Y-112843126D01*
X164186874Y-113361148D01*
X164863703Y-113641500D01*
X165596297Y-113641500D01*
X166273126Y-113361148D01*
X166791148Y-112843126D01*
X167071500Y-112166297D01*
X167071500Y-111433703D01*
X166791148Y-110756874D01*
X166273126Y-110238852D01*
X165596297Y-109958500D01*
X164863703Y-109958500D01*
X164186874Y-110238852D01*
X163668852Y-110756874D01*
X163388500Y-111433703D01*
X89710000Y-111433703D01*
X89710000Y-108970213D01*
X141569392Y-108970213D01*
X141638857Y-109212397D01*
X142162302Y-109399144D01*
X142717368Y-109371362D01*
X143101143Y-109212397D01*
X143170608Y-108970213D01*
X142370000Y-108169605D01*
X141569392Y-108970213D01*
X89710000Y-108970213D01*
X89710000Y-107782302D01*
X140960856Y-107782302D01*
X140988638Y-108337368D01*
X141147603Y-108721143D01*
X141389787Y-108790608D01*
X142190395Y-107990000D01*
X141389787Y-107189392D01*
X141147603Y-107258857D01*
X140960856Y-107782302D01*
X89710000Y-107782302D01*
X89710000Y-107009787D01*
X141569392Y-107009787D01*
X142370000Y-107810395D01*
X143170608Y-107009787D01*
X143101143Y-106767603D01*
X142577698Y-106580856D01*
X142022632Y-106608638D01*
X141638857Y-106767603D01*
X141569392Y-107009787D01*
X89710000Y-107009787D01*
X89710000Y-99100000D01*
X93053165Y-99100000D01*
X93179284Y-99734043D01*
X93538441Y-100271559D01*
X94075957Y-100630716D01*
X94549955Y-100725000D01*
X96850045Y-100725000D01*
X97324043Y-100630716D01*
X97861559Y-100271559D01*
X98220716Y-99734043D01*
X98346835Y-99100000D01*
X98220716Y-98465957D01*
X97861559Y-97928441D01*
X97324043Y-97569284D01*
X96850045Y-97475000D01*
X94549955Y-97475000D01*
X94075957Y-97569284D01*
X93538441Y-97928441D01*
X93179284Y-98465957D01*
X93053165Y-99100000D01*
X89710000Y-99100000D01*
X89710000Y-93110000D01*
X93072560Y-93110000D01*
X93072560Y-95090000D01*
X93121843Y-95337765D01*
X93262191Y-95547809D01*
X93472235Y-95688157D01*
X93720000Y-95737440D01*
X97680000Y-95737440D01*
X97927765Y-95688157D01*
X98137809Y-95547809D01*
X98278157Y-95337765D01*
X98327440Y-95090000D01*
X98327440Y-93110000D01*
X98278157Y-92862235D01*
X98137809Y-92652191D01*
X97927765Y-92511843D01*
X97680000Y-92462560D01*
X93720000Y-92462560D01*
X93472235Y-92511843D01*
X93262191Y-92652191D01*
X93121843Y-92862235D01*
X93072560Y-93110000D01*
X89710000Y-93110000D01*
X89710000Y-80300000D01*
X93353165Y-80300000D01*
X93479284Y-80934043D01*
X93838441Y-81471559D01*
X94375957Y-81830716D01*
X94849955Y-81925000D01*
X97150045Y-81925000D01*
X97624043Y-81830716D01*
X98161559Y-81471559D01*
X98520716Y-80934043D01*
X98646835Y-80300000D01*
X98520716Y-79665957D01*
X98161559Y-79128441D01*
X97624043Y-78769284D01*
X97150045Y-78675000D01*
X94849955Y-78675000D01*
X94375957Y-78769284D01*
X93838441Y-79128441D01*
X93479284Y-79665957D01*
X93353165Y-80300000D01*
X89710000Y-80300000D01*
X89710000Y-74310000D01*
X93372560Y-74310000D01*
X93372560Y-76290000D01*
X93421843Y-76537765D01*
X93562191Y-76747809D01*
X93772235Y-76888157D01*
X94020000Y-76937440D01*
X97980000Y-76937440D01*
X98227765Y-76888157D01*
X98437809Y-76747809D01*
X98578157Y-76537765D01*
X98627440Y-76290000D01*
X98627440Y-74310000D01*
X98578157Y-74062235D01*
X98437809Y-73852191D01*
X98227765Y-73711843D01*
X97980000Y-73662560D01*
X94020000Y-73662560D01*
X93772235Y-73711843D01*
X93562191Y-73852191D01*
X93421843Y-74062235D01*
X93372560Y-74310000D01*
X89710000Y-74310000D01*
X89710000Y-59950458D01*
X93240000Y-59950458D01*
X93240000Y-60849542D01*
X93584065Y-61680187D01*
X94219813Y-62315935D01*
X95050458Y-62660000D01*
X95949542Y-62660000D01*
X96780187Y-62315935D01*
X96996122Y-62100000D01*
X113100060Y-62100000D01*
X113100060Y-64100000D01*
X113149343Y-64347765D01*
X113289691Y-64557809D01*
X113499735Y-64698157D01*
X113747500Y-64747440D01*
X115652500Y-64747440D01*
X115900265Y-64698157D01*
X116110309Y-64557809D01*
X116247255Y-64352857D01*
X116373076Y-64475973D01*
X116867020Y-64690563D01*
X117113000Y-64570594D01*
X117113000Y-63227000D01*
X117093000Y-63227000D01*
X117093000Y-62973000D01*
X117113000Y-62973000D01*
X117113000Y-62953000D01*
X117367000Y-62953000D01*
X117367000Y-62973000D01*
X117387000Y-62973000D01*
X117387000Y-63227000D01*
X117367000Y-63227000D01*
X117367000Y-64570594D01*
X117612980Y-64690563D01*
X118106924Y-64475973D01*
X118500841Y-64090526D01*
X118635477Y-64292023D01*
X119160590Y-64642891D01*
X119780000Y-64766100D01*
X120399411Y-64642891D01*
X120924523Y-64292023D01*
X121275391Y-63766910D01*
X121367500Y-63303849D01*
X121367500Y-62896150D01*
X121275391Y-62433089D01*
X120924523Y-61907977D01*
X120399410Y-61557109D01*
X119780000Y-61433900D01*
X119160589Y-61557109D01*
X118635477Y-61907977D01*
X118500841Y-62109474D01*
X118106924Y-61724027D01*
X117612980Y-61509437D01*
X117367002Y-61629405D01*
X117367002Y-61507799D01*
X126038302Y-52836500D01*
X138796468Y-52836500D01*
X138756900Y-52932026D01*
X138756900Y-53343774D01*
X138828810Y-53517379D01*
X138781869Y-53564320D01*
X138624300Y-53944726D01*
X138624300Y-54356474D01*
X138781869Y-54736880D01*
X139073020Y-55028031D01*
X139453426Y-55185600D01*
X139865174Y-55185600D01*
X140245580Y-55028031D01*
X140373355Y-54900256D01*
X140543037Y-54866504D01*
X140794429Y-54698529D01*
X140836831Y-54635070D01*
X141734802Y-53737100D01*
X146279489Y-53737100D01*
X146217569Y-53799020D01*
X146060000Y-54179426D01*
X146060000Y-54591174D01*
X146217569Y-54971580D01*
X146335001Y-55089012D01*
X146335000Y-59760998D01*
X131763899Y-74332100D01*
X131597826Y-74332100D01*
X131217420Y-74489669D01*
X130926269Y-74780820D01*
X130768700Y-75161226D01*
X130768700Y-75572974D01*
X130926269Y-75953380D01*
X131062994Y-76090105D01*
X128445861Y-78707238D01*
X128371163Y-78722096D01*
X128119771Y-78890071D01*
X128077371Y-78953527D01*
X127314630Y-79716269D01*
X127251171Y-79758671D01*
X127083196Y-80010064D01*
X127039100Y-80231749D01*
X127039100Y-80231753D01*
X127024212Y-80306600D01*
X127039100Y-80381447D01*
X127039101Y-82022348D01*
X127024212Y-82097200D01*
X127039101Y-82172052D01*
X127083197Y-82393737D01*
X127251172Y-82645129D01*
X127314628Y-82687529D01*
X128669571Y-84042473D01*
X128711971Y-84105929D01*
X128824824Y-84181335D01*
X128911644Y-84268155D01*
X115904710Y-97275089D01*
X115900874Y-97273500D01*
X115489126Y-97273500D01*
X115108720Y-97431069D01*
X114817569Y-97722220D01*
X114660000Y-98102626D01*
X114660000Y-98514374D01*
X114817569Y-98894780D01*
X115108720Y-99185931D01*
X115489126Y-99343500D01*
X115900874Y-99343500D01*
X116281280Y-99185931D01*
X116572431Y-98894780D01*
X116669877Y-98659524D01*
X151770001Y-63559401D01*
X151770000Y-106792700D01*
X151738663Y-106805680D01*
X151590322Y-106954021D01*
X151037231Y-106400930D01*
X150994829Y-106337471D01*
X150743437Y-106169496D01*
X150521752Y-106125400D01*
X150521747Y-106125400D01*
X150446900Y-106110512D01*
X150372053Y-106125400D01*
X146089446Y-106125400D01*
X146014599Y-106110512D01*
X145939752Y-106125400D01*
X145939748Y-106125400D01*
X145718063Y-106169496D01*
X145718061Y-106169497D01*
X145718062Y-106169497D01*
X145530126Y-106295071D01*
X145530124Y-106295073D01*
X145466671Y-106337471D01*
X145424273Y-106400925D01*
X145219218Y-106605980D01*
X145187881Y-106593000D01*
X144632119Y-106593000D01*
X144118663Y-106805680D01*
X143725680Y-107198663D01*
X143646572Y-107389647D01*
X143592397Y-107258857D01*
X143350213Y-107189392D01*
X142549605Y-107990000D01*
X143350213Y-108790608D01*
X143592397Y-108721143D01*
X143642535Y-108580607D01*
X143725680Y-108781337D01*
X144118663Y-109174320D01*
X144632119Y-109387000D01*
X145187881Y-109387000D01*
X145701337Y-109174320D01*
X145905444Y-108970213D01*
X146649392Y-108970213D01*
X146718857Y-109212397D01*
X147242302Y-109399144D01*
X147797368Y-109371362D01*
X148181143Y-109212397D01*
X148250608Y-108970213D01*
X147450000Y-108169605D01*
X146649392Y-108970213D01*
X145905444Y-108970213D01*
X146094320Y-108781337D01*
X146173428Y-108590353D01*
X146227603Y-108721143D01*
X146469787Y-108790608D01*
X147270395Y-107990000D01*
X147256253Y-107975858D01*
X147435858Y-107796253D01*
X147450000Y-107810395D01*
X147464143Y-107796253D01*
X147643748Y-107975858D01*
X147629605Y-107990000D01*
X148430213Y-108790608D01*
X148672397Y-108721143D01*
X148722535Y-108580607D01*
X148805680Y-108781337D01*
X149198663Y-109174320D01*
X149712119Y-109387000D01*
X150267881Y-109387000D01*
X150781337Y-109174320D01*
X150911578Y-109044079D01*
X151435173Y-109567675D01*
X151477571Y-109631129D01*
X151541024Y-109673527D01*
X151541026Y-109673529D01*
X151666402Y-109757302D01*
X151728963Y-109799104D01*
X151950648Y-109843200D01*
X151950652Y-109843200D01*
X152025499Y-109858088D01*
X152100346Y-109843200D01*
X152900753Y-109843200D01*
X152975600Y-109858088D01*
X153050447Y-109843200D01*
X153050452Y-109843200D01*
X153272137Y-109799104D01*
X153523529Y-109631129D01*
X153565931Y-109567670D01*
X154118972Y-109014629D01*
X154278663Y-109174320D01*
X154792119Y-109387000D01*
X155347881Y-109387000D01*
X155861337Y-109174320D01*
X156254320Y-108781337D01*
X156340000Y-108574487D01*
X156425680Y-108781337D01*
X156818663Y-109174320D01*
X157332119Y-109387000D01*
X157887881Y-109387000D01*
X158401337Y-109174320D01*
X158794320Y-108781337D01*
X158880000Y-108574487D01*
X158965680Y-108781337D01*
X159358663Y-109174320D01*
X159872119Y-109387000D01*
X160427881Y-109387000D01*
X160941337Y-109174320D01*
X161334320Y-108781337D01*
X161420000Y-108574487D01*
X161505680Y-108781337D01*
X161898663Y-109174320D01*
X162412119Y-109387000D01*
X162967881Y-109387000D01*
X163481337Y-109174320D01*
X163874320Y-108781337D01*
X163960000Y-108574487D01*
X164045680Y-108781337D01*
X164438663Y-109174320D01*
X164952119Y-109387000D01*
X165507881Y-109387000D01*
X166021337Y-109174320D01*
X166414320Y-108781337D01*
X166627000Y-108267881D01*
X166627000Y-107712119D01*
X166414320Y-107198663D01*
X166021337Y-106805680D01*
X165507881Y-106593000D01*
X164952119Y-106593000D01*
X164438663Y-106805680D01*
X164045680Y-107198663D01*
X163960000Y-107405513D01*
X163874320Y-107198663D01*
X163481337Y-106805680D01*
X162967881Y-106593000D01*
X162412119Y-106593000D01*
X161898663Y-106805680D01*
X161505680Y-107198663D01*
X161420000Y-107405513D01*
X161334320Y-107198663D01*
X160941337Y-106805680D01*
X160427881Y-106593000D01*
X159872119Y-106593000D01*
X159358663Y-106805680D01*
X158965680Y-107198663D01*
X158880000Y-107405513D01*
X158794320Y-107198663D01*
X158401337Y-106805680D01*
X157887881Y-106593000D01*
X157332119Y-106593000D01*
X156818663Y-106805680D01*
X156425680Y-107198663D01*
X156340000Y-107405513D01*
X156254320Y-107198663D01*
X155861337Y-106805680D01*
X155798110Y-106779491D01*
X162291851Y-100285750D01*
X179785000Y-100285750D01*
X179785000Y-101116309D01*
X179881673Y-101349698D01*
X180060301Y-101528327D01*
X180293690Y-101625000D01*
X182114250Y-101625000D01*
X182273000Y-101466250D01*
X182273000Y-100127000D01*
X179943750Y-100127000D01*
X179785000Y-100285750D01*
X162291851Y-100285750D01*
X163693910Y-98883691D01*
X179785000Y-98883691D01*
X179785000Y-99714250D01*
X179943750Y-99873000D01*
X182273000Y-99873000D01*
X182273000Y-98533750D01*
X182114250Y-98375000D01*
X180293690Y-98375000D01*
X180060301Y-98471673D01*
X179881673Y-98650302D01*
X179785000Y-98883691D01*
X163693910Y-98883691D01*
X166817602Y-95760000D01*
X179963446Y-95760000D01*
X180238441Y-96171559D01*
X180775957Y-96530716D01*
X181249955Y-96625000D01*
X183550045Y-96625000D01*
X183980801Y-96539317D01*
X183980801Y-98375000D01*
X182685750Y-98375000D01*
X182527000Y-98533750D01*
X182527000Y-99873000D01*
X182547000Y-99873000D01*
X182547000Y-100127000D01*
X182527000Y-100127000D01*
X182527000Y-101466250D01*
X182685750Y-101625000D01*
X183980801Y-101625000D01*
X183980800Y-123805533D01*
X183517000Y-123675000D01*
X182527000Y-123675000D01*
X182527000Y-125173000D01*
X182547000Y-125173000D01*
X182547000Y-125427000D01*
X182527000Y-125427000D01*
X182527000Y-126925000D01*
X183517000Y-126925000D01*
X183980800Y-126794467D01*
X183980800Y-128760682D01*
X183550045Y-128675000D01*
X181249955Y-128675000D01*
X180775957Y-128769284D01*
X180238441Y-129128441D01*
X179879284Y-129665957D01*
X179753165Y-130300000D01*
X179879284Y-130934043D01*
X180238441Y-131471559D01*
X180775957Y-131830716D01*
X181249955Y-131925000D01*
X183384898Y-131925000D01*
X181915528Y-133394371D01*
X181852072Y-133436771D01*
X181809672Y-133500227D01*
X181809671Y-133500228D01*
X181701204Y-133662560D01*
X180420000Y-133662560D01*
X180172235Y-133711843D01*
X179962191Y-133852191D01*
X179821843Y-134062235D01*
X179772560Y-134310000D01*
X179772560Y-136290000D01*
X179821843Y-136537765D01*
X179962191Y-136747809D01*
X180172235Y-136888157D01*
X180420000Y-136937440D01*
X184380000Y-136937440D01*
X184627765Y-136888157D01*
X184837809Y-136747809D01*
X184978157Y-136537765D01*
X185027440Y-136290000D01*
X185027440Y-134310000D01*
X184978157Y-134062235D01*
X184837809Y-133852191D01*
X184627765Y-133711843D01*
X184380000Y-133662560D01*
X183796941Y-133662560D01*
X185225273Y-132234229D01*
X185288729Y-132191829D01*
X185456704Y-131940437D01*
X185500800Y-131718752D01*
X185500800Y-131718748D01*
X185515688Y-131643901D01*
X185500800Y-131569054D01*
X185500800Y-84494648D01*
X185515688Y-84419800D01*
X185500800Y-84344952D01*
X185500800Y-84344948D01*
X185456704Y-84123263D01*
X185456704Y-84123262D01*
X185331129Y-83935327D01*
X185288729Y-83871871D01*
X185225273Y-83829471D01*
X170981552Y-69585750D01*
X179085000Y-69585750D01*
X179085000Y-70416309D01*
X179181673Y-70649698D01*
X179360301Y-70828327D01*
X179593690Y-70925000D01*
X181414250Y-70925000D01*
X181573000Y-70766250D01*
X181573000Y-69427000D01*
X181827000Y-69427000D01*
X181827000Y-70766250D01*
X181985750Y-70925000D01*
X183806310Y-70925000D01*
X184039699Y-70828327D01*
X184218327Y-70649698D01*
X184315000Y-70416309D01*
X184315000Y-69585750D01*
X184156250Y-69427000D01*
X181827000Y-69427000D01*
X181573000Y-69427000D01*
X179243750Y-69427000D01*
X179085000Y-69585750D01*
X170981552Y-69585750D01*
X169579493Y-68183691D01*
X179085000Y-68183691D01*
X179085000Y-69014250D01*
X179243750Y-69173000D01*
X181573000Y-69173000D01*
X181573000Y-67833750D01*
X181827000Y-67833750D01*
X181827000Y-69173000D01*
X184156250Y-69173000D01*
X184315000Y-69014250D01*
X184315000Y-68183691D01*
X184218327Y-67950302D01*
X184039699Y-67771673D01*
X183806310Y-67675000D01*
X181985750Y-67675000D01*
X181827000Y-67833750D01*
X181573000Y-67833750D01*
X181414250Y-67675000D01*
X179593690Y-67675000D01*
X179360301Y-67771673D01*
X179181673Y-67950302D01*
X179085000Y-68183691D01*
X169579493Y-68183691D01*
X161081552Y-59685750D01*
X162315000Y-59685750D01*
X162315000Y-60376310D01*
X162411673Y-60609699D01*
X162590302Y-60788327D01*
X162823691Y-60885000D01*
X163514250Y-60885000D01*
X163673000Y-60726250D01*
X163673000Y-59527000D01*
X163927000Y-59527000D01*
X163927000Y-60726250D01*
X164085750Y-60885000D01*
X164776309Y-60885000D01*
X165009698Y-60788327D01*
X165188327Y-60609699D01*
X165285000Y-60376310D01*
X165285000Y-59685750D01*
X165126250Y-59527000D01*
X163927000Y-59527000D01*
X163673000Y-59527000D01*
X162473750Y-59527000D01*
X162315000Y-59685750D01*
X161081552Y-59685750D01*
X156257301Y-54861500D01*
X160182253Y-54861500D01*
X160257100Y-54876388D01*
X160331947Y-54861500D01*
X160331952Y-54861500D01*
X160553637Y-54817404D01*
X160805029Y-54649429D01*
X160847431Y-54585970D01*
X161623402Y-53810000D01*
X162387353Y-53810000D01*
X162285908Y-54320000D01*
X162401161Y-54899418D01*
X162729375Y-55390625D01*
X163027761Y-55590000D01*
X162729375Y-55789375D01*
X162401161Y-56280582D01*
X162285908Y-56860000D01*
X162401161Y-57439418D01*
X162729375Y-57930625D01*
X162751033Y-57945096D01*
X162590302Y-58011673D01*
X162411673Y-58190301D01*
X162315000Y-58423690D01*
X162315000Y-59114250D01*
X162473750Y-59273000D01*
X163673000Y-59273000D01*
X163673000Y-59253000D01*
X163927000Y-59253000D01*
X163927000Y-59273000D01*
X165126250Y-59273000D01*
X165285000Y-59114250D01*
X165285000Y-58423690D01*
X165188327Y-58190301D01*
X165009698Y-58011673D01*
X164848967Y-57945096D01*
X164870625Y-57930625D01*
X165198839Y-57439418D01*
X165314092Y-56860000D01*
X165198839Y-56280582D01*
X164870625Y-55789375D01*
X164572239Y-55590000D01*
X164870625Y-55390625D01*
X165198839Y-54899418D01*
X165314092Y-54320000D01*
X165212647Y-53810000D01*
X169368599Y-53810000D01*
X178634701Y-63076103D01*
X178634700Y-64225148D01*
X178619811Y-64300000D01*
X178678796Y-64596537D01*
X178792095Y-64766100D01*
X178846771Y-64847929D01*
X179098163Y-65015904D01*
X179254800Y-65047061D01*
X179538441Y-65471559D01*
X180075957Y-65830716D01*
X180549955Y-65925000D01*
X182850045Y-65925000D01*
X183324043Y-65830716D01*
X183861559Y-65471559D01*
X184220716Y-64934043D01*
X184346835Y-64300000D01*
X184220716Y-63665957D01*
X183861559Y-63128441D01*
X183324043Y-62769284D01*
X182850045Y-62675000D01*
X180549955Y-62675000D01*
X180167552Y-62751065D01*
X180154700Y-62686452D01*
X180154700Y-62686448D01*
X180110604Y-62464763D01*
X179942629Y-62213371D01*
X179879173Y-62170971D01*
X177008202Y-59300000D01*
X179053165Y-59300000D01*
X179179284Y-59934043D01*
X179538441Y-60471559D01*
X180075957Y-60830716D01*
X180549955Y-60925000D01*
X182850045Y-60925000D01*
X183324043Y-60830716D01*
X183861559Y-60471559D01*
X184220716Y-59934043D01*
X184346835Y-59300000D01*
X184220716Y-58665957D01*
X183861559Y-58128441D01*
X183324043Y-57769284D01*
X182850045Y-57675000D01*
X180549955Y-57675000D01*
X180075957Y-57769284D01*
X179538441Y-58128441D01*
X179179284Y-58665957D01*
X179053165Y-59300000D01*
X177008202Y-59300000D01*
X172008202Y-54300000D01*
X179053165Y-54300000D01*
X179179284Y-54934043D01*
X179538441Y-55471559D01*
X180075957Y-55830716D01*
X180549955Y-55925000D01*
X182850045Y-55925000D01*
X183324043Y-55830716D01*
X183861559Y-55471559D01*
X184220716Y-54934043D01*
X184346835Y-54300000D01*
X184220716Y-53665957D01*
X183861559Y-53128441D01*
X183324043Y-52769284D01*
X182850045Y-52675000D01*
X180549955Y-52675000D01*
X180075957Y-52769284D01*
X179538441Y-53128441D01*
X179179284Y-53665957D01*
X179053165Y-54300000D01*
X172008202Y-54300000D01*
X170443400Y-52735199D01*
X170443400Y-43416101D01*
X172112928Y-41746573D01*
X192515000Y-41746573D01*
X192515000Y-43053427D01*
X193015111Y-44260803D01*
X193939197Y-45184889D01*
X195146573Y-45685000D01*
X196453427Y-45685000D01*
X197660803Y-45184889D01*
X198584889Y-44260803D01*
X199085000Y-43053427D01*
X199085000Y-41746573D01*
X198584889Y-40539197D01*
X197660803Y-39615111D01*
X196453427Y-39115000D01*
X195146573Y-39115000D01*
X193939197Y-39615111D01*
X193015111Y-40539197D01*
X192515000Y-41746573D01*
X172112928Y-41746573D01*
X178213899Y-35645603D01*
X178269284Y-35924042D01*
X178628441Y-36461559D01*
X179165957Y-36820716D01*
X179800000Y-36946835D01*
X180434042Y-36820716D01*
X180971559Y-36461559D01*
X181330716Y-35924043D01*
X181425000Y-35450045D01*
X181425000Y-34585750D01*
X183175000Y-34585750D01*
X183175000Y-36406310D01*
X183271673Y-36639699D01*
X183450302Y-36818327D01*
X183683691Y-36915000D01*
X184514250Y-36915000D01*
X184673000Y-36756250D01*
X184673000Y-34427000D01*
X184927000Y-34427000D01*
X184927000Y-36756250D01*
X185085750Y-36915000D01*
X185916309Y-36915000D01*
X186149698Y-36818327D01*
X186328327Y-36639699D01*
X186425000Y-36406310D01*
X186425000Y-34585750D01*
X186266250Y-34427000D01*
X184927000Y-34427000D01*
X184673000Y-34427000D01*
X183333750Y-34427000D01*
X183175000Y-34585750D01*
X181425000Y-34585750D01*
X181425000Y-33149955D01*
X181330716Y-32675957D01*
X181008476Y-32193690D01*
X183175000Y-32193690D01*
X183175000Y-34014250D01*
X183333750Y-34173000D01*
X184673000Y-34173000D01*
X184673000Y-31843750D01*
X184927000Y-31843750D01*
X184927000Y-34173000D01*
X186266250Y-34173000D01*
X186425000Y-34014250D01*
X186425000Y-32193690D01*
X186328327Y-31960301D01*
X186149698Y-31781673D01*
X185916309Y-31685000D01*
X185085750Y-31685000D01*
X184927000Y-31843750D01*
X184673000Y-31843750D01*
X184514250Y-31685000D01*
X183683691Y-31685000D01*
X183450302Y-31781673D01*
X183271673Y-31960301D01*
X183175000Y-32193690D01*
X181008476Y-32193690D01*
X180971559Y-32138441D01*
X180434043Y-31779284D01*
X179800000Y-31653165D01*
X179165958Y-31779284D01*
X178628442Y-32138441D01*
X178269285Y-32675957D01*
X178175001Y-33149955D01*
X178175001Y-33592890D01*
X178039981Y-33683108D01*
X177936771Y-33752071D01*
X177894371Y-33815527D01*
X169198928Y-42510971D01*
X169135472Y-42553371D01*
X169093072Y-42616827D01*
X169093071Y-42616828D01*
X168967497Y-42804763D01*
X168908512Y-43101300D01*
X168923401Y-43176152D01*
X168923400Y-52290000D01*
X165212647Y-52290000D01*
X165314092Y-51780000D01*
X165198839Y-51200582D01*
X164870625Y-50709375D01*
X164572239Y-50510000D01*
X164870625Y-50310625D01*
X165198839Y-49819418D01*
X165314092Y-49240000D01*
X165198839Y-48660582D01*
X164870625Y-48169375D01*
X164572239Y-47970000D01*
X164870625Y-47770625D01*
X165198839Y-47279418D01*
X165314092Y-46700000D01*
X165198839Y-46120582D01*
X164870625Y-45629375D01*
X164379418Y-45301161D01*
X163946256Y-45215000D01*
X163653744Y-45215000D01*
X163220582Y-45301161D01*
X162729375Y-45629375D01*
X162401161Y-46120582D01*
X162285908Y-46700000D01*
X162401161Y-47279418D01*
X162729375Y-47770625D01*
X163027761Y-47970000D01*
X162729375Y-48169375D01*
X162401161Y-48660582D01*
X162285908Y-49240000D01*
X162401161Y-49819418D01*
X162729375Y-50310625D01*
X163027761Y-50510000D01*
X162729375Y-50709375D01*
X162401161Y-51200582D01*
X162285908Y-51780000D01*
X162387353Y-52290000D01*
X161383448Y-52290000D01*
X161308600Y-52275112D01*
X161233752Y-52290000D01*
X161233748Y-52290000D01*
X161012063Y-52334096D01*
X160760671Y-52502071D01*
X160718271Y-52565527D01*
X159942299Y-53341500D01*
X155593700Y-53341500D01*
X155593700Y-53165426D01*
X155436131Y-52785020D01*
X155144980Y-52493869D01*
X154764574Y-52336300D01*
X154598502Y-52336300D01*
X153403931Y-51141730D01*
X153361529Y-51078271D01*
X153110137Y-50910296D01*
X152888452Y-50866200D01*
X152888447Y-50866200D01*
X152813600Y-50851312D01*
X152738753Y-50866200D01*
X142593602Y-50866200D01*
X127075388Y-35347987D01*
X127270689Y-35217490D01*
X136502271Y-44449073D01*
X136544671Y-44512529D01*
X136796063Y-44680504D01*
X137017748Y-44724600D01*
X137017752Y-44724600D01*
X137092599Y-44739488D01*
X137167446Y-44724600D01*
X146754389Y-44724600D01*
X146871820Y-44842031D01*
X147252226Y-44999600D01*
X147663974Y-44999600D01*
X148044380Y-44842031D01*
X148166055Y-44720356D01*
X150445444Y-46999745D01*
X150422569Y-47022620D01*
X150265000Y-47403026D01*
X150265000Y-47814774D01*
X150422569Y-48195180D01*
X150713720Y-48486331D01*
X151094126Y-48643900D01*
X151505874Y-48643900D01*
X151886280Y-48486331D01*
X152177431Y-48195180D01*
X152335000Y-47814774D01*
X152335000Y-47403026D01*
X152177431Y-47022620D01*
X152060000Y-46905189D01*
X152060000Y-46854346D01*
X152074888Y-46779499D01*
X152060000Y-46704652D01*
X152060000Y-46704648D01*
X152015904Y-46482963D01*
X151847929Y-46231571D01*
X151784473Y-46189171D01*
X136610831Y-31015530D01*
X136568429Y-30952071D01*
X136317037Y-30784096D01*
X136095352Y-30740000D01*
X136095347Y-30740000D01*
X136020500Y-30725112D01*
X135945653Y-30740000D01*
X130397440Y-30740000D01*
X130397440Y-30650000D01*
X130348157Y-30402235D01*
X130207809Y-30192191D01*
X129997765Y-30051843D01*
X129750000Y-30002560D01*
X128050000Y-30002560D01*
X127802235Y-30051843D01*
X127592191Y-30192191D01*
X127451843Y-30402235D01*
X127442816Y-30447619D01*
X127430625Y-30429375D01*
X126939418Y-30101161D01*
X126506256Y-30015000D01*
X126213744Y-30015000D01*
X125780582Y-30101161D01*
X125289375Y-30429375D01*
X125090000Y-30727761D01*
X124890625Y-30429375D01*
X124399418Y-30101161D01*
X123966256Y-30015000D01*
X123673744Y-30015000D01*
X123240582Y-30101161D01*
X122749375Y-30429375D01*
X122550000Y-30727761D01*
X122350625Y-30429375D01*
X121859418Y-30101161D01*
X121426256Y-30015000D01*
X121133744Y-30015000D01*
X120700582Y-30101161D01*
X120209375Y-30429375D01*
X119881161Y-30920582D01*
X119765908Y-31500000D01*
X119881161Y-32079418D01*
X120209375Y-32570625D01*
X120507761Y-32770000D01*
X120209375Y-32969375D01*
X119881161Y-33460582D01*
X119765908Y-34040000D01*
X119881161Y-34619418D01*
X120209375Y-35110625D01*
X120700582Y-35438839D01*
X121133744Y-35525000D01*
X121426256Y-35525000D01*
X121859418Y-35438839D01*
X122350625Y-35110625D01*
X122550000Y-34812239D01*
X122749375Y-35110625D01*
X123240582Y-35438839D01*
X123673744Y-35525000D01*
X123966256Y-35525000D01*
X124399418Y-35438839D01*
X124769414Y-35191615D01*
X140894298Y-51316500D01*
X125798346Y-51316500D01*
X125723499Y-51301612D01*
X125648652Y-51316500D01*
X125648648Y-51316500D01*
X125426963Y-51360596D01*
X125175571Y-51528571D01*
X125133171Y-51592027D01*
X115272639Y-61452560D01*
X113747500Y-61452560D01*
X113499735Y-61501843D01*
X113289691Y-61642191D01*
X113149343Y-61852235D01*
X113100060Y-62100000D01*
X96996122Y-62100000D01*
X97415935Y-61680187D01*
X97760000Y-60849542D01*
X97760000Y-59950458D01*
X97415935Y-59119813D01*
X96780187Y-58484065D01*
X95949542Y-58140000D01*
X95050458Y-58140000D01*
X94219813Y-58484065D01*
X93584065Y-59119813D01*
X93240000Y-59950458D01*
X89710000Y-59950458D01*
X89710000Y-53289381D01*
X96770000Y-53289381D01*
X96770000Y-53794619D01*
X96963346Y-54261397D01*
X97259949Y-54558000D01*
X96963346Y-54854603D01*
X96770000Y-55321381D01*
X96770000Y-55826619D01*
X96963346Y-56293397D01*
X97259949Y-56590000D01*
X96963346Y-56886603D01*
X96770000Y-57353381D01*
X96770000Y-57858619D01*
X96963346Y-58325397D01*
X97320603Y-58682654D01*
X97787381Y-58876000D01*
X98292619Y-58876000D01*
X98759397Y-58682654D01*
X99116654Y-58325397D01*
X99310000Y-57858619D01*
X99310000Y-57754218D01*
X99565381Y-57860000D01*
X100070619Y-57860000D01*
X100537397Y-57666654D01*
X100894654Y-57309397D01*
X101088000Y-56842619D01*
X101088000Y-56337381D01*
X100894654Y-55870603D01*
X100598051Y-55574000D01*
X100894654Y-55277397D01*
X101088000Y-54810619D01*
X101088000Y-54305381D01*
X100894654Y-53838603D01*
X100598051Y-53542000D01*
X100894654Y-53245397D01*
X101088000Y-52778619D01*
X101088000Y-52273381D01*
X100894654Y-51806603D01*
X100537397Y-51449346D01*
X100513097Y-51439281D01*
X100526528Y-51382133D01*
X99818000Y-50673605D01*
X99803858Y-50687748D01*
X99624253Y-50508143D01*
X99638395Y-50494000D01*
X99997605Y-50494000D01*
X100706133Y-51202528D01*
X100935179Y-51148697D01*
X101100681Y-50671336D01*
X101070906Y-50166977D01*
X100935179Y-49839303D01*
X100706133Y-49785472D01*
X99997605Y-50494000D01*
X99638395Y-50494000D01*
X98929867Y-49785472D01*
X98700821Y-49839303D01*
X98535319Y-50316664D01*
X98536579Y-50338001D01*
X98217336Y-50227319D01*
X97712977Y-50257094D01*
X97385303Y-50392821D01*
X97331472Y-50621867D01*
X98040000Y-51330395D01*
X98054143Y-51316253D01*
X98233748Y-51495858D01*
X98219605Y-51510000D01*
X98233748Y-51524143D01*
X98054143Y-51703748D01*
X98040000Y-51689605D01*
X97331472Y-52398133D01*
X97344903Y-52455281D01*
X97320603Y-52465346D01*
X96963346Y-52822603D01*
X96770000Y-53289381D01*
X89710000Y-53289381D01*
X89710000Y-51332664D01*
X96757319Y-51332664D01*
X96787094Y-51837023D01*
X96922821Y-52164697D01*
X97151867Y-52218528D01*
X97860395Y-51510000D01*
X97151867Y-50801472D01*
X96922821Y-50855303D01*
X96757319Y-51332664D01*
X89710000Y-51332664D01*
X89710000Y-47250458D01*
X93240000Y-47250458D01*
X93240000Y-48149542D01*
X93584065Y-48980187D01*
X94219813Y-49615935D01*
X95050458Y-49960000D01*
X95949542Y-49960000D01*
X96780187Y-49615935D01*
X96790255Y-49605867D01*
X99109472Y-49605867D01*
X99818000Y-50314395D01*
X100526528Y-49605867D01*
X100472697Y-49376821D01*
X99995336Y-49211319D01*
X99490977Y-49241094D01*
X99163303Y-49376821D01*
X99109472Y-49605867D01*
X96790255Y-49605867D01*
X97415935Y-48980187D01*
X97760000Y-48149542D01*
X97760000Y-47250458D01*
X97415935Y-46419813D01*
X96780187Y-45784065D01*
X95949542Y-45440000D01*
X95050458Y-45440000D01*
X94219813Y-45784065D01*
X93584065Y-46419813D01*
X93240000Y-47250458D01*
X89710000Y-47250458D01*
X89710000Y-34646573D01*
X94115000Y-34646573D01*
X94115000Y-35953427D01*
X94615111Y-37160803D01*
X95539197Y-38084889D01*
X96746573Y-38585000D01*
X98053427Y-38585000D01*
X99260803Y-38084889D01*
X100184889Y-37160803D01*
X100685000Y-35953427D01*
X100685000Y-34646573D01*
X100184889Y-33439197D01*
X99260803Y-32515111D01*
X98053427Y-32015000D01*
X96746573Y-32015000D01*
X95539197Y-32515111D01*
X94615111Y-33439197D01*
X94115000Y-34646573D01*
X89710000Y-34646573D01*
X89710000Y-28010000D01*
X200290000Y-28010000D01*
X200290001Y-151690000D01*
G36*
X146650298Y-43204600D02*
X137407402Y-43204600D01*
X129559104Y-35356303D01*
X129666924Y-35311645D01*
X130095183Y-34921358D01*
X130341486Y-34396892D01*
X130220819Y-34167000D01*
X129027000Y-34167000D01*
X129027000Y-34187000D01*
X128773000Y-34187000D01*
X128773000Y-34167000D01*
X128753000Y-34167000D01*
X128753000Y-33913000D01*
X128773000Y-33913000D01*
X128773000Y-33893000D01*
X129027000Y-33893000D01*
X129027000Y-33913000D01*
X130220819Y-33913000D01*
X130341486Y-33683108D01*
X130095183Y-33158642D01*
X129888145Y-32969961D01*
X129997765Y-32948157D01*
X130207809Y-32807809D01*
X130348157Y-32597765D01*
X130397440Y-32350000D01*
X130397440Y-32260000D01*
X135705699Y-32260000D01*
X146650298Y-43204600D01*
X146650298Y-43204600D01*
G37*
X146650298Y-43204600D02*
X137407402Y-43204600D01*
X129559104Y-35356303D01*
X129666924Y-35311645D01*
X130095183Y-34921358D01*
X130341486Y-34396892D01*
X130220819Y-34167000D01*
X129027000Y-34167000D01*
X129027000Y-34187000D01*
X128773000Y-34187000D01*
X128773000Y-34167000D01*
X128753000Y-34167000D01*
X128753000Y-33913000D01*
X128773000Y-33913000D01*
X128773000Y-33893000D01*
X129027000Y-33893000D01*
X129027000Y-33913000D01*
X130220819Y-33913000D01*
X130341486Y-33683108D01*
X130095183Y-33158642D01*
X129888145Y-32969961D01*
X129997765Y-32948157D01*
X130207809Y-32807809D01*
X130348157Y-32597765D01*
X130397440Y-32350000D01*
X130397440Y-32260000D01*
X135705699Y-32260000D01*
X146650298Y-43204600D01*
G04 #@! TD*
M02*
