M48
;DRILL file {KiCad 5.0.1-33cea8e~66~ubuntu18.04.1} date Wed 17 Oct 2018 12:33:45 PM EDT
;FORMAT={-:-/ absolute / metric / decimal}
FMAT,2
METRIC,TZ
T1C0.400
T2C0.889
T3C1.000
T4C1.100
T5C1.320
T6C2.159
T7C3.250
T8C3.000
%
G90
G05
M71
T1
X115.695Y-98.308
X128.528Y-80.637
X128.942Y-82.214
X129.665Y-83.558
X131.804Y-75.367
X132.563Y-77.513
X139.659Y-54.151
X139.792Y-53.138
X147.095Y-54.385
X147.458Y-43.965
X148.027Y-53.702
X148.758Y-54.385
X151.094Y-61.445
X151.3Y-47.609
X151.771Y-62.483
X151.772Y-60.675
X154.559Y-53.371
X160.1Y-89.873
X162.381Y-90.
T2
X98.04Y-51.51
X98.04Y-53.542
X98.04Y-55.574
X98.04Y-57.606
X99.818Y-50.494
X99.818Y-52.526
X99.818Y-54.558
X99.818Y-56.59
T3
X163.8Y-46.7
X163.8Y-49.24
X163.8Y-51.78
X163.8Y-54.32
X163.8Y-56.86
X163.8Y-59.4
X121.28Y-31.5
X121.28Y-34.04
X123.82Y-31.5
X123.82Y-34.04
X126.36Y-31.5
X126.36Y-34.04
X128.9Y-31.5
X128.9Y-34.04
X142.37Y-107.99
X144.91Y-107.99
X147.45Y-107.99
X149.99Y-107.99
X152.53Y-107.99
X155.07Y-107.99
X157.61Y-107.99
X160.15Y-107.99
X162.69Y-107.99
X165.23Y-107.99
T4
X114.7Y-63.1
X117.24Y-63.1
X119.78Y-63.1
T5
X95.7Y-94.1
X95.7Y-99.1
X95.5Y-113.5
X95.5Y-118.5
X179.8Y-34.3
X184.8Y-34.3
X182.4Y-85.
X182.4Y-90.
X182.4Y-95.
X182.4Y-100.
X181.7Y-54.3
X181.7Y-59.3
X181.7Y-64.3
X181.7Y-69.3
X182.4Y-125.3
X182.4Y-130.3
X182.4Y-135.3
X96.Y-75.3
X96.Y-80.3
X95.9Y-131.3
X95.9Y-136.3
T6
X142.37Y-142.28
X165.23Y-111.8
T7
X95.5Y-47.7
X95.5Y-60.4
T8
X97.4Y-35.3
X186.4Y-147.7
X109.5Y-147.7
X195.8Y-42.4
T0
M30
