G04 #@! TF.GenerationSoftware,KiCad,Pcbnew,5.0.0-fee4fd1~66~ubuntu18.04.1*
G04 #@! TF.CreationDate,2018-09-20T21:41:55-04:00*
G04 #@! TF.ProjectId,BackPanel,4261636B50616E656C2E6B696361645F,rev?*
G04 #@! TF.SameCoordinates,Original*
G04 #@! TF.FileFunction,Soldermask,Bot*
G04 #@! TF.FilePolarity,Negative*
%FSLAX46Y46*%
G04 Gerber Fmt 4.6, Leading zero omitted, Abs format (unit mm)*
G04 Created by KiCad (PCBNEW 5.0.0-fee4fd1~66~ubuntu18.04.1) date Thu Sep 20 21:41:55 2018*
%MOMM*%
%LPD*%
G01*
G04 APERTURE LIST*
%ADD10C,2.813000*%
%ADD11C,1.924000*%
%ADD12R,2.100000X2.100000*%
%ADD13O,2.100000X2.100000*%
%ADD14R,2.305000X2.400000*%
%ADD15O,2.305000X2.400000*%
%ADD16C,3.650000*%
%ADD17C,1.670000*%
%ADD18C,5.700000*%
%ADD19O,4.360000X2.380000*%
%ADD20R,4.360000X2.380000*%
G04 APERTURE END LIST*
D10*
G04 #@! TO.C,U5*
X142370000Y-142280000D03*
X165230000Y-111800000D03*
D11*
X142370000Y-107990000D03*
X144910000Y-107990000D03*
X147450000Y-107990000D03*
X149990000Y-107990000D03*
X152530000Y-107990000D03*
X155070000Y-107990000D03*
X157610000Y-107990000D03*
X160150000Y-107990000D03*
X162690000Y-107990000D03*
X165230000Y-107990000D03*
G04 #@! TD*
D12*
G04 #@! TO.C,J2*
X128900000Y-31500000D03*
D13*
X128900000Y-34040000D03*
X126360000Y-31500000D03*
X126360000Y-34040000D03*
X123820000Y-31500000D03*
X123820000Y-34040000D03*
X121280000Y-31500000D03*
X121280000Y-34040000D03*
G04 #@! TD*
D12*
G04 #@! TO.C,J3*
X177700000Y-31500000D03*
D13*
X180240000Y-31500000D03*
X182780000Y-31500000D03*
X185320000Y-31500000D03*
X187860000Y-31500000D03*
X190400000Y-31500000D03*
G04 #@! TD*
D14*
G04 #@! TO.C,U2*
X114700000Y-63100000D03*
D15*
X117240000Y-63100000D03*
X119780000Y-63100000D03*
G04 #@! TD*
D16*
G04 #@! TO.C,J1*
X95500000Y-47700000D03*
X95500000Y-60400000D03*
D17*
X99818000Y-50494000D03*
X98040000Y-51510000D03*
X99818000Y-52526000D03*
X98040000Y-53542000D03*
X99818000Y-54558000D03*
X98040000Y-55574000D03*
X99818000Y-56590000D03*
X98040000Y-57606000D03*
G04 #@! TD*
D18*
G04 #@! TO.C,H1*
X195800000Y-42400000D03*
G04 #@! TD*
G04 #@! TO.C,H2*
X186400000Y-147700000D03*
G04 #@! TD*
G04 #@! TO.C,H3*
X109500000Y-147700000D03*
G04 #@! TD*
D19*
G04 #@! TO.C,J4*
X96000000Y-80300000D03*
D20*
X96000000Y-75300000D03*
G04 #@! TD*
G04 #@! TO.C,J5*
X95700000Y-94100000D03*
D19*
X95700000Y-99100000D03*
G04 #@! TD*
D20*
G04 #@! TO.C,J6*
X95500000Y-113500000D03*
D19*
X95500000Y-118500000D03*
G04 #@! TD*
G04 #@! TO.C,J7*
X95900000Y-136300000D03*
D20*
X95900000Y-131300000D03*
G04 #@! TD*
D19*
G04 #@! TO.C,J8*
X182400000Y-90000000D03*
X182400000Y-85000000D03*
X182400000Y-95000000D03*
D20*
X182400000Y-100000000D03*
G04 #@! TD*
G04 #@! TO.C,J9*
X181700000Y-69300000D03*
D19*
X181700000Y-64300000D03*
X181700000Y-54300000D03*
X181700000Y-59300000D03*
G04 #@! TD*
D20*
G04 #@! TO.C,J10*
X182400000Y-135300000D03*
D19*
X182400000Y-130300000D03*
X182400000Y-125300000D03*
G04 #@! TD*
D18*
G04 #@! TO.C,M4*
X97400000Y-35300000D03*
G04 #@! TD*
M02*
