G04 #@! TF.GenerationSoftware,KiCad,Pcbnew,5.0.0-fee4fd1~66~ubuntu18.04.1*
G04 #@! TF.CreationDate,2018-09-20T21:41:55-04:00*
G04 #@! TF.ProjectId,BackPanel,4261636B50616E656C2E6B696361645F,rev?*
G04 #@! TF.SameCoordinates,Original*
G04 #@! TF.FileFunction,Legend,Top*
G04 #@! TF.FilePolarity,Positive*
%FSLAX46Y46*%
G04 Gerber Fmt 4.6, Leading zero omitted, Abs format (unit mm)*
G04 Created by KiCad (PCBNEW 5.0.0-fee4fd1~66~ubuntu18.04.1) date Thu Sep 20 21:41:55 2018*
%MOMM*%
%LPD*%
G01*
G04 APERTURE LIST*
%ADD10C,0.300000*%
%ADD11C,0.500000*%
%ADD12C,0.150000*%
%ADD13C,0.120000*%
G04 APERTURE END LIST*
D10*
X126921428Y-35957142D02*
X126921428Y-36885714D01*
X126350000Y-36385714D01*
X126350000Y-36600000D01*
X126278571Y-36742857D01*
X126207142Y-36814285D01*
X126064285Y-36885714D01*
X125707142Y-36885714D01*
X125564285Y-36814285D01*
X125492857Y-36742857D01*
X125421428Y-36600000D01*
X125421428Y-36171428D01*
X125492857Y-36028571D01*
X125564285Y-35957142D01*
X125564285Y-37528571D02*
X125492857Y-37600000D01*
X125421428Y-37528571D01*
X125492857Y-37457142D01*
X125564285Y-37528571D01*
X125421428Y-37528571D01*
X126921428Y-38100000D02*
X126921428Y-39028571D01*
X126350000Y-38528571D01*
X126350000Y-38742857D01*
X126278571Y-38885714D01*
X126207142Y-38957142D01*
X126064285Y-39028571D01*
X125707142Y-39028571D01*
X125564285Y-38957142D01*
X125492857Y-38885714D01*
X125421428Y-38742857D01*
X125421428Y-38314285D01*
X125492857Y-38171428D01*
X125564285Y-38100000D01*
X126421428Y-39528571D02*
X125421428Y-39885714D01*
X126421428Y-40242857D01*
X129950000Y-37157142D02*
X130021428Y-37014285D01*
X130021428Y-36800000D01*
X129950000Y-36585714D01*
X129807142Y-36442857D01*
X129664285Y-36371428D01*
X129378571Y-36300000D01*
X129164285Y-36300000D01*
X128878571Y-36371428D01*
X128735714Y-36442857D01*
X128592857Y-36585714D01*
X128521428Y-36800000D01*
X128521428Y-36942857D01*
X128592857Y-37157142D01*
X128664285Y-37228571D01*
X129164285Y-37228571D01*
X129164285Y-36942857D01*
X128521428Y-37871428D02*
X130021428Y-37871428D01*
X128521428Y-38728571D01*
X130021428Y-38728571D01*
X128521428Y-39442857D02*
X130021428Y-39442857D01*
X130021428Y-39800000D01*
X129950000Y-40014285D01*
X129807142Y-40157142D01*
X129664285Y-40228571D01*
X129378571Y-40300000D01*
X129164285Y-40300000D01*
X128878571Y-40228571D01*
X128735714Y-40157142D01*
X128592857Y-40014285D01*
X128521428Y-39800000D01*
X128521428Y-39442857D01*
X146200000Y-29378571D02*
X146200000Y-27878571D01*
X146700000Y-28950000D01*
X147200000Y-27878571D01*
X147200000Y-29378571D01*
X148128571Y-29378571D02*
X147985714Y-29307142D01*
X147914285Y-29235714D01*
X147842857Y-29092857D01*
X147842857Y-28664285D01*
X147914285Y-28521428D01*
X147985714Y-28450000D01*
X148128571Y-28378571D01*
X148342857Y-28378571D01*
X148485714Y-28450000D01*
X148557142Y-28521428D01*
X148628571Y-28664285D01*
X148628571Y-29092857D01*
X148557142Y-29235714D01*
X148485714Y-29307142D01*
X148342857Y-29378571D01*
X148128571Y-29378571D01*
X149914285Y-29378571D02*
X149914285Y-27878571D01*
X149914285Y-29307142D02*
X149771428Y-29378571D01*
X149485714Y-29378571D01*
X149342857Y-29307142D01*
X149271428Y-29235714D01*
X149200000Y-29092857D01*
X149200000Y-28664285D01*
X149271428Y-28521428D01*
X149342857Y-28450000D01*
X149485714Y-28378571D01*
X149771428Y-28378571D01*
X149914285Y-28450000D01*
X150628571Y-29378571D02*
X150628571Y-27878571D01*
X150628571Y-28450000D02*
X150771428Y-28378571D01*
X151057142Y-28378571D01*
X151200000Y-28450000D01*
X151271428Y-28521428D01*
X151342857Y-28664285D01*
X151342857Y-29092857D01*
X151271428Y-29235714D01*
X151200000Y-29307142D01*
X151057142Y-29378571D01*
X150771428Y-29378571D01*
X150628571Y-29307142D01*
X152628571Y-28378571D02*
X152628571Y-29378571D01*
X151985714Y-28378571D02*
X151985714Y-29164285D01*
X152057142Y-29307142D01*
X152200000Y-29378571D01*
X152414285Y-29378571D01*
X152557142Y-29307142D01*
X152628571Y-29235714D01*
X153271428Y-29307142D02*
X153414285Y-29378571D01*
X153700000Y-29378571D01*
X153842857Y-29307142D01*
X153914285Y-29164285D01*
X153914285Y-29092857D01*
X153842857Y-28950000D01*
X153700000Y-28878571D01*
X153485714Y-28878571D01*
X153342857Y-28807142D01*
X153271428Y-28664285D01*
X153271428Y-28592857D01*
X153342857Y-28450000D01*
X153485714Y-28378571D01*
X153700000Y-28378571D01*
X153842857Y-28450000D01*
X155700000Y-29378571D02*
X155700000Y-27878571D01*
X156414285Y-29378571D02*
X156414285Y-27878571D01*
X156771428Y-27878571D01*
X156985714Y-27950000D01*
X157128571Y-28092857D01*
X157200000Y-28235714D01*
X157271428Y-28521428D01*
X157271428Y-28735714D01*
X157200000Y-29021428D01*
X157128571Y-29164285D01*
X156985714Y-29307142D01*
X156771428Y-29378571D01*
X156414285Y-29378571D01*
X160121428Y-40600000D02*
X160121428Y-39742857D01*
X160121428Y-40171428D02*
X161621428Y-40171428D01*
X161407142Y-40028571D01*
X161264285Y-39885714D01*
X161192857Y-39742857D01*
X161478571Y-41171428D02*
X161550000Y-41242857D01*
X161621428Y-41385714D01*
X161621428Y-41742857D01*
X161550000Y-41885714D01*
X161478571Y-41957142D01*
X161335714Y-42028571D01*
X161192857Y-42028571D01*
X160978571Y-41957142D01*
X160121428Y-41100000D01*
X160121428Y-42028571D01*
X160978571Y-42885714D02*
X161050000Y-42742857D01*
X161121428Y-42671428D01*
X161264285Y-42600000D01*
X161335714Y-42600000D01*
X161478571Y-42671428D01*
X161550000Y-42742857D01*
X161621428Y-42885714D01*
X161621428Y-43171428D01*
X161550000Y-43314285D01*
X161478571Y-43385714D01*
X161335714Y-43457142D01*
X161264285Y-43457142D01*
X161121428Y-43385714D01*
X161050000Y-43314285D01*
X160978571Y-43171428D01*
X160978571Y-42885714D01*
X160907142Y-42742857D01*
X160835714Y-42671428D01*
X160692857Y-42600000D01*
X160407142Y-42600000D01*
X160264285Y-42671428D01*
X160192857Y-42742857D01*
X160121428Y-42885714D01*
X160121428Y-43171428D01*
X160192857Y-43314285D01*
X160264285Y-43385714D01*
X160407142Y-43457142D01*
X160692857Y-43457142D01*
X160835714Y-43385714D01*
X160907142Y-43314285D01*
X160978571Y-43171428D01*
X158821428Y-40571428D02*
X158821428Y-40285714D01*
X158750000Y-40142857D01*
X158678571Y-40071428D01*
X158464285Y-39928571D01*
X158178571Y-39857142D01*
X157607142Y-39857142D01*
X157464285Y-39928571D01*
X157392857Y-40000000D01*
X157321428Y-40142857D01*
X157321428Y-40428571D01*
X157392857Y-40571428D01*
X157464285Y-40642857D01*
X157607142Y-40714285D01*
X157964285Y-40714285D01*
X158107142Y-40642857D01*
X158178571Y-40571428D01*
X158250000Y-40428571D01*
X158250000Y-40142857D01*
X158178571Y-40000000D01*
X158107142Y-39928571D01*
X157964285Y-39857142D01*
X158321428Y-42000000D02*
X157321428Y-42000000D01*
X158892857Y-41642857D02*
X157821428Y-41285714D01*
X157821428Y-42214285D01*
X156321428Y-39885714D02*
X156321428Y-40814285D01*
X155750000Y-40314285D01*
X155750000Y-40528571D01*
X155678571Y-40671428D01*
X155607142Y-40742857D01*
X155464285Y-40814285D01*
X155107142Y-40814285D01*
X154964285Y-40742857D01*
X154892857Y-40671428D01*
X154821428Y-40528571D01*
X154821428Y-40100000D01*
X154892857Y-39957142D01*
X154964285Y-39885714D01*
X156178571Y-41385714D02*
X156250000Y-41457142D01*
X156321428Y-41600000D01*
X156321428Y-41957142D01*
X156250000Y-42100000D01*
X156178571Y-42171428D01*
X156035714Y-42242857D01*
X155892857Y-42242857D01*
X155678571Y-42171428D01*
X154821428Y-41314285D01*
X154821428Y-42242857D01*
X152221428Y-40814285D02*
X152221428Y-39957142D01*
X152221428Y-40385714D02*
X153721428Y-40385714D01*
X153507142Y-40242857D01*
X153364285Y-40100000D01*
X153292857Y-39957142D01*
X153721428Y-42100000D02*
X153721428Y-41814285D01*
X153650000Y-41671428D01*
X153578571Y-41600000D01*
X153364285Y-41457142D01*
X153078571Y-41385714D01*
X152507142Y-41385714D01*
X152364285Y-41457142D01*
X152292857Y-41528571D01*
X152221428Y-41671428D01*
X152221428Y-41957142D01*
X152292857Y-42100000D01*
X152364285Y-42171428D01*
X152507142Y-42242857D01*
X152864285Y-42242857D01*
X153007142Y-42171428D01*
X153078571Y-42100000D01*
X153150000Y-41957142D01*
X153150000Y-41671428D01*
X153078571Y-41528571D01*
X153007142Y-41457142D01*
X152864285Y-41385714D01*
X150278571Y-40857142D02*
X150350000Y-40714285D01*
X150421428Y-40642857D01*
X150564285Y-40571428D01*
X150635714Y-40571428D01*
X150778571Y-40642857D01*
X150850000Y-40714285D01*
X150921428Y-40857142D01*
X150921428Y-41142857D01*
X150850000Y-41285714D01*
X150778571Y-41357142D01*
X150635714Y-41428571D01*
X150564285Y-41428571D01*
X150421428Y-41357142D01*
X150350000Y-41285714D01*
X150278571Y-41142857D01*
X150278571Y-40857142D01*
X150207142Y-40714285D01*
X150135714Y-40642857D01*
X149992857Y-40571428D01*
X149707142Y-40571428D01*
X149564285Y-40642857D01*
X149492857Y-40714285D01*
X149421428Y-40857142D01*
X149421428Y-41142857D01*
X149492857Y-41285714D01*
X149564285Y-41357142D01*
X149707142Y-41428571D01*
X149992857Y-41428571D01*
X150135714Y-41357142D01*
X150207142Y-41285714D01*
X150278571Y-41142857D01*
X148021428Y-41185714D02*
X147021428Y-41185714D01*
X148592857Y-40828571D02*
X147521428Y-40471428D01*
X147521428Y-41400000D01*
X145778571Y-40271428D02*
X145850000Y-40342857D01*
X145921428Y-40485714D01*
X145921428Y-40842857D01*
X145850000Y-40985714D01*
X145778571Y-41057142D01*
X145635714Y-41128571D01*
X145492857Y-41128571D01*
X145278571Y-41057142D01*
X144421428Y-40200000D01*
X144421428Y-41128571D01*
X141721428Y-41028571D02*
X141721428Y-40171428D01*
X141721428Y-40600000D02*
X143221428Y-40600000D01*
X143007142Y-40457142D01*
X142864285Y-40314285D01*
X142792857Y-40171428D01*
X196504761Y-134495238D02*
X196504761Y-135447619D01*
X194504761Y-135447619D01*
X196504761Y-133828571D02*
X195171428Y-133828571D01*
X194504761Y-133828571D02*
X194600000Y-133923809D01*
X194695238Y-133828571D01*
X194600000Y-133733333D01*
X194504761Y-133828571D01*
X194695238Y-133828571D01*
X196504761Y-132876190D02*
X195171428Y-132876190D01*
X195361904Y-132876190D02*
X195266666Y-132780952D01*
X195171428Y-132590476D01*
X195171428Y-132304761D01*
X195266666Y-132114285D01*
X195457142Y-132019047D01*
X196504761Y-132019047D01*
X195457142Y-132019047D02*
X195266666Y-131923809D01*
X195171428Y-131733333D01*
X195171428Y-131447619D01*
X195266666Y-131257142D01*
X195457142Y-131161904D01*
X196504761Y-131161904D01*
X196504761Y-130209523D02*
X195171428Y-130209523D01*
X194504761Y-130209523D02*
X194600000Y-130304761D01*
X194695238Y-130209523D01*
X194600000Y-130114285D01*
X194504761Y-130209523D01*
X194695238Y-130209523D01*
X195171428Y-129542857D02*
X195171428Y-128780952D01*
X194504761Y-129257142D02*
X196219047Y-129257142D01*
X196409523Y-129161904D01*
X196504761Y-128971428D01*
X196504761Y-128780952D01*
X196409523Y-126685714D02*
X196504761Y-126400000D01*
X196504761Y-125923809D01*
X196409523Y-125733333D01*
X196314285Y-125638095D01*
X196123809Y-125542857D01*
X195933333Y-125542857D01*
X195742857Y-125638095D01*
X195647619Y-125733333D01*
X195552380Y-125923809D01*
X195457142Y-126304761D01*
X195361904Y-126495238D01*
X195266666Y-126590476D01*
X195076190Y-126685714D01*
X194885714Y-126685714D01*
X194695238Y-126590476D01*
X194600000Y-126495238D01*
X194504761Y-126304761D01*
X194504761Y-125828571D01*
X194600000Y-125542857D01*
X194504761Y-124876190D02*
X196504761Y-124400000D01*
X195076190Y-124019047D01*
X196504761Y-123638095D01*
X194504761Y-123161904D01*
D11*
X149400000Y-150623809D02*
X149304761Y-150814285D01*
X149304761Y-151100000D01*
X149400000Y-151385714D01*
X149590476Y-151576190D01*
X149780952Y-151671428D01*
X150161904Y-151766666D01*
X150447619Y-151766666D01*
X150828571Y-151671428D01*
X151019047Y-151576190D01*
X151209523Y-151385714D01*
X151304761Y-151100000D01*
X151304761Y-150909523D01*
X151209523Y-150623809D01*
X151114285Y-150528571D01*
X150447619Y-150528571D01*
X150447619Y-150909523D01*
X151304761Y-149671428D02*
X149304761Y-149671428D01*
X151304761Y-148528571D01*
X149304761Y-148528571D01*
X151304761Y-147576190D02*
X149304761Y-147576190D01*
X149304761Y-147100000D01*
X149400000Y-146814285D01*
X149590476Y-146623809D01*
X149780952Y-146528571D01*
X150161904Y-146433333D01*
X150447619Y-146433333D01*
X150828571Y-146528571D01*
X151019047Y-146623809D01*
X151209523Y-146814285D01*
X151304761Y-147100000D01*
X151304761Y-147576190D01*
X144995238Y-151585714D02*
X144900000Y-151490476D01*
X144804761Y-151300000D01*
X144804761Y-150823809D01*
X144900000Y-150633333D01*
X144995238Y-150538095D01*
X145185714Y-150442857D01*
X145376190Y-150442857D01*
X145661904Y-150538095D01*
X146804761Y-151680952D01*
X146804761Y-150442857D01*
X145471428Y-148728571D02*
X146804761Y-148728571D01*
X144709523Y-149204761D02*
X146138095Y-149680952D01*
X146138095Y-148442857D01*
X145471428Y-147871428D02*
X146804761Y-147395238D01*
X145471428Y-146919047D01*
D10*
X105307142Y-140585714D02*
X105378571Y-140371428D01*
X105378571Y-140014285D01*
X105307142Y-139871428D01*
X105235714Y-139800000D01*
X105092857Y-139728571D01*
X104950000Y-139728571D01*
X104807142Y-139800000D01*
X104735714Y-139871428D01*
X104664285Y-140014285D01*
X104592857Y-140300000D01*
X104521428Y-140442857D01*
X104450000Y-140514285D01*
X104307142Y-140585714D01*
X104164285Y-140585714D01*
X104021428Y-140514285D01*
X103950000Y-140442857D01*
X103878571Y-140300000D01*
X103878571Y-139942857D01*
X103950000Y-139728571D01*
X105378571Y-139085714D02*
X103878571Y-139085714D01*
X105378571Y-138442857D02*
X104592857Y-138442857D01*
X104450000Y-138514285D01*
X104378571Y-138657142D01*
X104378571Y-138871428D01*
X104450000Y-139014285D01*
X104521428Y-139085714D01*
X105378571Y-137728571D02*
X104378571Y-137728571D01*
X103878571Y-137728571D02*
X103950000Y-137800000D01*
X104021428Y-137728571D01*
X103950000Y-137657142D01*
X103878571Y-137728571D01*
X104021428Y-137728571D01*
X105307142Y-136442857D02*
X105378571Y-136585714D01*
X105378571Y-136871428D01*
X105307142Y-137014285D01*
X105164285Y-137085714D01*
X104592857Y-137085714D01*
X104450000Y-137014285D01*
X104378571Y-136871428D01*
X104378571Y-136585714D01*
X104450000Y-136442857D01*
X104592857Y-136371428D01*
X104735714Y-136371428D01*
X104878571Y-137085714D01*
X105378571Y-135514285D02*
X105307142Y-135657142D01*
X105164285Y-135728571D01*
X103878571Y-135728571D01*
X105378571Y-134300000D02*
X103878571Y-134300000D01*
X105307142Y-134300000D02*
X105378571Y-134442857D01*
X105378571Y-134728571D01*
X105307142Y-134871428D01*
X105235714Y-134942857D01*
X105092857Y-135014285D01*
X104664285Y-135014285D01*
X104521428Y-134942857D01*
X104450000Y-134871428D01*
X104378571Y-134728571D01*
X104378571Y-134442857D01*
X104450000Y-134300000D01*
X105950000Y-132014285D02*
X105878571Y-132085714D01*
X105664285Y-132228571D01*
X105521428Y-132300000D01*
X105307142Y-132371428D01*
X104950000Y-132442857D01*
X104664285Y-132442857D01*
X104307142Y-132371428D01*
X104092857Y-132300000D01*
X103950000Y-132228571D01*
X103735714Y-132085714D01*
X103664285Y-132014285D01*
X105378571Y-131442857D02*
X103878571Y-131442857D01*
X105378571Y-130585714D01*
X103878571Y-130585714D01*
X105235714Y-129014285D02*
X105307142Y-129085714D01*
X105378571Y-129300000D01*
X105378571Y-129442857D01*
X105307142Y-129657142D01*
X105164285Y-129800000D01*
X105021428Y-129871428D01*
X104735714Y-129942857D01*
X104521428Y-129942857D01*
X104235714Y-129871428D01*
X104092857Y-129800000D01*
X103950000Y-129657142D01*
X103878571Y-129442857D01*
X103878571Y-129300000D01*
X103950000Y-129085714D01*
X104021428Y-129014285D01*
X105950000Y-128514285D02*
X105878571Y-128442857D01*
X105664285Y-128300000D01*
X105521428Y-128228571D01*
X105307142Y-128157142D01*
X104950000Y-128085714D01*
X104664285Y-128085714D01*
X104307142Y-128157142D01*
X104092857Y-128228571D01*
X103950000Y-128300000D01*
X103735714Y-128442857D01*
X103664285Y-128514285D01*
X173707142Y-59092857D02*
X173921428Y-59164285D01*
X173992857Y-59235714D01*
X174064285Y-59378571D01*
X174064285Y-59592857D01*
X173992857Y-59735714D01*
X173921428Y-59807142D01*
X173778571Y-59878571D01*
X173207142Y-59878571D01*
X173207142Y-58378571D01*
X173707142Y-58378571D01*
X173850000Y-58450000D01*
X173921428Y-58521428D01*
X173992857Y-58664285D01*
X173992857Y-58807142D01*
X173921428Y-58950000D01*
X173850000Y-59021428D01*
X173707142Y-59092857D01*
X173207142Y-59092857D01*
X167192857Y-85092857D02*
X167407142Y-85164285D01*
X167478571Y-85235714D01*
X167550000Y-85378571D01*
X167550000Y-85592857D01*
X167478571Y-85735714D01*
X167407142Y-85807142D01*
X167264285Y-85878571D01*
X166692857Y-85878571D01*
X166692857Y-84378571D01*
X167192857Y-84378571D01*
X167335714Y-84450000D01*
X167407142Y-84521428D01*
X167478571Y-84664285D01*
X167478571Y-84807142D01*
X167407142Y-84950000D01*
X167335714Y-85021428D01*
X167192857Y-85092857D01*
X166692857Y-85092857D01*
X168407142Y-85878571D02*
X168264285Y-85807142D01*
X168192857Y-85664285D01*
X168192857Y-84378571D01*
X169621428Y-84878571D02*
X169621428Y-85878571D01*
X168978571Y-84878571D02*
X168978571Y-85664285D01*
X169050000Y-85807142D01*
X169192857Y-85878571D01*
X169407142Y-85878571D01*
X169550000Y-85807142D01*
X169621428Y-85735714D01*
X170907142Y-85807142D02*
X170764285Y-85878571D01*
X170478571Y-85878571D01*
X170335714Y-85807142D01*
X170264285Y-85664285D01*
X170264285Y-85092857D01*
X170335714Y-84950000D01*
X170478571Y-84878571D01*
X170764285Y-84878571D01*
X170907142Y-84950000D01*
X170978571Y-85092857D01*
X170978571Y-85235714D01*
X170264285Y-85378571D01*
X167314285Y-58150000D02*
X167171428Y-58078571D01*
X166957142Y-58078571D01*
X166742857Y-58150000D01*
X166600000Y-58292857D01*
X166528571Y-58435714D01*
X166457142Y-58721428D01*
X166457142Y-58935714D01*
X166528571Y-59221428D01*
X166600000Y-59364285D01*
X166742857Y-59507142D01*
X166957142Y-59578571D01*
X167100000Y-59578571D01*
X167314285Y-59507142D01*
X167385714Y-59435714D01*
X167385714Y-58935714D01*
X167100000Y-58935714D01*
X168028571Y-59578571D02*
X168028571Y-58578571D01*
X168028571Y-58864285D02*
X168100000Y-58721428D01*
X168171428Y-58650000D01*
X168314285Y-58578571D01*
X168457142Y-58578571D01*
X169528571Y-59507142D02*
X169385714Y-59578571D01*
X169100000Y-59578571D01*
X168957142Y-59507142D01*
X168885714Y-59364285D01*
X168885714Y-58792857D01*
X168957142Y-58650000D01*
X169100000Y-58578571D01*
X169385714Y-58578571D01*
X169528571Y-58650000D01*
X169600000Y-58792857D01*
X169600000Y-58935714D01*
X168885714Y-59078571D01*
X170100000Y-58578571D02*
X170457142Y-59578571D01*
X170814285Y-58578571D02*
X170457142Y-59578571D01*
X170314285Y-59935714D01*
X170242857Y-60007142D01*
X170100000Y-60078571D01*
X168478571Y-130303571D02*
X168835714Y-131803571D01*
X169121428Y-130732142D01*
X169407142Y-131803571D01*
X169764285Y-130303571D01*
X170907142Y-131732142D02*
X170764285Y-131803571D01*
X170478571Y-131803571D01*
X170335714Y-131732142D01*
X170264285Y-131589285D01*
X170264285Y-131017857D01*
X170335714Y-130875000D01*
X170478571Y-130803571D01*
X170764285Y-130803571D01*
X170907142Y-130875000D01*
X170978571Y-131017857D01*
X170978571Y-131160714D01*
X170264285Y-131303571D01*
X171550000Y-131732142D02*
X171692857Y-131803571D01*
X171978571Y-131803571D01*
X172121428Y-131732142D01*
X172192857Y-131589285D01*
X172192857Y-131517857D01*
X172121428Y-131375000D01*
X171978571Y-131303571D01*
X171764285Y-131303571D01*
X171621428Y-131232142D01*
X171550000Y-131089285D01*
X171550000Y-131017857D01*
X171621428Y-130875000D01*
X171764285Y-130803571D01*
X171978571Y-130803571D01*
X172121428Y-130875000D01*
X172621428Y-130803571D02*
X173192857Y-130803571D01*
X172835714Y-130303571D02*
X172835714Y-131589285D01*
X172907142Y-131732142D01*
X173050000Y-131803571D01*
X173192857Y-131803571D01*
X169164285Y-137217857D02*
X169664285Y-137217857D01*
X169878571Y-138003571D02*
X169164285Y-138003571D01*
X169164285Y-136503571D01*
X169878571Y-136503571D01*
X171164285Y-138003571D02*
X171164285Y-137217857D01*
X171092857Y-137075000D01*
X170950000Y-137003571D01*
X170664285Y-137003571D01*
X170521428Y-137075000D01*
X171164285Y-137932142D02*
X171021428Y-138003571D01*
X170664285Y-138003571D01*
X170521428Y-137932142D01*
X170450000Y-137789285D01*
X170450000Y-137646428D01*
X170521428Y-137503571D01*
X170664285Y-137432142D01*
X171021428Y-137432142D01*
X171164285Y-137360714D01*
X171807142Y-137932142D02*
X171950000Y-138003571D01*
X172235714Y-138003571D01*
X172378571Y-137932142D01*
X172450000Y-137789285D01*
X172450000Y-137717857D01*
X172378571Y-137575000D01*
X172235714Y-137503571D01*
X172021428Y-137503571D01*
X171878571Y-137432142D01*
X171807142Y-137289285D01*
X171807142Y-137217857D01*
X171878571Y-137075000D01*
X172021428Y-137003571D01*
X172235714Y-137003571D01*
X172378571Y-137075000D01*
X172878571Y-137003571D02*
X173450000Y-137003571D01*
X173092857Y-136503571D02*
X173092857Y-137789285D01*
X173164285Y-137932142D01*
X173307142Y-138003571D01*
X173450000Y-138003571D01*
X164685714Y-69292857D02*
X164900000Y-69364285D01*
X164971428Y-69435714D01*
X165042857Y-69578571D01*
X165042857Y-69792857D01*
X164971428Y-69935714D01*
X164900000Y-70007142D01*
X164757142Y-70078571D01*
X164185714Y-70078571D01*
X164185714Y-68578571D01*
X164685714Y-68578571D01*
X164828571Y-68650000D01*
X164900000Y-68721428D01*
X164971428Y-68864285D01*
X164971428Y-69007142D01*
X164900000Y-69150000D01*
X164828571Y-69221428D01*
X164685714Y-69292857D01*
X164185714Y-69292857D01*
X165900000Y-70078571D02*
X165757142Y-70007142D01*
X165685714Y-69864285D01*
X165685714Y-68578571D01*
X167114285Y-70078571D02*
X167114285Y-69292857D01*
X167042857Y-69150000D01*
X166900000Y-69078571D01*
X166614285Y-69078571D01*
X166471428Y-69150000D01*
X167114285Y-70007142D02*
X166971428Y-70078571D01*
X166614285Y-70078571D01*
X166471428Y-70007142D01*
X166400000Y-69864285D01*
X166400000Y-69721428D01*
X166471428Y-69578571D01*
X166614285Y-69507142D01*
X166971428Y-69507142D01*
X167114285Y-69435714D01*
X168471428Y-70007142D02*
X168328571Y-70078571D01*
X168042857Y-70078571D01*
X167900000Y-70007142D01*
X167828571Y-69935714D01*
X167757142Y-69792857D01*
X167757142Y-69364285D01*
X167828571Y-69221428D01*
X167900000Y-69150000D01*
X168042857Y-69078571D01*
X168328571Y-69078571D01*
X168471428Y-69150000D01*
X169114285Y-70078571D02*
X169114285Y-68578571D01*
X169257142Y-69507142D02*
X169685714Y-70078571D01*
X169685714Y-69078571D02*
X169114285Y-69650000D01*
X167642857Y-95978571D02*
X167142857Y-95264285D01*
X166785714Y-95978571D02*
X166785714Y-94478571D01*
X167357142Y-94478571D01*
X167500000Y-94550000D01*
X167571428Y-94621428D01*
X167642857Y-94764285D01*
X167642857Y-94978571D01*
X167571428Y-95121428D01*
X167500000Y-95192857D01*
X167357142Y-95264285D01*
X166785714Y-95264285D01*
X168857142Y-95907142D02*
X168714285Y-95978571D01*
X168428571Y-95978571D01*
X168285714Y-95907142D01*
X168214285Y-95764285D01*
X168214285Y-95192857D01*
X168285714Y-95050000D01*
X168428571Y-94978571D01*
X168714285Y-94978571D01*
X168857142Y-95050000D01*
X168928571Y-95192857D01*
X168928571Y-95335714D01*
X168214285Y-95478571D01*
X170214285Y-95978571D02*
X170214285Y-94478571D01*
X170214285Y-95907142D02*
X170071428Y-95978571D01*
X169785714Y-95978571D01*
X169642857Y-95907142D01*
X169571428Y-95835714D01*
X169500000Y-95692857D01*
X169500000Y-95264285D01*
X169571428Y-95121428D01*
X169642857Y-95050000D01*
X169785714Y-94978571D01*
X170071428Y-94978571D01*
X170214285Y-95050000D01*
X171857142Y-99450000D02*
X171714285Y-99378571D01*
X171500000Y-99378571D01*
X171285714Y-99450000D01*
X171142857Y-99592857D01*
X171071428Y-99735714D01*
X171000000Y-100021428D01*
X171000000Y-100235714D01*
X171071428Y-100521428D01*
X171142857Y-100664285D01*
X171285714Y-100807142D01*
X171500000Y-100878571D01*
X171642857Y-100878571D01*
X171857142Y-100807142D01*
X171928571Y-100735714D01*
X171928571Y-100235714D01*
X171642857Y-100235714D01*
X172571428Y-100878571D02*
X172571428Y-99378571D01*
X173428571Y-100878571D01*
X173428571Y-99378571D01*
X174142857Y-100878571D02*
X174142857Y-99378571D01*
X174500000Y-99378571D01*
X174714285Y-99450000D01*
X174857142Y-99592857D01*
X174928571Y-99735714D01*
X175000000Y-100021428D01*
X175000000Y-100235714D01*
X174928571Y-100521428D01*
X174857142Y-100664285D01*
X174714285Y-100807142D01*
X174500000Y-100878571D01*
X174142857Y-100878571D01*
X169264285Y-134450000D02*
X169121428Y-134378571D01*
X168907142Y-134378571D01*
X168692857Y-134450000D01*
X168550000Y-134592857D01*
X168478571Y-134735714D01*
X168407142Y-135021428D01*
X168407142Y-135235714D01*
X168478571Y-135521428D01*
X168550000Y-135664285D01*
X168692857Y-135807142D01*
X168907142Y-135878571D01*
X169050000Y-135878571D01*
X169264285Y-135807142D01*
X169335714Y-135735714D01*
X169335714Y-135235714D01*
X169050000Y-135235714D01*
X169978571Y-135878571D02*
X169978571Y-134878571D01*
X169978571Y-135164285D02*
X170050000Y-135021428D01*
X170121428Y-134950000D01*
X170264285Y-134878571D01*
X170407142Y-134878571D01*
X171478571Y-135807142D02*
X171335714Y-135878571D01*
X171050000Y-135878571D01*
X170907142Y-135807142D01*
X170835714Y-135664285D01*
X170835714Y-135092857D01*
X170907142Y-134950000D01*
X171050000Y-134878571D01*
X171335714Y-134878571D01*
X171478571Y-134950000D01*
X171550000Y-135092857D01*
X171550000Y-135235714D01*
X170835714Y-135378571D01*
X172764285Y-135807142D02*
X172621428Y-135878571D01*
X172335714Y-135878571D01*
X172192857Y-135807142D01*
X172121428Y-135664285D01*
X172121428Y-135092857D01*
X172192857Y-134950000D01*
X172335714Y-134878571D01*
X172621428Y-134878571D01*
X172764285Y-134950000D01*
X172835714Y-135092857D01*
X172835714Y-135235714D01*
X172121428Y-135378571D01*
X173478571Y-134878571D02*
X173478571Y-135878571D01*
X173478571Y-135021428D02*
X173550000Y-134950000D01*
X173692857Y-134878571D01*
X173907142Y-134878571D01*
X174050000Y-134950000D01*
X174121428Y-135092857D01*
X174121428Y-135878571D01*
X163678571Y-151600000D02*
X162178571Y-151600000D01*
X163250000Y-151100000D01*
X162178571Y-150600000D01*
X163678571Y-150600000D01*
X163107142Y-149885714D02*
X163107142Y-148742857D01*
X163678571Y-147171428D02*
X162964285Y-147671428D01*
X163678571Y-148028571D02*
X162178571Y-148028571D01*
X162178571Y-147457142D01*
X162250000Y-147314285D01*
X162321428Y-147242857D01*
X162464285Y-147171428D01*
X162678571Y-147171428D01*
X162821428Y-147242857D01*
X162892857Y-147314285D01*
X162964285Y-147457142D01*
X162964285Y-148028571D01*
X163607142Y-145957142D02*
X163678571Y-146100000D01*
X163678571Y-146385714D01*
X163607142Y-146528571D01*
X163464285Y-146600000D01*
X162892857Y-146600000D01*
X162750000Y-146528571D01*
X162678571Y-146385714D01*
X162678571Y-146100000D01*
X162750000Y-145957142D01*
X162892857Y-145885714D01*
X163035714Y-145885714D01*
X163178571Y-146600000D01*
X163678571Y-144600000D02*
X162178571Y-144600000D01*
X163607142Y-144600000D02*
X163678571Y-144742857D01*
X163678571Y-145028571D01*
X163607142Y-145171428D01*
X163535714Y-145242857D01*
X163392857Y-145314285D01*
X162964285Y-145314285D01*
X162821428Y-145242857D01*
X162750000Y-145171428D01*
X162678571Y-145028571D01*
X162678571Y-144742857D01*
X162750000Y-144600000D01*
X167442857Y-65378571D02*
X166942857Y-64664285D01*
X166585714Y-65378571D02*
X166585714Y-63878571D01*
X167157142Y-63878571D01*
X167300000Y-63950000D01*
X167371428Y-64021428D01*
X167442857Y-64164285D01*
X167442857Y-64378571D01*
X167371428Y-64521428D01*
X167300000Y-64592857D01*
X167157142Y-64664285D01*
X166585714Y-64664285D01*
X168657142Y-65307142D02*
X168514285Y-65378571D01*
X168228571Y-65378571D01*
X168085714Y-65307142D01*
X168014285Y-65164285D01*
X168014285Y-64592857D01*
X168085714Y-64450000D01*
X168228571Y-64378571D01*
X168514285Y-64378571D01*
X168657142Y-64450000D01*
X168728571Y-64592857D01*
X168728571Y-64735714D01*
X168014285Y-64878571D01*
X170014285Y-65378571D02*
X170014285Y-63878571D01*
X170014285Y-65307142D02*
X169871428Y-65378571D01*
X169585714Y-65378571D01*
X169442857Y-65307142D01*
X169371428Y-65235714D01*
X169300000Y-65092857D01*
X169300000Y-64664285D01*
X169371428Y-64521428D01*
X169442857Y-64450000D01*
X169585714Y-64378571D01*
X169871428Y-64378571D01*
X170014285Y-64450000D01*
X194333333Y-97019047D02*
X194333333Y-96066666D01*
X194904761Y-97209523D02*
X192904761Y-96542857D01*
X194904761Y-95876190D01*
X193571428Y-95209523D02*
X194904761Y-95209523D01*
X193761904Y-95209523D02*
X193666666Y-95114285D01*
X193571428Y-94923809D01*
X193571428Y-94638095D01*
X193666666Y-94447619D01*
X193857142Y-94352380D01*
X194904761Y-94352380D01*
X193571428Y-92542857D02*
X195190476Y-92542857D01*
X195380952Y-92638095D01*
X195476190Y-92733333D01*
X195571428Y-92923809D01*
X195571428Y-93209523D01*
X195476190Y-93400000D01*
X194809523Y-92542857D02*
X194904761Y-92733333D01*
X194904761Y-93114285D01*
X194809523Y-93304761D01*
X194714285Y-93400000D01*
X194523809Y-93495238D01*
X193952380Y-93495238D01*
X193761904Y-93400000D01*
X193666666Y-93304761D01*
X193571428Y-93114285D01*
X193571428Y-92733333D01*
X193666666Y-92542857D01*
X194904761Y-91304761D02*
X194809523Y-91495238D01*
X194619047Y-91590476D01*
X192904761Y-91590476D01*
X194809523Y-89780952D02*
X194904761Y-89971428D01*
X194904761Y-90352380D01*
X194809523Y-90542857D01*
X194619047Y-90638095D01*
X193857142Y-90638095D01*
X193666666Y-90542857D01*
X193571428Y-90352380D01*
X193571428Y-89971428D01*
X193666666Y-89780952D01*
X193857142Y-89685714D01*
X194047619Y-89685714D01*
X194238095Y-90638095D01*
X193095238Y-88923809D02*
X193000000Y-88828571D01*
X192904761Y-88638095D01*
X192904761Y-88161904D01*
X193000000Y-87971428D01*
X193095238Y-87876190D01*
X193285714Y-87780952D01*
X193476190Y-87780952D01*
X193761904Y-87876190D01*
X194904761Y-89019047D01*
X194904761Y-87780952D01*
X194833333Y-66619047D02*
X194833333Y-65666666D01*
X195404761Y-66809523D02*
X193404761Y-66142857D01*
X195404761Y-65476190D01*
X194071428Y-64809523D02*
X195404761Y-64809523D01*
X194261904Y-64809523D02*
X194166666Y-64714285D01*
X194071428Y-64523809D01*
X194071428Y-64238095D01*
X194166666Y-64047619D01*
X194357142Y-63952380D01*
X195404761Y-63952380D01*
X194071428Y-62142857D02*
X195690476Y-62142857D01*
X195880952Y-62238095D01*
X195976190Y-62333333D01*
X196071428Y-62523809D01*
X196071428Y-62809523D01*
X195976190Y-63000000D01*
X195309523Y-62142857D02*
X195404761Y-62333333D01*
X195404761Y-62714285D01*
X195309523Y-62904761D01*
X195214285Y-63000000D01*
X195023809Y-63095238D01*
X194452380Y-63095238D01*
X194261904Y-63000000D01*
X194166666Y-62904761D01*
X194071428Y-62714285D01*
X194071428Y-62333333D01*
X194166666Y-62142857D01*
X195404761Y-60904761D02*
X195309523Y-61095238D01*
X195119047Y-61190476D01*
X193404761Y-61190476D01*
X195309523Y-59380952D02*
X195404761Y-59571428D01*
X195404761Y-59952380D01*
X195309523Y-60142857D01*
X195119047Y-60238095D01*
X194357142Y-60238095D01*
X194166666Y-60142857D01*
X194071428Y-59952380D01*
X194071428Y-59571428D01*
X194166666Y-59380952D01*
X194357142Y-59285714D01*
X194547619Y-59285714D01*
X194738095Y-60238095D01*
X195404761Y-57380952D02*
X195404761Y-58523809D01*
X195404761Y-57952380D02*
X193404761Y-57952380D01*
X193690476Y-58142857D01*
X193880952Y-58333333D01*
X193976190Y-58523809D01*
X171485714Y-94721428D02*
X171557142Y-94650000D01*
X171700000Y-94578571D01*
X172057142Y-94578571D01*
X172200000Y-94650000D01*
X172271428Y-94721428D01*
X172342857Y-94864285D01*
X172342857Y-95007142D01*
X172271428Y-95221428D01*
X171414285Y-96078571D01*
X172342857Y-96078571D01*
X173628571Y-95078571D02*
X173628571Y-96078571D01*
X173271428Y-94507142D02*
X172914285Y-95578571D01*
X173842857Y-95578571D01*
X174271428Y-95078571D02*
X174628571Y-96078571D01*
X174985714Y-95078571D01*
X168250000Y-121578571D02*
X168607142Y-123078571D01*
X168892857Y-122007142D01*
X169178571Y-123078571D01*
X169535714Y-121578571D01*
X170107142Y-123078571D02*
X170107142Y-121578571D01*
X170750000Y-123078571D02*
X170750000Y-122292857D01*
X170678571Y-122150000D01*
X170535714Y-122078571D01*
X170321428Y-122078571D01*
X170178571Y-122150000D01*
X170107142Y-122221428D01*
X171464285Y-123078571D02*
X171464285Y-122078571D01*
X171464285Y-121578571D02*
X171392857Y-121650000D01*
X171464285Y-121721428D01*
X171535714Y-121650000D01*
X171464285Y-121578571D01*
X171464285Y-121721428D01*
X171964285Y-122078571D02*
X172535714Y-122078571D01*
X172178571Y-121578571D02*
X172178571Y-122864285D01*
X172250000Y-123007142D01*
X172392857Y-123078571D01*
X172535714Y-123078571D01*
X173607142Y-123007142D02*
X173464285Y-123078571D01*
X173178571Y-123078571D01*
X173035714Y-123007142D01*
X172964285Y-122864285D01*
X172964285Y-122292857D01*
X173035714Y-122150000D01*
X173178571Y-122078571D01*
X173464285Y-122078571D01*
X173607142Y-122150000D01*
X173678571Y-122292857D01*
X173678571Y-122435714D01*
X172964285Y-122578571D01*
X168207142Y-128964285D02*
X168207142Y-129678571D01*
X167707142Y-128178571D02*
X168207142Y-128964285D01*
X168707142Y-128178571D01*
X169778571Y-129607142D02*
X169635714Y-129678571D01*
X169350000Y-129678571D01*
X169207142Y-129607142D01*
X169135714Y-129464285D01*
X169135714Y-128892857D01*
X169207142Y-128750000D01*
X169350000Y-128678571D01*
X169635714Y-128678571D01*
X169778571Y-128750000D01*
X169850000Y-128892857D01*
X169850000Y-129035714D01*
X169135714Y-129178571D01*
X170707142Y-129678571D02*
X170564285Y-129607142D01*
X170492857Y-129464285D01*
X170492857Y-128178571D01*
X171492857Y-129678571D02*
X171350000Y-129607142D01*
X171278571Y-129464285D01*
X171278571Y-128178571D01*
X172278571Y-129678571D02*
X172135714Y-129607142D01*
X172064285Y-129535714D01*
X171992857Y-129392857D01*
X171992857Y-128964285D01*
X172064285Y-128821428D01*
X172135714Y-128750000D01*
X172278571Y-128678571D01*
X172492857Y-128678571D01*
X172635714Y-128750000D01*
X172707142Y-128821428D01*
X172778571Y-128964285D01*
X172778571Y-129392857D01*
X172707142Y-129535714D01*
X172635714Y-129607142D01*
X172492857Y-129678571D01*
X172278571Y-129678571D01*
X173278571Y-128678571D02*
X173564285Y-129678571D01*
X173850000Y-128964285D01*
X174135714Y-129678571D01*
X174421428Y-128678571D01*
X167514285Y-88750000D02*
X167371428Y-88678571D01*
X167157142Y-88678571D01*
X166942857Y-88750000D01*
X166800000Y-88892857D01*
X166728571Y-89035714D01*
X166657142Y-89321428D01*
X166657142Y-89535714D01*
X166728571Y-89821428D01*
X166800000Y-89964285D01*
X166942857Y-90107142D01*
X167157142Y-90178571D01*
X167300000Y-90178571D01*
X167514285Y-90107142D01*
X167585714Y-90035714D01*
X167585714Y-89535714D01*
X167300000Y-89535714D01*
X168228571Y-90178571D02*
X168228571Y-89178571D01*
X168228571Y-89464285D02*
X168300000Y-89321428D01*
X168371428Y-89250000D01*
X168514285Y-89178571D01*
X168657142Y-89178571D01*
X169728571Y-90107142D02*
X169585714Y-90178571D01*
X169300000Y-90178571D01*
X169157142Y-90107142D01*
X169085714Y-89964285D01*
X169085714Y-89392857D01*
X169157142Y-89250000D01*
X169300000Y-89178571D01*
X169585714Y-89178571D01*
X169728571Y-89250000D01*
X169800000Y-89392857D01*
X169800000Y-89535714D01*
X169085714Y-89678571D01*
X170300000Y-89178571D02*
X170657142Y-90178571D01*
X171014285Y-89178571D02*
X170657142Y-90178571D01*
X170514285Y-90535714D01*
X170442857Y-90607142D01*
X170300000Y-90678571D01*
X105178571Y-81235714D02*
X104464285Y-81735714D01*
X105178571Y-82092857D02*
X103678571Y-82092857D01*
X103678571Y-81521428D01*
X103750000Y-81378571D01*
X103821428Y-81307142D01*
X103964285Y-81235714D01*
X104178571Y-81235714D01*
X104321428Y-81307142D01*
X104392857Y-81378571D01*
X104464285Y-81521428D01*
X104464285Y-82092857D01*
X105107142Y-80664285D02*
X105178571Y-80450000D01*
X105178571Y-80092857D01*
X105107142Y-79950000D01*
X105035714Y-79878571D01*
X104892857Y-79807142D01*
X104750000Y-79807142D01*
X104607142Y-79878571D01*
X104535714Y-79950000D01*
X104464285Y-80092857D01*
X104392857Y-80378571D01*
X104321428Y-80521428D01*
X104250000Y-80592857D01*
X104107142Y-80664285D01*
X103964285Y-80664285D01*
X103821428Y-80592857D01*
X103750000Y-80521428D01*
X103678571Y-80378571D01*
X103678571Y-80021428D01*
X103750000Y-79807142D01*
X104178571Y-78521428D02*
X105178571Y-78521428D01*
X103607142Y-78878571D02*
X104678571Y-79235714D01*
X104678571Y-78307142D01*
X104321428Y-77521428D02*
X104250000Y-77664285D01*
X104178571Y-77735714D01*
X104035714Y-77807142D01*
X103964285Y-77807142D01*
X103821428Y-77735714D01*
X103750000Y-77664285D01*
X103678571Y-77521428D01*
X103678571Y-77235714D01*
X103750000Y-77092857D01*
X103821428Y-77021428D01*
X103964285Y-76950000D01*
X104035714Y-76950000D01*
X104178571Y-77021428D01*
X104250000Y-77092857D01*
X104321428Y-77235714D01*
X104321428Y-77521428D01*
X104392857Y-77664285D01*
X104464285Y-77735714D01*
X104607142Y-77807142D01*
X104892857Y-77807142D01*
X105035714Y-77735714D01*
X105107142Y-77664285D01*
X105178571Y-77521428D01*
X105178571Y-77235714D01*
X105107142Y-77092857D01*
X105035714Y-77021428D01*
X104892857Y-76950000D01*
X104607142Y-76950000D01*
X104464285Y-77021428D01*
X104392857Y-77092857D01*
X104321428Y-77235714D01*
X103678571Y-75592857D02*
X103678571Y-76307142D01*
X104392857Y-76378571D01*
X104321428Y-76307142D01*
X104250000Y-76164285D01*
X104250000Y-75807142D01*
X104321428Y-75664285D01*
X104392857Y-75592857D01*
X104535714Y-75521428D01*
X104892857Y-75521428D01*
X105035714Y-75592857D01*
X105107142Y-75664285D01*
X105178571Y-75807142D01*
X105178571Y-76164285D01*
X105107142Y-76307142D01*
X105035714Y-76378571D01*
X104750000Y-74950000D02*
X104750000Y-74235714D01*
X105178571Y-75092857D02*
X103678571Y-74592857D01*
X105178571Y-74092857D01*
X157478571Y-151778571D02*
X155978571Y-151778571D01*
X157050000Y-151278571D01*
X155978571Y-150778571D01*
X157478571Y-150778571D01*
X156907142Y-150064285D02*
X156907142Y-148921428D01*
X156692857Y-147707142D02*
X156764285Y-147492857D01*
X156835714Y-147421428D01*
X156978571Y-147350000D01*
X157192857Y-147350000D01*
X157335714Y-147421428D01*
X157407142Y-147492857D01*
X157478571Y-147635714D01*
X157478571Y-148207142D01*
X155978571Y-148207142D01*
X155978571Y-147707142D01*
X156050000Y-147564285D01*
X156121428Y-147492857D01*
X156264285Y-147421428D01*
X156407142Y-147421428D01*
X156550000Y-147492857D01*
X156621428Y-147564285D01*
X156692857Y-147707142D01*
X156692857Y-148207142D01*
X157478571Y-146492857D02*
X157407142Y-146635714D01*
X157264285Y-146707142D01*
X155978571Y-146707142D01*
X157478571Y-145921428D02*
X155978571Y-145921428D01*
X156907142Y-145778571D02*
X157478571Y-145350000D01*
X156478571Y-145350000D02*
X157050000Y-145921428D01*
X171285714Y-64121428D02*
X171357142Y-64050000D01*
X171500000Y-63978571D01*
X171857142Y-63978571D01*
X172000000Y-64050000D01*
X172071428Y-64121428D01*
X172142857Y-64264285D01*
X172142857Y-64407142D01*
X172071428Y-64621428D01*
X171214285Y-65478571D01*
X172142857Y-65478571D01*
X173428571Y-64478571D02*
X173428571Y-65478571D01*
X173071428Y-63907142D02*
X172714285Y-64978571D01*
X173642857Y-64978571D01*
X174071428Y-64478571D02*
X174428571Y-65478571D01*
X174785714Y-64478571D01*
X171657142Y-68850000D02*
X171514285Y-68778571D01*
X171300000Y-68778571D01*
X171085714Y-68850000D01*
X170942857Y-68992857D01*
X170871428Y-69135714D01*
X170800000Y-69421428D01*
X170800000Y-69635714D01*
X170871428Y-69921428D01*
X170942857Y-70064285D01*
X171085714Y-70207142D01*
X171300000Y-70278571D01*
X171442857Y-70278571D01*
X171657142Y-70207142D01*
X171728571Y-70135714D01*
X171728571Y-69635714D01*
X171442857Y-69635714D01*
X172371428Y-70278571D02*
X172371428Y-68778571D01*
X173228571Y-70278571D01*
X173228571Y-68778571D01*
X173942857Y-70278571D02*
X173942857Y-68778571D01*
X174300000Y-68778571D01*
X174514285Y-68850000D01*
X174657142Y-68992857D01*
X174728571Y-69135714D01*
X174800000Y-69421428D01*
X174800000Y-69635714D01*
X174728571Y-69921428D01*
X174657142Y-70064285D01*
X174514285Y-70207142D01*
X174300000Y-70278571D01*
X173942857Y-70278571D01*
X173642857Y-54850000D02*
X174357142Y-54850000D01*
X173500000Y-55278571D02*
X174000000Y-53778571D01*
X174500000Y-55278571D01*
X169557142Y-123750000D02*
X169414285Y-123678571D01*
X169200000Y-123678571D01*
X168985714Y-123750000D01*
X168842857Y-123892857D01*
X168771428Y-124035714D01*
X168700000Y-124321428D01*
X168700000Y-124535714D01*
X168771428Y-124821428D01*
X168842857Y-124964285D01*
X168985714Y-125107142D01*
X169200000Y-125178571D01*
X169342857Y-125178571D01*
X169557142Y-125107142D01*
X169628571Y-125035714D01*
X169628571Y-124535714D01*
X169342857Y-124535714D01*
X170271428Y-125178571D02*
X170271428Y-123678571D01*
X171128571Y-125178571D01*
X171128571Y-123678571D01*
X171842857Y-125178571D02*
X171842857Y-123678571D01*
X172200000Y-123678571D01*
X172414285Y-123750000D01*
X172557142Y-123892857D01*
X172628571Y-124035714D01*
X172700000Y-124321428D01*
X172700000Y-124535714D01*
X172628571Y-124821428D01*
X172557142Y-124964285D01*
X172414285Y-125107142D01*
X172200000Y-125178571D01*
X171842857Y-125178571D01*
X164885714Y-99892857D02*
X165100000Y-99964285D01*
X165171428Y-100035714D01*
X165242857Y-100178571D01*
X165242857Y-100392857D01*
X165171428Y-100535714D01*
X165100000Y-100607142D01*
X164957142Y-100678571D01*
X164385714Y-100678571D01*
X164385714Y-99178571D01*
X164885714Y-99178571D01*
X165028571Y-99250000D01*
X165100000Y-99321428D01*
X165171428Y-99464285D01*
X165171428Y-99607142D01*
X165100000Y-99750000D01*
X165028571Y-99821428D01*
X164885714Y-99892857D01*
X164385714Y-99892857D01*
X166100000Y-100678571D02*
X165957142Y-100607142D01*
X165885714Y-100464285D01*
X165885714Y-99178571D01*
X167314285Y-100678571D02*
X167314285Y-99892857D01*
X167242857Y-99750000D01*
X167100000Y-99678571D01*
X166814285Y-99678571D01*
X166671428Y-99750000D01*
X167314285Y-100607142D02*
X167171428Y-100678571D01*
X166814285Y-100678571D01*
X166671428Y-100607142D01*
X166600000Y-100464285D01*
X166600000Y-100321428D01*
X166671428Y-100178571D01*
X166814285Y-100107142D01*
X167171428Y-100107142D01*
X167314285Y-100035714D01*
X168671428Y-100607142D02*
X168528571Y-100678571D01*
X168242857Y-100678571D01*
X168100000Y-100607142D01*
X168028571Y-100535714D01*
X167957142Y-100392857D01*
X167957142Y-99964285D01*
X168028571Y-99821428D01*
X168100000Y-99750000D01*
X168242857Y-99678571D01*
X168528571Y-99678571D01*
X168671428Y-99750000D01*
X169314285Y-100678571D02*
X169314285Y-99178571D01*
X169457142Y-100107142D02*
X169885714Y-100678571D01*
X169885714Y-99678571D02*
X169314285Y-100250000D01*
X173907142Y-89692857D02*
X174121428Y-89764285D01*
X174192857Y-89835714D01*
X174264285Y-89978571D01*
X174264285Y-90192857D01*
X174192857Y-90335714D01*
X174121428Y-90407142D01*
X173978571Y-90478571D01*
X173407142Y-90478571D01*
X173407142Y-88978571D01*
X173907142Y-88978571D01*
X174050000Y-89050000D01*
X174121428Y-89121428D01*
X174192857Y-89264285D01*
X174192857Y-89407142D01*
X174121428Y-89550000D01*
X174050000Y-89621428D01*
X173907142Y-89692857D01*
X173407142Y-89692857D01*
X105078571Y-119442857D02*
X104364285Y-119942857D01*
X105078571Y-120300000D02*
X103578571Y-120300000D01*
X103578571Y-119728571D01*
X103650000Y-119585714D01*
X103721428Y-119514285D01*
X103864285Y-119442857D01*
X104078571Y-119442857D01*
X104221428Y-119514285D01*
X104292857Y-119585714D01*
X104364285Y-119728571D01*
X104364285Y-120300000D01*
X105007142Y-118871428D02*
X105078571Y-118657142D01*
X105078571Y-118300000D01*
X105007142Y-118157142D01*
X104935714Y-118085714D01*
X104792857Y-118014285D01*
X104650000Y-118014285D01*
X104507142Y-118085714D01*
X104435714Y-118157142D01*
X104364285Y-118300000D01*
X104292857Y-118585714D01*
X104221428Y-118728571D01*
X104150000Y-118800000D01*
X104007142Y-118871428D01*
X103864285Y-118871428D01*
X103721428Y-118800000D01*
X103650000Y-118728571D01*
X103578571Y-118585714D01*
X103578571Y-118228571D01*
X103650000Y-118014285D01*
X104078571Y-116728571D02*
X105078571Y-116728571D01*
X103507142Y-117085714D02*
X104578571Y-117442857D01*
X104578571Y-116514285D01*
X104221428Y-115728571D02*
X104150000Y-115871428D01*
X104078571Y-115942857D01*
X103935714Y-116014285D01*
X103864285Y-116014285D01*
X103721428Y-115942857D01*
X103650000Y-115871428D01*
X103578571Y-115728571D01*
X103578571Y-115442857D01*
X103650000Y-115300000D01*
X103721428Y-115228571D01*
X103864285Y-115157142D01*
X103935714Y-115157142D01*
X104078571Y-115228571D01*
X104150000Y-115300000D01*
X104221428Y-115442857D01*
X104221428Y-115728571D01*
X104292857Y-115871428D01*
X104364285Y-115942857D01*
X104507142Y-116014285D01*
X104792857Y-116014285D01*
X104935714Y-115942857D01*
X105007142Y-115871428D01*
X105078571Y-115728571D01*
X105078571Y-115442857D01*
X105007142Y-115300000D01*
X104935714Y-115228571D01*
X104792857Y-115157142D01*
X104507142Y-115157142D01*
X104364285Y-115228571D01*
X104292857Y-115300000D01*
X104221428Y-115442857D01*
X103578571Y-113800000D02*
X103578571Y-114514285D01*
X104292857Y-114585714D01*
X104221428Y-114514285D01*
X104150000Y-114371428D01*
X104150000Y-114014285D01*
X104221428Y-113871428D01*
X104292857Y-113800000D01*
X104435714Y-113728571D01*
X104792857Y-113728571D01*
X104935714Y-113800000D01*
X105007142Y-113871428D01*
X105078571Y-114014285D01*
X105078571Y-114371428D01*
X105007142Y-114514285D01*
X104935714Y-114585714D01*
X104935714Y-112228571D02*
X105007142Y-112300000D01*
X105078571Y-112514285D01*
X105078571Y-112657142D01*
X105007142Y-112871428D01*
X104864285Y-113014285D01*
X104721428Y-113085714D01*
X104435714Y-113157142D01*
X104221428Y-113157142D01*
X103935714Y-113085714D01*
X103792857Y-113014285D01*
X103650000Y-112871428D01*
X103578571Y-112657142D01*
X103578571Y-112514285D01*
X103650000Y-112300000D01*
X103721428Y-112228571D01*
X105678571Y-99942857D02*
X104964285Y-100442857D01*
X105678571Y-100800000D02*
X104178571Y-100800000D01*
X104178571Y-100228571D01*
X104250000Y-100085714D01*
X104321428Y-100014285D01*
X104464285Y-99942857D01*
X104678571Y-99942857D01*
X104821428Y-100014285D01*
X104892857Y-100085714D01*
X104964285Y-100228571D01*
X104964285Y-100800000D01*
X105607142Y-99371428D02*
X105678571Y-99157142D01*
X105678571Y-98800000D01*
X105607142Y-98657142D01*
X105535714Y-98585714D01*
X105392857Y-98514285D01*
X105250000Y-98514285D01*
X105107142Y-98585714D01*
X105035714Y-98657142D01*
X104964285Y-98800000D01*
X104892857Y-99085714D01*
X104821428Y-99228571D01*
X104750000Y-99300000D01*
X104607142Y-99371428D01*
X104464285Y-99371428D01*
X104321428Y-99300000D01*
X104250000Y-99228571D01*
X104178571Y-99085714D01*
X104178571Y-98728571D01*
X104250000Y-98514285D01*
X104678571Y-97228571D02*
X105678571Y-97228571D01*
X104107142Y-97585714D02*
X105178571Y-97942857D01*
X105178571Y-97014285D01*
X104821428Y-96228571D02*
X104750000Y-96371428D01*
X104678571Y-96442857D01*
X104535714Y-96514285D01*
X104464285Y-96514285D01*
X104321428Y-96442857D01*
X104250000Y-96371428D01*
X104178571Y-96228571D01*
X104178571Y-95942857D01*
X104250000Y-95800000D01*
X104321428Y-95728571D01*
X104464285Y-95657142D01*
X104535714Y-95657142D01*
X104678571Y-95728571D01*
X104750000Y-95800000D01*
X104821428Y-95942857D01*
X104821428Y-96228571D01*
X104892857Y-96371428D01*
X104964285Y-96442857D01*
X105107142Y-96514285D01*
X105392857Y-96514285D01*
X105535714Y-96442857D01*
X105607142Y-96371428D01*
X105678571Y-96228571D01*
X105678571Y-95942857D01*
X105607142Y-95800000D01*
X105535714Y-95728571D01*
X105392857Y-95657142D01*
X105107142Y-95657142D01*
X104964285Y-95728571D01*
X104892857Y-95800000D01*
X104821428Y-95942857D01*
X104178571Y-94300000D02*
X104178571Y-95014285D01*
X104892857Y-95085714D01*
X104821428Y-95014285D01*
X104750000Y-94871428D01*
X104750000Y-94514285D01*
X104821428Y-94371428D01*
X104892857Y-94300000D01*
X105035714Y-94228571D01*
X105392857Y-94228571D01*
X105535714Y-94300000D01*
X105607142Y-94371428D01*
X105678571Y-94514285D01*
X105678571Y-94871428D01*
X105607142Y-95014285D01*
X105535714Y-95085714D01*
X104892857Y-93085714D02*
X104964285Y-92871428D01*
X105035714Y-92800000D01*
X105178571Y-92728571D01*
X105392857Y-92728571D01*
X105535714Y-92800000D01*
X105607142Y-92871428D01*
X105678571Y-93014285D01*
X105678571Y-93585714D01*
X104178571Y-93585714D01*
X104178571Y-93085714D01*
X104250000Y-92942857D01*
X104321428Y-92871428D01*
X104464285Y-92800000D01*
X104607142Y-92800000D01*
X104750000Y-92871428D01*
X104821428Y-92942857D01*
X104892857Y-93085714D01*
X104892857Y-93585714D01*
X166992857Y-54492857D02*
X167207142Y-54564285D01*
X167278571Y-54635714D01*
X167350000Y-54778571D01*
X167350000Y-54992857D01*
X167278571Y-55135714D01*
X167207142Y-55207142D01*
X167064285Y-55278571D01*
X166492857Y-55278571D01*
X166492857Y-53778571D01*
X166992857Y-53778571D01*
X167135714Y-53850000D01*
X167207142Y-53921428D01*
X167278571Y-54064285D01*
X167278571Y-54207142D01*
X167207142Y-54350000D01*
X167135714Y-54421428D01*
X166992857Y-54492857D01*
X166492857Y-54492857D01*
X168207142Y-55278571D02*
X168064285Y-55207142D01*
X167992857Y-55064285D01*
X167992857Y-53778571D01*
X169421428Y-54278571D02*
X169421428Y-55278571D01*
X168778571Y-54278571D02*
X168778571Y-55064285D01*
X168850000Y-55207142D01*
X168992857Y-55278571D01*
X169207142Y-55278571D01*
X169350000Y-55207142D01*
X169421428Y-55135714D01*
X170707142Y-55207142D02*
X170564285Y-55278571D01*
X170278571Y-55278571D01*
X170135714Y-55207142D01*
X170064285Y-55064285D01*
X170064285Y-54492857D01*
X170135714Y-54350000D01*
X170278571Y-54278571D01*
X170564285Y-54278571D01*
X170707142Y-54350000D01*
X170778571Y-54492857D01*
X170778571Y-54635714D01*
X170064285Y-54778571D01*
X173842857Y-85450000D02*
X174557142Y-85450000D01*
X173700000Y-85878571D02*
X174200000Y-84378571D01*
X174700000Y-85878571D01*
D12*
G04 #@! TO.C,U5*
X167516000Y-145582000D02*
X138560000Y-145582000D01*
X138560000Y-106212000D02*
X167516000Y-106212000D01*
X138560000Y-107482000D02*
X138560000Y-106212000D01*
X167516000Y-106212000D02*
X167516000Y-107482000D01*
X138560000Y-145582000D02*
X138560000Y-107482000D01*
X167516000Y-107482000D02*
X167516000Y-145582000D01*
D13*
G04 #@! TO.C,C1*
X139097936Y-45010000D02*
X140302064Y-45010000D01*
X139097936Y-43190000D02*
X140302064Y-43190000D01*
G04 #@! TO.C,C2*
X147902064Y-45010000D02*
X146697936Y-45010000D01*
X147902064Y-43190000D02*
X146697936Y-43190000D01*
G04 #@! TO.C,C3*
X132910000Y-53302064D02*
X132910000Y-52097936D01*
X131090000Y-53302064D02*
X131090000Y-52097936D01*
G04 #@! TO.C,C4*
X158090000Y-61502064D02*
X158090000Y-60297936D01*
X159910000Y-61502064D02*
X159910000Y-60297936D01*
G04 #@! TO.C,C5*
X158090000Y-53597936D02*
X158090000Y-54802064D01*
X159910000Y-53597936D02*
X159910000Y-54802064D01*
G04 #@! TO.C,C6*
X148702064Y-72310000D02*
X147497936Y-72310000D01*
X148702064Y-70490000D02*
X147497936Y-70490000D01*
G04 #@! TO.C,C7*
X141097936Y-72210000D02*
X142302064Y-72210000D01*
X141097936Y-70390000D02*
X142302064Y-70390000D01*
G04 #@! TO.C,C8*
X119960000Y-46440000D02*
X118260000Y-46440000D01*
X114440000Y-46440000D02*
X116140000Y-46440000D01*
X114440000Y-50895563D02*
X114440000Y-46440000D01*
X119960000Y-50895563D02*
X119960000Y-46440000D01*
X118895563Y-51960000D02*
X118260000Y-51960000D01*
X115504437Y-51960000D02*
X116140000Y-51960000D01*
X115504437Y-51960000D02*
X114440000Y-50895563D01*
X118895563Y-51960000D02*
X119960000Y-50895563D01*
X115515000Y-52825000D02*
X115515000Y-52200000D01*
X115202500Y-52512500D02*
X115827500Y-52512500D01*
G04 #@! TO.C,C9*
X131190000Y-61702064D02*
X131190000Y-60497936D01*
X133010000Y-61702064D02*
X133010000Y-60497936D01*
G04 #@! TO.C,C10*
X131397936Y-79990000D02*
X132602064Y-79990000D01*
X131397936Y-81810000D02*
X132602064Y-81810000D01*
G04 #@! TO.C,C11*
X123690000Y-101697936D02*
X123690000Y-102902064D01*
X125510000Y-101697936D02*
X125510000Y-102902064D01*
G04 #@! TO.C,D1*
X147340000Y-85720000D02*
X147340000Y-86650000D01*
X147340000Y-88880000D02*
X147340000Y-87950000D01*
X147340000Y-88880000D02*
X149500000Y-88880000D01*
X147340000Y-85720000D02*
X148800000Y-85720000D01*
G04 #@! TO.C,D2*
X119630000Y-116740000D02*
X119630000Y-118200000D01*
X116470000Y-116740000D02*
X116470000Y-118900000D01*
X116470000Y-116740000D02*
X117400000Y-116740000D01*
X119630000Y-116740000D02*
X118700000Y-116740000D01*
G04 #@! TO.C,F1*
X158224252Y-88010000D02*
X155451748Y-88010000D01*
X158224252Y-84590000D02*
X155451748Y-84590000D01*
G04 #@! TO.C,F2*
X158224252Y-90390000D02*
X155451748Y-90390000D01*
X158224252Y-93810000D02*
X155451748Y-93810000D01*
G04 #@! TO.C,F3*
X123210000Y-125724252D02*
X123210000Y-122951748D01*
X119790000Y-125724252D02*
X119790000Y-122951748D01*
G04 #@! TO.C,F4*
X112790000Y-125648252D02*
X112790000Y-122875748D01*
X116210000Y-125648252D02*
X116210000Y-122875748D01*
G04 #@! TO.C,J2*
X119950000Y-30170000D02*
X119950000Y-35370000D01*
X127630000Y-30170000D02*
X119950000Y-30170000D01*
X130230000Y-35370000D02*
X119950000Y-35370000D01*
X127630000Y-30170000D02*
X127630000Y-32770000D01*
X127630000Y-32770000D02*
X130230000Y-32770000D01*
X130230000Y-32770000D02*
X130230000Y-35370000D01*
X128900000Y-30170000D02*
X130230000Y-30170000D01*
X130230000Y-30170000D02*
X130230000Y-31500000D01*
G04 #@! TO.C,J3*
X191730000Y-32830000D02*
X191730000Y-30170000D01*
X178970000Y-32830000D02*
X191730000Y-32830000D01*
X178970000Y-30170000D02*
X191730000Y-30170000D01*
X178970000Y-32830000D02*
X178970000Y-30170000D01*
X177700000Y-32830000D02*
X176370000Y-32830000D01*
X176370000Y-32830000D02*
X176370000Y-31500000D01*
G04 #@! TO.C,R1*
X142848252Y-85110000D02*
X140075748Y-85110000D01*
X142848252Y-81690000D02*
X140075748Y-81690000D01*
G04 #@! TO.C,R2*
X140175748Y-92510000D02*
X142948252Y-92510000D01*
X140175748Y-89090000D02*
X142948252Y-89090000D01*
G04 #@! TO.C,R3*
X123010000Y-112748252D02*
X123010000Y-109975748D01*
X119590000Y-112748252D02*
X119590000Y-109975748D01*
G04 #@! TO.C,R4*
X113090000Y-112748252D02*
X113090000Y-109975748D01*
X116510000Y-112748252D02*
X116510000Y-109975748D01*
G04 #@! TO.C,RV1*
X157840000Y-81002064D02*
X157840000Y-79797936D01*
X160560000Y-81002064D02*
X160560000Y-79797936D01*
G04 #@! TO.C,RV2*
X158740000Y-97197936D02*
X158740000Y-98402064D01*
X161460000Y-97197936D02*
X161460000Y-98402064D01*
G04 #@! TO.C,RV3*
X122860000Y-133297936D02*
X122860000Y-134502064D01*
X120140000Y-133297936D02*
X120140000Y-134502064D01*
G04 #@! TO.C,RV4*
X113440000Y-133197936D02*
X113440000Y-134402064D01*
X116160000Y-133197936D02*
X116160000Y-134402064D01*
D12*
G04 #@! TO.C,U1*
X138175000Y-50775000D02*
X138175000Y-51425000D01*
X152425000Y-50775000D02*
X152425000Y-51535000D01*
X152425000Y-65025000D02*
X152425000Y-64265000D01*
X138175000Y-65025000D02*
X138175000Y-64265000D01*
X138175000Y-50775000D02*
X138935000Y-50775000D01*
X138175000Y-65025000D02*
X138935000Y-65025000D01*
X152425000Y-65025000D02*
X151665000Y-65025000D01*
X152425000Y-50775000D02*
X151665000Y-50775000D01*
X138175000Y-51425000D02*
X136650000Y-51425000D01*
D13*
G04 #@! TO.C,U2*
X112120000Y-59830000D02*
X122360000Y-59830000D01*
X112120000Y-64471000D02*
X122360000Y-64471000D01*
X112120000Y-59830000D02*
X112120000Y-64471000D01*
X122360000Y-59830000D02*
X122360000Y-64471000D01*
X112120000Y-61340000D02*
X122360000Y-61340000D01*
X115390000Y-59830000D02*
X115390000Y-61340000D01*
X119091000Y-59830000D02*
X119091000Y-61340000D01*
D12*
G04 #@! TO.C,U3*
X129725000Y-85010000D02*
X128325000Y-85010000D01*
X129725000Y-90110000D02*
X133875000Y-90110000D01*
X129725000Y-84960000D02*
X133875000Y-84960000D01*
X129725000Y-90110000D02*
X129725000Y-89965000D01*
X133875000Y-90110000D02*
X133875000Y-89965000D01*
X133875000Y-84960000D02*
X133875000Y-85105000D01*
X129725000Y-84960000D02*
X129725000Y-85010000D01*
G04 #@! TO.C,U4*
X120175000Y-100325000D02*
X120125000Y-100325000D01*
X120175000Y-104475000D02*
X120030000Y-104475000D01*
X115025000Y-104475000D02*
X115170000Y-104475000D01*
X115025000Y-100325000D02*
X115170000Y-100325000D01*
X120175000Y-100325000D02*
X120175000Y-104475000D01*
X115025000Y-100325000D02*
X115025000Y-104475000D01*
X120125000Y-100325000D02*
X120125000Y-98925000D01*
G04 #@! TO.C,J1*
X89404000Y-45668000D02*
X89404000Y-44906000D01*
X103120000Y-44906000D02*
X89658000Y-44906000D01*
X89658000Y-44906000D02*
X89404000Y-44906000D01*
X89404000Y-44906000D02*
X89404000Y-45668000D01*
X103120000Y-44906000D02*
X103120000Y-63956000D01*
X103120000Y-63956000D02*
X89404000Y-63956000D01*
X89404000Y-63956000D02*
X89404000Y-45922000D01*
X89404000Y-45922000D02*
X89404000Y-45414000D01*
D13*
G04 #@! TO.C,J4*
X102300000Y-83500000D02*
X102300000Y-72650000D01*
X97200000Y-83500000D02*
X102300000Y-83500000D01*
X97500000Y-83000000D02*
X97200000Y-83500000D01*
X92100000Y-83000000D02*
X97500000Y-83000000D01*
X92350000Y-83500000D02*
X92100000Y-83000000D01*
X92300000Y-83500000D02*
X92350000Y-83500000D01*
X90400000Y-83500000D02*
X92300000Y-83500000D01*
X90650000Y-83000000D02*
X90400000Y-83500000D01*
X89700000Y-83000000D02*
X90650000Y-83000000D01*
X89700000Y-72650000D02*
X89700000Y-83000000D01*
X102300000Y-72650000D02*
X89700000Y-72650000D01*
G04 #@! TO.C,J5*
X102000000Y-91450000D02*
X89400000Y-91450000D01*
X89400000Y-91450000D02*
X89400000Y-101800000D01*
X89400000Y-101800000D02*
X90350000Y-101800000D01*
X90350000Y-101800000D02*
X90100000Y-102300000D01*
X90100000Y-102300000D02*
X92000000Y-102300000D01*
X92000000Y-102300000D02*
X92050000Y-102300000D01*
X92050000Y-102300000D02*
X91800000Y-101800000D01*
X91800000Y-101800000D02*
X97200000Y-101800000D01*
X97200000Y-101800000D02*
X96900000Y-102300000D01*
X96900000Y-102300000D02*
X102000000Y-102300000D01*
X102000000Y-102300000D02*
X102000000Y-91450000D01*
G04 #@! TO.C,J6*
X101800000Y-110850000D02*
X89200000Y-110850000D01*
X89200000Y-110850000D02*
X89200000Y-121200000D01*
X89200000Y-121200000D02*
X90150000Y-121200000D01*
X90150000Y-121200000D02*
X89900000Y-121700000D01*
X89900000Y-121700000D02*
X91800000Y-121700000D01*
X91800000Y-121700000D02*
X91850000Y-121700000D01*
X91850000Y-121700000D02*
X91600000Y-121200000D01*
X91600000Y-121200000D02*
X97000000Y-121200000D01*
X97000000Y-121200000D02*
X96700000Y-121700000D01*
X96700000Y-121700000D02*
X101800000Y-121700000D01*
X101800000Y-121700000D02*
X101800000Y-110850000D01*
G04 #@! TO.C,J7*
X102200000Y-139500000D02*
X102200000Y-128650000D01*
X97100000Y-139500000D02*
X102200000Y-139500000D01*
X97400000Y-139000000D02*
X97100000Y-139500000D01*
X92000000Y-139000000D02*
X97400000Y-139000000D01*
X92250000Y-139500000D02*
X92000000Y-139000000D01*
X92200000Y-139500000D02*
X92250000Y-139500000D01*
X90300000Y-139500000D02*
X92200000Y-139500000D01*
X90550000Y-139000000D02*
X90300000Y-139500000D01*
X89600000Y-139000000D02*
X90550000Y-139000000D01*
X89600000Y-128650000D02*
X89600000Y-139000000D01*
X102200000Y-128650000D02*
X89600000Y-128650000D01*
G04 #@! TO.C,J8*
X188700000Y-102650000D02*
X176100000Y-102650000D01*
X188700000Y-82350000D02*
X188700000Y-102650000D01*
X187750000Y-82350000D02*
X188700000Y-82350000D01*
X188050000Y-81800000D02*
X187750000Y-82350000D01*
X186000000Y-81800000D02*
X188050000Y-81800000D01*
X186300000Y-82350000D02*
X186000000Y-81800000D01*
X180900000Y-82350000D02*
X186300000Y-82350000D01*
X181150000Y-81850000D02*
X180900000Y-82350000D01*
X176100000Y-81850000D02*
X181150000Y-81850000D01*
X176100000Y-102650000D02*
X176100000Y-81850000D01*
G04 #@! TO.C,J9*
X175400000Y-71950000D02*
X175400000Y-51150000D01*
X175400000Y-51150000D02*
X180450000Y-51150000D01*
X180450000Y-51150000D02*
X180200000Y-51650000D01*
X180200000Y-51650000D02*
X185600000Y-51650000D01*
X185600000Y-51650000D02*
X185300000Y-51100000D01*
X185300000Y-51100000D02*
X187350000Y-51100000D01*
X187350000Y-51100000D02*
X187050000Y-51650000D01*
X187050000Y-51650000D02*
X188000000Y-51650000D01*
X188000000Y-51650000D02*
X188000000Y-71950000D01*
X188000000Y-71950000D02*
X175400000Y-71950000D01*
G04 #@! TO.C,J10*
X176100000Y-137950000D02*
X188700000Y-137950000D01*
X188700000Y-137950000D02*
X188700000Y-122550000D01*
X188700000Y-122550000D02*
X187750000Y-122550000D01*
X187750000Y-122550000D02*
X188050000Y-122050000D01*
X188050000Y-122050000D02*
X186050000Y-122050000D01*
X186050000Y-122050000D02*
X186300000Y-122550000D01*
X186300000Y-122550000D02*
X180900000Y-122550000D01*
X180900000Y-122550000D02*
X181150000Y-122050000D01*
X181150000Y-122050000D02*
X176100000Y-122050000D01*
X176100000Y-122050000D02*
X176100000Y-137950000D01*
G04 #@! TO.C,SW1*
X140500000Y-38010000D02*
X140500000Y-31190000D01*
X162501000Y-38010000D02*
X162501000Y-31190000D01*
X140500000Y-38010000D02*
X141810000Y-38010000D01*
X143410000Y-38010000D02*
X144350000Y-38010000D01*
X145950000Y-38010000D02*
X146890000Y-38010000D01*
X148490000Y-38010000D02*
X149430000Y-38010000D01*
X151030000Y-38010000D02*
X151970000Y-38010000D01*
X153570000Y-38010000D02*
X154510000Y-38010000D01*
X156110000Y-38010000D02*
X157050000Y-38010000D01*
X158650000Y-38010000D02*
X159590000Y-38010000D01*
X161190000Y-38010000D02*
X162501000Y-38010000D01*
X161190000Y-31190000D02*
X162501000Y-31190000D01*
X158651000Y-31190000D02*
X159590000Y-31190000D01*
X156111000Y-31190000D02*
X157051000Y-31190000D01*
X153571000Y-31190000D02*
X154511000Y-31190000D01*
X151031000Y-31190000D02*
X151971000Y-31190000D01*
X148491000Y-31190000D02*
X149431000Y-31190000D01*
X145951000Y-31190000D02*
X146891000Y-31190000D01*
X140500000Y-31190000D02*
X141810000Y-31190000D01*
X143411000Y-31190000D02*
X144351000Y-31190000D01*
X140260000Y-38250000D02*
X140260000Y-36867000D01*
X140260000Y-38250000D02*
X141643000Y-38250000D01*
X141975000Y-36410000D02*
X143245000Y-36410000D01*
X143245000Y-36410000D02*
X143245000Y-32790000D01*
X143245000Y-32790000D02*
X141975000Y-32790000D01*
X141975000Y-32790000D02*
X141975000Y-36410000D01*
X142095000Y-36410000D02*
X142095000Y-35203333D01*
X142215000Y-36410000D02*
X142215000Y-35203333D01*
X142335000Y-36410000D02*
X142335000Y-35203333D01*
X142455000Y-36410000D02*
X142455000Y-35203333D01*
X142575000Y-36410000D02*
X142575000Y-35203333D01*
X142695000Y-36410000D02*
X142695000Y-35203333D01*
X142815000Y-36410000D02*
X142815000Y-35203333D01*
X142935000Y-36410000D02*
X142935000Y-35203333D01*
X143055000Y-36410000D02*
X143055000Y-35203333D01*
X143175000Y-36410000D02*
X143175000Y-35203333D01*
X141975000Y-35203333D02*
X143245000Y-35203333D01*
X144515000Y-36410000D02*
X145785000Y-36410000D01*
X145785000Y-36410000D02*
X145785000Y-32790000D01*
X145785000Y-32790000D02*
X144515000Y-32790000D01*
X144515000Y-32790000D02*
X144515000Y-36410000D01*
X144635000Y-36410000D02*
X144635000Y-35203333D01*
X144755000Y-36410000D02*
X144755000Y-35203333D01*
X144875000Y-36410000D02*
X144875000Y-35203333D01*
X144995000Y-36410000D02*
X144995000Y-35203333D01*
X145115000Y-36410000D02*
X145115000Y-35203333D01*
X145235000Y-36410000D02*
X145235000Y-35203333D01*
X145355000Y-36410000D02*
X145355000Y-35203333D01*
X145475000Y-36410000D02*
X145475000Y-35203333D01*
X145595000Y-36410000D02*
X145595000Y-35203333D01*
X145715000Y-36410000D02*
X145715000Y-35203333D01*
X144515000Y-35203333D02*
X145785000Y-35203333D01*
X147055000Y-36410000D02*
X148325000Y-36410000D01*
X148325000Y-36410000D02*
X148325000Y-32790000D01*
X148325000Y-32790000D02*
X147055000Y-32790000D01*
X147055000Y-32790000D02*
X147055000Y-36410000D01*
X147175000Y-36410000D02*
X147175000Y-35203333D01*
X147295000Y-36410000D02*
X147295000Y-35203333D01*
X147415000Y-36410000D02*
X147415000Y-35203333D01*
X147535000Y-36410000D02*
X147535000Y-35203333D01*
X147655000Y-36410000D02*
X147655000Y-35203333D01*
X147775000Y-36410000D02*
X147775000Y-35203333D01*
X147895000Y-36410000D02*
X147895000Y-35203333D01*
X148015000Y-36410000D02*
X148015000Y-35203333D01*
X148135000Y-36410000D02*
X148135000Y-35203333D01*
X148255000Y-36410000D02*
X148255000Y-35203333D01*
X147055000Y-35203333D02*
X148325000Y-35203333D01*
X149595000Y-36410000D02*
X150865000Y-36410000D01*
X150865000Y-36410000D02*
X150865000Y-32790000D01*
X150865000Y-32790000D02*
X149595000Y-32790000D01*
X149595000Y-32790000D02*
X149595000Y-36410000D01*
X149715000Y-36410000D02*
X149715000Y-35203333D01*
X149835000Y-36410000D02*
X149835000Y-35203333D01*
X149955000Y-36410000D02*
X149955000Y-35203333D01*
X150075000Y-36410000D02*
X150075000Y-35203333D01*
X150195000Y-36410000D02*
X150195000Y-35203333D01*
X150315000Y-36410000D02*
X150315000Y-35203333D01*
X150435000Y-36410000D02*
X150435000Y-35203333D01*
X150555000Y-36410000D02*
X150555000Y-35203333D01*
X150675000Y-36410000D02*
X150675000Y-35203333D01*
X150795000Y-36410000D02*
X150795000Y-35203333D01*
X149595000Y-35203333D02*
X150865000Y-35203333D01*
X152135000Y-36410000D02*
X153405000Y-36410000D01*
X153405000Y-36410000D02*
X153405000Y-32790000D01*
X153405000Y-32790000D02*
X152135000Y-32790000D01*
X152135000Y-32790000D02*
X152135000Y-36410000D01*
X152255000Y-36410000D02*
X152255000Y-35203333D01*
X152375000Y-36410000D02*
X152375000Y-35203333D01*
X152495000Y-36410000D02*
X152495000Y-35203333D01*
X152615000Y-36410000D02*
X152615000Y-35203333D01*
X152735000Y-36410000D02*
X152735000Y-35203333D01*
X152855000Y-36410000D02*
X152855000Y-35203333D01*
X152975000Y-36410000D02*
X152975000Y-35203333D01*
X153095000Y-36410000D02*
X153095000Y-35203333D01*
X153215000Y-36410000D02*
X153215000Y-35203333D01*
X153335000Y-36410000D02*
X153335000Y-35203333D01*
X152135000Y-35203333D02*
X153405000Y-35203333D01*
X154675000Y-36410000D02*
X155945000Y-36410000D01*
X155945000Y-36410000D02*
X155945000Y-32790000D01*
X155945000Y-32790000D02*
X154675000Y-32790000D01*
X154675000Y-32790000D02*
X154675000Y-36410000D01*
X154795000Y-36410000D02*
X154795000Y-35203333D01*
X154915000Y-36410000D02*
X154915000Y-35203333D01*
X155035000Y-36410000D02*
X155035000Y-35203333D01*
X155155000Y-36410000D02*
X155155000Y-35203333D01*
X155275000Y-36410000D02*
X155275000Y-35203333D01*
X155395000Y-36410000D02*
X155395000Y-35203333D01*
X155515000Y-36410000D02*
X155515000Y-35203333D01*
X155635000Y-36410000D02*
X155635000Y-35203333D01*
X155755000Y-36410000D02*
X155755000Y-35203333D01*
X155875000Y-36410000D02*
X155875000Y-35203333D01*
X154675000Y-35203333D02*
X155945000Y-35203333D01*
X157215000Y-36410000D02*
X158485000Y-36410000D01*
X158485000Y-36410000D02*
X158485000Y-32790000D01*
X158485000Y-32790000D02*
X157215000Y-32790000D01*
X157215000Y-32790000D02*
X157215000Y-36410000D01*
X157335000Y-36410000D02*
X157335000Y-35203333D01*
X157455000Y-36410000D02*
X157455000Y-35203333D01*
X157575000Y-36410000D02*
X157575000Y-35203333D01*
X157695000Y-36410000D02*
X157695000Y-35203333D01*
X157815000Y-36410000D02*
X157815000Y-35203333D01*
X157935000Y-36410000D02*
X157935000Y-35203333D01*
X158055000Y-36410000D02*
X158055000Y-35203333D01*
X158175000Y-36410000D02*
X158175000Y-35203333D01*
X158295000Y-36410000D02*
X158295000Y-35203333D01*
X158415000Y-36410000D02*
X158415000Y-35203333D01*
X157215000Y-35203333D02*
X158485000Y-35203333D01*
X159755000Y-36410000D02*
X161025000Y-36410000D01*
X161025000Y-36410000D02*
X161025000Y-32790000D01*
X161025000Y-32790000D02*
X159755000Y-32790000D01*
X159755000Y-32790000D02*
X159755000Y-36410000D01*
X159875000Y-36410000D02*
X159875000Y-35203333D01*
X159995000Y-36410000D02*
X159995000Y-35203333D01*
X160115000Y-36410000D02*
X160115000Y-35203333D01*
X160235000Y-36410000D02*
X160235000Y-35203333D01*
X160355000Y-36410000D02*
X160355000Y-35203333D01*
X160475000Y-36410000D02*
X160475000Y-35203333D01*
X160595000Y-36410000D02*
X160595000Y-35203333D01*
X160715000Y-36410000D02*
X160715000Y-35203333D01*
X160835000Y-36410000D02*
X160835000Y-35203333D01*
X160955000Y-36410000D02*
X160955000Y-35203333D01*
X159755000Y-35203333D02*
X161025000Y-35203333D01*
G04 #@! TO.C,U5*
D12*
X152911095Y-112903380D02*
X152911095Y-113712904D01*
X152958714Y-113808142D01*
X153006333Y-113855761D01*
X153101571Y-113903380D01*
X153292047Y-113903380D01*
X153387285Y-113855761D01*
X153434904Y-113808142D01*
X153482523Y-113712904D01*
X153482523Y-112903380D01*
X154434904Y-112903380D02*
X153958714Y-112903380D01*
X153911095Y-113379571D01*
X153958714Y-113331952D01*
X154053952Y-113284333D01*
X154292047Y-113284333D01*
X154387285Y-113331952D01*
X154434904Y-113379571D01*
X154482523Y-113474809D01*
X154482523Y-113712904D01*
X154434904Y-113808142D01*
X154387285Y-113855761D01*
X154292047Y-113903380D01*
X154053952Y-113903380D01*
X153958714Y-113855761D01*
X153911095Y-113808142D01*
G04 #@! TO.C,C1*
X139533333Y-42637142D02*
X139485714Y-42684761D01*
X139342857Y-42732380D01*
X139247619Y-42732380D01*
X139104761Y-42684761D01*
X139009523Y-42589523D01*
X138961904Y-42494285D01*
X138914285Y-42303809D01*
X138914285Y-42160952D01*
X138961904Y-41970476D01*
X139009523Y-41875238D01*
X139104761Y-41780000D01*
X139247619Y-41732380D01*
X139342857Y-41732380D01*
X139485714Y-41780000D01*
X139533333Y-41827619D01*
X140485714Y-42732380D02*
X139914285Y-42732380D01*
X140200000Y-42732380D02*
X140200000Y-41732380D01*
X140104761Y-41875238D01*
X140009523Y-41970476D01*
X139914285Y-42018095D01*
G04 #@! TO.C,C2*
X147133333Y-46277142D02*
X147085714Y-46324761D01*
X146942857Y-46372380D01*
X146847619Y-46372380D01*
X146704761Y-46324761D01*
X146609523Y-46229523D01*
X146561904Y-46134285D01*
X146514285Y-45943809D01*
X146514285Y-45800952D01*
X146561904Y-45610476D01*
X146609523Y-45515238D01*
X146704761Y-45420000D01*
X146847619Y-45372380D01*
X146942857Y-45372380D01*
X147085714Y-45420000D01*
X147133333Y-45467619D01*
X147514285Y-45467619D02*
X147561904Y-45420000D01*
X147657142Y-45372380D01*
X147895238Y-45372380D01*
X147990476Y-45420000D01*
X148038095Y-45467619D01*
X148085714Y-45562857D01*
X148085714Y-45658095D01*
X148038095Y-45800952D01*
X147466666Y-46372380D01*
X148085714Y-46372380D01*
G04 #@! TO.C,C3*
X130537142Y-52866666D02*
X130584761Y-52914285D01*
X130632380Y-53057142D01*
X130632380Y-53152380D01*
X130584761Y-53295238D01*
X130489523Y-53390476D01*
X130394285Y-53438095D01*
X130203809Y-53485714D01*
X130060952Y-53485714D01*
X129870476Y-53438095D01*
X129775238Y-53390476D01*
X129680000Y-53295238D01*
X129632380Y-53152380D01*
X129632380Y-53057142D01*
X129680000Y-52914285D01*
X129727619Y-52866666D01*
X129632380Y-52533333D02*
X129632380Y-51914285D01*
X130013333Y-52247619D01*
X130013333Y-52104761D01*
X130060952Y-52009523D01*
X130108571Y-51961904D01*
X130203809Y-51914285D01*
X130441904Y-51914285D01*
X130537142Y-51961904D01*
X130584761Y-52009523D01*
X130632380Y-52104761D01*
X130632380Y-52390476D01*
X130584761Y-52485714D01*
X130537142Y-52533333D01*
G04 #@! TO.C,C4*
X157537142Y-61066666D02*
X157584761Y-61114285D01*
X157632380Y-61257142D01*
X157632380Y-61352380D01*
X157584761Y-61495238D01*
X157489523Y-61590476D01*
X157394285Y-61638095D01*
X157203809Y-61685714D01*
X157060952Y-61685714D01*
X156870476Y-61638095D01*
X156775238Y-61590476D01*
X156680000Y-61495238D01*
X156632380Y-61352380D01*
X156632380Y-61257142D01*
X156680000Y-61114285D01*
X156727619Y-61066666D01*
X156965714Y-60209523D02*
X157632380Y-60209523D01*
X156584761Y-60447619D02*
X157299047Y-60685714D01*
X157299047Y-60066666D01*
G04 #@! TO.C,C5*
X161177142Y-54366666D02*
X161224761Y-54414285D01*
X161272380Y-54557142D01*
X161272380Y-54652380D01*
X161224761Y-54795238D01*
X161129523Y-54890476D01*
X161034285Y-54938095D01*
X160843809Y-54985714D01*
X160700952Y-54985714D01*
X160510476Y-54938095D01*
X160415238Y-54890476D01*
X160320000Y-54795238D01*
X160272380Y-54652380D01*
X160272380Y-54557142D01*
X160320000Y-54414285D01*
X160367619Y-54366666D01*
X160272380Y-53461904D02*
X160272380Y-53938095D01*
X160748571Y-53985714D01*
X160700952Y-53938095D01*
X160653333Y-53842857D01*
X160653333Y-53604761D01*
X160700952Y-53509523D01*
X160748571Y-53461904D01*
X160843809Y-53414285D01*
X161081904Y-53414285D01*
X161177142Y-53461904D01*
X161224761Y-53509523D01*
X161272380Y-53604761D01*
X161272380Y-53842857D01*
X161224761Y-53938095D01*
X161177142Y-53985714D01*
G04 #@! TO.C,C6*
X147933333Y-73577142D02*
X147885714Y-73624761D01*
X147742857Y-73672380D01*
X147647619Y-73672380D01*
X147504761Y-73624761D01*
X147409523Y-73529523D01*
X147361904Y-73434285D01*
X147314285Y-73243809D01*
X147314285Y-73100952D01*
X147361904Y-72910476D01*
X147409523Y-72815238D01*
X147504761Y-72720000D01*
X147647619Y-72672380D01*
X147742857Y-72672380D01*
X147885714Y-72720000D01*
X147933333Y-72767619D01*
X148790476Y-72672380D02*
X148600000Y-72672380D01*
X148504761Y-72720000D01*
X148457142Y-72767619D01*
X148361904Y-72910476D01*
X148314285Y-73100952D01*
X148314285Y-73481904D01*
X148361904Y-73577142D01*
X148409523Y-73624761D01*
X148504761Y-73672380D01*
X148695238Y-73672380D01*
X148790476Y-73624761D01*
X148838095Y-73577142D01*
X148885714Y-73481904D01*
X148885714Y-73243809D01*
X148838095Y-73148571D01*
X148790476Y-73100952D01*
X148695238Y-73053333D01*
X148504761Y-73053333D01*
X148409523Y-73100952D01*
X148361904Y-73148571D01*
X148314285Y-73243809D01*
G04 #@! TO.C,C7*
X141533333Y-69837142D02*
X141485714Y-69884761D01*
X141342857Y-69932380D01*
X141247619Y-69932380D01*
X141104761Y-69884761D01*
X141009523Y-69789523D01*
X140961904Y-69694285D01*
X140914285Y-69503809D01*
X140914285Y-69360952D01*
X140961904Y-69170476D01*
X141009523Y-69075238D01*
X141104761Y-68980000D01*
X141247619Y-68932380D01*
X141342857Y-68932380D01*
X141485714Y-68980000D01*
X141533333Y-69027619D01*
X141866666Y-68932380D02*
X142533333Y-68932380D01*
X142104761Y-69932380D01*
G04 #@! TO.C,C8*
X113857142Y-49366666D02*
X113904761Y-49414285D01*
X113952380Y-49557142D01*
X113952380Y-49652380D01*
X113904761Y-49795238D01*
X113809523Y-49890476D01*
X113714285Y-49938095D01*
X113523809Y-49985714D01*
X113380952Y-49985714D01*
X113190476Y-49938095D01*
X113095238Y-49890476D01*
X113000000Y-49795238D01*
X112952380Y-49652380D01*
X112952380Y-49557142D01*
X113000000Y-49414285D01*
X113047619Y-49366666D01*
X113380952Y-48795238D02*
X113333333Y-48890476D01*
X113285714Y-48938095D01*
X113190476Y-48985714D01*
X113142857Y-48985714D01*
X113047619Y-48938095D01*
X113000000Y-48890476D01*
X112952380Y-48795238D01*
X112952380Y-48604761D01*
X113000000Y-48509523D01*
X113047619Y-48461904D01*
X113142857Y-48414285D01*
X113190476Y-48414285D01*
X113285714Y-48461904D01*
X113333333Y-48509523D01*
X113380952Y-48604761D01*
X113380952Y-48795238D01*
X113428571Y-48890476D01*
X113476190Y-48938095D01*
X113571428Y-48985714D01*
X113761904Y-48985714D01*
X113857142Y-48938095D01*
X113904761Y-48890476D01*
X113952380Y-48795238D01*
X113952380Y-48604761D01*
X113904761Y-48509523D01*
X113857142Y-48461904D01*
X113761904Y-48414285D01*
X113571428Y-48414285D01*
X113476190Y-48461904D01*
X113428571Y-48509523D01*
X113380952Y-48604761D01*
G04 #@! TO.C,C9*
X130637142Y-61266666D02*
X130684761Y-61314285D01*
X130732380Y-61457142D01*
X130732380Y-61552380D01*
X130684761Y-61695238D01*
X130589523Y-61790476D01*
X130494285Y-61838095D01*
X130303809Y-61885714D01*
X130160952Y-61885714D01*
X129970476Y-61838095D01*
X129875238Y-61790476D01*
X129780000Y-61695238D01*
X129732380Y-61552380D01*
X129732380Y-61457142D01*
X129780000Y-61314285D01*
X129827619Y-61266666D01*
X130732380Y-60790476D02*
X130732380Y-60600000D01*
X130684761Y-60504761D01*
X130637142Y-60457142D01*
X130494285Y-60361904D01*
X130303809Y-60314285D01*
X129922857Y-60314285D01*
X129827619Y-60361904D01*
X129780000Y-60409523D01*
X129732380Y-60504761D01*
X129732380Y-60695238D01*
X129780000Y-60790476D01*
X129827619Y-60838095D01*
X129922857Y-60885714D01*
X130160952Y-60885714D01*
X130256190Y-60838095D01*
X130303809Y-60790476D01*
X130351428Y-60695238D01*
X130351428Y-60504761D01*
X130303809Y-60409523D01*
X130256190Y-60361904D01*
X130160952Y-60314285D01*
G04 #@! TO.C,C10*
X131357142Y-79437142D02*
X131309523Y-79484761D01*
X131166666Y-79532380D01*
X131071428Y-79532380D01*
X130928571Y-79484761D01*
X130833333Y-79389523D01*
X130785714Y-79294285D01*
X130738095Y-79103809D01*
X130738095Y-78960952D01*
X130785714Y-78770476D01*
X130833333Y-78675238D01*
X130928571Y-78580000D01*
X131071428Y-78532380D01*
X131166666Y-78532380D01*
X131309523Y-78580000D01*
X131357142Y-78627619D01*
X132309523Y-79532380D02*
X131738095Y-79532380D01*
X132023809Y-79532380D02*
X132023809Y-78532380D01*
X131928571Y-78675238D01*
X131833333Y-78770476D01*
X131738095Y-78818095D01*
X132928571Y-78532380D02*
X133023809Y-78532380D01*
X133119047Y-78580000D01*
X133166666Y-78627619D01*
X133214285Y-78722857D01*
X133261904Y-78913333D01*
X133261904Y-79151428D01*
X133214285Y-79341904D01*
X133166666Y-79437142D01*
X133119047Y-79484761D01*
X133023809Y-79532380D01*
X132928571Y-79532380D01*
X132833333Y-79484761D01*
X132785714Y-79437142D01*
X132738095Y-79341904D01*
X132690476Y-79151428D01*
X132690476Y-78913333D01*
X132738095Y-78722857D01*
X132785714Y-78627619D01*
X132833333Y-78580000D01*
X132928571Y-78532380D01*
G04 #@! TO.C,C11*
X126777142Y-102942857D02*
X126824761Y-102990476D01*
X126872380Y-103133333D01*
X126872380Y-103228571D01*
X126824761Y-103371428D01*
X126729523Y-103466666D01*
X126634285Y-103514285D01*
X126443809Y-103561904D01*
X126300952Y-103561904D01*
X126110476Y-103514285D01*
X126015238Y-103466666D01*
X125920000Y-103371428D01*
X125872380Y-103228571D01*
X125872380Y-103133333D01*
X125920000Y-102990476D01*
X125967619Y-102942857D01*
X126872380Y-101990476D02*
X126872380Y-102561904D01*
X126872380Y-102276190D02*
X125872380Y-102276190D01*
X126015238Y-102371428D01*
X126110476Y-102466666D01*
X126158095Y-102561904D01*
X126872380Y-101038095D02*
X126872380Y-101609523D01*
X126872380Y-101323809D02*
X125872380Y-101323809D01*
X126015238Y-101419047D01*
X126110476Y-101514285D01*
X126158095Y-101609523D01*
G04 #@! TO.C,D1*
X147361904Y-90252380D02*
X147361904Y-89252380D01*
X147600000Y-89252380D01*
X147742857Y-89300000D01*
X147838095Y-89395238D01*
X147885714Y-89490476D01*
X147933333Y-89680952D01*
X147933333Y-89823809D01*
X147885714Y-90014285D01*
X147838095Y-90109523D01*
X147742857Y-90204761D01*
X147600000Y-90252380D01*
X147361904Y-90252380D01*
X148885714Y-90252380D02*
X148314285Y-90252380D01*
X148600000Y-90252380D02*
X148600000Y-89252380D01*
X148504761Y-89395238D01*
X148409523Y-89490476D01*
X148314285Y-89538095D01*
G04 #@! TO.C,D2*
X116002380Y-118238095D02*
X115002380Y-118238095D01*
X115002380Y-118000000D01*
X115050000Y-117857142D01*
X115145238Y-117761904D01*
X115240476Y-117714285D01*
X115430952Y-117666666D01*
X115573809Y-117666666D01*
X115764285Y-117714285D01*
X115859523Y-117761904D01*
X115954761Y-117857142D01*
X116002380Y-118000000D01*
X116002380Y-118238095D01*
X115097619Y-117285714D02*
X115050000Y-117238095D01*
X115002380Y-117142857D01*
X115002380Y-116904761D01*
X115050000Y-116809523D01*
X115097619Y-116761904D01*
X115192857Y-116714285D01*
X115288095Y-116714285D01*
X115430952Y-116761904D01*
X116002380Y-117333333D01*
X116002380Y-116714285D01*
G04 #@! TO.C,F1*
X156504666Y-88878571D02*
X156171333Y-88878571D01*
X156171333Y-89402380D02*
X156171333Y-88402380D01*
X156647523Y-88402380D01*
X157552285Y-89402380D02*
X156980857Y-89402380D01*
X157266571Y-89402380D02*
X157266571Y-88402380D01*
X157171333Y-88545238D01*
X157076095Y-88640476D01*
X156980857Y-88688095D01*
G04 #@! TO.C,F2*
X156504666Y-94678571D02*
X156171333Y-94678571D01*
X156171333Y-95202380D02*
X156171333Y-94202380D01*
X156647523Y-94202380D01*
X156980857Y-94297619D02*
X157028476Y-94250000D01*
X157123714Y-94202380D01*
X157361809Y-94202380D01*
X157457047Y-94250000D01*
X157504666Y-94297619D01*
X157552285Y-94392857D01*
X157552285Y-94488095D01*
X157504666Y-94630952D01*
X156933238Y-95202380D01*
X157552285Y-95202380D01*
G04 #@! TO.C,F3*
X118516666Y-124266571D02*
X118183333Y-124266571D01*
X118183333Y-124790380D02*
X118183333Y-123790380D01*
X118659523Y-123790380D01*
X118945238Y-123790380D02*
X119564285Y-123790380D01*
X119230952Y-124171333D01*
X119373809Y-124171333D01*
X119469047Y-124218952D01*
X119516666Y-124266571D01*
X119564285Y-124361809D01*
X119564285Y-124599904D01*
X119516666Y-124695142D01*
X119469047Y-124742761D01*
X119373809Y-124790380D01*
X119088095Y-124790380D01*
X118992857Y-124742761D01*
X118945238Y-124695142D01*
G04 #@! TO.C,F4*
X111778571Y-124595333D02*
X111778571Y-124928666D01*
X112302380Y-124928666D02*
X111302380Y-124928666D01*
X111302380Y-124452476D01*
X111635714Y-123642952D02*
X112302380Y-123642952D01*
X111254761Y-123881047D02*
X111969047Y-124119142D01*
X111969047Y-123500095D01*
G04 #@! TO.C,J2*
X130682380Y-33103333D02*
X131396666Y-33103333D01*
X131539523Y-33150952D01*
X131634761Y-33246190D01*
X131682380Y-33389047D01*
X131682380Y-33484285D01*
X130777619Y-32674761D02*
X130730000Y-32627142D01*
X130682380Y-32531904D01*
X130682380Y-32293809D01*
X130730000Y-32198571D01*
X130777619Y-32150952D01*
X130872857Y-32103333D01*
X130968095Y-32103333D01*
X131110952Y-32150952D01*
X131682380Y-32722380D01*
X131682380Y-32103333D01*
G04 #@! TO.C,J3*
X174822380Y-31833333D02*
X175536666Y-31833333D01*
X175679523Y-31880952D01*
X175774761Y-31976190D01*
X175822380Y-32119047D01*
X175822380Y-32214285D01*
X174822380Y-31452380D02*
X174822380Y-30833333D01*
X175203333Y-31166666D01*
X175203333Y-31023809D01*
X175250952Y-30928571D01*
X175298571Y-30880952D01*
X175393809Y-30833333D01*
X175631904Y-30833333D01*
X175727142Y-30880952D01*
X175774761Y-30928571D01*
X175822380Y-31023809D01*
X175822380Y-31309523D01*
X175774761Y-31404761D01*
X175727142Y-31452380D01*
G04 #@! TO.C,R1*
X141295333Y-86502380D02*
X140962000Y-86026190D01*
X140723904Y-86502380D02*
X140723904Y-85502380D01*
X141104857Y-85502380D01*
X141200095Y-85550000D01*
X141247714Y-85597619D01*
X141295333Y-85692857D01*
X141295333Y-85835714D01*
X141247714Y-85930952D01*
X141200095Y-85978571D01*
X141104857Y-86026190D01*
X140723904Y-86026190D01*
X142247714Y-86502380D02*
X141676285Y-86502380D01*
X141962000Y-86502380D02*
X141962000Y-85502380D01*
X141866761Y-85645238D01*
X141771523Y-85740476D01*
X141676285Y-85788095D01*
G04 #@! TO.C,R2*
X141395333Y-88602380D02*
X141062000Y-88126190D01*
X140823904Y-88602380D02*
X140823904Y-87602380D01*
X141204857Y-87602380D01*
X141300095Y-87650000D01*
X141347714Y-87697619D01*
X141395333Y-87792857D01*
X141395333Y-87935714D01*
X141347714Y-88030952D01*
X141300095Y-88078571D01*
X141204857Y-88126190D01*
X140823904Y-88126190D01*
X141776285Y-87697619D02*
X141823904Y-87650000D01*
X141919142Y-87602380D01*
X142157238Y-87602380D01*
X142252476Y-87650000D01*
X142300095Y-87697619D01*
X142347714Y-87792857D01*
X142347714Y-87888095D01*
X142300095Y-88030952D01*
X141728666Y-88602380D01*
X142347714Y-88602380D01*
G04 #@! TO.C,R3*
X119102380Y-111528666D02*
X118626190Y-111862000D01*
X119102380Y-112100095D02*
X118102380Y-112100095D01*
X118102380Y-111719142D01*
X118150000Y-111623904D01*
X118197619Y-111576285D01*
X118292857Y-111528666D01*
X118435714Y-111528666D01*
X118530952Y-111576285D01*
X118578571Y-111623904D01*
X118626190Y-111719142D01*
X118626190Y-112100095D01*
X118102380Y-111195333D02*
X118102380Y-110576285D01*
X118483333Y-110909619D01*
X118483333Y-110766761D01*
X118530952Y-110671523D01*
X118578571Y-110623904D01*
X118673809Y-110576285D01*
X118911904Y-110576285D01*
X119007142Y-110623904D01*
X119054761Y-110671523D01*
X119102380Y-110766761D01*
X119102380Y-111052476D01*
X119054761Y-111147714D01*
X119007142Y-111195333D01*
G04 #@! TO.C,R4*
X112602380Y-111528666D02*
X112126190Y-111862000D01*
X112602380Y-112100095D02*
X111602380Y-112100095D01*
X111602380Y-111719142D01*
X111650000Y-111623904D01*
X111697619Y-111576285D01*
X111792857Y-111528666D01*
X111935714Y-111528666D01*
X112030952Y-111576285D01*
X112078571Y-111623904D01*
X112126190Y-111719142D01*
X112126190Y-112100095D01*
X111935714Y-110671523D02*
X112602380Y-110671523D01*
X111554761Y-110909619D02*
X112269047Y-111147714D01*
X112269047Y-110528666D01*
G04 #@! TO.C,RV1*
X157372380Y-80995238D02*
X156896190Y-81328571D01*
X157372380Y-81566666D02*
X156372380Y-81566666D01*
X156372380Y-81185714D01*
X156420000Y-81090476D01*
X156467619Y-81042857D01*
X156562857Y-80995238D01*
X156705714Y-80995238D01*
X156800952Y-81042857D01*
X156848571Y-81090476D01*
X156896190Y-81185714D01*
X156896190Y-81566666D01*
X156372380Y-80709523D02*
X157372380Y-80376190D01*
X156372380Y-80042857D01*
X157372380Y-79185714D02*
X157372380Y-79757142D01*
X157372380Y-79471428D02*
X156372380Y-79471428D01*
X156515238Y-79566666D01*
X156610476Y-79661904D01*
X156658095Y-79757142D01*
G04 #@! TO.C,RV2*
X162832380Y-98395238D02*
X162356190Y-98728571D01*
X162832380Y-98966666D02*
X161832380Y-98966666D01*
X161832380Y-98585714D01*
X161880000Y-98490476D01*
X161927619Y-98442857D01*
X162022857Y-98395238D01*
X162165714Y-98395238D01*
X162260952Y-98442857D01*
X162308571Y-98490476D01*
X162356190Y-98585714D01*
X162356190Y-98966666D01*
X161832380Y-98109523D02*
X162832380Y-97776190D01*
X161832380Y-97442857D01*
X161927619Y-97157142D02*
X161880000Y-97109523D01*
X161832380Y-97014285D01*
X161832380Y-96776190D01*
X161880000Y-96680952D01*
X161927619Y-96633333D01*
X162022857Y-96585714D01*
X162118095Y-96585714D01*
X162260952Y-96633333D01*
X162832380Y-97204761D01*
X162832380Y-96585714D01*
G04 #@! TO.C,RV3*
X124232380Y-134495238D02*
X123756190Y-134828571D01*
X124232380Y-135066666D02*
X123232380Y-135066666D01*
X123232380Y-134685714D01*
X123280000Y-134590476D01*
X123327619Y-134542857D01*
X123422857Y-134495238D01*
X123565714Y-134495238D01*
X123660952Y-134542857D01*
X123708571Y-134590476D01*
X123756190Y-134685714D01*
X123756190Y-135066666D01*
X123232380Y-134209523D02*
X124232380Y-133876190D01*
X123232380Y-133542857D01*
X123232380Y-133304761D02*
X123232380Y-132685714D01*
X123613333Y-133019047D01*
X123613333Y-132876190D01*
X123660952Y-132780952D01*
X123708571Y-132733333D01*
X123803809Y-132685714D01*
X124041904Y-132685714D01*
X124137142Y-132733333D01*
X124184761Y-132780952D01*
X124232380Y-132876190D01*
X124232380Y-133161904D01*
X124184761Y-133257142D01*
X124137142Y-133304761D01*
G04 #@! TO.C,RV4*
X117532380Y-134395238D02*
X117056190Y-134728571D01*
X117532380Y-134966666D02*
X116532380Y-134966666D01*
X116532380Y-134585714D01*
X116580000Y-134490476D01*
X116627619Y-134442857D01*
X116722857Y-134395238D01*
X116865714Y-134395238D01*
X116960952Y-134442857D01*
X117008571Y-134490476D01*
X117056190Y-134585714D01*
X117056190Y-134966666D01*
X116532380Y-134109523D02*
X117532380Y-133776190D01*
X116532380Y-133442857D01*
X116865714Y-132680952D02*
X117532380Y-132680952D01*
X116484761Y-132919047D02*
X117199047Y-133157142D01*
X117199047Y-132538095D01*
G04 #@! TO.C,U1*
X144538095Y-47702380D02*
X144538095Y-48511904D01*
X144585714Y-48607142D01*
X144633333Y-48654761D01*
X144728571Y-48702380D01*
X144919047Y-48702380D01*
X145014285Y-48654761D01*
X145061904Y-48607142D01*
X145109523Y-48511904D01*
X145109523Y-47702380D01*
X146109523Y-48702380D02*
X145538095Y-48702380D01*
X145823809Y-48702380D02*
X145823809Y-47702380D01*
X145728571Y-47845238D01*
X145633333Y-47940476D01*
X145538095Y-47988095D01*
G04 #@! TO.C,U2*
X116478095Y-58282380D02*
X116478095Y-59091904D01*
X116525714Y-59187142D01*
X116573333Y-59234761D01*
X116668571Y-59282380D01*
X116859047Y-59282380D01*
X116954285Y-59234761D01*
X117001904Y-59187142D01*
X117049523Y-59091904D01*
X117049523Y-58282380D01*
X117478095Y-58377619D02*
X117525714Y-58330000D01*
X117620952Y-58282380D01*
X117859047Y-58282380D01*
X117954285Y-58330000D01*
X118001904Y-58377619D01*
X118049523Y-58472857D01*
X118049523Y-58568095D01*
X118001904Y-58710952D01*
X117430476Y-59282380D01*
X118049523Y-59282380D01*
G04 #@! TO.C,U3*
X131038095Y-83487380D02*
X131038095Y-84296904D01*
X131085714Y-84392142D01*
X131133333Y-84439761D01*
X131228571Y-84487380D01*
X131419047Y-84487380D01*
X131514285Y-84439761D01*
X131561904Y-84392142D01*
X131609523Y-84296904D01*
X131609523Y-83487380D01*
X131990476Y-83487380D02*
X132609523Y-83487380D01*
X132276190Y-83868333D01*
X132419047Y-83868333D01*
X132514285Y-83915952D01*
X132561904Y-83963571D01*
X132609523Y-84058809D01*
X132609523Y-84296904D01*
X132561904Y-84392142D01*
X132514285Y-84439761D01*
X132419047Y-84487380D01*
X132133333Y-84487380D01*
X132038095Y-84439761D01*
X131990476Y-84392142D01*
G04 #@! TO.C,U4*
X120552380Y-103161904D02*
X121361904Y-103161904D01*
X121457142Y-103114285D01*
X121504761Y-103066666D01*
X121552380Y-102971428D01*
X121552380Y-102780952D01*
X121504761Y-102685714D01*
X121457142Y-102638095D01*
X121361904Y-102590476D01*
X120552380Y-102590476D01*
X120885714Y-101685714D02*
X121552380Y-101685714D01*
X120504761Y-101923809D02*
X121219047Y-102161904D01*
X121219047Y-101542857D01*
G04 #@! TO.C,J1*
X93428380Y-54637333D02*
X94142666Y-54637333D01*
X94285523Y-54684952D01*
X94380761Y-54780190D01*
X94428380Y-54923047D01*
X94428380Y-55018285D01*
X94428380Y-53637333D02*
X94428380Y-54208761D01*
X94428380Y-53923047D02*
X93428380Y-53923047D01*
X93571238Y-54018285D01*
X93666476Y-54113523D01*
X93714095Y-54208761D01*
G04 #@! TO.C,H1*
X195038095Y-36552380D02*
X195038095Y-35552380D01*
X195038095Y-36028571D02*
X195609523Y-36028571D01*
X195609523Y-36552380D02*
X195609523Y-35552380D01*
X196609523Y-36552380D02*
X196038095Y-36552380D01*
X196323809Y-36552380D02*
X196323809Y-35552380D01*
X196228571Y-35695238D01*
X196133333Y-35790476D01*
X196038095Y-35838095D01*
G04 #@! TO.C,H2*
X185638095Y-141852380D02*
X185638095Y-140852380D01*
X185638095Y-141328571D02*
X186209523Y-141328571D01*
X186209523Y-141852380D02*
X186209523Y-140852380D01*
X186638095Y-140947619D02*
X186685714Y-140900000D01*
X186780952Y-140852380D01*
X187019047Y-140852380D01*
X187114285Y-140900000D01*
X187161904Y-140947619D01*
X187209523Y-141042857D01*
X187209523Y-141138095D01*
X187161904Y-141280952D01*
X186590476Y-141852380D01*
X187209523Y-141852380D01*
G04 #@! TO.C,H3*
X108738095Y-141852380D02*
X108738095Y-140852380D01*
X108738095Y-141328571D02*
X109309523Y-141328571D01*
X109309523Y-141852380D02*
X109309523Y-140852380D01*
X109690476Y-140852380D02*
X110309523Y-140852380D01*
X109976190Y-141233333D01*
X110119047Y-141233333D01*
X110214285Y-141280952D01*
X110261904Y-141328571D01*
X110309523Y-141423809D01*
X110309523Y-141661904D01*
X110261904Y-141757142D01*
X110214285Y-141804761D01*
X110119047Y-141852380D01*
X109833333Y-141852380D01*
X109738095Y-141804761D01*
X109690476Y-141757142D01*
G04 #@! TO.C,J4*
X102442380Y-73713333D02*
X103156666Y-73713333D01*
X103299523Y-73760952D01*
X103394761Y-73856190D01*
X103442380Y-73999047D01*
X103442380Y-74094285D01*
X102775714Y-72808571D02*
X103442380Y-72808571D01*
X102394761Y-73046666D02*
X103109047Y-73284761D01*
X103109047Y-72665714D01*
G04 #@! TO.C,J5*
X102142380Y-92513333D02*
X102856666Y-92513333D01*
X102999523Y-92560952D01*
X103094761Y-92656190D01*
X103142380Y-92799047D01*
X103142380Y-92894285D01*
X102142380Y-91560952D02*
X102142380Y-92037142D01*
X102618571Y-92084761D01*
X102570952Y-92037142D01*
X102523333Y-91941904D01*
X102523333Y-91703809D01*
X102570952Y-91608571D01*
X102618571Y-91560952D01*
X102713809Y-91513333D01*
X102951904Y-91513333D01*
X103047142Y-91560952D01*
X103094761Y-91608571D01*
X103142380Y-91703809D01*
X103142380Y-91941904D01*
X103094761Y-92037142D01*
X103047142Y-92084761D01*
G04 #@! TO.C,J6*
X101942380Y-111913333D02*
X102656666Y-111913333D01*
X102799523Y-111960952D01*
X102894761Y-112056190D01*
X102942380Y-112199047D01*
X102942380Y-112294285D01*
X101942380Y-111008571D02*
X101942380Y-111199047D01*
X101990000Y-111294285D01*
X102037619Y-111341904D01*
X102180476Y-111437142D01*
X102370952Y-111484761D01*
X102751904Y-111484761D01*
X102847142Y-111437142D01*
X102894761Y-111389523D01*
X102942380Y-111294285D01*
X102942380Y-111103809D01*
X102894761Y-111008571D01*
X102847142Y-110960952D01*
X102751904Y-110913333D01*
X102513809Y-110913333D01*
X102418571Y-110960952D01*
X102370952Y-111008571D01*
X102323333Y-111103809D01*
X102323333Y-111294285D01*
X102370952Y-111389523D01*
X102418571Y-111437142D01*
X102513809Y-111484761D01*
G04 #@! TO.C,J7*
X102342380Y-129713333D02*
X103056666Y-129713333D01*
X103199523Y-129760952D01*
X103294761Y-129856190D01*
X103342380Y-129999047D01*
X103342380Y-130094285D01*
X102342380Y-129332380D02*
X102342380Y-128665714D01*
X103342380Y-129094285D01*
G04 #@! TO.C,J8*
X174702380Y-92833333D02*
X175416666Y-92833333D01*
X175559523Y-92880952D01*
X175654761Y-92976190D01*
X175702380Y-93119047D01*
X175702380Y-93214285D01*
X175130952Y-92214285D02*
X175083333Y-92309523D01*
X175035714Y-92357142D01*
X174940476Y-92404761D01*
X174892857Y-92404761D01*
X174797619Y-92357142D01*
X174750000Y-92309523D01*
X174702380Y-92214285D01*
X174702380Y-92023809D01*
X174750000Y-91928571D01*
X174797619Y-91880952D01*
X174892857Y-91833333D01*
X174940476Y-91833333D01*
X175035714Y-91880952D01*
X175083333Y-91928571D01*
X175130952Y-92023809D01*
X175130952Y-92214285D01*
X175178571Y-92309523D01*
X175226190Y-92357142D01*
X175321428Y-92404761D01*
X175511904Y-92404761D01*
X175607142Y-92357142D01*
X175654761Y-92309523D01*
X175702380Y-92214285D01*
X175702380Y-92023809D01*
X175654761Y-91928571D01*
X175607142Y-91880952D01*
X175511904Y-91833333D01*
X175321428Y-91833333D01*
X175226190Y-91880952D01*
X175178571Y-91928571D01*
X175130952Y-92023809D01*
G04 #@! TO.C,J9*
X174002380Y-62133333D02*
X174716666Y-62133333D01*
X174859523Y-62180952D01*
X174954761Y-62276190D01*
X175002380Y-62419047D01*
X175002380Y-62514285D01*
X175002380Y-61609523D02*
X175002380Y-61419047D01*
X174954761Y-61323809D01*
X174907142Y-61276190D01*
X174764285Y-61180952D01*
X174573809Y-61133333D01*
X174192857Y-61133333D01*
X174097619Y-61180952D01*
X174050000Y-61228571D01*
X174002380Y-61323809D01*
X174002380Y-61514285D01*
X174050000Y-61609523D01*
X174097619Y-61657142D01*
X174192857Y-61704761D01*
X174430952Y-61704761D01*
X174526190Y-61657142D01*
X174573809Y-61609523D01*
X174621428Y-61514285D01*
X174621428Y-61323809D01*
X174573809Y-61228571D01*
X174526190Y-61180952D01*
X174430952Y-61133333D01*
G04 #@! TO.C,J10*
X174752380Y-131109523D02*
X175466666Y-131109523D01*
X175609523Y-131157142D01*
X175704761Y-131252380D01*
X175752380Y-131395238D01*
X175752380Y-131490476D01*
X175752380Y-130109523D02*
X175752380Y-130680952D01*
X175752380Y-130395238D02*
X174752380Y-130395238D01*
X174895238Y-130490476D01*
X174990476Y-130585714D01*
X175038095Y-130680952D01*
X174752380Y-129490476D02*
X174752380Y-129395238D01*
X174800000Y-129300000D01*
X174847619Y-129252380D01*
X174942857Y-129204761D01*
X175133333Y-129157142D01*
X175371428Y-129157142D01*
X175561904Y-129204761D01*
X175657142Y-129252380D01*
X175704761Y-129300000D01*
X175752380Y-129395238D01*
X175752380Y-129490476D01*
X175704761Y-129585714D01*
X175657142Y-129633333D01*
X175561904Y-129680952D01*
X175371428Y-129728571D01*
X175133333Y-129728571D01*
X174942857Y-129680952D01*
X174847619Y-129633333D01*
X174800000Y-129585714D01*
X174752380Y-129490476D01*
G04 #@! TO.C,SW1*
X139904761Y-35933333D02*
X139952380Y-35790476D01*
X139952380Y-35552380D01*
X139904761Y-35457142D01*
X139857142Y-35409523D01*
X139761904Y-35361904D01*
X139666666Y-35361904D01*
X139571428Y-35409523D01*
X139523809Y-35457142D01*
X139476190Y-35552380D01*
X139428571Y-35742857D01*
X139380952Y-35838095D01*
X139333333Y-35885714D01*
X139238095Y-35933333D01*
X139142857Y-35933333D01*
X139047619Y-35885714D01*
X139000000Y-35838095D01*
X138952380Y-35742857D01*
X138952380Y-35504761D01*
X139000000Y-35361904D01*
X138952380Y-35028571D02*
X139952380Y-34790476D01*
X139238095Y-34600000D01*
X139952380Y-34409523D01*
X138952380Y-34171428D01*
X139952380Y-33266666D02*
X139952380Y-33838095D01*
X139952380Y-33552380D02*
X138952380Y-33552380D01*
X139095238Y-33647619D01*
X139190476Y-33742857D01*
X139238095Y-33838095D01*
G04 #@! TO.C,M4*
X96590476Y-29452380D02*
X96590476Y-28452380D01*
X96923809Y-29166666D01*
X97257142Y-28452380D01*
X97257142Y-29452380D01*
X98161904Y-28785714D02*
X98161904Y-29452380D01*
X97923809Y-28404761D02*
X97685714Y-29119047D01*
X98304761Y-29119047D01*
G04 #@! TD*
M02*
