G04 #@! TF.GenerationSoftware,KiCad,Pcbnew,5.0.0-fee4fd1~66~ubuntu18.04.1*
G04 #@! TF.CreationDate,2018-09-20T21:41:55-04:00*
G04 #@! TF.ProjectId,BackPanel,4261636B50616E656C2E6B696361645F,rev?*
G04 #@! TF.SameCoordinates,Original*
G04 #@! TF.FileFunction,Soldermask,Top*
G04 #@! TF.FilePolarity,Negative*
%FSLAX46Y46*%
G04 Gerber Fmt 4.6, Leading zero omitted, Abs format (unit mm)*
G04 Created by KiCad (PCBNEW 5.0.0-fee4fd1~66~ubuntu18.04.1) date Thu Sep 20 21:41:55 2018*
%MOMM*%
%LPD*%
G01*
G04 APERTURE LIST*
%ADD10C,2.813000*%
%ADD11C,1.924000*%
%ADD12C,0.100000*%
%ADD13C,1.650000*%
%ADD14R,2.000000X3.400000*%
%ADD15R,1.300000X1.200000*%
%ADD16R,1.200000X1.300000*%
%ADD17C,1.525000*%
%ADD18R,2.100000X2.100000*%
%ADD19O,2.100000X2.100000*%
%ADD20R,1.900000X0.680000*%
%ADD21R,0.680000X1.900000*%
%ADD22R,2.305000X2.400000*%
%ADD23O,2.305000X2.400000*%
%ADD24R,1.950000X1.000000*%
%ADD25R,1.000000X1.950000*%
%ADD26C,3.650000*%
%ADD27C,1.670000*%
%ADD28C,5.700000*%
%ADD29O,4.360000X2.380000*%
%ADD30R,4.360000X2.380000*%
%ADD31R,1.520000X2.560000*%
G04 APERTURE END LIST*
D10*
G04 #@! TO.C,U5*
X142370000Y-142280000D03*
X165230000Y-111800000D03*
D11*
X142370000Y-107990000D03*
X144910000Y-107990000D03*
X147450000Y-107990000D03*
X149990000Y-107990000D03*
X152530000Y-107990000D03*
X155070000Y-107990000D03*
X157610000Y-107990000D03*
X160150000Y-107990000D03*
X162690000Y-107990000D03*
X165230000Y-107990000D03*
G04 #@! TD*
D12*
G04 #@! TO.C,C1*
G36*
X141627346Y-43026589D02*
X141659380Y-43031341D01*
X141690794Y-43039210D01*
X141721286Y-43050120D01*
X141750561Y-43063966D01*
X141778338Y-43080615D01*
X141804350Y-43099907D01*
X141828345Y-43121655D01*
X141850093Y-43145650D01*
X141869385Y-43171662D01*
X141886034Y-43199439D01*
X141899880Y-43228714D01*
X141910790Y-43259206D01*
X141918659Y-43290620D01*
X141923411Y-43322654D01*
X141925000Y-43355000D01*
X141925000Y-44845000D01*
X141923411Y-44877346D01*
X141918659Y-44909380D01*
X141910790Y-44940794D01*
X141899880Y-44971286D01*
X141886034Y-45000561D01*
X141869385Y-45028338D01*
X141850093Y-45054350D01*
X141828345Y-45078345D01*
X141804350Y-45100093D01*
X141778338Y-45119385D01*
X141750561Y-45136034D01*
X141721286Y-45149880D01*
X141690794Y-45160790D01*
X141659380Y-45168659D01*
X141627346Y-45173411D01*
X141595000Y-45175000D01*
X140605000Y-45175000D01*
X140572654Y-45173411D01*
X140540620Y-45168659D01*
X140509206Y-45160790D01*
X140478714Y-45149880D01*
X140449439Y-45136034D01*
X140421662Y-45119385D01*
X140395650Y-45100093D01*
X140371655Y-45078345D01*
X140349907Y-45054350D01*
X140330615Y-45028338D01*
X140313966Y-45000561D01*
X140300120Y-44971286D01*
X140289210Y-44940794D01*
X140281341Y-44909380D01*
X140276589Y-44877346D01*
X140275000Y-44845000D01*
X140275000Y-43355000D01*
X140276589Y-43322654D01*
X140281341Y-43290620D01*
X140289210Y-43259206D01*
X140300120Y-43228714D01*
X140313966Y-43199439D01*
X140330615Y-43171662D01*
X140349907Y-43145650D01*
X140371655Y-43121655D01*
X140395650Y-43099907D01*
X140421662Y-43080615D01*
X140449439Y-43063966D01*
X140478714Y-43050120D01*
X140509206Y-43039210D01*
X140540620Y-43031341D01*
X140572654Y-43026589D01*
X140605000Y-43025000D01*
X141595000Y-43025000D01*
X141627346Y-43026589D01*
X141627346Y-43026589D01*
G37*
D13*
X141100000Y-44100000D03*
D12*
G36*
X138827346Y-43026589D02*
X138859380Y-43031341D01*
X138890794Y-43039210D01*
X138921286Y-43050120D01*
X138950561Y-43063966D01*
X138978338Y-43080615D01*
X139004350Y-43099907D01*
X139028345Y-43121655D01*
X139050093Y-43145650D01*
X139069385Y-43171662D01*
X139086034Y-43199439D01*
X139099880Y-43228714D01*
X139110790Y-43259206D01*
X139118659Y-43290620D01*
X139123411Y-43322654D01*
X139125000Y-43355000D01*
X139125000Y-44845000D01*
X139123411Y-44877346D01*
X139118659Y-44909380D01*
X139110790Y-44940794D01*
X139099880Y-44971286D01*
X139086034Y-45000561D01*
X139069385Y-45028338D01*
X139050093Y-45054350D01*
X139028345Y-45078345D01*
X139004350Y-45100093D01*
X138978338Y-45119385D01*
X138950561Y-45136034D01*
X138921286Y-45149880D01*
X138890794Y-45160790D01*
X138859380Y-45168659D01*
X138827346Y-45173411D01*
X138795000Y-45175000D01*
X137805000Y-45175000D01*
X137772654Y-45173411D01*
X137740620Y-45168659D01*
X137709206Y-45160790D01*
X137678714Y-45149880D01*
X137649439Y-45136034D01*
X137621662Y-45119385D01*
X137595650Y-45100093D01*
X137571655Y-45078345D01*
X137549907Y-45054350D01*
X137530615Y-45028338D01*
X137513966Y-45000561D01*
X137500120Y-44971286D01*
X137489210Y-44940794D01*
X137481341Y-44909380D01*
X137476589Y-44877346D01*
X137475000Y-44845000D01*
X137475000Y-43355000D01*
X137476589Y-43322654D01*
X137481341Y-43290620D01*
X137489210Y-43259206D01*
X137500120Y-43228714D01*
X137513966Y-43199439D01*
X137530615Y-43171662D01*
X137549907Y-43145650D01*
X137571655Y-43121655D01*
X137595650Y-43099907D01*
X137621662Y-43080615D01*
X137649439Y-43063966D01*
X137678714Y-43050120D01*
X137709206Y-43039210D01*
X137740620Y-43031341D01*
X137772654Y-43026589D01*
X137805000Y-43025000D01*
X138795000Y-43025000D01*
X138827346Y-43026589D01*
X138827346Y-43026589D01*
G37*
D13*
X138300000Y-44100000D03*
G04 #@! TD*
D12*
G04 #@! TO.C,C2*
G36*
X149227346Y-43026589D02*
X149259380Y-43031341D01*
X149290794Y-43039210D01*
X149321286Y-43050120D01*
X149350561Y-43063966D01*
X149378338Y-43080615D01*
X149404350Y-43099907D01*
X149428345Y-43121655D01*
X149450093Y-43145650D01*
X149469385Y-43171662D01*
X149486034Y-43199439D01*
X149499880Y-43228714D01*
X149510790Y-43259206D01*
X149518659Y-43290620D01*
X149523411Y-43322654D01*
X149525000Y-43355000D01*
X149525000Y-44845000D01*
X149523411Y-44877346D01*
X149518659Y-44909380D01*
X149510790Y-44940794D01*
X149499880Y-44971286D01*
X149486034Y-45000561D01*
X149469385Y-45028338D01*
X149450093Y-45054350D01*
X149428345Y-45078345D01*
X149404350Y-45100093D01*
X149378338Y-45119385D01*
X149350561Y-45136034D01*
X149321286Y-45149880D01*
X149290794Y-45160790D01*
X149259380Y-45168659D01*
X149227346Y-45173411D01*
X149195000Y-45175000D01*
X148205000Y-45175000D01*
X148172654Y-45173411D01*
X148140620Y-45168659D01*
X148109206Y-45160790D01*
X148078714Y-45149880D01*
X148049439Y-45136034D01*
X148021662Y-45119385D01*
X147995650Y-45100093D01*
X147971655Y-45078345D01*
X147949907Y-45054350D01*
X147930615Y-45028338D01*
X147913966Y-45000561D01*
X147900120Y-44971286D01*
X147889210Y-44940794D01*
X147881341Y-44909380D01*
X147876589Y-44877346D01*
X147875000Y-44845000D01*
X147875000Y-43355000D01*
X147876589Y-43322654D01*
X147881341Y-43290620D01*
X147889210Y-43259206D01*
X147900120Y-43228714D01*
X147913966Y-43199439D01*
X147930615Y-43171662D01*
X147949907Y-43145650D01*
X147971655Y-43121655D01*
X147995650Y-43099907D01*
X148021662Y-43080615D01*
X148049439Y-43063966D01*
X148078714Y-43050120D01*
X148109206Y-43039210D01*
X148140620Y-43031341D01*
X148172654Y-43026589D01*
X148205000Y-43025000D01*
X149195000Y-43025000D01*
X149227346Y-43026589D01*
X149227346Y-43026589D01*
G37*
D13*
X148700000Y-44100000D03*
D12*
G36*
X146427346Y-43026589D02*
X146459380Y-43031341D01*
X146490794Y-43039210D01*
X146521286Y-43050120D01*
X146550561Y-43063966D01*
X146578338Y-43080615D01*
X146604350Y-43099907D01*
X146628345Y-43121655D01*
X146650093Y-43145650D01*
X146669385Y-43171662D01*
X146686034Y-43199439D01*
X146699880Y-43228714D01*
X146710790Y-43259206D01*
X146718659Y-43290620D01*
X146723411Y-43322654D01*
X146725000Y-43355000D01*
X146725000Y-44845000D01*
X146723411Y-44877346D01*
X146718659Y-44909380D01*
X146710790Y-44940794D01*
X146699880Y-44971286D01*
X146686034Y-45000561D01*
X146669385Y-45028338D01*
X146650093Y-45054350D01*
X146628345Y-45078345D01*
X146604350Y-45100093D01*
X146578338Y-45119385D01*
X146550561Y-45136034D01*
X146521286Y-45149880D01*
X146490794Y-45160790D01*
X146459380Y-45168659D01*
X146427346Y-45173411D01*
X146395000Y-45175000D01*
X145405000Y-45175000D01*
X145372654Y-45173411D01*
X145340620Y-45168659D01*
X145309206Y-45160790D01*
X145278714Y-45149880D01*
X145249439Y-45136034D01*
X145221662Y-45119385D01*
X145195650Y-45100093D01*
X145171655Y-45078345D01*
X145149907Y-45054350D01*
X145130615Y-45028338D01*
X145113966Y-45000561D01*
X145100120Y-44971286D01*
X145089210Y-44940794D01*
X145081341Y-44909380D01*
X145076589Y-44877346D01*
X145075000Y-44845000D01*
X145075000Y-43355000D01*
X145076589Y-43322654D01*
X145081341Y-43290620D01*
X145089210Y-43259206D01*
X145100120Y-43228714D01*
X145113966Y-43199439D01*
X145130615Y-43171662D01*
X145149907Y-43145650D01*
X145171655Y-43121655D01*
X145195650Y-43099907D01*
X145221662Y-43080615D01*
X145249439Y-43063966D01*
X145278714Y-43050120D01*
X145309206Y-43039210D01*
X145340620Y-43031341D01*
X145372654Y-43026589D01*
X145405000Y-43025000D01*
X146395000Y-43025000D01*
X146427346Y-43026589D01*
X146427346Y-43026589D01*
G37*
D13*
X145900000Y-44100000D03*
G04 #@! TD*
D12*
G04 #@! TO.C,C3*
G36*
X132777346Y-50476589D02*
X132809380Y-50481341D01*
X132840794Y-50489210D01*
X132871286Y-50500120D01*
X132900561Y-50513966D01*
X132928338Y-50530615D01*
X132954350Y-50549907D01*
X132978345Y-50571655D01*
X133000093Y-50595650D01*
X133019385Y-50621662D01*
X133036034Y-50649439D01*
X133049880Y-50678714D01*
X133060790Y-50709206D01*
X133068659Y-50740620D01*
X133073411Y-50772654D01*
X133075000Y-50805000D01*
X133075000Y-51795000D01*
X133073411Y-51827346D01*
X133068659Y-51859380D01*
X133060790Y-51890794D01*
X133049880Y-51921286D01*
X133036034Y-51950561D01*
X133019385Y-51978338D01*
X133000093Y-52004350D01*
X132978345Y-52028345D01*
X132954350Y-52050093D01*
X132928338Y-52069385D01*
X132900561Y-52086034D01*
X132871286Y-52099880D01*
X132840794Y-52110790D01*
X132809380Y-52118659D01*
X132777346Y-52123411D01*
X132745000Y-52125000D01*
X131255000Y-52125000D01*
X131222654Y-52123411D01*
X131190620Y-52118659D01*
X131159206Y-52110790D01*
X131128714Y-52099880D01*
X131099439Y-52086034D01*
X131071662Y-52069385D01*
X131045650Y-52050093D01*
X131021655Y-52028345D01*
X130999907Y-52004350D01*
X130980615Y-51978338D01*
X130963966Y-51950561D01*
X130950120Y-51921286D01*
X130939210Y-51890794D01*
X130931341Y-51859380D01*
X130926589Y-51827346D01*
X130925000Y-51795000D01*
X130925000Y-50805000D01*
X130926589Y-50772654D01*
X130931341Y-50740620D01*
X130939210Y-50709206D01*
X130950120Y-50678714D01*
X130963966Y-50649439D01*
X130980615Y-50621662D01*
X130999907Y-50595650D01*
X131021655Y-50571655D01*
X131045650Y-50549907D01*
X131071662Y-50530615D01*
X131099439Y-50513966D01*
X131128714Y-50500120D01*
X131159206Y-50489210D01*
X131190620Y-50481341D01*
X131222654Y-50476589D01*
X131255000Y-50475000D01*
X132745000Y-50475000D01*
X132777346Y-50476589D01*
X132777346Y-50476589D01*
G37*
D13*
X132000000Y-51300000D03*
D12*
G36*
X132777346Y-53276589D02*
X132809380Y-53281341D01*
X132840794Y-53289210D01*
X132871286Y-53300120D01*
X132900561Y-53313966D01*
X132928338Y-53330615D01*
X132954350Y-53349907D01*
X132978345Y-53371655D01*
X133000093Y-53395650D01*
X133019385Y-53421662D01*
X133036034Y-53449439D01*
X133049880Y-53478714D01*
X133060790Y-53509206D01*
X133068659Y-53540620D01*
X133073411Y-53572654D01*
X133075000Y-53605000D01*
X133075000Y-54595000D01*
X133073411Y-54627346D01*
X133068659Y-54659380D01*
X133060790Y-54690794D01*
X133049880Y-54721286D01*
X133036034Y-54750561D01*
X133019385Y-54778338D01*
X133000093Y-54804350D01*
X132978345Y-54828345D01*
X132954350Y-54850093D01*
X132928338Y-54869385D01*
X132900561Y-54886034D01*
X132871286Y-54899880D01*
X132840794Y-54910790D01*
X132809380Y-54918659D01*
X132777346Y-54923411D01*
X132745000Y-54925000D01*
X131255000Y-54925000D01*
X131222654Y-54923411D01*
X131190620Y-54918659D01*
X131159206Y-54910790D01*
X131128714Y-54899880D01*
X131099439Y-54886034D01*
X131071662Y-54869385D01*
X131045650Y-54850093D01*
X131021655Y-54828345D01*
X130999907Y-54804350D01*
X130980615Y-54778338D01*
X130963966Y-54750561D01*
X130950120Y-54721286D01*
X130939210Y-54690794D01*
X130931341Y-54659380D01*
X130926589Y-54627346D01*
X130925000Y-54595000D01*
X130925000Y-53605000D01*
X130926589Y-53572654D01*
X130931341Y-53540620D01*
X130939210Y-53509206D01*
X130950120Y-53478714D01*
X130963966Y-53449439D01*
X130980615Y-53421662D01*
X130999907Y-53395650D01*
X131021655Y-53371655D01*
X131045650Y-53349907D01*
X131071662Y-53330615D01*
X131099439Y-53313966D01*
X131128714Y-53300120D01*
X131159206Y-53289210D01*
X131190620Y-53281341D01*
X131222654Y-53276589D01*
X131255000Y-53275000D01*
X132745000Y-53275000D01*
X132777346Y-53276589D01*
X132777346Y-53276589D01*
G37*
D13*
X132000000Y-54100000D03*
G04 #@! TD*
D12*
G04 #@! TO.C,C4*
G36*
X159777346Y-61476589D02*
X159809380Y-61481341D01*
X159840794Y-61489210D01*
X159871286Y-61500120D01*
X159900561Y-61513966D01*
X159928338Y-61530615D01*
X159954350Y-61549907D01*
X159978345Y-61571655D01*
X160000093Y-61595650D01*
X160019385Y-61621662D01*
X160036034Y-61649439D01*
X160049880Y-61678714D01*
X160060790Y-61709206D01*
X160068659Y-61740620D01*
X160073411Y-61772654D01*
X160075000Y-61805000D01*
X160075000Y-62795000D01*
X160073411Y-62827346D01*
X160068659Y-62859380D01*
X160060790Y-62890794D01*
X160049880Y-62921286D01*
X160036034Y-62950561D01*
X160019385Y-62978338D01*
X160000093Y-63004350D01*
X159978345Y-63028345D01*
X159954350Y-63050093D01*
X159928338Y-63069385D01*
X159900561Y-63086034D01*
X159871286Y-63099880D01*
X159840794Y-63110790D01*
X159809380Y-63118659D01*
X159777346Y-63123411D01*
X159745000Y-63125000D01*
X158255000Y-63125000D01*
X158222654Y-63123411D01*
X158190620Y-63118659D01*
X158159206Y-63110790D01*
X158128714Y-63099880D01*
X158099439Y-63086034D01*
X158071662Y-63069385D01*
X158045650Y-63050093D01*
X158021655Y-63028345D01*
X157999907Y-63004350D01*
X157980615Y-62978338D01*
X157963966Y-62950561D01*
X157950120Y-62921286D01*
X157939210Y-62890794D01*
X157931341Y-62859380D01*
X157926589Y-62827346D01*
X157925000Y-62795000D01*
X157925000Y-61805000D01*
X157926589Y-61772654D01*
X157931341Y-61740620D01*
X157939210Y-61709206D01*
X157950120Y-61678714D01*
X157963966Y-61649439D01*
X157980615Y-61621662D01*
X157999907Y-61595650D01*
X158021655Y-61571655D01*
X158045650Y-61549907D01*
X158071662Y-61530615D01*
X158099439Y-61513966D01*
X158128714Y-61500120D01*
X158159206Y-61489210D01*
X158190620Y-61481341D01*
X158222654Y-61476589D01*
X158255000Y-61475000D01*
X159745000Y-61475000D01*
X159777346Y-61476589D01*
X159777346Y-61476589D01*
G37*
D13*
X159000000Y-62300000D03*
D12*
G36*
X159777346Y-58676589D02*
X159809380Y-58681341D01*
X159840794Y-58689210D01*
X159871286Y-58700120D01*
X159900561Y-58713966D01*
X159928338Y-58730615D01*
X159954350Y-58749907D01*
X159978345Y-58771655D01*
X160000093Y-58795650D01*
X160019385Y-58821662D01*
X160036034Y-58849439D01*
X160049880Y-58878714D01*
X160060790Y-58909206D01*
X160068659Y-58940620D01*
X160073411Y-58972654D01*
X160075000Y-59005000D01*
X160075000Y-59995000D01*
X160073411Y-60027346D01*
X160068659Y-60059380D01*
X160060790Y-60090794D01*
X160049880Y-60121286D01*
X160036034Y-60150561D01*
X160019385Y-60178338D01*
X160000093Y-60204350D01*
X159978345Y-60228345D01*
X159954350Y-60250093D01*
X159928338Y-60269385D01*
X159900561Y-60286034D01*
X159871286Y-60299880D01*
X159840794Y-60310790D01*
X159809380Y-60318659D01*
X159777346Y-60323411D01*
X159745000Y-60325000D01*
X158255000Y-60325000D01*
X158222654Y-60323411D01*
X158190620Y-60318659D01*
X158159206Y-60310790D01*
X158128714Y-60299880D01*
X158099439Y-60286034D01*
X158071662Y-60269385D01*
X158045650Y-60250093D01*
X158021655Y-60228345D01*
X157999907Y-60204350D01*
X157980615Y-60178338D01*
X157963966Y-60150561D01*
X157950120Y-60121286D01*
X157939210Y-60090794D01*
X157931341Y-60059380D01*
X157926589Y-60027346D01*
X157925000Y-59995000D01*
X157925000Y-59005000D01*
X157926589Y-58972654D01*
X157931341Y-58940620D01*
X157939210Y-58909206D01*
X157950120Y-58878714D01*
X157963966Y-58849439D01*
X157980615Y-58821662D01*
X157999907Y-58795650D01*
X158021655Y-58771655D01*
X158045650Y-58749907D01*
X158071662Y-58730615D01*
X158099439Y-58713966D01*
X158128714Y-58700120D01*
X158159206Y-58689210D01*
X158190620Y-58681341D01*
X158222654Y-58676589D01*
X158255000Y-58675000D01*
X159745000Y-58675000D01*
X159777346Y-58676589D01*
X159777346Y-58676589D01*
G37*
D13*
X159000000Y-59500000D03*
G04 #@! TD*
D12*
G04 #@! TO.C,C5*
G36*
X159777346Y-54776589D02*
X159809380Y-54781341D01*
X159840794Y-54789210D01*
X159871286Y-54800120D01*
X159900561Y-54813966D01*
X159928338Y-54830615D01*
X159954350Y-54849907D01*
X159978345Y-54871655D01*
X160000093Y-54895650D01*
X160019385Y-54921662D01*
X160036034Y-54949439D01*
X160049880Y-54978714D01*
X160060790Y-55009206D01*
X160068659Y-55040620D01*
X160073411Y-55072654D01*
X160075000Y-55105000D01*
X160075000Y-56095000D01*
X160073411Y-56127346D01*
X160068659Y-56159380D01*
X160060790Y-56190794D01*
X160049880Y-56221286D01*
X160036034Y-56250561D01*
X160019385Y-56278338D01*
X160000093Y-56304350D01*
X159978345Y-56328345D01*
X159954350Y-56350093D01*
X159928338Y-56369385D01*
X159900561Y-56386034D01*
X159871286Y-56399880D01*
X159840794Y-56410790D01*
X159809380Y-56418659D01*
X159777346Y-56423411D01*
X159745000Y-56425000D01*
X158255000Y-56425000D01*
X158222654Y-56423411D01*
X158190620Y-56418659D01*
X158159206Y-56410790D01*
X158128714Y-56399880D01*
X158099439Y-56386034D01*
X158071662Y-56369385D01*
X158045650Y-56350093D01*
X158021655Y-56328345D01*
X157999907Y-56304350D01*
X157980615Y-56278338D01*
X157963966Y-56250561D01*
X157950120Y-56221286D01*
X157939210Y-56190794D01*
X157931341Y-56159380D01*
X157926589Y-56127346D01*
X157925000Y-56095000D01*
X157925000Y-55105000D01*
X157926589Y-55072654D01*
X157931341Y-55040620D01*
X157939210Y-55009206D01*
X157950120Y-54978714D01*
X157963966Y-54949439D01*
X157980615Y-54921662D01*
X157999907Y-54895650D01*
X158021655Y-54871655D01*
X158045650Y-54849907D01*
X158071662Y-54830615D01*
X158099439Y-54813966D01*
X158128714Y-54800120D01*
X158159206Y-54789210D01*
X158190620Y-54781341D01*
X158222654Y-54776589D01*
X158255000Y-54775000D01*
X159745000Y-54775000D01*
X159777346Y-54776589D01*
X159777346Y-54776589D01*
G37*
D13*
X159000000Y-55600000D03*
D12*
G36*
X159777346Y-51976589D02*
X159809380Y-51981341D01*
X159840794Y-51989210D01*
X159871286Y-52000120D01*
X159900561Y-52013966D01*
X159928338Y-52030615D01*
X159954350Y-52049907D01*
X159978345Y-52071655D01*
X160000093Y-52095650D01*
X160019385Y-52121662D01*
X160036034Y-52149439D01*
X160049880Y-52178714D01*
X160060790Y-52209206D01*
X160068659Y-52240620D01*
X160073411Y-52272654D01*
X160075000Y-52305000D01*
X160075000Y-53295000D01*
X160073411Y-53327346D01*
X160068659Y-53359380D01*
X160060790Y-53390794D01*
X160049880Y-53421286D01*
X160036034Y-53450561D01*
X160019385Y-53478338D01*
X160000093Y-53504350D01*
X159978345Y-53528345D01*
X159954350Y-53550093D01*
X159928338Y-53569385D01*
X159900561Y-53586034D01*
X159871286Y-53599880D01*
X159840794Y-53610790D01*
X159809380Y-53618659D01*
X159777346Y-53623411D01*
X159745000Y-53625000D01*
X158255000Y-53625000D01*
X158222654Y-53623411D01*
X158190620Y-53618659D01*
X158159206Y-53610790D01*
X158128714Y-53599880D01*
X158099439Y-53586034D01*
X158071662Y-53569385D01*
X158045650Y-53550093D01*
X158021655Y-53528345D01*
X157999907Y-53504350D01*
X157980615Y-53478338D01*
X157963966Y-53450561D01*
X157950120Y-53421286D01*
X157939210Y-53390794D01*
X157931341Y-53359380D01*
X157926589Y-53327346D01*
X157925000Y-53295000D01*
X157925000Y-52305000D01*
X157926589Y-52272654D01*
X157931341Y-52240620D01*
X157939210Y-52209206D01*
X157950120Y-52178714D01*
X157963966Y-52149439D01*
X157980615Y-52121662D01*
X157999907Y-52095650D01*
X158021655Y-52071655D01*
X158045650Y-52049907D01*
X158071662Y-52030615D01*
X158099439Y-52013966D01*
X158128714Y-52000120D01*
X158159206Y-51989210D01*
X158190620Y-51981341D01*
X158222654Y-51976589D01*
X158255000Y-51975000D01*
X159745000Y-51975000D01*
X159777346Y-51976589D01*
X159777346Y-51976589D01*
G37*
D13*
X159000000Y-52800000D03*
G04 #@! TD*
D12*
G04 #@! TO.C,C6*
G36*
X150027346Y-70326589D02*
X150059380Y-70331341D01*
X150090794Y-70339210D01*
X150121286Y-70350120D01*
X150150561Y-70363966D01*
X150178338Y-70380615D01*
X150204350Y-70399907D01*
X150228345Y-70421655D01*
X150250093Y-70445650D01*
X150269385Y-70471662D01*
X150286034Y-70499439D01*
X150299880Y-70528714D01*
X150310790Y-70559206D01*
X150318659Y-70590620D01*
X150323411Y-70622654D01*
X150325000Y-70655000D01*
X150325000Y-72145000D01*
X150323411Y-72177346D01*
X150318659Y-72209380D01*
X150310790Y-72240794D01*
X150299880Y-72271286D01*
X150286034Y-72300561D01*
X150269385Y-72328338D01*
X150250093Y-72354350D01*
X150228345Y-72378345D01*
X150204350Y-72400093D01*
X150178338Y-72419385D01*
X150150561Y-72436034D01*
X150121286Y-72449880D01*
X150090794Y-72460790D01*
X150059380Y-72468659D01*
X150027346Y-72473411D01*
X149995000Y-72475000D01*
X149005000Y-72475000D01*
X148972654Y-72473411D01*
X148940620Y-72468659D01*
X148909206Y-72460790D01*
X148878714Y-72449880D01*
X148849439Y-72436034D01*
X148821662Y-72419385D01*
X148795650Y-72400093D01*
X148771655Y-72378345D01*
X148749907Y-72354350D01*
X148730615Y-72328338D01*
X148713966Y-72300561D01*
X148700120Y-72271286D01*
X148689210Y-72240794D01*
X148681341Y-72209380D01*
X148676589Y-72177346D01*
X148675000Y-72145000D01*
X148675000Y-70655000D01*
X148676589Y-70622654D01*
X148681341Y-70590620D01*
X148689210Y-70559206D01*
X148700120Y-70528714D01*
X148713966Y-70499439D01*
X148730615Y-70471662D01*
X148749907Y-70445650D01*
X148771655Y-70421655D01*
X148795650Y-70399907D01*
X148821662Y-70380615D01*
X148849439Y-70363966D01*
X148878714Y-70350120D01*
X148909206Y-70339210D01*
X148940620Y-70331341D01*
X148972654Y-70326589D01*
X149005000Y-70325000D01*
X149995000Y-70325000D01*
X150027346Y-70326589D01*
X150027346Y-70326589D01*
G37*
D13*
X149500000Y-71400000D03*
D12*
G36*
X147227346Y-70326589D02*
X147259380Y-70331341D01*
X147290794Y-70339210D01*
X147321286Y-70350120D01*
X147350561Y-70363966D01*
X147378338Y-70380615D01*
X147404350Y-70399907D01*
X147428345Y-70421655D01*
X147450093Y-70445650D01*
X147469385Y-70471662D01*
X147486034Y-70499439D01*
X147499880Y-70528714D01*
X147510790Y-70559206D01*
X147518659Y-70590620D01*
X147523411Y-70622654D01*
X147525000Y-70655000D01*
X147525000Y-72145000D01*
X147523411Y-72177346D01*
X147518659Y-72209380D01*
X147510790Y-72240794D01*
X147499880Y-72271286D01*
X147486034Y-72300561D01*
X147469385Y-72328338D01*
X147450093Y-72354350D01*
X147428345Y-72378345D01*
X147404350Y-72400093D01*
X147378338Y-72419385D01*
X147350561Y-72436034D01*
X147321286Y-72449880D01*
X147290794Y-72460790D01*
X147259380Y-72468659D01*
X147227346Y-72473411D01*
X147195000Y-72475000D01*
X146205000Y-72475000D01*
X146172654Y-72473411D01*
X146140620Y-72468659D01*
X146109206Y-72460790D01*
X146078714Y-72449880D01*
X146049439Y-72436034D01*
X146021662Y-72419385D01*
X145995650Y-72400093D01*
X145971655Y-72378345D01*
X145949907Y-72354350D01*
X145930615Y-72328338D01*
X145913966Y-72300561D01*
X145900120Y-72271286D01*
X145889210Y-72240794D01*
X145881341Y-72209380D01*
X145876589Y-72177346D01*
X145875000Y-72145000D01*
X145875000Y-70655000D01*
X145876589Y-70622654D01*
X145881341Y-70590620D01*
X145889210Y-70559206D01*
X145900120Y-70528714D01*
X145913966Y-70499439D01*
X145930615Y-70471662D01*
X145949907Y-70445650D01*
X145971655Y-70421655D01*
X145995650Y-70399907D01*
X146021662Y-70380615D01*
X146049439Y-70363966D01*
X146078714Y-70350120D01*
X146109206Y-70339210D01*
X146140620Y-70331341D01*
X146172654Y-70326589D01*
X146205000Y-70325000D01*
X147195000Y-70325000D01*
X147227346Y-70326589D01*
X147227346Y-70326589D01*
G37*
D13*
X146700000Y-71400000D03*
G04 #@! TD*
D12*
G04 #@! TO.C,C7*
G36*
X143627346Y-70226589D02*
X143659380Y-70231341D01*
X143690794Y-70239210D01*
X143721286Y-70250120D01*
X143750561Y-70263966D01*
X143778338Y-70280615D01*
X143804350Y-70299907D01*
X143828345Y-70321655D01*
X143850093Y-70345650D01*
X143869385Y-70371662D01*
X143886034Y-70399439D01*
X143899880Y-70428714D01*
X143910790Y-70459206D01*
X143918659Y-70490620D01*
X143923411Y-70522654D01*
X143925000Y-70555000D01*
X143925000Y-72045000D01*
X143923411Y-72077346D01*
X143918659Y-72109380D01*
X143910790Y-72140794D01*
X143899880Y-72171286D01*
X143886034Y-72200561D01*
X143869385Y-72228338D01*
X143850093Y-72254350D01*
X143828345Y-72278345D01*
X143804350Y-72300093D01*
X143778338Y-72319385D01*
X143750561Y-72336034D01*
X143721286Y-72349880D01*
X143690794Y-72360790D01*
X143659380Y-72368659D01*
X143627346Y-72373411D01*
X143595000Y-72375000D01*
X142605000Y-72375000D01*
X142572654Y-72373411D01*
X142540620Y-72368659D01*
X142509206Y-72360790D01*
X142478714Y-72349880D01*
X142449439Y-72336034D01*
X142421662Y-72319385D01*
X142395650Y-72300093D01*
X142371655Y-72278345D01*
X142349907Y-72254350D01*
X142330615Y-72228338D01*
X142313966Y-72200561D01*
X142300120Y-72171286D01*
X142289210Y-72140794D01*
X142281341Y-72109380D01*
X142276589Y-72077346D01*
X142275000Y-72045000D01*
X142275000Y-70555000D01*
X142276589Y-70522654D01*
X142281341Y-70490620D01*
X142289210Y-70459206D01*
X142300120Y-70428714D01*
X142313966Y-70399439D01*
X142330615Y-70371662D01*
X142349907Y-70345650D01*
X142371655Y-70321655D01*
X142395650Y-70299907D01*
X142421662Y-70280615D01*
X142449439Y-70263966D01*
X142478714Y-70250120D01*
X142509206Y-70239210D01*
X142540620Y-70231341D01*
X142572654Y-70226589D01*
X142605000Y-70225000D01*
X143595000Y-70225000D01*
X143627346Y-70226589D01*
X143627346Y-70226589D01*
G37*
D13*
X143100000Y-71300000D03*
D12*
G36*
X140827346Y-70226589D02*
X140859380Y-70231341D01*
X140890794Y-70239210D01*
X140921286Y-70250120D01*
X140950561Y-70263966D01*
X140978338Y-70280615D01*
X141004350Y-70299907D01*
X141028345Y-70321655D01*
X141050093Y-70345650D01*
X141069385Y-70371662D01*
X141086034Y-70399439D01*
X141099880Y-70428714D01*
X141110790Y-70459206D01*
X141118659Y-70490620D01*
X141123411Y-70522654D01*
X141125000Y-70555000D01*
X141125000Y-72045000D01*
X141123411Y-72077346D01*
X141118659Y-72109380D01*
X141110790Y-72140794D01*
X141099880Y-72171286D01*
X141086034Y-72200561D01*
X141069385Y-72228338D01*
X141050093Y-72254350D01*
X141028345Y-72278345D01*
X141004350Y-72300093D01*
X140978338Y-72319385D01*
X140950561Y-72336034D01*
X140921286Y-72349880D01*
X140890794Y-72360790D01*
X140859380Y-72368659D01*
X140827346Y-72373411D01*
X140795000Y-72375000D01*
X139805000Y-72375000D01*
X139772654Y-72373411D01*
X139740620Y-72368659D01*
X139709206Y-72360790D01*
X139678714Y-72349880D01*
X139649439Y-72336034D01*
X139621662Y-72319385D01*
X139595650Y-72300093D01*
X139571655Y-72278345D01*
X139549907Y-72254350D01*
X139530615Y-72228338D01*
X139513966Y-72200561D01*
X139500120Y-72171286D01*
X139489210Y-72140794D01*
X139481341Y-72109380D01*
X139476589Y-72077346D01*
X139475000Y-72045000D01*
X139475000Y-70555000D01*
X139476589Y-70522654D01*
X139481341Y-70490620D01*
X139489210Y-70459206D01*
X139500120Y-70428714D01*
X139513966Y-70399439D01*
X139530615Y-70371662D01*
X139549907Y-70345650D01*
X139571655Y-70321655D01*
X139595650Y-70299907D01*
X139621662Y-70280615D01*
X139649439Y-70263966D01*
X139678714Y-70250120D01*
X139709206Y-70239210D01*
X139740620Y-70231341D01*
X139772654Y-70226589D01*
X139805000Y-70225000D01*
X140795000Y-70225000D01*
X140827346Y-70226589D01*
X140827346Y-70226589D01*
G37*
D13*
X140300000Y-71300000D03*
G04 #@! TD*
D14*
G04 #@! TO.C,C8*
X117200000Y-51400000D03*
X117200000Y-47000000D03*
G04 #@! TD*
D12*
G04 #@! TO.C,C9*
G36*
X132877346Y-61676589D02*
X132909380Y-61681341D01*
X132940794Y-61689210D01*
X132971286Y-61700120D01*
X133000561Y-61713966D01*
X133028338Y-61730615D01*
X133054350Y-61749907D01*
X133078345Y-61771655D01*
X133100093Y-61795650D01*
X133119385Y-61821662D01*
X133136034Y-61849439D01*
X133149880Y-61878714D01*
X133160790Y-61909206D01*
X133168659Y-61940620D01*
X133173411Y-61972654D01*
X133175000Y-62005000D01*
X133175000Y-62995000D01*
X133173411Y-63027346D01*
X133168659Y-63059380D01*
X133160790Y-63090794D01*
X133149880Y-63121286D01*
X133136034Y-63150561D01*
X133119385Y-63178338D01*
X133100093Y-63204350D01*
X133078345Y-63228345D01*
X133054350Y-63250093D01*
X133028338Y-63269385D01*
X133000561Y-63286034D01*
X132971286Y-63299880D01*
X132940794Y-63310790D01*
X132909380Y-63318659D01*
X132877346Y-63323411D01*
X132845000Y-63325000D01*
X131355000Y-63325000D01*
X131322654Y-63323411D01*
X131290620Y-63318659D01*
X131259206Y-63310790D01*
X131228714Y-63299880D01*
X131199439Y-63286034D01*
X131171662Y-63269385D01*
X131145650Y-63250093D01*
X131121655Y-63228345D01*
X131099907Y-63204350D01*
X131080615Y-63178338D01*
X131063966Y-63150561D01*
X131050120Y-63121286D01*
X131039210Y-63090794D01*
X131031341Y-63059380D01*
X131026589Y-63027346D01*
X131025000Y-62995000D01*
X131025000Y-62005000D01*
X131026589Y-61972654D01*
X131031341Y-61940620D01*
X131039210Y-61909206D01*
X131050120Y-61878714D01*
X131063966Y-61849439D01*
X131080615Y-61821662D01*
X131099907Y-61795650D01*
X131121655Y-61771655D01*
X131145650Y-61749907D01*
X131171662Y-61730615D01*
X131199439Y-61713966D01*
X131228714Y-61700120D01*
X131259206Y-61689210D01*
X131290620Y-61681341D01*
X131322654Y-61676589D01*
X131355000Y-61675000D01*
X132845000Y-61675000D01*
X132877346Y-61676589D01*
X132877346Y-61676589D01*
G37*
D13*
X132100000Y-62500000D03*
D12*
G36*
X132877346Y-58876589D02*
X132909380Y-58881341D01*
X132940794Y-58889210D01*
X132971286Y-58900120D01*
X133000561Y-58913966D01*
X133028338Y-58930615D01*
X133054350Y-58949907D01*
X133078345Y-58971655D01*
X133100093Y-58995650D01*
X133119385Y-59021662D01*
X133136034Y-59049439D01*
X133149880Y-59078714D01*
X133160790Y-59109206D01*
X133168659Y-59140620D01*
X133173411Y-59172654D01*
X133175000Y-59205000D01*
X133175000Y-60195000D01*
X133173411Y-60227346D01*
X133168659Y-60259380D01*
X133160790Y-60290794D01*
X133149880Y-60321286D01*
X133136034Y-60350561D01*
X133119385Y-60378338D01*
X133100093Y-60404350D01*
X133078345Y-60428345D01*
X133054350Y-60450093D01*
X133028338Y-60469385D01*
X133000561Y-60486034D01*
X132971286Y-60499880D01*
X132940794Y-60510790D01*
X132909380Y-60518659D01*
X132877346Y-60523411D01*
X132845000Y-60525000D01*
X131355000Y-60525000D01*
X131322654Y-60523411D01*
X131290620Y-60518659D01*
X131259206Y-60510790D01*
X131228714Y-60499880D01*
X131199439Y-60486034D01*
X131171662Y-60469385D01*
X131145650Y-60450093D01*
X131121655Y-60428345D01*
X131099907Y-60404350D01*
X131080615Y-60378338D01*
X131063966Y-60350561D01*
X131050120Y-60321286D01*
X131039210Y-60290794D01*
X131031341Y-60259380D01*
X131026589Y-60227346D01*
X131025000Y-60195000D01*
X131025000Y-59205000D01*
X131026589Y-59172654D01*
X131031341Y-59140620D01*
X131039210Y-59109206D01*
X131050120Y-59078714D01*
X131063966Y-59049439D01*
X131080615Y-59021662D01*
X131099907Y-58995650D01*
X131121655Y-58971655D01*
X131145650Y-58949907D01*
X131171662Y-58930615D01*
X131199439Y-58913966D01*
X131228714Y-58900120D01*
X131259206Y-58889210D01*
X131290620Y-58881341D01*
X131322654Y-58876589D01*
X131355000Y-58875000D01*
X132845000Y-58875000D01*
X132877346Y-58876589D01*
X132877346Y-58876589D01*
G37*
D13*
X132100000Y-59700000D03*
G04 #@! TD*
D12*
G04 #@! TO.C,C10*
G36*
X131127346Y-79826589D02*
X131159380Y-79831341D01*
X131190794Y-79839210D01*
X131221286Y-79850120D01*
X131250561Y-79863966D01*
X131278338Y-79880615D01*
X131304350Y-79899907D01*
X131328345Y-79921655D01*
X131350093Y-79945650D01*
X131369385Y-79971662D01*
X131386034Y-79999439D01*
X131399880Y-80028714D01*
X131410790Y-80059206D01*
X131418659Y-80090620D01*
X131423411Y-80122654D01*
X131425000Y-80155000D01*
X131425000Y-81645000D01*
X131423411Y-81677346D01*
X131418659Y-81709380D01*
X131410790Y-81740794D01*
X131399880Y-81771286D01*
X131386034Y-81800561D01*
X131369385Y-81828338D01*
X131350093Y-81854350D01*
X131328345Y-81878345D01*
X131304350Y-81900093D01*
X131278338Y-81919385D01*
X131250561Y-81936034D01*
X131221286Y-81949880D01*
X131190794Y-81960790D01*
X131159380Y-81968659D01*
X131127346Y-81973411D01*
X131095000Y-81975000D01*
X130105000Y-81975000D01*
X130072654Y-81973411D01*
X130040620Y-81968659D01*
X130009206Y-81960790D01*
X129978714Y-81949880D01*
X129949439Y-81936034D01*
X129921662Y-81919385D01*
X129895650Y-81900093D01*
X129871655Y-81878345D01*
X129849907Y-81854350D01*
X129830615Y-81828338D01*
X129813966Y-81800561D01*
X129800120Y-81771286D01*
X129789210Y-81740794D01*
X129781341Y-81709380D01*
X129776589Y-81677346D01*
X129775000Y-81645000D01*
X129775000Y-80155000D01*
X129776589Y-80122654D01*
X129781341Y-80090620D01*
X129789210Y-80059206D01*
X129800120Y-80028714D01*
X129813966Y-79999439D01*
X129830615Y-79971662D01*
X129849907Y-79945650D01*
X129871655Y-79921655D01*
X129895650Y-79899907D01*
X129921662Y-79880615D01*
X129949439Y-79863966D01*
X129978714Y-79850120D01*
X130009206Y-79839210D01*
X130040620Y-79831341D01*
X130072654Y-79826589D01*
X130105000Y-79825000D01*
X131095000Y-79825000D01*
X131127346Y-79826589D01*
X131127346Y-79826589D01*
G37*
D13*
X130600000Y-80900000D03*
D12*
G36*
X133927346Y-79826589D02*
X133959380Y-79831341D01*
X133990794Y-79839210D01*
X134021286Y-79850120D01*
X134050561Y-79863966D01*
X134078338Y-79880615D01*
X134104350Y-79899907D01*
X134128345Y-79921655D01*
X134150093Y-79945650D01*
X134169385Y-79971662D01*
X134186034Y-79999439D01*
X134199880Y-80028714D01*
X134210790Y-80059206D01*
X134218659Y-80090620D01*
X134223411Y-80122654D01*
X134225000Y-80155000D01*
X134225000Y-81645000D01*
X134223411Y-81677346D01*
X134218659Y-81709380D01*
X134210790Y-81740794D01*
X134199880Y-81771286D01*
X134186034Y-81800561D01*
X134169385Y-81828338D01*
X134150093Y-81854350D01*
X134128345Y-81878345D01*
X134104350Y-81900093D01*
X134078338Y-81919385D01*
X134050561Y-81936034D01*
X134021286Y-81949880D01*
X133990794Y-81960790D01*
X133959380Y-81968659D01*
X133927346Y-81973411D01*
X133895000Y-81975000D01*
X132905000Y-81975000D01*
X132872654Y-81973411D01*
X132840620Y-81968659D01*
X132809206Y-81960790D01*
X132778714Y-81949880D01*
X132749439Y-81936034D01*
X132721662Y-81919385D01*
X132695650Y-81900093D01*
X132671655Y-81878345D01*
X132649907Y-81854350D01*
X132630615Y-81828338D01*
X132613966Y-81800561D01*
X132600120Y-81771286D01*
X132589210Y-81740794D01*
X132581341Y-81709380D01*
X132576589Y-81677346D01*
X132575000Y-81645000D01*
X132575000Y-80155000D01*
X132576589Y-80122654D01*
X132581341Y-80090620D01*
X132589210Y-80059206D01*
X132600120Y-80028714D01*
X132613966Y-79999439D01*
X132630615Y-79971662D01*
X132649907Y-79945650D01*
X132671655Y-79921655D01*
X132695650Y-79899907D01*
X132721662Y-79880615D01*
X132749439Y-79863966D01*
X132778714Y-79850120D01*
X132809206Y-79839210D01*
X132840620Y-79831341D01*
X132872654Y-79826589D01*
X132905000Y-79825000D01*
X133895000Y-79825000D01*
X133927346Y-79826589D01*
X133927346Y-79826589D01*
G37*
D13*
X133400000Y-80900000D03*
G04 #@! TD*
D12*
G04 #@! TO.C,C11*
G36*
X125377346Y-102876589D02*
X125409380Y-102881341D01*
X125440794Y-102889210D01*
X125471286Y-102900120D01*
X125500561Y-102913966D01*
X125528338Y-102930615D01*
X125554350Y-102949907D01*
X125578345Y-102971655D01*
X125600093Y-102995650D01*
X125619385Y-103021662D01*
X125636034Y-103049439D01*
X125649880Y-103078714D01*
X125660790Y-103109206D01*
X125668659Y-103140620D01*
X125673411Y-103172654D01*
X125675000Y-103205000D01*
X125675000Y-104195000D01*
X125673411Y-104227346D01*
X125668659Y-104259380D01*
X125660790Y-104290794D01*
X125649880Y-104321286D01*
X125636034Y-104350561D01*
X125619385Y-104378338D01*
X125600093Y-104404350D01*
X125578345Y-104428345D01*
X125554350Y-104450093D01*
X125528338Y-104469385D01*
X125500561Y-104486034D01*
X125471286Y-104499880D01*
X125440794Y-104510790D01*
X125409380Y-104518659D01*
X125377346Y-104523411D01*
X125345000Y-104525000D01*
X123855000Y-104525000D01*
X123822654Y-104523411D01*
X123790620Y-104518659D01*
X123759206Y-104510790D01*
X123728714Y-104499880D01*
X123699439Y-104486034D01*
X123671662Y-104469385D01*
X123645650Y-104450093D01*
X123621655Y-104428345D01*
X123599907Y-104404350D01*
X123580615Y-104378338D01*
X123563966Y-104350561D01*
X123550120Y-104321286D01*
X123539210Y-104290794D01*
X123531341Y-104259380D01*
X123526589Y-104227346D01*
X123525000Y-104195000D01*
X123525000Y-103205000D01*
X123526589Y-103172654D01*
X123531341Y-103140620D01*
X123539210Y-103109206D01*
X123550120Y-103078714D01*
X123563966Y-103049439D01*
X123580615Y-103021662D01*
X123599907Y-102995650D01*
X123621655Y-102971655D01*
X123645650Y-102949907D01*
X123671662Y-102930615D01*
X123699439Y-102913966D01*
X123728714Y-102900120D01*
X123759206Y-102889210D01*
X123790620Y-102881341D01*
X123822654Y-102876589D01*
X123855000Y-102875000D01*
X125345000Y-102875000D01*
X125377346Y-102876589D01*
X125377346Y-102876589D01*
G37*
D13*
X124600000Y-103700000D03*
D12*
G36*
X125377346Y-100076589D02*
X125409380Y-100081341D01*
X125440794Y-100089210D01*
X125471286Y-100100120D01*
X125500561Y-100113966D01*
X125528338Y-100130615D01*
X125554350Y-100149907D01*
X125578345Y-100171655D01*
X125600093Y-100195650D01*
X125619385Y-100221662D01*
X125636034Y-100249439D01*
X125649880Y-100278714D01*
X125660790Y-100309206D01*
X125668659Y-100340620D01*
X125673411Y-100372654D01*
X125675000Y-100405000D01*
X125675000Y-101395000D01*
X125673411Y-101427346D01*
X125668659Y-101459380D01*
X125660790Y-101490794D01*
X125649880Y-101521286D01*
X125636034Y-101550561D01*
X125619385Y-101578338D01*
X125600093Y-101604350D01*
X125578345Y-101628345D01*
X125554350Y-101650093D01*
X125528338Y-101669385D01*
X125500561Y-101686034D01*
X125471286Y-101699880D01*
X125440794Y-101710790D01*
X125409380Y-101718659D01*
X125377346Y-101723411D01*
X125345000Y-101725000D01*
X123855000Y-101725000D01*
X123822654Y-101723411D01*
X123790620Y-101718659D01*
X123759206Y-101710790D01*
X123728714Y-101699880D01*
X123699439Y-101686034D01*
X123671662Y-101669385D01*
X123645650Y-101650093D01*
X123621655Y-101628345D01*
X123599907Y-101604350D01*
X123580615Y-101578338D01*
X123563966Y-101550561D01*
X123550120Y-101521286D01*
X123539210Y-101490794D01*
X123531341Y-101459380D01*
X123526589Y-101427346D01*
X123525000Y-101395000D01*
X123525000Y-100405000D01*
X123526589Y-100372654D01*
X123531341Y-100340620D01*
X123539210Y-100309206D01*
X123550120Y-100278714D01*
X123563966Y-100249439D01*
X123580615Y-100221662D01*
X123599907Y-100195650D01*
X123621655Y-100171655D01*
X123645650Y-100149907D01*
X123671662Y-100130615D01*
X123699439Y-100113966D01*
X123728714Y-100100120D01*
X123759206Y-100089210D01*
X123790620Y-100081341D01*
X123822654Y-100076589D01*
X123855000Y-100075000D01*
X125345000Y-100075000D01*
X125377346Y-100076589D01*
X125377346Y-100076589D01*
G37*
D13*
X124600000Y-100900000D03*
G04 #@! TD*
D15*
G04 #@! TO.C,D1*
X149100000Y-88250000D03*
X149100000Y-86350000D03*
X147100000Y-87300000D03*
G04 #@! TD*
D16*
G04 #@! TO.C,D2*
X118050000Y-116500000D03*
X119000000Y-118500000D03*
X117100000Y-118500000D03*
G04 #@! TD*
D12*
G04 #@! TO.C,F1*
G36*
X159432329Y-84401632D02*
X159465226Y-84406512D01*
X159497486Y-84414592D01*
X159528799Y-84425796D01*
X159558863Y-84440015D01*
X159587388Y-84457113D01*
X159614100Y-84476924D01*
X159638742Y-84499258D01*
X159661076Y-84523900D01*
X159680887Y-84550612D01*
X159697985Y-84579137D01*
X159712204Y-84609201D01*
X159723408Y-84640514D01*
X159731488Y-84672774D01*
X159736368Y-84705671D01*
X159738000Y-84738888D01*
X159738000Y-87861112D01*
X159736368Y-87894329D01*
X159731488Y-87927226D01*
X159723408Y-87959486D01*
X159712204Y-87990799D01*
X159697985Y-88020863D01*
X159680887Y-88049388D01*
X159661076Y-88076100D01*
X159638742Y-88100742D01*
X159614100Y-88123076D01*
X159587388Y-88142887D01*
X159558863Y-88159985D01*
X159528799Y-88174204D01*
X159497486Y-88185408D01*
X159465226Y-88193488D01*
X159432329Y-88198368D01*
X159399112Y-88200000D01*
X158551888Y-88200000D01*
X158518671Y-88198368D01*
X158485774Y-88193488D01*
X158453514Y-88185408D01*
X158422201Y-88174204D01*
X158392137Y-88159985D01*
X158363612Y-88142887D01*
X158336900Y-88123076D01*
X158312258Y-88100742D01*
X158289924Y-88076100D01*
X158270113Y-88049388D01*
X158253015Y-88020863D01*
X158238796Y-87990799D01*
X158227592Y-87959486D01*
X158219512Y-87927226D01*
X158214632Y-87894329D01*
X158213000Y-87861112D01*
X158213000Y-84738888D01*
X158214632Y-84705671D01*
X158219512Y-84672774D01*
X158227592Y-84640514D01*
X158238796Y-84609201D01*
X158253015Y-84579137D01*
X158270113Y-84550612D01*
X158289924Y-84523900D01*
X158312258Y-84499258D01*
X158336900Y-84476924D01*
X158363612Y-84457113D01*
X158392137Y-84440015D01*
X158422201Y-84425796D01*
X158453514Y-84414592D01*
X158485774Y-84406512D01*
X158518671Y-84401632D01*
X158551888Y-84400000D01*
X159399112Y-84400000D01*
X159432329Y-84401632D01*
X159432329Y-84401632D01*
G37*
D17*
X158975500Y-86300000D03*
D12*
G36*
X155157329Y-84401632D02*
X155190226Y-84406512D01*
X155222486Y-84414592D01*
X155253799Y-84425796D01*
X155283863Y-84440015D01*
X155312388Y-84457113D01*
X155339100Y-84476924D01*
X155363742Y-84499258D01*
X155386076Y-84523900D01*
X155405887Y-84550612D01*
X155422985Y-84579137D01*
X155437204Y-84609201D01*
X155448408Y-84640514D01*
X155456488Y-84672774D01*
X155461368Y-84705671D01*
X155463000Y-84738888D01*
X155463000Y-87861112D01*
X155461368Y-87894329D01*
X155456488Y-87927226D01*
X155448408Y-87959486D01*
X155437204Y-87990799D01*
X155422985Y-88020863D01*
X155405887Y-88049388D01*
X155386076Y-88076100D01*
X155363742Y-88100742D01*
X155339100Y-88123076D01*
X155312388Y-88142887D01*
X155283863Y-88159985D01*
X155253799Y-88174204D01*
X155222486Y-88185408D01*
X155190226Y-88193488D01*
X155157329Y-88198368D01*
X155124112Y-88200000D01*
X154276888Y-88200000D01*
X154243671Y-88198368D01*
X154210774Y-88193488D01*
X154178514Y-88185408D01*
X154147201Y-88174204D01*
X154117137Y-88159985D01*
X154088612Y-88142887D01*
X154061900Y-88123076D01*
X154037258Y-88100742D01*
X154014924Y-88076100D01*
X153995113Y-88049388D01*
X153978015Y-88020863D01*
X153963796Y-87990799D01*
X153952592Y-87959486D01*
X153944512Y-87927226D01*
X153939632Y-87894329D01*
X153938000Y-87861112D01*
X153938000Y-84738888D01*
X153939632Y-84705671D01*
X153944512Y-84672774D01*
X153952592Y-84640514D01*
X153963796Y-84609201D01*
X153978015Y-84579137D01*
X153995113Y-84550612D01*
X154014924Y-84523900D01*
X154037258Y-84499258D01*
X154061900Y-84476924D01*
X154088612Y-84457113D01*
X154117137Y-84440015D01*
X154147201Y-84425796D01*
X154178514Y-84414592D01*
X154210774Y-84406512D01*
X154243671Y-84401632D01*
X154276888Y-84400000D01*
X155124112Y-84400000D01*
X155157329Y-84401632D01*
X155157329Y-84401632D01*
G37*
D17*
X154700500Y-86300000D03*
G04 #@! TD*
D12*
G04 #@! TO.C,F2*
G36*
X155157329Y-90201632D02*
X155190226Y-90206512D01*
X155222486Y-90214592D01*
X155253799Y-90225796D01*
X155283863Y-90240015D01*
X155312388Y-90257113D01*
X155339100Y-90276924D01*
X155363742Y-90299258D01*
X155386076Y-90323900D01*
X155405887Y-90350612D01*
X155422985Y-90379137D01*
X155437204Y-90409201D01*
X155448408Y-90440514D01*
X155456488Y-90472774D01*
X155461368Y-90505671D01*
X155463000Y-90538888D01*
X155463000Y-93661112D01*
X155461368Y-93694329D01*
X155456488Y-93727226D01*
X155448408Y-93759486D01*
X155437204Y-93790799D01*
X155422985Y-93820863D01*
X155405887Y-93849388D01*
X155386076Y-93876100D01*
X155363742Y-93900742D01*
X155339100Y-93923076D01*
X155312388Y-93942887D01*
X155283863Y-93959985D01*
X155253799Y-93974204D01*
X155222486Y-93985408D01*
X155190226Y-93993488D01*
X155157329Y-93998368D01*
X155124112Y-94000000D01*
X154276888Y-94000000D01*
X154243671Y-93998368D01*
X154210774Y-93993488D01*
X154178514Y-93985408D01*
X154147201Y-93974204D01*
X154117137Y-93959985D01*
X154088612Y-93942887D01*
X154061900Y-93923076D01*
X154037258Y-93900742D01*
X154014924Y-93876100D01*
X153995113Y-93849388D01*
X153978015Y-93820863D01*
X153963796Y-93790799D01*
X153952592Y-93759486D01*
X153944512Y-93727226D01*
X153939632Y-93694329D01*
X153938000Y-93661112D01*
X153938000Y-90538888D01*
X153939632Y-90505671D01*
X153944512Y-90472774D01*
X153952592Y-90440514D01*
X153963796Y-90409201D01*
X153978015Y-90379137D01*
X153995113Y-90350612D01*
X154014924Y-90323900D01*
X154037258Y-90299258D01*
X154061900Y-90276924D01*
X154088612Y-90257113D01*
X154117137Y-90240015D01*
X154147201Y-90225796D01*
X154178514Y-90214592D01*
X154210774Y-90206512D01*
X154243671Y-90201632D01*
X154276888Y-90200000D01*
X155124112Y-90200000D01*
X155157329Y-90201632D01*
X155157329Y-90201632D01*
G37*
D17*
X154700500Y-92100000D03*
D12*
G36*
X159432329Y-90201632D02*
X159465226Y-90206512D01*
X159497486Y-90214592D01*
X159528799Y-90225796D01*
X159558863Y-90240015D01*
X159587388Y-90257113D01*
X159614100Y-90276924D01*
X159638742Y-90299258D01*
X159661076Y-90323900D01*
X159680887Y-90350612D01*
X159697985Y-90379137D01*
X159712204Y-90409201D01*
X159723408Y-90440514D01*
X159731488Y-90472774D01*
X159736368Y-90505671D01*
X159738000Y-90538888D01*
X159738000Y-93661112D01*
X159736368Y-93694329D01*
X159731488Y-93727226D01*
X159723408Y-93759486D01*
X159712204Y-93790799D01*
X159697985Y-93820863D01*
X159680887Y-93849388D01*
X159661076Y-93876100D01*
X159638742Y-93900742D01*
X159614100Y-93923076D01*
X159587388Y-93942887D01*
X159558863Y-93959985D01*
X159528799Y-93974204D01*
X159497486Y-93985408D01*
X159465226Y-93993488D01*
X159432329Y-93998368D01*
X159399112Y-94000000D01*
X158551888Y-94000000D01*
X158518671Y-93998368D01*
X158485774Y-93993488D01*
X158453514Y-93985408D01*
X158422201Y-93974204D01*
X158392137Y-93959985D01*
X158363612Y-93942887D01*
X158336900Y-93923076D01*
X158312258Y-93900742D01*
X158289924Y-93876100D01*
X158270113Y-93849388D01*
X158253015Y-93820863D01*
X158238796Y-93790799D01*
X158227592Y-93759486D01*
X158219512Y-93727226D01*
X158214632Y-93694329D01*
X158213000Y-93661112D01*
X158213000Y-90538888D01*
X158214632Y-90505671D01*
X158219512Y-90472774D01*
X158227592Y-90440514D01*
X158238796Y-90409201D01*
X158253015Y-90379137D01*
X158270113Y-90350612D01*
X158289924Y-90323900D01*
X158312258Y-90299258D01*
X158336900Y-90276924D01*
X158363612Y-90257113D01*
X158392137Y-90240015D01*
X158422201Y-90225796D01*
X158453514Y-90214592D01*
X158485774Y-90206512D01*
X158518671Y-90201632D01*
X158551888Y-90200000D01*
X159399112Y-90200000D01*
X159432329Y-90201632D01*
X159432329Y-90201632D01*
G37*
D17*
X158975500Y-92100000D03*
G04 #@! TD*
D12*
G04 #@! TO.C,F3*
G36*
X123094329Y-121439632D02*
X123127226Y-121444512D01*
X123159486Y-121452592D01*
X123190799Y-121463796D01*
X123220863Y-121478015D01*
X123249388Y-121495113D01*
X123276100Y-121514924D01*
X123300742Y-121537258D01*
X123323076Y-121561900D01*
X123342887Y-121588612D01*
X123359985Y-121617137D01*
X123374204Y-121647201D01*
X123385408Y-121678514D01*
X123393488Y-121710774D01*
X123398368Y-121743671D01*
X123400000Y-121776888D01*
X123400000Y-122624112D01*
X123398368Y-122657329D01*
X123393488Y-122690226D01*
X123385408Y-122722486D01*
X123374204Y-122753799D01*
X123359985Y-122783863D01*
X123342887Y-122812388D01*
X123323076Y-122839100D01*
X123300742Y-122863742D01*
X123276100Y-122886076D01*
X123249388Y-122905887D01*
X123220863Y-122922985D01*
X123190799Y-122937204D01*
X123159486Y-122948408D01*
X123127226Y-122956488D01*
X123094329Y-122961368D01*
X123061112Y-122963000D01*
X119938888Y-122963000D01*
X119905671Y-122961368D01*
X119872774Y-122956488D01*
X119840514Y-122948408D01*
X119809201Y-122937204D01*
X119779137Y-122922985D01*
X119750612Y-122905887D01*
X119723900Y-122886076D01*
X119699258Y-122863742D01*
X119676924Y-122839100D01*
X119657113Y-122812388D01*
X119640015Y-122783863D01*
X119625796Y-122753799D01*
X119614592Y-122722486D01*
X119606512Y-122690226D01*
X119601632Y-122657329D01*
X119600000Y-122624112D01*
X119600000Y-121776888D01*
X119601632Y-121743671D01*
X119606512Y-121710774D01*
X119614592Y-121678514D01*
X119625796Y-121647201D01*
X119640015Y-121617137D01*
X119657113Y-121588612D01*
X119676924Y-121561900D01*
X119699258Y-121537258D01*
X119723900Y-121514924D01*
X119750612Y-121495113D01*
X119779137Y-121478015D01*
X119809201Y-121463796D01*
X119840514Y-121452592D01*
X119872774Y-121444512D01*
X119905671Y-121439632D01*
X119938888Y-121438000D01*
X123061112Y-121438000D01*
X123094329Y-121439632D01*
X123094329Y-121439632D01*
G37*
D17*
X121500000Y-122200500D03*
D12*
G36*
X123094329Y-125714632D02*
X123127226Y-125719512D01*
X123159486Y-125727592D01*
X123190799Y-125738796D01*
X123220863Y-125753015D01*
X123249388Y-125770113D01*
X123276100Y-125789924D01*
X123300742Y-125812258D01*
X123323076Y-125836900D01*
X123342887Y-125863612D01*
X123359985Y-125892137D01*
X123374204Y-125922201D01*
X123385408Y-125953514D01*
X123393488Y-125985774D01*
X123398368Y-126018671D01*
X123400000Y-126051888D01*
X123400000Y-126899112D01*
X123398368Y-126932329D01*
X123393488Y-126965226D01*
X123385408Y-126997486D01*
X123374204Y-127028799D01*
X123359985Y-127058863D01*
X123342887Y-127087388D01*
X123323076Y-127114100D01*
X123300742Y-127138742D01*
X123276100Y-127161076D01*
X123249388Y-127180887D01*
X123220863Y-127197985D01*
X123190799Y-127212204D01*
X123159486Y-127223408D01*
X123127226Y-127231488D01*
X123094329Y-127236368D01*
X123061112Y-127238000D01*
X119938888Y-127238000D01*
X119905671Y-127236368D01*
X119872774Y-127231488D01*
X119840514Y-127223408D01*
X119809201Y-127212204D01*
X119779137Y-127197985D01*
X119750612Y-127180887D01*
X119723900Y-127161076D01*
X119699258Y-127138742D01*
X119676924Y-127114100D01*
X119657113Y-127087388D01*
X119640015Y-127058863D01*
X119625796Y-127028799D01*
X119614592Y-126997486D01*
X119606512Y-126965226D01*
X119601632Y-126932329D01*
X119600000Y-126899112D01*
X119600000Y-126051888D01*
X119601632Y-126018671D01*
X119606512Y-125985774D01*
X119614592Y-125953514D01*
X119625796Y-125922201D01*
X119640015Y-125892137D01*
X119657113Y-125863612D01*
X119676924Y-125836900D01*
X119699258Y-125812258D01*
X119723900Y-125789924D01*
X119750612Y-125770113D01*
X119779137Y-125753015D01*
X119809201Y-125738796D01*
X119840514Y-125727592D01*
X119872774Y-125719512D01*
X119905671Y-125714632D01*
X119938888Y-125713000D01*
X123061112Y-125713000D01*
X123094329Y-125714632D01*
X123094329Y-125714632D01*
G37*
D17*
X121500000Y-126475500D03*
G04 #@! TD*
D12*
G04 #@! TO.C,F4*
G36*
X116094329Y-125638632D02*
X116127226Y-125643512D01*
X116159486Y-125651592D01*
X116190799Y-125662796D01*
X116220863Y-125677015D01*
X116249388Y-125694113D01*
X116276100Y-125713924D01*
X116300742Y-125736258D01*
X116323076Y-125760900D01*
X116342887Y-125787612D01*
X116359985Y-125816137D01*
X116374204Y-125846201D01*
X116385408Y-125877514D01*
X116393488Y-125909774D01*
X116398368Y-125942671D01*
X116400000Y-125975888D01*
X116400000Y-126823112D01*
X116398368Y-126856329D01*
X116393488Y-126889226D01*
X116385408Y-126921486D01*
X116374204Y-126952799D01*
X116359985Y-126982863D01*
X116342887Y-127011388D01*
X116323076Y-127038100D01*
X116300742Y-127062742D01*
X116276100Y-127085076D01*
X116249388Y-127104887D01*
X116220863Y-127121985D01*
X116190799Y-127136204D01*
X116159486Y-127147408D01*
X116127226Y-127155488D01*
X116094329Y-127160368D01*
X116061112Y-127162000D01*
X112938888Y-127162000D01*
X112905671Y-127160368D01*
X112872774Y-127155488D01*
X112840514Y-127147408D01*
X112809201Y-127136204D01*
X112779137Y-127121985D01*
X112750612Y-127104887D01*
X112723900Y-127085076D01*
X112699258Y-127062742D01*
X112676924Y-127038100D01*
X112657113Y-127011388D01*
X112640015Y-126982863D01*
X112625796Y-126952799D01*
X112614592Y-126921486D01*
X112606512Y-126889226D01*
X112601632Y-126856329D01*
X112600000Y-126823112D01*
X112600000Y-125975888D01*
X112601632Y-125942671D01*
X112606512Y-125909774D01*
X112614592Y-125877514D01*
X112625796Y-125846201D01*
X112640015Y-125816137D01*
X112657113Y-125787612D01*
X112676924Y-125760900D01*
X112699258Y-125736258D01*
X112723900Y-125713924D01*
X112750612Y-125694113D01*
X112779137Y-125677015D01*
X112809201Y-125662796D01*
X112840514Y-125651592D01*
X112872774Y-125643512D01*
X112905671Y-125638632D01*
X112938888Y-125637000D01*
X116061112Y-125637000D01*
X116094329Y-125638632D01*
X116094329Y-125638632D01*
G37*
D17*
X114500000Y-126399500D03*
D12*
G36*
X116094329Y-121363632D02*
X116127226Y-121368512D01*
X116159486Y-121376592D01*
X116190799Y-121387796D01*
X116220863Y-121402015D01*
X116249388Y-121419113D01*
X116276100Y-121438924D01*
X116300742Y-121461258D01*
X116323076Y-121485900D01*
X116342887Y-121512612D01*
X116359985Y-121541137D01*
X116374204Y-121571201D01*
X116385408Y-121602514D01*
X116393488Y-121634774D01*
X116398368Y-121667671D01*
X116400000Y-121700888D01*
X116400000Y-122548112D01*
X116398368Y-122581329D01*
X116393488Y-122614226D01*
X116385408Y-122646486D01*
X116374204Y-122677799D01*
X116359985Y-122707863D01*
X116342887Y-122736388D01*
X116323076Y-122763100D01*
X116300742Y-122787742D01*
X116276100Y-122810076D01*
X116249388Y-122829887D01*
X116220863Y-122846985D01*
X116190799Y-122861204D01*
X116159486Y-122872408D01*
X116127226Y-122880488D01*
X116094329Y-122885368D01*
X116061112Y-122887000D01*
X112938888Y-122887000D01*
X112905671Y-122885368D01*
X112872774Y-122880488D01*
X112840514Y-122872408D01*
X112809201Y-122861204D01*
X112779137Y-122846985D01*
X112750612Y-122829887D01*
X112723900Y-122810076D01*
X112699258Y-122787742D01*
X112676924Y-122763100D01*
X112657113Y-122736388D01*
X112640015Y-122707863D01*
X112625796Y-122677799D01*
X112614592Y-122646486D01*
X112606512Y-122614226D01*
X112601632Y-122581329D01*
X112600000Y-122548112D01*
X112600000Y-121700888D01*
X112601632Y-121667671D01*
X112606512Y-121634774D01*
X112614592Y-121602514D01*
X112625796Y-121571201D01*
X112640015Y-121541137D01*
X112657113Y-121512612D01*
X112676924Y-121485900D01*
X112699258Y-121461258D01*
X112723900Y-121438924D01*
X112750612Y-121419113D01*
X112779137Y-121402015D01*
X112809201Y-121387796D01*
X112840514Y-121376592D01*
X112872774Y-121368512D01*
X112905671Y-121363632D01*
X112938888Y-121362000D01*
X116061112Y-121362000D01*
X116094329Y-121363632D01*
X116094329Y-121363632D01*
G37*
D17*
X114500000Y-122124500D03*
G04 #@! TD*
D18*
G04 #@! TO.C,J2*
X128900000Y-31500000D03*
D19*
X128900000Y-34040000D03*
X126360000Y-31500000D03*
X126360000Y-34040000D03*
X123820000Y-31500000D03*
X123820000Y-34040000D03*
X121280000Y-31500000D03*
X121280000Y-34040000D03*
G04 #@! TD*
D18*
G04 #@! TO.C,J3*
X177700000Y-31500000D03*
D19*
X180240000Y-31500000D03*
X182780000Y-31500000D03*
X185320000Y-31500000D03*
X187860000Y-31500000D03*
X190400000Y-31500000D03*
G04 #@! TD*
D12*
G04 #@! TO.C,R1*
G36*
X144056329Y-81501632D02*
X144089226Y-81506512D01*
X144121486Y-81514592D01*
X144152799Y-81525796D01*
X144182863Y-81540015D01*
X144211388Y-81557113D01*
X144238100Y-81576924D01*
X144262742Y-81599258D01*
X144285076Y-81623900D01*
X144304887Y-81650612D01*
X144321985Y-81679137D01*
X144336204Y-81709201D01*
X144347408Y-81740514D01*
X144355488Y-81772774D01*
X144360368Y-81805671D01*
X144362000Y-81838888D01*
X144362000Y-84961112D01*
X144360368Y-84994329D01*
X144355488Y-85027226D01*
X144347408Y-85059486D01*
X144336204Y-85090799D01*
X144321985Y-85120863D01*
X144304887Y-85149388D01*
X144285076Y-85176100D01*
X144262742Y-85200742D01*
X144238100Y-85223076D01*
X144211388Y-85242887D01*
X144182863Y-85259985D01*
X144152799Y-85274204D01*
X144121486Y-85285408D01*
X144089226Y-85293488D01*
X144056329Y-85298368D01*
X144023112Y-85300000D01*
X143175888Y-85300000D01*
X143142671Y-85298368D01*
X143109774Y-85293488D01*
X143077514Y-85285408D01*
X143046201Y-85274204D01*
X143016137Y-85259985D01*
X142987612Y-85242887D01*
X142960900Y-85223076D01*
X142936258Y-85200742D01*
X142913924Y-85176100D01*
X142894113Y-85149388D01*
X142877015Y-85120863D01*
X142862796Y-85090799D01*
X142851592Y-85059486D01*
X142843512Y-85027226D01*
X142838632Y-84994329D01*
X142837000Y-84961112D01*
X142837000Y-81838888D01*
X142838632Y-81805671D01*
X142843512Y-81772774D01*
X142851592Y-81740514D01*
X142862796Y-81709201D01*
X142877015Y-81679137D01*
X142894113Y-81650612D01*
X142913924Y-81623900D01*
X142936258Y-81599258D01*
X142960900Y-81576924D01*
X142987612Y-81557113D01*
X143016137Y-81540015D01*
X143046201Y-81525796D01*
X143077514Y-81514592D01*
X143109774Y-81506512D01*
X143142671Y-81501632D01*
X143175888Y-81500000D01*
X144023112Y-81500000D01*
X144056329Y-81501632D01*
X144056329Y-81501632D01*
G37*
D17*
X143599500Y-83400000D03*
D12*
G36*
X139781329Y-81501632D02*
X139814226Y-81506512D01*
X139846486Y-81514592D01*
X139877799Y-81525796D01*
X139907863Y-81540015D01*
X139936388Y-81557113D01*
X139963100Y-81576924D01*
X139987742Y-81599258D01*
X140010076Y-81623900D01*
X140029887Y-81650612D01*
X140046985Y-81679137D01*
X140061204Y-81709201D01*
X140072408Y-81740514D01*
X140080488Y-81772774D01*
X140085368Y-81805671D01*
X140087000Y-81838888D01*
X140087000Y-84961112D01*
X140085368Y-84994329D01*
X140080488Y-85027226D01*
X140072408Y-85059486D01*
X140061204Y-85090799D01*
X140046985Y-85120863D01*
X140029887Y-85149388D01*
X140010076Y-85176100D01*
X139987742Y-85200742D01*
X139963100Y-85223076D01*
X139936388Y-85242887D01*
X139907863Y-85259985D01*
X139877799Y-85274204D01*
X139846486Y-85285408D01*
X139814226Y-85293488D01*
X139781329Y-85298368D01*
X139748112Y-85300000D01*
X138900888Y-85300000D01*
X138867671Y-85298368D01*
X138834774Y-85293488D01*
X138802514Y-85285408D01*
X138771201Y-85274204D01*
X138741137Y-85259985D01*
X138712612Y-85242887D01*
X138685900Y-85223076D01*
X138661258Y-85200742D01*
X138638924Y-85176100D01*
X138619113Y-85149388D01*
X138602015Y-85120863D01*
X138587796Y-85090799D01*
X138576592Y-85059486D01*
X138568512Y-85027226D01*
X138563632Y-84994329D01*
X138562000Y-84961112D01*
X138562000Y-81838888D01*
X138563632Y-81805671D01*
X138568512Y-81772774D01*
X138576592Y-81740514D01*
X138587796Y-81709201D01*
X138602015Y-81679137D01*
X138619113Y-81650612D01*
X138638924Y-81623900D01*
X138661258Y-81599258D01*
X138685900Y-81576924D01*
X138712612Y-81557113D01*
X138741137Y-81540015D01*
X138771201Y-81525796D01*
X138802514Y-81514592D01*
X138834774Y-81506512D01*
X138867671Y-81501632D01*
X138900888Y-81500000D01*
X139748112Y-81500000D01*
X139781329Y-81501632D01*
X139781329Y-81501632D01*
G37*
D17*
X139324500Y-83400000D03*
G04 #@! TD*
D12*
G04 #@! TO.C,R2*
G36*
X144156329Y-88901632D02*
X144189226Y-88906512D01*
X144221486Y-88914592D01*
X144252799Y-88925796D01*
X144282863Y-88940015D01*
X144311388Y-88957113D01*
X144338100Y-88976924D01*
X144362742Y-88999258D01*
X144385076Y-89023900D01*
X144404887Y-89050612D01*
X144421985Y-89079137D01*
X144436204Y-89109201D01*
X144447408Y-89140514D01*
X144455488Y-89172774D01*
X144460368Y-89205671D01*
X144462000Y-89238888D01*
X144462000Y-92361112D01*
X144460368Y-92394329D01*
X144455488Y-92427226D01*
X144447408Y-92459486D01*
X144436204Y-92490799D01*
X144421985Y-92520863D01*
X144404887Y-92549388D01*
X144385076Y-92576100D01*
X144362742Y-92600742D01*
X144338100Y-92623076D01*
X144311388Y-92642887D01*
X144282863Y-92659985D01*
X144252799Y-92674204D01*
X144221486Y-92685408D01*
X144189226Y-92693488D01*
X144156329Y-92698368D01*
X144123112Y-92700000D01*
X143275888Y-92700000D01*
X143242671Y-92698368D01*
X143209774Y-92693488D01*
X143177514Y-92685408D01*
X143146201Y-92674204D01*
X143116137Y-92659985D01*
X143087612Y-92642887D01*
X143060900Y-92623076D01*
X143036258Y-92600742D01*
X143013924Y-92576100D01*
X142994113Y-92549388D01*
X142977015Y-92520863D01*
X142962796Y-92490799D01*
X142951592Y-92459486D01*
X142943512Y-92427226D01*
X142938632Y-92394329D01*
X142937000Y-92361112D01*
X142937000Y-89238888D01*
X142938632Y-89205671D01*
X142943512Y-89172774D01*
X142951592Y-89140514D01*
X142962796Y-89109201D01*
X142977015Y-89079137D01*
X142994113Y-89050612D01*
X143013924Y-89023900D01*
X143036258Y-88999258D01*
X143060900Y-88976924D01*
X143087612Y-88957113D01*
X143116137Y-88940015D01*
X143146201Y-88925796D01*
X143177514Y-88914592D01*
X143209774Y-88906512D01*
X143242671Y-88901632D01*
X143275888Y-88900000D01*
X144123112Y-88900000D01*
X144156329Y-88901632D01*
X144156329Y-88901632D01*
G37*
D17*
X143699500Y-90800000D03*
D12*
G36*
X139881329Y-88901632D02*
X139914226Y-88906512D01*
X139946486Y-88914592D01*
X139977799Y-88925796D01*
X140007863Y-88940015D01*
X140036388Y-88957113D01*
X140063100Y-88976924D01*
X140087742Y-88999258D01*
X140110076Y-89023900D01*
X140129887Y-89050612D01*
X140146985Y-89079137D01*
X140161204Y-89109201D01*
X140172408Y-89140514D01*
X140180488Y-89172774D01*
X140185368Y-89205671D01*
X140187000Y-89238888D01*
X140187000Y-92361112D01*
X140185368Y-92394329D01*
X140180488Y-92427226D01*
X140172408Y-92459486D01*
X140161204Y-92490799D01*
X140146985Y-92520863D01*
X140129887Y-92549388D01*
X140110076Y-92576100D01*
X140087742Y-92600742D01*
X140063100Y-92623076D01*
X140036388Y-92642887D01*
X140007863Y-92659985D01*
X139977799Y-92674204D01*
X139946486Y-92685408D01*
X139914226Y-92693488D01*
X139881329Y-92698368D01*
X139848112Y-92700000D01*
X139000888Y-92700000D01*
X138967671Y-92698368D01*
X138934774Y-92693488D01*
X138902514Y-92685408D01*
X138871201Y-92674204D01*
X138841137Y-92659985D01*
X138812612Y-92642887D01*
X138785900Y-92623076D01*
X138761258Y-92600742D01*
X138738924Y-92576100D01*
X138719113Y-92549388D01*
X138702015Y-92520863D01*
X138687796Y-92490799D01*
X138676592Y-92459486D01*
X138668512Y-92427226D01*
X138663632Y-92394329D01*
X138662000Y-92361112D01*
X138662000Y-89238888D01*
X138663632Y-89205671D01*
X138668512Y-89172774D01*
X138676592Y-89140514D01*
X138687796Y-89109201D01*
X138702015Y-89079137D01*
X138719113Y-89050612D01*
X138738924Y-89023900D01*
X138761258Y-88999258D01*
X138785900Y-88976924D01*
X138812612Y-88957113D01*
X138841137Y-88940015D01*
X138871201Y-88925796D01*
X138902514Y-88914592D01*
X138934774Y-88906512D01*
X138967671Y-88901632D01*
X139000888Y-88900000D01*
X139848112Y-88900000D01*
X139881329Y-88901632D01*
X139881329Y-88901632D01*
G37*
D17*
X139424500Y-90800000D03*
G04 #@! TD*
D12*
G04 #@! TO.C,R3*
G36*
X122894329Y-108463632D02*
X122927226Y-108468512D01*
X122959486Y-108476592D01*
X122990799Y-108487796D01*
X123020863Y-108502015D01*
X123049388Y-108519113D01*
X123076100Y-108538924D01*
X123100742Y-108561258D01*
X123123076Y-108585900D01*
X123142887Y-108612612D01*
X123159985Y-108641137D01*
X123174204Y-108671201D01*
X123185408Y-108702514D01*
X123193488Y-108734774D01*
X123198368Y-108767671D01*
X123200000Y-108800888D01*
X123200000Y-109648112D01*
X123198368Y-109681329D01*
X123193488Y-109714226D01*
X123185408Y-109746486D01*
X123174204Y-109777799D01*
X123159985Y-109807863D01*
X123142887Y-109836388D01*
X123123076Y-109863100D01*
X123100742Y-109887742D01*
X123076100Y-109910076D01*
X123049388Y-109929887D01*
X123020863Y-109946985D01*
X122990799Y-109961204D01*
X122959486Y-109972408D01*
X122927226Y-109980488D01*
X122894329Y-109985368D01*
X122861112Y-109987000D01*
X119738888Y-109987000D01*
X119705671Y-109985368D01*
X119672774Y-109980488D01*
X119640514Y-109972408D01*
X119609201Y-109961204D01*
X119579137Y-109946985D01*
X119550612Y-109929887D01*
X119523900Y-109910076D01*
X119499258Y-109887742D01*
X119476924Y-109863100D01*
X119457113Y-109836388D01*
X119440015Y-109807863D01*
X119425796Y-109777799D01*
X119414592Y-109746486D01*
X119406512Y-109714226D01*
X119401632Y-109681329D01*
X119400000Y-109648112D01*
X119400000Y-108800888D01*
X119401632Y-108767671D01*
X119406512Y-108734774D01*
X119414592Y-108702514D01*
X119425796Y-108671201D01*
X119440015Y-108641137D01*
X119457113Y-108612612D01*
X119476924Y-108585900D01*
X119499258Y-108561258D01*
X119523900Y-108538924D01*
X119550612Y-108519113D01*
X119579137Y-108502015D01*
X119609201Y-108487796D01*
X119640514Y-108476592D01*
X119672774Y-108468512D01*
X119705671Y-108463632D01*
X119738888Y-108462000D01*
X122861112Y-108462000D01*
X122894329Y-108463632D01*
X122894329Y-108463632D01*
G37*
D17*
X121300000Y-109224500D03*
D12*
G36*
X122894329Y-112738632D02*
X122927226Y-112743512D01*
X122959486Y-112751592D01*
X122990799Y-112762796D01*
X123020863Y-112777015D01*
X123049388Y-112794113D01*
X123076100Y-112813924D01*
X123100742Y-112836258D01*
X123123076Y-112860900D01*
X123142887Y-112887612D01*
X123159985Y-112916137D01*
X123174204Y-112946201D01*
X123185408Y-112977514D01*
X123193488Y-113009774D01*
X123198368Y-113042671D01*
X123200000Y-113075888D01*
X123200000Y-113923112D01*
X123198368Y-113956329D01*
X123193488Y-113989226D01*
X123185408Y-114021486D01*
X123174204Y-114052799D01*
X123159985Y-114082863D01*
X123142887Y-114111388D01*
X123123076Y-114138100D01*
X123100742Y-114162742D01*
X123076100Y-114185076D01*
X123049388Y-114204887D01*
X123020863Y-114221985D01*
X122990799Y-114236204D01*
X122959486Y-114247408D01*
X122927226Y-114255488D01*
X122894329Y-114260368D01*
X122861112Y-114262000D01*
X119738888Y-114262000D01*
X119705671Y-114260368D01*
X119672774Y-114255488D01*
X119640514Y-114247408D01*
X119609201Y-114236204D01*
X119579137Y-114221985D01*
X119550612Y-114204887D01*
X119523900Y-114185076D01*
X119499258Y-114162742D01*
X119476924Y-114138100D01*
X119457113Y-114111388D01*
X119440015Y-114082863D01*
X119425796Y-114052799D01*
X119414592Y-114021486D01*
X119406512Y-113989226D01*
X119401632Y-113956329D01*
X119400000Y-113923112D01*
X119400000Y-113075888D01*
X119401632Y-113042671D01*
X119406512Y-113009774D01*
X119414592Y-112977514D01*
X119425796Y-112946201D01*
X119440015Y-112916137D01*
X119457113Y-112887612D01*
X119476924Y-112860900D01*
X119499258Y-112836258D01*
X119523900Y-112813924D01*
X119550612Y-112794113D01*
X119579137Y-112777015D01*
X119609201Y-112762796D01*
X119640514Y-112751592D01*
X119672774Y-112743512D01*
X119705671Y-112738632D01*
X119738888Y-112737000D01*
X122861112Y-112737000D01*
X122894329Y-112738632D01*
X122894329Y-112738632D01*
G37*
D17*
X121300000Y-113499500D03*
G04 #@! TD*
D12*
G04 #@! TO.C,R4*
G36*
X116394329Y-112738632D02*
X116427226Y-112743512D01*
X116459486Y-112751592D01*
X116490799Y-112762796D01*
X116520863Y-112777015D01*
X116549388Y-112794113D01*
X116576100Y-112813924D01*
X116600742Y-112836258D01*
X116623076Y-112860900D01*
X116642887Y-112887612D01*
X116659985Y-112916137D01*
X116674204Y-112946201D01*
X116685408Y-112977514D01*
X116693488Y-113009774D01*
X116698368Y-113042671D01*
X116700000Y-113075888D01*
X116700000Y-113923112D01*
X116698368Y-113956329D01*
X116693488Y-113989226D01*
X116685408Y-114021486D01*
X116674204Y-114052799D01*
X116659985Y-114082863D01*
X116642887Y-114111388D01*
X116623076Y-114138100D01*
X116600742Y-114162742D01*
X116576100Y-114185076D01*
X116549388Y-114204887D01*
X116520863Y-114221985D01*
X116490799Y-114236204D01*
X116459486Y-114247408D01*
X116427226Y-114255488D01*
X116394329Y-114260368D01*
X116361112Y-114262000D01*
X113238888Y-114262000D01*
X113205671Y-114260368D01*
X113172774Y-114255488D01*
X113140514Y-114247408D01*
X113109201Y-114236204D01*
X113079137Y-114221985D01*
X113050612Y-114204887D01*
X113023900Y-114185076D01*
X112999258Y-114162742D01*
X112976924Y-114138100D01*
X112957113Y-114111388D01*
X112940015Y-114082863D01*
X112925796Y-114052799D01*
X112914592Y-114021486D01*
X112906512Y-113989226D01*
X112901632Y-113956329D01*
X112900000Y-113923112D01*
X112900000Y-113075888D01*
X112901632Y-113042671D01*
X112906512Y-113009774D01*
X112914592Y-112977514D01*
X112925796Y-112946201D01*
X112940015Y-112916137D01*
X112957113Y-112887612D01*
X112976924Y-112860900D01*
X112999258Y-112836258D01*
X113023900Y-112813924D01*
X113050612Y-112794113D01*
X113079137Y-112777015D01*
X113109201Y-112762796D01*
X113140514Y-112751592D01*
X113172774Y-112743512D01*
X113205671Y-112738632D01*
X113238888Y-112737000D01*
X116361112Y-112737000D01*
X116394329Y-112738632D01*
X116394329Y-112738632D01*
G37*
D17*
X114800000Y-113499500D03*
D12*
G36*
X116394329Y-108463632D02*
X116427226Y-108468512D01*
X116459486Y-108476592D01*
X116490799Y-108487796D01*
X116520863Y-108502015D01*
X116549388Y-108519113D01*
X116576100Y-108538924D01*
X116600742Y-108561258D01*
X116623076Y-108585900D01*
X116642887Y-108612612D01*
X116659985Y-108641137D01*
X116674204Y-108671201D01*
X116685408Y-108702514D01*
X116693488Y-108734774D01*
X116698368Y-108767671D01*
X116700000Y-108800888D01*
X116700000Y-109648112D01*
X116698368Y-109681329D01*
X116693488Y-109714226D01*
X116685408Y-109746486D01*
X116674204Y-109777799D01*
X116659985Y-109807863D01*
X116642887Y-109836388D01*
X116623076Y-109863100D01*
X116600742Y-109887742D01*
X116576100Y-109910076D01*
X116549388Y-109929887D01*
X116520863Y-109946985D01*
X116490799Y-109961204D01*
X116459486Y-109972408D01*
X116427226Y-109980488D01*
X116394329Y-109985368D01*
X116361112Y-109987000D01*
X113238888Y-109987000D01*
X113205671Y-109985368D01*
X113172774Y-109980488D01*
X113140514Y-109972408D01*
X113109201Y-109961204D01*
X113079137Y-109946985D01*
X113050612Y-109929887D01*
X113023900Y-109910076D01*
X112999258Y-109887742D01*
X112976924Y-109863100D01*
X112957113Y-109836388D01*
X112940015Y-109807863D01*
X112925796Y-109777799D01*
X112914592Y-109746486D01*
X112906512Y-109714226D01*
X112901632Y-109681329D01*
X112900000Y-109648112D01*
X112900000Y-108800888D01*
X112901632Y-108767671D01*
X112906512Y-108734774D01*
X112914592Y-108702514D01*
X112925796Y-108671201D01*
X112940015Y-108641137D01*
X112957113Y-108612612D01*
X112976924Y-108585900D01*
X112999258Y-108561258D01*
X113023900Y-108538924D01*
X113050612Y-108519113D01*
X113079137Y-108502015D01*
X113109201Y-108487796D01*
X113140514Y-108476592D01*
X113172774Y-108468512D01*
X113205671Y-108463632D01*
X113238888Y-108462000D01*
X116361112Y-108462000D01*
X116394329Y-108463632D01*
X116394329Y-108463632D01*
G37*
D17*
X114800000Y-109224500D03*
G04 #@! TD*
D12*
G04 #@! TO.C,RV1*
G36*
X160427346Y-80976589D02*
X160459380Y-80981341D01*
X160490794Y-80989210D01*
X160521286Y-81000120D01*
X160550561Y-81013966D01*
X160578338Y-81030615D01*
X160604350Y-81049907D01*
X160628345Y-81071655D01*
X160650093Y-81095650D01*
X160669385Y-81121662D01*
X160686034Y-81149439D01*
X160699880Y-81178714D01*
X160710790Y-81209206D01*
X160718659Y-81240620D01*
X160723411Y-81272654D01*
X160725000Y-81305000D01*
X160725000Y-82295000D01*
X160723411Y-82327346D01*
X160718659Y-82359380D01*
X160710790Y-82390794D01*
X160699880Y-82421286D01*
X160686034Y-82450561D01*
X160669385Y-82478338D01*
X160650093Y-82504350D01*
X160628345Y-82528345D01*
X160604350Y-82550093D01*
X160578338Y-82569385D01*
X160550561Y-82586034D01*
X160521286Y-82599880D01*
X160490794Y-82610790D01*
X160459380Y-82618659D01*
X160427346Y-82623411D01*
X160395000Y-82625000D01*
X158005000Y-82625000D01*
X157972654Y-82623411D01*
X157940620Y-82618659D01*
X157909206Y-82610790D01*
X157878714Y-82599880D01*
X157849439Y-82586034D01*
X157821662Y-82569385D01*
X157795650Y-82550093D01*
X157771655Y-82528345D01*
X157749907Y-82504350D01*
X157730615Y-82478338D01*
X157713966Y-82450561D01*
X157700120Y-82421286D01*
X157689210Y-82390794D01*
X157681341Y-82359380D01*
X157676589Y-82327346D01*
X157675000Y-82295000D01*
X157675000Y-81305000D01*
X157676589Y-81272654D01*
X157681341Y-81240620D01*
X157689210Y-81209206D01*
X157700120Y-81178714D01*
X157713966Y-81149439D01*
X157730615Y-81121662D01*
X157749907Y-81095650D01*
X157771655Y-81071655D01*
X157795650Y-81049907D01*
X157821662Y-81030615D01*
X157849439Y-81013966D01*
X157878714Y-81000120D01*
X157909206Y-80989210D01*
X157940620Y-80981341D01*
X157972654Y-80976589D01*
X158005000Y-80975000D01*
X160395000Y-80975000D01*
X160427346Y-80976589D01*
X160427346Y-80976589D01*
G37*
D13*
X159200000Y-81800000D03*
D12*
G36*
X160427346Y-78176589D02*
X160459380Y-78181341D01*
X160490794Y-78189210D01*
X160521286Y-78200120D01*
X160550561Y-78213966D01*
X160578338Y-78230615D01*
X160604350Y-78249907D01*
X160628345Y-78271655D01*
X160650093Y-78295650D01*
X160669385Y-78321662D01*
X160686034Y-78349439D01*
X160699880Y-78378714D01*
X160710790Y-78409206D01*
X160718659Y-78440620D01*
X160723411Y-78472654D01*
X160725000Y-78505000D01*
X160725000Y-79495000D01*
X160723411Y-79527346D01*
X160718659Y-79559380D01*
X160710790Y-79590794D01*
X160699880Y-79621286D01*
X160686034Y-79650561D01*
X160669385Y-79678338D01*
X160650093Y-79704350D01*
X160628345Y-79728345D01*
X160604350Y-79750093D01*
X160578338Y-79769385D01*
X160550561Y-79786034D01*
X160521286Y-79799880D01*
X160490794Y-79810790D01*
X160459380Y-79818659D01*
X160427346Y-79823411D01*
X160395000Y-79825000D01*
X158005000Y-79825000D01*
X157972654Y-79823411D01*
X157940620Y-79818659D01*
X157909206Y-79810790D01*
X157878714Y-79799880D01*
X157849439Y-79786034D01*
X157821662Y-79769385D01*
X157795650Y-79750093D01*
X157771655Y-79728345D01*
X157749907Y-79704350D01*
X157730615Y-79678338D01*
X157713966Y-79650561D01*
X157700120Y-79621286D01*
X157689210Y-79590794D01*
X157681341Y-79559380D01*
X157676589Y-79527346D01*
X157675000Y-79495000D01*
X157675000Y-78505000D01*
X157676589Y-78472654D01*
X157681341Y-78440620D01*
X157689210Y-78409206D01*
X157700120Y-78378714D01*
X157713966Y-78349439D01*
X157730615Y-78321662D01*
X157749907Y-78295650D01*
X157771655Y-78271655D01*
X157795650Y-78249907D01*
X157821662Y-78230615D01*
X157849439Y-78213966D01*
X157878714Y-78200120D01*
X157909206Y-78189210D01*
X157940620Y-78181341D01*
X157972654Y-78176589D01*
X158005000Y-78175000D01*
X160395000Y-78175000D01*
X160427346Y-78176589D01*
X160427346Y-78176589D01*
G37*
D13*
X159200000Y-79000000D03*
G04 #@! TD*
D12*
G04 #@! TO.C,RV2*
G36*
X161327346Y-98376589D02*
X161359380Y-98381341D01*
X161390794Y-98389210D01*
X161421286Y-98400120D01*
X161450561Y-98413966D01*
X161478338Y-98430615D01*
X161504350Y-98449907D01*
X161528345Y-98471655D01*
X161550093Y-98495650D01*
X161569385Y-98521662D01*
X161586034Y-98549439D01*
X161599880Y-98578714D01*
X161610790Y-98609206D01*
X161618659Y-98640620D01*
X161623411Y-98672654D01*
X161625000Y-98705000D01*
X161625000Y-99695000D01*
X161623411Y-99727346D01*
X161618659Y-99759380D01*
X161610790Y-99790794D01*
X161599880Y-99821286D01*
X161586034Y-99850561D01*
X161569385Y-99878338D01*
X161550093Y-99904350D01*
X161528345Y-99928345D01*
X161504350Y-99950093D01*
X161478338Y-99969385D01*
X161450561Y-99986034D01*
X161421286Y-99999880D01*
X161390794Y-100010790D01*
X161359380Y-100018659D01*
X161327346Y-100023411D01*
X161295000Y-100025000D01*
X158905000Y-100025000D01*
X158872654Y-100023411D01*
X158840620Y-100018659D01*
X158809206Y-100010790D01*
X158778714Y-99999880D01*
X158749439Y-99986034D01*
X158721662Y-99969385D01*
X158695650Y-99950093D01*
X158671655Y-99928345D01*
X158649907Y-99904350D01*
X158630615Y-99878338D01*
X158613966Y-99850561D01*
X158600120Y-99821286D01*
X158589210Y-99790794D01*
X158581341Y-99759380D01*
X158576589Y-99727346D01*
X158575000Y-99695000D01*
X158575000Y-98705000D01*
X158576589Y-98672654D01*
X158581341Y-98640620D01*
X158589210Y-98609206D01*
X158600120Y-98578714D01*
X158613966Y-98549439D01*
X158630615Y-98521662D01*
X158649907Y-98495650D01*
X158671655Y-98471655D01*
X158695650Y-98449907D01*
X158721662Y-98430615D01*
X158749439Y-98413966D01*
X158778714Y-98400120D01*
X158809206Y-98389210D01*
X158840620Y-98381341D01*
X158872654Y-98376589D01*
X158905000Y-98375000D01*
X161295000Y-98375000D01*
X161327346Y-98376589D01*
X161327346Y-98376589D01*
G37*
D13*
X160100000Y-99200000D03*
D12*
G36*
X161327346Y-95576589D02*
X161359380Y-95581341D01*
X161390794Y-95589210D01*
X161421286Y-95600120D01*
X161450561Y-95613966D01*
X161478338Y-95630615D01*
X161504350Y-95649907D01*
X161528345Y-95671655D01*
X161550093Y-95695650D01*
X161569385Y-95721662D01*
X161586034Y-95749439D01*
X161599880Y-95778714D01*
X161610790Y-95809206D01*
X161618659Y-95840620D01*
X161623411Y-95872654D01*
X161625000Y-95905000D01*
X161625000Y-96895000D01*
X161623411Y-96927346D01*
X161618659Y-96959380D01*
X161610790Y-96990794D01*
X161599880Y-97021286D01*
X161586034Y-97050561D01*
X161569385Y-97078338D01*
X161550093Y-97104350D01*
X161528345Y-97128345D01*
X161504350Y-97150093D01*
X161478338Y-97169385D01*
X161450561Y-97186034D01*
X161421286Y-97199880D01*
X161390794Y-97210790D01*
X161359380Y-97218659D01*
X161327346Y-97223411D01*
X161295000Y-97225000D01*
X158905000Y-97225000D01*
X158872654Y-97223411D01*
X158840620Y-97218659D01*
X158809206Y-97210790D01*
X158778714Y-97199880D01*
X158749439Y-97186034D01*
X158721662Y-97169385D01*
X158695650Y-97150093D01*
X158671655Y-97128345D01*
X158649907Y-97104350D01*
X158630615Y-97078338D01*
X158613966Y-97050561D01*
X158600120Y-97021286D01*
X158589210Y-96990794D01*
X158581341Y-96959380D01*
X158576589Y-96927346D01*
X158575000Y-96895000D01*
X158575000Y-95905000D01*
X158576589Y-95872654D01*
X158581341Y-95840620D01*
X158589210Y-95809206D01*
X158600120Y-95778714D01*
X158613966Y-95749439D01*
X158630615Y-95721662D01*
X158649907Y-95695650D01*
X158671655Y-95671655D01*
X158695650Y-95649907D01*
X158721662Y-95630615D01*
X158749439Y-95613966D01*
X158778714Y-95600120D01*
X158809206Y-95589210D01*
X158840620Y-95581341D01*
X158872654Y-95576589D01*
X158905000Y-95575000D01*
X161295000Y-95575000D01*
X161327346Y-95576589D01*
X161327346Y-95576589D01*
G37*
D13*
X160100000Y-96400000D03*
G04 #@! TD*
D12*
G04 #@! TO.C,RV3*
G36*
X122727346Y-131676589D02*
X122759380Y-131681341D01*
X122790794Y-131689210D01*
X122821286Y-131700120D01*
X122850561Y-131713966D01*
X122878338Y-131730615D01*
X122904350Y-131749907D01*
X122928345Y-131771655D01*
X122950093Y-131795650D01*
X122969385Y-131821662D01*
X122986034Y-131849439D01*
X122999880Y-131878714D01*
X123010790Y-131909206D01*
X123018659Y-131940620D01*
X123023411Y-131972654D01*
X123025000Y-132005000D01*
X123025000Y-132995000D01*
X123023411Y-133027346D01*
X123018659Y-133059380D01*
X123010790Y-133090794D01*
X122999880Y-133121286D01*
X122986034Y-133150561D01*
X122969385Y-133178338D01*
X122950093Y-133204350D01*
X122928345Y-133228345D01*
X122904350Y-133250093D01*
X122878338Y-133269385D01*
X122850561Y-133286034D01*
X122821286Y-133299880D01*
X122790794Y-133310790D01*
X122759380Y-133318659D01*
X122727346Y-133323411D01*
X122695000Y-133325000D01*
X120305000Y-133325000D01*
X120272654Y-133323411D01*
X120240620Y-133318659D01*
X120209206Y-133310790D01*
X120178714Y-133299880D01*
X120149439Y-133286034D01*
X120121662Y-133269385D01*
X120095650Y-133250093D01*
X120071655Y-133228345D01*
X120049907Y-133204350D01*
X120030615Y-133178338D01*
X120013966Y-133150561D01*
X120000120Y-133121286D01*
X119989210Y-133090794D01*
X119981341Y-133059380D01*
X119976589Y-133027346D01*
X119975000Y-132995000D01*
X119975000Y-132005000D01*
X119976589Y-131972654D01*
X119981341Y-131940620D01*
X119989210Y-131909206D01*
X120000120Y-131878714D01*
X120013966Y-131849439D01*
X120030615Y-131821662D01*
X120049907Y-131795650D01*
X120071655Y-131771655D01*
X120095650Y-131749907D01*
X120121662Y-131730615D01*
X120149439Y-131713966D01*
X120178714Y-131700120D01*
X120209206Y-131689210D01*
X120240620Y-131681341D01*
X120272654Y-131676589D01*
X120305000Y-131675000D01*
X122695000Y-131675000D01*
X122727346Y-131676589D01*
X122727346Y-131676589D01*
G37*
D13*
X121500000Y-132500000D03*
D12*
G36*
X122727346Y-134476589D02*
X122759380Y-134481341D01*
X122790794Y-134489210D01*
X122821286Y-134500120D01*
X122850561Y-134513966D01*
X122878338Y-134530615D01*
X122904350Y-134549907D01*
X122928345Y-134571655D01*
X122950093Y-134595650D01*
X122969385Y-134621662D01*
X122986034Y-134649439D01*
X122999880Y-134678714D01*
X123010790Y-134709206D01*
X123018659Y-134740620D01*
X123023411Y-134772654D01*
X123025000Y-134805000D01*
X123025000Y-135795000D01*
X123023411Y-135827346D01*
X123018659Y-135859380D01*
X123010790Y-135890794D01*
X122999880Y-135921286D01*
X122986034Y-135950561D01*
X122969385Y-135978338D01*
X122950093Y-136004350D01*
X122928345Y-136028345D01*
X122904350Y-136050093D01*
X122878338Y-136069385D01*
X122850561Y-136086034D01*
X122821286Y-136099880D01*
X122790794Y-136110790D01*
X122759380Y-136118659D01*
X122727346Y-136123411D01*
X122695000Y-136125000D01*
X120305000Y-136125000D01*
X120272654Y-136123411D01*
X120240620Y-136118659D01*
X120209206Y-136110790D01*
X120178714Y-136099880D01*
X120149439Y-136086034D01*
X120121662Y-136069385D01*
X120095650Y-136050093D01*
X120071655Y-136028345D01*
X120049907Y-136004350D01*
X120030615Y-135978338D01*
X120013966Y-135950561D01*
X120000120Y-135921286D01*
X119989210Y-135890794D01*
X119981341Y-135859380D01*
X119976589Y-135827346D01*
X119975000Y-135795000D01*
X119975000Y-134805000D01*
X119976589Y-134772654D01*
X119981341Y-134740620D01*
X119989210Y-134709206D01*
X120000120Y-134678714D01*
X120013966Y-134649439D01*
X120030615Y-134621662D01*
X120049907Y-134595650D01*
X120071655Y-134571655D01*
X120095650Y-134549907D01*
X120121662Y-134530615D01*
X120149439Y-134513966D01*
X120178714Y-134500120D01*
X120209206Y-134489210D01*
X120240620Y-134481341D01*
X120272654Y-134476589D01*
X120305000Y-134475000D01*
X122695000Y-134475000D01*
X122727346Y-134476589D01*
X122727346Y-134476589D01*
G37*
D13*
X121500000Y-135300000D03*
G04 #@! TD*
D12*
G04 #@! TO.C,RV4*
G36*
X116027346Y-134376589D02*
X116059380Y-134381341D01*
X116090794Y-134389210D01*
X116121286Y-134400120D01*
X116150561Y-134413966D01*
X116178338Y-134430615D01*
X116204350Y-134449907D01*
X116228345Y-134471655D01*
X116250093Y-134495650D01*
X116269385Y-134521662D01*
X116286034Y-134549439D01*
X116299880Y-134578714D01*
X116310790Y-134609206D01*
X116318659Y-134640620D01*
X116323411Y-134672654D01*
X116325000Y-134705000D01*
X116325000Y-135695000D01*
X116323411Y-135727346D01*
X116318659Y-135759380D01*
X116310790Y-135790794D01*
X116299880Y-135821286D01*
X116286034Y-135850561D01*
X116269385Y-135878338D01*
X116250093Y-135904350D01*
X116228345Y-135928345D01*
X116204350Y-135950093D01*
X116178338Y-135969385D01*
X116150561Y-135986034D01*
X116121286Y-135999880D01*
X116090794Y-136010790D01*
X116059380Y-136018659D01*
X116027346Y-136023411D01*
X115995000Y-136025000D01*
X113605000Y-136025000D01*
X113572654Y-136023411D01*
X113540620Y-136018659D01*
X113509206Y-136010790D01*
X113478714Y-135999880D01*
X113449439Y-135986034D01*
X113421662Y-135969385D01*
X113395650Y-135950093D01*
X113371655Y-135928345D01*
X113349907Y-135904350D01*
X113330615Y-135878338D01*
X113313966Y-135850561D01*
X113300120Y-135821286D01*
X113289210Y-135790794D01*
X113281341Y-135759380D01*
X113276589Y-135727346D01*
X113275000Y-135695000D01*
X113275000Y-134705000D01*
X113276589Y-134672654D01*
X113281341Y-134640620D01*
X113289210Y-134609206D01*
X113300120Y-134578714D01*
X113313966Y-134549439D01*
X113330615Y-134521662D01*
X113349907Y-134495650D01*
X113371655Y-134471655D01*
X113395650Y-134449907D01*
X113421662Y-134430615D01*
X113449439Y-134413966D01*
X113478714Y-134400120D01*
X113509206Y-134389210D01*
X113540620Y-134381341D01*
X113572654Y-134376589D01*
X113605000Y-134375000D01*
X115995000Y-134375000D01*
X116027346Y-134376589D01*
X116027346Y-134376589D01*
G37*
D13*
X114800000Y-135200000D03*
D12*
G36*
X116027346Y-131576589D02*
X116059380Y-131581341D01*
X116090794Y-131589210D01*
X116121286Y-131600120D01*
X116150561Y-131613966D01*
X116178338Y-131630615D01*
X116204350Y-131649907D01*
X116228345Y-131671655D01*
X116250093Y-131695650D01*
X116269385Y-131721662D01*
X116286034Y-131749439D01*
X116299880Y-131778714D01*
X116310790Y-131809206D01*
X116318659Y-131840620D01*
X116323411Y-131872654D01*
X116325000Y-131905000D01*
X116325000Y-132895000D01*
X116323411Y-132927346D01*
X116318659Y-132959380D01*
X116310790Y-132990794D01*
X116299880Y-133021286D01*
X116286034Y-133050561D01*
X116269385Y-133078338D01*
X116250093Y-133104350D01*
X116228345Y-133128345D01*
X116204350Y-133150093D01*
X116178338Y-133169385D01*
X116150561Y-133186034D01*
X116121286Y-133199880D01*
X116090794Y-133210790D01*
X116059380Y-133218659D01*
X116027346Y-133223411D01*
X115995000Y-133225000D01*
X113605000Y-133225000D01*
X113572654Y-133223411D01*
X113540620Y-133218659D01*
X113509206Y-133210790D01*
X113478714Y-133199880D01*
X113449439Y-133186034D01*
X113421662Y-133169385D01*
X113395650Y-133150093D01*
X113371655Y-133128345D01*
X113349907Y-133104350D01*
X113330615Y-133078338D01*
X113313966Y-133050561D01*
X113300120Y-133021286D01*
X113289210Y-132990794D01*
X113281341Y-132959380D01*
X113276589Y-132927346D01*
X113275000Y-132895000D01*
X113275000Y-131905000D01*
X113276589Y-131872654D01*
X113281341Y-131840620D01*
X113289210Y-131809206D01*
X113300120Y-131778714D01*
X113313966Y-131749439D01*
X113330615Y-131721662D01*
X113349907Y-131695650D01*
X113371655Y-131671655D01*
X113395650Y-131649907D01*
X113421662Y-131630615D01*
X113449439Y-131613966D01*
X113478714Y-131600120D01*
X113509206Y-131589210D01*
X113540620Y-131581341D01*
X113572654Y-131576589D01*
X113605000Y-131575000D01*
X115995000Y-131575000D01*
X116027346Y-131576589D01*
X116027346Y-131576589D01*
G37*
D13*
X114800000Y-132400000D03*
G04 #@! TD*
D20*
G04 #@! TO.C,U1*
X137400000Y-51900000D03*
X137400000Y-52400000D03*
X137400000Y-52900000D03*
X137400000Y-53400000D03*
X137400000Y-53900000D03*
X137400000Y-54400000D03*
X137400000Y-54900000D03*
X137400000Y-55400000D03*
X137400000Y-55900000D03*
X137400000Y-56400000D03*
X137400000Y-56900000D03*
X137400000Y-57400000D03*
X137400000Y-57900000D03*
X137400000Y-58400000D03*
X137400000Y-58900000D03*
X137400000Y-59400000D03*
X137400000Y-59900000D03*
X137400000Y-60400000D03*
X137400000Y-60900000D03*
X137400000Y-61400000D03*
X137400000Y-61900000D03*
X137400000Y-62400000D03*
X137400000Y-62900000D03*
X137400000Y-63400000D03*
X137400000Y-63900000D03*
D21*
X139300000Y-65800000D03*
X139800000Y-65800000D03*
X140300000Y-65800000D03*
X140800000Y-65800000D03*
X141300000Y-65800000D03*
X141800000Y-65800000D03*
X142300000Y-65800000D03*
X142800000Y-65800000D03*
X143300000Y-65800000D03*
X143800000Y-65800000D03*
X144300000Y-65800000D03*
X144800000Y-65800000D03*
X145300000Y-65800000D03*
X145800000Y-65800000D03*
X146300000Y-65800000D03*
X146800000Y-65800000D03*
X147300000Y-65800000D03*
X147800000Y-65800000D03*
X148300000Y-65800000D03*
X148800000Y-65800000D03*
X149300000Y-65800000D03*
X149800000Y-65800000D03*
X150300000Y-65800000D03*
X150800000Y-65800000D03*
X151300000Y-65800000D03*
D20*
X153200000Y-63900000D03*
X153200000Y-63400000D03*
X153200000Y-62900000D03*
X153200000Y-62400000D03*
X153200000Y-61900000D03*
X153200000Y-61400000D03*
X153200000Y-60900000D03*
X153200000Y-60400000D03*
X153200000Y-59900000D03*
X153200000Y-59400000D03*
X153200000Y-58900000D03*
X153200000Y-58400000D03*
X153200000Y-57900000D03*
X153200000Y-57400000D03*
X153200000Y-56900000D03*
X153200000Y-56400000D03*
X153200000Y-55900000D03*
X153200000Y-55400000D03*
X153200000Y-54900000D03*
X153200000Y-54400000D03*
X153200000Y-53900000D03*
X153200000Y-53400000D03*
X153200000Y-52900000D03*
X153200000Y-52400000D03*
X153200000Y-51900000D03*
D21*
X151300000Y-50000000D03*
X150800000Y-50000000D03*
X150300000Y-50000000D03*
X149800000Y-50000000D03*
X149300000Y-50000000D03*
X148800000Y-50000000D03*
X148300000Y-50000000D03*
X147800000Y-50000000D03*
X147300000Y-50000000D03*
X146800000Y-50000000D03*
X146300000Y-50000000D03*
X145800000Y-50000000D03*
X145300000Y-50000000D03*
X144800000Y-50000000D03*
X144300000Y-50000000D03*
X143800000Y-50000000D03*
X143300000Y-50000000D03*
X142800000Y-50000000D03*
X142300000Y-50000000D03*
X141800000Y-50000000D03*
X141300000Y-50000000D03*
X140800000Y-50000000D03*
X140300000Y-50000000D03*
X139800000Y-50000000D03*
X139300000Y-50000000D03*
G04 #@! TD*
D22*
G04 #@! TO.C,U2*
X114700000Y-63100000D03*
D23*
X117240000Y-63100000D03*
X119780000Y-63100000D03*
G04 #@! TD*
D24*
G04 #@! TO.C,U3*
X134500000Y-85630000D03*
X134500000Y-86900000D03*
X134500000Y-88170000D03*
X134500000Y-89440000D03*
X129100000Y-89440000D03*
X129100000Y-88170000D03*
X129100000Y-86900000D03*
X129100000Y-85630000D03*
G04 #@! TD*
D25*
G04 #@! TO.C,U4*
X119505000Y-99700000D03*
X118235000Y-99700000D03*
X116965000Y-99700000D03*
X115695000Y-99700000D03*
X115695000Y-105100000D03*
X116965000Y-105100000D03*
X118235000Y-105100000D03*
X119505000Y-105100000D03*
G04 #@! TD*
D26*
G04 #@! TO.C,J1*
X95500000Y-47700000D03*
X95500000Y-60400000D03*
D27*
X99818000Y-50494000D03*
X98040000Y-51510000D03*
X99818000Y-52526000D03*
X98040000Y-53542000D03*
X99818000Y-54558000D03*
X98040000Y-55574000D03*
X99818000Y-56590000D03*
X98040000Y-57606000D03*
G04 #@! TD*
D28*
G04 #@! TO.C,H1*
X195800000Y-42400000D03*
G04 #@! TD*
G04 #@! TO.C,H2*
X186400000Y-147700000D03*
G04 #@! TD*
G04 #@! TO.C,H3*
X109500000Y-147700000D03*
G04 #@! TD*
D29*
G04 #@! TO.C,J4*
X96000000Y-80300000D03*
D30*
X96000000Y-75300000D03*
G04 #@! TD*
G04 #@! TO.C,J5*
X95700000Y-94100000D03*
D29*
X95700000Y-99100000D03*
G04 #@! TD*
D30*
G04 #@! TO.C,J6*
X95500000Y-113500000D03*
D29*
X95500000Y-118500000D03*
G04 #@! TD*
G04 #@! TO.C,J7*
X95900000Y-136300000D03*
D30*
X95900000Y-131300000D03*
G04 #@! TD*
D29*
G04 #@! TO.C,J8*
X182400000Y-90000000D03*
X182400000Y-85000000D03*
X182400000Y-95000000D03*
D30*
X182400000Y-100000000D03*
G04 #@! TD*
G04 #@! TO.C,J9*
X181700000Y-69300000D03*
D29*
X181700000Y-64300000D03*
X181700000Y-54300000D03*
X181700000Y-59300000D03*
G04 #@! TD*
D30*
G04 #@! TO.C,J10*
X182400000Y-135300000D03*
D29*
X182400000Y-130300000D03*
X182400000Y-125300000D03*
G04 #@! TD*
D31*
G04 #@! TO.C,SW1*
X142610000Y-37965000D03*
X160390000Y-31235000D03*
X145150000Y-37965000D03*
X157850000Y-31235000D03*
X147690000Y-37965000D03*
X155310000Y-31235000D03*
X150230000Y-37965000D03*
X152770000Y-31235000D03*
X152770000Y-37965000D03*
X150230000Y-31235000D03*
X155310000Y-37965000D03*
X147690000Y-31235000D03*
X157850000Y-37965000D03*
X145150000Y-31235000D03*
X160390000Y-37965000D03*
X142610000Y-31235000D03*
G04 #@! TD*
D28*
G04 #@! TO.C,M4*
X97400000Y-35300000D03*
G04 #@! TD*
M02*
