G04 #@! TF.GenerationSoftware,KiCad,Pcbnew,5.0.1-33cea8e~66~ubuntu18.04.1*
G04 #@! TF.CreationDate,2018-10-17T12:33:42-04:00*
G04 #@! TF.ProjectId,BackPanel,4261636B50616E656C2E6B696361645F,rev?*
G04 #@! TF.SameCoordinates,Original*
G04 #@! TF.FileFunction,Paste,Top*
G04 #@! TF.FilePolarity,Positive*
%FSLAX46Y46*%
G04 Gerber Fmt 4.6, Leading zero omitted, Abs format (unit mm)*
G04 Created by KiCad (PCBNEW 5.0.1-33cea8e~66~ubuntu18.04.1) date Wed 17 Oct 2018 12:33:42 PM EDT*
%MOMM*%
%LPD*%
G01*
G04 APERTURE LIST*
%ADD10C,0.100000*%
%ADD11C,1.250000*%
%ADD12C,1.125000*%
%ADD13R,0.900000X0.800000*%
%ADD14R,0.800000X0.900000*%
%ADD15R,0.600000X1.550000*%
%ADD16R,1.550000X0.600000*%
%ADD17R,1.400000X0.180000*%
%ADD18R,0.180000X1.400000*%
%ADD19R,2.500000X4.000000*%
%ADD20R,1.600000X3.500000*%
%ADD21R,3.500000X1.600000*%
%ADD22R,1.120000X2.440000*%
%ADD23C,3.200000*%
G04 APERTURE END LIST*
D10*
G04 #@! TO.C,C11*
G36*
X125249504Y-103076204D02*
X125273773Y-103079804D01*
X125297571Y-103085765D01*
X125320671Y-103094030D01*
X125342849Y-103104520D01*
X125363893Y-103117133D01*
X125383598Y-103131747D01*
X125401777Y-103148223D01*
X125418253Y-103166402D01*
X125432867Y-103186107D01*
X125445480Y-103207151D01*
X125455970Y-103229329D01*
X125464235Y-103252429D01*
X125470196Y-103276227D01*
X125473796Y-103300496D01*
X125475000Y-103325000D01*
X125475000Y-104075000D01*
X125473796Y-104099504D01*
X125470196Y-104123773D01*
X125464235Y-104147571D01*
X125455970Y-104170671D01*
X125445480Y-104192849D01*
X125432867Y-104213893D01*
X125418253Y-104233598D01*
X125401777Y-104251777D01*
X125383598Y-104268253D01*
X125363893Y-104282867D01*
X125342849Y-104295480D01*
X125320671Y-104305970D01*
X125297571Y-104314235D01*
X125273773Y-104320196D01*
X125249504Y-104323796D01*
X125225000Y-104325000D01*
X123975000Y-104325000D01*
X123950496Y-104323796D01*
X123926227Y-104320196D01*
X123902429Y-104314235D01*
X123879329Y-104305970D01*
X123857151Y-104295480D01*
X123836107Y-104282867D01*
X123816402Y-104268253D01*
X123798223Y-104251777D01*
X123781747Y-104233598D01*
X123767133Y-104213893D01*
X123754520Y-104192849D01*
X123744030Y-104170671D01*
X123735765Y-104147571D01*
X123729804Y-104123773D01*
X123726204Y-104099504D01*
X123725000Y-104075000D01*
X123725000Y-103325000D01*
X123726204Y-103300496D01*
X123729804Y-103276227D01*
X123735765Y-103252429D01*
X123744030Y-103229329D01*
X123754520Y-103207151D01*
X123767133Y-103186107D01*
X123781747Y-103166402D01*
X123798223Y-103148223D01*
X123816402Y-103131747D01*
X123836107Y-103117133D01*
X123857151Y-103104520D01*
X123879329Y-103094030D01*
X123902429Y-103085765D01*
X123926227Y-103079804D01*
X123950496Y-103076204D01*
X123975000Y-103075000D01*
X125225000Y-103075000D01*
X125249504Y-103076204D01*
X125249504Y-103076204D01*
G37*
D11*
X124600000Y-103700000D03*
D10*
G36*
X125249504Y-100276204D02*
X125273773Y-100279804D01*
X125297571Y-100285765D01*
X125320671Y-100294030D01*
X125342849Y-100304520D01*
X125363893Y-100317133D01*
X125383598Y-100331747D01*
X125401777Y-100348223D01*
X125418253Y-100366402D01*
X125432867Y-100386107D01*
X125445480Y-100407151D01*
X125455970Y-100429329D01*
X125464235Y-100452429D01*
X125470196Y-100476227D01*
X125473796Y-100500496D01*
X125475000Y-100525000D01*
X125475000Y-101275000D01*
X125473796Y-101299504D01*
X125470196Y-101323773D01*
X125464235Y-101347571D01*
X125455970Y-101370671D01*
X125445480Y-101392849D01*
X125432867Y-101413893D01*
X125418253Y-101433598D01*
X125401777Y-101451777D01*
X125383598Y-101468253D01*
X125363893Y-101482867D01*
X125342849Y-101495480D01*
X125320671Y-101505970D01*
X125297571Y-101514235D01*
X125273773Y-101520196D01*
X125249504Y-101523796D01*
X125225000Y-101525000D01*
X123975000Y-101525000D01*
X123950496Y-101523796D01*
X123926227Y-101520196D01*
X123902429Y-101514235D01*
X123879329Y-101505970D01*
X123857151Y-101495480D01*
X123836107Y-101482867D01*
X123816402Y-101468253D01*
X123798223Y-101451777D01*
X123781747Y-101433598D01*
X123767133Y-101413893D01*
X123754520Y-101392849D01*
X123744030Y-101370671D01*
X123735765Y-101347571D01*
X123729804Y-101323773D01*
X123726204Y-101299504D01*
X123725000Y-101275000D01*
X123725000Y-100525000D01*
X123726204Y-100500496D01*
X123729804Y-100476227D01*
X123735765Y-100452429D01*
X123744030Y-100429329D01*
X123754520Y-100407151D01*
X123767133Y-100386107D01*
X123781747Y-100366402D01*
X123798223Y-100348223D01*
X123816402Y-100331747D01*
X123836107Y-100317133D01*
X123857151Y-100304520D01*
X123879329Y-100294030D01*
X123902429Y-100285765D01*
X123926227Y-100279804D01*
X123950496Y-100276204D01*
X123975000Y-100275000D01*
X125225000Y-100275000D01*
X125249504Y-100276204D01*
X125249504Y-100276204D01*
G37*
D11*
X124600000Y-100900000D03*
G04 #@! TD*
D10*
G04 #@! TO.C,F1*
G36*
X159312505Y-84601204D02*
X159336773Y-84604804D01*
X159360572Y-84610765D01*
X159383671Y-84619030D01*
X159405850Y-84629520D01*
X159426893Y-84642132D01*
X159446599Y-84656747D01*
X159464777Y-84673223D01*
X159481253Y-84691401D01*
X159495868Y-84711107D01*
X159508480Y-84732150D01*
X159518970Y-84754329D01*
X159527235Y-84777428D01*
X159533196Y-84801227D01*
X159536796Y-84825495D01*
X159538000Y-84849999D01*
X159538000Y-87750001D01*
X159536796Y-87774505D01*
X159533196Y-87798773D01*
X159527235Y-87822572D01*
X159518970Y-87845671D01*
X159508480Y-87867850D01*
X159495868Y-87888893D01*
X159481253Y-87908599D01*
X159464777Y-87926777D01*
X159446599Y-87943253D01*
X159426893Y-87957868D01*
X159405850Y-87970480D01*
X159383671Y-87980970D01*
X159360572Y-87989235D01*
X159336773Y-87995196D01*
X159312505Y-87998796D01*
X159288001Y-88000000D01*
X158662999Y-88000000D01*
X158638495Y-87998796D01*
X158614227Y-87995196D01*
X158590428Y-87989235D01*
X158567329Y-87980970D01*
X158545150Y-87970480D01*
X158524107Y-87957868D01*
X158504401Y-87943253D01*
X158486223Y-87926777D01*
X158469747Y-87908599D01*
X158455132Y-87888893D01*
X158442520Y-87867850D01*
X158432030Y-87845671D01*
X158423765Y-87822572D01*
X158417804Y-87798773D01*
X158414204Y-87774505D01*
X158413000Y-87750001D01*
X158413000Y-84849999D01*
X158414204Y-84825495D01*
X158417804Y-84801227D01*
X158423765Y-84777428D01*
X158432030Y-84754329D01*
X158442520Y-84732150D01*
X158455132Y-84711107D01*
X158469747Y-84691401D01*
X158486223Y-84673223D01*
X158504401Y-84656747D01*
X158524107Y-84642132D01*
X158545150Y-84629520D01*
X158567329Y-84619030D01*
X158590428Y-84610765D01*
X158614227Y-84604804D01*
X158638495Y-84601204D01*
X158662999Y-84600000D01*
X159288001Y-84600000D01*
X159312505Y-84601204D01*
X159312505Y-84601204D01*
G37*
D12*
X158975500Y-86300000D03*
D10*
G36*
X155037505Y-84601204D02*
X155061773Y-84604804D01*
X155085572Y-84610765D01*
X155108671Y-84619030D01*
X155130850Y-84629520D01*
X155151893Y-84642132D01*
X155171599Y-84656747D01*
X155189777Y-84673223D01*
X155206253Y-84691401D01*
X155220868Y-84711107D01*
X155233480Y-84732150D01*
X155243970Y-84754329D01*
X155252235Y-84777428D01*
X155258196Y-84801227D01*
X155261796Y-84825495D01*
X155263000Y-84849999D01*
X155263000Y-87750001D01*
X155261796Y-87774505D01*
X155258196Y-87798773D01*
X155252235Y-87822572D01*
X155243970Y-87845671D01*
X155233480Y-87867850D01*
X155220868Y-87888893D01*
X155206253Y-87908599D01*
X155189777Y-87926777D01*
X155171599Y-87943253D01*
X155151893Y-87957868D01*
X155130850Y-87970480D01*
X155108671Y-87980970D01*
X155085572Y-87989235D01*
X155061773Y-87995196D01*
X155037505Y-87998796D01*
X155013001Y-88000000D01*
X154387999Y-88000000D01*
X154363495Y-87998796D01*
X154339227Y-87995196D01*
X154315428Y-87989235D01*
X154292329Y-87980970D01*
X154270150Y-87970480D01*
X154249107Y-87957868D01*
X154229401Y-87943253D01*
X154211223Y-87926777D01*
X154194747Y-87908599D01*
X154180132Y-87888893D01*
X154167520Y-87867850D01*
X154157030Y-87845671D01*
X154148765Y-87822572D01*
X154142804Y-87798773D01*
X154139204Y-87774505D01*
X154138000Y-87750001D01*
X154138000Y-84849999D01*
X154139204Y-84825495D01*
X154142804Y-84801227D01*
X154148765Y-84777428D01*
X154157030Y-84754329D01*
X154167520Y-84732150D01*
X154180132Y-84711107D01*
X154194747Y-84691401D01*
X154211223Y-84673223D01*
X154229401Y-84656747D01*
X154249107Y-84642132D01*
X154270150Y-84629520D01*
X154292329Y-84619030D01*
X154315428Y-84610765D01*
X154339227Y-84604804D01*
X154363495Y-84601204D01*
X154387999Y-84600000D01*
X155013001Y-84600000D01*
X155037505Y-84601204D01*
X155037505Y-84601204D01*
G37*
D12*
X154700500Y-86300000D03*
G04 #@! TD*
D10*
G04 #@! TO.C,C9*
G36*
X132749504Y-61876204D02*
X132773773Y-61879804D01*
X132797571Y-61885765D01*
X132820671Y-61894030D01*
X132842849Y-61904520D01*
X132863893Y-61917133D01*
X132883598Y-61931747D01*
X132901777Y-61948223D01*
X132918253Y-61966402D01*
X132932867Y-61986107D01*
X132945480Y-62007151D01*
X132955970Y-62029329D01*
X132964235Y-62052429D01*
X132970196Y-62076227D01*
X132973796Y-62100496D01*
X132975000Y-62125000D01*
X132975000Y-62875000D01*
X132973796Y-62899504D01*
X132970196Y-62923773D01*
X132964235Y-62947571D01*
X132955970Y-62970671D01*
X132945480Y-62992849D01*
X132932867Y-63013893D01*
X132918253Y-63033598D01*
X132901777Y-63051777D01*
X132883598Y-63068253D01*
X132863893Y-63082867D01*
X132842849Y-63095480D01*
X132820671Y-63105970D01*
X132797571Y-63114235D01*
X132773773Y-63120196D01*
X132749504Y-63123796D01*
X132725000Y-63125000D01*
X131475000Y-63125000D01*
X131450496Y-63123796D01*
X131426227Y-63120196D01*
X131402429Y-63114235D01*
X131379329Y-63105970D01*
X131357151Y-63095480D01*
X131336107Y-63082867D01*
X131316402Y-63068253D01*
X131298223Y-63051777D01*
X131281747Y-63033598D01*
X131267133Y-63013893D01*
X131254520Y-62992849D01*
X131244030Y-62970671D01*
X131235765Y-62947571D01*
X131229804Y-62923773D01*
X131226204Y-62899504D01*
X131225000Y-62875000D01*
X131225000Y-62125000D01*
X131226204Y-62100496D01*
X131229804Y-62076227D01*
X131235765Y-62052429D01*
X131244030Y-62029329D01*
X131254520Y-62007151D01*
X131267133Y-61986107D01*
X131281747Y-61966402D01*
X131298223Y-61948223D01*
X131316402Y-61931747D01*
X131336107Y-61917133D01*
X131357151Y-61904520D01*
X131379329Y-61894030D01*
X131402429Y-61885765D01*
X131426227Y-61879804D01*
X131450496Y-61876204D01*
X131475000Y-61875000D01*
X132725000Y-61875000D01*
X132749504Y-61876204D01*
X132749504Y-61876204D01*
G37*
D11*
X132100000Y-62500000D03*
D10*
G36*
X132749504Y-59076204D02*
X132773773Y-59079804D01*
X132797571Y-59085765D01*
X132820671Y-59094030D01*
X132842849Y-59104520D01*
X132863893Y-59117133D01*
X132883598Y-59131747D01*
X132901777Y-59148223D01*
X132918253Y-59166402D01*
X132932867Y-59186107D01*
X132945480Y-59207151D01*
X132955970Y-59229329D01*
X132964235Y-59252429D01*
X132970196Y-59276227D01*
X132973796Y-59300496D01*
X132975000Y-59325000D01*
X132975000Y-60075000D01*
X132973796Y-60099504D01*
X132970196Y-60123773D01*
X132964235Y-60147571D01*
X132955970Y-60170671D01*
X132945480Y-60192849D01*
X132932867Y-60213893D01*
X132918253Y-60233598D01*
X132901777Y-60251777D01*
X132883598Y-60268253D01*
X132863893Y-60282867D01*
X132842849Y-60295480D01*
X132820671Y-60305970D01*
X132797571Y-60314235D01*
X132773773Y-60320196D01*
X132749504Y-60323796D01*
X132725000Y-60325000D01*
X131475000Y-60325000D01*
X131450496Y-60323796D01*
X131426227Y-60320196D01*
X131402429Y-60314235D01*
X131379329Y-60305970D01*
X131357151Y-60295480D01*
X131336107Y-60282867D01*
X131316402Y-60268253D01*
X131298223Y-60251777D01*
X131281747Y-60233598D01*
X131267133Y-60213893D01*
X131254520Y-60192849D01*
X131244030Y-60170671D01*
X131235765Y-60147571D01*
X131229804Y-60123773D01*
X131226204Y-60099504D01*
X131225000Y-60075000D01*
X131225000Y-59325000D01*
X131226204Y-59300496D01*
X131229804Y-59276227D01*
X131235765Y-59252429D01*
X131244030Y-59229329D01*
X131254520Y-59207151D01*
X131267133Y-59186107D01*
X131281747Y-59166402D01*
X131298223Y-59148223D01*
X131316402Y-59131747D01*
X131336107Y-59117133D01*
X131357151Y-59104520D01*
X131379329Y-59094030D01*
X131402429Y-59085765D01*
X131426227Y-59079804D01*
X131450496Y-59076204D01*
X131475000Y-59075000D01*
X132725000Y-59075000D01*
X132749504Y-59076204D01*
X132749504Y-59076204D01*
G37*
D11*
X132100000Y-59700000D03*
G04 #@! TD*
D10*
G04 #@! TO.C,RV3*
G36*
X122599504Y-131876204D02*
X122623773Y-131879804D01*
X122647571Y-131885765D01*
X122670671Y-131894030D01*
X122692849Y-131904520D01*
X122713893Y-131917133D01*
X122733598Y-131931747D01*
X122751777Y-131948223D01*
X122768253Y-131966402D01*
X122782867Y-131986107D01*
X122795480Y-132007151D01*
X122805970Y-132029329D01*
X122814235Y-132052429D01*
X122820196Y-132076227D01*
X122823796Y-132100496D01*
X122825000Y-132125000D01*
X122825000Y-132875000D01*
X122823796Y-132899504D01*
X122820196Y-132923773D01*
X122814235Y-132947571D01*
X122805970Y-132970671D01*
X122795480Y-132992849D01*
X122782867Y-133013893D01*
X122768253Y-133033598D01*
X122751777Y-133051777D01*
X122733598Y-133068253D01*
X122713893Y-133082867D01*
X122692849Y-133095480D01*
X122670671Y-133105970D01*
X122647571Y-133114235D01*
X122623773Y-133120196D01*
X122599504Y-133123796D01*
X122575000Y-133125000D01*
X120425000Y-133125000D01*
X120400496Y-133123796D01*
X120376227Y-133120196D01*
X120352429Y-133114235D01*
X120329329Y-133105970D01*
X120307151Y-133095480D01*
X120286107Y-133082867D01*
X120266402Y-133068253D01*
X120248223Y-133051777D01*
X120231747Y-133033598D01*
X120217133Y-133013893D01*
X120204520Y-132992849D01*
X120194030Y-132970671D01*
X120185765Y-132947571D01*
X120179804Y-132923773D01*
X120176204Y-132899504D01*
X120175000Y-132875000D01*
X120175000Y-132125000D01*
X120176204Y-132100496D01*
X120179804Y-132076227D01*
X120185765Y-132052429D01*
X120194030Y-132029329D01*
X120204520Y-132007151D01*
X120217133Y-131986107D01*
X120231747Y-131966402D01*
X120248223Y-131948223D01*
X120266402Y-131931747D01*
X120286107Y-131917133D01*
X120307151Y-131904520D01*
X120329329Y-131894030D01*
X120352429Y-131885765D01*
X120376227Y-131879804D01*
X120400496Y-131876204D01*
X120425000Y-131875000D01*
X122575000Y-131875000D01*
X122599504Y-131876204D01*
X122599504Y-131876204D01*
G37*
D11*
X121500000Y-132500000D03*
D10*
G36*
X122599504Y-134676204D02*
X122623773Y-134679804D01*
X122647571Y-134685765D01*
X122670671Y-134694030D01*
X122692849Y-134704520D01*
X122713893Y-134717133D01*
X122733598Y-134731747D01*
X122751777Y-134748223D01*
X122768253Y-134766402D01*
X122782867Y-134786107D01*
X122795480Y-134807151D01*
X122805970Y-134829329D01*
X122814235Y-134852429D01*
X122820196Y-134876227D01*
X122823796Y-134900496D01*
X122825000Y-134925000D01*
X122825000Y-135675000D01*
X122823796Y-135699504D01*
X122820196Y-135723773D01*
X122814235Y-135747571D01*
X122805970Y-135770671D01*
X122795480Y-135792849D01*
X122782867Y-135813893D01*
X122768253Y-135833598D01*
X122751777Y-135851777D01*
X122733598Y-135868253D01*
X122713893Y-135882867D01*
X122692849Y-135895480D01*
X122670671Y-135905970D01*
X122647571Y-135914235D01*
X122623773Y-135920196D01*
X122599504Y-135923796D01*
X122575000Y-135925000D01*
X120425000Y-135925000D01*
X120400496Y-135923796D01*
X120376227Y-135920196D01*
X120352429Y-135914235D01*
X120329329Y-135905970D01*
X120307151Y-135895480D01*
X120286107Y-135882867D01*
X120266402Y-135868253D01*
X120248223Y-135851777D01*
X120231747Y-135833598D01*
X120217133Y-135813893D01*
X120204520Y-135792849D01*
X120194030Y-135770671D01*
X120185765Y-135747571D01*
X120179804Y-135723773D01*
X120176204Y-135699504D01*
X120175000Y-135675000D01*
X120175000Y-134925000D01*
X120176204Y-134900496D01*
X120179804Y-134876227D01*
X120185765Y-134852429D01*
X120194030Y-134829329D01*
X120204520Y-134807151D01*
X120217133Y-134786107D01*
X120231747Y-134766402D01*
X120248223Y-134748223D01*
X120266402Y-134731747D01*
X120286107Y-134717133D01*
X120307151Y-134704520D01*
X120329329Y-134694030D01*
X120352429Y-134685765D01*
X120376227Y-134679804D01*
X120400496Y-134676204D01*
X120425000Y-134675000D01*
X122575000Y-134675000D01*
X122599504Y-134676204D01*
X122599504Y-134676204D01*
G37*
D11*
X121500000Y-135300000D03*
G04 #@! TD*
D13*
G04 #@! TO.C,D1*
X149100000Y-88250000D03*
X149100000Y-86350000D03*
X147100000Y-87300000D03*
G04 #@! TD*
D14*
G04 #@! TO.C,D2*
X118050000Y-116500000D03*
X119000000Y-118500000D03*
X117100000Y-118500000D03*
G04 #@! TD*
D10*
G04 #@! TO.C,F4*
G36*
X115974505Y-125838204D02*
X115998773Y-125841804D01*
X116022572Y-125847765D01*
X116045671Y-125856030D01*
X116067850Y-125866520D01*
X116088893Y-125879132D01*
X116108599Y-125893747D01*
X116126777Y-125910223D01*
X116143253Y-125928401D01*
X116157868Y-125948107D01*
X116170480Y-125969150D01*
X116180970Y-125991329D01*
X116189235Y-126014428D01*
X116195196Y-126038227D01*
X116198796Y-126062495D01*
X116200000Y-126086999D01*
X116200000Y-126712001D01*
X116198796Y-126736505D01*
X116195196Y-126760773D01*
X116189235Y-126784572D01*
X116180970Y-126807671D01*
X116170480Y-126829850D01*
X116157868Y-126850893D01*
X116143253Y-126870599D01*
X116126777Y-126888777D01*
X116108599Y-126905253D01*
X116088893Y-126919868D01*
X116067850Y-126932480D01*
X116045671Y-126942970D01*
X116022572Y-126951235D01*
X115998773Y-126957196D01*
X115974505Y-126960796D01*
X115950001Y-126962000D01*
X113049999Y-126962000D01*
X113025495Y-126960796D01*
X113001227Y-126957196D01*
X112977428Y-126951235D01*
X112954329Y-126942970D01*
X112932150Y-126932480D01*
X112911107Y-126919868D01*
X112891401Y-126905253D01*
X112873223Y-126888777D01*
X112856747Y-126870599D01*
X112842132Y-126850893D01*
X112829520Y-126829850D01*
X112819030Y-126807671D01*
X112810765Y-126784572D01*
X112804804Y-126760773D01*
X112801204Y-126736505D01*
X112800000Y-126712001D01*
X112800000Y-126086999D01*
X112801204Y-126062495D01*
X112804804Y-126038227D01*
X112810765Y-126014428D01*
X112819030Y-125991329D01*
X112829520Y-125969150D01*
X112842132Y-125948107D01*
X112856747Y-125928401D01*
X112873223Y-125910223D01*
X112891401Y-125893747D01*
X112911107Y-125879132D01*
X112932150Y-125866520D01*
X112954329Y-125856030D01*
X112977428Y-125847765D01*
X113001227Y-125841804D01*
X113025495Y-125838204D01*
X113049999Y-125837000D01*
X115950001Y-125837000D01*
X115974505Y-125838204D01*
X115974505Y-125838204D01*
G37*
D12*
X114500000Y-126399500D03*
D10*
G36*
X115974505Y-121563204D02*
X115998773Y-121566804D01*
X116022572Y-121572765D01*
X116045671Y-121581030D01*
X116067850Y-121591520D01*
X116088893Y-121604132D01*
X116108599Y-121618747D01*
X116126777Y-121635223D01*
X116143253Y-121653401D01*
X116157868Y-121673107D01*
X116170480Y-121694150D01*
X116180970Y-121716329D01*
X116189235Y-121739428D01*
X116195196Y-121763227D01*
X116198796Y-121787495D01*
X116200000Y-121811999D01*
X116200000Y-122437001D01*
X116198796Y-122461505D01*
X116195196Y-122485773D01*
X116189235Y-122509572D01*
X116180970Y-122532671D01*
X116170480Y-122554850D01*
X116157868Y-122575893D01*
X116143253Y-122595599D01*
X116126777Y-122613777D01*
X116108599Y-122630253D01*
X116088893Y-122644868D01*
X116067850Y-122657480D01*
X116045671Y-122667970D01*
X116022572Y-122676235D01*
X115998773Y-122682196D01*
X115974505Y-122685796D01*
X115950001Y-122687000D01*
X113049999Y-122687000D01*
X113025495Y-122685796D01*
X113001227Y-122682196D01*
X112977428Y-122676235D01*
X112954329Y-122667970D01*
X112932150Y-122657480D01*
X112911107Y-122644868D01*
X112891401Y-122630253D01*
X112873223Y-122613777D01*
X112856747Y-122595599D01*
X112842132Y-122575893D01*
X112829520Y-122554850D01*
X112819030Y-122532671D01*
X112810765Y-122509572D01*
X112804804Y-122485773D01*
X112801204Y-122461505D01*
X112800000Y-122437001D01*
X112800000Y-121811999D01*
X112801204Y-121787495D01*
X112804804Y-121763227D01*
X112810765Y-121739428D01*
X112819030Y-121716329D01*
X112829520Y-121694150D01*
X112842132Y-121673107D01*
X112856747Y-121653401D01*
X112873223Y-121635223D01*
X112891401Y-121618747D01*
X112911107Y-121604132D01*
X112932150Y-121591520D01*
X112954329Y-121581030D01*
X112977428Y-121572765D01*
X113001227Y-121566804D01*
X113025495Y-121563204D01*
X113049999Y-121562000D01*
X115950001Y-121562000D01*
X115974505Y-121563204D01*
X115974505Y-121563204D01*
G37*
D12*
X114500000Y-122124500D03*
G04 #@! TD*
D10*
G04 #@! TO.C,C7*
G36*
X143499504Y-70426204D02*
X143523773Y-70429804D01*
X143547571Y-70435765D01*
X143570671Y-70444030D01*
X143592849Y-70454520D01*
X143613893Y-70467133D01*
X143633598Y-70481747D01*
X143651777Y-70498223D01*
X143668253Y-70516402D01*
X143682867Y-70536107D01*
X143695480Y-70557151D01*
X143705970Y-70579329D01*
X143714235Y-70602429D01*
X143720196Y-70626227D01*
X143723796Y-70650496D01*
X143725000Y-70675000D01*
X143725000Y-71925000D01*
X143723796Y-71949504D01*
X143720196Y-71973773D01*
X143714235Y-71997571D01*
X143705970Y-72020671D01*
X143695480Y-72042849D01*
X143682867Y-72063893D01*
X143668253Y-72083598D01*
X143651777Y-72101777D01*
X143633598Y-72118253D01*
X143613893Y-72132867D01*
X143592849Y-72145480D01*
X143570671Y-72155970D01*
X143547571Y-72164235D01*
X143523773Y-72170196D01*
X143499504Y-72173796D01*
X143475000Y-72175000D01*
X142725000Y-72175000D01*
X142700496Y-72173796D01*
X142676227Y-72170196D01*
X142652429Y-72164235D01*
X142629329Y-72155970D01*
X142607151Y-72145480D01*
X142586107Y-72132867D01*
X142566402Y-72118253D01*
X142548223Y-72101777D01*
X142531747Y-72083598D01*
X142517133Y-72063893D01*
X142504520Y-72042849D01*
X142494030Y-72020671D01*
X142485765Y-71997571D01*
X142479804Y-71973773D01*
X142476204Y-71949504D01*
X142475000Y-71925000D01*
X142475000Y-70675000D01*
X142476204Y-70650496D01*
X142479804Y-70626227D01*
X142485765Y-70602429D01*
X142494030Y-70579329D01*
X142504520Y-70557151D01*
X142517133Y-70536107D01*
X142531747Y-70516402D01*
X142548223Y-70498223D01*
X142566402Y-70481747D01*
X142586107Y-70467133D01*
X142607151Y-70454520D01*
X142629329Y-70444030D01*
X142652429Y-70435765D01*
X142676227Y-70429804D01*
X142700496Y-70426204D01*
X142725000Y-70425000D01*
X143475000Y-70425000D01*
X143499504Y-70426204D01*
X143499504Y-70426204D01*
G37*
D11*
X143100000Y-71300000D03*
D10*
G36*
X140699504Y-70426204D02*
X140723773Y-70429804D01*
X140747571Y-70435765D01*
X140770671Y-70444030D01*
X140792849Y-70454520D01*
X140813893Y-70467133D01*
X140833598Y-70481747D01*
X140851777Y-70498223D01*
X140868253Y-70516402D01*
X140882867Y-70536107D01*
X140895480Y-70557151D01*
X140905970Y-70579329D01*
X140914235Y-70602429D01*
X140920196Y-70626227D01*
X140923796Y-70650496D01*
X140925000Y-70675000D01*
X140925000Y-71925000D01*
X140923796Y-71949504D01*
X140920196Y-71973773D01*
X140914235Y-71997571D01*
X140905970Y-72020671D01*
X140895480Y-72042849D01*
X140882867Y-72063893D01*
X140868253Y-72083598D01*
X140851777Y-72101777D01*
X140833598Y-72118253D01*
X140813893Y-72132867D01*
X140792849Y-72145480D01*
X140770671Y-72155970D01*
X140747571Y-72164235D01*
X140723773Y-72170196D01*
X140699504Y-72173796D01*
X140675000Y-72175000D01*
X139925000Y-72175000D01*
X139900496Y-72173796D01*
X139876227Y-72170196D01*
X139852429Y-72164235D01*
X139829329Y-72155970D01*
X139807151Y-72145480D01*
X139786107Y-72132867D01*
X139766402Y-72118253D01*
X139748223Y-72101777D01*
X139731747Y-72083598D01*
X139717133Y-72063893D01*
X139704520Y-72042849D01*
X139694030Y-72020671D01*
X139685765Y-71997571D01*
X139679804Y-71973773D01*
X139676204Y-71949504D01*
X139675000Y-71925000D01*
X139675000Y-70675000D01*
X139676204Y-70650496D01*
X139679804Y-70626227D01*
X139685765Y-70602429D01*
X139694030Y-70579329D01*
X139704520Y-70557151D01*
X139717133Y-70536107D01*
X139731747Y-70516402D01*
X139748223Y-70498223D01*
X139766402Y-70481747D01*
X139786107Y-70467133D01*
X139807151Y-70454520D01*
X139829329Y-70444030D01*
X139852429Y-70435765D01*
X139876227Y-70429804D01*
X139900496Y-70426204D01*
X139925000Y-70425000D01*
X140675000Y-70425000D01*
X140699504Y-70426204D01*
X140699504Y-70426204D01*
G37*
D11*
X140300000Y-71300000D03*
G04 #@! TD*
D15*
G04 #@! TO.C,U4*
X119505000Y-99700000D03*
X118235000Y-99700000D03*
X116965000Y-99700000D03*
X115695000Y-99700000D03*
X115695000Y-105100000D03*
X116965000Y-105100000D03*
X118235000Y-105100000D03*
X119505000Y-105100000D03*
G04 #@! TD*
D16*
G04 #@! TO.C,U3*
X134500000Y-85630000D03*
X134500000Y-86900000D03*
X134500000Y-88170000D03*
X134500000Y-89440000D03*
X129100000Y-89440000D03*
X129100000Y-88170000D03*
X129100000Y-86900000D03*
X129100000Y-85630000D03*
G04 #@! TD*
D10*
G04 #@! TO.C,RV2*
G36*
X161199504Y-98576204D02*
X161223773Y-98579804D01*
X161247571Y-98585765D01*
X161270671Y-98594030D01*
X161292849Y-98604520D01*
X161313893Y-98617133D01*
X161333598Y-98631747D01*
X161351777Y-98648223D01*
X161368253Y-98666402D01*
X161382867Y-98686107D01*
X161395480Y-98707151D01*
X161405970Y-98729329D01*
X161414235Y-98752429D01*
X161420196Y-98776227D01*
X161423796Y-98800496D01*
X161425000Y-98825000D01*
X161425000Y-99575000D01*
X161423796Y-99599504D01*
X161420196Y-99623773D01*
X161414235Y-99647571D01*
X161405970Y-99670671D01*
X161395480Y-99692849D01*
X161382867Y-99713893D01*
X161368253Y-99733598D01*
X161351777Y-99751777D01*
X161333598Y-99768253D01*
X161313893Y-99782867D01*
X161292849Y-99795480D01*
X161270671Y-99805970D01*
X161247571Y-99814235D01*
X161223773Y-99820196D01*
X161199504Y-99823796D01*
X161175000Y-99825000D01*
X159025000Y-99825000D01*
X159000496Y-99823796D01*
X158976227Y-99820196D01*
X158952429Y-99814235D01*
X158929329Y-99805970D01*
X158907151Y-99795480D01*
X158886107Y-99782867D01*
X158866402Y-99768253D01*
X158848223Y-99751777D01*
X158831747Y-99733598D01*
X158817133Y-99713893D01*
X158804520Y-99692849D01*
X158794030Y-99670671D01*
X158785765Y-99647571D01*
X158779804Y-99623773D01*
X158776204Y-99599504D01*
X158775000Y-99575000D01*
X158775000Y-98825000D01*
X158776204Y-98800496D01*
X158779804Y-98776227D01*
X158785765Y-98752429D01*
X158794030Y-98729329D01*
X158804520Y-98707151D01*
X158817133Y-98686107D01*
X158831747Y-98666402D01*
X158848223Y-98648223D01*
X158866402Y-98631747D01*
X158886107Y-98617133D01*
X158907151Y-98604520D01*
X158929329Y-98594030D01*
X158952429Y-98585765D01*
X158976227Y-98579804D01*
X159000496Y-98576204D01*
X159025000Y-98575000D01*
X161175000Y-98575000D01*
X161199504Y-98576204D01*
X161199504Y-98576204D01*
G37*
D11*
X160100000Y-99200000D03*
D10*
G36*
X161199504Y-95776204D02*
X161223773Y-95779804D01*
X161247571Y-95785765D01*
X161270671Y-95794030D01*
X161292849Y-95804520D01*
X161313893Y-95817133D01*
X161333598Y-95831747D01*
X161351777Y-95848223D01*
X161368253Y-95866402D01*
X161382867Y-95886107D01*
X161395480Y-95907151D01*
X161405970Y-95929329D01*
X161414235Y-95952429D01*
X161420196Y-95976227D01*
X161423796Y-96000496D01*
X161425000Y-96025000D01*
X161425000Y-96775000D01*
X161423796Y-96799504D01*
X161420196Y-96823773D01*
X161414235Y-96847571D01*
X161405970Y-96870671D01*
X161395480Y-96892849D01*
X161382867Y-96913893D01*
X161368253Y-96933598D01*
X161351777Y-96951777D01*
X161333598Y-96968253D01*
X161313893Y-96982867D01*
X161292849Y-96995480D01*
X161270671Y-97005970D01*
X161247571Y-97014235D01*
X161223773Y-97020196D01*
X161199504Y-97023796D01*
X161175000Y-97025000D01*
X159025000Y-97025000D01*
X159000496Y-97023796D01*
X158976227Y-97020196D01*
X158952429Y-97014235D01*
X158929329Y-97005970D01*
X158907151Y-96995480D01*
X158886107Y-96982867D01*
X158866402Y-96968253D01*
X158848223Y-96951777D01*
X158831747Y-96933598D01*
X158817133Y-96913893D01*
X158804520Y-96892849D01*
X158794030Y-96870671D01*
X158785765Y-96847571D01*
X158779804Y-96823773D01*
X158776204Y-96799504D01*
X158775000Y-96775000D01*
X158775000Y-96025000D01*
X158776204Y-96000496D01*
X158779804Y-95976227D01*
X158785765Y-95952429D01*
X158794030Y-95929329D01*
X158804520Y-95907151D01*
X158817133Y-95886107D01*
X158831747Y-95866402D01*
X158848223Y-95848223D01*
X158866402Y-95831747D01*
X158886107Y-95817133D01*
X158907151Y-95804520D01*
X158929329Y-95794030D01*
X158952429Y-95785765D01*
X158976227Y-95779804D01*
X159000496Y-95776204D01*
X159025000Y-95775000D01*
X161175000Y-95775000D01*
X161199504Y-95776204D01*
X161199504Y-95776204D01*
G37*
D11*
X160100000Y-96400000D03*
G04 #@! TD*
D10*
G04 #@! TO.C,C10*
G36*
X130999504Y-80026204D02*
X131023773Y-80029804D01*
X131047571Y-80035765D01*
X131070671Y-80044030D01*
X131092849Y-80054520D01*
X131113893Y-80067133D01*
X131133598Y-80081747D01*
X131151777Y-80098223D01*
X131168253Y-80116402D01*
X131182867Y-80136107D01*
X131195480Y-80157151D01*
X131205970Y-80179329D01*
X131214235Y-80202429D01*
X131220196Y-80226227D01*
X131223796Y-80250496D01*
X131225000Y-80275000D01*
X131225000Y-81525000D01*
X131223796Y-81549504D01*
X131220196Y-81573773D01*
X131214235Y-81597571D01*
X131205970Y-81620671D01*
X131195480Y-81642849D01*
X131182867Y-81663893D01*
X131168253Y-81683598D01*
X131151777Y-81701777D01*
X131133598Y-81718253D01*
X131113893Y-81732867D01*
X131092849Y-81745480D01*
X131070671Y-81755970D01*
X131047571Y-81764235D01*
X131023773Y-81770196D01*
X130999504Y-81773796D01*
X130975000Y-81775000D01*
X130225000Y-81775000D01*
X130200496Y-81773796D01*
X130176227Y-81770196D01*
X130152429Y-81764235D01*
X130129329Y-81755970D01*
X130107151Y-81745480D01*
X130086107Y-81732867D01*
X130066402Y-81718253D01*
X130048223Y-81701777D01*
X130031747Y-81683598D01*
X130017133Y-81663893D01*
X130004520Y-81642849D01*
X129994030Y-81620671D01*
X129985765Y-81597571D01*
X129979804Y-81573773D01*
X129976204Y-81549504D01*
X129975000Y-81525000D01*
X129975000Y-80275000D01*
X129976204Y-80250496D01*
X129979804Y-80226227D01*
X129985765Y-80202429D01*
X129994030Y-80179329D01*
X130004520Y-80157151D01*
X130017133Y-80136107D01*
X130031747Y-80116402D01*
X130048223Y-80098223D01*
X130066402Y-80081747D01*
X130086107Y-80067133D01*
X130107151Y-80054520D01*
X130129329Y-80044030D01*
X130152429Y-80035765D01*
X130176227Y-80029804D01*
X130200496Y-80026204D01*
X130225000Y-80025000D01*
X130975000Y-80025000D01*
X130999504Y-80026204D01*
X130999504Y-80026204D01*
G37*
D11*
X130600000Y-80900000D03*
D10*
G36*
X133799504Y-80026204D02*
X133823773Y-80029804D01*
X133847571Y-80035765D01*
X133870671Y-80044030D01*
X133892849Y-80054520D01*
X133913893Y-80067133D01*
X133933598Y-80081747D01*
X133951777Y-80098223D01*
X133968253Y-80116402D01*
X133982867Y-80136107D01*
X133995480Y-80157151D01*
X134005970Y-80179329D01*
X134014235Y-80202429D01*
X134020196Y-80226227D01*
X134023796Y-80250496D01*
X134025000Y-80275000D01*
X134025000Y-81525000D01*
X134023796Y-81549504D01*
X134020196Y-81573773D01*
X134014235Y-81597571D01*
X134005970Y-81620671D01*
X133995480Y-81642849D01*
X133982867Y-81663893D01*
X133968253Y-81683598D01*
X133951777Y-81701777D01*
X133933598Y-81718253D01*
X133913893Y-81732867D01*
X133892849Y-81745480D01*
X133870671Y-81755970D01*
X133847571Y-81764235D01*
X133823773Y-81770196D01*
X133799504Y-81773796D01*
X133775000Y-81775000D01*
X133025000Y-81775000D01*
X133000496Y-81773796D01*
X132976227Y-81770196D01*
X132952429Y-81764235D01*
X132929329Y-81755970D01*
X132907151Y-81745480D01*
X132886107Y-81732867D01*
X132866402Y-81718253D01*
X132848223Y-81701777D01*
X132831747Y-81683598D01*
X132817133Y-81663893D01*
X132804520Y-81642849D01*
X132794030Y-81620671D01*
X132785765Y-81597571D01*
X132779804Y-81573773D01*
X132776204Y-81549504D01*
X132775000Y-81525000D01*
X132775000Y-80275000D01*
X132776204Y-80250496D01*
X132779804Y-80226227D01*
X132785765Y-80202429D01*
X132794030Y-80179329D01*
X132804520Y-80157151D01*
X132817133Y-80136107D01*
X132831747Y-80116402D01*
X132848223Y-80098223D01*
X132866402Y-80081747D01*
X132886107Y-80067133D01*
X132907151Y-80054520D01*
X132929329Y-80044030D01*
X132952429Y-80035765D01*
X132976227Y-80029804D01*
X133000496Y-80026204D01*
X133025000Y-80025000D01*
X133775000Y-80025000D01*
X133799504Y-80026204D01*
X133799504Y-80026204D01*
G37*
D11*
X133400000Y-80900000D03*
G04 #@! TD*
D10*
G04 #@! TO.C,RV4*
G36*
X115899504Y-134576204D02*
X115923773Y-134579804D01*
X115947571Y-134585765D01*
X115970671Y-134594030D01*
X115992849Y-134604520D01*
X116013893Y-134617133D01*
X116033598Y-134631747D01*
X116051777Y-134648223D01*
X116068253Y-134666402D01*
X116082867Y-134686107D01*
X116095480Y-134707151D01*
X116105970Y-134729329D01*
X116114235Y-134752429D01*
X116120196Y-134776227D01*
X116123796Y-134800496D01*
X116125000Y-134825000D01*
X116125000Y-135575000D01*
X116123796Y-135599504D01*
X116120196Y-135623773D01*
X116114235Y-135647571D01*
X116105970Y-135670671D01*
X116095480Y-135692849D01*
X116082867Y-135713893D01*
X116068253Y-135733598D01*
X116051777Y-135751777D01*
X116033598Y-135768253D01*
X116013893Y-135782867D01*
X115992849Y-135795480D01*
X115970671Y-135805970D01*
X115947571Y-135814235D01*
X115923773Y-135820196D01*
X115899504Y-135823796D01*
X115875000Y-135825000D01*
X113725000Y-135825000D01*
X113700496Y-135823796D01*
X113676227Y-135820196D01*
X113652429Y-135814235D01*
X113629329Y-135805970D01*
X113607151Y-135795480D01*
X113586107Y-135782867D01*
X113566402Y-135768253D01*
X113548223Y-135751777D01*
X113531747Y-135733598D01*
X113517133Y-135713893D01*
X113504520Y-135692849D01*
X113494030Y-135670671D01*
X113485765Y-135647571D01*
X113479804Y-135623773D01*
X113476204Y-135599504D01*
X113475000Y-135575000D01*
X113475000Y-134825000D01*
X113476204Y-134800496D01*
X113479804Y-134776227D01*
X113485765Y-134752429D01*
X113494030Y-134729329D01*
X113504520Y-134707151D01*
X113517133Y-134686107D01*
X113531747Y-134666402D01*
X113548223Y-134648223D01*
X113566402Y-134631747D01*
X113586107Y-134617133D01*
X113607151Y-134604520D01*
X113629329Y-134594030D01*
X113652429Y-134585765D01*
X113676227Y-134579804D01*
X113700496Y-134576204D01*
X113725000Y-134575000D01*
X115875000Y-134575000D01*
X115899504Y-134576204D01*
X115899504Y-134576204D01*
G37*
D11*
X114800000Y-135200000D03*
D10*
G36*
X115899504Y-131776204D02*
X115923773Y-131779804D01*
X115947571Y-131785765D01*
X115970671Y-131794030D01*
X115992849Y-131804520D01*
X116013893Y-131817133D01*
X116033598Y-131831747D01*
X116051777Y-131848223D01*
X116068253Y-131866402D01*
X116082867Y-131886107D01*
X116095480Y-131907151D01*
X116105970Y-131929329D01*
X116114235Y-131952429D01*
X116120196Y-131976227D01*
X116123796Y-132000496D01*
X116125000Y-132025000D01*
X116125000Y-132775000D01*
X116123796Y-132799504D01*
X116120196Y-132823773D01*
X116114235Y-132847571D01*
X116105970Y-132870671D01*
X116095480Y-132892849D01*
X116082867Y-132913893D01*
X116068253Y-132933598D01*
X116051777Y-132951777D01*
X116033598Y-132968253D01*
X116013893Y-132982867D01*
X115992849Y-132995480D01*
X115970671Y-133005970D01*
X115947571Y-133014235D01*
X115923773Y-133020196D01*
X115899504Y-133023796D01*
X115875000Y-133025000D01*
X113725000Y-133025000D01*
X113700496Y-133023796D01*
X113676227Y-133020196D01*
X113652429Y-133014235D01*
X113629329Y-133005970D01*
X113607151Y-132995480D01*
X113586107Y-132982867D01*
X113566402Y-132968253D01*
X113548223Y-132951777D01*
X113531747Y-132933598D01*
X113517133Y-132913893D01*
X113504520Y-132892849D01*
X113494030Y-132870671D01*
X113485765Y-132847571D01*
X113479804Y-132823773D01*
X113476204Y-132799504D01*
X113475000Y-132775000D01*
X113475000Y-132025000D01*
X113476204Y-132000496D01*
X113479804Y-131976227D01*
X113485765Y-131952429D01*
X113494030Y-131929329D01*
X113504520Y-131907151D01*
X113517133Y-131886107D01*
X113531747Y-131866402D01*
X113548223Y-131848223D01*
X113566402Y-131831747D01*
X113586107Y-131817133D01*
X113607151Y-131804520D01*
X113629329Y-131794030D01*
X113652429Y-131785765D01*
X113676227Y-131779804D01*
X113700496Y-131776204D01*
X113725000Y-131775000D01*
X115875000Y-131775000D01*
X115899504Y-131776204D01*
X115899504Y-131776204D01*
G37*
D11*
X114800000Y-132400000D03*
G04 #@! TD*
D10*
G04 #@! TO.C,F3*
G36*
X122974505Y-121639204D02*
X122998773Y-121642804D01*
X123022572Y-121648765D01*
X123045671Y-121657030D01*
X123067850Y-121667520D01*
X123088893Y-121680132D01*
X123108599Y-121694747D01*
X123126777Y-121711223D01*
X123143253Y-121729401D01*
X123157868Y-121749107D01*
X123170480Y-121770150D01*
X123180970Y-121792329D01*
X123189235Y-121815428D01*
X123195196Y-121839227D01*
X123198796Y-121863495D01*
X123200000Y-121887999D01*
X123200000Y-122513001D01*
X123198796Y-122537505D01*
X123195196Y-122561773D01*
X123189235Y-122585572D01*
X123180970Y-122608671D01*
X123170480Y-122630850D01*
X123157868Y-122651893D01*
X123143253Y-122671599D01*
X123126777Y-122689777D01*
X123108599Y-122706253D01*
X123088893Y-122720868D01*
X123067850Y-122733480D01*
X123045671Y-122743970D01*
X123022572Y-122752235D01*
X122998773Y-122758196D01*
X122974505Y-122761796D01*
X122950001Y-122763000D01*
X120049999Y-122763000D01*
X120025495Y-122761796D01*
X120001227Y-122758196D01*
X119977428Y-122752235D01*
X119954329Y-122743970D01*
X119932150Y-122733480D01*
X119911107Y-122720868D01*
X119891401Y-122706253D01*
X119873223Y-122689777D01*
X119856747Y-122671599D01*
X119842132Y-122651893D01*
X119829520Y-122630850D01*
X119819030Y-122608671D01*
X119810765Y-122585572D01*
X119804804Y-122561773D01*
X119801204Y-122537505D01*
X119800000Y-122513001D01*
X119800000Y-121887999D01*
X119801204Y-121863495D01*
X119804804Y-121839227D01*
X119810765Y-121815428D01*
X119819030Y-121792329D01*
X119829520Y-121770150D01*
X119842132Y-121749107D01*
X119856747Y-121729401D01*
X119873223Y-121711223D01*
X119891401Y-121694747D01*
X119911107Y-121680132D01*
X119932150Y-121667520D01*
X119954329Y-121657030D01*
X119977428Y-121648765D01*
X120001227Y-121642804D01*
X120025495Y-121639204D01*
X120049999Y-121638000D01*
X122950001Y-121638000D01*
X122974505Y-121639204D01*
X122974505Y-121639204D01*
G37*
D12*
X121500000Y-122200500D03*
D10*
G36*
X122974505Y-125914204D02*
X122998773Y-125917804D01*
X123022572Y-125923765D01*
X123045671Y-125932030D01*
X123067850Y-125942520D01*
X123088893Y-125955132D01*
X123108599Y-125969747D01*
X123126777Y-125986223D01*
X123143253Y-126004401D01*
X123157868Y-126024107D01*
X123170480Y-126045150D01*
X123180970Y-126067329D01*
X123189235Y-126090428D01*
X123195196Y-126114227D01*
X123198796Y-126138495D01*
X123200000Y-126162999D01*
X123200000Y-126788001D01*
X123198796Y-126812505D01*
X123195196Y-126836773D01*
X123189235Y-126860572D01*
X123180970Y-126883671D01*
X123170480Y-126905850D01*
X123157868Y-126926893D01*
X123143253Y-126946599D01*
X123126777Y-126964777D01*
X123108599Y-126981253D01*
X123088893Y-126995868D01*
X123067850Y-127008480D01*
X123045671Y-127018970D01*
X123022572Y-127027235D01*
X122998773Y-127033196D01*
X122974505Y-127036796D01*
X122950001Y-127038000D01*
X120049999Y-127038000D01*
X120025495Y-127036796D01*
X120001227Y-127033196D01*
X119977428Y-127027235D01*
X119954329Y-127018970D01*
X119932150Y-127008480D01*
X119911107Y-126995868D01*
X119891401Y-126981253D01*
X119873223Y-126964777D01*
X119856747Y-126946599D01*
X119842132Y-126926893D01*
X119829520Y-126905850D01*
X119819030Y-126883671D01*
X119810765Y-126860572D01*
X119804804Y-126836773D01*
X119801204Y-126812505D01*
X119800000Y-126788001D01*
X119800000Y-126162999D01*
X119801204Y-126138495D01*
X119804804Y-126114227D01*
X119810765Y-126090428D01*
X119819030Y-126067329D01*
X119829520Y-126045150D01*
X119842132Y-126024107D01*
X119856747Y-126004401D01*
X119873223Y-125986223D01*
X119891401Y-125969747D01*
X119911107Y-125955132D01*
X119932150Y-125942520D01*
X119954329Y-125932030D01*
X119977428Y-125923765D01*
X120001227Y-125917804D01*
X120025495Y-125914204D01*
X120049999Y-125913000D01*
X122950001Y-125913000D01*
X122974505Y-125914204D01*
X122974505Y-125914204D01*
G37*
D12*
X121500000Y-126475500D03*
G04 #@! TD*
D10*
G04 #@! TO.C,RV1*
G36*
X160299504Y-81176204D02*
X160323773Y-81179804D01*
X160347571Y-81185765D01*
X160370671Y-81194030D01*
X160392849Y-81204520D01*
X160413893Y-81217133D01*
X160433598Y-81231747D01*
X160451777Y-81248223D01*
X160468253Y-81266402D01*
X160482867Y-81286107D01*
X160495480Y-81307151D01*
X160505970Y-81329329D01*
X160514235Y-81352429D01*
X160520196Y-81376227D01*
X160523796Y-81400496D01*
X160525000Y-81425000D01*
X160525000Y-82175000D01*
X160523796Y-82199504D01*
X160520196Y-82223773D01*
X160514235Y-82247571D01*
X160505970Y-82270671D01*
X160495480Y-82292849D01*
X160482867Y-82313893D01*
X160468253Y-82333598D01*
X160451777Y-82351777D01*
X160433598Y-82368253D01*
X160413893Y-82382867D01*
X160392849Y-82395480D01*
X160370671Y-82405970D01*
X160347571Y-82414235D01*
X160323773Y-82420196D01*
X160299504Y-82423796D01*
X160275000Y-82425000D01*
X158125000Y-82425000D01*
X158100496Y-82423796D01*
X158076227Y-82420196D01*
X158052429Y-82414235D01*
X158029329Y-82405970D01*
X158007151Y-82395480D01*
X157986107Y-82382867D01*
X157966402Y-82368253D01*
X157948223Y-82351777D01*
X157931747Y-82333598D01*
X157917133Y-82313893D01*
X157904520Y-82292849D01*
X157894030Y-82270671D01*
X157885765Y-82247571D01*
X157879804Y-82223773D01*
X157876204Y-82199504D01*
X157875000Y-82175000D01*
X157875000Y-81425000D01*
X157876204Y-81400496D01*
X157879804Y-81376227D01*
X157885765Y-81352429D01*
X157894030Y-81329329D01*
X157904520Y-81307151D01*
X157917133Y-81286107D01*
X157931747Y-81266402D01*
X157948223Y-81248223D01*
X157966402Y-81231747D01*
X157986107Y-81217133D01*
X158007151Y-81204520D01*
X158029329Y-81194030D01*
X158052429Y-81185765D01*
X158076227Y-81179804D01*
X158100496Y-81176204D01*
X158125000Y-81175000D01*
X160275000Y-81175000D01*
X160299504Y-81176204D01*
X160299504Y-81176204D01*
G37*
D11*
X159200000Y-81800000D03*
D10*
G36*
X160299504Y-78376204D02*
X160323773Y-78379804D01*
X160347571Y-78385765D01*
X160370671Y-78394030D01*
X160392849Y-78404520D01*
X160413893Y-78417133D01*
X160433598Y-78431747D01*
X160451777Y-78448223D01*
X160468253Y-78466402D01*
X160482867Y-78486107D01*
X160495480Y-78507151D01*
X160505970Y-78529329D01*
X160514235Y-78552429D01*
X160520196Y-78576227D01*
X160523796Y-78600496D01*
X160525000Y-78625000D01*
X160525000Y-79375000D01*
X160523796Y-79399504D01*
X160520196Y-79423773D01*
X160514235Y-79447571D01*
X160505970Y-79470671D01*
X160495480Y-79492849D01*
X160482867Y-79513893D01*
X160468253Y-79533598D01*
X160451777Y-79551777D01*
X160433598Y-79568253D01*
X160413893Y-79582867D01*
X160392849Y-79595480D01*
X160370671Y-79605970D01*
X160347571Y-79614235D01*
X160323773Y-79620196D01*
X160299504Y-79623796D01*
X160275000Y-79625000D01*
X158125000Y-79625000D01*
X158100496Y-79623796D01*
X158076227Y-79620196D01*
X158052429Y-79614235D01*
X158029329Y-79605970D01*
X158007151Y-79595480D01*
X157986107Y-79582867D01*
X157966402Y-79568253D01*
X157948223Y-79551777D01*
X157931747Y-79533598D01*
X157917133Y-79513893D01*
X157904520Y-79492849D01*
X157894030Y-79470671D01*
X157885765Y-79447571D01*
X157879804Y-79423773D01*
X157876204Y-79399504D01*
X157875000Y-79375000D01*
X157875000Y-78625000D01*
X157876204Y-78600496D01*
X157879804Y-78576227D01*
X157885765Y-78552429D01*
X157894030Y-78529329D01*
X157904520Y-78507151D01*
X157917133Y-78486107D01*
X157931747Y-78466402D01*
X157948223Y-78448223D01*
X157966402Y-78431747D01*
X157986107Y-78417133D01*
X158007151Y-78404520D01*
X158029329Y-78394030D01*
X158052429Y-78385765D01*
X158076227Y-78379804D01*
X158100496Y-78376204D01*
X158125000Y-78375000D01*
X160275000Y-78375000D01*
X160299504Y-78376204D01*
X160299504Y-78376204D01*
G37*
D11*
X159200000Y-79000000D03*
G04 #@! TD*
D17*
G04 #@! TO.C,U1*
X137400000Y-51900000D03*
X137400000Y-52400000D03*
X137400000Y-52900000D03*
X137400000Y-53400000D03*
X137400000Y-53900000D03*
X137400000Y-54400000D03*
X137400000Y-54900000D03*
X137400000Y-55400000D03*
X137400000Y-55900000D03*
X137400000Y-56400000D03*
X137400000Y-56900000D03*
X137400000Y-57400000D03*
X137400000Y-57900000D03*
X137400000Y-58400000D03*
X137400000Y-58900000D03*
X137400000Y-59400000D03*
X137400000Y-59900000D03*
X137400000Y-60400000D03*
X137400000Y-60900000D03*
X137400000Y-61400000D03*
X137400000Y-61900000D03*
X137400000Y-62400000D03*
X137400000Y-62900000D03*
X137400000Y-63400000D03*
X137400000Y-63900000D03*
D18*
X139300000Y-65800000D03*
X139800000Y-65800000D03*
X140300000Y-65800000D03*
X140800000Y-65800000D03*
X141300000Y-65800000D03*
X141800000Y-65800000D03*
X142300000Y-65800000D03*
X142800000Y-65800000D03*
X143300000Y-65800000D03*
X143800000Y-65800000D03*
X144300000Y-65800000D03*
X144800000Y-65800000D03*
X145300000Y-65800000D03*
X145800000Y-65800000D03*
X146300000Y-65800000D03*
X146800000Y-65800000D03*
X147300000Y-65800000D03*
X147800000Y-65800000D03*
X148300000Y-65800000D03*
X148800000Y-65800000D03*
X149300000Y-65800000D03*
X149800000Y-65800000D03*
X150300000Y-65800000D03*
X150800000Y-65800000D03*
X151300000Y-65800000D03*
D17*
X153200000Y-63900000D03*
X153200000Y-63400000D03*
X153200000Y-62900000D03*
X153200000Y-62400000D03*
X153200000Y-61900000D03*
X153200000Y-61400000D03*
X153200000Y-60900000D03*
X153200000Y-60400000D03*
X153200000Y-59900000D03*
X153200000Y-59400000D03*
X153200000Y-58900000D03*
X153200000Y-58400000D03*
X153200000Y-57900000D03*
X153200000Y-57400000D03*
X153200000Y-56900000D03*
X153200000Y-56400000D03*
X153200000Y-55900000D03*
X153200000Y-55400000D03*
X153200000Y-54900000D03*
X153200000Y-54400000D03*
X153200000Y-53900000D03*
X153200000Y-53400000D03*
X153200000Y-52900000D03*
X153200000Y-52400000D03*
X153200000Y-51900000D03*
D18*
X151300000Y-50000000D03*
X150800000Y-50000000D03*
X150300000Y-50000000D03*
X149800000Y-50000000D03*
X149300000Y-50000000D03*
X148800000Y-50000000D03*
X148300000Y-50000000D03*
X147800000Y-50000000D03*
X147300000Y-50000000D03*
X146800000Y-50000000D03*
X146300000Y-50000000D03*
X145800000Y-50000000D03*
X145300000Y-50000000D03*
X144800000Y-50000000D03*
X144300000Y-50000000D03*
X143800000Y-50000000D03*
X143300000Y-50000000D03*
X142800000Y-50000000D03*
X142300000Y-50000000D03*
X141800000Y-50000000D03*
X141300000Y-50000000D03*
X140800000Y-50000000D03*
X140300000Y-50000000D03*
X139800000Y-50000000D03*
X139300000Y-50000000D03*
G04 #@! TD*
D10*
G04 #@! TO.C,C4*
G36*
X159649504Y-61676204D02*
X159673773Y-61679804D01*
X159697571Y-61685765D01*
X159720671Y-61694030D01*
X159742849Y-61704520D01*
X159763893Y-61717133D01*
X159783598Y-61731747D01*
X159801777Y-61748223D01*
X159818253Y-61766402D01*
X159832867Y-61786107D01*
X159845480Y-61807151D01*
X159855970Y-61829329D01*
X159864235Y-61852429D01*
X159870196Y-61876227D01*
X159873796Y-61900496D01*
X159875000Y-61925000D01*
X159875000Y-62675000D01*
X159873796Y-62699504D01*
X159870196Y-62723773D01*
X159864235Y-62747571D01*
X159855970Y-62770671D01*
X159845480Y-62792849D01*
X159832867Y-62813893D01*
X159818253Y-62833598D01*
X159801777Y-62851777D01*
X159783598Y-62868253D01*
X159763893Y-62882867D01*
X159742849Y-62895480D01*
X159720671Y-62905970D01*
X159697571Y-62914235D01*
X159673773Y-62920196D01*
X159649504Y-62923796D01*
X159625000Y-62925000D01*
X158375000Y-62925000D01*
X158350496Y-62923796D01*
X158326227Y-62920196D01*
X158302429Y-62914235D01*
X158279329Y-62905970D01*
X158257151Y-62895480D01*
X158236107Y-62882867D01*
X158216402Y-62868253D01*
X158198223Y-62851777D01*
X158181747Y-62833598D01*
X158167133Y-62813893D01*
X158154520Y-62792849D01*
X158144030Y-62770671D01*
X158135765Y-62747571D01*
X158129804Y-62723773D01*
X158126204Y-62699504D01*
X158125000Y-62675000D01*
X158125000Y-61925000D01*
X158126204Y-61900496D01*
X158129804Y-61876227D01*
X158135765Y-61852429D01*
X158144030Y-61829329D01*
X158154520Y-61807151D01*
X158167133Y-61786107D01*
X158181747Y-61766402D01*
X158198223Y-61748223D01*
X158216402Y-61731747D01*
X158236107Y-61717133D01*
X158257151Y-61704520D01*
X158279329Y-61694030D01*
X158302429Y-61685765D01*
X158326227Y-61679804D01*
X158350496Y-61676204D01*
X158375000Y-61675000D01*
X159625000Y-61675000D01*
X159649504Y-61676204D01*
X159649504Y-61676204D01*
G37*
D11*
X159000000Y-62300000D03*
D10*
G36*
X159649504Y-58876204D02*
X159673773Y-58879804D01*
X159697571Y-58885765D01*
X159720671Y-58894030D01*
X159742849Y-58904520D01*
X159763893Y-58917133D01*
X159783598Y-58931747D01*
X159801777Y-58948223D01*
X159818253Y-58966402D01*
X159832867Y-58986107D01*
X159845480Y-59007151D01*
X159855970Y-59029329D01*
X159864235Y-59052429D01*
X159870196Y-59076227D01*
X159873796Y-59100496D01*
X159875000Y-59125000D01*
X159875000Y-59875000D01*
X159873796Y-59899504D01*
X159870196Y-59923773D01*
X159864235Y-59947571D01*
X159855970Y-59970671D01*
X159845480Y-59992849D01*
X159832867Y-60013893D01*
X159818253Y-60033598D01*
X159801777Y-60051777D01*
X159783598Y-60068253D01*
X159763893Y-60082867D01*
X159742849Y-60095480D01*
X159720671Y-60105970D01*
X159697571Y-60114235D01*
X159673773Y-60120196D01*
X159649504Y-60123796D01*
X159625000Y-60125000D01*
X158375000Y-60125000D01*
X158350496Y-60123796D01*
X158326227Y-60120196D01*
X158302429Y-60114235D01*
X158279329Y-60105970D01*
X158257151Y-60095480D01*
X158236107Y-60082867D01*
X158216402Y-60068253D01*
X158198223Y-60051777D01*
X158181747Y-60033598D01*
X158167133Y-60013893D01*
X158154520Y-59992849D01*
X158144030Y-59970671D01*
X158135765Y-59947571D01*
X158129804Y-59923773D01*
X158126204Y-59899504D01*
X158125000Y-59875000D01*
X158125000Y-59125000D01*
X158126204Y-59100496D01*
X158129804Y-59076227D01*
X158135765Y-59052429D01*
X158144030Y-59029329D01*
X158154520Y-59007151D01*
X158167133Y-58986107D01*
X158181747Y-58966402D01*
X158198223Y-58948223D01*
X158216402Y-58931747D01*
X158236107Y-58917133D01*
X158257151Y-58904520D01*
X158279329Y-58894030D01*
X158302429Y-58885765D01*
X158326227Y-58879804D01*
X158350496Y-58876204D01*
X158375000Y-58875000D01*
X159625000Y-58875000D01*
X159649504Y-58876204D01*
X159649504Y-58876204D01*
G37*
D11*
X159000000Y-59500000D03*
G04 #@! TD*
D10*
G04 #@! TO.C,C3*
G36*
X132649504Y-50676204D02*
X132673773Y-50679804D01*
X132697571Y-50685765D01*
X132720671Y-50694030D01*
X132742849Y-50704520D01*
X132763893Y-50717133D01*
X132783598Y-50731747D01*
X132801777Y-50748223D01*
X132818253Y-50766402D01*
X132832867Y-50786107D01*
X132845480Y-50807151D01*
X132855970Y-50829329D01*
X132864235Y-50852429D01*
X132870196Y-50876227D01*
X132873796Y-50900496D01*
X132875000Y-50925000D01*
X132875000Y-51675000D01*
X132873796Y-51699504D01*
X132870196Y-51723773D01*
X132864235Y-51747571D01*
X132855970Y-51770671D01*
X132845480Y-51792849D01*
X132832867Y-51813893D01*
X132818253Y-51833598D01*
X132801777Y-51851777D01*
X132783598Y-51868253D01*
X132763893Y-51882867D01*
X132742849Y-51895480D01*
X132720671Y-51905970D01*
X132697571Y-51914235D01*
X132673773Y-51920196D01*
X132649504Y-51923796D01*
X132625000Y-51925000D01*
X131375000Y-51925000D01*
X131350496Y-51923796D01*
X131326227Y-51920196D01*
X131302429Y-51914235D01*
X131279329Y-51905970D01*
X131257151Y-51895480D01*
X131236107Y-51882867D01*
X131216402Y-51868253D01*
X131198223Y-51851777D01*
X131181747Y-51833598D01*
X131167133Y-51813893D01*
X131154520Y-51792849D01*
X131144030Y-51770671D01*
X131135765Y-51747571D01*
X131129804Y-51723773D01*
X131126204Y-51699504D01*
X131125000Y-51675000D01*
X131125000Y-50925000D01*
X131126204Y-50900496D01*
X131129804Y-50876227D01*
X131135765Y-50852429D01*
X131144030Y-50829329D01*
X131154520Y-50807151D01*
X131167133Y-50786107D01*
X131181747Y-50766402D01*
X131198223Y-50748223D01*
X131216402Y-50731747D01*
X131236107Y-50717133D01*
X131257151Y-50704520D01*
X131279329Y-50694030D01*
X131302429Y-50685765D01*
X131326227Y-50679804D01*
X131350496Y-50676204D01*
X131375000Y-50675000D01*
X132625000Y-50675000D01*
X132649504Y-50676204D01*
X132649504Y-50676204D01*
G37*
D11*
X132000000Y-51300000D03*
D10*
G36*
X132649504Y-53476204D02*
X132673773Y-53479804D01*
X132697571Y-53485765D01*
X132720671Y-53494030D01*
X132742849Y-53504520D01*
X132763893Y-53517133D01*
X132783598Y-53531747D01*
X132801777Y-53548223D01*
X132818253Y-53566402D01*
X132832867Y-53586107D01*
X132845480Y-53607151D01*
X132855970Y-53629329D01*
X132864235Y-53652429D01*
X132870196Y-53676227D01*
X132873796Y-53700496D01*
X132875000Y-53725000D01*
X132875000Y-54475000D01*
X132873796Y-54499504D01*
X132870196Y-54523773D01*
X132864235Y-54547571D01*
X132855970Y-54570671D01*
X132845480Y-54592849D01*
X132832867Y-54613893D01*
X132818253Y-54633598D01*
X132801777Y-54651777D01*
X132783598Y-54668253D01*
X132763893Y-54682867D01*
X132742849Y-54695480D01*
X132720671Y-54705970D01*
X132697571Y-54714235D01*
X132673773Y-54720196D01*
X132649504Y-54723796D01*
X132625000Y-54725000D01*
X131375000Y-54725000D01*
X131350496Y-54723796D01*
X131326227Y-54720196D01*
X131302429Y-54714235D01*
X131279329Y-54705970D01*
X131257151Y-54695480D01*
X131236107Y-54682867D01*
X131216402Y-54668253D01*
X131198223Y-54651777D01*
X131181747Y-54633598D01*
X131167133Y-54613893D01*
X131154520Y-54592849D01*
X131144030Y-54570671D01*
X131135765Y-54547571D01*
X131129804Y-54523773D01*
X131126204Y-54499504D01*
X131125000Y-54475000D01*
X131125000Y-53725000D01*
X131126204Y-53700496D01*
X131129804Y-53676227D01*
X131135765Y-53652429D01*
X131144030Y-53629329D01*
X131154520Y-53607151D01*
X131167133Y-53586107D01*
X131181747Y-53566402D01*
X131198223Y-53548223D01*
X131216402Y-53531747D01*
X131236107Y-53517133D01*
X131257151Y-53504520D01*
X131279329Y-53494030D01*
X131302429Y-53485765D01*
X131326227Y-53479804D01*
X131350496Y-53476204D01*
X131375000Y-53475000D01*
X132625000Y-53475000D01*
X132649504Y-53476204D01*
X132649504Y-53476204D01*
G37*
D11*
X132000000Y-54100000D03*
G04 #@! TD*
D10*
G04 #@! TO.C,C2*
G36*
X149099504Y-43226204D02*
X149123773Y-43229804D01*
X149147571Y-43235765D01*
X149170671Y-43244030D01*
X149192849Y-43254520D01*
X149213893Y-43267133D01*
X149233598Y-43281747D01*
X149251777Y-43298223D01*
X149268253Y-43316402D01*
X149282867Y-43336107D01*
X149295480Y-43357151D01*
X149305970Y-43379329D01*
X149314235Y-43402429D01*
X149320196Y-43426227D01*
X149323796Y-43450496D01*
X149325000Y-43475000D01*
X149325000Y-44725000D01*
X149323796Y-44749504D01*
X149320196Y-44773773D01*
X149314235Y-44797571D01*
X149305970Y-44820671D01*
X149295480Y-44842849D01*
X149282867Y-44863893D01*
X149268253Y-44883598D01*
X149251777Y-44901777D01*
X149233598Y-44918253D01*
X149213893Y-44932867D01*
X149192849Y-44945480D01*
X149170671Y-44955970D01*
X149147571Y-44964235D01*
X149123773Y-44970196D01*
X149099504Y-44973796D01*
X149075000Y-44975000D01*
X148325000Y-44975000D01*
X148300496Y-44973796D01*
X148276227Y-44970196D01*
X148252429Y-44964235D01*
X148229329Y-44955970D01*
X148207151Y-44945480D01*
X148186107Y-44932867D01*
X148166402Y-44918253D01*
X148148223Y-44901777D01*
X148131747Y-44883598D01*
X148117133Y-44863893D01*
X148104520Y-44842849D01*
X148094030Y-44820671D01*
X148085765Y-44797571D01*
X148079804Y-44773773D01*
X148076204Y-44749504D01*
X148075000Y-44725000D01*
X148075000Y-43475000D01*
X148076204Y-43450496D01*
X148079804Y-43426227D01*
X148085765Y-43402429D01*
X148094030Y-43379329D01*
X148104520Y-43357151D01*
X148117133Y-43336107D01*
X148131747Y-43316402D01*
X148148223Y-43298223D01*
X148166402Y-43281747D01*
X148186107Y-43267133D01*
X148207151Y-43254520D01*
X148229329Y-43244030D01*
X148252429Y-43235765D01*
X148276227Y-43229804D01*
X148300496Y-43226204D01*
X148325000Y-43225000D01*
X149075000Y-43225000D01*
X149099504Y-43226204D01*
X149099504Y-43226204D01*
G37*
D11*
X148700000Y-44100000D03*
D10*
G36*
X146299504Y-43226204D02*
X146323773Y-43229804D01*
X146347571Y-43235765D01*
X146370671Y-43244030D01*
X146392849Y-43254520D01*
X146413893Y-43267133D01*
X146433598Y-43281747D01*
X146451777Y-43298223D01*
X146468253Y-43316402D01*
X146482867Y-43336107D01*
X146495480Y-43357151D01*
X146505970Y-43379329D01*
X146514235Y-43402429D01*
X146520196Y-43426227D01*
X146523796Y-43450496D01*
X146525000Y-43475000D01*
X146525000Y-44725000D01*
X146523796Y-44749504D01*
X146520196Y-44773773D01*
X146514235Y-44797571D01*
X146505970Y-44820671D01*
X146495480Y-44842849D01*
X146482867Y-44863893D01*
X146468253Y-44883598D01*
X146451777Y-44901777D01*
X146433598Y-44918253D01*
X146413893Y-44932867D01*
X146392849Y-44945480D01*
X146370671Y-44955970D01*
X146347571Y-44964235D01*
X146323773Y-44970196D01*
X146299504Y-44973796D01*
X146275000Y-44975000D01*
X145525000Y-44975000D01*
X145500496Y-44973796D01*
X145476227Y-44970196D01*
X145452429Y-44964235D01*
X145429329Y-44955970D01*
X145407151Y-44945480D01*
X145386107Y-44932867D01*
X145366402Y-44918253D01*
X145348223Y-44901777D01*
X145331747Y-44883598D01*
X145317133Y-44863893D01*
X145304520Y-44842849D01*
X145294030Y-44820671D01*
X145285765Y-44797571D01*
X145279804Y-44773773D01*
X145276204Y-44749504D01*
X145275000Y-44725000D01*
X145275000Y-43475000D01*
X145276204Y-43450496D01*
X145279804Y-43426227D01*
X145285765Y-43402429D01*
X145294030Y-43379329D01*
X145304520Y-43357151D01*
X145317133Y-43336107D01*
X145331747Y-43316402D01*
X145348223Y-43298223D01*
X145366402Y-43281747D01*
X145386107Y-43267133D01*
X145407151Y-43254520D01*
X145429329Y-43244030D01*
X145452429Y-43235765D01*
X145476227Y-43229804D01*
X145500496Y-43226204D01*
X145525000Y-43225000D01*
X146275000Y-43225000D01*
X146299504Y-43226204D01*
X146299504Y-43226204D01*
G37*
D11*
X145900000Y-44100000D03*
G04 #@! TD*
D10*
G04 #@! TO.C,F2*
G36*
X155037505Y-90401204D02*
X155061773Y-90404804D01*
X155085572Y-90410765D01*
X155108671Y-90419030D01*
X155130850Y-90429520D01*
X155151893Y-90442132D01*
X155171599Y-90456747D01*
X155189777Y-90473223D01*
X155206253Y-90491401D01*
X155220868Y-90511107D01*
X155233480Y-90532150D01*
X155243970Y-90554329D01*
X155252235Y-90577428D01*
X155258196Y-90601227D01*
X155261796Y-90625495D01*
X155263000Y-90649999D01*
X155263000Y-93550001D01*
X155261796Y-93574505D01*
X155258196Y-93598773D01*
X155252235Y-93622572D01*
X155243970Y-93645671D01*
X155233480Y-93667850D01*
X155220868Y-93688893D01*
X155206253Y-93708599D01*
X155189777Y-93726777D01*
X155171599Y-93743253D01*
X155151893Y-93757868D01*
X155130850Y-93770480D01*
X155108671Y-93780970D01*
X155085572Y-93789235D01*
X155061773Y-93795196D01*
X155037505Y-93798796D01*
X155013001Y-93800000D01*
X154387999Y-93800000D01*
X154363495Y-93798796D01*
X154339227Y-93795196D01*
X154315428Y-93789235D01*
X154292329Y-93780970D01*
X154270150Y-93770480D01*
X154249107Y-93757868D01*
X154229401Y-93743253D01*
X154211223Y-93726777D01*
X154194747Y-93708599D01*
X154180132Y-93688893D01*
X154167520Y-93667850D01*
X154157030Y-93645671D01*
X154148765Y-93622572D01*
X154142804Y-93598773D01*
X154139204Y-93574505D01*
X154138000Y-93550001D01*
X154138000Y-90649999D01*
X154139204Y-90625495D01*
X154142804Y-90601227D01*
X154148765Y-90577428D01*
X154157030Y-90554329D01*
X154167520Y-90532150D01*
X154180132Y-90511107D01*
X154194747Y-90491401D01*
X154211223Y-90473223D01*
X154229401Y-90456747D01*
X154249107Y-90442132D01*
X154270150Y-90429520D01*
X154292329Y-90419030D01*
X154315428Y-90410765D01*
X154339227Y-90404804D01*
X154363495Y-90401204D01*
X154387999Y-90400000D01*
X155013001Y-90400000D01*
X155037505Y-90401204D01*
X155037505Y-90401204D01*
G37*
D12*
X154700500Y-92100000D03*
D10*
G36*
X159312505Y-90401204D02*
X159336773Y-90404804D01*
X159360572Y-90410765D01*
X159383671Y-90419030D01*
X159405850Y-90429520D01*
X159426893Y-90442132D01*
X159446599Y-90456747D01*
X159464777Y-90473223D01*
X159481253Y-90491401D01*
X159495868Y-90511107D01*
X159508480Y-90532150D01*
X159518970Y-90554329D01*
X159527235Y-90577428D01*
X159533196Y-90601227D01*
X159536796Y-90625495D01*
X159538000Y-90649999D01*
X159538000Y-93550001D01*
X159536796Y-93574505D01*
X159533196Y-93598773D01*
X159527235Y-93622572D01*
X159518970Y-93645671D01*
X159508480Y-93667850D01*
X159495868Y-93688893D01*
X159481253Y-93708599D01*
X159464777Y-93726777D01*
X159446599Y-93743253D01*
X159426893Y-93757868D01*
X159405850Y-93770480D01*
X159383671Y-93780970D01*
X159360572Y-93789235D01*
X159336773Y-93795196D01*
X159312505Y-93798796D01*
X159288001Y-93800000D01*
X158662999Y-93800000D01*
X158638495Y-93798796D01*
X158614227Y-93795196D01*
X158590428Y-93789235D01*
X158567329Y-93780970D01*
X158545150Y-93770480D01*
X158524107Y-93757868D01*
X158504401Y-93743253D01*
X158486223Y-93726777D01*
X158469747Y-93708599D01*
X158455132Y-93688893D01*
X158442520Y-93667850D01*
X158432030Y-93645671D01*
X158423765Y-93622572D01*
X158417804Y-93598773D01*
X158414204Y-93574505D01*
X158413000Y-93550001D01*
X158413000Y-90649999D01*
X158414204Y-90625495D01*
X158417804Y-90601227D01*
X158423765Y-90577428D01*
X158432030Y-90554329D01*
X158442520Y-90532150D01*
X158455132Y-90511107D01*
X158469747Y-90491401D01*
X158486223Y-90473223D01*
X158504401Y-90456747D01*
X158524107Y-90442132D01*
X158545150Y-90429520D01*
X158567329Y-90419030D01*
X158590428Y-90410765D01*
X158614227Y-90404804D01*
X158638495Y-90401204D01*
X158662999Y-90400000D01*
X159288001Y-90400000D01*
X159312505Y-90401204D01*
X159312505Y-90401204D01*
G37*
D12*
X158975500Y-92100000D03*
G04 #@! TD*
D10*
G04 #@! TO.C,C1*
G36*
X141499504Y-43226204D02*
X141523773Y-43229804D01*
X141547571Y-43235765D01*
X141570671Y-43244030D01*
X141592849Y-43254520D01*
X141613893Y-43267133D01*
X141633598Y-43281747D01*
X141651777Y-43298223D01*
X141668253Y-43316402D01*
X141682867Y-43336107D01*
X141695480Y-43357151D01*
X141705970Y-43379329D01*
X141714235Y-43402429D01*
X141720196Y-43426227D01*
X141723796Y-43450496D01*
X141725000Y-43475000D01*
X141725000Y-44725000D01*
X141723796Y-44749504D01*
X141720196Y-44773773D01*
X141714235Y-44797571D01*
X141705970Y-44820671D01*
X141695480Y-44842849D01*
X141682867Y-44863893D01*
X141668253Y-44883598D01*
X141651777Y-44901777D01*
X141633598Y-44918253D01*
X141613893Y-44932867D01*
X141592849Y-44945480D01*
X141570671Y-44955970D01*
X141547571Y-44964235D01*
X141523773Y-44970196D01*
X141499504Y-44973796D01*
X141475000Y-44975000D01*
X140725000Y-44975000D01*
X140700496Y-44973796D01*
X140676227Y-44970196D01*
X140652429Y-44964235D01*
X140629329Y-44955970D01*
X140607151Y-44945480D01*
X140586107Y-44932867D01*
X140566402Y-44918253D01*
X140548223Y-44901777D01*
X140531747Y-44883598D01*
X140517133Y-44863893D01*
X140504520Y-44842849D01*
X140494030Y-44820671D01*
X140485765Y-44797571D01*
X140479804Y-44773773D01*
X140476204Y-44749504D01*
X140475000Y-44725000D01*
X140475000Y-43475000D01*
X140476204Y-43450496D01*
X140479804Y-43426227D01*
X140485765Y-43402429D01*
X140494030Y-43379329D01*
X140504520Y-43357151D01*
X140517133Y-43336107D01*
X140531747Y-43316402D01*
X140548223Y-43298223D01*
X140566402Y-43281747D01*
X140586107Y-43267133D01*
X140607151Y-43254520D01*
X140629329Y-43244030D01*
X140652429Y-43235765D01*
X140676227Y-43229804D01*
X140700496Y-43226204D01*
X140725000Y-43225000D01*
X141475000Y-43225000D01*
X141499504Y-43226204D01*
X141499504Y-43226204D01*
G37*
D11*
X141100000Y-44100000D03*
D10*
G36*
X138699504Y-43226204D02*
X138723773Y-43229804D01*
X138747571Y-43235765D01*
X138770671Y-43244030D01*
X138792849Y-43254520D01*
X138813893Y-43267133D01*
X138833598Y-43281747D01*
X138851777Y-43298223D01*
X138868253Y-43316402D01*
X138882867Y-43336107D01*
X138895480Y-43357151D01*
X138905970Y-43379329D01*
X138914235Y-43402429D01*
X138920196Y-43426227D01*
X138923796Y-43450496D01*
X138925000Y-43475000D01*
X138925000Y-44725000D01*
X138923796Y-44749504D01*
X138920196Y-44773773D01*
X138914235Y-44797571D01*
X138905970Y-44820671D01*
X138895480Y-44842849D01*
X138882867Y-44863893D01*
X138868253Y-44883598D01*
X138851777Y-44901777D01*
X138833598Y-44918253D01*
X138813893Y-44932867D01*
X138792849Y-44945480D01*
X138770671Y-44955970D01*
X138747571Y-44964235D01*
X138723773Y-44970196D01*
X138699504Y-44973796D01*
X138675000Y-44975000D01*
X137925000Y-44975000D01*
X137900496Y-44973796D01*
X137876227Y-44970196D01*
X137852429Y-44964235D01*
X137829329Y-44955970D01*
X137807151Y-44945480D01*
X137786107Y-44932867D01*
X137766402Y-44918253D01*
X137748223Y-44901777D01*
X137731747Y-44883598D01*
X137717133Y-44863893D01*
X137704520Y-44842849D01*
X137694030Y-44820671D01*
X137685765Y-44797571D01*
X137679804Y-44773773D01*
X137676204Y-44749504D01*
X137675000Y-44725000D01*
X137675000Y-43475000D01*
X137676204Y-43450496D01*
X137679804Y-43426227D01*
X137685765Y-43402429D01*
X137694030Y-43379329D01*
X137704520Y-43357151D01*
X137717133Y-43336107D01*
X137731747Y-43316402D01*
X137748223Y-43298223D01*
X137766402Y-43281747D01*
X137786107Y-43267133D01*
X137807151Y-43254520D01*
X137829329Y-43244030D01*
X137852429Y-43235765D01*
X137876227Y-43229804D01*
X137900496Y-43226204D01*
X137925000Y-43225000D01*
X138675000Y-43225000D01*
X138699504Y-43226204D01*
X138699504Y-43226204D01*
G37*
D11*
X138300000Y-44100000D03*
G04 #@! TD*
D10*
G04 #@! TO.C,C6*
G36*
X149899504Y-70526204D02*
X149923773Y-70529804D01*
X149947571Y-70535765D01*
X149970671Y-70544030D01*
X149992849Y-70554520D01*
X150013893Y-70567133D01*
X150033598Y-70581747D01*
X150051777Y-70598223D01*
X150068253Y-70616402D01*
X150082867Y-70636107D01*
X150095480Y-70657151D01*
X150105970Y-70679329D01*
X150114235Y-70702429D01*
X150120196Y-70726227D01*
X150123796Y-70750496D01*
X150125000Y-70775000D01*
X150125000Y-72025000D01*
X150123796Y-72049504D01*
X150120196Y-72073773D01*
X150114235Y-72097571D01*
X150105970Y-72120671D01*
X150095480Y-72142849D01*
X150082867Y-72163893D01*
X150068253Y-72183598D01*
X150051777Y-72201777D01*
X150033598Y-72218253D01*
X150013893Y-72232867D01*
X149992849Y-72245480D01*
X149970671Y-72255970D01*
X149947571Y-72264235D01*
X149923773Y-72270196D01*
X149899504Y-72273796D01*
X149875000Y-72275000D01*
X149125000Y-72275000D01*
X149100496Y-72273796D01*
X149076227Y-72270196D01*
X149052429Y-72264235D01*
X149029329Y-72255970D01*
X149007151Y-72245480D01*
X148986107Y-72232867D01*
X148966402Y-72218253D01*
X148948223Y-72201777D01*
X148931747Y-72183598D01*
X148917133Y-72163893D01*
X148904520Y-72142849D01*
X148894030Y-72120671D01*
X148885765Y-72097571D01*
X148879804Y-72073773D01*
X148876204Y-72049504D01*
X148875000Y-72025000D01*
X148875000Y-70775000D01*
X148876204Y-70750496D01*
X148879804Y-70726227D01*
X148885765Y-70702429D01*
X148894030Y-70679329D01*
X148904520Y-70657151D01*
X148917133Y-70636107D01*
X148931747Y-70616402D01*
X148948223Y-70598223D01*
X148966402Y-70581747D01*
X148986107Y-70567133D01*
X149007151Y-70554520D01*
X149029329Y-70544030D01*
X149052429Y-70535765D01*
X149076227Y-70529804D01*
X149100496Y-70526204D01*
X149125000Y-70525000D01*
X149875000Y-70525000D01*
X149899504Y-70526204D01*
X149899504Y-70526204D01*
G37*
D11*
X149500000Y-71400000D03*
D10*
G36*
X147099504Y-70526204D02*
X147123773Y-70529804D01*
X147147571Y-70535765D01*
X147170671Y-70544030D01*
X147192849Y-70554520D01*
X147213893Y-70567133D01*
X147233598Y-70581747D01*
X147251777Y-70598223D01*
X147268253Y-70616402D01*
X147282867Y-70636107D01*
X147295480Y-70657151D01*
X147305970Y-70679329D01*
X147314235Y-70702429D01*
X147320196Y-70726227D01*
X147323796Y-70750496D01*
X147325000Y-70775000D01*
X147325000Y-72025000D01*
X147323796Y-72049504D01*
X147320196Y-72073773D01*
X147314235Y-72097571D01*
X147305970Y-72120671D01*
X147295480Y-72142849D01*
X147282867Y-72163893D01*
X147268253Y-72183598D01*
X147251777Y-72201777D01*
X147233598Y-72218253D01*
X147213893Y-72232867D01*
X147192849Y-72245480D01*
X147170671Y-72255970D01*
X147147571Y-72264235D01*
X147123773Y-72270196D01*
X147099504Y-72273796D01*
X147075000Y-72275000D01*
X146325000Y-72275000D01*
X146300496Y-72273796D01*
X146276227Y-72270196D01*
X146252429Y-72264235D01*
X146229329Y-72255970D01*
X146207151Y-72245480D01*
X146186107Y-72232867D01*
X146166402Y-72218253D01*
X146148223Y-72201777D01*
X146131747Y-72183598D01*
X146117133Y-72163893D01*
X146104520Y-72142849D01*
X146094030Y-72120671D01*
X146085765Y-72097571D01*
X146079804Y-72073773D01*
X146076204Y-72049504D01*
X146075000Y-72025000D01*
X146075000Y-70775000D01*
X146076204Y-70750496D01*
X146079804Y-70726227D01*
X146085765Y-70702429D01*
X146094030Y-70679329D01*
X146104520Y-70657151D01*
X146117133Y-70636107D01*
X146131747Y-70616402D01*
X146148223Y-70598223D01*
X146166402Y-70581747D01*
X146186107Y-70567133D01*
X146207151Y-70554520D01*
X146229329Y-70544030D01*
X146252429Y-70535765D01*
X146276227Y-70529804D01*
X146300496Y-70526204D01*
X146325000Y-70525000D01*
X147075000Y-70525000D01*
X147099504Y-70526204D01*
X147099504Y-70526204D01*
G37*
D11*
X146700000Y-71400000D03*
G04 #@! TD*
D10*
G04 #@! TO.C,C5*
G36*
X159649504Y-54976204D02*
X159673773Y-54979804D01*
X159697571Y-54985765D01*
X159720671Y-54994030D01*
X159742849Y-55004520D01*
X159763893Y-55017133D01*
X159783598Y-55031747D01*
X159801777Y-55048223D01*
X159818253Y-55066402D01*
X159832867Y-55086107D01*
X159845480Y-55107151D01*
X159855970Y-55129329D01*
X159864235Y-55152429D01*
X159870196Y-55176227D01*
X159873796Y-55200496D01*
X159875000Y-55225000D01*
X159875000Y-55975000D01*
X159873796Y-55999504D01*
X159870196Y-56023773D01*
X159864235Y-56047571D01*
X159855970Y-56070671D01*
X159845480Y-56092849D01*
X159832867Y-56113893D01*
X159818253Y-56133598D01*
X159801777Y-56151777D01*
X159783598Y-56168253D01*
X159763893Y-56182867D01*
X159742849Y-56195480D01*
X159720671Y-56205970D01*
X159697571Y-56214235D01*
X159673773Y-56220196D01*
X159649504Y-56223796D01*
X159625000Y-56225000D01*
X158375000Y-56225000D01*
X158350496Y-56223796D01*
X158326227Y-56220196D01*
X158302429Y-56214235D01*
X158279329Y-56205970D01*
X158257151Y-56195480D01*
X158236107Y-56182867D01*
X158216402Y-56168253D01*
X158198223Y-56151777D01*
X158181747Y-56133598D01*
X158167133Y-56113893D01*
X158154520Y-56092849D01*
X158144030Y-56070671D01*
X158135765Y-56047571D01*
X158129804Y-56023773D01*
X158126204Y-55999504D01*
X158125000Y-55975000D01*
X158125000Y-55225000D01*
X158126204Y-55200496D01*
X158129804Y-55176227D01*
X158135765Y-55152429D01*
X158144030Y-55129329D01*
X158154520Y-55107151D01*
X158167133Y-55086107D01*
X158181747Y-55066402D01*
X158198223Y-55048223D01*
X158216402Y-55031747D01*
X158236107Y-55017133D01*
X158257151Y-55004520D01*
X158279329Y-54994030D01*
X158302429Y-54985765D01*
X158326227Y-54979804D01*
X158350496Y-54976204D01*
X158375000Y-54975000D01*
X159625000Y-54975000D01*
X159649504Y-54976204D01*
X159649504Y-54976204D01*
G37*
D11*
X159000000Y-55600000D03*
D10*
G36*
X159649504Y-52176204D02*
X159673773Y-52179804D01*
X159697571Y-52185765D01*
X159720671Y-52194030D01*
X159742849Y-52204520D01*
X159763893Y-52217133D01*
X159783598Y-52231747D01*
X159801777Y-52248223D01*
X159818253Y-52266402D01*
X159832867Y-52286107D01*
X159845480Y-52307151D01*
X159855970Y-52329329D01*
X159864235Y-52352429D01*
X159870196Y-52376227D01*
X159873796Y-52400496D01*
X159875000Y-52425000D01*
X159875000Y-53175000D01*
X159873796Y-53199504D01*
X159870196Y-53223773D01*
X159864235Y-53247571D01*
X159855970Y-53270671D01*
X159845480Y-53292849D01*
X159832867Y-53313893D01*
X159818253Y-53333598D01*
X159801777Y-53351777D01*
X159783598Y-53368253D01*
X159763893Y-53382867D01*
X159742849Y-53395480D01*
X159720671Y-53405970D01*
X159697571Y-53414235D01*
X159673773Y-53420196D01*
X159649504Y-53423796D01*
X159625000Y-53425000D01*
X158375000Y-53425000D01*
X158350496Y-53423796D01*
X158326227Y-53420196D01*
X158302429Y-53414235D01*
X158279329Y-53405970D01*
X158257151Y-53395480D01*
X158236107Y-53382867D01*
X158216402Y-53368253D01*
X158198223Y-53351777D01*
X158181747Y-53333598D01*
X158167133Y-53313893D01*
X158154520Y-53292849D01*
X158144030Y-53270671D01*
X158135765Y-53247571D01*
X158129804Y-53223773D01*
X158126204Y-53199504D01*
X158125000Y-53175000D01*
X158125000Y-52425000D01*
X158126204Y-52400496D01*
X158129804Y-52376227D01*
X158135765Y-52352429D01*
X158144030Y-52329329D01*
X158154520Y-52307151D01*
X158167133Y-52286107D01*
X158181747Y-52266402D01*
X158198223Y-52248223D01*
X158216402Y-52231747D01*
X158236107Y-52217133D01*
X158257151Y-52204520D01*
X158279329Y-52194030D01*
X158302429Y-52185765D01*
X158326227Y-52179804D01*
X158350496Y-52176204D01*
X158375000Y-52175000D01*
X159625000Y-52175000D01*
X159649504Y-52176204D01*
X159649504Y-52176204D01*
G37*
D11*
X159000000Y-52800000D03*
G04 #@! TD*
D19*
G04 #@! TO.C,C12*
X113400000Y-69800000D03*
X113400000Y-77800000D03*
G04 #@! TD*
D20*
G04 #@! TO.C,C13*
X174000000Y-110000000D03*
X174000000Y-115600000D03*
G04 #@! TD*
D10*
G04 #@! TO.C,C14*
G36*
X178449504Y-142476204D02*
X178473773Y-142479804D01*
X178497571Y-142485765D01*
X178520671Y-142494030D01*
X178542849Y-142504520D01*
X178563893Y-142517133D01*
X178583598Y-142531747D01*
X178601777Y-142548223D01*
X178618253Y-142566402D01*
X178632867Y-142586107D01*
X178645480Y-142607151D01*
X178655970Y-142629329D01*
X178664235Y-142652429D01*
X178670196Y-142676227D01*
X178673796Y-142700496D01*
X178675000Y-142725000D01*
X178675000Y-143475000D01*
X178673796Y-143499504D01*
X178670196Y-143523773D01*
X178664235Y-143547571D01*
X178655970Y-143570671D01*
X178645480Y-143592849D01*
X178632867Y-143613893D01*
X178618253Y-143633598D01*
X178601777Y-143651777D01*
X178583598Y-143668253D01*
X178563893Y-143682867D01*
X178542849Y-143695480D01*
X178520671Y-143705970D01*
X178497571Y-143714235D01*
X178473773Y-143720196D01*
X178449504Y-143723796D01*
X178425000Y-143725000D01*
X177175000Y-143725000D01*
X177150496Y-143723796D01*
X177126227Y-143720196D01*
X177102429Y-143714235D01*
X177079329Y-143705970D01*
X177057151Y-143695480D01*
X177036107Y-143682867D01*
X177016402Y-143668253D01*
X176998223Y-143651777D01*
X176981747Y-143633598D01*
X176967133Y-143613893D01*
X176954520Y-143592849D01*
X176944030Y-143570671D01*
X176935765Y-143547571D01*
X176929804Y-143523773D01*
X176926204Y-143499504D01*
X176925000Y-143475000D01*
X176925000Y-142725000D01*
X176926204Y-142700496D01*
X176929804Y-142676227D01*
X176935765Y-142652429D01*
X176944030Y-142629329D01*
X176954520Y-142607151D01*
X176967133Y-142586107D01*
X176981747Y-142566402D01*
X176998223Y-142548223D01*
X177016402Y-142531747D01*
X177036107Y-142517133D01*
X177057151Y-142504520D01*
X177079329Y-142494030D01*
X177102429Y-142485765D01*
X177126227Y-142479804D01*
X177150496Y-142476204D01*
X177175000Y-142475000D01*
X178425000Y-142475000D01*
X178449504Y-142476204D01*
X178449504Y-142476204D01*
G37*
D11*
X177800000Y-143100000D03*
D10*
G36*
X178449504Y-145276204D02*
X178473773Y-145279804D01*
X178497571Y-145285765D01*
X178520671Y-145294030D01*
X178542849Y-145304520D01*
X178563893Y-145317133D01*
X178583598Y-145331747D01*
X178601777Y-145348223D01*
X178618253Y-145366402D01*
X178632867Y-145386107D01*
X178645480Y-145407151D01*
X178655970Y-145429329D01*
X178664235Y-145452429D01*
X178670196Y-145476227D01*
X178673796Y-145500496D01*
X178675000Y-145525000D01*
X178675000Y-146275000D01*
X178673796Y-146299504D01*
X178670196Y-146323773D01*
X178664235Y-146347571D01*
X178655970Y-146370671D01*
X178645480Y-146392849D01*
X178632867Y-146413893D01*
X178618253Y-146433598D01*
X178601777Y-146451777D01*
X178583598Y-146468253D01*
X178563893Y-146482867D01*
X178542849Y-146495480D01*
X178520671Y-146505970D01*
X178497571Y-146514235D01*
X178473773Y-146520196D01*
X178449504Y-146523796D01*
X178425000Y-146525000D01*
X177175000Y-146525000D01*
X177150496Y-146523796D01*
X177126227Y-146520196D01*
X177102429Y-146514235D01*
X177079329Y-146505970D01*
X177057151Y-146495480D01*
X177036107Y-146482867D01*
X177016402Y-146468253D01*
X176998223Y-146451777D01*
X176981747Y-146433598D01*
X176967133Y-146413893D01*
X176954520Y-146392849D01*
X176944030Y-146370671D01*
X176935765Y-146347571D01*
X176929804Y-146323773D01*
X176926204Y-146299504D01*
X176925000Y-146275000D01*
X176925000Y-145525000D01*
X176926204Y-145500496D01*
X176929804Y-145476227D01*
X176935765Y-145452429D01*
X176944030Y-145429329D01*
X176954520Y-145407151D01*
X176967133Y-145386107D01*
X176981747Y-145366402D01*
X176998223Y-145348223D01*
X177016402Y-145331747D01*
X177036107Y-145317133D01*
X177057151Y-145304520D01*
X177079329Y-145294030D01*
X177102429Y-145285765D01*
X177126227Y-145279804D01*
X177150496Y-145276204D01*
X177175000Y-145275000D01*
X178425000Y-145275000D01*
X178449504Y-145276204D01*
X178449504Y-145276204D01*
G37*
D11*
X177800000Y-145900000D03*
G04 #@! TD*
D10*
G04 #@! TO.C,C15*
G36*
X173349504Y-145176204D02*
X173373773Y-145179804D01*
X173397571Y-145185765D01*
X173420671Y-145194030D01*
X173442849Y-145204520D01*
X173463893Y-145217133D01*
X173483598Y-145231747D01*
X173501777Y-145248223D01*
X173518253Y-145266402D01*
X173532867Y-145286107D01*
X173545480Y-145307151D01*
X173555970Y-145329329D01*
X173564235Y-145352429D01*
X173570196Y-145376227D01*
X173573796Y-145400496D01*
X173575000Y-145425000D01*
X173575000Y-146175000D01*
X173573796Y-146199504D01*
X173570196Y-146223773D01*
X173564235Y-146247571D01*
X173555970Y-146270671D01*
X173545480Y-146292849D01*
X173532867Y-146313893D01*
X173518253Y-146333598D01*
X173501777Y-146351777D01*
X173483598Y-146368253D01*
X173463893Y-146382867D01*
X173442849Y-146395480D01*
X173420671Y-146405970D01*
X173397571Y-146414235D01*
X173373773Y-146420196D01*
X173349504Y-146423796D01*
X173325000Y-146425000D01*
X172075000Y-146425000D01*
X172050496Y-146423796D01*
X172026227Y-146420196D01*
X172002429Y-146414235D01*
X171979329Y-146405970D01*
X171957151Y-146395480D01*
X171936107Y-146382867D01*
X171916402Y-146368253D01*
X171898223Y-146351777D01*
X171881747Y-146333598D01*
X171867133Y-146313893D01*
X171854520Y-146292849D01*
X171844030Y-146270671D01*
X171835765Y-146247571D01*
X171829804Y-146223773D01*
X171826204Y-146199504D01*
X171825000Y-146175000D01*
X171825000Y-145425000D01*
X171826204Y-145400496D01*
X171829804Y-145376227D01*
X171835765Y-145352429D01*
X171844030Y-145329329D01*
X171854520Y-145307151D01*
X171867133Y-145286107D01*
X171881747Y-145266402D01*
X171898223Y-145248223D01*
X171916402Y-145231747D01*
X171936107Y-145217133D01*
X171957151Y-145204520D01*
X171979329Y-145194030D01*
X172002429Y-145185765D01*
X172026227Y-145179804D01*
X172050496Y-145176204D01*
X172075000Y-145175000D01*
X173325000Y-145175000D01*
X173349504Y-145176204D01*
X173349504Y-145176204D01*
G37*
D11*
X172700000Y-145800000D03*
D10*
G36*
X173349504Y-142376204D02*
X173373773Y-142379804D01*
X173397571Y-142385765D01*
X173420671Y-142394030D01*
X173442849Y-142404520D01*
X173463893Y-142417133D01*
X173483598Y-142431747D01*
X173501777Y-142448223D01*
X173518253Y-142466402D01*
X173532867Y-142486107D01*
X173545480Y-142507151D01*
X173555970Y-142529329D01*
X173564235Y-142552429D01*
X173570196Y-142576227D01*
X173573796Y-142600496D01*
X173575000Y-142625000D01*
X173575000Y-143375000D01*
X173573796Y-143399504D01*
X173570196Y-143423773D01*
X173564235Y-143447571D01*
X173555970Y-143470671D01*
X173545480Y-143492849D01*
X173532867Y-143513893D01*
X173518253Y-143533598D01*
X173501777Y-143551777D01*
X173483598Y-143568253D01*
X173463893Y-143582867D01*
X173442849Y-143595480D01*
X173420671Y-143605970D01*
X173397571Y-143614235D01*
X173373773Y-143620196D01*
X173349504Y-143623796D01*
X173325000Y-143625000D01*
X172075000Y-143625000D01*
X172050496Y-143623796D01*
X172026227Y-143620196D01*
X172002429Y-143614235D01*
X171979329Y-143605970D01*
X171957151Y-143595480D01*
X171936107Y-143582867D01*
X171916402Y-143568253D01*
X171898223Y-143551777D01*
X171881747Y-143533598D01*
X171867133Y-143513893D01*
X171854520Y-143492849D01*
X171844030Y-143470671D01*
X171835765Y-143447571D01*
X171829804Y-143423773D01*
X171826204Y-143399504D01*
X171825000Y-143375000D01*
X171825000Y-142625000D01*
X171826204Y-142600496D01*
X171829804Y-142576227D01*
X171835765Y-142552429D01*
X171844030Y-142529329D01*
X171854520Y-142507151D01*
X171867133Y-142486107D01*
X171881747Y-142466402D01*
X171898223Y-142448223D01*
X171916402Y-142431747D01*
X171936107Y-142417133D01*
X171957151Y-142404520D01*
X171979329Y-142394030D01*
X172002429Y-142385765D01*
X172026227Y-142379804D01*
X172050496Y-142376204D01*
X172075000Y-142375000D01*
X173325000Y-142375000D01*
X173349504Y-142376204D01*
X173349504Y-142376204D01*
G37*
D11*
X172700000Y-143000000D03*
G04 #@! TD*
D21*
G04 #@! TO.C,C16*
X187700000Y-112800000D03*
X182100000Y-112800000D03*
G04 #@! TD*
D19*
G04 #@! TO.C,C8*
X125500000Y-69700000D03*
X125500000Y-77700000D03*
G04 #@! TD*
D22*
G04 #@! TO.C,SW1*
X160890000Y-29195000D03*
X143110000Y-37805000D03*
X158350000Y-29195000D03*
X145650000Y-37805000D03*
X155810000Y-29195000D03*
X148190000Y-37805000D03*
X153270000Y-29195000D03*
X150730000Y-37805000D03*
X150730000Y-29195000D03*
X153270000Y-37805000D03*
X148190000Y-29195000D03*
X155810000Y-37805000D03*
X145650000Y-29195000D03*
X158350000Y-37805000D03*
X143110000Y-29195000D03*
X160890000Y-37805000D03*
G04 #@! TD*
D10*
G04 #@! TO.C,R1*
G36*
X143999504Y-84101204D02*
X144023773Y-84104804D01*
X144047571Y-84110765D01*
X144070671Y-84119030D01*
X144092849Y-84129520D01*
X144113893Y-84142133D01*
X144133598Y-84156747D01*
X144151777Y-84173223D01*
X144168253Y-84191402D01*
X144182867Y-84211107D01*
X144195480Y-84232151D01*
X144205970Y-84254329D01*
X144214235Y-84277429D01*
X144220196Y-84301227D01*
X144223796Y-84325496D01*
X144225000Y-84350000D01*
X144225000Y-87050000D01*
X144223796Y-87074504D01*
X144220196Y-87098773D01*
X144214235Y-87122571D01*
X144205970Y-87145671D01*
X144195480Y-87167849D01*
X144182867Y-87188893D01*
X144168253Y-87208598D01*
X144151777Y-87226777D01*
X144133598Y-87243253D01*
X144113893Y-87257867D01*
X144092849Y-87270480D01*
X144070671Y-87280970D01*
X144047571Y-87289235D01*
X144023773Y-87295196D01*
X143999504Y-87298796D01*
X143975000Y-87300000D01*
X140025000Y-87300000D01*
X140000496Y-87298796D01*
X139976227Y-87295196D01*
X139952429Y-87289235D01*
X139929329Y-87280970D01*
X139907151Y-87270480D01*
X139886107Y-87257867D01*
X139866402Y-87243253D01*
X139848223Y-87226777D01*
X139831747Y-87208598D01*
X139817133Y-87188893D01*
X139804520Y-87167849D01*
X139794030Y-87145671D01*
X139785765Y-87122571D01*
X139779804Y-87098773D01*
X139776204Y-87074504D01*
X139775000Y-87050000D01*
X139775000Y-84350000D01*
X139776204Y-84325496D01*
X139779804Y-84301227D01*
X139785765Y-84277429D01*
X139794030Y-84254329D01*
X139804520Y-84232151D01*
X139817133Y-84211107D01*
X139831747Y-84191402D01*
X139848223Y-84173223D01*
X139866402Y-84156747D01*
X139886107Y-84142133D01*
X139907151Y-84129520D01*
X139929329Y-84119030D01*
X139952429Y-84110765D01*
X139976227Y-84104804D01*
X140000496Y-84101204D01*
X140025000Y-84100000D01*
X143975000Y-84100000D01*
X143999504Y-84101204D01*
X143999504Y-84101204D01*
G37*
D23*
X142000000Y-85700000D03*
D10*
G36*
X143999504Y-78901204D02*
X144023773Y-78904804D01*
X144047571Y-78910765D01*
X144070671Y-78919030D01*
X144092849Y-78929520D01*
X144113893Y-78942133D01*
X144133598Y-78956747D01*
X144151777Y-78973223D01*
X144168253Y-78991402D01*
X144182867Y-79011107D01*
X144195480Y-79032151D01*
X144205970Y-79054329D01*
X144214235Y-79077429D01*
X144220196Y-79101227D01*
X144223796Y-79125496D01*
X144225000Y-79150000D01*
X144225000Y-81850000D01*
X144223796Y-81874504D01*
X144220196Y-81898773D01*
X144214235Y-81922571D01*
X144205970Y-81945671D01*
X144195480Y-81967849D01*
X144182867Y-81988893D01*
X144168253Y-82008598D01*
X144151777Y-82026777D01*
X144133598Y-82043253D01*
X144113893Y-82057867D01*
X144092849Y-82070480D01*
X144070671Y-82080970D01*
X144047571Y-82089235D01*
X144023773Y-82095196D01*
X143999504Y-82098796D01*
X143975000Y-82100000D01*
X140025000Y-82100000D01*
X140000496Y-82098796D01*
X139976227Y-82095196D01*
X139952429Y-82089235D01*
X139929329Y-82080970D01*
X139907151Y-82070480D01*
X139886107Y-82057867D01*
X139866402Y-82043253D01*
X139848223Y-82026777D01*
X139831747Y-82008598D01*
X139817133Y-81988893D01*
X139804520Y-81967849D01*
X139794030Y-81945671D01*
X139785765Y-81922571D01*
X139779804Y-81898773D01*
X139776204Y-81874504D01*
X139775000Y-81850000D01*
X139775000Y-79150000D01*
X139776204Y-79125496D01*
X139779804Y-79101227D01*
X139785765Y-79077429D01*
X139794030Y-79054329D01*
X139804520Y-79032151D01*
X139817133Y-79011107D01*
X139831747Y-78991402D01*
X139848223Y-78973223D01*
X139866402Y-78956747D01*
X139886107Y-78942133D01*
X139907151Y-78929520D01*
X139929329Y-78919030D01*
X139952429Y-78910765D01*
X139976227Y-78904804D01*
X140000496Y-78901204D01*
X140025000Y-78900000D01*
X143975000Y-78900000D01*
X143999504Y-78901204D01*
X143999504Y-78901204D01*
G37*
D23*
X142000000Y-80500000D03*
G04 #@! TD*
D10*
G04 #@! TO.C,R2*
G36*
X143999504Y-90201204D02*
X144023773Y-90204804D01*
X144047571Y-90210765D01*
X144070671Y-90219030D01*
X144092849Y-90229520D01*
X144113893Y-90242133D01*
X144133598Y-90256747D01*
X144151777Y-90273223D01*
X144168253Y-90291402D01*
X144182867Y-90311107D01*
X144195480Y-90332151D01*
X144205970Y-90354329D01*
X144214235Y-90377429D01*
X144220196Y-90401227D01*
X144223796Y-90425496D01*
X144225000Y-90450000D01*
X144225000Y-93150000D01*
X144223796Y-93174504D01*
X144220196Y-93198773D01*
X144214235Y-93222571D01*
X144205970Y-93245671D01*
X144195480Y-93267849D01*
X144182867Y-93288893D01*
X144168253Y-93308598D01*
X144151777Y-93326777D01*
X144133598Y-93343253D01*
X144113893Y-93357867D01*
X144092849Y-93370480D01*
X144070671Y-93380970D01*
X144047571Y-93389235D01*
X144023773Y-93395196D01*
X143999504Y-93398796D01*
X143975000Y-93400000D01*
X140025000Y-93400000D01*
X140000496Y-93398796D01*
X139976227Y-93395196D01*
X139952429Y-93389235D01*
X139929329Y-93380970D01*
X139907151Y-93370480D01*
X139886107Y-93357867D01*
X139866402Y-93343253D01*
X139848223Y-93326777D01*
X139831747Y-93308598D01*
X139817133Y-93288893D01*
X139804520Y-93267849D01*
X139794030Y-93245671D01*
X139785765Y-93222571D01*
X139779804Y-93198773D01*
X139776204Y-93174504D01*
X139775000Y-93150000D01*
X139775000Y-90450000D01*
X139776204Y-90425496D01*
X139779804Y-90401227D01*
X139785765Y-90377429D01*
X139794030Y-90354329D01*
X139804520Y-90332151D01*
X139817133Y-90311107D01*
X139831747Y-90291402D01*
X139848223Y-90273223D01*
X139866402Y-90256747D01*
X139886107Y-90242133D01*
X139907151Y-90229520D01*
X139929329Y-90219030D01*
X139952429Y-90210765D01*
X139976227Y-90204804D01*
X140000496Y-90201204D01*
X140025000Y-90200000D01*
X143975000Y-90200000D01*
X143999504Y-90201204D01*
X143999504Y-90201204D01*
G37*
D23*
X142000000Y-91800000D03*
D10*
G36*
X143999504Y-95401204D02*
X144023773Y-95404804D01*
X144047571Y-95410765D01*
X144070671Y-95419030D01*
X144092849Y-95429520D01*
X144113893Y-95442133D01*
X144133598Y-95456747D01*
X144151777Y-95473223D01*
X144168253Y-95491402D01*
X144182867Y-95511107D01*
X144195480Y-95532151D01*
X144205970Y-95554329D01*
X144214235Y-95577429D01*
X144220196Y-95601227D01*
X144223796Y-95625496D01*
X144225000Y-95650000D01*
X144225000Y-98350000D01*
X144223796Y-98374504D01*
X144220196Y-98398773D01*
X144214235Y-98422571D01*
X144205970Y-98445671D01*
X144195480Y-98467849D01*
X144182867Y-98488893D01*
X144168253Y-98508598D01*
X144151777Y-98526777D01*
X144133598Y-98543253D01*
X144113893Y-98557867D01*
X144092849Y-98570480D01*
X144070671Y-98580970D01*
X144047571Y-98589235D01*
X144023773Y-98595196D01*
X143999504Y-98598796D01*
X143975000Y-98600000D01*
X140025000Y-98600000D01*
X140000496Y-98598796D01*
X139976227Y-98595196D01*
X139952429Y-98589235D01*
X139929329Y-98580970D01*
X139907151Y-98570480D01*
X139886107Y-98557867D01*
X139866402Y-98543253D01*
X139848223Y-98526777D01*
X139831747Y-98508598D01*
X139817133Y-98488893D01*
X139804520Y-98467849D01*
X139794030Y-98445671D01*
X139785765Y-98422571D01*
X139779804Y-98398773D01*
X139776204Y-98374504D01*
X139775000Y-98350000D01*
X139775000Y-95650000D01*
X139776204Y-95625496D01*
X139779804Y-95601227D01*
X139785765Y-95577429D01*
X139794030Y-95554329D01*
X139804520Y-95532151D01*
X139817133Y-95511107D01*
X139831747Y-95491402D01*
X139848223Y-95473223D01*
X139866402Y-95456747D01*
X139886107Y-95442133D01*
X139907151Y-95429520D01*
X139929329Y-95419030D01*
X139952429Y-95410765D01*
X139976227Y-95404804D01*
X140000496Y-95401204D01*
X140025000Y-95400000D01*
X143975000Y-95400000D01*
X143999504Y-95401204D01*
X143999504Y-95401204D01*
G37*
D23*
X142000000Y-97000000D03*
G04 #@! TD*
D10*
G04 #@! TO.C,R3*
G36*
X122974504Y-108476204D02*
X122998773Y-108479804D01*
X123022571Y-108485765D01*
X123045671Y-108494030D01*
X123067849Y-108504520D01*
X123088893Y-108517133D01*
X123108598Y-108531747D01*
X123126777Y-108548223D01*
X123143253Y-108566402D01*
X123157867Y-108586107D01*
X123170480Y-108607151D01*
X123180970Y-108629329D01*
X123189235Y-108652429D01*
X123195196Y-108676227D01*
X123198796Y-108700496D01*
X123200000Y-108725000D01*
X123200000Y-112675000D01*
X123198796Y-112699504D01*
X123195196Y-112723773D01*
X123189235Y-112747571D01*
X123180970Y-112770671D01*
X123170480Y-112792849D01*
X123157867Y-112813893D01*
X123143253Y-112833598D01*
X123126777Y-112851777D01*
X123108598Y-112868253D01*
X123088893Y-112882867D01*
X123067849Y-112895480D01*
X123045671Y-112905970D01*
X123022571Y-112914235D01*
X122998773Y-112920196D01*
X122974504Y-112923796D01*
X122950000Y-112925000D01*
X120250000Y-112925000D01*
X120225496Y-112923796D01*
X120201227Y-112920196D01*
X120177429Y-112914235D01*
X120154329Y-112905970D01*
X120132151Y-112895480D01*
X120111107Y-112882867D01*
X120091402Y-112868253D01*
X120073223Y-112851777D01*
X120056747Y-112833598D01*
X120042133Y-112813893D01*
X120029520Y-112792849D01*
X120019030Y-112770671D01*
X120010765Y-112747571D01*
X120004804Y-112723773D01*
X120001204Y-112699504D01*
X120000000Y-112675000D01*
X120000000Y-108725000D01*
X120001204Y-108700496D01*
X120004804Y-108676227D01*
X120010765Y-108652429D01*
X120019030Y-108629329D01*
X120029520Y-108607151D01*
X120042133Y-108586107D01*
X120056747Y-108566402D01*
X120073223Y-108548223D01*
X120091402Y-108531747D01*
X120111107Y-108517133D01*
X120132151Y-108504520D01*
X120154329Y-108494030D01*
X120177429Y-108485765D01*
X120201227Y-108479804D01*
X120225496Y-108476204D01*
X120250000Y-108475000D01*
X122950000Y-108475000D01*
X122974504Y-108476204D01*
X122974504Y-108476204D01*
G37*
D23*
X121600000Y-110700000D03*
D10*
G36*
X128174504Y-108476204D02*
X128198773Y-108479804D01*
X128222571Y-108485765D01*
X128245671Y-108494030D01*
X128267849Y-108504520D01*
X128288893Y-108517133D01*
X128308598Y-108531747D01*
X128326777Y-108548223D01*
X128343253Y-108566402D01*
X128357867Y-108586107D01*
X128370480Y-108607151D01*
X128380970Y-108629329D01*
X128389235Y-108652429D01*
X128395196Y-108676227D01*
X128398796Y-108700496D01*
X128400000Y-108725000D01*
X128400000Y-112675000D01*
X128398796Y-112699504D01*
X128395196Y-112723773D01*
X128389235Y-112747571D01*
X128380970Y-112770671D01*
X128370480Y-112792849D01*
X128357867Y-112813893D01*
X128343253Y-112833598D01*
X128326777Y-112851777D01*
X128308598Y-112868253D01*
X128288893Y-112882867D01*
X128267849Y-112895480D01*
X128245671Y-112905970D01*
X128222571Y-112914235D01*
X128198773Y-112920196D01*
X128174504Y-112923796D01*
X128150000Y-112925000D01*
X125450000Y-112925000D01*
X125425496Y-112923796D01*
X125401227Y-112920196D01*
X125377429Y-112914235D01*
X125354329Y-112905970D01*
X125332151Y-112895480D01*
X125311107Y-112882867D01*
X125291402Y-112868253D01*
X125273223Y-112851777D01*
X125256747Y-112833598D01*
X125242133Y-112813893D01*
X125229520Y-112792849D01*
X125219030Y-112770671D01*
X125210765Y-112747571D01*
X125204804Y-112723773D01*
X125201204Y-112699504D01*
X125200000Y-112675000D01*
X125200000Y-108725000D01*
X125201204Y-108700496D01*
X125204804Y-108676227D01*
X125210765Y-108652429D01*
X125219030Y-108629329D01*
X125229520Y-108607151D01*
X125242133Y-108586107D01*
X125256747Y-108566402D01*
X125273223Y-108548223D01*
X125291402Y-108531747D01*
X125311107Y-108517133D01*
X125332151Y-108504520D01*
X125354329Y-108494030D01*
X125377429Y-108485765D01*
X125401227Y-108479804D01*
X125425496Y-108476204D01*
X125450000Y-108475000D01*
X128150000Y-108475000D01*
X128174504Y-108476204D01*
X128174504Y-108476204D01*
G37*
D23*
X126800000Y-110700000D03*
G04 #@! TD*
D10*
G04 #@! TO.C,R4*
G36*
X110474504Y-108776204D02*
X110498773Y-108779804D01*
X110522571Y-108785765D01*
X110545671Y-108794030D01*
X110567849Y-108804520D01*
X110588893Y-108817133D01*
X110608598Y-108831747D01*
X110626777Y-108848223D01*
X110643253Y-108866402D01*
X110657867Y-108886107D01*
X110670480Y-108907151D01*
X110680970Y-108929329D01*
X110689235Y-108952429D01*
X110695196Y-108976227D01*
X110698796Y-109000496D01*
X110700000Y-109025000D01*
X110700000Y-112975000D01*
X110698796Y-112999504D01*
X110695196Y-113023773D01*
X110689235Y-113047571D01*
X110680970Y-113070671D01*
X110670480Y-113092849D01*
X110657867Y-113113893D01*
X110643253Y-113133598D01*
X110626777Y-113151777D01*
X110608598Y-113168253D01*
X110588893Y-113182867D01*
X110567849Y-113195480D01*
X110545671Y-113205970D01*
X110522571Y-113214235D01*
X110498773Y-113220196D01*
X110474504Y-113223796D01*
X110450000Y-113225000D01*
X107750000Y-113225000D01*
X107725496Y-113223796D01*
X107701227Y-113220196D01*
X107677429Y-113214235D01*
X107654329Y-113205970D01*
X107632151Y-113195480D01*
X107611107Y-113182867D01*
X107591402Y-113168253D01*
X107573223Y-113151777D01*
X107556747Y-113133598D01*
X107542133Y-113113893D01*
X107529520Y-113092849D01*
X107519030Y-113070671D01*
X107510765Y-113047571D01*
X107504804Y-113023773D01*
X107501204Y-112999504D01*
X107500000Y-112975000D01*
X107500000Y-109025000D01*
X107501204Y-109000496D01*
X107504804Y-108976227D01*
X107510765Y-108952429D01*
X107519030Y-108929329D01*
X107529520Y-108907151D01*
X107542133Y-108886107D01*
X107556747Y-108866402D01*
X107573223Y-108848223D01*
X107591402Y-108831747D01*
X107611107Y-108817133D01*
X107632151Y-108804520D01*
X107654329Y-108794030D01*
X107677429Y-108785765D01*
X107701227Y-108779804D01*
X107725496Y-108776204D01*
X107750000Y-108775000D01*
X110450000Y-108775000D01*
X110474504Y-108776204D01*
X110474504Y-108776204D01*
G37*
D23*
X109100000Y-111000000D03*
D10*
G36*
X115674504Y-108776204D02*
X115698773Y-108779804D01*
X115722571Y-108785765D01*
X115745671Y-108794030D01*
X115767849Y-108804520D01*
X115788893Y-108817133D01*
X115808598Y-108831747D01*
X115826777Y-108848223D01*
X115843253Y-108866402D01*
X115857867Y-108886107D01*
X115870480Y-108907151D01*
X115880970Y-108929329D01*
X115889235Y-108952429D01*
X115895196Y-108976227D01*
X115898796Y-109000496D01*
X115900000Y-109025000D01*
X115900000Y-112975000D01*
X115898796Y-112999504D01*
X115895196Y-113023773D01*
X115889235Y-113047571D01*
X115880970Y-113070671D01*
X115870480Y-113092849D01*
X115857867Y-113113893D01*
X115843253Y-113133598D01*
X115826777Y-113151777D01*
X115808598Y-113168253D01*
X115788893Y-113182867D01*
X115767849Y-113195480D01*
X115745671Y-113205970D01*
X115722571Y-113214235D01*
X115698773Y-113220196D01*
X115674504Y-113223796D01*
X115650000Y-113225000D01*
X112950000Y-113225000D01*
X112925496Y-113223796D01*
X112901227Y-113220196D01*
X112877429Y-113214235D01*
X112854329Y-113205970D01*
X112832151Y-113195480D01*
X112811107Y-113182867D01*
X112791402Y-113168253D01*
X112773223Y-113151777D01*
X112756747Y-113133598D01*
X112742133Y-113113893D01*
X112729520Y-113092849D01*
X112719030Y-113070671D01*
X112710765Y-113047571D01*
X112704804Y-113023773D01*
X112701204Y-112999504D01*
X112700000Y-112975000D01*
X112700000Y-109025000D01*
X112701204Y-109000496D01*
X112704804Y-108976227D01*
X112710765Y-108952429D01*
X112719030Y-108929329D01*
X112729520Y-108907151D01*
X112742133Y-108886107D01*
X112756747Y-108866402D01*
X112773223Y-108848223D01*
X112791402Y-108831747D01*
X112811107Y-108817133D01*
X112832151Y-108804520D01*
X112854329Y-108794030D01*
X112877429Y-108785765D01*
X112901227Y-108779804D01*
X112925496Y-108776204D01*
X112950000Y-108775000D01*
X115650000Y-108775000D01*
X115674504Y-108776204D01*
X115674504Y-108776204D01*
G37*
D23*
X114300000Y-111000000D03*
G04 #@! TD*
M02*
