M48
; DRILL file {KiCad 5.1.5+dfsg1-2build2} date Wed 20 May 2020 12:58:03 PM EDT
; FORMAT={-:-/ absolute / inch / decimal}
; #@! TF.CreationDate,2020-05-20T12:58:03-04:00
; #@! TF.GenerationSoftware,Kicad,Pcbnew,5.1.5+dfsg1-2build2
FMAT,2
INCH
T1C0.0157
T2C0.0350
T3C0.0394
T4C0.0433
T5C0.0520
T6C0.0850
T7C0.1280
T8C0.1181
%
G90
G05
T1
X4.5549Y-3.8704
X5.0601Y-3.1747
X5.0764Y-3.2368
X5.1049Y-3.2897
X5.1891Y-2.9672
X5.219Y-3.0517
X5.4984Y-2.1319
X5.5036Y-2.092
X5.7911Y-2.1412
X5.8054Y-1.7309
X5.8278Y-2.1143
X5.8566Y-2.1412
X5.9486Y-2.4191
X5.9567Y-1.8744
X5.9752Y-2.46
X5.9753Y-2.3888
X6.085Y-2.1012
X6.3031Y-3.5383
X6.3929Y-3.5433
T2
X3.8598Y-2.028
X3.8598Y-2.108
X3.8598Y-2.188
X3.8598Y-2.268
X3.9298Y-1.988
X3.9298Y-2.068
X3.9298Y-2.148
X3.9298Y-2.228
T3
X6.4488Y-1.8386
X6.4488Y-1.9386
X6.4488Y-2.0386
X6.4488Y-2.1386
X6.4488Y-2.2386
X6.4488Y-2.3386
X5.6051Y-4.2516
X5.7051Y-4.2516
X5.8051Y-4.2516
X5.9051Y-4.2516
X6.0051Y-4.2516
X6.1051Y-4.2516
X6.2051Y-4.2516
X6.3051Y-4.2516
X6.4051Y-4.2516
X6.5051Y-4.2516
X4.7748Y-1.2402
X4.7748Y-1.3402
X4.8748Y-1.2402
X4.8748Y-1.3402
X4.9748Y-1.2402
X4.9748Y-1.3402
X5.0748Y-1.2402
X5.0748Y-1.3402
T4
X4.5157Y-2.4843
X4.6157Y-2.4843
X4.7157Y-2.4843
T5
X7.1811Y-3.3465
X7.1811Y-3.5433
X7.1811Y-3.7402
X7.1811Y-3.937
X3.7795Y-2.9646
X3.7795Y-3.1614
X7.0787Y-1.3504
X7.2756Y-1.3504
X3.7677Y-3.7047
X3.7677Y-3.9016
X3.7756Y-5.1693
X3.7756Y-5.3661
X3.7598Y-4.4685
X3.7598Y-4.6654
X7.1811Y-4.9331
X7.1811Y-5.1299
X7.1811Y-5.3268
X7.1535Y-2.1378
X7.1535Y-2.3346
X7.1535Y-2.5315
X7.1535Y-2.7283
T6
X5.6051Y-5.6016
X6.5051Y-4.4016
T7
X3.7598Y-1.878
X3.7598Y-2.378
T8
X4.311Y-5.815
X7.7087Y-1.6693
X7.3386Y-5.815
X3.8346Y-1.3898
T0
M30
