G04 #@! TF.GenerationSoftware,KiCad,Pcbnew,5.0.1-33cea8e~66~ubuntu18.04.1*
G04 #@! TF.CreationDate,2018-10-17T12:33:42-04:00*
G04 #@! TF.ProjectId,BackPanel,4261636B50616E656C2E6B696361645F,rev?*
G04 #@! TF.SameCoordinates,Original*
G04 #@! TF.FileFunction,Soldermask,Top*
G04 #@! TF.FilePolarity,Negative*
%FSLAX46Y46*%
G04 Gerber Fmt 4.6, Leading zero omitted, Abs format (unit mm)*
G04 Created by KiCad (PCBNEW 5.0.1-33cea8e~66~ubuntu18.04.1) date Wed 17 Oct 2018 12:33:42 PM EDT*
%MOMM*%
%LPD*%
G01*
G04 APERTURE LIST*
%ADD10C,0.100000*%
G04 APERTURE END LIST*
D10*
G36*
X187231312Y-144959523D02*
X187749982Y-145174363D01*
X188216772Y-145486262D01*
X188613738Y-145883228D01*
X188925637Y-146350018D01*
X189140477Y-146868688D01*
X189250000Y-147419298D01*
X189250000Y-147980702D01*
X189140477Y-148531312D01*
X188925637Y-149049982D01*
X188613738Y-149516772D01*
X188216772Y-149913738D01*
X187749982Y-150225637D01*
X187231312Y-150440477D01*
X186680702Y-150550000D01*
X186119298Y-150550000D01*
X185568688Y-150440477D01*
X185050018Y-150225637D01*
X184583228Y-149913738D01*
X184186262Y-149516772D01*
X183874363Y-149049982D01*
X183659523Y-148531312D01*
X183550000Y-147980702D01*
X183550000Y-147419298D01*
X183659523Y-146868688D01*
X183874363Y-146350018D01*
X184186262Y-145883228D01*
X184583228Y-145486262D01*
X185050018Y-145174363D01*
X185568688Y-144959523D01*
X186119298Y-144850000D01*
X186680702Y-144850000D01*
X187231312Y-144959523D01*
X187231312Y-144959523D01*
G37*
G36*
X110331312Y-144959523D02*
X110849982Y-145174363D01*
X111316772Y-145486262D01*
X111713738Y-145883228D01*
X112025637Y-146350018D01*
X112240477Y-146868688D01*
X112350000Y-147419298D01*
X112350000Y-147980702D01*
X112240477Y-148531312D01*
X112025637Y-149049982D01*
X111713738Y-149516772D01*
X111316772Y-149913738D01*
X110849982Y-150225637D01*
X110331312Y-150440477D01*
X109780702Y-150550000D01*
X109219298Y-150550000D01*
X108668688Y-150440477D01*
X108150018Y-150225637D01*
X107683228Y-149913738D01*
X107286262Y-149516772D01*
X106974363Y-149049982D01*
X106759523Y-148531312D01*
X106650000Y-147980702D01*
X106650000Y-147419298D01*
X106759523Y-146868688D01*
X106974363Y-146350018D01*
X107286262Y-145883228D01*
X107683228Y-145486262D01*
X108150018Y-145174363D01*
X108668688Y-144959523D01*
X109219298Y-144850000D01*
X109780702Y-144850000D01*
X110331312Y-144959523D01*
X110331312Y-144959523D01*
G37*
G36*
X178669628Y-145080493D02*
X178717354Y-145094970D01*
X178761336Y-145118479D01*
X178799885Y-145150115D01*
X178831521Y-145188664D01*
X178855030Y-145232646D01*
X178869507Y-145280372D01*
X178875000Y-145336141D01*
X178875000Y-146463859D01*
X178869507Y-146519628D01*
X178855030Y-146567354D01*
X178831521Y-146611336D01*
X178799885Y-146649885D01*
X178761336Y-146681521D01*
X178717354Y-146705030D01*
X178669628Y-146719507D01*
X178613859Y-146725000D01*
X176986141Y-146725000D01*
X176930372Y-146719507D01*
X176882646Y-146705030D01*
X176838664Y-146681521D01*
X176800115Y-146649885D01*
X176768479Y-146611336D01*
X176744970Y-146567354D01*
X176730493Y-146519628D01*
X176725000Y-146463859D01*
X176725000Y-145336141D01*
X176730493Y-145280372D01*
X176744970Y-145232646D01*
X176768479Y-145188664D01*
X176800115Y-145150115D01*
X176838664Y-145118479D01*
X176882646Y-145094970D01*
X176930372Y-145080493D01*
X176986141Y-145075000D01*
X178613859Y-145075000D01*
X178669628Y-145080493D01*
X178669628Y-145080493D01*
G37*
G36*
X173569628Y-144980493D02*
X173617354Y-144994970D01*
X173661336Y-145018479D01*
X173699885Y-145050115D01*
X173731521Y-145088664D01*
X173755030Y-145132646D01*
X173769507Y-145180372D01*
X173775000Y-145236141D01*
X173775000Y-146363859D01*
X173769507Y-146419628D01*
X173755030Y-146467354D01*
X173731521Y-146511336D01*
X173699885Y-146549885D01*
X173661336Y-146581521D01*
X173617354Y-146605030D01*
X173569628Y-146619507D01*
X173513859Y-146625000D01*
X171886141Y-146625000D01*
X171830372Y-146619507D01*
X171782646Y-146605030D01*
X171738664Y-146581521D01*
X171700115Y-146549885D01*
X171668479Y-146511336D01*
X171644970Y-146467354D01*
X171630493Y-146419628D01*
X171625000Y-146363859D01*
X171625000Y-145236141D01*
X171630493Y-145180372D01*
X171644970Y-145132646D01*
X171668479Y-145088664D01*
X171700115Y-145050115D01*
X171738664Y-145018479D01*
X171782646Y-144994970D01*
X171830372Y-144980493D01*
X171886141Y-144975000D01*
X173513859Y-144975000D01*
X173569628Y-144980493D01*
X173569628Y-144980493D01*
G37*
G36*
X178669628Y-142280493D02*
X178717354Y-142294970D01*
X178761336Y-142318479D01*
X178799885Y-142350115D01*
X178831521Y-142388664D01*
X178855030Y-142432646D01*
X178869507Y-142480372D01*
X178875000Y-142536141D01*
X178875000Y-143663859D01*
X178869507Y-143719628D01*
X178855030Y-143767354D01*
X178831521Y-143811336D01*
X178799885Y-143849885D01*
X178761336Y-143881521D01*
X178717354Y-143905030D01*
X178669628Y-143919507D01*
X178613859Y-143925000D01*
X176986141Y-143925000D01*
X176930372Y-143919507D01*
X176882646Y-143905030D01*
X176838664Y-143881521D01*
X176800115Y-143849885D01*
X176768479Y-143811336D01*
X176744970Y-143767354D01*
X176730493Y-143719628D01*
X176725000Y-143663859D01*
X176725000Y-142536141D01*
X176730493Y-142480372D01*
X176744970Y-142432646D01*
X176768479Y-142388664D01*
X176800115Y-142350115D01*
X176838664Y-142318479D01*
X176882646Y-142294970D01*
X176930372Y-142280493D01*
X176986141Y-142275000D01*
X178613859Y-142275000D01*
X178669628Y-142280493D01*
X178669628Y-142280493D01*
G37*
G36*
X173569628Y-142180493D02*
X173617354Y-142194970D01*
X173661336Y-142218479D01*
X173699885Y-142250115D01*
X173731521Y-142288664D01*
X173755030Y-142332646D01*
X173769507Y-142380372D01*
X173775000Y-142436141D01*
X173775000Y-143563859D01*
X173769507Y-143619628D01*
X173755030Y-143667354D01*
X173731521Y-143711336D01*
X173699885Y-143749885D01*
X173661336Y-143781521D01*
X173617354Y-143805030D01*
X173569628Y-143819507D01*
X173513859Y-143825000D01*
X171886141Y-143825000D01*
X171830372Y-143819507D01*
X171782646Y-143805030D01*
X171738664Y-143781521D01*
X171700115Y-143749885D01*
X171668479Y-143711336D01*
X171644970Y-143667354D01*
X171630493Y-143619628D01*
X171625000Y-143563859D01*
X171625000Y-142436141D01*
X171630493Y-142380372D01*
X171644970Y-142332646D01*
X171668479Y-142288664D01*
X171700115Y-142250115D01*
X171738664Y-142218479D01*
X171782646Y-142194970D01*
X171830372Y-142180493D01*
X171886141Y-142175000D01*
X173513859Y-142175000D01*
X173569628Y-142180493D01*
X173569628Y-142180493D01*
G37*
G36*
X142617221Y-140895120D02*
X142780261Y-140927551D01*
X143036227Y-141033576D01*
X143036228Y-141033577D01*
X143266594Y-141187502D01*
X143462498Y-141383406D01*
X143462500Y-141383409D01*
X143616424Y-141613773D01*
X143722449Y-141869739D01*
X143754880Y-142032779D01*
X143776500Y-142141470D01*
X143776500Y-142418530D01*
X143759300Y-142505000D01*
X143722449Y-142690261D01*
X143616424Y-142946227D01*
X143616423Y-142946228D01*
X143462498Y-143176594D01*
X143266594Y-143372498D01*
X143266591Y-143372500D01*
X143036227Y-143526424D01*
X142780261Y-143632449D01*
X142622352Y-143663859D01*
X142508530Y-143686500D01*
X142231470Y-143686500D01*
X142117648Y-143663859D01*
X141959739Y-143632449D01*
X141703773Y-143526424D01*
X141473409Y-143372500D01*
X141473406Y-143372498D01*
X141277502Y-143176594D01*
X141123577Y-142946228D01*
X141123576Y-142946227D01*
X141017551Y-142690261D01*
X140980700Y-142505000D01*
X140963500Y-142418530D01*
X140963500Y-142141470D01*
X140985120Y-142032779D01*
X141017551Y-141869739D01*
X141123576Y-141613773D01*
X141277500Y-141383409D01*
X141277502Y-141383406D01*
X141473406Y-141187502D01*
X141703772Y-141033577D01*
X141703773Y-141033576D01*
X141959739Y-140927551D01*
X142122779Y-140895120D01*
X142231470Y-140873500D01*
X142508530Y-140873500D01*
X142617221Y-140895120D01*
X142617221Y-140895120D01*
G37*
G36*
X96983418Y-135113444D02*
X97123281Y-135127219D01*
X97347596Y-135195265D01*
X97554327Y-135305764D01*
X97735528Y-135454472D01*
X97884236Y-135635673D01*
X97994735Y-135842404D01*
X98062781Y-136066719D01*
X98085757Y-136300000D01*
X98062781Y-136533281D01*
X97994735Y-136757596D01*
X97884236Y-136964327D01*
X97735528Y-137145528D01*
X97554327Y-137294236D01*
X97347596Y-137404735D01*
X97123281Y-137472781D01*
X96983418Y-137486556D01*
X96948453Y-137490000D01*
X94851547Y-137490000D01*
X94816582Y-137486556D01*
X94676719Y-137472781D01*
X94452404Y-137404735D01*
X94245673Y-137294236D01*
X94064472Y-137145528D01*
X93915764Y-136964327D01*
X93805265Y-136757596D01*
X93737219Y-136533281D01*
X93714243Y-136300000D01*
X93737219Y-136066719D01*
X93805265Y-135842404D01*
X93915764Y-135635673D01*
X94064472Y-135454472D01*
X94245673Y-135305764D01*
X94452404Y-135195265D01*
X94676719Y-135127219D01*
X94816582Y-135113444D01*
X94851547Y-135110000D01*
X96948453Y-135110000D01*
X96983418Y-135113444D01*
X96983418Y-135113444D01*
G37*
G36*
X184580000Y-136490000D02*
X180220000Y-136490000D01*
X180220000Y-134110000D01*
X184580000Y-134110000D01*
X184580000Y-136490000D01*
X184580000Y-136490000D01*
G37*
G36*
X122819628Y-134480493D02*
X122867354Y-134494970D01*
X122911336Y-134518479D01*
X122949885Y-134550115D01*
X122981521Y-134588664D01*
X123005030Y-134632646D01*
X123019507Y-134680372D01*
X123025000Y-134736141D01*
X123025000Y-135863859D01*
X123019507Y-135919628D01*
X123005030Y-135967354D01*
X122981521Y-136011336D01*
X122949885Y-136049885D01*
X122911336Y-136081521D01*
X122867354Y-136105030D01*
X122819628Y-136119507D01*
X122763859Y-136125000D01*
X120236141Y-136125000D01*
X120180372Y-136119507D01*
X120132646Y-136105030D01*
X120088664Y-136081521D01*
X120050115Y-136049885D01*
X120018479Y-136011336D01*
X119994970Y-135967354D01*
X119980493Y-135919628D01*
X119975000Y-135863859D01*
X119975000Y-134736141D01*
X119980493Y-134680372D01*
X119994970Y-134632646D01*
X120018479Y-134588664D01*
X120050115Y-134550115D01*
X120088664Y-134518479D01*
X120132646Y-134494970D01*
X120180372Y-134480493D01*
X120236141Y-134475000D01*
X122763859Y-134475000D01*
X122819628Y-134480493D01*
X122819628Y-134480493D01*
G37*
G36*
X116119628Y-134380493D02*
X116167354Y-134394970D01*
X116211336Y-134418479D01*
X116249885Y-134450115D01*
X116281521Y-134488664D01*
X116305030Y-134532646D01*
X116319507Y-134580372D01*
X116325000Y-134636141D01*
X116325000Y-135763859D01*
X116319507Y-135819628D01*
X116305030Y-135867354D01*
X116281521Y-135911336D01*
X116249885Y-135949885D01*
X116211336Y-135981521D01*
X116167354Y-136005030D01*
X116119628Y-136019507D01*
X116063859Y-136025000D01*
X113536141Y-136025000D01*
X113480372Y-136019507D01*
X113432646Y-136005030D01*
X113388664Y-135981521D01*
X113350115Y-135949885D01*
X113318479Y-135911336D01*
X113294970Y-135867354D01*
X113280493Y-135819628D01*
X113275000Y-135763859D01*
X113275000Y-134636141D01*
X113280493Y-134580372D01*
X113294970Y-134532646D01*
X113318479Y-134488664D01*
X113350115Y-134450115D01*
X113388664Y-134418479D01*
X113432646Y-134394970D01*
X113480372Y-134380493D01*
X113536141Y-134375000D01*
X116063859Y-134375000D01*
X116119628Y-134380493D01*
X116119628Y-134380493D01*
G37*
G36*
X122819628Y-131680493D02*
X122867354Y-131694970D01*
X122911336Y-131718479D01*
X122949885Y-131750115D01*
X122981521Y-131788664D01*
X123005030Y-131832646D01*
X123019507Y-131880372D01*
X123025000Y-131936141D01*
X123025000Y-133063859D01*
X123019507Y-133119628D01*
X123005030Y-133167354D01*
X122981521Y-133211336D01*
X122949885Y-133249885D01*
X122911336Y-133281521D01*
X122867354Y-133305030D01*
X122819628Y-133319507D01*
X122763859Y-133325000D01*
X120236141Y-133325000D01*
X120180372Y-133319507D01*
X120132646Y-133305030D01*
X120088664Y-133281521D01*
X120050115Y-133249885D01*
X120018479Y-133211336D01*
X119994970Y-133167354D01*
X119980493Y-133119628D01*
X119975000Y-133063859D01*
X119975000Y-131936141D01*
X119980493Y-131880372D01*
X119994970Y-131832646D01*
X120018479Y-131788664D01*
X120050115Y-131750115D01*
X120088664Y-131718479D01*
X120132646Y-131694970D01*
X120180372Y-131680493D01*
X120236141Y-131675000D01*
X122763859Y-131675000D01*
X122819628Y-131680493D01*
X122819628Y-131680493D01*
G37*
G36*
X116119628Y-131580493D02*
X116167354Y-131594970D01*
X116211336Y-131618479D01*
X116249885Y-131650115D01*
X116281521Y-131688664D01*
X116305030Y-131732646D01*
X116319507Y-131780372D01*
X116325000Y-131836141D01*
X116325000Y-132963859D01*
X116319507Y-133019628D01*
X116305030Y-133067354D01*
X116281521Y-133111336D01*
X116249885Y-133149885D01*
X116211336Y-133181521D01*
X116167354Y-133205030D01*
X116119628Y-133219507D01*
X116063859Y-133225000D01*
X113536141Y-133225000D01*
X113480372Y-133219507D01*
X113432646Y-133205030D01*
X113388664Y-133181521D01*
X113350115Y-133149885D01*
X113318479Y-133111336D01*
X113294970Y-133067354D01*
X113280493Y-133019628D01*
X113275000Y-132963859D01*
X113275000Y-131836141D01*
X113280493Y-131780372D01*
X113294970Y-131732646D01*
X113318479Y-131688664D01*
X113350115Y-131650115D01*
X113388664Y-131618479D01*
X113432646Y-131594970D01*
X113480372Y-131580493D01*
X113536141Y-131575000D01*
X116063859Y-131575000D01*
X116119628Y-131580493D01*
X116119628Y-131580493D01*
G37*
G36*
X98080000Y-132490000D02*
X93720000Y-132490000D01*
X93720000Y-130110000D01*
X98080000Y-130110000D01*
X98080000Y-132490000D01*
X98080000Y-132490000D01*
G37*
G36*
X183483418Y-129113444D02*
X183623281Y-129127219D01*
X183847596Y-129195265D01*
X184054327Y-129305764D01*
X184235528Y-129454472D01*
X184384236Y-129635673D01*
X184494735Y-129842404D01*
X184562781Y-130066719D01*
X184585757Y-130300000D01*
X184562781Y-130533281D01*
X184494735Y-130757596D01*
X184384236Y-130964327D01*
X184235528Y-131145528D01*
X184054327Y-131294236D01*
X183847596Y-131404735D01*
X183623281Y-131472781D01*
X183483418Y-131486556D01*
X183448453Y-131490000D01*
X181351547Y-131490000D01*
X181316582Y-131486556D01*
X181176719Y-131472781D01*
X180952404Y-131404735D01*
X180745673Y-131294236D01*
X180564472Y-131145528D01*
X180415764Y-130964327D01*
X180305265Y-130757596D01*
X180237219Y-130533281D01*
X180214243Y-130300000D01*
X180237219Y-130066719D01*
X180305265Y-129842404D01*
X180415764Y-129635673D01*
X180564472Y-129454472D01*
X180745673Y-129305764D01*
X180952404Y-129195265D01*
X181176719Y-129127219D01*
X181316582Y-129113444D01*
X181351547Y-129110000D01*
X183448453Y-129110000D01*
X183483418Y-129113444D01*
X183483418Y-129113444D01*
G37*
G36*
X123183002Y-125718770D02*
X123233437Y-125734069D01*
X123279913Y-125758912D01*
X123320654Y-125792346D01*
X123354088Y-125833087D01*
X123378931Y-125879563D01*
X123394230Y-125929998D01*
X123400000Y-125988584D01*
X123400000Y-126962416D01*
X123394230Y-127021002D01*
X123378931Y-127071437D01*
X123354088Y-127117913D01*
X123320654Y-127158654D01*
X123279913Y-127192088D01*
X123233437Y-127216931D01*
X123183002Y-127232230D01*
X123124416Y-127238000D01*
X119875584Y-127238000D01*
X119816998Y-127232230D01*
X119766563Y-127216931D01*
X119720087Y-127192088D01*
X119679346Y-127158654D01*
X119645912Y-127117913D01*
X119621069Y-127071437D01*
X119605770Y-127021002D01*
X119600000Y-126962416D01*
X119600000Y-125988584D01*
X119605770Y-125929998D01*
X119621069Y-125879563D01*
X119645912Y-125833087D01*
X119679346Y-125792346D01*
X119720087Y-125758912D01*
X119766563Y-125734069D01*
X119816998Y-125718770D01*
X119875584Y-125713000D01*
X123124416Y-125713000D01*
X123183002Y-125718770D01*
X123183002Y-125718770D01*
G37*
G36*
X116183002Y-125642770D02*
X116233437Y-125658069D01*
X116279913Y-125682912D01*
X116320654Y-125716346D01*
X116354088Y-125757087D01*
X116378931Y-125803563D01*
X116394230Y-125853998D01*
X116400000Y-125912584D01*
X116400000Y-126886416D01*
X116394230Y-126945002D01*
X116378931Y-126995437D01*
X116354088Y-127041913D01*
X116320654Y-127082654D01*
X116279913Y-127116088D01*
X116233437Y-127140931D01*
X116183002Y-127156230D01*
X116124416Y-127162000D01*
X112875584Y-127162000D01*
X112816998Y-127156230D01*
X112766563Y-127140931D01*
X112720087Y-127116088D01*
X112679346Y-127082654D01*
X112645912Y-127041913D01*
X112621069Y-126995437D01*
X112605770Y-126945002D01*
X112600000Y-126886416D01*
X112600000Y-125912584D01*
X112605770Y-125853998D01*
X112621069Y-125803563D01*
X112645912Y-125757087D01*
X112679346Y-125716346D01*
X112720087Y-125682912D01*
X112766563Y-125658069D01*
X112816998Y-125642770D01*
X112875584Y-125637000D01*
X116124416Y-125637000D01*
X116183002Y-125642770D01*
X116183002Y-125642770D01*
G37*
G36*
X183483418Y-124113444D02*
X183623281Y-124127219D01*
X183847596Y-124195265D01*
X184054327Y-124305764D01*
X184235528Y-124454472D01*
X184384236Y-124635673D01*
X184494735Y-124842404D01*
X184562781Y-125066719D01*
X184585757Y-125300000D01*
X184562781Y-125533281D01*
X184494735Y-125757596D01*
X184384236Y-125964327D01*
X184235528Y-126145528D01*
X184054327Y-126294236D01*
X183847596Y-126404735D01*
X183623281Y-126472781D01*
X183483418Y-126486556D01*
X183448453Y-126490000D01*
X181351547Y-126490000D01*
X181316582Y-126486556D01*
X181176719Y-126472781D01*
X180952404Y-126404735D01*
X180745673Y-126294236D01*
X180564472Y-126145528D01*
X180415764Y-125964327D01*
X180305265Y-125757596D01*
X180237219Y-125533281D01*
X180214243Y-125300000D01*
X180237219Y-125066719D01*
X180305265Y-124842404D01*
X180415764Y-124635673D01*
X180564472Y-124454472D01*
X180745673Y-124305764D01*
X180952404Y-124195265D01*
X181176719Y-124127219D01*
X181316582Y-124113444D01*
X181351547Y-124110000D01*
X183448453Y-124110000D01*
X183483418Y-124113444D01*
X183483418Y-124113444D01*
G37*
G36*
X123183002Y-121443770D02*
X123233437Y-121459069D01*
X123279913Y-121483912D01*
X123320654Y-121517346D01*
X123354088Y-121558087D01*
X123378931Y-121604563D01*
X123394230Y-121654998D01*
X123400000Y-121713584D01*
X123400000Y-122687416D01*
X123394230Y-122746002D01*
X123378931Y-122796437D01*
X123354088Y-122842913D01*
X123320654Y-122883654D01*
X123279913Y-122917088D01*
X123233437Y-122941931D01*
X123183002Y-122957230D01*
X123124416Y-122963000D01*
X119875584Y-122963000D01*
X119816998Y-122957230D01*
X119766563Y-122941931D01*
X119720087Y-122917088D01*
X119679346Y-122883654D01*
X119645912Y-122842913D01*
X119621069Y-122796437D01*
X119605770Y-122746002D01*
X119600000Y-122687416D01*
X119600000Y-121713584D01*
X119605770Y-121654998D01*
X119621069Y-121604563D01*
X119645912Y-121558087D01*
X119679346Y-121517346D01*
X119720087Y-121483912D01*
X119766563Y-121459069D01*
X119816998Y-121443770D01*
X119875584Y-121438000D01*
X123124416Y-121438000D01*
X123183002Y-121443770D01*
X123183002Y-121443770D01*
G37*
G36*
X116183002Y-121367770D02*
X116233437Y-121383069D01*
X116279913Y-121407912D01*
X116320654Y-121441346D01*
X116354088Y-121482087D01*
X116378931Y-121528563D01*
X116394230Y-121578998D01*
X116400000Y-121637584D01*
X116400000Y-122611416D01*
X116394230Y-122670002D01*
X116378931Y-122720437D01*
X116354088Y-122766913D01*
X116320654Y-122807654D01*
X116279913Y-122841088D01*
X116233437Y-122865931D01*
X116183002Y-122881230D01*
X116124416Y-122887000D01*
X112875584Y-122887000D01*
X112816998Y-122881230D01*
X112766563Y-122865931D01*
X112720087Y-122841088D01*
X112679346Y-122807654D01*
X112645912Y-122766913D01*
X112621069Y-122720437D01*
X112605770Y-122670002D01*
X112600000Y-122611416D01*
X112600000Y-121637584D01*
X112605770Y-121578998D01*
X112621069Y-121528563D01*
X112645912Y-121482087D01*
X112679346Y-121441346D01*
X112720087Y-121407912D01*
X112766563Y-121383069D01*
X112816998Y-121367770D01*
X112875584Y-121362000D01*
X116124416Y-121362000D01*
X116183002Y-121367770D01*
X116183002Y-121367770D01*
G37*
G36*
X96583418Y-117313444D02*
X96723281Y-117327219D01*
X96947596Y-117395265D01*
X97154327Y-117505764D01*
X97335528Y-117654472D01*
X97484236Y-117835673D01*
X97594735Y-118042404D01*
X97662781Y-118266719D01*
X97685757Y-118500000D01*
X97662781Y-118733281D01*
X97594735Y-118957596D01*
X97484236Y-119164327D01*
X97335528Y-119345528D01*
X97154327Y-119494236D01*
X96947596Y-119604735D01*
X96723281Y-119672781D01*
X96583418Y-119686556D01*
X96548453Y-119690000D01*
X94451547Y-119690000D01*
X94416582Y-119686556D01*
X94276719Y-119672781D01*
X94052404Y-119604735D01*
X93845673Y-119494236D01*
X93664472Y-119345528D01*
X93515764Y-119164327D01*
X93405265Y-118957596D01*
X93337219Y-118733281D01*
X93314243Y-118500000D01*
X93337219Y-118266719D01*
X93405265Y-118042404D01*
X93515764Y-117835673D01*
X93664472Y-117654472D01*
X93845673Y-117505764D01*
X94052404Y-117395265D01*
X94276719Y-117327219D01*
X94416582Y-117313444D01*
X94451547Y-117310000D01*
X96548453Y-117310000D01*
X96583418Y-117313444D01*
X96583418Y-117313444D01*
G37*
G36*
X117700000Y-119150000D02*
X116500000Y-119150000D01*
X116500000Y-117850000D01*
X117700000Y-117850000D01*
X117700000Y-119150000D01*
X117700000Y-119150000D01*
G37*
G36*
X119600000Y-119150000D02*
X118400000Y-119150000D01*
X118400000Y-117850000D01*
X119600000Y-117850000D01*
X119600000Y-119150000D01*
X119600000Y-119150000D01*
G37*
G36*
X175000000Y-117550000D02*
X173000000Y-117550000D01*
X173000000Y-113650000D01*
X175000000Y-113650000D01*
X175000000Y-117550000D01*
X175000000Y-117550000D01*
G37*
G36*
X118650000Y-117150000D02*
X117450000Y-117150000D01*
X117450000Y-115850000D01*
X118650000Y-115850000D01*
X118650000Y-117150000D01*
X118650000Y-117150000D01*
G37*
G36*
X97680000Y-114690000D02*
X93320000Y-114690000D01*
X93320000Y-112310000D01*
X97680000Y-112310000D01*
X97680000Y-114690000D01*
X97680000Y-114690000D01*
G37*
G36*
X189650000Y-113800000D02*
X185750000Y-113800000D01*
X185750000Y-111800000D01*
X189650000Y-111800000D01*
X189650000Y-113800000D01*
X189650000Y-113800000D01*
G37*
G36*
X184050000Y-113800000D02*
X180150000Y-113800000D01*
X180150000Y-111800000D01*
X184050000Y-111800000D01*
X184050000Y-113800000D01*
X184050000Y-113800000D01*
G37*
G36*
X110758393Y-108578970D02*
X110791257Y-108588940D01*
X110821539Y-108605125D01*
X110848087Y-108626913D01*
X110869875Y-108653461D01*
X110886060Y-108683743D01*
X110896030Y-108716607D01*
X110900000Y-108756919D01*
X110900000Y-113243081D01*
X110896030Y-113283393D01*
X110886060Y-113316257D01*
X110869875Y-113346539D01*
X110848087Y-113373087D01*
X110821539Y-113394875D01*
X110791257Y-113411060D01*
X110758393Y-113421030D01*
X110718081Y-113425000D01*
X107481919Y-113425000D01*
X107441607Y-113421030D01*
X107408743Y-113411060D01*
X107378461Y-113394875D01*
X107351913Y-113373087D01*
X107330125Y-113346539D01*
X107313940Y-113316257D01*
X107303970Y-113283393D01*
X107300000Y-113243081D01*
X107300000Y-108756919D01*
X107303970Y-108716607D01*
X107313940Y-108683743D01*
X107330125Y-108653461D01*
X107351913Y-108626913D01*
X107378461Y-108605125D01*
X107408743Y-108588940D01*
X107441607Y-108578970D01*
X107481919Y-108575000D01*
X110718081Y-108575000D01*
X110758393Y-108578970D01*
X110758393Y-108578970D01*
G37*
G36*
X115958393Y-108578970D02*
X115991257Y-108588940D01*
X116021539Y-108605125D01*
X116048087Y-108626913D01*
X116069875Y-108653461D01*
X116086060Y-108683743D01*
X116096030Y-108716607D01*
X116100000Y-108756919D01*
X116100000Y-113243081D01*
X116096030Y-113283393D01*
X116086060Y-113316257D01*
X116069875Y-113346539D01*
X116048087Y-113373087D01*
X116021539Y-113394875D01*
X115991257Y-113411060D01*
X115958393Y-113421030D01*
X115918081Y-113425000D01*
X112681919Y-113425000D01*
X112641607Y-113421030D01*
X112608743Y-113411060D01*
X112578461Y-113394875D01*
X112551913Y-113373087D01*
X112530125Y-113346539D01*
X112513940Y-113316257D01*
X112503970Y-113283393D01*
X112500000Y-113243081D01*
X112500000Y-108756919D01*
X112503970Y-108716607D01*
X112513940Y-108683743D01*
X112530125Y-108653461D01*
X112551913Y-108626913D01*
X112578461Y-108605125D01*
X112608743Y-108588940D01*
X112641607Y-108578970D01*
X112681919Y-108575000D01*
X115918081Y-108575000D01*
X115958393Y-108578970D01*
X115958393Y-108578970D01*
G37*
G36*
X165477221Y-110415120D02*
X165640261Y-110447551D01*
X165896227Y-110553576D01*
X165896228Y-110553577D01*
X166126594Y-110707502D01*
X166322498Y-110903406D01*
X166322500Y-110903409D01*
X166476424Y-111133773D01*
X166582449Y-111389739D01*
X166636500Y-111661472D01*
X166636500Y-111938528D01*
X166582449Y-112210261D01*
X166476424Y-112466227D01*
X166476423Y-112466228D01*
X166322498Y-112696594D01*
X166126594Y-112892498D01*
X166126591Y-112892500D01*
X165896227Y-113046424D01*
X165640261Y-113152449D01*
X165477221Y-113184880D01*
X165368530Y-113206500D01*
X165091470Y-113206500D01*
X164982779Y-113184880D01*
X164819739Y-113152449D01*
X164563773Y-113046424D01*
X164333409Y-112892500D01*
X164333406Y-112892498D01*
X164137502Y-112696594D01*
X163983577Y-112466228D01*
X163983576Y-112466227D01*
X163877551Y-112210261D01*
X163823500Y-111938528D01*
X163823500Y-111661472D01*
X163877551Y-111389739D01*
X163983576Y-111133773D01*
X164137500Y-110903409D01*
X164137502Y-110903406D01*
X164333406Y-110707502D01*
X164563772Y-110553577D01*
X164563773Y-110553576D01*
X164819739Y-110447551D01*
X164982779Y-110415120D01*
X165091470Y-110393500D01*
X165368530Y-110393500D01*
X165477221Y-110415120D01*
X165477221Y-110415120D01*
G37*
G36*
X128458393Y-108278970D02*
X128491257Y-108288940D01*
X128521539Y-108305125D01*
X128548087Y-108326913D01*
X128569875Y-108353461D01*
X128586060Y-108383743D01*
X128596030Y-108416607D01*
X128600000Y-108456919D01*
X128600000Y-112943081D01*
X128596030Y-112983393D01*
X128586060Y-113016257D01*
X128569875Y-113046539D01*
X128548087Y-113073087D01*
X128521539Y-113094875D01*
X128491257Y-113111060D01*
X128458393Y-113121030D01*
X128418081Y-113125000D01*
X125181919Y-113125000D01*
X125141607Y-113121030D01*
X125108743Y-113111060D01*
X125078461Y-113094875D01*
X125051913Y-113073087D01*
X125030125Y-113046539D01*
X125013940Y-113016257D01*
X125003970Y-112983393D01*
X125000000Y-112943081D01*
X125000000Y-108456919D01*
X125003970Y-108416607D01*
X125013940Y-108383743D01*
X125030125Y-108353461D01*
X125051913Y-108326913D01*
X125078461Y-108305125D01*
X125108743Y-108288940D01*
X125141607Y-108278970D01*
X125181919Y-108275000D01*
X128418081Y-108275000D01*
X128458393Y-108278970D01*
X128458393Y-108278970D01*
G37*
G36*
X123258393Y-108278970D02*
X123291257Y-108288940D01*
X123321539Y-108305125D01*
X123348087Y-108326913D01*
X123369875Y-108353461D01*
X123386060Y-108383743D01*
X123396030Y-108416607D01*
X123400000Y-108456919D01*
X123400000Y-112943081D01*
X123396030Y-112983393D01*
X123386060Y-113016257D01*
X123369875Y-113046539D01*
X123348087Y-113073087D01*
X123321539Y-113094875D01*
X123291257Y-113111060D01*
X123258393Y-113121030D01*
X123218081Y-113125000D01*
X119981919Y-113125000D01*
X119941607Y-113121030D01*
X119908743Y-113111060D01*
X119878461Y-113094875D01*
X119851913Y-113073087D01*
X119830125Y-113046539D01*
X119813940Y-113016257D01*
X119803970Y-112983393D01*
X119800000Y-112943081D01*
X119800000Y-108456919D01*
X119803970Y-108416607D01*
X119813940Y-108383743D01*
X119830125Y-108353461D01*
X119851913Y-108326913D01*
X119878461Y-108305125D01*
X119908743Y-108288940D01*
X119941607Y-108278970D01*
X119981919Y-108275000D01*
X123218081Y-108275000D01*
X123258393Y-108278970D01*
X123258393Y-108278970D01*
G37*
G36*
X175000000Y-111950000D02*
X173000000Y-111950000D01*
X173000000Y-108050000D01*
X175000000Y-108050000D01*
X175000000Y-111950000D01*
X175000000Y-111950000D01*
G37*
G36*
X142650603Y-107064968D02*
X142650606Y-107064969D01*
X142650605Y-107064969D01*
X142825678Y-107137486D01*
X142825679Y-107137487D01*
X142983241Y-107242767D01*
X143117233Y-107376759D01*
X143117234Y-107376761D01*
X143222514Y-107534322D01*
X143278603Y-107669734D01*
X143295032Y-107709397D01*
X143332000Y-107895250D01*
X143332000Y-108084750D01*
X143295032Y-108270603D01*
X143284343Y-108296409D01*
X143222514Y-108445678D01*
X143222513Y-108445679D01*
X143117233Y-108603241D01*
X142983241Y-108737233D01*
X142966199Y-108748620D01*
X142825678Y-108842514D01*
X142690266Y-108898603D01*
X142650603Y-108915032D01*
X142464750Y-108952000D01*
X142275250Y-108952000D01*
X142089397Y-108915032D01*
X142049734Y-108898603D01*
X141914322Y-108842514D01*
X141773801Y-108748620D01*
X141756759Y-108737233D01*
X141622767Y-108603241D01*
X141517487Y-108445679D01*
X141517486Y-108445678D01*
X141455657Y-108296409D01*
X141444968Y-108270603D01*
X141408000Y-108084750D01*
X141408000Y-107895250D01*
X141444968Y-107709397D01*
X141461397Y-107669734D01*
X141517486Y-107534322D01*
X141622766Y-107376761D01*
X141622767Y-107376759D01*
X141756759Y-107242767D01*
X141914321Y-107137487D01*
X141914322Y-107137486D01*
X142089395Y-107064969D01*
X142089394Y-107064969D01*
X142089397Y-107064968D01*
X142275250Y-107028000D01*
X142464750Y-107028000D01*
X142650603Y-107064968D01*
X142650603Y-107064968D01*
G37*
G36*
X145190603Y-107064968D02*
X145190606Y-107064969D01*
X145190605Y-107064969D01*
X145365678Y-107137486D01*
X145365679Y-107137487D01*
X145523241Y-107242767D01*
X145657233Y-107376759D01*
X145657234Y-107376761D01*
X145762514Y-107534322D01*
X145818603Y-107669734D01*
X145835032Y-107709397D01*
X145872000Y-107895250D01*
X145872000Y-108084750D01*
X145835032Y-108270603D01*
X145824343Y-108296409D01*
X145762514Y-108445678D01*
X145762513Y-108445679D01*
X145657233Y-108603241D01*
X145523241Y-108737233D01*
X145506199Y-108748620D01*
X145365678Y-108842514D01*
X145230266Y-108898603D01*
X145190603Y-108915032D01*
X145004750Y-108952000D01*
X144815250Y-108952000D01*
X144629397Y-108915032D01*
X144589734Y-108898603D01*
X144454322Y-108842514D01*
X144313801Y-108748620D01*
X144296759Y-108737233D01*
X144162767Y-108603241D01*
X144057487Y-108445679D01*
X144057486Y-108445678D01*
X143995657Y-108296409D01*
X143984968Y-108270603D01*
X143948000Y-108084750D01*
X143948000Y-107895250D01*
X143984968Y-107709397D01*
X144001397Y-107669734D01*
X144057486Y-107534322D01*
X144162766Y-107376761D01*
X144162767Y-107376759D01*
X144296759Y-107242767D01*
X144454321Y-107137487D01*
X144454322Y-107137486D01*
X144629395Y-107064969D01*
X144629394Y-107064969D01*
X144629397Y-107064968D01*
X144815250Y-107028000D01*
X145004750Y-107028000D01*
X145190603Y-107064968D01*
X145190603Y-107064968D01*
G37*
G36*
X147730603Y-107064968D02*
X147730606Y-107064969D01*
X147730605Y-107064969D01*
X147905678Y-107137486D01*
X147905679Y-107137487D01*
X148063241Y-107242767D01*
X148197233Y-107376759D01*
X148197234Y-107376761D01*
X148302514Y-107534322D01*
X148358603Y-107669734D01*
X148375032Y-107709397D01*
X148412000Y-107895250D01*
X148412000Y-108084750D01*
X148375032Y-108270603D01*
X148364343Y-108296409D01*
X148302514Y-108445678D01*
X148302513Y-108445679D01*
X148197233Y-108603241D01*
X148063241Y-108737233D01*
X148046199Y-108748620D01*
X147905678Y-108842514D01*
X147770266Y-108898603D01*
X147730603Y-108915032D01*
X147544750Y-108952000D01*
X147355250Y-108952000D01*
X147169397Y-108915032D01*
X147129734Y-108898603D01*
X146994322Y-108842514D01*
X146853801Y-108748620D01*
X146836759Y-108737233D01*
X146702767Y-108603241D01*
X146597487Y-108445679D01*
X146597486Y-108445678D01*
X146535657Y-108296409D01*
X146524968Y-108270603D01*
X146488000Y-108084750D01*
X146488000Y-107895250D01*
X146524968Y-107709397D01*
X146541397Y-107669734D01*
X146597486Y-107534322D01*
X146702766Y-107376761D01*
X146702767Y-107376759D01*
X146836759Y-107242767D01*
X146994321Y-107137487D01*
X146994322Y-107137486D01*
X147169395Y-107064969D01*
X147169394Y-107064969D01*
X147169397Y-107064968D01*
X147355250Y-107028000D01*
X147544750Y-107028000D01*
X147730603Y-107064968D01*
X147730603Y-107064968D01*
G37*
G36*
X150270603Y-107064968D02*
X150270606Y-107064969D01*
X150270605Y-107064969D01*
X150445678Y-107137486D01*
X150445679Y-107137487D01*
X150603241Y-107242767D01*
X150737233Y-107376759D01*
X150737234Y-107376761D01*
X150842514Y-107534322D01*
X150898603Y-107669734D01*
X150915032Y-107709397D01*
X150952000Y-107895250D01*
X150952000Y-108084750D01*
X150915032Y-108270603D01*
X150904343Y-108296409D01*
X150842514Y-108445678D01*
X150842513Y-108445679D01*
X150737233Y-108603241D01*
X150603241Y-108737233D01*
X150586199Y-108748620D01*
X150445678Y-108842514D01*
X150310266Y-108898603D01*
X150270603Y-108915032D01*
X150084750Y-108952000D01*
X149895250Y-108952000D01*
X149709397Y-108915032D01*
X149669734Y-108898603D01*
X149534322Y-108842514D01*
X149393801Y-108748620D01*
X149376759Y-108737233D01*
X149242767Y-108603241D01*
X149137487Y-108445679D01*
X149137486Y-108445678D01*
X149075657Y-108296409D01*
X149064968Y-108270603D01*
X149028000Y-108084750D01*
X149028000Y-107895250D01*
X149064968Y-107709397D01*
X149081397Y-107669734D01*
X149137486Y-107534322D01*
X149242766Y-107376761D01*
X149242767Y-107376759D01*
X149376759Y-107242767D01*
X149534321Y-107137487D01*
X149534322Y-107137486D01*
X149709395Y-107064969D01*
X149709394Y-107064969D01*
X149709397Y-107064968D01*
X149895250Y-107028000D01*
X150084750Y-107028000D01*
X150270603Y-107064968D01*
X150270603Y-107064968D01*
G37*
G36*
X152810603Y-107064968D02*
X152810606Y-107064969D01*
X152810605Y-107064969D01*
X152985678Y-107137486D01*
X152985679Y-107137487D01*
X153143241Y-107242767D01*
X153277233Y-107376759D01*
X153277234Y-107376761D01*
X153382514Y-107534322D01*
X153438603Y-107669734D01*
X153455032Y-107709397D01*
X153492000Y-107895250D01*
X153492000Y-108084750D01*
X153455032Y-108270603D01*
X153444343Y-108296409D01*
X153382514Y-108445678D01*
X153382513Y-108445679D01*
X153277233Y-108603241D01*
X153143241Y-108737233D01*
X153126199Y-108748620D01*
X152985678Y-108842514D01*
X152850266Y-108898603D01*
X152810603Y-108915032D01*
X152624750Y-108952000D01*
X152435250Y-108952000D01*
X152249397Y-108915032D01*
X152209734Y-108898603D01*
X152074322Y-108842514D01*
X151933801Y-108748620D01*
X151916759Y-108737233D01*
X151782767Y-108603241D01*
X151677487Y-108445679D01*
X151677486Y-108445678D01*
X151615657Y-108296409D01*
X151604968Y-108270603D01*
X151568000Y-108084750D01*
X151568000Y-107895250D01*
X151604968Y-107709397D01*
X151621397Y-107669734D01*
X151677486Y-107534322D01*
X151782766Y-107376761D01*
X151782767Y-107376759D01*
X151916759Y-107242767D01*
X152074321Y-107137487D01*
X152074322Y-107137486D01*
X152249395Y-107064969D01*
X152249394Y-107064969D01*
X152249397Y-107064968D01*
X152435250Y-107028000D01*
X152624750Y-107028000D01*
X152810603Y-107064968D01*
X152810603Y-107064968D01*
G37*
G36*
X157890603Y-107064968D02*
X157890606Y-107064969D01*
X157890605Y-107064969D01*
X158065678Y-107137486D01*
X158065679Y-107137487D01*
X158223241Y-107242767D01*
X158357233Y-107376759D01*
X158357234Y-107376761D01*
X158462514Y-107534322D01*
X158518603Y-107669734D01*
X158535032Y-107709397D01*
X158572000Y-107895250D01*
X158572000Y-108084750D01*
X158535032Y-108270603D01*
X158524343Y-108296409D01*
X158462514Y-108445678D01*
X158462513Y-108445679D01*
X158357233Y-108603241D01*
X158223241Y-108737233D01*
X158206199Y-108748620D01*
X158065678Y-108842514D01*
X157930266Y-108898603D01*
X157890603Y-108915032D01*
X157704750Y-108952000D01*
X157515250Y-108952000D01*
X157329397Y-108915032D01*
X157289734Y-108898603D01*
X157154322Y-108842514D01*
X157013801Y-108748620D01*
X156996759Y-108737233D01*
X156862767Y-108603241D01*
X156757487Y-108445679D01*
X156757486Y-108445678D01*
X156695657Y-108296409D01*
X156684968Y-108270603D01*
X156648000Y-108084750D01*
X156648000Y-107895250D01*
X156684968Y-107709397D01*
X156701397Y-107669734D01*
X156757486Y-107534322D01*
X156862766Y-107376761D01*
X156862767Y-107376759D01*
X156996759Y-107242767D01*
X157154321Y-107137487D01*
X157154322Y-107137486D01*
X157329395Y-107064969D01*
X157329394Y-107064969D01*
X157329397Y-107064968D01*
X157515250Y-107028000D01*
X157704750Y-107028000D01*
X157890603Y-107064968D01*
X157890603Y-107064968D01*
G37*
G36*
X155350603Y-107064968D02*
X155350606Y-107064969D01*
X155350605Y-107064969D01*
X155525678Y-107137486D01*
X155525679Y-107137487D01*
X155683241Y-107242767D01*
X155817233Y-107376759D01*
X155817234Y-107376761D01*
X155922514Y-107534322D01*
X155978603Y-107669734D01*
X155995032Y-107709397D01*
X156032000Y-107895250D01*
X156032000Y-108084750D01*
X155995032Y-108270603D01*
X155984343Y-108296409D01*
X155922514Y-108445678D01*
X155922513Y-108445679D01*
X155817233Y-108603241D01*
X155683241Y-108737233D01*
X155666199Y-108748620D01*
X155525678Y-108842514D01*
X155390266Y-108898603D01*
X155350603Y-108915032D01*
X155164750Y-108952000D01*
X154975250Y-108952000D01*
X154789397Y-108915032D01*
X154749734Y-108898603D01*
X154614322Y-108842514D01*
X154473801Y-108748620D01*
X154456759Y-108737233D01*
X154322767Y-108603241D01*
X154217487Y-108445679D01*
X154217486Y-108445678D01*
X154155657Y-108296409D01*
X154144968Y-108270603D01*
X154108000Y-108084750D01*
X154108000Y-107895250D01*
X154144968Y-107709397D01*
X154161397Y-107669734D01*
X154217486Y-107534322D01*
X154322766Y-107376761D01*
X154322767Y-107376759D01*
X154456759Y-107242767D01*
X154614321Y-107137487D01*
X154614322Y-107137486D01*
X154789395Y-107064969D01*
X154789394Y-107064969D01*
X154789397Y-107064968D01*
X154975250Y-107028000D01*
X155164750Y-107028000D01*
X155350603Y-107064968D01*
X155350603Y-107064968D01*
G37*
G36*
X165510603Y-107064968D02*
X165510606Y-107064969D01*
X165510605Y-107064969D01*
X165685678Y-107137486D01*
X165685679Y-107137487D01*
X165843241Y-107242767D01*
X165977233Y-107376759D01*
X165977234Y-107376761D01*
X166082514Y-107534322D01*
X166138603Y-107669734D01*
X166155032Y-107709397D01*
X166192000Y-107895250D01*
X166192000Y-108084750D01*
X166155032Y-108270603D01*
X166144343Y-108296409D01*
X166082514Y-108445678D01*
X166082513Y-108445679D01*
X165977233Y-108603241D01*
X165843241Y-108737233D01*
X165826199Y-108748620D01*
X165685678Y-108842514D01*
X165550266Y-108898603D01*
X165510603Y-108915032D01*
X165324750Y-108952000D01*
X165135250Y-108952000D01*
X164949397Y-108915032D01*
X164909734Y-108898603D01*
X164774322Y-108842514D01*
X164633801Y-108748620D01*
X164616759Y-108737233D01*
X164482767Y-108603241D01*
X164377487Y-108445679D01*
X164377486Y-108445678D01*
X164315657Y-108296409D01*
X164304968Y-108270603D01*
X164268000Y-108084750D01*
X164268000Y-107895250D01*
X164304968Y-107709397D01*
X164321397Y-107669734D01*
X164377486Y-107534322D01*
X164482766Y-107376761D01*
X164482767Y-107376759D01*
X164616759Y-107242767D01*
X164774321Y-107137487D01*
X164774322Y-107137486D01*
X164949395Y-107064969D01*
X164949394Y-107064969D01*
X164949397Y-107064968D01*
X165135250Y-107028000D01*
X165324750Y-107028000D01*
X165510603Y-107064968D01*
X165510603Y-107064968D01*
G37*
G36*
X160430603Y-107064968D02*
X160430606Y-107064969D01*
X160430605Y-107064969D01*
X160605678Y-107137486D01*
X160605679Y-107137487D01*
X160763241Y-107242767D01*
X160897233Y-107376759D01*
X160897234Y-107376761D01*
X161002514Y-107534322D01*
X161058603Y-107669734D01*
X161075032Y-107709397D01*
X161112000Y-107895250D01*
X161112000Y-108084750D01*
X161075032Y-108270603D01*
X161064343Y-108296409D01*
X161002514Y-108445678D01*
X161002513Y-108445679D01*
X160897233Y-108603241D01*
X160763241Y-108737233D01*
X160746199Y-108748620D01*
X160605678Y-108842514D01*
X160470266Y-108898603D01*
X160430603Y-108915032D01*
X160244750Y-108952000D01*
X160055250Y-108952000D01*
X159869397Y-108915032D01*
X159829734Y-108898603D01*
X159694322Y-108842514D01*
X159553801Y-108748620D01*
X159536759Y-108737233D01*
X159402767Y-108603241D01*
X159297487Y-108445679D01*
X159297486Y-108445678D01*
X159235657Y-108296409D01*
X159224968Y-108270603D01*
X159188000Y-108084750D01*
X159188000Y-107895250D01*
X159224968Y-107709397D01*
X159241397Y-107669734D01*
X159297486Y-107534322D01*
X159402766Y-107376761D01*
X159402767Y-107376759D01*
X159536759Y-107242767D01*
X159694321Y-107137487D01*
X159694322Y-107137486D01*
X159869395Y-107064969D01*
X159869394Y-107064969D01*
X159869397Y-107064968D01*
X160055250Y-107028000D01*
X160244750Y-107028000D01*
X160430603Y-107064968D01*
X160430603Y-107064968D01*
G37*
G36*
X162970603Y-107064968D02*
X162970606Y-107064969D01*
X162970605Y-107064969D01*
X163145678Y-107137486D01*
X163145679Y-107137487D01*
X163303241Y-107242767D01*
X163437233Y-107376759D01*
X163437234Y-107376761D01*
X163542514Y-107534322D01*
X163598603Y-107669734D01*
X163615032Y-107709397D01*
X163652000Y-107895250D01*
X163652000Y-108084750D01*
X163615032Y-108270603D01*
X163604343Y-108296409D01*
X163542514Y-108445678D01*
X163542513Y-108445679D01*
X163437233Y-108603241D01*
X163303241Y-108737233D01*
X163286199Y-108748620D01*
X163145678Y-108842514D01*
X163010266Y-108898603D01*
X162970603Y-108915032D01*
X162784750Y-108952000D01*
X162595250Y-108952000D01*
X162409397Y-108915032D01*
X162369734Y-108898603D01*
X162234322Y-108842514D01*
X162093801Y-108748620D01*
X162076759Y-108737233D01*
X161942767Y-108603241D01*
X161837487Y-108445679D01*
X161837486Y-108445678D01*
X161775657Y-108296409D01*
X161764968Y-108270603D01*
X161728000Y-108084750D01*
X161728000Y-107895250D01*
X161764968Y-107709397D01*
X161781397Y-107669734D01*
X161837486Y-107534322D01*
X161942766Y-107376761D01*
X161942767Y-107376759D01*
X162076759Y-107242767D01*
X162234321Y-107137487D01*
X162234322Y-107137486D01*
X162409395Y-107064969D01*
X162409394Y-107064969D01*
X162409397Y-107064968D01*
X162595250Y-107028000D01*
X162784750Y-107028000D01*
X162970603Y-107064968D01*
X162970603Y-107064968D01*
G37*
G36*
X120005000Y-106075000D02*
X119005000Y-106075000D01*
X119005000Y-104125000D01*
X120005000Y-104125000D01*
X120005000Y-106075000D01*
X120005000Y-106075000D01*
G37*
G36*
X118735000Y-106075000D02*
X117735000Y-106075000D01*
X117735000Y-104125000D01*
X118735000Y-104125000D01*
X118735000Y-106075000D01*
X118735000Y-106075000D01*
G37*
G36*
X117465000Y-106075000D02*
X116465000Y-106075000D01*
X116465000Y-104125000D01*
X117465000Y-104125000D01*
X117465000Y-106075000D01*
X117465000Y-106075000D01*
G37*
G36*
X116195000Y-106075000D02*
X115195000Y-106075000D01*
X115195000Y-104125000D01*
X116195000Y-104125000D01*
X116195000Y-106075000D01*
X116195000Y-106075000D01*
G37*
G36*
X125469628Y-102880493D02*
X125517354Y-102894970D01*
X125561336Y-102918479D01*
X125599885Y-102950115D01*
X125631521Y-102988664D01*
X125655030Y-103032646D01*
X125669507Y-103080372D01*
X125675000Y-103136141D01*
X125675000Y-104263859D01*
X125669507Y-104319628D01*
X125655030Y-104367354D01*
X125631521Y-104411336D01*
X125599885Y-104449885D01*
X125561336Y-104481521D01*
X125517354Y-104505030D01*
X125469628Y-104519507D01*
X125413859Y-104525000D01*
X123786141Y-104525000D01*
X123730372Y-104519507D01*
X123682646Y-104505030D01*
X123638664Y-104481521D01*
X123600115Y-104449885D01*
X123568479Y-104411336D01*
X123544970Y-104367354D01*
X123530493Y-104319628D01*
X123525000Y-104263859D01*
X123525000Y-103136141D01*
X123530493Y-103080372D01*
X123544970Y-103032646D01*
X123568479Y-102988664D01*
X123600115Y-102950115D01*
X123638664Y-102918479D01*
X123682646Y-102894970D01*
X123730372Y-102880493D01*
X123786141Y-102875000D01*
X125413859Y-102875000D01*
X125469628Y-102880493D01*
X125469628Y-102880493D01*
G37*
G36*
X125469628Y-100080493D02*
X125517354Y-100094970D01*
X125561336Y-100118479D01*
X125599885Y-100150115D01*
X125631521Y-100188664D01*
X125655030Y-100232646D01*
X125669507Y-100280372D01*
X125675000Y-100336141D01*
X125675000Y-101463859D01*
X125669507Y-101519628D01*
X125655030Y-101567354D01*
X125631521Y-101611336D01*
X125599885Y-101649885D01*
X125561336Y-101681521D01*
X125517354Y-101705030D01*
X125469628Y-101719507D01*
X125413859Y-101725000D01*
X123786141Y-101725000D01*
X123730372Y-101719507D01*
X123682646Y-101705030D01*
X123638664Y-101681521D01*
X123600115Y-101649885D01*
X123568479Y-101611336D01*
X123544970Y-101567354D01*
X123530493Y-101519628D01*
X123525000Y-101463859D01*
X123525000Y-100336141D01*
X123530493Y-100280372D01*
X123544970Y-100232646D01*
X123568479Y-100188664D01*
X123600115Y-100150115D01*
X123638664Y-100118479D01*
X123682646Y-100094970D01*
X123730372Y-100080493D01*
X123786141Y-100075000D01*
X125413859Y-100075000D01*
X125469628Y-100080493D01*
X125469628Y-100080493D01*
G37*
G36*
X184580000Y-101190000D02*
X180220000Y-101190000D01*
X180220000Y-98810000D01*
X184580000Y-98810000D01*
X184580000Y-101190000D01*
X184580000Y-101190000D01*
G37*
G36*
X117465000Y-100675000D02*
X116465000Y-100675000D01*
X116465000Y-98725000D01*
X117465000Y-98725000D01*
X117465000Y-100675000D01*
X117465000Y-100675000D01*
G37*
G36*
X116195000Y-100675000D02*
X115195000Y-100675000D01*
X115195000Y-98725000D01*
X116195000Y-98725000D01*
X116195000Y-100675000D01*
X116195000Y-100675000D01*
G37*
G36*
X120005000Y-100675000D02*
X119005000Y-100675000D01*
X119005000Y-98725000D01*
X120005000Y-98725000D01*
X120005000Y-100675000D01*
X120005000Y-100675000D01*
G37*
G36*
X118735000Y-100675000D02*
X117735000Y-100675000D01*
X117735000Y-98725000D01*
X118735000Y-98725000D01*
X118735000Y-100675000D01*
X118735000Y-100675000D01*
G37*
G36*
X96783418Y-97913444D02*
X96923281Y-97927219D01*
X97147596Y-97995265D01*
X97354327Y-98105764D01*
X97535528Y-98254472D01*
X97684236Y-98435673D01*
X97781734Y-98618081D01*
X97793782Y-98640620D01*
X97794735Y-98642404D01*
X97862781Y-98866719D01*
X97885757Y-99100000D01*
X97862781Y-99333281D01*
X97794735Y-99557596D01*
X97684236Y-99764327D01*
X97535528Y-99945528D01*
X97354327Y-100094236D01*
X97147596Y-100204735D01*
X96923281Y-100272781D01*
X96783418Y-100286556D01*
X96748453Y-100290000D01*
X94651547Y-100290000D01*
X94616582Y-100286556D01*
X94476719Y-100272781D01*
X94252404Y-100204735D01*
X94045673Y-100094236D01*
X93864472Y-99945528D01*
X93715764Y-99764327D01*
X93605265Y-99557596D01*
X93537219Y-99333281D01*
X93514243Y-99100000D01*
X93537219Y-98866719D01*
X93605265Y-98642404D01*
X93606219Y-98640620D01*
X93618266Y-98618081D01*
X93715764Y-98435673D01*
X93864472Y-98254472D01*
X94045673Y-98105764D01*
X94252404Y-97995265D01*
X94476719Y-97927219D01*
X94616582Y-97913444D01*
X94651547Y-97910000D01*
X96748453Y-97910000D01*
X96783418Y-97913444D01*
X96783418Y-97913444D01*
G37*
G36*
X161419628Y-98380493D02*
X161467354Y-98394970D01*
X161511336Y-98418479D01*
X161549885Y-98450115D01*
X161581521Y-98488664D01*
X161605030Y-98532646D01*
X161619507Y-98580372D01*
X161625000Y-98636141D01*
X161625000Y-99763859D01*
X161619507Y-99819628D01*
X161605030Y-99867354D01*
X161581521Y-99911336D01*
X161549885Y-99949885D01*
X161511336Y-99981521D01*
X161467354Y-100005030D01*
X161419628Y-100019507D01*
X161363859Y-100025000D01*
X158836141Y-100025000D01*
X158780372Y-100019507D01*
X158732646Y-100005030D01*
X158688664Y-99981521D01*
X158650115Y-99949885D01*
X158618479Y-99911336D01*
X158594970Y-99867354D01*
X158580493Y-99819628D01*
X158575000Y-99763859D01*
X158575000Y-98636141D01*
X158580493Y-98580372D01*
X158594970Y-98532646D01*
X158618479Y-98488664D01*
X158650115Y-98450115D01*
X158688664Y-98418479D01*
X158732646Y-98394970D01*
X158780372Y-98380493D01*
X158836141Y-98375000D01*
X161363859Y-98375000D01*
X161419628Y-98380493D01*
X161419628Y-98380493D01*
G37*
G36*
X144283393Y-95203970D02*
X144316257Y-95213940D01*
X144346539Y-95230125D01*
X144373087Y-95251913D01*
X144394875Y-95278461D01*
X144411060Y-95308743D01*
X144421030Y-95341607D01*
X144425000Y-95381919D01*
X144425000Y-98618081D01*
X144421030Y-98658393D01*
X144411060Y-98691257D01*
X144394875Y-98721539D01*
X144373087Y-98748087D01*
X144346539Y-98769875D01*
X144316257Y-98786060D01*
X144283393Y-98796030D01*
X144243081Y-98800000D01*
X139756919Y-98800000D01*
X139716607Y-98796030D01*
X139683743Y-98786060D01*
X139653461Y-98769875D01*
X139626913Y-98748087D01*
X139605125Y-98721539D01*
X139588940Y-98691257D01*
X139578970Y-98658393D01*
X139575000Y-98618081D01*
X139575000Y-95381919D01*
X139578970Y-95341607D01*
X139588940Y-95308743D01*
X139605125Y-95278461D01*
X139626913Y-95251913D01*
X139653461Y-95230125D01*
X139683743Y-95213940D01*
X139716607Y-95203970D01*
X139756919Y-95200000D01*
X144243081Y-95200000D01*
X144283393Y-95203970D01*
X144283393Y-95203970D01*
G37*
G36*
X161419628Y-95580493D02*
X161467354Y-95594970D01*
X161511336Y-95618479D01*
X161549885Y-95650115D01*
X161581521Y-95688664D01*
X161605030Y-95732646D01*
X161619507Y-95780372D01*
X161625000Y-95836141D01*
X161625000Y-96963859D01*
X161619507Y-97019628D01*
X161605030Y-97067354D01*
X161581521Y-97111336D01*
X161549885Y-97149885D01*
X161511336Y-97181521D01*
X161467354Y-97205030D01*
X161419628Y-97219507D01*
X161363859Y-97225000D01*
X158836141Y-97225000D01*
X158780372Y-97219507D01*
X158732646Y-97205030D01*
X158688664Y-97181521D01*
X158650115Y-97149885D01*
X158618479Y-97111336D01*
X158594970Y-97067354D01*
X158580493Y-97019628D01*
X158575000Y-96963859D01*
X158575000Y-95836141D01*
X158580493Y-95780372D01*
X158594970Y-95732646D01*
X158618479Y-95688664D01*
X158650115Y-95650115D01*
X158688664Y-95618479D01*
X158732646Y-95594970D01*
X158780372Y-95580493D01*
X158836141Y-95575000D01*
X161363859Y-95575000D01*
X161419628Y-95580493D01*
X161419628Y-95580493D01*
G37*
G36*
X183483418Y-93813444D02*
X183623281Y-93827219D01*
X183847596Y-93895265D01*
X184054327Y-94005764D01*
X184235528Y-94154472D01*
X184384236Y-94335673D01*
X184494735Y-94542404D01*
X184562781Y-94766719D01*
X184585757Y-95000000D01*
X184562781Y-95233281D01*
X184494735Y-95457596D01*
X184384236Y-95664327D01*
X184235528Y-95845528D01*
X184054327Y-95994236D01*
X183847596Y-96104735D01*
X183623281Y-96172781D01*
X183483418Y-96186556D01*
X183448453Y-96190000D01*
X181351547Y-96190000D01*
X181316582Y-96186556D01*
X181176719Y-96172781D01*
X180952404Y-96104735D01*
X180745673Y-95994236D01*
X180564472Y-95845528D01*
X180415764Y-95664327D01*
X180305265Y-95457596D01*
X180237219Y-95233281D01*
X180214243Y-95000000D01*
X180237219Y-94766719D01*
X180305265Y-94542404D01*
X180415764Y-94335673D01*
X180564472Y-94154472D01*
X180745673Y-94005764D01*
X180952404Y-93895265D01*
X181176719Y-93827219D01*
X181316582Y-93813444D01*
X181351547Y-93810000D01*
X183448453Y-93810000D01*
X183483418Y-93813444D01*
X183483418Y-93813444D01*
G37*
G36*
X97880000Y-95290000D02*
X93520000Y-95290000D01*
X93520000Y-92910000D01*
X97880000Y-92910000D01*
X97880000Y-95290000D01*
X97880000Y-95290000D01*
G37*
G36*
X159521002Y-90205770D02*
X159571437Y-90221069D01*
X159617913Y-90245912D01*
X159658654Y-90279346D01*
X159692088Y-90320087D01*
X159716931Y-90366563D01*
X159732230Y-90416998D01*
X159738000Y-90475584D01*
X159738000Y-93724416D01*
X159732230Y-93783002D01*
X159716931Y-93833437D01*
X159692088Y-93879913D01*
X159658654Y-93920654D01*
X159617913Y-93954088D01*
X159571437Y-93978931D01*
X159521002Y-93994230D01*
X159462416Y-94000000D01*
X158488584Y-94000000D01*
X158429998Y-93994230D01*
X158379563Y-93978931D01*
X158333087Y-93954088D01*
X158292346Y-93920654D01*
X158258912Y-93879913D01*
X158234069Y-93833437D01*
X158218770Y-93783002D01*
X158213000Y-93724416D01*
X158213000Y-90475584D01*
X158218770Y-90416998D01*
X158234069Y-90366563D01*
X158258912Y-90320087D01*
X158292346Y-90279346D01*
X158333087Y-90245912D01*
X158379563Y-90221069D01*
X158429998Y-90205770D01*
X158488584Y-90200000D01*
X159462416Y-90200000D01*
X159521002Y-90205770D01*
X159521002Y-90205770D01*
G37*
G36*
X155246002Y-90205770D02*
X155296437Y-90221069D01*
X155342913Y-90245912D01*
X155383654Y-90279346D01*
X155417088Y-90320087D01*
X155441931Y-90366563D01*
X155457230Y-90416998D01*
X155463000Y-90475584D01*
X155463000Y-93724416D01*
X155457230Y-93783002D01*
X155441931Y-93833437D01*
X155417088Y-93879913D01*
X155383654Y-93920654D01*
X155342913Y-93954088D01*
X155296437Y-93978931D01*
X155246002Y-93994230D01*
X155187416Y-94000000D01*
X154213584Y-94000000D01*
X154154998Y-93994230D01*
X154104563Y-93978931D01*
X154058087Y-93954088D01*
X154017346Y-93920654D01*
X153983912Y-93879913D01*
X153959069Y-93833437D01*
X153943770Y-93783002D01*
X153938000Y-93724416D01*
X153938000Y-90475584D01*
X153943770Y-90416998D01*
X153959069Y-90366563D01*
X153983912Y-90320087D01*
X154017346Y-90279346D01*
X154058087Y-90245912D01*
X154104563Y-90221069D01*
X154154998Y-90205770D01*
X154213584Y-90200000D01*
X155187416Y-90200000D01*
X155246002Y-90205770D01*
X155246002Y-90205770D01*
G37*
G36*
X144283393Y-90003970D02*
X144316257Y-90013940D01*
X144346539Y-90030125D01*
X144373087Y-90051913D01*
X144394875Y-90078461D01*
X144411060Y-90108743D01*
X144421030Y-90141607D01*
X144425000Y-90181919D01*
X144425000Y-93418081D01*
X144421030Y-93458393D01*
X144411060Y-93491257D01*
X144394875Y-93521539D01*
X144373087Y-93548087D01*
X144346539Y-93569875D01*
X144316257Y-93586060D01*
X144283393Y-93596030D01*
X144243081Y-93600000D01*
X139756919Y-93600000D01*
X139716607Y-93596030D01*
X139683743Y-93586060D01*
X139653461Y-93569875D01*
X139626913Y-93548087D01*
X139605125Y-93521539D01*
X139588940Y-93491257D01*
X139578970Y-93458393D01*
X139575000Y-93418081D01*
X139575000Y-90181919D01*
X139578970Y-90141607D01*
X139588940Y-90108743D01*
X139605125Y-90078461D01*
X139626913Y-90051913D01*
X139653461Y-90030125D01*
X139683743Y-90013940D01*
X139716607Y-90003970D01*
X139756919Y-90000000D01*
X144243081Y-90000000D01*
X144283393Y-90003970D01*
X144283393Y-90003970D01*
G37*
G36*
X183483418Y-88813444D02*
X183623281Y-88827219D01*
X183847596Y-88895265D01*
X184054327Y-89005764D01*
X184235528Y-89154472D01*
X184384236Y-89335673D01*
X184494735Y-89542404D01*
X184562781Y-89766719D01*
X184585757Y-90000000D01*
X184562781Y-90233281D01*
X184494735Y-90457596D01*
X184384236Y-90664327D01*
X184235528Y-90845528D01*
X184054327Y-90994236D01*
X183847596Y-91104735D01*
X183623281Y-91172781D01*
X183483418Y-91186556D01*
X183448453Y-91190000D01*
X181351547Y-91190000D01*
X181316582Y-91186556D01*
X181176719Y-91172781D01*
X180952404Y-91104735D01*
X180745673Y-90994236D01*
X180564472Y-90845528D01*
X180415764Y-90664327D01*
X180305265Y-90457596D01*
X180237219Y-90233281D01*
X180214243Y-90000000D01*
X180237219Y-89766719D01*
X180305265Y-89542404D01*
X180415764Y-89335673D01*
X180564472Y-89154472D01*
X180745673Y-89005764D01*
X180952404Y-88895265D01*
X181176719Y-88827219D01*
X181316582Y-88813444D01*
X181351547Y-88810000D01*
X183448453Y-88810000D01*
X183483418Y-88813444D01*
X183483418Y-88813444D01*
G37*
G36*
X135475000Y-89940000D02*
X133525000Y-89940000D01*
X133525000Y-88940000D01*
X135475000Y-88940000D01*
X135475000Y-89940000D01*
X135475000Y-89940000D01*
G37*
G36*
X130075000Y-89940000D02*
X128125000Y-89940000D01*
X128125000Y-88940000D01*
X130075000Y-88940000D01*
X130075000Y-89940000D01*
X130075000Y-89940000D01*
G37*
G36*
X149750000Y-88850000D02*
X148450000Y-88850000D01*
X148450000Y-87650000D01*
X149750000Y-87650000D01*
X149750000Y-88850000D01*
X149750000Y-88850000D01*
G37*
G36*
X130075000Y-88670000D02*
X128125000Y-88670000D01*
X128125000Y-87670000D01*
X130075000Y-87670000D01*
X130075000Y-88670000D01*
X130075000Y-88670000D01*
G37*
G36*
X135475000Y-88670000D02*
X133525000Y-88670000D01*
X133525000Y-87670000D01*
X135475000Y-87670000D01*
X135475000Y-88670000D01*
X135475000Y-88670000D01*
G37*
G36*
X155246002Y-84405770D02*
X155296437Y-84421069D01*
X155342913Y-84445912D01*
X155383654Y-84479346D01*
X155417088Y-84520087D01*
X155441931Y-84566563D01*
X155457230Y-84616998D01*
X155463000Y-84675584D01*
X155463000Y-87924416D01*
X155457230Y-87983002D01*
X155441931Y-88033437D01*
X155417088Y-88079913D01*
X155383654Y-88120654D01*
X155342913Y-88154088D01*
X155296437Y-88178931D01*
X155246002Y-88194230D01*
X155187416Y-88200000D01*
X154213584Y-88200000D01*
X154154998Y-88194230D01*
X154104563Y-88178931D01*
X154058087Y-88154088D01*
X154017346Y-88120654D01*
X153983912Y-88079913D01*
X153959069Y-88033437D01*
X153943770Y-87983002D01*
X153938000Y-87924416D01*
X153938000Y-84675584D01*
X153943770Y-84616998D01*
X153959069Y-84566563D01*
X153983912Y-84520087D01*
X154017346Y-84479346D01*
X154058087Y-84445912D01*
X154104563Y-84421069D01*
X154154998Y-84405770D01*
X154213584Y-84400000D01*
X155187416Y-84400000D01*
X155246002Y-84405770D01*
X155246002Y-84405770D01*
G37*
G36*
X159521002Y-84405770D02*
X159571437Y-84421069D01*
X159617913Y-84445912D01*
X159658654Y-84479346D01*
X159692088Y-84520087D01*
X159716931Y-84566563D01*
X159732230Y-84616998D01*
X159738000Y-84675584D01*
X159738000Y-87924416D01*
X159732230Y-87983002D01*
X159716931Y-88033437D01*
X159692088Y-88079913D01*
X159658654Y-88120654D01*
X159617913Y-88154088D01*
X159571437Y-88178931D01*
X159521002Y-88194230D01*
X159462416Y-88200000D01*
X158488584Y-88200000D01*
X158429998Y-88194230D01*
X158379563Y-88178931D01*
X158333087Y-88154088D01*
X158292346Y-88120654D01*
X158258912Y-88079913D01*
X158234069Y-88033437D01*
X158218770Y-87983002D01*
X158213000Y-87924416D01*
X158213000Y-84675584D01*
X158218770Y-84616998D01*
X158234069Y-84566563D01*
X158258912Y-84520087D01*
X158292346Y-84479346D01*
X158333087Y-84445912D01*
X158379563Y-84421069D01*
X158429998Y-84405770D01*
X158488584Y-84400000D01*
X159462416Y-84400000D01*
X159521002Y-84405770D01*
X159521002Y-84405770D01*
G37*
G36*
X147750000Y-87900000D02*
X146450000Y-87900000D01*
X146450000Y-86700000D01*
X147750000Y-86700000D01*
X147750000Y-87900000D01*
X147750000Y-87900000D01*
G37*
G36*
X144283393Y-83903970D02*
X144316257Y-83913940D01*
X144346539Y-83930125D01*
X144373087Y-83951913D01*
X144394875Y-83978461D01*
X144411060Y-84008743D01*
X144421030Y-84041607D01*
X144425000Y-84081919D01*
X144425000Y-87318081D01*
X144421030Y-87358393D01*
X144411060Y-87391257D01*
X144394875Y-87421539D01*
X144373087Y-87448087D01*
X144346539Y-87469875D01*
X144316257Y-87486060D01*
X144283393Y-87496030D01*
X144243081Y-87500000D01*
X139756919Y-87500000D01*
X139716607Y-87496030D01*
X139683743Y-87486060D01*
X139653461Y-87469875D01*
X139626913Y-87448087D01*
X139605125Y-87421539D01*
X139588940Y-87391257D01*
X139578970Y-87358393D01*
X139575000Y-87318081D01*
X139575000Y-84081919D01*
X139578970Y-84041607D01*
X139588940Y-84008743D01*
X139605125Y-83978461D01*
X139626913Y-83951913D01*
X139653461Y-83930125D01*
X139683743Y-83913940D01*
X139716607Y-83903970D01*
X139756919Y-83900000D01*
X144243081Y-83900000D01*
X144283393Y-83903970D01*
X144283393Y-83903970D01*
G37*
G36*
X130075000Y-87400000D02*
X128125000Y-87400000D01*
X128125000Y-86400000D01*
X130075000Y-86400000D01*
X130075000Y-87400000D01*
X130075000Y-87400000D01*
G37*
G36*
X135475000Y-87400000D02*
X133525000Y-87400000D01*
X133525000Y-86400000D01*
X135475000Y-86400000D01*
X135475000Y-87400000D01*
X135475000Y-87400000D01*
G37*
G36*
X149750000Y-86950000D02*
X148450000Y-86950000D01*
X148450000Y-85750000D01*
X149750000Y-85750000D01*
X149750000Y-86950000D01*
X149750000Y-86950000D01*
G37*
G36*
X183483418Y-83813444D02*
X183623281Y-83827219D01*
X183847596Y-83895265D01*
X184054327Y-84005764D01*
X184235528Y-84154472D01*
X184384236Y-84335673D01*
X184494735Y-84542404D01*
X184562781Y-84766719D01*
X184585757Y-85000000D01*
X184562781Y-85233281D01*
X184494735Y-85457596D01*
X184384236Y-85664327D01*
X184235528Y-85845528D01*
X184054327Y-85994236D01*
X183847596Y-86104735D01*
X183623281Y-86172781D01*
X183483418Y-86186556D01*
X183448453Y-86190000D01*
X181351547Y-86190000D01*
X181316582Y-86186556D01*
X181176719Y-86172781D01*
X180952404Y-86104735D01*
X180745673Y-85994236D01*
X180564472Y-85845528D01*
X180415764Y-85664327D01*
X180305265Y-85457596D01*
X180237219Y-85233281D01*
X180214243Y-85000000D01*
X180237219Y-84766719D01*
X180305265Y-84542404D01*
X180415764Y-84335673D01*
X180564472Y-84154472D01*
X180745673Y-84005764D01*
X180952404Y-83895265D01*
X181176719Y-83827219D01*
X181316582Y-83813444D01*
X181351547Y-83810000D01*
X183448453Y-83810000D01*
X183483418Y-83813444D01*
X183483418Y-83813444D01*
G37*
G36*
X130075000Y-86130000D02*
X128125000Y-86130000D01*
X128125000Y-85130000D01*
X130075000Y-85130000D01*
X130075000Y-86130000D01*
X130075000Y-86130000D01*
G37*
G36*
X135475000Y-86130000D02*
X133525000Y-86130000D01*
X133525000Y-85130000D01*
X135475000Y-85130000D01*
X135475000Y-86130000D01*
X135475000Y-86130000D01*
G37*
G36*
X160519628Y-80980493D02*
X160567354Y-80994970D01*
X160611336Y-81018479D01*
X160649885Y-81050115D01*
X160681521Y-81088664D01*
X160705030Y-81132646D01*
X160719507Y-81180372D01*
X160725000Y-81236141D01*
X160725000Y-82363859D01*
X160719507Y-82419628D01*
X160705030Y-82467354D01*
X160681521Y-82511336D01*
X160649885Y-82549885D01*
X160611336Y-82581521D01*
X160567354Y-82605030D01*
X160519628Y-82619507D01*
X160463859Y-82625000D01*
X157936141Y-82625000D01*
X157880372Y-82619507D01*
X157832646Y-82605030D01*
X157788664Y-82581521D01*
X157750115Y-82549885D01*
X157718479Y-82511336D01*
X157694970Y-82467354D01*
X157680493Y-82419628D01*
X157675000Y-82363859D01*
X157675000Y-81236141D01*
X157680493Y-81180372D01*
X157694970Y-81132646D01*
X157718479Y-81088664D01*
X157750115Y-81050115D01*
X157788664Y-81018479D01*
X157832646Y-80994970D01*
X157880372Y-80980493D01*
X157936141Y-80975000D01*
X160463859Y-80975000D01*
X160519628Y-80980493D01*
X160519628Y-80980493D01*
G37*
G36*
X144283393Y-78703970D02*
X144316257Y-78713940D01*
X144346539Y-78730125D01*
X144373087Y-78751913D01*
X144394875Y-78778461D01*
X144411060Y-78808743D01*
X144421030Y-78841607D01*
X144425000Y-78881919D01*
X144425000Y-82118081D01*
X144421030Y-82158393D01*
X144411060Y-82191257D01*
X144394875Y-82221539D01*
X144373087Y-82248087D01*
X144346539Y-82269875D01*
X144316257Y-82286060D01*
X144283393Y-82296030D01*
X144243081Y-82300000D01*
X139756919Y-82300000D01*
X139716607Y-82296030D01*
X139683743Y-82286060D01*
X139653461Y-82269875D01*
X139626913Y-82248087D01*
X139605125Y-82221539D01*
X139588940Y-82191257D01*
X139578970Y-82158393D01*
X139575000Y-82118081D01*
X139575000Y-78881919D01*
X139578970Y-78841607D01*
X139588940Y-78808743D01*
X139605125Y-78778461D01*
X139626913Y-78751913D01*
X139653461Y-78730125D01*
X139683743Y-78713940D01*
X139716607Y-78703970D01*
X139756919Y-78700000D01*
X144243081Y-78700000D01*
X144283393Y-78703970D01*
X144283393Y-78703970D01*
G37*
G36*
X134019628Y-79830493D02*
X134067354Y-79844970D01*
X134111336Y-79868479D01*
X134149885Y-79900115D01*
X134181521Y-79938664D01*
X134205030Y-79982646D01*
X134219507Y-80030372D01*
X134225000Y-80086141D01*
X134225000Y-81713859D01*
X134219507Y-81769628D01*
X134205030Y-81817354D01*
X134181521Y-81861336D01*
X134149885Y-81899885D01*
X134111336Y-81931521D01*
X134067354Y-81955030D01*
X134019628Y-81969507D01*
X133963859Y-81975000D01*
X132836141Y-81975000D01*
X132780372Y-81969507D01*
X132732646Y-81955030D01*
X132688664Y-81931521D01*
X132650115Y-81899885D01*
X132618479Y-81861336D01*
X132594970Y-81817354D01*
X132580493Y-81769628D01*
X132575000Y-81713859D01*
X132575000Y-80086141D01*
X132580493Y-80030372D01*
X132594970Y-79982646D01*
X132618479Y-79938664D01*
X132650115Y-79900115D01*
X132688664Y-79868479D01*
X132732646Y-79844970D01*
X132780372Y-79830493D01*
X132836141Y-79825000D01*
X133963859Y-79825000D01*
X134019628Y-79830493D01*
X134019628Y-79830493D01*
G37*
G36*
X131219628Y-79830493D02*
X131267354Y-79844970D01*
X131311336Y-79868479D01*
X131349885Y-79900115D01*
X131381521Y-79938664D01*
X131405030Y-79982646D01*
X131419507Y-80030372D01*
X131425000Y-80086141D01*
X131425000Y-81713859D01*
X131419507Y-81769628D01*
X131405030Y-81817354D01*
X131381521Y-81861336D01*
X131349885Y-81899885D01*
X131311336Y-81931521D01*
X131267354Y-81955030D01*
X131219628Y-81969507D01*
X131163859Y-81975000D01*
X130036141Y-81975000D01*
X129980372Y-81969507D01*
X129932646Y-81955030D01*
X129888664Y-81931521D01*
X129850115Y-81899885D01*
X129818479Y-81861336D01*
X129794970Y-81817354D01*
X129780493Y-81769628D01*
X129775000Y-81713859D01*
X129775000Y-80086141D01*
X129780493Y-80030372D01*
X129794970Y-79982646D01*
X129818479Y-79938664D01*
X129850115Y-79900115D01*
X129888664Y-79868479D01*
X129932646Y-79844970D01*
X129980372Y-79830493D01*
X130036141Y-79825000D01*
X131163859Y-79825000D01*
X131219628Y-79830493D01*
X131219628Y-79830493D01*
G37*
G36*
X97083418Y-79113444D02*
X97223281Y-79127219D01*
X97447596Y-79195265D01*
X97654327Y-79305764D01*
X97835528Y-79454472D01*
X97984236Y-79635673D01*
X98072006Y-79799880D01*
X98088369Y-79830493D01*
X98094735Y-79842404D01*
X98162781Y-80066719D01*
X98185757Y-80300000D01*
X98162781Y-80533281D01*
X98094735Y-80757596D01*
X97984236Y-80964327D01*
X97835528Y-81145528D01*
X97654327Y-81294236D01*
X97447596Y-81404735D01*
X97223281Y-81472781D01*
X97083418Y-81486556D01*
X97048453Y-81490000D01*
X94951547Y-81490000D01*
X94916582Y-81486556D01*
X94776719Y-81472781D01*
X94552404Y-81404735D01*
X94345673Y-81294236D01*
X94164472Y-81145528D01*
X94015764Y-80964327D01*
X93905265Y-80757596D01*
X93837219Y-80533281D01*
X93814243Y-80300000D01*
X93837219Y-80066719D01*
X93905265Y-79842404D01*
X93911632Y-79830493D01*
X93927994Y-79799880D01*
X94015764Y-79635673D01*
X94164472Y-79454472D01*
X94345673Y-79305764D01*
X94552404Y-79195265D01*
X94776719Y-79127219D01*
X94916582Y-79113444D01*
X94951547Y-79110000D01*
X97048453Y-79110000D01*
X97083418Y-79113444D01*
X97083418Y-79113444D01*
G37*
G36*
X114850000Y-80000000D02*
X111950000Y-80000000D01*
X111950000Y-75600000D01*
X114850000Y-75600000D01*
X114850000Y-80000000D01*
X114850000Y-80000000D01*
G37*
G36*
X126950000Y-79900000D02*
X124050000Y-79900000D01*
X124050000Y-75500000D01*
X126950000Y-75500000D01*
X126950000Y-79900000D01*
X126950000Y-79900000D01*
G37*
G36*
X160519628Y-78180493D02*
X160567354Y-78194970D01*
X160611336Y-78218479D01*
X160649885Y-78250115D01*
X160681521Y-78288664D01*
X160705030Y-78332646D01*
X160719507Y-78380372D01*
X160725000Y-78436141D01*
X160725000Y-79563859D01*
X160719507Y-79619628D01*
X160705030Y-79667354D01*
X160681521Y-79711336D01*
X160649885Y-79749885D01*
X160611336Y-79781521D01*
X160567354Y-79805030D01*
X160519628Y-79819507D01*
X160463859Y-79825000D01*
X157936141Y-79825000D01*
X157880372Y-79819507D01*
X157832646Y-79805030D01*
X157788664Y-79781521D01*
X157750115Y-79749885D01*
X157718479Y-79711336D01*
X157694970Y-79667354D01*
X157680493Y-79619628D01*
X157675000Y-79563859D01*
X157675000Y-78436141D01*
X157680493Y-78380372D01*
X157694970Y-78332646D01*
X157718479Y-78288664D01*
X157750115Y-78250115D01*
X157788664Y-78218479D01*
X157832646Y-78194970D01*
X157880372Y-78180493D01*
X157936141Y-78175000D01*
X160463859Y-78175000D01*
X160519628Y-78180493D01*
X160519628Y-78180493D01*
G37*
G36*
X98180000Y-76490000D02*
X93820000Y-76490000D01*
X93820000Y-74110000D01*
X98180000Y-74110000D01*
X98180000Y-76490000D01*
X98180000Y-76490000D01*
G37*
G36*
X147319628Y-70330493D02*
X147367354Y-70344970D01*
X147411336Y-70368479D01*
X147449885Y-70400115D01*
X147481521Y-70438664D01*
X147505030Y-70482646D01*
X147519507Y-70530372D01*
X147525000Y-70586141D01*
X147525000Y-72213859D01*
X147519507Y-72269628D01*
X147505030Y-72317354D01*
X147481521Y-72361336D01*
X147449885Y-72399885D01*
X147411336Y-72431521D01*
X147367354Y-72455030D01*
X147319628Y-72469507D01*
X147263859Y-72475000D01*
X146136141Y-72475000D01*
X146080372Y-72469507D01*
X146032646Y-72455030D01*
X145988664Y-72431521D01*
X145950115Y-72399885D01*
X145918479Y-72361336D01*
X145894970Y-72317354D01*
X145880493Y-72269628D01*
X145875000Y-72213859D01*
X145875000Y-70586141D01*
X145880493Y-70530372D01*
X145894970Y-70482646D01*
X145918479Y-70438664D01*
X145950115Y-70400115D01*
X145988664Y-70368479D01*
X146032646Y-70344970D01*
X146080372Y-70330493D01*
X146136141Y-70325000D01*
X147263859Y-70325000D01*
X147319628Y-70330493D01*
X147319628Y-70330493D01*
G37*
G36*
X150119628Y-70330493D02*
X150167354Y-70344970D01*
X150211336Y-70368479D01*
X150249885Y-70400115D01*
X150281521Y-70438664D01*
X150305030Y-70482646D01*
X150319507Y-70530372D01*
X150325000Y-70586141D01*
X150325000Y-72213859D01*
X150319507Y-72269628D01*
X150305030Y-72317354D01*
X150281521Y-72361336D01*
X150249885Y-72399885D01*
X150211336Y-72431521D01*
X150167354Y-72455030D01*
X150119628Y-72469507D01*
X150063859Y-72475000D01*
X148936141Y-72475000D01*
X148880372Y-72469507D01*
X148832646Y-72455030D01*
X148788664Y-72431521D01*
X148750115Y-72399885D01*
X148718479Y-72361336D01*
X148694970Y-72317354D01*
X148680493Y-72269628D01*
X148675000Y-72213859D01*
X148675000Y-70586141D01*
X148680493Y-70530372D01*
X148694970Y-70482646D01*
X148718479Y-70438664D01*
X148750115Y-70400115D01*
X148788664Y-70368479D01*
X148832646Y-70344970D01*
X148880372Y-70330493D01*
X148936141Y-70325000D01*
X150063859Y-70325000D01*
X150119628Y-70330493D01*
X150119628Y-70330493D01*
G37*
G36*
X143719628Y-70230493D02*
X143767354Y-70244970D01*
X143811336Y-70268479D01*
X143849885Y-70300115D01*
X143881521Y-70338664D01*
X143905030Y-70382646D01*
X143919507Y-70430372D01*
X143925000Y-70486141D01*
X143925000Y-72113859D01*
X143919507Y-72169628D01*
X143905030Y-72217354D01*
X143881521Y-72261336D01*
X143849885Y-72299885D01*
X143811336Y-72331521D01*
X143767354Y-72355030D01*
X143719628Y-72369507D01*
X143663859Y-72375000D01*
X142536141Y-72375000D01*
X142480372Y-72369507D01*
X142432646Y-72355030D01*
X142388664Y-72331521D01*
X142350115Y-72299885D01*
X142318479Y-72261336D01*
X142294970Y-72217354D01*
X142280493Y-72169628D01*
X142275000Y-72113859D01*
X142275000Y-70486141D01*
X142280493Y-70430372D01*
X142294970Y-70382646D01*
X142318479Y-70338664D01*
X142350115Y-70300115D01*
X142388664Y-70268479D01*
X142432646Y-70244970D01*
X142480372Y-70230493D01*
X142536141Y-70225000D01*
X143663859Y-70225000D01*
X143719628Y-70230493D01*
X143719628Y-70230493D01*
G37*
G36*
X140919628Y-70230493D02*
X140967354Y-70244970D01*
X141011336Y-70268479D01*
X141049885Y-70300115D01*
X141081521Y-70338664D01*
X141105030Y-70382646D01*
X141119507Y-70430372D01*
X141125000Y-70486141D01*
X141125000Y-72113859D01*
X141119507Y-72169628D01*
X141105030Y-72217354D01*
X141081521Y-72261336D01*
X141049885Y-72299885D01*
X141011336Y-72331521D01*
X140967354Y-72355030D01*
X140919628Y-72369507D01*
X140863859Y-72375000D01*
X139736141Y-72375000D01*
X139680372Y-72369507D01*
X139632646Y-72355030D01*
X139588664Y-72331521D01*
X139550115Y-72299885D01*
X139518479Y-72261336D01*
X139494970Y-72217354D01*
X139480493Y-72169628D01*
X139475000Y-72113859D01*
X139475000Y-70486141D01*
X139480493Y-70430372D01*
X139494970Y-70382646D01*
X139518479Y-70338664D01*
X139550115Y-70300115D01*
X139588664Y-70268479D01*
X139632646Y-70244970D01*
X139680372Y-70230493D01*
X139736141Y-70225000D01*
X140863859Y-70225000D01*
X140919628Y-70230493D01*
X140919628Y-70230493D01*
G37*
G36*
X114850000Y-72000000D02*
X111950000Y-72000000D01*
X111950000Y-67600000D01*
X114850000Y-67600000D01*
X114850000Y-72000000D01*
X114850000Y-72000000D01*
G37*
G36*
X126950000Y-71900000D02*
X124050000Y-71900000D01*
X124050000Y-67500000D01*
X126950000Y-67500000D01*
X126950000Y-71900000D01*
X126950000Y-71900000D01*
G37*
G36*
X183880000Y-70490000D02*
X179520000Y-70490000D01*
X179520000Y-68110000D01*
X183880000Y-68110000D01*
X183880000Y-70490000D01*
X183880000Y-70490000D01*
G37*
G36*
X151640000Y-66750000D02*
X138960000Y-66750000D01*
X138960000Y-64850000D01*
X151640000Y-64850000D01*
X151640000Y-66750000D01*
X151640000Y-66750000D01*
G37*
G36*
X182783418Y-63113444D02*
X182923281Y-63127219D01*
X183147596Y-63195265D01*
X183354327Y-63305764D01*
X183535528Y-63454472D01*
X183684236Y-63635673D01*
X183794735Y-63842404D01*
X183862781Y-64066719D01*
X183885757Y-64300000D01*
X183862781Y-64533281D01*
X183794735Y-64757596D01*
X183684236Y-64964327D01*
X183535528Y-65145528D01*
X183354327Y-65294236D01*
X183147596Y-65404735D01*
X182923281Y-65472781D01*
X182783418Y-65486556D01*
X182748453Y-65490000D01*
X180651547Y-65490000D01*
X180616582Y-65486556D01*
X180476719Y-65472781D01*
X180252404Y-65404735D01*
X180045673Y-65294236D01*
X179864472Y-65145528D01*
X179715764Y-64964327D01*
X179605265Y-64757596D01*
X179537219Y-64533281D01*
X179514243Y-64300000D01*
X179537219Y-64066719D01*
X179605265Y-63842404D01*
X179715764Y-63635673D01*
X179864472Y-63454472D01*
X180045673Y-63305764D01*
X180252404Y-63195265D01*
X180476719Y-63127219D01*
X180616582Y-63113444D01*
X180651547Y-63110000D01*
X182748453Y-63110000D01*
X182783418Y-63113444D01*
X182783418Y-63113444D01*
G37*
G36*
X120005928Y-61916676D02*
X120084861Y-61940620D01*
X120223176Y-61982577D01*
X120368024Y-62060000D01*
X120423392Y-62089595D01*
X120481889Y-62137602D01*
X120598887Y-62233619D01*
X120742904Y-62409105D01*
X120849923Y-62609323D01*
X120882873Y-62717947D01*
X120915824Y-62826571D01*
X120921383Y-62883009D01*
X120932500Y-62995884D01*
X120932500Y-63204115D01*
X120927992Y-63249885D01*
X120915824Y-63373428D01*
X120891240Y-63454472D01*
X120849923Y-63590676D01*
X120770107Y-63740000D01*
X120742905Y-63790892D01*
X120742904Y-63790893D01*
X120598881Y-63966387D01*
X120423395Y-64110404D01*
X120223177Y-64217423D01*
X120114552Y-64250374D01*
X120005929Y-64283324D01*
X119780000Y-64305576D01*
X119554072Y-64283324D01*
X119445448Y-64250373D01*
X119336824Y-64217423D01*
X119136606Y-64110404D01*
X118961117Y-63966384D01*
X118817096Y-63790894D01*
X118817095Y-63790892D01*
X118734127Y-63635671D01*
X118710077Y-63590677D01*
X118644176Y-63373428D01*
X118634398Y-63274151D01*
X118629617Y-63250117D01*
X118620240Y-63227478D01*
X118606626Y-63207104D01*
X118589299Y-63189777D01*
X118568924Y-63176163D01*
X118546285Y-63166785D01*
X118522252Y-63162005D01*
X118497748Y-63162005D01*
X118473714Y-63166786D01*
X118451075Y-63176163D01*
X118430701Y-63189777D01*
X118413374Y-63207104D01*
X118399760Y-63227479D01*
X118390382Y-63250118D01*
X118385602Y-63274151D01*
X118375824Y-63373428D01*
X118351240Y-63454472D01*
X118309923Y-63590676D01*
X118230107Y-63740000D01*
X118202905Y-63790892D01*
X118202904Y-63790893D01*
X118058881Y-63966387D01*
X117883395Y-64110404D01*
X117683177Y-64217423D01*
X117574552Y-64250374D01*
X117465929Y-64283324D01*
X117240000Y-64305576D01*
X117014072Y-64283324D01*
X116905448Y-64250373D01*
X116796824Y-64217423D01*
X116596606Y-64110404D01*
X116421117Y-63966384D01*
X116277096Y-63790894D01*
X116277095Y-63790892D01*
X116194127Y-63635671D01*
X116170077Y-63590677D01*
X116104176Y-63373428D01*
X116101898Y-63350299D01*
X116097117Y-63326265D01*
X116087740Y-63303626D01*
X116074126Y-63283252D01*
X116056799Y-63265925D01*
X116036424Y-63252311D01*
X116013785Y-63242933D01*
X115989752Y-63238153D01*
X115965248Y-63238153D01*
X115941214Y-63242934D01*
X115918575Y-63252311D01*
X115898201Y-63265925D01*
X115880874Y-63283252D01*
X115867260Y-63303627D01*
X115857882Y-63326266D01*
X115852500Y-63362551D01*
X115852500Y-64300000D01*
X113547500Y-64300000D01*
X113547500Y-61900000D01*
X115852500Y-61900000D01*
X115852500Y-62837450D01*
X115854902Y-62861836D01*
X115862015Y-62885285D01*
X115873566Y-62906896D01*
X115889112Y-62925838D01*
X115908054Y-62941384D01*
X115929665Y-62952935D01*
X115953114Y-62960048D01*
X115977500Y-62962450D01*
X116001886Y-62960048D01*
X116025335Y-62952935D01*
X116046946Y-62941384D01*
X116065888Y-62925838D01*
X116081434Y-62906896D01*
X116092985Y-62885285D01*
X116101898Y-62849702D01*
X116104176Y-62826573D01*
X116104177Y-62826571D01*
X116170077Y-62609325D01*
X116170077Y-62609324D01*
X116277094Y-62409110D01*
X116277095Y-62409108D01*
X116325102Y-62350611D01*
X116421119Y-62233613D01*
X116596605Y-62089596D01*
X116796823Y-61982577D01*
X116935138Y-61940620D01*
X117014071Y-61916676D01*
X117240000Y-61894424D01*
X117465928Y-61916676D01*
X117544861Y-61940620D01*
X117683176Y-61982577D01*
X117828024Y-62060000D01*
X117883392Y-62089595D01*
X117941889Y-62137602D01*
X118058887Y-62233619D01*
X118202904Y-62409105D01*
X118309923Y-62609323D01*
X118342873Y-62717947D01*
X118375824Y-62826571D01*
X118381607Y-62885285D01*
X118385602Y-62925849D01*
X118390383Y-62949883D01*
X118399760Y-62972522D01*
X118413374Y-62992896D01*
X118430701Y-63010223D01*
X118451076Y-63023837D01*
X118473715Y-63033215D01*
X118497748Y-63037995D01*
X118522252Y-63037995D01*
X118546286Y-63033214D01*
X118568925Y-63023837D01*
X118589299Y-63010223D01*
X118606626Y-62992896D01*
X118620240Y-62972521D01*
X118629618Y-62949882D01*
X118634398Y-62925849D01*
X118644176Y-62826573D01*
X118644177Y-62826571D01*
X118710077Y-62609325D01*
X118710077Y-62609324D01*
X118817094Y-62409110D01*
X118817095Y-62409108D01*
X118865102Y-62350611D01*
X118961119Y-62233613D01*
X119136605Y-62089596D01*
X119336823Y-61982577D01*
X119475138Y-61940620D01*
X119554071Y-61916676D01*
X119780000Y-61894424D01*
X120005928Y-61916676D01*
X120005928Y-61916676D01*
G37*
G36*
X138350000Y-64240000D02*
X136450000Y-64240000D01*
X136450000Y-51560000D01*
X138350000Y-51560000D01*
X138350000Y-64240000D01*
X138350000Y-64240000D01*
G37*
G36*
X154150000Y-64240000D02*
X152250000Y-64240000D01*
X152250000Y-51560000D01*
X154150000Y-51560000D01*
X154150000Y-64240000D01*
X154150000Y-64240000D01*
G37*
G36*
X132969628Y-61680493D02*
X133017354Y-61694970D01*
X133061336Y-61718479D01*
X133099885Y-61750115D01*
X133131521Y-61788664D01*
X133155030Y-61832646D01*
X133169507Y-61880372D01*
X133175000Y-61936141D01*
X133175000Y-63063859D01*
X133169507Y-63119628D01*
X133155030Y-63167354D01*
X133131521Y-63211336D01*
X133099885Y-63249885D01*
X133061336Y-63281521D01*
X133017354Y-63305030D01*
X132969628Y-63319507D01*
X132913859Y-63325000D01*
X131286141Y-63325000D01*
X131230372Y-63319507D01*
X131182646Y-63305030D01*
X131138664Y-63281521D01*
X131100115Y-63249885D01*
X131068479Y-63211336D01*
X131044970Y-63167354D01*
X131030493Y-63119628D01*
X131025000Y-63063859D01*
X131025000Y-61936141D01*
X131030493Y-61880372D01*
X131044970Y-61832646D01*
X131068479Y-61788664D01*
X131100115Y-61750115D01*
X131138664Y-61718479D01*
X131182646Y-61694970D01*
X131230372Y-61680493D01*
X131286141Y-61675000D01*
X132913859Y-61675000D01*
X132969628Y-61680493D01*
X132969628Y-61680493D01*
G37*
G36*
X159869628Y-61480493D02*
X159917354Y-61494970D01*
X159961336Y-61518479D01*
X159999885Y-61550115D01*
X160031521Y-61588664D01*
X160055030Y-61632646D01*
X160069507Y-61680372D01*
X160075000Y-61736141D01*
X160075000Y-62863859D01*
X160069507Y-62919628D01*
X160055030Y-62967354D01*
X160031521Y-63011336D01*
X159999885Y-63049885D01*
X159961336Y-63081521D01*
X159917354Y-63105030D01*
X159869628Y-63119507D01*
X159813859Y-63125000D01*
X158186141Y-63125000D01*
X158130372Y-63119507D01*
X158082646Y-63105030D01*
X158038664Y-63081521D01*
X158000115Y-63049885D01*
X157968479Y-63011336D01*
X157944970Y-62967354D01*
X157930493Y-62919628D01*
X157925000Y-62863859D01*
X157925000Y-61736141D01*
X157930493Y-61680372D01*
X157944970Y-61632646D01*
X157968479Y-61588664D01*
X158000115Y-61550115D01*
X158038664Y-61518479D01*
X158082646Y-61494970D01*
X158130372Y-61480493D01*
X158186141Y-61475000D01*
X159813859Y-61475000D01*
X159869628Y-61480493D01*
X159869628Y-61480493D01*
G37*
G36*
X95856040Y-58610067D02*
X96032333Y-58645134D01*
X96364461Y-58782706D01*
X96600796Y-58940620D01*
X96663372Y-58982432D01*
X96917568Y-59236628D01*
X96917570Y-59236631D01*
X97117294Y-59535539D01*
X97254866Y-59867667D01*
X97325000Y-60220253D01*
X97325000Y-60579747D01*
X97254866Y-60932333D01*
X97117294Y-61264461D01*
X96926426Y-61550115D01*
X96917568Y-61563372D01*
X96663372Y-61817568D01*
X96663369Y-61817570D01*
X96364461Y-62017294D01*
X96032333Y-62154866D01*
X95856040Y-62189933D01*
X95679748Y-62225000D01*
X95320252Y-62225000D01*
X95143960Y-62189933D01*
X94967667Y-62154866D01*
X94635539Y-62017294D01*
X94336631Y-61817570D01*
X94336628Y-61817568D01*
X94082432Y-61563372D01*
X94073574Y-61550115D01*
X93882706Y-61264461D01*
X93745134Y-60932333D01*
X93675000Y-60579747D01*
X93675000Y-60220253D01*
X93745134Y-59867667D01*
X93882706Y-59535539D01*
X94082430Y-59236631D01*
X94082432Y-59236628D01*
X94336628Y-58982432D01*
X94399204Y-58940620D01*
X94635539Y-58782706D01*
X94967667Y-58645134D01*
X95143960Y-58610067D01*
X95320252Y-58575000D01*
X95679748Y-58575000D01*
X95856040Y-58610067D01*
X95856040Y-58610067D01*
G37*
G36*
X132969628Y-58880493D02*
X133017354Y-58894970D01*
X133061336Y-58918479D01*
X133099885Y-58950115D01*
X133131521Y-58988664D01*
X133155030Y-59032646D01*
X133169507Y-59080372D01*
X133175000Y-59136141D01*
X133175000Y-60263859D01*
X133169507Y-60319628D01*
X133155030Y-60367354D01*
X133131521Y-60411336D01*
X133099885Y-60449885D01*
X133061336Y-60481521D01*
X133017354Y-60505030D01*
X132969628Y-60519507D01*
X132913859Y-60525000D01*
X131286141Y-60525000D01*
X131230372Y-60519507D01*
X131182646Y-60505030D01*
X131138664Y-60481521D01*
X131100115Y-60449885D01*
X131068479Y-60411336D01*
X131044970Y-60367354D01*
X131030493Y-60319628D01*
X131025000Y-60263859D01*
X131025000Y-59136141D01*
X131030493Y-59080372D01*
X131044970Y-59032646D01*
X131068479Y-58988664D01*
X131100115Y-58950115D01*
X131138664Y-58918479D01*
X131182646Y-58894970D01*
X131230372Y-58880493D01*
X131286141Y-58875000D01*
X132913859Y-58875000D01*
X132969628Y-58880493D01*
X132969628Y-58880493D01*
G37*
G36*
X182783418Y-58113444D02*
X182923281Y-58127219D01*
X183147596Y-58195265D01*
X183354327Y-58305764D01*
X183535528Y-58454472D01*
X183684236Y-58635673D01*
X183794735Y-58842404D01*
X183862781Y-59066719D01*
X183885757Y-59300000D01*
X183862781Y-59533281D01*
X183794735Y-59757596D01*
X183684236Y-59964327D01*
X183535528Y-60145528D01*
X183354327Y-60294236D01*
X183147596Y-60404735D01*
X182923281Y-60472781D01*
X182783418Y-60486556D01*
X182748453Y-60490000D01*
X180651547Y-60490000D01*
X180616582Y-60486556D01*
X180476719Y-60472781D01*
X180252404Y-60404735D01*
X180045673Y-60294236D01*
X179864472Y-60145528D01*
X179715764Y-59964327D01*
X179605265Y-59757596D01*
X179537219Y-59533281D01*
X179514243Y-59300000D01*
X179537219Y-59066719D01*
X179605265Y-58842404D01*
X179715764Y-58635673D01*
X179864472Y-58454472D01*
X180045673Y-58305764D01*
X180252404Y-58195265D01*
X180476719Y-58127219D01*
X180616582Y-58113444D01*
X180651547Y-58110000D01*
X182748453Y-58110000D01*
X182783418Y-58113444D01*
X182783418Y-58113444D01*
G37*
G36*
X164850000Y-60450000D02*
X162750000Y-60450000D01*
X162750000Y-58350000D01*
X164850000Y-58350000D01*
X164850000Y-60450000D01*
X164850000Y-60450000D01*
G37*
G36*
X159869628Y-58680493D02*
X159917354Y-58694970D01*
X159961336Y-58718479D01*
X159999885Y-58750115D01*
X160031521Y-58788664D01*
X160055030Y-58832646D01*
X160069507Y-58880372D01*
X160075000Y-58936141D01*
X160075000Y-60063859D01*
X160069507Y-60119628D01*
X160055030Y-60167354D01*
X160031521Y-60211336D01*
X159999885Y-60249885D01*
X159961336Y-60281521D01*
X159917354Y-60305030D01*
X159869628Y-60319507D01*
X159813859Y-60325000D01*
X158186141Y-60325000D01*
X158130372Y-60319507D01*
X158082646Y-60305030D01*
X158038664Y-60281521D01*
X158000115Y-60249885D01*
X157968479Y-60211336D01*
X157944970Y-60167354D01*
X157930493Y-60119628D01*
X157925000Y-60063859D01*
X157925000Y-58936141D01*
X157930493Y-58880372D01*
X157944970Y-58832646D01*
X157968479Y-58788664D01*
X158000115Y-58750115D01*
X158038664Y-58718479D01*
X158082646Y-58694970D01*
X158130372Y-58680493D01*
X158186141Y-58675000D01*
X159813859Y-58675000D01*
X159869628Y-58680493D01*
X159869628Y-58680493D01*
G37*
G36*
X98283558Y-56803088D02*
X98435522Y-56866033D01*
X98572284Y-56957415D01*
X98688585Y-57073716D01*
X98779967Y-57210478D01*
X98842912Y-57362442D01*
X98875000Y-57523758D01*
X98875000Y-57688242D01*
X98842912Y-57849558D01*
X98779967Y-58001522D01*
X98688585Y-58138284D01*
X98572284Y-58254585D01*
X98435522Y-58345967D01*
X98283558Y-58408912D01*
X98122242Y-58441000D01*
X97957758Y-58441000D01*
X97796442Y-58408912D01*
X97644478Y-58345967D01*
X97507716Y-58254585D01*
X97391415Y-58138284D01*
X97300033Y-58001522D01*
X97237088Y-57849558D01*
X97205000Y-57688242D01*
X97205000Y-57523758D01*
X97237088Y-57362442D01*
X97300033Y-57210478D01*
X97391415Y-57073716D01*
X97507716Y-56957415D01*
X97644478Y-56866033D01*
X97796442Y-56803088D01*
X97957758Y-56771000D01*
X98122242Y-56771000D01*
X98283558Y-56803088D01*
X98283558Y-56803088D01*
G37*
G36*
X163928316Y-55817558D02*
X164005836Y-55825193D01*
X164137787Y-55865220D01*
X164203763Y-55885233D01*
X164386172Y-55982733D01*
X164546054Y-56113946D01*
X164677267Y-56273828D01*
X164774767Y-56456237D01*
X164774767Y-56456238D01*
X164834807Y-56654164D01*
X164855080Y-56860000D01*
X164834807Y-57065836D01*
X164794780Y-57197787D01*
X164774767Y-57263763D01*
X164677267Y-57446172D01*
X164546054Y-57606054D01*
X164386172Y-57737267D01*
X164203763Y-57834767D01*
X164154996Y-57849560D01*
X164005836Y-57894807D01*
X163928707Y-57902403D01*
X163851580Y-57910000D01*
X163748420Y-57910000D01*
X163671293Y-57902403D01*
X163594164Y-57894807D01*
X163445004Y-57849560D01*
X163396237Y-57834767D01*
X163213828Y-57737267D01*
X163053946Y-57606054D01*
X162922733Y-57446172D01*
X162825233Y-57263763D01*
X162805220Y-57197787D01*
X162765193Y-57065836D01*
X162744920Y-56860000D01*
X162765193Y-56654164D01*
X162825233Y-56456238D01*
X162825233Y-56456237D01*
X162922733Y-56273828D01*
X163053946Y-56113946D01*
X163213828Y-55982733D01*
X163396237Y-55885233D01*
X163462213Y-55865220D01*
X163594164Y-55825193D01*
X163671684Y-55817558D01*
X163748420Y-55810000D01*
X163851580Y-55810000D01*
X163928316Y-55817558D01*
X163928316Y-55817558D01*
G37*
G36*
X100061558Y-55787088D02*
X100213522Y-55850033D01*
X100350284Y-55941415D01*
X100466585Y-56057716D01*
X100557967Y-56194478D01*
X100620912Y-56346442D01*
X100653000Y-56507758D01*
X100653000Y-56672242D01*
X100620912Y-56833558D01*
X100557967Y-56985522D01*
X100466585Y-57122284D01*
X100350284Y-57238585D01*
X100213522Y-57329967D01*
X100061558Y-57392912D01*
X99900242Y-57425000D01*
X99735758Y-57425000D01*
X99574442Y-57392912D01*
X99422478Y-57329967D01*
X99285716Y-57238585D01*
X99169415Y-57122284D01*
X99078033Y-56985522D01*
X99015088Y-56833558D01*
X98983000Y-56672242D01*
X98983000Y-56507758D01*
X99015088Y-56346442D01*
X99078033Y-56194478D01*
X99169415Y-56057716D01*
X99285716Y-55941415D01*
X99422478Y-55850033D01*
X99574442Y-55787088D01*
X99735758Y-55755000D01*
X99900242Y-55755000D01*
X100061558Y-55787088D01*
X100061558Y-55787088D01*
G37*
G36*
X159869628Y-54780493D02*
X159917354Y-54794970D01*
X159961336Y-54818479D01*
X159999885Y-54850115D01*
X160031521Y-54888664D01*
X160055030Y-54932646D01*
X160069507Y-54980372D01*
X160075000Y-55036141D01*
X160075000Y-56163859D01*
X160069507Y-56219628D01*
X160055030Y-56267354D01*
X160031521Y-56311336D01*
X159999885Y-56349885D01*
X159961336Y-56381521D01*
X159917354Y-56405030D01*
X159869628Y-56419507D01*
X159813859Y-56425000D01*
X158186141Y-56425000D01*
X158130372Y-56419507D01*
X158082646Y-56405030D01*
X158038664Y-56381521D01*
X158000115Y-56349885D01*
X157968479Y-56311336D01*
X157944970Y-56267354D01*
X157930493Y-56219628D01*
X157925000Y-56163859D01*
X157925000Y-55036141D01*
X157930493Y-54980372D01*
X157944970Y-54932646D01*
X157968479Y-54888664D01*
X158000115Y-54850115D01*
X158038664Y-54818479D01*
X158082646Y-54794970D01*
X158130372Y-54780493D01*
X158186141Y-54775000D01*
X159813859Y-54775000D01*
X159869628Y-54780493D01*
X159869628Y-54780493D01*
G37*
G36*
X98283558Y-54771088D02*
X98435522Y-54834033D01*
X98572284Y-54925415D01*
X98688585Y-55041716D01*
X98779967Y-55178478D01*
X98842912Y-55330442D01*
X98875000Y-55491758D01*
X98875000Y-55656242D01*
X98842912Y-55817558D01*
X98779967Y-55969522D01*
X98688585Y-56106284D01*
X98572284Y-56222585D01*
X98435522Y-56313967D01*
X98283558Y-56376912D01*
X98122242Y-56409000D01*
X97957758Y-56409000D01*
X97796442Y-56376912D01*
X97644478Y-56313967D01*
X97507716Y-56222585D01*
X97391415Y-56106284D01*
X97300033Y-55969522D01*
X97237088Y-55817558D01*
X97205000Y-55656242D01*
X97205000Y-55491758D01*
X97237088Y-55330442D01*
X97300033Y-55178478D01*
X97391415Y-55041716D01*
X97507716Y-54925415D01*
X97644478Y-54834033D01*
X97796442Y-54771088D01*
X97957758Y-54739000D01*
X98122242Y-54739000D01*
X98283558Y-54771088D01*
X98283558Y-54771088D01*
G37*
G36*
X182783418Y-53113444D02*
X182923281Y-53127219D01*
X183147596Y-53195265D01*
X183354327Y-53305764D01*
X183535528Y-53454472D01*
X183684236Y-53635673D01*
X183794735Y-53842404D01*
X183862781Y-54066719D01*
X183885757Y-54300000D01*
X183862781Y-54533281D01*
X183794735Y-54757596D01*
X183684236Y-54964327D01*
X183535528Y-55145528D01*
X183354327Y-55294236D01*
X183147596Y-55404735D01*
X182923281Y-55472781D01*
X182783418Y-55486556D01*
X182748453Y-55490000D01*
X180651547Y-55490000D01*
X180616582Y-55486556D01*
X180476719Y-55472781D01*
X180252404Y-55404735D01*
X180045673Y-55294236D01*
X179864472Y-55145528D01*
X179715764Y-54964327D01*
X179605265Y-54757596D01*
X179537219Y-54533281D01*
X179514243Y-54300000D01*
X179537219Y-54066719D01*
X179605265Y-53842404D01*
X179715764Y-53635673D01*
X179864472Y-53454472D01*
X180045673Y-53305764D01*
X180252404Y-53195265D01*
X180476719Y-53127219D01*
X180616582Y-53113444D01*
X180651547Y-53110000D01*
X182748453Y-53110000D01*
X182783418Y-53113444D01*
X182783418Y-53113444D01*
G37*
G36*
X100061558Y-53755088D02*
X100213522Y-53818033D01*
X100350284Y-53909415D01*
X100466585Y-54025716D01*
X100557967Y-54162478D01*
X100620912Y-54314442D01*
X100653000Y-54475758D01*
X100653000Y-54640242D01*
X100620912Y-54801558D01*
X100557967Y-54953522D01*
X100466585Y-55090284D01*
X100350284Y-55206585D01*
X100213522Y-55297967D01*
X100061558Y-55360912D01*
X99900242Y-55393000D01*
X99735758Y-55393000D01*
X99574442Y-55360912D01*
X99422478Y-55297967D01*
X99285716Y-55206585D01*
X99169415Y-55090284D01*
X99078033Y-54953522D01*
X99015088Y-54801558D01*
X98983000Y-54640242D01*
X98983000Y-54475758D01*
X99015088Y-54314442D01*
X99078033Y-54162478D01*
X99169415Y-54025716D01*
X99285716Y-53909415D01*
X99422478Y-53818033D01*
X99574442Y-53755088D01*
X99735758Y-53723000D01*
X99900242Y-53723000D01*
X100061558Y-53755088D01*
X100061558Y-53755088D01*
G37*
G36*
X163928707Y-53277597D02*
X164005836Y-53285193D01*
X164137787Y-53325220D01*
X164203763Y-53345233D01*
X164386172Y-53442733D01*
X164546054Y-53573946D01*
X164677267Y-53733828D01*
X164774767Y-53916237D01*
X164794780Y-53982213D01*
X164834807Y-54114164D01*
X164855080Y-54320000D01*
X164834807Y-54525836D01*
X164824443Y-54560000D01*
X164774767Y-54723763D01*
X164677267Y-54906172D01*
X164546054Y-55066054D01*
X164386172Y-55197267D01*
X164203763Y-55294767D01*
X164137787Y-55314780D01*
X164005836Y-55354807D01*
X163928707Y-55362404D01*
X163851580Y-55370000D01*
X163748420Y-55370000D01*
X163671293Y-55362404D01*
X163594164Y-55354807D01*
X163462213Y-55314780D01*
X163396237Y-55294767D01*
X163213828Y-55197267D01*
X163053946Y-55066054D01*
X162922733Y-54906172D01*
X162825233Y-54723763D01*
X162775557Y-54560000D01*
X162765193Y-54525836D01*
X162744920Y-54320000D01*
X162765193Y-54114164D01*
X162805220Y-53982213D01*
X162825233Y-53916237D01*
X162922733Y-53733828D01*
X163053946Y-53573946D01*
X163213828Y-53442733D01*
X163396237Y-53345233D01*
X163462213Y-53325220D01*
X163594164Y-53285193D01*
X163671293Y-53277597D01*
X163748420Y-53270000D01*
X163851580Y-53270000D01*
X163928707Y-53277597D01*
X163928707Y-53277597D01*
G37*
G36*
X132869628Y-53280493D02*
X132917354Y-53294970D01*
X132961336Y-53318479D01*
X132999885Y-53350115D01*
X133031521Y-53388664D01*
X133055030Y-53432646D01*
X133069507Y-53480372D01*
X133075000Y-53536141D01*
X133075000Y-54663859D01*
X133069507Y-54719628D01*
X133055030Y-54767354D01*
X133031521Y-54811336D01*
X132999885Y-54849885D01*
X132961336Y-54881521D01*
X132917354Y-54905030D01*
X132869628Y-54919507D01*
X132813859Y-54925000D01*
X131186141Y-54925000D01*
X131130372Y-54919507D01*
X131082646Y-54905030D01*
X131038664Y-54881521D01*
X131000115Y-54849885D01*
X130968479Y-54811336D01*
X130944970Y-54767354D01*
X130930493Y-54719628D01*
X130925000Y-54663859D01*
X130925000Y-53536141D01*
X130930493Y-53480372D01*
X130944970Y-53432646D01*
X130968479Y-53388664D01*
X131000115Y-53350115D01*
X131038664Y-53318479D01*
X131082646Y-53294970D01*
X131130372Y-53280493D01*
X131186141Y-53275000D01*
X132813859Y-53275000D01*
X132869628Y-53280493D01*
X132869628Y-53280493D01*
G37*
G36*
X98283558Y-52739088D02*
X98435522Y-52802033D01*
X98572284Y-52893415D01*
X98688585Y-53009716D01*
X98779967Y-53146478D01*
X98842912Y-53298442D01*
X98875000Y-53459758D01*
X98875000Y-53624242D01*
X98842912Y-53785558D01*
X98779967Y-53937522D01*
X98688585Y-54074284D01*
X98572284Y-54190585D01*
X98435522Y-54281967D01*
X98283558Y-54344912D01*
X98122242Y-54377000D01*
X97957758Y-54377000D01*
X97796442Y-54344912D01*
X97644478Y-54281967D01*
X97507716Y-54190585D01*
X97391415Y-54074284D01*
X97300033Y-53937522D01*
X97237088Y-53785558D01*
X97205000Y-53624242D01*
X97205000Y-53459758D01*
X97237088Y-53298442D01*
X97300033Y-53146478D01*
X97391415Y-53009716D01*
X97507716Y-52893415D01*
X97644478Y-52802033D01*
X97796442Y-52739088D01*
X97957758Y-52707000D01*
X98122242Y-52707000D01*
X98283558Y-52739088D01*
X98283558Y-52739088D01*
G37*
G36*
X159869628Y-51980493D02*
X159917354Y-51994970D01*
X159961336Y-52018479D01*
X159999885Y-52050115D01*
X160031521Y-52088664D01*
X160055030Y-52132646D01*
X160069507Y-52180372D01*
X160075000Y-52236141D01*
X160075000Y-53363859D01*
X160069507Y-53419628D01*
X160055030Y-53467354D01*
X160031521Y-53511336D01*
X159999885Y-53549885D01*
X159961336Y-53581521D01*
X159917354Y-53605030D01*
X159869628Y-53619507D01*
X159813859Y-53625000D01*
X158186141Y-53625000D01*
X158130372Y-53619507D01*
X158082646Y-53605030D01*
X158038664Y-53581521D01*
X158000115Y-53549885D01*
X157968479Y-53511336D01*
X157944970Y-53467354D01*
X157930493Y-53419628D01*
X157925000Y-53363859D01*
X157925000Y-52236141D01*
X157930493Y-52180372D01*
X157944970Y-52132646D01*
X157968479Y-52088664D01*
X158000115Y-52050115D01*
X158038664Y-52018479D01*
X158082646Y-51994970D01*
X158130372Y-51980493D01*
X158186141Y-51975000D01*
X159813859Y-51975000D01*
X159869628Y-51980493D01*
X159869628Y-51980493D01*
G37*
G36*
X100061558Y-51723088D02*
X100213522Y-51786033D01*
X100350284Y-51877415D01*
X100466585Y-51993716D01*
X100557967Y-52130478D01*
X100620912Y-52282442D01*
X100653000Y-52443758D01*
X100653000Y-52608242D01*
X100620912Y-52769558D01*
X100557967Y-52921522D01*
X100466585Y-53058284D01*
X100350284Y-53174585D01*
X100213522Y-53265967D01*
X100061558Y-53328912D01*
X99900242Y-53361000D01*
X99735758Y-53361000D01*
X99574442Y-53328912D01*
X99422478Y-53265967D01*
X99285716Y-53174585D01*
X99169415Y-53058284D01*
X99078033Y-52921522D01*
X99015088Y-52769558D01*
X98983000Y-52608242D01*
X98983000Y-52443758D01*
X99015088Y-52282442D01*
X99078033Y-52130478D01*
X99169415Y-51993716D01*
X99285716Y-51877415D01*
X99422478Y-51786033D01*
X99574442Y-51723088D01*
X99735758Y-51691000D01*
X99900242Y-51691000D01*
X100061558Y-51723088D01*
X100061558Y-51723088D01*
G37*
G36*
X163913929Y-50736141D02*
X164005836Y-50745193D01*
X164137787Y-50785220D01*
X164203763Y-50805233D01*
X164386172Y-50902733D01*
X164546054Y-51033946D01*
X164677267Y-51193828D01*
X164774767Y-51376237D01*
X164774767Y-51376238D01*
X164834807Y-51574164D01*
X164855080Y-51780000D01*
X164834807Y-51985836D01*
X164800212Y-52099880D01*
X164774767Y-52183763D01*
X164677267Y-52366172D01*
X164546054Y-52526054D01*
X164386172Y-52657267D01*
X164203763Y-52754767D01*
X164154996Y-52769560D01*
X164005836Y-52814807D01*
X163928707Y-52822403D01*
X163851580Y-52830000D01*
X163748420Y-52830000D01*
X163671293Y-52822404D01*
X163594164Y-52814807D01*
X163445004Y-52769560D01*
X163396237Y-52754767D01*
X163213828Y-52657267D01*
X163053946Y-52526054D01*
X162922733Y-52366172D01*
X162825233Y-52183763D01*
X162799788Y-52099880D01*
X162765193Y-51985836D01*
X162744920Y-51780000D01*
X162765193Y-51574164D01*
X162825233Y-51376238D01*
X162825233Y-51376237D01*
X162922733Y-51193828D01*
X163053946Y-51033946D01*
X163213828Y-50902733D01*
X163396237Y-50805233D01*
X163462213Y-50785220D01*
X163594164Y-50745193D01*
X163686071Y-50736141D01*
X163748420Y-50730000D01*
X163851580Y-50730000D01*
X163913929Y-50736141D01*
X163913929Y-50736141D01*
G37*
G36*
X98283558Y-50707088D02*
X98435522Y-50770033D01*
X98572284Y-50861415D01*
X98688585Y-50977716D01*
X98779967Y-51114478D01*
X98842912Y-51266442D01*
X98875000Y-51427758D01*
X98875000Y-51592242D01*
X98842912Y-51753558D01*
X98779967Y-51905522D01*
X98688585Y-52042284D01*
X98572284Y-52158585D01*
X98435522Y-52249967D01*
X98283558Y-52312912D01*
X98122242Y-52345000D01*
X97957758Y-52345000D01*
X97796442Y-52312912D01*
X97644478Y-52249967D01*
X97507716Y-52158585D01*
X97391415Y-52042284D01*
X97300033Y-51905522D01*
X97237088Y-51753558D01*
X97205000Y-51592242D01*
X97205000Y-51427758D01*
X97237088Y-51266442D01*
X97300033Y-51114478D01*
X97391415Y-50977716D01*
X97507716Y-50861415D01*
X97644478Y-50770033D01*
X97796442Y-50707088D01*
X97957758Y-50675000D01*
X98122242Y-50675000D01*
X98283558Y-50707088D01*
X98283558Y-50707088D01*
G37*
G36*
X132869628Y-50480493D02*
X132917354Y-50494970D01*
X132961336Y-50518479D01*
X132999885Y-50550115D01*
X133031521Y-50588664D01*
X133055030Y-50632646D01*
X133069507Y-50680372D01*
X133075000Y-50736141D01*
X133075000Y-51863859D01*
X133069507Y-51919628D01*
X133055030Y-51967354D01*
X133031521Y-52011336D01*
X132999885Y-52049885D01*
X132961336Y-52081521D01*
X132917354Y-52105030D01*
X132869628Y-52119507D01*
X132813859Y-52125000D01*
X131186141Y-52125000D01*
X131130372Y-52119507D01*
X131082646Y-52105030D01*
X131038664Y-52081521D01*
X131000115Y-52049885D01*
X130968479Y-52011336D01*
X130944970Y-51967354D01*
X130930493Y-51919628D01*
X130925000Y-51863859D01*
X130925000Y-50736141D01*
X130930493Y-50680372D01*
X130944970Y-50632646D01*
X130968479Y-50588664D01*
X131000115Y-50550115D01*
X131038664Y-50518479D01*
X131082646Y-50494970D01*
X131130372Y-50480493D01*
X131186141Y-50475000D01*
X132813859Y-50475000D01*
X132869628Y-50480493D01*
X132869628Y-50480493D01*
G37*
G36*
X100061558Y-49691088D02*
X100213522Y-49754033D01*
X100350284Y-49845415D01*
X100466585Y-49961716D01*
X100557967Y-50098478D01*
X100620912Y-50250442D01*
X100653000Y-50411758D01*
X100653000Y-50576242D01*
X100620912Y-50737558D01*
X100557967Y-50889522D01*
X100466585Y-51026284D01*
X100350284Y-51142585D01*
X100213522Y-51233967D01*
X100061558Y-51296912D01*
X99900242Y-51329000D01*
X99735758Y-51329000D01*
X99574442Y-51296912D01*
X99422478Y-51233967D01*
X99285716Y-51142585D01*
X99169415Y-51026284D01*
X99078033Y-50889522D01*
X99015088Y-50737558D01*
X98983000Y-50576242D01*
X98983000Y-50411758D01*
X99015088Y-50250442D01*
X99078033Y-50098478D01*
X99169415Y-49961716D01*
X99285716Y-49845415D01*
X99422478Y-49754033D01*
X99574442Y-49691088D01*
X99735758Y-49659000D01*
X99900242Y-49659000D01*
X100061558Y-49691088D01*
X100061558Y-49691088D01*
G37*
G36*
X151640000Y-50950000D02*
X138960000Y-50950000D01*
X138960000Y-49050000D01*
X151640000Y-49050000D01*
X151640000Y-50950000D01*
X151640000Y-50950000D01*
G37*
G36*
X163928707Y-48197597D02*
X164005836Y-48205193D01*
X164137787Y-48245220D01*
X164203763Y-48265233D01*
X164386172Y-48362733D01*
X164546054Y-48493946D01*
X164677267Y-48653828D01*
X164774767Y-48836237D01*
X164774767Y-48836238D01*
X164834807Y-49034164D01*
X164855080Y-49240000D01*
X164834807Y-49445836D01*
X164810793Y-49525000D01*
X164774767Y-49643763D01*
X164677267Y-49826172D01*
X164546054Y-49986054D01*
X164386172Y-50117267D01*
X164203763Y-50214767D01*
X164137787Y-50234780D01*
X164005836Y-50274807D01*
X163928707Y-50282403D01*
X163851580Y-50290000D01*
X163748420Y-50290000D01*
X163671293Y-50282403D01*
X163594164Y-50274807D01*
X163462213Y-50234780D01*
X163396237Y-50214767D01*
X163213828Y-50117267D01*
X163053946Y-49986054D01*
X162922733Y-49826172D01*
X162825233Y-49643763D01*
X162789207Y-49525000D01*
X162765193Y-49445836D01*
X162744920Y-49240000D01*
X162765193Y-49034164D01*
X162825233Y-48836238D01*
X162825233Y-48836237D01*
X162922733Y-48653828D01*
X163053946Y-48493946D01*
X163213828Y-48362733D01*
X163396237Y-48265233D01*
X163462213Y-48245220D01*
X163594164Y-48205193D01*
X163671293Y-48197597D01*
X163748420Y-48190000D01*
X163851580Y-48190000D01*
X163928707Y-48197597D01*
X163928707Y-48197597D01*
G37*
G36*
X95856040Y-45910067D02*
X96032333Y-45945134D01*
X96364461Y-46082706D01*
X96661356Y-46281085D01*
X96663372Y-46282432D01*
X96917568Y-46536628D01*
X96917570Y-46536631D01*
X97117294Y-46835539D01*
X97254866Y-47167667D01*
X97325000Y-47520253D01*
X97325000Y-47879747D01*
X97254866Y-48232333D01*
X97117294Y-48564461D01*
X97057580Y-48653829D01*
X96917568Y-48863372D01*
X96663372Y-49117568D01*
X96663369Y-49117570D01*
X96364461Y-49317294D01*
X96032333Y-49454866D01*
X95856040Y-49489933D01*
X95679748Y-49525000D01*
X95320252Y-49525000D01*
X95143960Y-49489933D01*
X94967667Y-49454866D01*
X94635539Y-49317294D01*
X94336631Y-49117570D01*
X94336628Y-49117568D01*
X94082432Y-48863372D01*
X93942420Y-48653829D01*
X93882706Y-48564461D01*
X93745134Y-48232333D01*
X93675000Y-47879747D01*
X93675000Y-47520253D01*
X93745134Y-47167667D01*
X93882706Y-46835539D01*
X94082430Y-46536631D01*
X94082432Y-46536628D01*
X94336628Y-46282432D01*
X94338644Y-46281085D01*
X94635539Y-46082706D01*
X94967667Y-45945134D01*
X95143960Y-45910067D01*
X95320252Y-45875000D01*
X95679748Y-45875000D01*
X95856040Y-45910067D01*
X95856040Y-45910067D01*
G37*
G36*
X163928707Y-45657597D02*
X164005836Y-45665193D01*
X164137787Y-45705220D01*
X164203763Y-45725233D01*
X164386172Y-45822733D01*
X164546054Y-45953946D01*
X164677267Y-46113828D01*
X164774767Y-46296237D01*
X164774767Y-46296238D01*
X164834807Y-46494164D01*
X164855080Y-46700000D01*
X164834807Y-46905836D01*
X164794780Y-47037787D01*
X164774767Y-47103763D01*
X164677267Y-47286172D01*
X164546054Y-47446054D01*
X164386172Y-47577267D01*
X164203763Y-47674767D01*
X164137787Y-47694780D01*
X164005836Y-47734807D01*
X163928707Y-47742403D01*
X163851580Y-47750000D01*
X163748420Y-47750000D01*
X163671293Y-47742403D01*
X163594164Y-47734807D01*
X163462213Y-47694780D01*
X163396237Y-47674767D01*
X163213828Y-47577267D01*
X163053946Y-47446054D01*
X162922733Y-47286172D01*
X162825233Y-47103763D01*
X162805220Y-47037787D01*
X162765193Y-46905836D01*
X162744920Y-46700000D01*
X162765193Y-46494164D01*
X162825233Y-46296238D01*
X162825233Y-46296237D01*
X162922733Y-46113828D01*
X163053946Y-45953946D01*
X163213828Y-45822733D01*
X163396237Y-45725233D01*
X163462213Y-45705220D01*
X163594164Y-45665193D01*
X163671293Y-45657597D01*
X163748420Y-45650000D01*
X163851580Y-45650000D01*
X163928707Y-45657597D01*
X163928707Y-45657597D01*
G37*
G36*
X196631312Y-39659523D02*
X197149982Y-39874363D01*
X197616772Y-40186262D01*
X198013738Y-40583228D01*
X198325637Y-41050018D01*
X198540477Y-41568688D01*
X198650000Y-42119298D01*
X198650000Y-42680702D01*
X198540477Y-43231312D01*
X198325637Y-43749982D01*
X198013738Y-44216772D01*
X197616772Y-44613738D01*
X197149982Y-44925637D01*
X196631312Y-45140477D01*
X196080702Y-45250000D01*
X195519298Y-45250000D01*
X194968688Y-45140477D01*
X194450018Y-44925637D01*
X193983228Y-44613738D01*
X193586262Y-44216772D01*
X193274363Y-43749982D01*
X193059523Y-43231312D01*
X192950000Y-42680702D01*
X192950000Y-42119298D01*
X193059523Y-41568688D01*
X193274363Y-41050018D01*
X193586262Y-40583228D01*
X193983228Y-40186262D01*
X194450018Y-39874363D01*
X194968688Y-39659523D01*
X195519298Y-39550000D01*
X196080702Y-39550000D01*
X196631312Y-39659523D01*
X196631312Y-39659523D01*
G37*
G36*
X149319628Y-43030493D02*
X149367354Y-43044970D01*
X149411336Y-43068479D01*
X149449885Y-43100115D01*
X149481521Y-43138664D01*
X149505030Y-43182646D01*
X149519507Y-43230372D01*
X149525000Y-43286141D01*
X149525000Y-44913859D01*
X149519507Y-44969628D01*
X149505030Y-45017354D01*
X149481521Y-45061336D01*
X149449885Y-45099885D01*
X149411336Y-45131521D01*
X149367354Y-45155030D01*
X149319628Y-45169507D01*
X149263859Y-45175000D01*
X148136141Y-45175000D01*
X148080372Y-45169507D01*
X148032646Y-45155030D01*
X147988664Y-45131521D01*
X147950115Y-45099885D01*
X147918479Y-45061336D01*
X147894970Y-45017354D01*
X147880493Y-44969628D01*
X147875000Y-44913859D01*
X147875000Y-43286141D01*
X147880493Y-43230372D01*
X147894970Y-43182646D01*
X147918479Y-43138664D01*
X147950115Y-43100115D01*
X147988664Y-43068479D01*
X148032646Y-43044970D01*
X148080372Y-43030493D01*
X148136141Y-43025000D01*
X149263859Y-43025000D01*
X149319628Y-43030493D01*
X149319628Y-43030493D01*
G37*
G36*
X146519628Y-43030493D02*
X146567354Y-43044970D01*
X146611336Y-43068479D01*
X146649885Y-43100115D01*
X146681521Y-43138664D01*
X146705030Y-43182646D01*
X146719507Y-43230372D01*
X146725000Y-43286141D01*
X146725000Y-44913859D01*
X146719507Y-44969628D01*
X146705030Y-45017354D01*
X146681521Y-45061336D01*
X146649885Y-45099885D01*
X146611336Y-45131521D01*
X146567354Y-45155030D01*
X146519628Y-45169507D01*
X146463859Y-45175000D01*
X145336141Y-45175000D01*
X145280372Y-45169507D01*
X145232646Y-45155030D01*
X145188664Y-45131521D01*
X145150115Y-45099885D01*
X145118479Y-45061336D01*
X145094970Y-45017354D01*
X145080493Y-44969628D01*
X145075000Y-44913859D01*
X145075000Y-43286141D01*
X145080493Y-43230372D01*
X145094970Y-43182646D01*
X145118479Y-43138664D01*
X145150115Y-43100115D01*
X145188664Y-43068479D01*
X145232646Y-43044970D01*
X145280372Y-43030493D01*
X145336141Y-43025000D01*
X146463859Y-43025000D01*
X146519628Y-43030493D01*
X146519628Y-43030493D01*
G37*
G36*
X138919628Y-43030493D02*
X138967354Y-43044970D01*
X139011336Y-43068479D01*
X139049885Y-43100115D01*
X139081521Y-43138664D01*
X139105030Y-43182646D01*
X139119507Y-43230372D01*
X139125000Y-43286141D01*
X139125000Y-44913859D01*
X139119507Y-44969628D01*
X139105030Y-45017354D01*
X139081521Y-45061336D01*
X139049885Y-45099885D01*
X139011336Y-45131521D01*
X138967354Y-45155030D01*
X138919628Y-45169507D01*
X138863859Y-45175000D01*
X137736141Y-45175000D01*
X137680372Y-45169507D01*
X137632646Y-45155030D01*
X137588664Y-45131521D01*
X137550115Y-45099885D01*
X137518479Y-45061336D01*
X137494970Y-45017354D01*
X137480493Y-44969628D01*
X137475000Y-44913859D01*
X137475000Y-43286141D01*
X137480493Y-43230372D01*
X137494970Y-43182646D01*
X137518479Y-43138664D01*
X137550115Y-43100115D01*
X137588664Y-43068479D01*
X137632646Y-43044970D01*
X137680372Y-43030493D01*
X137736141Y-43025000D01*
X138863859Y-43025000D01*
X138919628Y-43030493D01*
X138919628Y-43030493D01*
G37*
G36*
X141719628Y-43030493D02*
X141767354Y-43044970D01*
X141811336Y-43068479D01*
X141849885Y-43100115D01*
X141881521Y-43138664D01*
X141905030Y-43182646D01*
X141919507Y-43230372D01*
X141925000Y-43286141D01*
X141925000Y-44913859D01*
X141919507Y-44969628D01*
X141905030Y-45017354D01*
X141881521Y-45061336D01*
X141849885Y-45099885D01*
X141811336Y-45131521D01*
X141767354Y-45155030D01*
X141719628Y-45169507D01*
X141663859Y-45175000D01*
X140536141Y-45175000D01*
X140480372Y-45169507D01*
X140432646Y-45155030D01*
X140388664Y-45131521D01*
X140350115Y-45099885D01*
X140318479Y-45061336D01*
X140294970Y-45017354D01*
X140280493Y-44969628D01*
X140275000Y-44913859D01*
X140275000Y-43286141D01*
X140280493Y-43230372D01*
X140294970Y-43182646D01*
X140318479Y-43138664D01*
X140350115Y-43100115D01*
X140388664Y-43068479D01*
X140432646Y-43044970D01*
X140480372Y-43030493D01*
X140536141Y-43025000D01*
X141663859Y-43025000D01*
X141719628Y-43030493D01*
X141719628Y-43030493D01*
G37*
G36*
X143870000Y-39225000D02*
X142350000Y-39225000D01*
X142350000Y-36385000D01*
X143870000Y-36385000D01*
X143870000Y-39225000D01*
X143870000Y-39225000D01*
G37*
G36*
X148950000Y-39225000D02*
X147430000Y-39225000D01*
X147430000Y-36385000D01*
X148950000Y-36385000D01*
X148950000Y-39225000D01*
X148950000Y-39225000D01*
G37*
G36*
X151490000Y-39225000D02*
X149970000Y-39225000D01*
X149970000Y-36385000D01*
X151490000Y-36385000D01*
X151490000Y-39225000D01*
X151490000Y-39225000D01*
G37*
G36*
X154030000Y-39225000D02*
X152510000Y-39225000D01*
X152510000Y-36385000D01*
X154030000Y-36385000D01*
X154030000Y-39225000D01*
X154030000Y-39225000D01*
G37*
G36*
X156570000Y-39225000D02*
X155050000Y-39225000D01*
X155050000Y-36385000D01*
X156570000Y-36385000D01*
X156570000Y-39225000D01*
X156570000Y-39225000D01*
G37*
G36*
X146410000Y-39225000D02*
X144890000Y-39225000D01*
X144890000Y-36385000D01*
X146410000Y-36385000D01*
X146410000Y-39225000D01*
X146410000Y-39225000D01*
G37*
G36*
X161650000Y-39225000D02*
X160130000Y-39225000D01*
X160130000Y-36385000D01*
X161650000Y-36385000D01*
X161650000Y-39225000D01*
X161650000Y-39225000D01*
G37*
G36*
X159110000Y-39225000D02*
X157590000Y-39225000D01*
X157590000Y-36385000D01*
X159110000Y-36385000D01*
X159110000Y-39225000D01*
X159110000Y-39225000D01*
G37*
G36*
X98231312Y-32559523D02*
X98749982Y-32774363D01*
X99216772Y-33086262D01*
X99613738Y-33483228D01*
X99925637Y-33950018D01*
X100140477Y-34468688D01*
X100250000Y-35019298D01*
X100250000Y-35580702D01*
X100140477Y-36131312D01*
X99925637Y-36649982D01*
X99613738Y-37116772D01*
X99216772Y-37513738D01*
X98749982Y-37825637D01*
X98231312Y-38040477D01*
X97680702Y-38150000D01*
X97119298Y-38150000D01*
X96568688Y-38040477D01*
X96050018Y-37825637D01*
X95583228Y-37513738D01*
X95186262Y-37116772D01*
X94874363Y-36649982D01*
X94659523Y-36131312D01*
X94550000Y-35580702D01*
X94550000Y-35019298D01*
X94659523Y-34468688D01*
X94874363Y-33950018D01*
X95186262Y-33483228D01*
X95583228Y-33086262D01*
X96050018Y-32774363D01*
X96568688Y-32559523D01*
X97119298Y-32450000D01*
X97680702Y-32450000D01*
X98231312Y-32559523D01*
X98231312Y-32559523D01*
G37*
G36*
X180033281Y-32137219D02*
X180257596Y-32205265D01*
X180464327Y-32315764D01*
X180645528Y-32464472D01*
X180794236Y-32645673D01*
X180904735Y-32852404D01*
X180972781Y-33076719D01*
X180990000Y-33251548D01*
X180990000Y-35348452D01*
X180972781Y-35523281D01*
X180904735Y-35747596D01*
X180794236Y-35954327D01*
X180794234Y-35954329D01*
X180645531Y-36135525D01*
X180645529Y-36135526D01*
X180645528Y-36135528D01*
X180464326Y-36284236D01*
X180257595Y-36394735D01*
X180033280Y-36462781D01*
X179800000Y-36485757D01*
X179566719Y-36462781D01*
X179342404Y-36394735D01*
X179135673Y-36284236D01*
X179063193Y-36224753D01*
X178954475Y-36135531D01*
X178954474Y-36135529D01*
X178954472Y-36135528D01*
X178805764Y-35954326D01*
X178695265Y-35747595D01*
X178627219Y-35523280D01*
X178610000Y-35348451D01*
X178610001Y-33251548D01*
X178627220Y-33076719D01*
X178695266Y-32852404D01*
X178805765Y-32645673D01*
X178954473Y-32464472D01*
X179135674Y-32315764D01*
X179342405Y-32205265D01*
X179566720Y-32137219D01*
X179800000Y-32114243D01*
X180033281Y-32137219D01*
X180033281Y-32137219D01*
G37*
G36*
X185990000Y-36480000D02*
X183610000Y-36480000D01*
X183610000Y-32120000D01*
X185990000Y-32120000D01*
X185990000Y-36480000D01*
X185990000Y-36480000D01*
G37*
G36*
X126488707Y-32997597D02*
X126565836Y-33005193D01*
X126697787Y-33045220D01*
X126763763Y-33065233D01*
X126946172Y-33162733D01*
X127106054Y-33293946D01*
X127237267Y-33453828D01*
X127334767Y-33636237D01*
X127334767Y-33636238D01*
X127394807Y-33834164D01*
X127415080Y-34040000D01*
X127394807Y-34245836D01*
X127354780Y-34377787D01*
X127334767Y-34443763D01*
X127237267Y-34626172D01*
X127106054Y-34786054D01*
X126946172Y-34917267D01*
X126763763Y-35014767D01*
X126697787Y-35034780D01*
X126565836Y-35074807D01*
X126488707Y-35082404D01*
X126411580Y-35090000D01*
X126308420Y-35090000D01*
X126231293Y-35082404D01*
X126154164Y-35074807D01*
X126022213Y-35034780D01*
X125956237Y-35014767D01*
X125773828Y-34917267D01*
X125613946Y-34786054D01*
X125482733Y-34626172D01*
X125385233Y-34443763D01*
X125365220Y-34377787D01*
X125325193Y-34245836D01*
X125304920Y-34040000D01*
X125325193Y-33834164D01*
X125385233Y-33636238D01*
X125385233Y-33636237D01*
X125482733Y-33453828D01*
X125613946Y-33293946D01*
X125773828Y-33162733D01*
X125956237Y-33065233D01*
X126022213Y-33045220D01*
X126154164Y-33005193D01*
X126231293Y-32997597D01*
X126308420Y-32990000D01*
X126411580Y-32990000D01*
X126488707Y-32997597D01*
X126488707Y-32997597D01*
G37*
G36*
X123948707Y-32997597D02*
X124025836Y-33005193D01*
X124157787Y-33045220D01*
X124223763Y-33065233D01*
X124406172Y-33162733D01*
X124566054Y-33293946D01*
X124697267Y-33453828D01*
X124794767Y-33636237D01*
X124794767Y-33636238D01*
X124854807Y-33834164D01*
X124875080Y-34040000D01*
X124854807Y-34245836D01*
X124814780Y-34377787D01*
X124794767Y-34443763D01*
X124697267Y-34626172D01*
X124566054Y-34786054D01*
X124406172Y-34917267D01*
X124223763Y-35014767D01*
X124157787Y-35034780D01*
X124025836Y-35074807D01*
X123948707Y-35082404D01*
X123871580Y-35090000D01*
X123768420Y-35090000D01*
X123691293Y-35082404D01*
X123614164Y-35074807D01*
X123482213Y-35034780D01*
X123416237Y-35014767D01*
X123233828Y-34917267D01*
X123073946Y-34786054D01*
X122942733Y-34626172D01*
X122845233Y-34443763D01*
X122825220Y-34377787D01*
X122785193Y-34245836D01*
X122764920Y-34040000D01*
X122785193Y-33834164D01*
X122845233Y-33636238D01*
X122845233Y-33636237D01*
X122942733Y-33453828D01*
X123073946Y-33293946D01*
X123233828Y-33162733D01*
X123416237Y-33065233D01*
X123482213Y-33045220D01*
X123614164Y-33005193D01*
X123691293Y-32997597D01*
X123768420Y-32990000D01*
X123871580Y-32990000D01*
X123948707Y-32997597D01*
X123948707Y-32997597D01*
G37*
G36*
X121408707Y-32997597D02*
X121485836Y-33005193D01*
X121617787Y-33045220D01*
X121683763Y-33065233D01*
X121866172Y-33162733D01*
X122026054Y-33293946D01*
X122157267Y-33453828D01*
X122254767Y-33636237D01*
X122254767Y-33636238D01*
X122314807Y-33834164D01*
X122335080Y-34040000D01*
X122314807Y-34245836D01*
X122274780Y-34377787D01*
X122254767Y-34443763D01*
X122157267Y-34626172D01*
X122026054Y-34786054D01*
X121866172Y-34917267D01*
X121683763Y-35014767D01*
X121617787Y-35034780D01*
X121485836Y-35074807D01*
X121408707Y-35082404D01*
X121331580Y-35090000D01*
X121228420Y-35090000D01*
X121151293Y-35082404D01*
X121074164Y-35074807D01*
X120942213Y-35034780D01*
X120876237Y-35014767D01*
X120693828Y-34917267D01*
X120533946Y-34786054D01*
X120402733Y-34626172D01*
X120305233Y-34443763D01*
X120285220Y-34377787D01*
X120245193Y-34245836D01*
X120224920Y-34040000D01*
X120245193Y-33834164D01*
X120305233Y-33636238D01*
X120305233Y-33636237D01*
X120402733Y-33453828D01*
X120533946Y-33293946D01*
X120693828Y-33162733D01*
X120876237Y-33065233D01*
X120942213Y-33045220D01*
X121074164Y-33005193D01*
X121151293Y-32997597D01*
X121228420Y-32990000D01*
X121331580Y-32990000D01*
X121408707Y-32997597D01*
X121408707Y-32997597D01*
G37*
G36*
X129028707Y-32997597D02*
X129105836Y-33005193D01*
X129237787Y-33045220D01*
X129303763Y-33065233D01*
X129486172Y-33162733D01*
X129646054Y-33293946D01*
X129777267Y-33453828D01*
X129874767Y-33636237D01*
X129874767Y-33636238D01*
X129934807Y-33834164D01*
X129955080Y-34040000D01*
X129934807Y-34245836D01*
X129894780Y-34377787D01*
X129874767Y-34443763D01*
X129777267Y-34626172D01*
X129646054Y-34786054D01*
X129486172Y-34917267D01*
X129303763Y-35014767D01*
X129237787Y-35034780D01*
X129105836Y-35074807D01*
X129028707Y-35082404D01*
X128951580Y-35090000D01*
X128848420Y-35090000D01*
X128771293Y-35082404D01*
X128694164Y-35074807D01*
X128562213Y-35034780D01*
X128496237Y-35014767D01*
X128313828Y-34917267D01*
X128153946Y-34786054D01*
X128022733Y-34626172D01*
X127925233Y-34443763D01*
X127905220Y-34377787D01*
X127865193Y-34245836D01*
X127844920Y-34040000D01*
X127865193Y-33834164D01*
X127925233Y-33636238D01*
X127925233Y-33636237D01*
X128022733Y-33453828D01*
X128153946Y-33293946D01*
X128313828Y-33162733D01*
X128496237Y-33065233D01*
X128562213Y-33045220D01*
X128694164Y-33005193D01*
X128771293Y-32997597D01*
X128848420Y-32990000D01*
X128951580Y-32990000D01*
X129028707Y-32997597D01*
X129028707Y-32997597D01*
G37*
G36*
X126488707Y-30457597D02*
X126565836Y-30465193D01*
X126697787Y-30505220D01*
X126763763Y-30525233D01*
X126946172Y-30622733D01*
X127106054Y-30753946D01*
X127237267Y-30913828D01*
X127334767Y-31096237D01*
X127334767Y-31096238D01*
X127394807Y-31294164D01*
X127415080Y-31500000D01*
X127394807Y-31705836D01*
X127354780Y-31837787D01*
X127334767Y-31903763D01*
X127237267Y-32086172D01*
X127106054Y-32246054D01*
X126946172Y-32377267D01*
X126763763Y-32474767D01*
X126697787Y-32494780D01*
X126565836Y-32534807D01*
X126488707Y-32542404D01*
X126411580Y-32550000D01*
X126308420Y-32550000D01*
X126231293Y-32542404D01*
X126154164Y-32534807D01*
X126022213Y-32494780D01*
X125956237Y-32474767D01*
X125773828Y-32377267D01*
X125613946Y-32246054D01*
X125482733Y-32086172D01*
X125385233Y-31903763D01*
X125365220Y-31837787D01*
X125325193Y-31705836D01*
X125304920Y-31500000D01*
X125325193Y-31294164D01*
X125385233Y-31096238D01*
X125385233Y-31096237D01*
X125482733Y-30913828D01*
X125613946Y-30753946D01*
X125773828Y-30622733D01*
X125956237Y-30525233D01*
X126022213Y-30505220D01*
X126154164Y-30465193D01*
X126231293Y-30457597D01*
X126308420Y-30450000D01*
X126411580Y-30450000D01*
X126488707Y-30457597D01*
X126488707Y-30457597D01*
G37*
G36*
X123948707Y-30457597D02*
X124025836Y-30465193D01*
X124157787Y-30505220D01*
X124223763Y-30525233D01*
X124406172Y-30622733D01*
X124566054Y-30753946D01*
X124697267Y-30913828D01*
X124794767Y-31096237D01*
X124794767Y-31096238D01*
X124854807Y-31294164D01*
X124875080Y-31500000D01*
X124854807Y-31705836D01*
X124814780Y-31837787D01*
X124794767Y-31903763D01*
X124697267Y-32086172D01*
X124566054Y-32246054D01*
X124406172Y-32377267D01*
X124223763Y-32474767D01*
X124157787Y-32494780D01*
X124025836Y-32534807D01*
X123948707Y-32542404D01*
X123871580Y-32550000D01*
X123768420Y-32550000D01*
X123691293Y-32542404D01*
X123614164Y-32534807D01*
X123482213Y-32494780D01*
X123416237Y-32474767D01*
X123233828Y-32377267D01*
X123073946Y-32246054D01*
X122942733Y-32086172D01*
X122845233Y-31903763D01*
X122825220Y-31837787D01*
X122785193Y-31705836D01*
X122764920Y-31500000D01*
X122785193Y-31294164D01*
X122845233Y-31096238D01*
X122845233Y-31096237D01*
X122942733Y-30913828D01*
X123073946Y-30753946D01*
X123233828Y-30622733D01*
X123416237Y-30525233D01*
X123482213Y-30505220D01*
X123614164Y-30465193D01*
X123691293Y-30457597D01*
X123768420Y-30450000D01*
X123871580Y-30450000D01*
X123948707Y-30457597D01*
X123948707Y-30457597D01*
G37*
G36*
X129950000Y-32550000D02*
X127850000Y-32550000D01*
X127850000Y-30450000D01*
X129950000Y-30450000D01*
X129950000Y-32550000D01*
X129950000Y-32550000D01*
G37*
G36*
X121408707Y-30457597D02*
X121485836Y-30465193D01*
X121617787Y-30505220D01*
X121683763Y-30525233D01*
X121866172Y-30622733D01*
X122026054Y-30753946D01*
X122157267Y-30913828D01*
X122254767Y-31096237D01*
X122254767Y-31096238D01*
X122314807Y-31294164D01*
X122335080Y-31500000D01*
X122314807Y-31705836D01*
X122274780Y-31837787D01*
X122254767Y-31903763D01*
X122157267Y-32086172D01*
X122026054Y-32246054D01*
X121866172Y-32377267D01*
X121683763Y-32474767D01*
X121617787Y-32494780D01*
X121485836Y-32534807D01*
X121408707Y-32542404D01*
X121331580Y-32550000D01*
X121228420Y-32550000D01*
X121151293Y-32542404D01*
X121074164Y-32534807D01*
X120942213Y-32494780D01*
X120876237Y-32474767D01*
X120693828Y-32377267D01*
X120533946Y-32246054D01*
X120402733Y-32086172D01*
X120305233Y-31903763D01*
X120285220Y-31837787D01*
X120245193Y-31705836D01*
X120224920Y-31500000D01*
X120245193Y-31294164D01*
X120305233Y-31096238D01*
X120305233Y-31096237D01*
X120402733Y-30913828D01*
X120533946Y-30753946D01*
X120693828Y-30622733D01*
X120876237Y-30525233D01*
X120942213Y-30505220D01*
X121074164Y-30465193D01*
X121151293Y-30457597D01*
X121228420Y-30450000D01*
X121331580Y-30450000D01*
X121408707Y-30457597D01*
X121408707Y-30457597D01*
G37*
G36*
X143870000Y-30615000D02*
X142350000Y-30615000D01*
X142350000Y-27775000D01*
X143870000Y-27775000D01*
X143870000Y-30615000D01*
X143870000Y-30615000D01*
G37*
G36*
X146410000Y-30615000D02*
X144890000Y-30615000D01*
X144890000Y-27775000D01*
X146410000Y-27775000D01*
X146410000Y-30615000D01*
X146410000Y-30615000D01*
G37*
G36*
X154030000Y-30615000D02*
X152510000Y-30615000D01*
X152510000Y-27775000D01*
X154030000Y-27775000D01*
X154030000Y-30615000D01*
X154030000Y-30615000D01*
G37*
G36*
X148950000Y-30615000D02*
X147430000Y-30615000D01*
X147430000Y-27775000D01*
X148950000Y-27775000D01*
X148950000Y-30615000D01*
X148950000Y-30615000D01*
G37*
G36*
X151490000Y-30615000D02*
X149970000Y-30615000D01*
X149970000Y-27775000D01*
X151490000Y-27775000D01*
X151490000Y-30615000D01*
X151490000Y-30615000D01*
G37*
G36*
X156570000Y-30615000D02*
X155050000Y-30615000D01*
X155050000Y-27775000D01*
X156570000Y-27775000D01*
X156570000Y-30615000D01*
X156570000Y-30615000D01*
G37*
G36*
X159110000Y-30615000D02*
X157590000Y-30615000D01*
X157590000Y-27775000D01*
X159110000Y-27775000D01*
X159110000Y-30615000D01*
X159110000Y-30615000D01*
G37*
G36*
X161650000Y-30615000D02*
X160130000Y-30615000D01*
X160130000Y-27775000D01*
X161650000Y-27775000D01*
X161650000Y-30615000D01*
X161650000Y-30615000D01*
G37*
M02*
