M48
;DRILL file {KiCad 5.0.0-fee4fd1~66~ubuntu18.04.1} date Mon Oct 15 20:56:30 2018
;FORMAT={-:-/ absolute / metric / decimal}
FMAT,2
METRIC,TZ
T1C0.400
T2C0.889
T3C1.000
T4C1.100
T5C1.320
T6C2.159
T7C3.250
%
G90
G05
M71
T1
X124.288Y-90.114
X125.311Y-90.126
X125.984Y-91.797
X136.047Y-63.54
X136.392Y-72.228
X139.675Y-64.318
X139.853Y-53.653
X140.773Y-53.145
X142.45Y-55.224
X143.473Y-57.894
X144.308Y-48.558
X144.999Y-54.115
X145.938Y-51.662
X148.542Y-42.168
X150.539Y-53.177
X151.3Y-47.405
X151.477Y-61.145
X151.803Y-62.695
X152.249Y-65.602
T2
X98.04Y-51.51
X98.04Y-53.542
X98.04Y-55.574
X98.04Y-57.606
X99.818Y-50.494
X99.818Y-52.526
X99.818Y-54.558
X99.818Y-56.59
T3
X142.37Y-107.99
X144.91Y-107.99
X147.45Y-107.99
X149.99Y-107.99
X152.53Y-107.99
X155.07Y-107.99
X157.61Y-107.99
X160.15Y-107.99
X162.69Y-107.99
X165.23Y-107.99
X163.5Y-46.88
X163.5Y-49.42
X163.5Y-51.96
X163.5Y-54.5
X163.5Y-57.04
X163.5Y-59.58
X121.28Y-31.5
X121.28Y-34.04
X123.82Y-31.5
X123.82Y-34.04
X126.36Y-31.5
X126.36Y-34.04
X128.9Y-31.5
X128.9Y-34.04
T4
X114.7Y-63.1
X117.24Y-63.1
X119.78Y-63.1
T5
X181.7Y-54.3
X181.7Y-59.3
X181.7Y-64.3
X181.7Y-69.3
X95.5Y-113.5
X95.5Y-118.5
X179.8Y-34.3
X184.8Y-34.3
X182.4Y-85.
X182.4Y-90.
X182.4Y-95.
X182.4Y-100.
X95.9Y-131.3
X95.9Y-136.3
X95.7Y-94.1
X95.7Y-99.1
X96.Y-75.3
X96.Y-80.3
X182.4Y-125.3
X182.4Y-130.3
X182.4Y-135.3
T6
X142.37Y-142.28
X165.23Y-111.8
T7
X95.5Y-47.7
X95.5Y-60.4
T0
M30
